<svg xmlns="http://www.w3.org/2000/svg" width="42" height="80" fill="none" viewBox="0 0 42 80"><path fill="#fff" stroke="#fff" stroke-linecap="round" stroke-width="7" d="M19.086 4H35.95c1.364 0 2.207 1.486 1.508 2.657l-7.946 13.307c-.699 1.17.145 2.657 1.508 2.657h4.75c1.401 0 2.238 1.56 1.463 2.728L28.4 38.648c-.776 1.167.061 2.728 1.463 2.728h3.975c1.55 0 2.34 1.86 1.264 2.976L8.65 71.764c-1.388 1.438-3.716-.188-2.844-1.986l8.843-18.244a1.756 1.756 0 0 0-1.581-2.522H9.332a1.756 1.756 0 0 1-1.539-2.604l5.84-10.6a1.756 1.756 0 0 0-1.54-2.604H5.888a1.756 1.756 0 0 1-1.563-2.559l13.2-25.691c.3-.586.903-.954 1.562-.954Z"/><path fill="#ffea80" stroke="#000" stroke-linecap="round" stroke-width="1.3" d="M19.086 4H35.95c1.364 0 2.207 1.486 1.508 2.657l-7.946 13.307c-.699 1.17.145 2.657 1.508 2.657h4.75c1.401 0 2.238 1.56 1.463 2.728L28.4 38.648c-.776 1.167.061 2.728 1.463 2.728h3.975c1.55 0 2.34 1.86 1.264 2.976L8.65 71.764c-1.388 1.438-3.716-.188-2.844-1.986l8.843-18.244a1.756 1.756 0 0 0-1.581-2.522H9.332a1.756 1.756 0 0 1-1.539-2.604l5.84-10.6a1.756 1.756 0 0 0-1.54-2.604H5.888a1.756 1.756 0 0 1-1.563-2.559l13.2-25.691c.3-.586.903-.954 1.562-.954Z"/></svg>
