<svg xmlns="http://www.w3.org/2000/svg" width="63" height="73" fill="none" viewBox="0 0 63 73"><g clip-path="url(#a)"><path fill="#fff" stroke="#fff" stroke-width="7" d="M31.903 68.511c-.332.004-.67-.086-1.053-.288-8.26-4.322-14.387-8.634-19.284-13.572-3.457-3.484-5.46-6.573-6.49-10.024-.378-1.26-.577-2.434-.598-3.488-.118-6.643-.196-13.394-.272-19.925l-.07-5.63c0-.139.011-.274.02-.341l-.006-.417.415-.176q.691-.29 1.375-.55c.96-.371 1.862-.723 2.686-1.191 2.656-1.513 4.462-3.877 5.524-7.224.255-.806.73-1.153 1.588-1.163l16.44-.202 7.554-.093 6.697-.082c.431-.005 1.22-.015 1.597 1.04 1.692 4.77 4.74 7.545 9.328 8.485.108.021.216.056.343.104l.14.047.459.152.017 1.4c.028 2.287.047 4.575.066 6.863.048 5.396.095 10.972.256 16.453.123 4.18-1.082 7.99-3.68 11.656-2.826 3.992-6.462 7.527-11.114 10.81-2.38 1.68-4.891 3.24-7.318 4.755-1.202.75-2.404 1.497-3.592 2.26-.343.22-.678.337-1.028.341Z"/><path fill="#9059ff" d="M31.796 67.857c-.177-.013-.382-.072-.644-.21-8.22-4.301-14.287-8.577-19.124-13.454C8.62 50.758 6.69 47.758 5.7 44.44v-.002c-.366-1.215-.552-2.328-.572-3.312-.118-6.64-.196-13.39-.272-19.921l-.069-5.63a2 2 0 0 1 .014-.255l.005-.043v-.024l.012-.005c.45-.19.903-.368 1.357-.544.953-.368 1.9-.736 2.773-1.231 2.82-1.607 4.718-4.115 5.822-7.592.101-.32.221-.471.332-.553.113-.082.298-.153.644-.158h.088l.044-.001h.044l.044-.001h.044l.044-.001.044-.001h.043l.044-.001h.044l.043-.001h.044l.043-.001h.043l.044-.001h.043l.043-.001h.043l.043-.001h.043l.043-.001.043-.001h.043l.042-.001h.043l.043-.001h.042l.043-.001h.042l.043-.001h.042l.042-.001h.042l.043-.001h.042l.042-.001h.042l.042-.001h.041l.042-.001h.042l.042-.001h.041l.042-.001h.041l.042-.001h.041l.042-.001h.041l.041-.001h.041l.042-.001h.04l.042-.001h.04l.041-.001h.041l.041-.001.04-.001h.082l.04-.001h.041l.04-.001h.041l.04-.001h.04l.04-.001h.041l.04-.001h.04l.04-.001h.04l.04-.001h.04l.04-.001h.04l.04-.001h.039l.04-.001h.039l.04-.001h.039l.039-.001h.04l.038-.001h.04l.039-.001h.039l.039-.001h.039l.039-.001h.039l.039-.001h.038l.039-.001h.077l.039-.001h.038l.039-.001h.038l.038-.001h.039l.038-.001h.038l.038-.001h.038l.038-.001h.038l.038-.001h.038l.038-.001h.075l.038-.001h.038l.037-.001h.038l.037-.001h.038l.037-.001h.037l.038-.001h.074l.037-.001h.037l.037-.001h.037l.037-.001h.037l.036-.001h.037l.037-.001h.073l.037-.001h.036l.037-.001h.036l.036-.001h.037l.036-.001h.072l.036-.001h.036l.036-.001h.036l.036-.001h.036l.036-.001h.071l.036-.001h.036l.035-.001h.036l.035-.001h.071l.035-.001h.035l.036-.001h.035l.035-.001h.035l.035-.001h.07l.035-.001h.035l.035-.001h.069l.035-.001h.034l.035-.001h.034l.035-.001h.069l.034-.001h.034l.035-.001h.034l.034-.001h.068l.034-.001h.034l.034-.001h.068l.034-.001h.033l.034-.001h.034l.033-.001h.067l.034-.001h.033l.034-.001h.066l.034-.001h.033l.033-.001h.066l.033-.001h.033l.033-.001h.066l.033-.001h.032l.033-.001h.065l.033-.001h.032l.033-.001h.065l.032-.001h.033l.032-.001h.064l.033-.001h.032l.032-.001h.064l.032-.001h.032l.032-.001h.063l.032-.001h.032l.031-.001h.064l.031-.001h.032l.031-.001h.063l.031-.001h.062l.032-.001h.031l.031-.001h.062l.031-.001h.062l.031-.001h.031l.03-.001h.062l.031-.001h.03l.031-.001h.061l.031-.001h.06l.031-.001h.061l.03-.001h.03l.03-.001h.061l.03-.001h.06l.03-.001h.03l.03-.001h.06l.03-.001h.059l.03-.001h.059l.03-.001h.029l.03-.001h.058l.03-.001h.058l.03-.001h.058l.029-.001h.029l.03-.001h.058l.028-.001h.058l.029-.001h.057l.03-.001h.057l.028-.001h.058l.028-.001h.029l.028-.001h.057l.028-.001h.057l.028-.001h.057l.028-.001h.056l.028-.001h.056l.028-.001h.056l.028-.001h.055l.028-.001h.056l.027-.001h.056l.027-.001h.055l.028-.001h.055l.027-.001h.055l.027-.001h.054l.028-.001h.027l.027-.001h.081l.027-.001h.054l.027-.001h.054l.027-.001h.053l.027-.001h.053l.027-.001h.053l.026-.001h.054l.026-.001h.053l.026-.001h.053l.026-.001h.053l.026-.001h.052l.026-.001h.052L29.62 5h.155l.026-.001h.051l.026-.001h.052l.025-.001h.051l.026-.001h.051l.026-.001h.051l.025-.001h.076l.025-.001h.051l.025-.001h.051l.025-.001h.05l.025-.001h.075l.025-.001h.05l.025-.001h.05l.024-.001h.05l.025-.001h.074l.025-.001h.049l.024-.001h.049l.025-.001h.073l.025-.001h.049l.024-.001h.049l.024-.001h.073l.024-.001h.048l.024-.001h.072l.024-.001h.048l.024-.001h.048l.024-.001h.072l.024-.001h.047l.024-.001h.071l.024-.001h.047l.024-.001h.07l.024-.001h.023l7.554-.093h.048l.012-.001h.071l.012-.001h.072l.012-.001h.071l.012-.001h.072l.012-.001h.06l.012-.001h.072l.012-.001h.072l.012-.001h.072l.012-.001h.06l.012-.001h.073l.012-.001h.073l.012-.001h.072l.013-.001h.06l.012-.001h.073l.013-.001h.073l.012-.001h.061l.012-.001h.074l.012-.001h.074l.012-.001h.061l.013-.001h.074l.012-.001h.074l.013-.001h.061l.013-.001h.074l.013-.001h.062l.012-.001h.075l.013-.001h.062l.013-.001h.075l.013-.001h.063l.012-.001h.076l.012-.001h.064l.012-.001h.076l.013-.001h.063l.013-.001h.064l.012-.001h.077l.013-.001h.064l.013-.001h.064l.013-.001h.077l.013-.001h.064l.013-.001h.065l.013-.001h.078l.013-.001h.065l.013-.001h.065l.013-.001h.066l.013-.001h.079l.013-.001h.066l.013-.001h.066l.014-.001h.066l.013-.001h.067l.013-.001h.067l.013-.001h.067l.013-.001h.067l.014-.001h.067l.014-.001h.081l.013-.001h.068l.013-.001h.055l.013-.001h.082l.014-.001h.055l.013-.001h.069l.014-.001h.069l.013-.001h.069l.014-.001h.069l.014-.001h.07l.014-.001h.07l.014-.001h.07l.014-.001h.056l.014-.001h.07l.014-.001h.071l.014-.001h.071l.014-.001h.057l.014-.001h.072l.014-.001h.072l.014-.001h.058l.014-.001h.072l.015-.001h.072l.015-.001h.058l.014-.001h.073l.015-.001h.073l.014-.001h.059l.015-.001h.073l.015-.001h.059l.015-.001h.074l.015-.001h.03c.223-.003.397.002.553.069.119.051.29.166.423.538.874 2.464 2.111 4.449 3.753 5.942 1.644 1.496 3.664 2.472 6.057 2.963h.006c.057.012.127.032.237.074l.01.004.01.003.14.048.006.002.019.006.011.936c.028 2.286.047 4.573.067 6.86l.004.528c.047 5.23.095 10.63.252 15.94.118 4.027-1.038 7.7-3.56 11.26-2.778 3.923-6.358 7.408-10.96 10.655-2.285 1.614-4.694 3.118-7.05 4.588l-.236.148-.528.329c-1.025.64-2.054 1.28-3.072 1.935zm0 0h.1c.205-.003.423-.067.684-.234z"/><path stroke="#000" stroke-width="1.3" d="M31.796 67.857c-.177-.013-.382-.072-.644-.21-8.22-4.301-14.287-8.577-19.124-13.454C8.62 50.758 6.69 47.758 5.7 44.44v-.002c-.366-1.215-.552-2.328-.572-3.312-.118-6.64-.196-13.39-.272-19.921l-.069-5.63a2 2 0 0 1 .014-.255l.005-.043v-.024l.012-.005m26.978 52.608.784-.234m-.784.234h.1c.205-.003.423-.067.684-.234M4.818 15.25Zm0 0c.45-.19.903-.368 1.357-.544.953-.368 1.9-.736 2.773-1.231 2.82-1.607 4.718-4.115 5.822-7.592.101-.32.221-.471.332-.553.113-.082.298-.153.644-.158h.088l.044-.001h.044l.044-.001h.044l.044-.001.044-.001h.043l.044-.001h.044l.043-.001h.044l.043-.001h.043l.044-.001h.043l.043-.001h.043l.043-.001h.043l.043-.001.043-.001h.043l.042-.001h.043l.043-.001h.042l.043-.001h.042l.043-.001h.042l.042-.001h.042l.043-.001h.042l.042-.001h.042l.042-.001h.041l.042-.001h.042l.042-.001h.041l.042-.001h.041l.042-.001h.041l.042-.001h.041l.041-.001h.041l.042-.001h.04l.042-.001h.04l.041-.001h.041l.041-.001.04-.001h.082l.04-.001h.041l.04-.001h.041l.04-.001h.04l.04-.001h.041l.04-.001h.04l.04-.001h.04l.04-.001h.04l.04-.001h.04l.04-.001h.039l.04-.001h.039l.04-.001h.039l.039-.001h.04l.038-.001h.04l.039-.001h.039l.039-.001h.039l.039-.001h.039l.039-.001h.038l.039-.001h.077l.039-.001h.038l.039-.001h.038l.038-.001h.039l.038-.001h.038l.038-.001h.038l.038-.001h.038l.038-.001h.038l.038-.001h.075l.038-.001h.038l.037-.001h.038l.037-.001h.038l.037-.001h.037l.038-.001h.074l.037-.001h.037l.037-.001h.037l.037-.001h.037l.036-.001h.037l.037-.001h.073l.037-.001h.036l.037-.001h.036l.036-.001h.037l.036-.001h.072l.036-.001h.036l.036-.001h.036l.036-.001h.036l.036-.001h.071l.036-.001h.036l.035-.001h.036l.035-.001h.071l.035-.001h.035l.036-.001h.035l.035-.001h.035l.035-.001h.07l.035-.001h.035l.035-.001h.069l.035-.001h.034l.035-.001h.034l.035-.001h.069l.034-.001h.034l.035-.001h.034l.034-.001h.068l.034-.001h.034l.034-.001h.068l.034-.001h.033l.034-.001h.034l.033-.001h.067l.034-.001h.033l.034-.001h.066l.034-.001h.033l.033-.001h.066l.033-.001h.033l.033-.001h.066l.033-.001h.032l.033-.001h.065l.033-.001h.032l.033-.001h.065l.032-.001h.033l.032-.001h.064l.033-.001h.032l.032-.001h.064l.032-.001h.032l.032-.001h.063l.032-.001h.032l.031-.001h.064l.031-.001h.032l.031-.001h.063l.031-.001h.062l.032-.001h.031l.031-.001h.062l.031-.001h.062l.031-.001h.031l.03-.001h.062l.031-.001h.03l.031-.001h.061l.031-.001h.06l.031-.001h.061l.03-.001h.03l.03-.001h.061l.03-.001h.06l.03-.001h.03l.03-.001h.06l.03-.001h.059l.03-.001h.059l.03-.001h.029l.03-.001h.058l.03-.001h.058l.03-.001h.058l.029-.001h.029l.03-.001h.058l.028-.001h.058l.029-.001h.057l.03-.001h.057l.028-.001h.058l.028-.001h.029l.028-.001h.057l.028-.001h.057l.028-.001h.057l.028-.001h.056l.028-.001h.056l.028-.001h.056l.028-.001h.055l.028-.001h.056l.027-.001h.056l.027-.001h.055l.028-.001h.055l.027-.001h.055l.027-.001h.054l.028-.001h.027l.027-.001h.081l.027-.001h.054l.027-.001h.054l.027-.001h.053l.027-.001h.053l.027-.001h.053l.026-.001h.054l.026-.001h.053l.026-.001h.053l.026-.001h.053l.026-.001h.052l.026-.001h.052L29.62 5h.155l.026-.001h.051l.026-.001h.052l.025-.001h.051l.026-.001h.051l.026-.001h.051l.025-.001h.076l.025-.001h.051l.025-.001h.051l.025-.001h.05l.025-.001h.075l.025-.001h.05l.025-.001h.05l.024-.001h.05l.025-.001h.074l.025-.001h.049l.024-.001h.049l.025-.001h.073l.025-.001h.049l.024-.001h.049l.024-.001h.073l.024-.001h.048l.024-.001h.072l.024-.001h.048l.024-.001h.048l.024-.001h.072l.024-.001h.047l.024-.001h.071l.024-.001h.047l.024-.001h.07l.024-.001h.023l7.554-.093h.048l.012-.001h.071l.012-.001h.072l.012-.001h.071l.012-.001h.072l.012-.001h.06l.012-.001h.072l.012-.001h.072l.012-.001h.072l.012-.001h.06l.012-.001h.073l.012-.001h.073l.012-.001h.072l.013-.001h.06l.012-.001h.073l.013-.001h.073l.012-.001h.061l.012-.001h.074l.012-.001h.074l.012-.001h.061l.013-.001h.074l.012-.001h.074l.013-.001h.061l.013-.001h.074l.013-.001h.062l.012-.001h.075l.013-.001h.062l.013-.001h.075l.013-.001h.063l.012-.001h.076l.012-.001h.064l.012-.001h.076l.013-.001h.063l.013-.001h.064l.012-.001h.077l.013-.001h.064l.013-.001h.064l.013-.001h.077l.013-.001h.064l.013-.001h.065l.013-.001h.078l.013-.001h.065l.013-.001h.065l.013-.001h.066l.013-.001h.079l.013-.001h.066l.013-.001h.066l.014-.001h.066l.013-.001h.067l.013-.001h.067l.013-.001h.067l.013-.001h.067l.014-.001h.067l.014-.001h.081l.013-.001h.068l.013-.001h.055l.013-.001h.082l.014-.001h.055l.013-.001h.069l.014-.001h.069l.013-.001h.069l.014-.001h.069l.014-.001h.07l.014-.001h.07l.014-.001h.07l.014-.001h.056l.014-.001h.07l.014-.001h.071l.014-.001h.071l.014-.001h.057l.014-.001h.072l.014-.001h.072l.014-.001h.058l.014-.001h.072l.015-.001h.072l.015-.001h.058l.014-.001h.073l.015-.001h.073l.014-.001h.059l.015-.001h.073l.015-.001h.059l.015-.001h.074l.015-.001h.03c.223-.003.397.002.553.069.119.051.29.166.423.538.874 2.464 2.111 4.449 3.753 5.942 1.644 1.496 3.664 2.472 6.057 2.963h.006c.057.012.127.032.237.074l.01.004.01.003.14.048.006.002.019.006.011.936c.028 2.286.047 4.573.067 6.86l.004.528c.047 5.23.095 10.63.252 15.94.118 4.027-1.038 7.7-3.56 11.26-2.778 3.923-6.358 7.408-10.96 10.655-2.285 1.614-4.694 3.118-7.05 4.588l-.236.148-.528.329c-1.025.64-2.054 1.28-3.072 1.935"/><path stroke="#000" stroke-linecap="round" stroke-width="1.3" d="M32 67.5v-62"/></g><defs><clipPath id="a"><path fill="#fff" d="M0 0h63v73H0z"/></clipPath></defs></svg>
