<svg xmlns="http://www.w3.org/2000/svg" width="69" height="61" fill="none" viewBox="0 0 69 61"><g clip-path="url(#a)"><path fill="#fff" stroke="#fff" stroke-linecap="round" stroke-linejoin="round" stroke-width="7" d="M60.574 8.66a16.2 16.2 0 0 0-5.233-3.449 16.33 16.33 0 0 0-12.349 0 16.2 16.2 0 0 0-5.234 3.45l-3.108 3.065-3.11-3.066A16.25 16.25 0 0 0 20.133 4 16.25 16.25 0 0 0 8.725 8.66 15.8 15.8 0 0 0 4 19.909c0 4.219 1.7 8.265 4.725 11.248l3.109 3.065L34.65 56.72l22.816-22.497 3.108-3.065a15.9 15.9 0 0 0 3.499-5.16 15.7 15.7 0 0 0 0-12.176 15.9 15.9 0 0 0-3.499-5.16"/><path fill="#ff4f5f" d="M60.574 8.66a16.2 16.2 0 0 0-5.233-3.449 16.33 16.33 0 0 0-12.349 0 16.2 16.2 0 0 0-5.234 3.45l-3.108 3.065-3.11-3.066A16.25 16.25 0 0 0 20.133 4 16.25 16.25 0 0 0 8.725 8.66 15.8 15.8 0 0 0 4 19.909c0 4.219 1.7 8.265 4.725 11.248l3.109 3.065L34.65 56.72l22.816-22.497 3.108-3.065a15.9 15.9 0 0 0 3.499-5.16 15.7 15.7 0 0 0 0-12.176 15.9 15.9 0 0 0-3.499-5.16"/><use stroke-linecap="round" stroke-linejoin="round" stroke-width="1.3" href="#b"/><use stroke-linecap="round" stroke-linejoin="round" stroke-width="1.3" href="#b"/></g><defs><clipPath id="a"><path fill="#fff" d="M0 0h69v61H0z"/></clipPath><path id="b" stroke="#000" d="M60.574 8.66a16.2 16.2 0 0 0-5.233-3.449 16.33 16.33 0 0 0-12.349 0 16.2 16.2 0 0 0-5.234 3.45l-3.108 3.065-3.11-3.066A16.25 16.25 0 0 0 20.133 4 16.25 16.25 0 0 0 8.725 8.66 15.8 15.8 0 0 0 4 19.909c0 4.219 1.7 8.265 4.725 11.248l3.109 3.065L34.65 56.72l22.816-22.497 3.108-3.065a15.9 15.9 0 0 0 3.499-5.16 15.7 15.7 0 0 0 0-12.176 15.9 15.9 0 0 0-3.499-5.16"/></defs></svg>
