<svg width="24" height="24" viewBox="0 0 24 24" fill="none" xmlns="http://www.w3.org/2000/svg">
<path fill-rule="evenodd" clip-rule="evenodd" d="M11.05 14.83C11.01 14.63 11 14.44 11 14.25H3.91C3.82 14.25 3.75 14.17 3.75 14.08V7.80877L8.69995 11.81C8.85995 11.94 9.05995 12 9.24995 12V11.99C9.43995 11.99 9.63995 11.93 9.79995 11.8L14.74 7.815V10.39L15.72 9.88C15.96 9.75 16.23 9.66 16.49 9.59V6.92C16.49 5.86 15.63 5 14.58 5H3.91C2.86 5 2 5.86 2 6.92V14.08C2 15.14 2.86 16 3.91 16H11.27L11.05 14.83ZM9.24995 9.99998L5.22441 6.75H13.2755L9.24995 9.99998Z" fill="black"/>
<path fill-rule="evenodd" clip-rule="evenodd" d="M17.26 21.01C17.02 21.01 16.78 20.96 16.56 20.86C15.45 20.36 14.44 19.5 13.7 18.44C13.3 17.87 13.03 17.21 12.89 16.46L12.53 14.56C12.4 13.85 12.74 13.14 13.39 12.8L16.43 11.19C16.93 10.93 17.52 10.93 18.02 11.19L21.12 12.82C21.8 13.18 22.11 13.89 21.96 14.72L21.63 16.47C21.49 17.21 21.22 17.87 20.82 18.44C20.09 19.5 19.07 20.36 17.97 20.86C17.74 20.96 17.51 21.01 17.26 21.01ZM17.22 12.49C17.22 12.49 17.16 12.49 17.13 12.51L14.09 14.12C14.02 14.16 13.99 14.22 14 14.28L14.36 16.18C14.46 16.72 14.65 17.19 14.93 17.58C15.52 18.42 16.31 19.1 17.17 19.49L17.25 19.51L17.2573 19.5098L17.2326 12.4833C17.224 12.4813 17.2161 12.48 17.21 12.48L17.22 12.49Z" fill="black"/>
</svg>
