<svg width="24" height="24" viewBox="0 0 24 24" fill="none" xmlns="http://www.w3.org/2000/svg">
<path d="M11.9997 6.72C11.9997 7.209 11.4107 7.453 11.0637 7.111L6.88974 2.936C6.54574 2.589 6.79074 2 7.27974 2H11.4497C11.7537 2 11.9997 2.246 11.9997 2.55V6.72Z" fill="black"/>
<path d="M19.3947 15.44C19.9387 14.423 20.2497 13.262 20.2497 12.03C20.2497 8.28599 17.3977 5.19599 13.7507 4.81899V3.06799C18.3627 3.45199 21.9997 7.32099 21.9997 12.03C21.9997 13.748 21.5077 15.349 20.6697 16.715L19.3947 15.44Z" fill="black"/>
<path d="M16.7257 12.772L16.8557 12.698C17.3957 12.39 17.3957 11.611 16.8557 11.303L13.1217 9.16901L16.7257 12.772Z" fill="black"/>
<path fill-rule="evenodd" clip-rule="evenodd" d="M22.2494 20.7623L3.48744 2.00031L2.25 3.23774L5.74926 6.737C4.65307 8.22042 3.99976 10.0464 3.99976 12.03C3.99976 16.993 8.03676 21.03 12.9998 21.03C14.9832 21.03 16.8143 20.3814 18.3011 19.2888L21.012 21.9997L22.2494 20.7623ZM5.74976 12.03C5.74976 10.5283 6.21506 9.1423 7.005 7.99274L10.4998 11.4875V14.945C10.4998 15.562 11.1668 15.949 11.7018 15.643L13.5814 14.5691L17.0471 18.0349C15.8914 18.8196 14.4995 19.28 12.9998 19.28C9.00176 19.28 5.74976 16.028 5.74976 12.03Z" fill="black"/>
</svg>
