<svg width="24" height="24" viewBox="0 0 24 24" fill="none" xmlns="http://www.w3.org/2000/svg">
<path fill-rule="evenodd" clip-rule="evenodd" d="M11.9977 9C10.1337 9 8.62268 10.511 8.62268 12.375C8.62268 14.239 10.1337 15.75 11.9977 15.75C13.8616 15.75 15.3727 14.239 15.3727 12.375C15.3727 10.511 13.8616 9 11.9977 9ZM10.3727 12.375C10.3727 11.4775 11.1002 10.75 11.9977 10.75C12.8951 10.75 13.6227 11.4775 13.6227 12.375C13.6227 13.2725 12.8951 14 11.9977 14C11.1002 14 10.3727 13.2725 10.3727 12.375Z" fill="black"/>
<path fill-rule="evenodd" clip-rule="evenodd" d="M11.9976 5.26904C7.50059 5.26904 3.6973 8.10555 2.19737 12.0651C2.12171 12.2648 2.12171 12.4853 2.19737 12.685C3.6973 16.6445 7.50059 19.481 11.9976 19.481C16.4947 19.481 20.2979 16.6445 21.7979 12.685C21.8735 12.4853 21.8735 12.2648 21.7979 12.0651C20.2979 8.10555 16.4947 5.26904 11.9976 5.26904ZM11.9976 17.731C8.37838 17.731 5.2884 15.5216 3.95807 12.375C5.2884 9.22847 8.37838 7.01904 11.9976 7.01904C15.6169 7.01904 18.7069 9.22847 20.0372 12.375C18.7069 15.5216 15.6169 17.731 11.9976 17.731Z" fill="black"/>
</svg>
