<svg width="100" height="36" viewBox="0 0 100 36" fill="none" xmlns="http://www.w3.org/2000/svg">
<rect x="0.5" y="0.5" width="99" height="35" rx="4.5" stroke="#7B61FF" stroke-dasharray="10 5"/>
<path fill-rule="evenodd" clip-rule="evenodd" d="M63.2374 8.00031L64.717 9.47983L64.7188 9.479L66.2398 11H66.2371L74.3474 19.1103L74.3488 19.109L77.2488 22.01V22.0116L78.9998 23.7626V23.76L80.5208 25.281L80.5199 25.2828L81.9994 26.7623L80.762 27.9997L79.2859 26.5236C78.9704 26.6689 78.6196 26.75 78.2498 26.75H65.7498C64.3718 26.75 63.2498 25.629 63.2498 24.25V11.75C63.2498 11.3801 63.3309 11.0293 63.4762 10.714L62 9.23774L63.2374 8.00031ZM69.6405 16.8783L67.0398 19.494C66.8538 19.681 66.7488 19.935 66.7488 20.199V22.5C66.7488 22.914 67.0848 23.25 67.4988 23.25H76.0122L77.7623 25H65.7498C65.3358 25 64.9998 24.663 64.9998 24.25V12.2375L69.6405 16.8783Z" fill="black"/>
<path d="M77.2498 14H74.7498V16.5H77.2498V14Z" fill="black"/>
<path d="M78.2497 11H68.3607L66.6107 9.25H78.2497C79.6287 9.25 80.7497 10.371 80.7497 11.75V23.389L78.9997 21.639V11.75C78.9997 11.337 78.6627 11 78.2497 11Z" fill="black"/>
<path d="M34.25 26.75H21.75C20.372 26.75 19.25 25.629 19.25 24.25V11.75C19.25 10.371 20.372 9.25 21.75 9.25H34.25C35.629 9.25 36.75 10.371 36.75 11.75V24.25C36.75 25.629 35.629 26.75 34.25 26.75ZM21.75 11C21.336 11 21 11.337 21 11.75V24.25C21 24.663 21.336 25 21.75 25H34.25C34.663 25 35 24.663 35 24.25V11.75C35 11.337 34.663 11 34.25 11H21.75Z" fill="black"/>
<path d="M32.5 23.25H23.5C23.086 23.25 22.75 22.914 22.75 22.5V20.199C22.75 19.935 22.855 19.681 23.041 19.494L25.824 16.695C26.214 16.303 26.847 16.302 27.239 16.691L30 19.439L30.792 18.692C31.187 18.32 31.806 18.33 32.188 18.715L32.961 19.494C33.147 19.681 33.251 19.934 33.251 20.198V22.5C33.25 22.914 32.914 23.25 32.5 23.25Z" fill="black"/>
<path d="M33.25 14H30.75V16.5H33.25V14Z" fill="black"/>
</svg>
