<svg width="100" height="36" viewBox="0 0 100 36" fill="none" xmlns="http://www.w3.org/2000/svg">
<rect x="0.5" y="0.5" width="99" height="35" rx="4.5" stroke="#7B61FF" stroke-dasharray="10 5"/>
<path fill-rule="evenodd" clip-rule="evenodd" d="M18 24H21.5C20.1198 24 19 22.8802 19 21.5V13.5C19 12.1198 20.1198 11 21.5 11H34.5C35.8802 11 37 12.1198 37 13.5V21.5C37 22.8802 35.8802 24 34.5 24H38V25.75H18V24ZM21.5 12.75C21.0862 12.75 20.75 13.0862 20.75 13.5V21.5C20.75 21.9138 21.0862 22.25 21.5 22.25H34.5C34.9138 22.25 35.25 21.9138 35.25 21.5V13.5C35.25 13.0862 34.9138 12.75 34.5 12.75H21.5Z" fill="black"/>
<path fill-rule="evenodd" clip-rule="evenodd" d="M65.2617 11.0234C65.264 11.0232 65.2663 11.0236 65.2686 11.0234L66.9951 12.75H66.9883L76.4873 22.25H76.4951L79.9951 25.75H79.9873L82 27.7627L81.3809 28.3809L80.7627 29L77.5127 25.75H62V24H65.5C64.121 24 63 22.879 63 21.5V13.5C63 12.87 63.2355 12.2974 63.6221 11.8604L62 10.2383L63.2383 9L65.2617 11.0234ZM64.8652 13.1035C64.7929 13.2188 64.75 13.3544 64.75 13.5V21.5C64.75 21.913 65.087 22.25 65.5 22.25H74.0127L64.8652 13.1035Z" fill="black"/>
<path d="M82 24V25.6338L80.3662 24H82Z" fill="black"/>
<path d="M78.5 11C79.879 11 81 12.121 81 13.5V21.5C81 22.351 80.5709 23.1017 79.9189 23.5527L78.5957 22.2305C78.9617 22.1815 79.25 21.879 79.25 21.5V13.5C79.25 13.087 78.913 12.75 78.5 12.75H69.1162L67.3662 11H78.5Z" fill="black"/>
</svg>
