<svg width="100" height="36" viewBox="0 0 100 36" fill="none" xmlns="http://www.w3.org/2000/svg">
<rect x="0.5" y="0.5" width="99" height="35" rx="4.5" stroke="#7B61FF" stroke-dasharray="10 5"/>
<path d="M67.1277 11.737C68.3887 10.511 70.1057 9.75201 71.9997 9.75201C75.8577 9.75201 78.9967 12.891 78.9967 16.749C78.9967 17.93 78.2197 19.555 76.8107 21.419L78.0567 22.665C79.5627 20.713 80.7467 18.595 80.7467 16.749C80.7467 11.926 76.8227 8.00201 71.9997 8.00201C69.6237 8.00201 67.4687 8.95701 65.8907 10.5L67.1277 11.737Z" fill="black"/>
<path fill-rule="evenodd" clip-rule="evenodd" d="M75.8493 22.6122L66.1524 12.9153L66.1658 12.895L64.9128 11.643L64.8991 11.662L63.2374 10.0003L62 11.2377L63.997 13.2347C63.5197 14.3104 63.2528 15.4985 63.2528 16.749C63.2528 20.32 67.6758 24.917 70.3138 27.34C70.7948 27.781 71.3968 28.002 72.0008 28.002C72.6048 28.002 73.2068 27.781 73.6878 27.34C74.3502 26.7315 75.1253 25.9855 75.915 25.1528L78.762 27.9997L79.9994 26.7623L77.0908 23.8536L77.1068 23.835L75.8648 22.594L75.8493 22.6122ZM74.6772 23.9149C74.0182 24.6117 73.292 25.3264 72.5028 26.051C72.2158 26.315 71.7838 26.315 71.4968 26.051C67.4308 22.315 65.0028 18.838 65.0028 16.749C65.0028 15.9934 65.1239 15.2663 65.347 14.5848L74.6772 23.9149Z" fill="black"/>
<path d="M70.5368 15.146C70.9028 14.751 71.4208 14.5 71.9998 14.5C73.1028 14.5 73.9998 15.397 73.9998 16.5C73.9998 17.079 73.7488 17.597 73.3538 17.963L74.5908 19.2C75.3018 18.517 75.7498 17.562 75.7498 16.501C75.7498 14.434 74.0678 12.751 71.9998 12.751C70.9378 12.751 69.9828 13.199 69.2998 13.91L70.5368 15.146Z" fill="black"/>
<path fill-rule="evenodd" clip-rule="evenodd" d="M24.25 16.5C24.25 18.57 25.93 20.25 28 20.25C30.07 20.25 31.75 18.57 31.75 16.5C31.75 14.43 30.07 12.75 28 12.75C25.93 12.75 24.25 14.43 24.25 16.5ZM26 16.5C26 15.4 26.9 14.5 28 14.5C29.1 14.5 30 15.4 30 16.5C30 17.6 29.1 18.5 28 18.5C26.9 18.5 26 17.6 26 16.5Z" fill="black"/>
<path fill-rule="evenodd" clip-rule="evenodd" d="M26.31 27.34C26.79 27.78 27.4 28 28 28C28.61 28 29.21 27.78 29.69 27.34C32.33 24.92 36.75 20.32 36.75 16.75C36.75 11.92 32.82 8 28 8C23.18 8 19.25 11.93 19.25 16.75C19.25 20.32 23.67 24.92 26.31 27.34ZM21 16.75C21 12.8917 24.1373 9.75271 27.995 9.75C31.8527 9.75271 34.99 12.8917 34.99 16.75C34.99 18.84 32.57 22.31 28.5 26.05C28.21 26.31 27.78 26.31 27.49 26.05C23.43 22.32 21 18.84 21 16.75Z" fill="black"/>
</svg>
