<svg width="24" height="24" viewBox="0 0 24 24" fill="none" xmlns="http://www.w3.org/2000/svg">
<path d="M9.99976 7.636V5.75C9.99976 4.647 10.8968 3.75 11.9998 3.75C13.1028 3.75 13.9998 4.647 13.9998 5.75V10.5C13.9998 10.828 13.9128 11.134 13.7718 11.408L15.0408 12.677C15.4828 12.062 15.7498 11.313 15.7498 10.5V5.75C15.7498 3.683 14.0668 2 11.9998 2C9.93276 2 8.24976 3.683 8.24976 5.75V5.886L9.99976 7.636Z" fill="black"/>
<path d="M17.5287 15.1661C18.5997 13.9021 19.2497 12.2701 19.2497 10.4871H17.4997C17.4997 11.7871 17.0437 12.9811 16.2867 13.9231L17.5287 15.1661Z" fill="black"/>
<path d="M8.24976 8.01256L3.23744 3.00024L2 4.23768L8.24976 10.4874V10.5C8.24976 12.567 9.93276 14.25 11.9998 14.25L12.0123 14.2499L13.5307 15.7684C13.0449 15.9105 12.5314 15.9869 11.9998 15.9869C8.96776 15.9869 6.49976 13.5189 6.49976 10.4869H4.74976C4.74976 14.1888 7.5379 17.2512 11.1248 17.6844V20.2499H6.99976V21.9999H16.9998V20.2499H12.8748V17.6839C13.584 17.5975 14.2614 17.4073 14.8922 17.1299L19.762 21.9997L20.9994 20.7622L16.4416 16.2044L16.4448 16.2019L15.1968 14.9539L15.1935 14.9563L13.9333 13.6961L13.9368 13.694L12.6308 12.388L12.6266 12.3894L9.99976 9.76256V9.75696L8.24976 8.00696V8.01256Z" fill="black"/>
</svg>
