<svg width="24" height="24" viewBox="0 0 24 24" fill="none" xmlns="http://www.w3.org/2000/svg">
<path fill-rule="evenodd" clip-rule="evenodd" d="M15 8.5C15 6.567 16.567 5 18.5 5C20.433 5 22 6.567 22 8.5C22 10.433 20.433 12 18.5 12C16.567 12 15 10.433 15 8.5ZM20.25 8.5C20.25 7.535 19.465 6.75 18.5 6.75C17.535 6.75 16.75 7.535 16.75 8.5C16.75 9.465 17.535 10.25 18.5 10.25C19.465 10.25 20.25 9.465 20.25 8.5Z" fill="black"/>
<path fill-rule="evenodd" clip-rule="evenodd" d="M2 15.5C2 13.567 3.567 12 5.5 12C7.433 12 9 13.567 9 15.5C9 17.433 7.433 19 5.5 19C3.567 19 2 17.433 2 15.5ZM7.25 15.5C7.25 14.535 6.465 13.75 5.5 13.75C4.535 13.75 3.75 14.535 3.75 15.5C3.75 16.465 4.535 17.25 5.5 17.25C6.465 17.25 7.25 16.465 7.25 15.5Z" fill="black"/>
<path d="M13.339 7.625H2V9.375H13.338C13.29 9.089 13.25 8.8 13.25 8.5C13.25 8.2 13.29 7.911 13.339 7.625Z" fill="black"/>
<path d="M10.661 14.625H22V16.375H10.662C10.71 16.089 10.75 15.8 10.75 15.5C10.75 15.2 10.71 14.911 10.661 14.625Z" fill="black"/>
</svg>
