<svg width="100" height="36" viewBox="0 0 100 36" fill="none" xmlns="http://www.w3.org/2000/svg">
<rect x="0.5" y="0.5" width="99" height="35" rx="4.5" stroke="#7B61FF" stroke-dasharray="10 5"/>
<path d="M66 17H68.25V19.25H66V17Z" fill="black"/>
<path fill-rule="evenodd" clip-rule="evenodd" d="M81.9997 26.7522L63.2377 7.99023L62.0002 9.22767L64.7726 12H64.5C63.121 12 62 13.121 62 14.5V21.5C62 22.879 63.121 24 64.5 24H76.7726L80.7622 27.9897L81.9997 26.7522ZM75.0226 22.25L66.5226 13.75H64.5C64.087 13.75 63.75 14.087 63.75 14.5V21.5C63.75 21.913 64.087 22.25 64.5 22.25H75.0226Z" fill="black"/>
<path d="M71.109 13.75H79.5C79.913 13.75 80.25 14.087 80.25 14.5V21.5C80.25 21.881 79.959 22.185 79.591 22.232L80.916 23.557C81.57 23.105 82 22.353 82 21.5V14.5C82 13.121 80.879 12 79.5 12H69.359L71.109 13.75Z" fill="black"/>
<path fill-rule="evenodd" clip-rule="evenodd" d="M20.5 13.75C20.0862 13.75 19.75 14.0862 19.75 14.5V21.5C19.75 21.9138 20.0862 22.25 20.5 22.25H35.5C35.9138 22.25 36.25 21.9138 36.25 21.5V14.5C36.25 14.0862 35.9138 13.75 35.5 13.75H20.5ZM18 14.5C18 13.1198 19.1198 12 20.5 12H35.5C36.8802 12 38 13.1198 38 14.5V21.5C38 22.8802 36.8802 24 35.5 24H20.5C19.1198 24 18 22.8802 18 21.5V14.5Z" fill="black"/>
<path d="M24.5 16.75H22V19.25H24.5V16.75Z" fill="black"/>
</svg>
