<svg width="154" height="101" fill="none" xmlns="http://www.w3.org/2000/svg"><path d="M38.0217 15.6045H113.85V73.8455C113.85 76.0219 112.084 77.7832 109.913 77.7832H41.9595C39.7831 77.7832 38.0217 76.0219 38.0217 73.8455V15.6045Z" fill="#FFEA80" stroke="#333336" stroke-width="2"/><path d="M38.0217 4.9866C38.0217 2.81464 39.7875 1.04883 41.9595 1.04883H109.913C112.089 1.04883 113.85 2.81464 113.85 4.9866V15.608H38.0217V4.9866Z" fill="#F8F6F4" stroke="#333336" stroke-width="2"/><path d="M47.3585 10.9312C48.6555 10.9312 49.707 9.89352 49.707 8.61353 49.707 7.33353 48.6555 6.2959 47.3585 6.2959 46.0614 6.2959 45.0099 7.33353 45.0099 8.61353 45.0099 9.89352 46.0614 10.9312 47.3585 10.9312ZM56.2882 10.9312C57.5853 10.9312 58.6367 9.89352 58.6367 8.61353 58.6367 7.33353 57.5853 6.2959 56.2882 6.2959 54.9912 6.2959 53.9397 7.33353 53.9397 8.61353 53.9397 9.89352 54.9912 10.9312 56.2882 10.9312ZM65.2179 10.9312C66.515 10.9312 67.5664 9.89352 67.5664 8.61353 67.5664 7.33353 66.515 6.2959 65.2179 6.2959 63.9208 6.2959 62.8694 7.33353 62.8694 8.61353 62.8694 9.89352 63.9208 10.9312 65.2179 10.9312Z" stroke="#333336" stroke-width="2"/><path d="M83.5274 41.2369V36.3147C83.5274 34.2664 82.7328 32.3019 81.3024 30.854C79.881 29.406 77.9518 28.5938 75.9388 28.5938C73.9257 28.5938 72.001 29.406 70.5751 30.854C69.1448 32.3019 68.3502 34.2664 68.3502 36.3147V41.2369" stroke="#333336" stroke-width="2" stroke-miterlimit="10"/><path d="M87.4441 41.4639H64.4267C63.4466 41.4639 62.6565 42.2541 62.6565 43.2297V59.952C62.6565 60.9276 63.4466 61.7178 64.4267 61.7178H87.4441C88.4242 61.7178 89.2143 60.9276 89.2143 59.952V43.2297C89.2143 42.2541 88.4242 41.4639 87.4441 41.4639Z" fill="#F8F6F4" stroke="#333336" stroke-width="2" stroke-miterlimit="10"/><path d="M78.8052 50.0351C78.8052 50.5207 78.686 50.9974 78.452 51.4213C78.2181 51.845 77.8781 52.2026 77.4675 52.4631V54.4982C77.4675 54.9043 77.3087 55.2929 77.0173 55.5798C76.7348 55.8667 76.3418 56.0256 75.9357 56.0256C75.5296 56.0256 75.141 55.8623 74.8497 55.5798C74.5672 55.2929 74.3995 54.9043 74.3995 54.4982V52.4631C73.9757 52.1982 73.6357 51.8274 73.4018 51.386C73.1634 50.9445 73.0486 50.4501 73.0618 49.9556C73.0795 49.4568 73.2252 48.9712 73.4857 48.5474C73.746 48.1236 74.1125 47.7705 74.5495 47.532C74.9866 47.2893 75.481 47.17 75.9798 47.1744C76.4787 47.1833 76.9731 47.3202 77.4014 47.5718C77.8295 47.8234 78.1871 48.1854 78.43 48.618C78.6771 49.0506 78.8096 49.5407 78.8096 50.0395L78.8052 50.0351Z" fill="#F8F6F4" stroke="#333336" stroke-width="2" stroke-miterlimit="10"/><path fill-rule="evenodd" clip-rule="evenodd" d="M105.411 53.4805C102.186 53.4805 99.5715 56.095 99.5715 59.3201V85.1399C99.5715 88.365 102.186 90.9796 105.411 90.9796H131.879L140.254 99.3546C141.633 100.734 143.992 99.7554 143.992 97.8074V90.9796H146.229C149.454 90.9796 152.068 88.365 152.068 85.1399V59.3201C152.068 56.095 149.454 53.4805 146.229 53.4805H105.407H105.411Z" fill="#F8F6F4" stroke="#333336" stroke-width="2"/><path d="M115.178 76.0971C117.157 76.0971 118.762 74.4925 118.762 72.5132 118.762 70.5338 117.157 68.9292 115.178 68.9292 113.199 68.9292 111.594 70.5338 111.594 72.5132 111.594 74.4925 113.199 76.0971 115.178 76.0971ZM125.873 76.0971C127.852 76.0971 129.457 74.4925 129.457 72.5132 129.457 70.5338 127.852 68.9292 125.873 68.9292 123.894 68.9292 122.289 70.5338 122.289 72.5132 122.289 74.4925 123.894 76.0971 125.873 76.0971ZM136.564 73.9653C138.544 73.9653 140.148 72.3607 140.148 70.3814 140.148 68.402 138.544 66.7974 136.564 66.7974 134.585 66.7974 132.98 68.402 132.98 70.3814 132.98 72.3607 134.585 73.9653 136.564 73.9653Z" fill="#F8F6F4" stroke="#333336" stroke-width="2"/><path fill-rule="evenodd" clip-rule="evenodd" d="M47.6572 23.0698C50.8824 23.0698 53.4969 25.6844 53.4969 28.9095V54.7292C53.4969 57.9543 50.8824 60.569 47.6572 60.569H21.1897L12.8147 68.944C11.4351 70.3236 9.07681 69.3448 9.07681 67.3967V60.569H6.83976C3.61458 60.569 1.00002 57.9543 1.00002 54.7292V28.9095C1.00002 25.6844 3.61458 23.0698 6.83976 23.0698H47.6619H47.6572Z" fill="#F8F6F4" stroke="#333336" stroke-width="2"/><path d="M37.8906 45.687C35.9112 45.687 34.3066 44.0824 34.3066 42.1031 34.3066 40.1237 35.9112 38.519 37.8906 38.519 39.87 38.519 41.4746 40.1237 41.4746 42.1031 41.4746 44.0824 39.87 45.687 37.8906 45.687ZM27.1953 45.687C25.2159 45.687 23.6113 44.0824 23.6113 42.1031 23.6113 40.1237 25.2159 38.519 27.1953 38.519 29.1747 38.519 30.7793 40.1237 30.7793 42.1031 30.7793 44.0824 29.1747 45.687 27.1953 45.687ZM16.5042 43.5547C14.5248 43.5547 12.9202 41.95 12.9202 39.9707 12.9202 37.9913 14.5248 36.3867 16.5042 36.3867 18.4836 36.3867 20.0881 37.9913 20.0881 39.9707 20.0881 41.95 18.4836 43.5547 16.5042 43.5547Z" fill="#F8F6F4" stroke="#333336" stroke-width="2"/></svg>
