<svg width="16" height="17" viewBox="0 0 16 17" fill="none" xmlns="http://www.w3.org/2000/svg">
<g clip-path="url(#clip0_617_124)">
<path d="M1.02086 6.35031H0.400859L0.280859 6.95031C0.180859 7.46031 0.130859 7.98031 0.130859 8.49031C0.130859 9.00031 0.180859 9.50031 0.280859 10.0103L0.400859 10.6203H1.02086C1.70086 10.6203 2.32086 10.9803 2.66086 11.5603C3.00086 12.1403 2.99086 12.8703 2.66086 13.4603L2.35086 13.9903L2.81086 14.4003C3.59086 15.0903 4.48086 15.6103 5.45086 15.9403L6.04086 16.1403L6.35086 15.6003C6.69086 15.0103 7.31086 14.6503 7.99086 14.6503C8.67086 14.6503 9.30086 15.0203 9.64086 15.6203L9.94086 16.1603L10.5309 15.9603C11.5109 15.6303 12.4009 15.1203 13.1809 14.4403L13.6509 14.0303L13.3309 13.4903C12.9809 12.9003 12.9809 12.1703 13.3209 11.5803C13.6609 10.9903 14.3509 10.6303 14.9909 10.6403H15.6209L15.7409 10.0403C15.8409 9.53031 15.8909 9.01031 15.8909 8.49031C15.8909 7.97031 15.8409 7.48031 15.7409 6.98031L15.6209 6.36031H14.9909C14.9909 6.36031 14.9709 6.36031 14.9609 6.36031C14.2909 6.36031 13.6609 6.00031 13.3209 5.42031C12.9809 4.83031 12.9809 4.09031 13.3409 3.50031L13.6609 2.96031L13.1909 2.55031C12.4109 1.87031 11.5209 1.35031 10.5409 1.02031L9.95086 0.820313L9.64086 1.36031C9.30086 1.95031 8.67086 2.32031 8.00086 2.32031C7.33086 2.32031 6.69086 1.95031 6.36086 1.36031L6.05086 0.820313L5.46086 1.02031C4.48086 1.35031 3.59086 1.87031 2.81086 2.55031L2.35086 2.96031L2.66086 3.49031C3.00086 4.07031 3.00086 4.80031 2.66086 5.38031C2.32086 5.96031 1.70086 6.31031 1.01086 6.32031L1.02086 6.35031ZM3.96086 6.16031C4.45086 5.30031 4.54086 4.28031 4.23086 3.36031C4.61086 3.08031 5.01086 2.85031 5.43086 2.66031C6.07086 3.40031 7.00086 3.84031 8.00086 3.84031C9.00086 3.84031 9.93086 3.40031 10.5709 2.66031C10.9909 2.85031 11.3909 3.08031 11.7709 3.35031C11.4409 4.28031 11.5209 5.31031 12.0309 6.18031C12.5309 7.05031 13.3809 7.64031 14.3509 7.82031C14.3709 8.05031 14.3909 8.27031 14.3909 8.49031C14.3909 8.73031 14.3809 8.96031 14.3509 9.19031C13.3809 9.36031 12.5209 9.96031 12.0209 10.8303C11.5209 11.6903 11.4409 12.7203 11.7609 13.6503C11.3909 13.9203 10.9809 14.1503 10.5609 14.3403C9.92086 13.5903 8.98086 13.1503 7.98086 13.1503C6.98086 13.1503 6.06086 13.5903 5.42086 14.3203C5.00086 14.1303 4.59086 13.9003 4.22086 13.6203C4.54086 12.7003 4.45086 11.6703 3.96086 10.8103C3.47086 9.96031 2.63086 9.37031 1.68086 9.18031C1.66086 8.95031 1.64086 8.72031 1.64086 8.49031C1.64086 8.26031 1.65086 8.02031 1.68086 7.78031C2.64086 7.60031 3.48086 7.01031 3.98086 6.15031L3.96086 6.16031Z" fill="#333336"/>
<path d="M9.02047 7.48047H6.98047V9.52047H9.02047V7.48047Z" fill="#333336"/>
</g>
<defs>
<clipPath id="clip0_617_124">
<rect width="16" height="16" fill="white" transform="translate(0 0.5)"/>
</clipPath>
</defs>
</svg>
