<svg width="103" height="103" fill="none" xmlns="http://www.w3.org/2000/svg"><path d="M1.49963 16.3301H80.5656V77.0577C80.5656 79.327 78.7244 81.1635 76.4598 81.1635H5.60552C3.33623 81.1635 1.49963 79.327 1.49963 77.0577V16.3301Z" fill="#F8F6F4" stroke="#333336" stroke-width="2"/><path d="M22.9885 44.9671C22.9885 34.7357 31.2873 26.437 41.5186 26.437C51.7501 26.437 60.0488 34.7357 60.0488 44.9671C60.0488 55.1985 51.7501 63.4972 41.5186 63.4972C31.2873 63.4972 22.9885 55.1985 22.9885 44.9671Z" fill="#F8F6F4" stroke="#333336" stroke-width="2"/><path d="M32.0582 45.5143C32.0582 39.979 36.2965 35.4863 41.5267 35.4863 46.7569 35.4863 50.9952 39.979 50.9952 45.5143M44.6929 50.66V48.1255M38.3531 50.66V48.1255" stroke="#333336" stroke-width="2" stroke-linecap="round"/><path d="M1.49963 5.2553C1.49963 2.99062 3.34084 1.14941 5.60552 1.14941H76.4598C78.729 1.14941 80.5656 2.99062 80.5656 5.2553V16.3301H1.49963V5.2553Z" fill="#FFCFA5" stroke="#333336" stroke-width="2"/><path d="M11.2357 11.4538C12.5881 11.4538 13.6844 10.3718 13.6844 9.03718 13.6844 7.70254 12.5881 6.62061 11.2357 6.62061 9.88323 6.62061 8.78687 7.70254 8.78687 9.03718 8.78687 10.3718 9.88323 11.4538 11.2357 11.4538ZM20.5432 11.4538C21.8957 11.4538 22.9921 10.3718 22.9921 9.03718 22.9921 7.70254 21.8957 6.62061 20.5432 6.62061 19.1908 6.62061 18.0945 7.70254 18.0945 9.03718 18.0945 10.3718 19.1908 11.4538 20.5432 11.4538ZM29.8554 11.4538C31.2078 11.4538 32.3042 10.3718 32.3042 9.03718 32.3042 7.70254 31.2078 6.62061 29.8554 6.62061 28.5029 6.62061 27.4066 7.70254 27.4066 9.03718 27.4066 10.3718 28.5029 11.4538 29.8554 11.4538Z" fill="#F8F6F4" stroke="#333336" stroke-width="2"/><path d="M51.2234 51.3689C62.761 39.906 81.4073 39.966 92.8708 51.5032C104.334 63.0409 104.273 81.6884 92.7355 93.1518C81.1976 104.615 62.5523 104.554 51.089 93.0163C39.6258 81.4785 39.6857 62.8322 51.2234 51.3689ZM61.651 89.2596C69.2839 93.9056 79.3752 92.9493 85.9983 86.3688L86.3573 86.0026C92.6564 79.4188 93.5585 69.5635 89.0469 62.0417L61.651 89.2596ZM82.3066 55.2601C74.6742 50.6158 64.5853 51.5722 57.9627 58.1517C51.34 64.7317 50.3176 74.8153 54.9129 82.4778L82.3066 55.2601Z" fill="#FF8A50" stroke="#333336" stroke-width="2"/></svg>
