<svg width="154" height="100" fill="none" xmlns="http://www.w3.org/2000/svg"><path d="M65.7494 65.3722V9.22466C65.7494 4.79663 62.1632 1.20508 57.7299 1.20508H9.60194C5.16869 1.20508 1.5719 4.79663 1.5719 9.22466V81.4113C1.5719 85.8393 5.17392 89.4309 9.60194 89.4309H41.6751L65.7443 65.3669L65.7494 65.3722Z" fill="#F8F6F4" stroke="#333336" stroke-width="2" stroke-linecap="round" stroke-linejoin="round"/><path d="M65.7485 65.376H41.6793V89.44" stroke="#333336" stroke-width="2" stroke-linecap="round" stroke-linejoin="round"/><path d="M74.2252 73.8595V17.712C74.2252 13.2839 70.6388 9.69238 66.2055 9.69238H18.0828C13.6495 9.69238 10.0527 13.2839 10.0527 17.712V89.8986C10.0527 94.3266 13.6547 97.9181 18.0828 97.9181H50.1558L74.2252 73.8543V73.8595Z" fill="#F8F6F4" stroke="#333336" stroke-width="2" stroke-linecap="round" stroke-linejoin="round"/><path d="M74.2246 73.8584H50.1554V97.9224" stroke="#333336" stroke-width="2" stroke-linecap="round" stroke-linejoin="round"/><g clip-path="url(#a)"><path d="M133.085 22.8916H42.8921C32.7173 22.8916 24.4634 31.1455 24.4634 41.3204C24.4634 51.4952 32.7173 59.7491 42.8921 59.7491H133.085C143.26 59.7491 151.513 51.4952 151.513 41.3204C151.513 31.1455 143.26 22.8916 133.085 22.8916Z" fill="#DCD2FF" stroke="#333336" stroke-width="2" stroke-linecap="round" stroke-linejoin="round"/><path d="M48.5815 34.886 44.2494 40.5886V40.6787L51.1427 39.7683V42.8697L44.2494 42.0493V42.1393L48.6315 47.622 45.7501 49.2627 43.0088 42.8697H42.9187L39.9574 49.3027 37.356 47.662 41.6882 42.0893V41.9993L34.9349 42.8697V39.7683L41.6481 40.6386V40.5486L37.356 34.976 40.1374 33.3752 42.9688 39.7183H43.0588L45.8401 33.3252 48.5815 34.876V34.886ZM70.094 34.886 65.762 40.5886V40.6787L72.6552 39.7683V42.8697L65.762 42.0493V42.1393L70.1441 47.622 67.2627 49.2627 64.5214 42.8697H64.4314L61.4699 49.3027 58.8687 47.662 63.2008 42.0893V41.9993L56.4476 42.8697V39.7683L63.1608 40.6386V40.5486L58.8687 34.976 61.65 33.3752 64.4814 39.7183H64.5715L67.3528 33.3252 70.094 34.876V34.886ZM91.6067 34.886 87.2747 40.5886V40.6787L94.1679 39.7683V42.8697L87.2747 42.0493V42.1393L91.6567 47.622 88.7754 49.2627 86.0441 42.8697H85.9441L82.9826 49.3027 80.3814 47.662 84.7135 42.0893V41.9993L77.9602 42.8697V39.7683L84.6735 40.6386V40.5486L80.3814 34.976 83.1627 33.3752 85.9941 39.7183H86.0841L88.8754 33.3252 91.6067 34.876V34.886ZM109.694 37.4344C109.694 38.1346 109.494 38.745 109.094 39.2552 108.694 39.7655 108.093 40.2457 107.293 40.6958 108.283 41.1661 109.034 41.7364 109.534 42.4167 110.034 43.097 110.284 43.8774 110.284 44.7377 110.284 45.5181 110.074 46.2485 109.654 46.9088 109.234 47.5692 108.624 48.0994 107.823 48.4995 107.013 48.8998 106.022 49.0899 104.852 49.0899 103.681 49.0899 102.711 48.8998 101.92 48.5095 101.13 48.1194 100.54 47.5892 100.13 46.9488 99.7294 46.2985 99.5293 45.5882 99.5293 44.8179 99.5293 43.9374 99.7794 43.187 100.29 42.5568 100.81 41.9264 101.5 41.4162 102.361 41.0361 101.59 40.5858 101.02 40.1056 100.66 39.5953 100.3 39.0751 100.12 38.4047 100.12 37.5744 100.12 36.9241 100.25 36.3438 100.51 35.8535 100.77 35.3533 101.12 34.9332 101.57 34.5929 102.02 34.2528 102.531 33.9927 103.111 33.8226 103.681 33.6425 104.292 33.5525 104.922 33.5525 105.552 33.5525 106.202 33.6425 106.773 33.8126 107.353 33.9827 107.863 34.2228 108.303 34.5529 108.744 34.8832 109.084 35.2933 109.324 35.7735 109.574 36.2538 109.694 36.814 109.694 37.4444V37.4344ZM107.413 44.7377C107.413 44.1775 107.283 43.7273 107.033 43.3971 106.793 43.057 106.423 42.7769 105.942 42.5368 105.462 42.2967 104.862 42.0565 104.151 41.8064 103.821 41.9965 103.521 42.2165 103.261 42.4867 103.001 42.7569 102.791 43.067 102.631 43.4271 102.481 43.7874 102.411 44.2075 102.411 44.6877 102.411 45.3881 102.621 45.9483 103.031 46.3686 103.461 46.7887 104.081 47.0088 104.912 47.0088 105.742 47.0088 106.373 46.7887 106.783 46.3486 107.203 45.8983 107.413 45.3681 107.413 44.7377ZM102.851 37.5844C102.851 38.0146 102.951 38.3747 103.141 38.6648 103.331 38.9451 103.621 39.1851 104.001 39.3952 104.382 39.6053 104.852 39.8054 105.412 40.0056 105.972 39.6353 106.363 39.2652 106.603 38.895 106.843 38.5248 106.963 38.0846 106.963 37.5744 106.963 36.9641 106.793 36.4739 106.443 36.0936 106.092 35.7135 105.592 35.5234 104.922 35.5234 104.251 35.5234 103.751 35.7035 103.391 36.0536 103.031 36.4039 102.851 36.9141 102.851 37.5744V37.5844ZM124.781 37.4344C124.781 38.1346 124.581 38.745 124.171 39.2552 123.781 39.7655 123.181 40.2457 122.38 40.6958 123.371 41.1661 124.111 41.7364 124.621 42.4167 125.121 43.097 125.372 43.8774 125.372 44.7377 125.372 45.5181 125.161 46.2485 124.731 46.9088 124.321 47.5692 123.711 48.0994 122.9 48.4995 122.1 48.8998 121.11 49.0899 119.939 49.0899 118.768 49.0899 117.798 48.8998 117.008 48.5095 116.217 48.1194 115.617 47.5892 115.217 46.9488 114.817 46.2985 114.616 45.5882 114.616 44.8179 114.616 43.9374 114.867 43.187 115.377 42.5568 115.897 41.9264 116.587 41.4162 117.448 41.0361 116.667 40.5858 116.107 40.1056 115.747 39.5953 115.387 39.0751 115.207 38.4047 115.207 37.5744 115.207 36.9241 115.337 36.3438 115.597 35.8535 115.857 35.3533 116.207 34.9332 116.647 34.5929 117.108 34.2528 117.618 33.9927 118.188 33.8226 118.768 33.6425 119.369 33.5525 119.999 33.5525 120.669 33.5525 121.28 33.6425 121.86 33.8126 122.44 33.9827 122.95 34.2228 123.391 34.5529 123.831 34.8832 124.171 35.2933 124.411 35.7735 124.661 36.2538 124.781 36.814 124.781 37.4444V37.4344ZM122.49 44.7377C122.49 44.1775 122.37 43.7273 122.12 43.3971 121.87 43.057 121.51 42.7769 121.029 42.5368 120.549 42.2967 119.949 42.0565 119.239 41.8064 118.908 41.9965 118.608 42.2165 118.348 42.4867 118.088 42.7569 117.878 43.067 117.718 43.4271 117.568 43.7874 117.488 44.2075 117.488 44.6877 117.488 45.3881 117.698 45.9483 118.118 46.3686 118.538 46.7887 119.169 47.0088 119.989 47.0088 120.809 47.0088 121.46 46.7887 121.87 46.3486 122.29 45.8983 122.49 45.3681 122.49 44.7377ZM117.938 37.5844C117.938 38.0146 118.028 38.3747 118.228 38.6648 118.418 38.9451 118.708 39.1851 119.089 39.3952 119.469 39.6053 119.939 39.8054 120.499 40.0056 121.049 39.6353 121.45 39.2652 121.69 38.895 121.93 38.5248 122.05 38.0846 122.05 37.5744 122.05 36.9641 121.88 36.4739 121.52 36.0936 121.18 35.7135 120.669 35.5234 119.999 35.5234 119.329 35.5234 118.838 35.7035 118.468 36.0536 118.118 36.4039 117.938 36.9141 117.938 37.5744V37.5844ZM134.456 33.5425C135.476 33.5425 136.357 33.7125 137.077 34.0627 137.818 34.4029 138.378 34.853 138.768 35.4334 139.148 36.0136 139.348 36.6439 139.348 37.3342 139.348 37.9546 139.218 38.5048 138.958 38.9851 138.708 39.4553 138.358 39.8554 137.898 40.1656 137.457 40.4858 136.937 40.7159 136.347 40.8659 137.007 40.9459 137.587 41.1261 138.108 41.4062 138.628 41.6763 139.048 42.0765 139.358 42.5968 139.668 43.107 139.818 43.7573 139.818 44.5577 139.818 45.3981 139.598 46.1585 139.138 46.8488 138.688 47.5391 138.048 48.0894 137.207 48.4995 136.387 48.8998 135.406 49.0999 134.266 49.0999 133.255 49.0999 132.315 48.9198 131.455 48.5595 130.594 48.1894 129.864 47.6592 129.253 46.9488L130.924 45.4381C131.354 45.9383 131.835 46.2985 132.385 46.5286 132.935 46.7587 133.505 46.8688 134.106 46.8688 134.946 46.8688 135.616 46.6587 136.127 46.2185 136.637 45.7782 136.887 45.168 136.887 44.3776 136.887 43.7874 136.777 43.3171 136.557 42.9669 136.327 42.6068 136.017 42.3467 135.606 42.1865 135.206 42.0165 134.726 41.9364 134.176 41.9364H132.845L133.175 39.9054H134.116C134.566 39.9054 134.976 39.8254 135.346 39.6653 135.716 39.5053 136.017 39.2652 136.227 38.9451 136.457 38.6248 136.567 38.2147 136.567 37.7245 136.567 37.0741 136.337 36.5739 135.887 36.2138 135.436 35.8435 134.866 35.6635 134.186 35.6635 133.565 35.6635 133.015 35.7735 132.535 36.0036 132.055 36.2338 131.585 36.5639 131.134 36.9841L129.654 35.4234C130.314 34.783 131.044 34.3028 131.845 33.9927 132.645 33.6725 133.515 33.5225 134.456 33.5225V33.5425Z" fill="#333336"/></g><defs><clipPath id="a"><path fill="#fff" transform="translate(22.8915 21.6865)" d="M0 0H130.121V39.759H0z"/></clipPath></defs></svg>
