<svg width="600" height="320" fill="none" xmlns="http://www.w3.org/2000/svg"><g clip-path="url(#a)"><rect x="234" y="66" width="320.5" height="65.1875" rx="5.71875" fill="#DCD2FF"/><rect x="234" y="66" width="320.5" height="65.1875" rx="5.71875" stroke="#333336" stroke-width="2"/><circle cx="266.594" cy="98.5938" r="5.71875" stroke="#333336" stroke-width="2"/><circle cx="290.109" cy="98.5938" r="5.71875" stroke="#333336" stroke-width="2"/><circle cx="313.625" cy="98.5938" r="5.71875" stroke="#333336" stroke-width="2"/><circle cx="337.141" cy="98.5938" r="5.71875" stroke="#333336" stroke-width="2"/><circle cx="360.656" cy="98.5938" r="5.71875" stroke="#333336" stroke-width="2"/><circle cx="384.172" cy="98.5938" r="5.71875" stroke="#333336" stroke-width="2"/><circle cx="407.688" cy="98.5938" r="5.71875" stroke="#333336" stroke-width="2"/><circle cx="431.203" cy="98.5938" r="5.71875" stroke="#333336" stroke-width="2"/><circle cx="454.719" cy="98.5938" r="5.71875" stroke="#333336" stroke-width="2"/><path d="M510.148 103.633H526.945V86.8359H510.148V103.633ZM512.668 89.3555H524.426V101.113H512.668V89.3555Z" fill="#333336"/><path d="M520.227 107.832H505.949V92.7148H503.43V110.352H520.227V107.832Z" fill="#333336"/><path d="M100 201.25H438.75V320H100V201.25Z" fill="#754FE0"/><path d="M100 201.25H438.75V320H100V201.25Z" stroke="#333336" stroke-width="2"/><path d="M257.841 284.595C262.302 279.447 267.563 279.018 269.637 279.447H270.066C272.139 279.018 277.401 279.447 281.862 284.595C287.438 291.029 296.446 291.243 299.878 291.243C303.309 291.243 327.33 292.959 325.615 241.485C323.327 236.838 314.977 227.802 299.878 228.831C281.004 230.118 280.789 238.697 274.141 243.201H270.066H269.637H265.562C258.913 238.697 258.698 230.118 239.825 228.831C224.726 227.802 216.375 236.838 214.088 241.485C212.372 292.959 236.393 291.243 239.825 291.243C243.256 291.243 252.264 291.029 257.841 284.595Z" fill="#F8F6F4" stroke="#333336" stroke-width="2"/><path d="M295.621 251.064C299.316 251.064 302.613 251.988 304.955 253.429 307.312 254.879 308.562 256.751 308.562 258.644 308.562 260.536 307.312 262.408 304.955 263.858 302.613 265.299 299.316 266.223 295.621 266.223 291.926 266.223 288.629 265.299 286.288 263.858 283.93 262.408 282.68 260.536 282.68 258.644 282.68 256.751 283.93 254.879 286.288 253.429 288.629 251.988 291.926 251.065 295.621 251.064ZM244.941 251.064C241.246 251.064 237.949 251.988 235.607 253.429 233.25 254.879 232 256.751 232 258.644 232 260.536 233.25 262.408 235.607 263.858 237.949 265.299 241.246 266.223 244.941 266.223 248.636 266.223 251.933 265.299 254.274 263.858 256.632 262.408 257.882 260.536 257.882 258.644 257.882 256.751 256.632 254.879 254.274 253.429 251.933 251.988 248.636 251.065 244.941 251.064Z" fill="#754FE0" stroke="#333336" stroke-width="2"/><path d="M100 191.25C100 185.727 104.477 181.25 110 181.25H428.75C434.273 181.25 438.75 185.727 438.75 191.25V201.25H100V191.25Z" stroke="#333336" stroke-width="2"/><circle cx="110" cy="191.25" r="2.75" stroke="#333336" stroke-width="2"/><circle cx="122.5" cy="191.25" r="2.75" stroke="#333336" stroke-width="2"/><circle cx="135" cy="191.25" r="2.75" stroke="#333336" stroke-width="2"/><path d="M123.306 242.532L123.124 242.535C122.831 242.51 122.472 242.41 121.989 242.158L121.987 242.157C105.568 233.622 93.4616 225.146 83.8175 215.487C77.0264 208.689 73.2045 202.776 71.2466 196.257L71.2456 196.253C70.5223 193.863 70.1572 191.683 70.1168 189.765C69.882 176.572 69.7252 163.162 69.5738 150.184L69.4355 138.996C69.4337 138.852 69.4436 138.702 69.4529 138.605C70.2917 138.256 71.1351 137.927 71.9839 137.601C73.8869 136.871 75.8056 136.131 77.5781 135.132L77.5806 135.13C83.3092 131.888 87.1588 126.825 89.3902 119.845L89.3909 119.842C89.5784 119.253 89.7833 119.029 89.926 118.925C90.0723 118.819 90.3615 118.688 91.0072 118.68L91.0955 118.679L91.1838 118.678L91.2719 118.677L91.36 118.676L91.4478 118.675L91.5356 118.673L91.6233 118.672L91.7108 118.671L91.7982 118.67L91.8855 118.669L91.9727 118.668L92.0597 118.667L92.1466 118.666L92.2335 118.665L92.3203 118.664L92.4067 118.663L92.4932 118.662L92.5795 118.661L92.6657 118.66L92.7518 118.659L92.8378 118.658L92.9236 118.657L93.0095 118.655L93.0951 118.654L93.1806 118.653L93.2659 118.652L93.3512 118.651L93.4364 118.65L93.5214 118.649L93.6064 118.648L93.6912 118.647L93.7759 118.646L93.8604 118.645L93.9448 118.644L94.0292 118.643L94.1135 118.642L94.1975 118.641L94.2815 118.64L94.3653 118.639L94.4491 118.638L94.5328 118.637L94.6163 118.636L94.6996 118.635L94.783 118.634L94.8661 118.633L94.9493 118.632L95.0321 118.631L95.115 118.63L95.1978 118.629L95.2803 118.628L95.3628 118.627L95.4453 118.626L95.5275 118.625L95.6097 118.624L95.6917 118.623L95.7737 118.622L95.8555 118.621L95.9372 118.62L96.0187 118.619L96.1002 118.618L96.1816 118.617L96.2629 118.616L96.3439 118.615L96.4251 118.614L96.506 118.613L96.5868 118.612L96.6675 118.611L96.748 118.61L96.8285 118.609L96.9089 118.608L96.9891 118.607L97.0692 118.606L97.1493 118.605L97.2293 118.604L97.309 118.603L97.3888 118.602L97.4683 118.601L97.5479 118.6L97.6272 118.599L97.7064 118.598L97.7856 118.597L97.8646 118.596L97.9437 118.595L98.0224 118.594L98.1012 118.593L98.1797 118.592L98.2583 118.591L98.3366 118.591L98.415 118.59L98.4932 118.589L98.5712 118.588L98.6493 118.587L98.7271 118.586L98.8048 118.585L98.8825 118.584L98.9601 118.583L99.0374 118.582L99.1148 118.581L99.192 118.58L99.269 118.579L99.3461 118.578L99.4229 118.577L99.4998 118.576L99.5765 118.575L99.6531 118.574L99.7296 118.574L99.806 118.573L99.8822 118.572L99.9584 118.571L100.034 118.57L100.11 118.569L100.186 118.568L100.262 118.567L100.338 118.566L100.413 118.565L100.489 118.564L100.564 118.563L100.639 118.562L100.714 118.562L100.789 118.561L100.864 118.56L100.939 118.559L101.014 118.558L101.088 118.557L101.163 118.556L101.237 118.555L101.312 118.554L101.386 118.553L101.46 118.552L101.534 118.552L101.608 118.551L101.682 118.55L101.755 118.549L101.829 118.548L101.903 118.547L101.976 118.546L102.049 118.545L102.122 118.544L102.196 118.543L102.269 118.543L102.341 118.542L102.414 118.541L102.487 118.54L102.56 118.539L102.632 118.538L102.705 118.537L102.777 118.536L102.849 118.536L102.921 118.535L102.993 118.534L103.065 118.533L103.137 118.532L103.209 118.531L103.28 118.53L103.352 118.529L103.423 118.529L103.495 118.528L103.566 118.527L103.637 118.526L103.708 118.525L103.779 118.524L103.85 118.523L103.921 118.522L103.991 118.522L104.062 118.521L104.132 118.52L104.203 118.519L104.273 118.518L104.343 118.517L104.413 118.516L104.483 118.516L104.553 118.515L104.623 118.514L104.693 118.513L104.762 118.512L104.832 118.511L104.901 118.51L104.97 118.51L105.04 118.509L105.109 118.508L105.178 118.507L105.247 118.506L105.316 118.505L105.385 118.505L105.453 118.504L105.522 118.503L105.59 118.502L105.659 118.501L105.727 118.5L105.795 118.5L105.863 118.499L105.932 118.498L105.999 118.497L106.067 118.496L106.135 118.495L106.203 118.495L106.27 118.494L106.338 118.493L106.405 118.492L106.473 118.491L106.54 118.49L106.607 118.49L106.674 118.489L106.741 118.488L106.808 118.487L106.875 118.486L106.941 118.486L107.008 118.485L107.074 118.484L107.141 118.483L107.207 118.482L107.273 118.482L107.34 118.481L107.406 118.48L107.472 118.479L107.538 118.478L107.603 118.478L107.669 118.477L107.735 118.476L107.8 118.475L107.866 118.474L107.931 118.474L107.997 118.473L108.062 118.472L108.127 118.471L108.192 118.47L108.257 118.47L108.322 118.469L108.386 118.468L108.451 118.467L108.516 118.466L108.58 118.466L108.645 118.465L108.709 118.464L108.773 118.463L108.838 118.462L108.902 118.462L108.966 118.461L109.03 118.46L109.094 118.459L109.157 118.459L109.221 118.458L109.285 118.457L109.348 118.456L109.411 118.455L109.475 118.455L109.538 118.454L109.601 118.453L109.664 118.452L109.727 118.452L109.79 118.451L109.853 118.45L109.916 118.449L109.979 118.449L110.041 118.448L110.104 118.447L110.166 118.446L110.229 118.446L110.291 118.445L110.353 118.444L110.415 118.443L110.477 118.442L110.539 118.442L110.601 118.441L110.663 118.44L110.725 118.439L110.787 118.439L110.848 118.438L110.909 118.437L110.971 118.436L111.032 118.436L111.094 118.435L111.155 118.434L111.216 118.433L111.277 118.433L111.338 118.432L111.399 118.431L111.459 118.431L111.52 118.43L111.581 118.429L111.641 118.428L111.702 118.428L111.762 118.427L111.823 118.426L111.883 118.425L111.943 118.425L112.003 118.424L112.063 118.423L112.123 118.422L112.183 118.422L112.243 118.421L112.302 118.42L112.362 118.42L112.422 118.419L112.481 118.418L112.541 118.417L112.6 118.417L112.659 118.416L112.718 118.415L112.778 118.414L112.837 118.414L112.896 118.413L112.955 118.412L113.013 118.412L113.072 118.411L113.131 118.41L113.189 118.409L113.248 118.409L113.306 118.408L113.365 118.407L113.423 118.407L113.481 118.406L113.539 118.405L113.598 118.404L113.656 118.404L113.714 118.403L113.771 118.402L113.829 118.402L113.887 118.401L113.945 118.4L114.002 118.4L114.06 118.399L114.117 118.398L114.175 118.397L114.232 118.397L114.289 118.396L114.346 118.395L114.404 118.395L114.461 118.394L114.518 118.393L114.575 118.393L114.631 118.392L114.688 118.391L114.745 118.39L114.801 118.39L114.858 118.389L114.915 118.388L114.971 118.388L115.027 118.387L115.084 118.386L115.14 118.386L115.196 118.385L115.252 118.384L115.308 118.384L115.364 118.383L115.42 118.382L115.476 118.382L115.532 118.381L115.587 118.38L115.643 118.38L115.698 118.379L115.754 118.378L115.809 118.377L115.865 118.377L115.92 118.376L115.975 118.375L116.03 118.375L116.086 118.374L116.141 118.373L116.196 118.373L116.25 118.372L116.305 118.371L116.36 118.371L116.415 118.37L116.469 118.369L116.524 118.369L116.579 118.368L116.633 118.367L116.687 118.367L116.742 118.366L116.796 118.365L116.85 118.365L116.904 118.364L116.958 118.363L117.012 118.363L117.066 118.362L117.12 118.361L117.174 118.361L117.228 118.36L117.282 118.36L117.335 118.359L117.389 118.358L117.443 118.358L117.496 118.357L117.549 118.356L117.603 118.356L117.656 118.355L117.709 118.354L117.762 118.354L117.815 118.353L117.868 118.352L117.922 118.352L117.975 118.351L118.027 118.35L118.08 118.35L118.133 118.349L118.186 118.349L118.238 118.348L118.291 118.347L118.343 118.347L118.396 118.346L118.448 118.345L118.501 118.345L118.553 118.344L118.605 118.343L118.657 118.343L118.709 118.342L118.761 118.341L118.813 118.341L118.866 118.34L118.917 118.34L118.969 118.339L119.021 118.338L119.073 118.338L119.124 118.337L119.176 118.336L119.228 118.336L119.279 118.335L119.331 118.335L119.382 118.334L119.433 118.333L119.485 118.333L119.536 118.332L119.587 118.331L119.638 118.331L119.689 118.33L119.74 118.33L119.791 118.329L119.842 118.328L119.893 118.328L119.944 118.327L119.995 118.326L120.045 118.326L120.096 118.325L120.146 118.325L120.197 118.324L120.247 118.323L120.298 118.323L120.348 118.322L120.399 118.322L120.449 118.321L120.499 118.32L120.549 118.32L120.599 118.319L120.649 118.318L120.699 118.318L120.75 118.317L120.799 118.317L120.849 118.316L120.899 118.315L120.949 118.315L120.999 118.314L121.048 118.314L121.098 118.313L121.147 118.312L121.197 118.312L121.247 118.311L121.296 118.311L121.345 118.31L121.395 118.309L121.444 118.309L121.493 118.308L121.542 118.308L121.591 118.307L121.641 118.306L121.69 118.306L121.739 118.305L121.788 118.305L121.836 118.304L121.885 118.303L121.934 118.303L121.983 118.302L122.032 118.302L122.08 118.301L122.129 118.3L122.177 118.3L122.226 118.299L122.275 118.299L122.323 118.298L122.371 118.297L122.42 118.297L122.468 118.296L122.516 118.296L122.564 118.295L122.613 118.295L122.661 118.294L122.709 118.293L122.757 118.293L122.805 118.292L122.853 118.292L122.901 118.291L122.948 118.29L122.996 118.29L123.044 118.289L123.092 118.289L123.14 118.288L123.187 118.288L123.235 118.287L123.282 118.286L123.33 118.286L123.377 118.285L123.425 118.285L123.472 118.284L123.52 118.283L123.567 118.283L123.614 118.282L123.661 118.282L123.709 118.281L123.756 118.281L123.803 118.28L123.85 118.279L123.897 118.279L139.009 118.095L139.033 118.094L139.057 118.094L139.081 118.094L139.104 118.093L139.128 118.093L139.152 118.093L139.176 118.093L139.2 118.092L139.223 118.092L139.247 118.092L139.271 118.091L139.295 118.091L139.319 118.091L139.342 118.091L139.366 118.09L139.39 118.09L139.414 118.09L139.438 118.089L139.462 118.089L139.485 118.089L139.509 118.088L139.533 118.088L139.557 118.088L139.581 118.088L139.605 118.087L139.629 118.087L139.653 118.087L139.677 118.086L139.701 118.086L139.724 118.086L139.748 118.086L139.772 118.085L139.796 118.085L139.82 118.085L139.844 118.084L139.868 118.084L139.892 118.084L139.916 118.084L139.94 118.083L139.964 118.083L139.988 118.083L140.012 118.082L140.036 118.082L140.06 118.082L140.084 118.081L140.108 118.081L140.132 118.081L140.156 118.081L140.18 118.08L140.204 118.08L140.228 118.08L140.252 118.079L140.276 118.079L140.3 118.079L140.324 118.079L140.348 118.078L140.372 118.078L140.397 118.078L140.421 118.077L140.445 118.077L140.469 118.077L140.493 118.076L140.517 118.076L140.541 118.076L140.565 118.076L140.589 118.075L140.614 118.075L140.638 118.075L140.662 118.074L140.686 118.074L140.71 118.074L140.734 118.074L140.759 118.073L140.783 118.073L140.807 118.073L140.831 118.072L140.855 118.072L140.88 118.072L140.904 118.071L140.928 118.071L140.952 118.071L140.977 118.071L141.001 118.07L141.025 118.07L141.049 118.07L141.074 118.069L141.098 118.069L141.122 118.069L141.146 118.069L141.171 118.068L141.195 118.068L141.219 118.068L141.244 118.067L141.268 118.067L141.292 118.067L141.317 118.066L141.341 118.066L141.365 118.066L141.39 118.066L141.414 118.065L141.438 118.065L141.463 118.065L141.487 118.064L141.512 118.064L141.536 118.064L141.561 118.063L141.585 118.063L141.609 118.063L141.634 118.063L141.658 118.062L141.683 118.062L141.707 118.062L141.732 118.061L141.756 118.061L141.781 118.061L141.805 118.06L141.83 118.06L141.854 118.06L141.879 118.06L141.903 118.059L141.928 118.059L141.952 118.059L141.977 118.058L142.001 118.058L142.026 118.058L142.05 118.057L142.075 118.057L142.1 118.057L142.124 118.057L142.149 118.056L142.174 118.056L142.198 118.056L142.223 118.055L142.247 118.055L142.272 118.055L142.297 118.054L142.321 118.054L142.346 118.054L142.371 118.054L142.395 118.053L142.42 118.053L142.445 118.053L142.47 118.052L142.494 118.052L142.519 118.052L142.544 118.051L142.568 118.051L142.593 118.051L142.618 118.051L142.643 118.05L142.668 118.05L142.692 118.05L142.717 118.049L142.742 118.049L142.767 118.049L142.792 118.048L142.816 118.048L142.841 118.048L142.866 118.048L142.891 118.047L142.916 118.047L142.941 118.047L142.966 118.046L142.991 118.046L143.015 118.046L143.04 118.045L143.065 118.045L143.09 118.045L143.115 118.044L143.14 118.044L143.165 118.044L143.19 118.044L143.215 118.043L143.24 118.043L143.265 118.043L143.29 118.042L143.315 118.042L143.34 118.042L143.365 118.041L143.39 118.041L143.415 118.041L143.44 118.041L143.466 118.04L143.491 118.04L143.516 118.04L143.541 118.039L143.566 118.039L143.591 118.039L143.616 118.038L143.641 118.038L143.667 118.038L143.692 118.037L143.717 118.037L143.742 118.037L143.767 118.037L143.792 118.036L143.818 118.036L143.843 118.036L143.868 118.035L143.894 118.035L143.919 118.035L143.944 118.034L143.969 118.034L143.995 118.034L144.02 118.033L144.045 118.033L144.071 118.033L144.096 118.033L144.121 118.032L144.146 118.032L144.172 118.032L144.197 118.031L144.223 118.031L144.248 118.031L144.274 118.03L144.299 118.03L144.324 118.03L144.35 118.029L144.375 118.029L144.401 118.029L144.426 118.029L144.452 118.028L144.477 118.028L144.503 118.028L144.528 118.027L144.554 118.027L144.579 118.027L144.605 118.026L144.63 118.026L144.656 118.026L144.681 118.025L144.707 118.025L144.733 118.025L144.758 118.024L144.784 118.024L144.81 118.024L144.835 118.024L144.861 118.023L144.887 118.023L144.912 118.023L144.938 118.022L144.964 118.022L144.989 118.022L145.015 118.021L145.041 118.021L145.066 118.021L145.092 118.02L145.118 118.02L145.144 118.02L145.17 118.019L145.196 118.019L145.221 118.019L145.247 118.019L145.273 118.018L145.299 118.018L145.325 118.018L145.351 118.017L145.376 118.017L145.402 118.017L145.428 118.016L145.454 118.016L145.48 118.016L145.506 118.015L145.532 118.015L145.558 118.015L145.584 118.014L145.61 118.014L145.636 118.014L145.662 118.013L145.688 118.013L145.714 118.013L145.74 118.012L145.766 118.012L145.792 118.012L145.818 118.012L145.844 118.011L145.871 118.011L145.897 118.011L145.923 118.01L145.949 118.01L145.975 118.01L146.001 118.009L146.028 118.009L146.054 118.009L146.08 118.008L146.106 118.008L146.132 118.008L146.159 118.007L146.185 118.007L146.211 118.007L146.237 118.006L146.264 118.006L146.29 118.006L146.316 118.005L146.343 118.005L146.369 118.005L146.396 118.005L146.422 118.004L146.448 118.004L146.475 118.004L146.501 118.003L146.528 118.003L146.554 118.003L146.58 118.002L146.607 118.002L146.633 118.002L146.66 118.001L146.686 118.001L146.713 118.001L146.739 118L146.766 118L146.793 118L146.819 117.999L146.846 117.999L146.872 117.999L146.899 117.998L146.926 117.998L146.952 117.998L146.979 117.997L147.006 117.997L147.032 117.997L147.059 117.996L147.086 117.996L147.112 117.996L147.139 117.995L147.166 117.995L147.193 117.995L147.219 117.994L147.246 117.994L147.273 117.994L147.3 117.993L147.327 117.993L147.353 117.993L147.38 117.992L147.407 117.992L147.434 117.992L147.461 117.992L147.488 117.991L147.515 117.991L147.542 117.991L147.569 117.99L147.596 117.99L147.623 117.99L147.65 117.989L147.677 117.989L147.704 117.989L147.731 117.988L147.758 117.988L147.785 117.988L147.812 117.987L147.839 117.987L147.866 117.987L147.893 117.986L147.921 117.986L147.948 117.986L147.975 117.985L148.002 117.985L148.029 117.985L148.056 117.984L148.084 117.984L148.111 117.984L148.138 117.983L148.165 117.983L148.193 117.983L148.22 117.982L148.247 117.982L148.275 117.982L148.302 117.981L148.329 117.981L148.357 117.981L148.384 117.98L148.412 117.98L148.439 117.98L148.466 117.979L148.494 117.979L148.521 117.979L148.549 117.978L148.576 117.978L148.604 117.978L148.631 117.977L148.659 117.977L148.686 117.977L148.714 117.976L148.742 117.976L148.769 117.976L148.797 117.975L148.824 117.975L148.852 117.975L148.88 117.974L148.907 117.974L148.935 117.974L148.963 117.973L148.99 117.973L149.018 117.973L149.046 117.972L149.074 117.972L149.102 117.972L149.129 117.971L149.157 117.971L149.185 117.97L149.213 117.97L149.241 117.97L149.269 117.969L149.296 117.969L149.324 117.969L149.352 117.968L149.38 117.968L149.408 117.968L149.436 117.967L149.464 117.967L149.492 117.967L149.52 117.966L149.548 117.966L149.576 117.966L149.604 117.965L149.632 117.965L149.661 117.965L149.689 117.964L149.717 117.964L149.745 117.964L149.773 117.963L149.801 117.963L149.83 117.963L149.858 117.962L149.886 117.962L149.914 117.962L149.942 117.961L149.971 117.961L149.999 117.961L150.027 117.96L150.056 117.96L150.084 117.96L150.112 117.959L150.141 117.959L150.169 117.958L150.197 117.958L150.226 117.958L150.254 117.957L150.283 117.957L150.311 117.957L150.34 117.956L150.368 117.956L150.397 117.956L150.425 117.955L150.454 117.955L150.483 117.955L150.511 117.954L150.54 117.954L150.568 117.954L150.597 117.953L150.626 117.953L150.654 117.953L150.683 117.952L150.712 117.952L150.741 117.952L150.769 117.951L150.798 117.951L150.827 117.95L150.856 117.95L150.885 117.95L150.913 117.949L150.942 117.949L150.971 117.949L151 117.948L151.029 117.948L151.058 117.948L151.087 117.947L151.116 117.947L151.145 117.947L151.174 117.946L151.203 117.946L151.232 117.946L151.261 117.945L151.29 117.945L151.319 117.944L151.348 117.944L151.377 117.944L151.406 117.943L151.435 117.943L151.465 117.943L151.494 117.942L151.523 117.942L151.552 117.942L151.581 117.941L151.611 117.941L151.64 117.941L151.669 117.94L151.698 117.94L151.728 117.939L151.757 117.939L151.786 117.939L151.816 117.938L151.845 117.938L151.875 117.938L151.904 117.937L151.934 117.937L151.963 117.937L151.993 117.936L152.022 117.936L152.052 117.936L152.081 117.935L152.111 117.935L152.14 117.934L152.17 117.934L152.199 117.934L152.229 117.933L152.259 117.933L152.289 117.933L152.318 117.932L152.348 117.932L152.378 117.932L152.407 117.931C152.859 117.926 153.135 117.94 153.368 118.04C153.508 118.1 153.785 118.249 154.02 118.903C155.784 123.842 158.288 127.839 161.624 130.854C164.967 133.875 169.067 135.84 173.91 136.825L173.925 136.828C174.011 136.845 174.129 136.878 174.34 136.958L174.366 136.967L174.393 136.976L174.484 137.007L174.504 138.616C174.56 143.158 174.598 147.701 174.636 152.247L174.646 153.295C174.739 163.689 174.836 174.421 175.149 184.976C175.384 192.896 173.098 200.121 168.092 207.138C162.562 214.894 155.432 221.792 146.253 228.225C141.691 231.424 136.878 234.408 132.164 237.331L131.692 237.623C131.341 237.841 130.989 238.059 130.637 238.277C128.586 239.548 126.527 240.824 124.488 242.125C124.01 242.429 123.638 242.528 123.306 242.532Z" fill="#F8F6F4"/><path d="M131.692 237.623L132.164 237.331C136.878 234.408 141.691 231.424 146.253 228.225C155.432 221.792 162.562 214.894 168.092 207.138C173.098 200.121 175.384 192.896 175.149 184.976C174.836 174.421 174.739 163.689 174.646 153.295L174.636 152.247C174.598 147.701 174.56 143.158 174.504 138.616L174.484 137.007L174.393 136.976L174.366 136.967L174.34 136.958C174.129 136.878 174.011 136.845 173.925 136.828L173.91 136.825C169.067 135.84 164.967 133.875 161.624 130.854C158.288 127.839 155.784 123.842 154.02 118.903C153.785 118.249 153.508 118.1 153.368 118.04C153.135 117.94 152.859 117.926 152.407 117.931L152.378 117.932L152.348 117.932L152.318 117.932L152.289 117.933L152.259 117.933L152.229 117.933L152.199 117.934L152.17 117.934L152.14 117.934L152.111 117.935L152.081 117.935L152.052 117.936L152.022 117.936L151.993 117.936L151.963 117.937L151.934 117.937L151.904 117.937L151.875 117.938L151.845 117.938L151.816 117.938L151.786 117.939L151.757 117.939L151.728 117.939L151.698 117.94L151.669 117.94L151.64 117.941L151.611 117.941L151.581 117.941L151.552 117.942L151.523 117.942L151.494 117.942L151.465 117.943L151.435 117.943L151.406 117.943L151.377 117.944L151.348 117.944L151.319 117.944L151.29 117.945L151.261 117.945L151.232 117.946L151.203 117.946L151.174 117.946L151.145 117.947L151.116 117.947L151.087 117.947L151.058 117.948L151.029 117.948L151 117.948L150.971 117.949L150.942 117.949L150.913 117.949L150.885 117.95L150.856 117.95L150.827 117.95L150.798 117.951L150.769 117.951L150.741 117.952L150.712 117.952L150.683 117.952L150.654 117.953L150.626 117.953L150.597 117.953L150.568 117.954L150.54 117.954L150.511 117.954L150.483 117.955L150.454 117.955L150.425 117.955L150.397 117.956L150.368 117.956L150.34 117.956L150.311 117.957L150.283 117.957L150.254 117.957L150.226 117.958L150.197 117.958L150.169 117.958L150.141 117.959L150.112 117.959L150.084 117.96L150.056 117.96L150.027 117.96L149.999 117.961L149.971 117.961L149.942 117.961L149.914 117.962L149.886 117.962L149.858 117.962L149.83 117.963L149.801 117.963L149.773 117.963L149.745 117.964L149.717 117.964L149.689 117.964L149.661 117.965L149.632 117.965L149.604 117.965L149.576 117.966L149.548 117.966L149.52 117.966L149.492 117.967L149.464 117.967L149.436 117.967L149.408 117.968L149.38 117.968L149.352 117.968L149.324 117.969L149.296 117.969L149.269 117.969L149.241 117.97L149.213 117.97L149.185 117.97L149.157 117.971L149.129 117.971L149.102 117.972L149.074 117.972L149.046 117.972L149.018 117.973L148.99 117.973L148.963 117.973L148.935 117.974L148.907 117.974L148.88 117.974L148.852 117.975L148.824 117.975L148.797 117.975L148.769 117.976L148.742 117.976L148.714 117.976L148.686 117.977L148.659 117.977L148.631 117.977L148.604 117.978L148.576 117.978L148.549 117.978L148.521 117.979L148.494 117.979L148.466 117.979L148.439 117.98L148.412 117.98L148.384 117.98L148.357 117.981L148.329 117.981L148.302 117.981L148.275 117.982L148.247 117.982L148.22 117.982L148.193 117.983L148.165 117.983L148.138 117.983L148.111 117.984L148.084 117.984L148.056 117.984L148.029 117.985L148.002 117.985L147.975 117.985L147.948 117.986L147.921 117.986L147.893 117.986L147.866 117.987L147.839 117.987L147.812 117.987L147.785 117.988L147.758 117.988L147.731 117.988L147.704 117.989L147.677 117.989L147.65 117.989L147.623 117.99L147.596 117.99L147.569 117.99L147.542 117.991L147.515 117.991L147.488 117.991L147.461 117.992L147.434 117.992L147.407 117.992L147.38 117.992L147.353 117.993L147.327 117.993L147.3 117.993L147.273 117.994L147.246 117.994L147.219 117.994L147.193 117.995L147.166 117.995L147.139 117.995L147.112 117.996L147.086 117.996L147.059 117.996L147.032 117.997L147.005 117.997L146.979 117.997L146.952 117.998L146.926 117.998L146.899 117.998L146.872 117.999L146.846 117.999L146.819 117.999L146.793 118L146.766 118L146.739 118L146.713 118.001L146.686 118.001L146.66 118.001L146.633 118.002L146.607 118.002L146.58 118.002L146.554 118.003L146.528 118.003L146.501 118.003L146.475 118.004L146.448 118.004L146.422 118.004L146.395 118.005L146.369 118.005L146.343 118.005L146.316 118.005L146.29 118.006L146.264 118.006L146.237 118.006L146.211 118.007L146.185 118.007L146.159 118.007L146.132 118.008L146.106 118.008L146.08 118.008L146.054 118.009L146.028 118.009L146.001 118.009L145.975 118.01L145.949 118.01L145.923 118.01L145.897 118.011L145.871 118.011L145.844 118.011L145.818 118.012L145.792 118.012L145.766 118.012L145.74 118.012L145.714 118.013L145.688 118.013L145.662 118.013L145.636 118.014L145.61 118.014L145.584 118.014L145.558 118.015L145.532 118.015L145.506 118.015L145.48 118.016L145.454 118.016L145.428 118.016L145.402 118.017L145.376 118.017L145.351 118.017L145.325 118.018L145.299 118.018L145.273 118.018L145.247 118.019L145.221 118.019L145.196 118.019L145.17 118.019L145.144 118.02L145.118 118.02L145.092 118.02L145.066 118.021L145.041 118.021L145.015 118.021L144.989 118.022L144.964 118.022L144.938 118.022L144.912 118.023L144.887 118.023L144.861 118.023L144.835 118.024L144.81 118.024L144.784 118.024L144.758 118.024L144.733 118.025L144.707 118.025L144.681 118.025L144.656 118.026L144.63 118.026L144.605 118.026L144.579 118.027L144.554 118.027L144.528 118.027L144.503 118.028L144.477 118.028L144.452 118.028L144.426 118.029L144.401 118.029L144.375 118.029L144.35 118.029L144.324 118.03L144.299 118.03L144.274 118.03L144.248 118.031L144.223 118.031L144.197 118.031L144.172 118.032L144.147 118.032L144.121 118.032L144.096 118.033L144.071 118.033L144.045 118.033L144.02 118.033L143.995 118.034L143.969 118.034L143.944 118.034L143.919 118.035L143.894 118.035L143.868 118.035L143.843 118.036L143.818 118.036L143.792 118.036L143.767 118.037L143.742 118.037L143.717 118.037L143.692 118.037L143.667 118.038L143.641 118.038L143.616 118.038L143.591 118.039L143.566 118.039L143.541 118.039L143.516 118.04L143.491 118.04L143.466 118.04L143.44 118.041L143.415 118.041L143.39 118.041L143.365 118.041L143.34 118.042L143.315 118.042L143.29 118.042L143.265 118.043L143.24 118.043L143.215 118.043L143.19 118.044L143.165 118.044L143.14 118.044L143.115 118.044L143.09 118.045L143.065 118.045L143.04 118.045L143.015 118.046L142.991 118.046L142.966 118.046L142.941 118.047L142.916 118.047L142.891 118.047L142.866 118.048L142.841 118.048L142.816 118.048L142.792 118.048L142.767 118.049L142.742 118.049L142.717 118.049L142.692 118.05L142.668 118.05L142.643 118.05L142.618 118.051L142.593 118.051L142.568 118.051L142.544 118.051L142.519 118.052L142.494 118.052L142.47 118.052L142.445 118.053L142.42 118.053L142.395 118.053L142.371 118.054L142.346 118.054L142.321 118.054L142.297 118.054L142.272 118.055L142.247 118.055L142.223 118.055L142.198 118.056L142.174 118.056L142.149 118.056L142.124 118.057L142.1 118.057L142.075 118.057L142.05 118.057L142.026 118.058L142.001 118.058L141.977 118.058L141.952 118.059L141.928 118.059L141.903 118.059L141.879 118.06L141.854 118.06L141.83 118.06L141.805 118.06L141.781 118.061L141.756 118.061L141.732 118.061L141.707 118.062L141.683 118.062L141.658 118.062L141.634 118.063L141.609 118.063L141.585 118.063L141.561 118.063L141.536 118.064L141.512 118.064L141.487 118.064L141.463 118.065L141.438 118.065L141.414 118.065L141.39 118.066L141.365 118.066L141.341 118.066L141.317 118.066L141.292 118.067L141.268 118.067L141.244 118.067L141.219 118.068L141.195 118.068L141.171 118.068L141.146 118.069L141.122 118.069L141.098 118.069L141.074 118.069L141.049 118.07L141.025 118.07L141.001 118.07L140.977 118.071L140.952 118.071L140.928 118.071L140.904 118.071L140.88 118.072L140.855 118.072L140.831 118.072L140.807 118.073L140.783 118.073L140.759 118.073L140.734 118.074L140.71 118.074L140.686 118.074L140.662 118.074L140.638 118.075L140.614 118.075L140.589 118.075L140.565 118.076L140.541 118.076L140.517 118.076L140.493 118.076L140.469 118.077L140.445 118.077L140.421 118.077L140.397 118.078L140.373 118.078L140.348 118.078L140.324 118.079L140.3 118.079L140.276 118.079L140.252 118.079L140.228 118.08L140.204 118.08L140.18 118.08L140.156 118.081L140.132 118.081L140.108 118.081L140.084 118.081L140.06 118.082L140.036 118.082L140.012 118.082L139.988 118.083L139.964 118.083L139.94 118.083L139.916 118.084L139.892 118.084L139.868 118.084L139.844 118.084L139.82 118.085L139.796 118.085L139.772 118.085L139.748 118.086L139.724 118.086L139.701 118.086L139.677 118.086L139.653 118.087L139.629 118.087L139.605 118.087L139.581 118.088L139.557 118.088L139.533 118.088L139.509 118.088L139.485 118.089L139.462 118.089L139.438 118.089L139.414 118.09L139.39 118.09L139.366 118.09L139.342 118.091L139.319 118.091L139.295 118.091L139.271 118.091L139.247 118.092L139.223 118.092L139.2 118.092L139.176 118.093L139.152 118.093L139.128 118.093L139.104 118.093L139.081 118.094L139.057 118.094L139.033 118.094L139.009 118.095L123.897 118.279L123.85 118.279L123.803 118.28L123.756 118.281L123.709 118.281L123.661 118.282L123.614 118.282L123.567 118.283L123.52 118.283L123.472 118.284L123.425 118.285L123.377 118.285L123.33 118.286L123.282 118.286L123.235 118.287L123.187 118.288L123.14 118.288L123.092 118.289L123.044 118.289L122.996 118.29L122.948 118.29L122.901 118.291L122.853 118.292L122.805 118.292L122.757 118.293L122.709 118.293L122.661 118.294L122.613 118.295L122.564 118.295L122.516 118.296L122.468 118.296L122.42 118.297L122.371 118.297L122.323 118.298L122.275 118.299L122.226 118.299L122.177 118.3L122.129 118.3L122.08 118.301L122.032 118.302L121.983 118.302L121.934 118.303L121.885 118.303L121.836 118.304L121.788 118.305L121.739 118.305L121.69 118.306L121.641 118.306L121.591 118.307L121.542 118.308L121.493 118.308L121.444 118.309L121.395 118.309L121.345 118.31L121.296 118.311L121.247 118.311L121.197 118.312L121.147 118.312L121.098 118.313L121.048 118.314L120.999 118.314L120.949 118.315L120.899 118.315L120.849 118.316L120.799 118.317L120.75 118.317L120.699 118.318L120.649 118.318L120.599 118.319L120.549 118.32L120.499 118.32L120.449 118.321L120.399 118.322L120.348 118.322L120.298 118.323L120.247 118.323L120.197 118.324L120.146 118.325L120.096 118.325L120.045 118.326L119.995 118.326L119.944 118.327L119.893 118.328L119.842 118.328L119.791 118.329L119.74 118.33L119.689 118.33L119.638 118.331L119.587 118.331L119.536 118.332L119.485 118.333L119.433 118.333L119.382 118.334L119.331 118.335L119.279 118.335L119.228 118.336L119.176 118.336L119.124 118.337L119.073 118.338L119.021 118.338L118.969 118.339L118.917 118.34L118.866 118.34L118.813 118.341L118.761 118.341L118.709 118.342L118.657 118.343L118.605 118.343L118.553 118.344L118.501 118.345L118.448 118.345L118.396 118.346L118.343 118.347L118.291 118.347L118.238 118.348L118.186 118.349L118.133 118.349L118.08 118.35L118.027 118.35L117.975 118.351L117.922 118.352L117.868 118.352L117.815 118.353L117.762 118.354L117.709 118.354L117.656 118.355L117.603 118.356L117.549 118.356L117.496 118.357L117.443 118.358L117.389 118.358L117.335 118.359L117.282 118.36L117.228 118.36L117.174 118.361L117.12 118.361L117.066 118.362L117.012 118.363L116.958 118.363L116.904 118.364L116.85 118.365L116.796 118.365L116.742 118.366L116.687 118.367L116.633 118.367L116.579 118.368L116.524 118.369L116.469 118.369L116.415 118.37L116.36 118.371L116.305 118.371L116.25 118.372L116.196 118.373L116.141 118.373L116.086 118.374L116.03 118.375L115.975 118.375L115.92 118.376L115.865 118.377L115.809 118.377L115.754 118.378L115.698 118.379L115.643 118.38L115.587 118.38L115.532 118.381L115.476 118.382L115.42 118.382L115.364 118.383L115.308 118.384L115.252 118.384L115.196 118.385L115.14 118.386L115.084 118.386L115.027 118.387L114.971 118.388L114.915 118.388L114.858 118.389L114.801 118.39L114.745 118.39L114.688 118.391L114.631 118.392L114.575 118.393L114.518 118.393L114.461 118.394L114.404 118.395L114.346 118.395L114.289 118.396L114.232 118.397L114.175 118.397L114.117 118.398L114.06 118.399L114.002 118.4L113.945 118.4L113.887 118.401L113.829 118.402L113.771 118.402L113.714 118.403L113.656 118.404L113.598 118.404L113.539 118.405L113.481 118.406L113.423 118.407L113.365 118.407L113.306 118.408L113.248 118.409L113.189 118.409L113.131 118.41L113.072 118.411L113.013 118.412L112.955 118.412L112.896 118.413L112.837 118.414L112.778 118.414L112.718 118.415L112.659 118.416L112.6 118.417L112.541 118.417L112.481 118.418L112.422 118.419L112.362 118.42L112.302 118.42L112.243 118.421L112.183 118.422L112.123 118.422L112.063 118.423L112.003 118.424L111.943 118.425L111.883 118.425L111.823 118.426L111.762 118.427L111.702 118.428L111.641 118.428L111.581 118.429L111.52 118.43L111.459 118.431L111.399 118.431L111.338 118.432L111.277 118.433L111.216 118.433L111.155 118.434L111.094 118.435L111.032 118.436L110.971 118.436L110.909 118.437L110.848 118.438L110.787 118.439L110.725 118.439L110.663 118.44L110.601 118.441L110.539 118.442L110.477 118.442L110.415 118.443L110.353 118.444L110.291 118.445L110.229 118.446L110.166 118.446L110.104 118.447L110.041 118.448L109.979 118.449L109.916 118.449L109.853 118.45L109.79 118.451L109.727 118.452L109.664 118.452L109.601 118.453L109.538 118.454L109.475 118.455L109.411 118.455L109.348 118.456L109.285 118.457L109.221 118.458L109.157 118.459L109.094 118.459L109.03 118.46L108.966 118.461L108.902 118.462L108.838 118.462L108.773 118.463L108.709 118.464L108.645 118.465L108.58 118.466L108.516 118.466L108.451 118.467L108.386 118.468L108.322 118.469L108.257 118.47L108.192 118.47L108.127 118.471L108.062 118.472L107.997 118.473L107.931 118.474L107.866 118.474L107.8 118.475L107.735 118.476L107.669 118.477L107.603 118.478L107.538 118.478L107.472 118.479L107.406 118.48L107.34 118.481L107.273 118.482L107.207 118.482L107.141 118.483L107.074 118.484L107.008 118.485L106.941 118.486L106.875 118.486L106.808 118.487L106.741 118.488L106.674 118.489L106.607 118.49L106.54 118.49L106.473 118.491L106.405 118.492L106.338 118.493L106.27 118.494L106.203 118.495L106.135 118.495L106.067 118.496L105.999 118.497L105.932 118.498L105.863 118.499L105.795 118.5L105.727 118.5L105.659 118.501L105.59 118.502L105.522 118.503L105.453 118.504L105.385 118.505L105.316 118.505L105.247 118.506L105.178 118.507L105.109 118.508L105.04 118.509L104.97 118.51L104.901 118.51L104.832 118.511L104.762 118.512L104.693 118.513L104.623 118.514L104.553 118.515L104.483 118.516L104.413 118.516L104.343 118.517L104.273 118.518L104.203 118.519L104.132 118.52L104.062 118.521L103.991 118.522L103.921 118.522L103.85 118.523L103.779 118.524L103.708 118.525L103.637 118.526L103.566 118.527L103.495 118.528L103.423 118.529L103.352 118.529L103.28 118.53L103.209 118.531L103.137 118.532L103.065 118.533L102.993 118.534L102.921 118.535L102.849 118.536L102.777 118.536L102.705 118.537L102.632 118.538L102.56 118.539L102.487 118.54L102.414 118.541L102.341 118.542L102.269 118.543L102.196 118.543L102.122 118.544L102.049 118.545L101.976 118.546L101.903 118.547L101.829 118.548L101.755 118.549L101.682 118.55L101.608 118.551L101.534 118.552L101.46 118.552L101.386 118.553L101.312 118.554L101.237 118.555L101.163 118.556L101.088 118.557L101.014 118.558L100.939 118.559L100.864 118.56L100.789 118.561L100.714 118.562L100.639 118.562L100.564 118.563L100.489 118.564L100.413 118.565L100.338 118.566L100.262 118.567L100.186 118.568L100.11 118.569L100.034 118.57L99.9584 118.571L99.8822 118.572L99.806 118.573L99.7296 118.574L99.6531 118.574L99.5765 118.575L99.4998 118.576L99.4229 118.577L99.3461 118.578L99.269 118.579L99.192 118.58L99.1148 118.581L99.0374 118.582L98.9601 118.583L98.8825 118.584L98.8048 118.585L98.7271 118.586L98.6493 118.587L98.5712 118.588L98.4932 118.589L98.415 118.59L98.3366 118.591L98.2583 118.591L98.1797 118.592L98.1012 118.593L98.0224 118.594L97.9437 118.595L97.8646 118.596L97.7856 118.597L97.7064 118.598L97.6272 118.599L97.5479 118.6L97.4683 118.601L97.3888 118.602L97.309 118.603L97.2293 118.604L97.1493 118.605L97.0692 118.606L96.9891 118.607L96.9089 118.608L96.8285 118.609L96.748 118.61L96.6675 118.611L96.5868 118.612L96.506 118.613L96.4251 118.614L96.3439 118.615L96.2629 118.616L96.1816 118.617L96.1002 118.618L96.0187 118.619L95.9372 118.62L95.8555 118.621L95.7737 118.622L95.6917 118.623L95.6097 118.624L95.5275 118.625L95.4453 118.626L95.3628 118.627L95.2803 118.628L95.1978 118.629L95.115 118.63L95.0321 118.631L94.9493 118.632L94.8661 118.633L94.783 118.634L94.6996 118.635L94.6163 118.636L94.5328 118.637L94.4491 118.638L94.3653 118.639L94.2815 118.64L94.1975 118.641L94.1135 118.642L94.0292 118.643L93.9448 118.644L93.8604 118.645L93.7759 118.646L93.6912 118.647L93.6064 118.648L93.5214 118.649L93.4364 118.65L93.3512 118.651L93.2659 118.652L93.1806 118.653L93.0951 118.654L93.0095 118.655L92.9236 118.657L92.8378 118.658L92.7518 118.659L92.6657 118.66L92.5795 118.661L92.4932 118.662L92.4067 118.663L92.3203 118.664L92.2335 118.665L92.1466 118.666L92.0597 118.667L91.9727 118.668L91.8855 118.669L91.7982 118.67L91.7108 118.671L91.6233 118.672L91.5356 118.673L91.4478 118.675L91.36 118.676L91.2719 118.677L91.1838 118.678L91.0955 118.679L91.0072 118.68C90.3615 118.688 90.0723 118.819 89.926 118.925C89.7833 119.029 89.5784 119.253 89.3909 119.842L89.3902 119.845C87.1588 126.825 83.3092 131.888 77.5806 135.13L77.5781 135.132C75.8056 136.131 73.8869 136.871 71.9839 137.601C71.1351 137.927 70.2917 138.256 69.4529 138.605C69.4436 138.702 69.4337 138.852 69.4355 138.996L69.5738 150.184C69.7252 163.162 69.882 176.572 70.1168 189.765C70.1572 191.683 70.5223 193.863 71.2456 196.253L71.2466 196.257C73.2045 202.776 77.0264 208.689 83.8175 215.487C93.4616 225.146 105.568 233.622 121.987 242.157L121.989 242.158C122.472 242.41 122.831 242.51 123.124 242.535L123.306 242.532C123.638 242.528 124.01 242.429 124.488 242.125C126.527 240.824 128.586 239.548 130.637 238.277C130.989 238.059 131.341 237.841 131.692 237.623ZM131.692 237.623L132.508 238.921" stroke="#333336" stroke-width="2"/><path d="M121.943 117.321L123.395 243.72" stroke="#333336" stroke-width="2" stroke-miterlimit="10"/><path d="M543.893 159C564.387 159 581 175.614 581 196.107V216.893C581 237.386 564.387 254 543.893 254C523.399 254 506.786 237.386 506.786 216.893V196.107C506.786 175.614 523.399 159 543.893 159Z" fill="#CCEDFE"/><path d="M543.893 159C564.387 159 581 175.614 581 196.107V216.893C581 237.386 564.387 254 543.893 254C523.399 254 506.786 237.386 506.786 216.893V196.107C506.786 175.614 523.399 159 543.893 159Z" stroke="#333336" stroke-width="2"/><path d="M570.568 205.911 565.23 226.008C565.185 226.181 565.106 226.344 564.997 226.486 564.889 226.629 564.754 226.748 564.599 226.838 564.445 226.928 564.274 226.987 564.097 227.011 563.919 227.035 563.739 227.023 563.566 226.977 563.393 226.931 563.231 226.852 563.089 226.743 562.947 226.634 562.828 226.499 562.738 226.344 562.649 226.189 562.591 226.018 562.567 225.841 562.544 225.663 562.556 225.483 562.602 225.31L567.94 205.213C568.748 202.14 568.901 198.932 568.388 195.796 567.875 192.66 566.708 189.667 564.962 187.012 564.815 186.78 564.741 186.51 564.749 186.235 564.758 185.961 564.848 185.695 565.009 185.473 565.169 185.25 565.393 185.081 565.65 184.986 565.908 184.892 566.188 184.877 566.455 184.943 566.78 185.032 567.061 185.236 567.246 185.517 569.196 188.494 570.5 191.848 571.072 195.361 571.645 198.875 571.473 202.469 570.568 205.911ZM563.335 182.704C563.168 182.888 562.955 183.022 562.717 183.094 562.479 183.165 562.227 183.169 561.986 183.107 561.772 183.046 561.575 182.937 561.409 182.788 557.713 179.353 552.97 177.26 547.941 176.846 542.912 176.432 537.89 177.721 533.683 180.505 533.52 180.608 533.338 180.675 533.148 180.705 532.958 180.734 532.764 180.724 532.578 180.675 532.327 180.604 532.101 180.462 531.928 180.267 531.754 180.072 531.64 179.831 531.599 179.573 531.558 179.315 531.592 179.051 531.696 178.811 531.8 178.572 531.971 178.367 532.187 178.221 536.907 175.107 542.535 173.668 548.17 174.135 553.805 174.602 559.12 176.949 563.262 180.798 563.392 180.918 563.497 181.062 563.572 181.223 563.646 181.384 563.688 181.558 563.694 181.736 563.701 181.913 563.673 182.089 563.611 182.256 563.55 182.422 563.456 182.574 563.335 182.704ZM528.363 185.33C526.413 187.763 524.995 190.577 524.199 193.592L520.094 209.051C520.048 209.224 519.969 209.387 519.861 209.529 519.753 209.671 519.617 209.791 519.463 209.881 519.308 209.971 519.137 210.03 518.96 210.054 518.783 210.077 518.602 210.066 518.43 210.02 518.257 209.974 518.094 209.895 517.952 209.786 517.81 209.677 517.691 209.542 517.602 209.387 517.512 209.232 517.454 209.061 517.431 208.884 517.407 208.706 517.419 208.526 517.466 208.353L521.571 192.894C522.464 189.519 524.051 186.367 526.23 183.639 526.395 183.432 526.617 183.278 526.868 183.195 527.12 183.111 527.39 183.103 527.646 183.171 527.827 183.216 527.997 183.3 528.142 183.418 528.282 183.529 528.399 183.667 528.486 183.823 528.573 183.979 528.628 184.151 528.649 184.329 528.669 184.506 528.654 184.686 528.605 184.858 528.556 185.03 528.474 185.191 528.363 185.33ZM552.02 200.982 546.272 222.626C546.179 222.973 545.951 223.269 545.64 223.449 545.328 223.629 544.958 223.679 544.61 223.586 544.263 223.494 543.966 223.268 543.785 222.957 543.603 222.646 543.553 222.276 543.644 221.928L549.392 200.285C549.596 199.501 549.518 198.67 549.17 197.938 548.822 197.206 548.227 196.621 547.489 196.284 546.752 195.948 545.92 195.883 545.139 196.1 544.359 196.317 543.68 196.802 543.222 197.471 543.004 197.791 542.843 198.145 542.745 198.519L537.407 218.616C536.715 221.488 535.194 224.092 533.032 226.105 530.87 228.118 528.163 229.449 525.25 229.934 525.076 229.954 524.899 229.941 524.73 229.896 524.468 229.827 524.232 229.681 524.053 229.478 523.874 229.274 523.761 229.021 523.727 228.752 523.686 228.394 523.787 228.035 524.008 227.75 524.229 227.466 524.552 227.279 524.909 227.229 527.285 226.814 529.487 225.711 531.242 224.056 532.997 222.4 534.227 220.266 534.779 217.918L540.117 197.821C540.292 197.146 540.585 196.506 540.982 195.933 541.566 195.084 542.352 194.394 543.27 193.925 544.328 193.382 545.522 193.157 546.706 193.278 547.89 193.399 549.013 193.862 549.939 194.609 550.866 195.356 551.556 196.356 551.925 197.487 552.294 198.618 552.327 199.833 552.02 200.982Z" fill="#333336"/><path d="M547.39 199.75 542.874 216.755C542.781 217.103 542.554 217.401 542.242 217.582 541.93 217.763 541.559 217.812 541.211 217.72 540.862 217.627 540.565 217.4 540.384 217.088 540.203 216.776 540.153 216.405 540.246 216.057L544.762 199.052C544.854 198.703 545.082 198.406 545.394 198.225 545.705 198.044 546.076 197.994 546.425 198.087 546.773 198.179 547.071 198.406 547.252 198.718 547.433 199.03 547.482 199.401 547.39 199.75ZM541.637 221.393C539.014 231.272 529.673 234.103 529.279 234.214 529.041 234.281 528.789 234.283 528.55 234.219 528.322 234.16 528.114 234.043 527.946 233.879 527.778 233.715 527.655 233.511 527.589 233.285 527.491 232.938 527.533 232.566 527.707 232.25 527.881 231.933 528.172 231.698 528.518 231.595 531.023 230.771 533.288 229.347 535.116 227.447 536.945 225.547 538.281 223.229 539.009 220.695 539.102 220.347 539.329 220.049 539.641 219.868 539.953 219.687 540.324 219.638 540.672 219.73 541.021 219.823 541.318 220.05 541.499 220.362 541.68 220.674 541.73 221.045 541.637 221.393ZM544.634 227.435C542.462 231.474 539.26 234.866 535.354 237.267 535.2 237.357 535.029 237.416 534.852 237.44 534.676 237.464 534.496 237.453 534.323 237.407 534.151 237.361 533.989 237.282 533.848 237.173 533.706 237.065 533.587 236.929 533.498 236.774 533.319 236.463 533.27 236.093 533.362 235.745 533.455 235.398 533.681 235.101 533.991 234.919 537.423 232.77 540.247 229.776 542.192 226.224 542.332 225.945 542.564 225.723 542.848 225.593 543.132 225.464 543.452 225.436 543.754 225.514L544.009 225.614C544.172 225.688 544.318 225.796 544.436 225.93 544.554 226.064 544.643 226.222 544.696 226.393 544.814 226.735 544.792 227.11 544.634 227.435Z" fill="#333336"/><path d="M556.662 202.215L550.504 225.404C547.925 235.112 541.792 238.763 541.538 238.91C541.384 239 541.214 239.059 541.037 239.083C540.86 239.107 540.68 239.096 540.508 239.05C540.335 239.004 540.174 238.925 540.032 238.816C539.891 238.708 539.772 238.572 539.683 238.417C539.503 238.106 539.454 237.736 539.547 237.388C539.639 237.041 539.865 236.744 540.176 236.562C540.219 236.524 545.613 233.224 547.876 224.706L554.034 201.517C554.595 199.405 554.294 197.158 553.197 195.268C552.101 193.378 550.299 192.002 548.187 191.441C546.075 190.88 543.828 191.181 541.938 192.278C540.048 193.374 538.672 195.177 538.111 197.288L533.595 214.293C530.487 225.996 521.27 225.617 521.189 225.612L520.918 225.573C520.617 225.49 520.353 225.307 520.17 225.054C519.988 224.801 519.897 224.493 519.914 224.181C519.923 224.001 519.967 223.826 520.045 223.664C520.123 223.502 520.233 223.358 520.368 223.239C520.503 223.121 520.66 223.03 520.831 222.974C521.001 222.917 521.181 222.896 521.36 222.91C521.639 222.918 528.442 223.103 530.967 213.595L535.483 196.59C535.852 195.199 536.492 193.895 537.365 192.752C538.239 191.608 539.329 190.648 540.573 189.926C541.818 189.204 543.192 188.734 544.618 188.543C546.045 188.352 547.494 188.444 548.885 188.813C550.276 189.182 551.58 189.822 552.723 190.695C553.867 191.569 554.827 192.659 555.549 193.903C556.271 195.148 556.741 196.522 556.932 197.948C557.123 199.374 557.032 200.824 556.662 202.215Z" fill="#333336"/><path d="M536.392 190.677C534.998 192.209 533.997 194.056 533.473 196.059L528.957 213.064C528.127 216.187 524.994 221.693 519.057 220.116 518.709 220.024 518.411 219.797 518.23 219.485 518.049 219.173 518 218.802 518.092 218.453 518.185 218.105 518.412 217.807 518.724 217.626 519.036 217.445 519.407 217.396 519.755 217.488 524.563 218.765 526.259 212.629 526.329 212.366L530.845 195.361C531.489 192.94 532.706 190.709 534.393 188.856 534.558 188.67 534.772 188.534 535.01 188.463 535.248 188.392 535.501 188.388 535.741 188.453 535.954 188.505 536.148 188.614 536.303 188.767 536.569 189.006 536.73 189.34 536.751 189.697 536.762 189.877 536.735 190.056 536.673 190.225 536.612 190.393 536.516 190.547 536.392 190.677ZM561.294 203.448 554.725 228.183C553.969 231.589 552.503 234.798 550.421 237.598 550.182 237.868 549.846 238.032 549.487 238.054 549.127 238.076 548.774 237.955 548.503 237.716 548.233 237.478 548.069 237.142 548.046 236.783 548.024 236.423 548.145 236.069 548.383 235.799 550.169 233.306 551.432 230.478 552.097 227.485L558.666 202.75C559.274 200.468 559.25 198.063 558.597 195.794 557.944 193.525 556.686 191.475 554.958 189.866 553.23 188.256 551.097 187.146 548.787 186.655 546.477 186.164 544.077 186.31 541.843 187.078 541.591 187.174 541.316 187.188 541.055 187.117 540.772 187.042 540.521 186.878 540.338 186.65 540.156 186.421 540.052 186.139 540.042 185.847 540.033 185.554 540.118 185.266 540.285 185.026 540.452 184.786 540.692 184.605 540.969 184.512 543.915 183.49 547.098 183.373 550.111 184.176 554.146 185.254 557.59 187.888 559.686 191.5 561.783 195.113 562.361 199.409 561.294 203.448Z" fill="#333336"/><path d="M549.197 180.422C549.161 180.781 548.985 181.111 548.707 181.341 548.429 181.571 548.072 181.682 547.713 181.65 543.523 181.294 539.341 182.417 535.893 184.824 532.445 187.231 529.949 190.77 528.839 194.825L524.733 210.284C524.547 211.078 524.2 211.826 523.715 212.481 523.229 213.136 522.615 213.685 521.91 214.094 521.204 214.503 520.423 214.764 519.613 214.861 518.803 214.957 517.983 214.887 517.201 214.655 516.853 214.562 516.557 214.335 516.377 214.023 516.197 213.712 516.148 213.341 516.24 212.994 516.332 212.646 516.559 212.349 516.87 212.168 517.181 211.987 517.551 211.936 517.899 212.027 518.335 212.175 518.798 212.227 519.256 212.181 519.714 212.135 520.157 211.992 520.555 211.761 520.954 211.53 521.298 211.216 521.565 210.841 521.833 210.466 522.017 210.038 522.105 209.586L526.211 194.127C527.448 189.427 530.315 185.318 534.301 182.536 538.286 179.754 543.131 178.478 547.97 178.937L548.175 178.975C548.488 179.057 548.763 179.247 548.95 179.512 549.137 179.777 549.225 180.099 549.197 180.422ZM565.939 204.677 564.707 209.315C564.614 209.663 564.387 209.96 564.075 210.141 563.763 210.322 563.392 210.372 563.044 210.28 562.695 210.187 562.398 209.96 562.217 209.648 562.036 209.336 561.986 208.965 562.079 208.617L563.311 203.979C564.359 199.907 563.947 195.596 562.148 191.796 560.349 187.995 557.275 184.945 553.461 183.175 553.148 183.034 552.9 182.78 552.767 182.464 552.633 182.148 552.624 181.793 552.741 181.47 552.858 181.148 553.093 180.881 553.398 180.724 553.703 180.567 554.056 180.532 554.387 180.624L554.584 180.693C559.013 182.695 562.586 186.206 564.666 190.599 566.746 194.992 567.197 199.982 565.939 204.677ZM563.06 215.503 558.544 232.509C558.452 232.857 558.224 233.155 557.913 233.336 557.601 233.516 557.23 233.566 556.881 233.474 556.533 233.381 556.235 233.154 556.054 232.842 555.873 232.53 555.824 232.159 555.916 231.811L560.432 214.806C560.525 214.457 560.752 214.16 561.064 213.979 561.376 213.798 561.747 213.748 562.095 213.84 562.444 213.933 562.741 214.16 562.922 214.472 563.103 214.784 563.153 215.155 563.06 215.503Z" fill="#333336"/><path d="M38.0179 -8.89551H149.86V77.3375C149.86 80.5598 147.256 83.1678 144.052 83.1678H43.8259C40.6159 83.1678 38.0179 80.5598 38.0179 77.3375V-8.89551Z" fill="#FFEA80" stroke="#333336" stroke-width="2"/><path d="M105.136 29.0562V21.7683C105.136 18.7355 103.964 15.8268 101.854 13.683C99.7576 11.5391 96.9122 10.3364 93.9431 10.3364C90.974 10.3364 88.1352 11.5391 86.0321 13.683C83.9224 15.8268 82.7505 18.7355 82.7505 21.7683V29.0562" stroke="#333336" stroke-width="2" stroke-miterlimit="10"/><path d="M110.913 29.3926H76.9635C75.518 29.3926 74.3525 30.5626 74.3525 32.0071V56.7666C74.3525 58.211 75.518 59.381 76.9635 59.381H110.913C112.358 59.381 113.524 58.211 113.524 56.7666V32.0071C113.524 30.5626 112.358 29.3926 110.913 29.3926Z" fill="#F8F6F4" stroke="#333336" stroke-width="2" stroke-miterlimit="10"/><path d="M98.1708 42.0829C98.1708 42.8019 97.995 43.5078 97.6499 44.1353C97.3049 44.7628 96.8034 45.2922 96.1979 45.6779V48.6911C96.1979 49.2924 95.9636 49.8677 95.5338 50.2925C95.1171 50.7173 94.5376 50.9526 93.9385 50.9526C93.3395 50.9526 92.7665 50.7107 92.3368 50.2925C91.9201 49.8677 91.6727 49.2924 91.6727 48.6911V45.6779C91.0477 45.2857 90.5462 44.7367 90.2012 44.083C89.8496 43.4294 89.6803 42.6973 89.6998 41.9652C89.7259 41.2266 89.9407 40.5076 90.3249 39.8802C90.709 39.2526 91.2495 38.7299 91.894 38.3768C92.5387 38.0174 93.2679 37.8408 94.0037 37.8473C94.7394 37.8605 95.4687 38.0632 96.1003 38.4356C96.7318 38.8083 97.2592 39.3442 97.6175 39.9847C97.982 40.6253 98.1773 41.3509 98.1773 42.0894L98.1708 42.0829Z" fill="#FFEA80" stroke="#333336" stroke-width="2" stroke-miterlimit="10"/></g><rect x="1" y="1" width="598" height="318" rx="15" stroke="#333336" stroke-width="2"/><defs><clipPath id="a"><rect width="600" height="320" rx="16" fill="#fff"/></clipPath></defs></svg>