<svg width="600" height="321" fill="none" xmlns="http://www.w3.org/2000/svg"><path d="M188.055 88.709H412.853V261.175C412.853 267.62 407.618 272.836 401.179 272.836H199.729C193.277 272.836 188.055 267.62 188.055 261.175V88.709Z" fill="#DCD2FF" stroke="#333336" stroke-width="2"/><path d="M188.055 57.2662C188.055 50.8345 193.29 45.6055 199.729 45.6055H401.179C407.631 45.6055 412.853 50.8345 412.853 57.2662V88.7186H188.055V57.2662Z" stroke="#333336" stroke-width="2"/><path d="M215.734 74.8687C219.58 74.8687 222.697 71.796 222.697 68.0056C222.697 64.2153 219.58 61.1426 215.734 61.1426C211.889 61.1426 208.772 64.2153 208.772 68.0056C208.772 71.796 211.889 74.8687 215.734 74.8687Z" fill="#CCEDFE" stroke="#333336" stroke-width="2"/><path d="M242.208 74.8687C246.053 74.8687 249.17 71.796 249.17 68.0056C249.17 64.2153 246.053 61.1426 242.208 61.1426C238.363 61.1426 235.246 64.2153 235.246 68.0056C235.246 71.796 238.363 74.8687 242.208 74.8687Z" fill="#FFB279" stroke="#333336" stroke-width="2"/><path d="M268.682 74.8687C272.527 74.8687 275.644 71.796 275.644 68.0056C275.644 64.2153 272.527 61.1426 268.682 61.1426C264.836 61.1426 261.719 64.2153 261.719 68.0056C261.719 71.796 264.836 74.8687 268.682 74.8687Z" fill="#FFEA80" stroke="#333336" stroke-width="2"/><path d="M322.96 164.611V150.036C322.96 143.97 320.605 138.153 316.364 133.865C312.15 129.577 306.431 127.172 300.463 127.172C294.496 127.172 288.79 129.577 284.563 133.865C280.322 138.153 277.967 143.97 277.967 150.036V164.611" stroke="#333336" stroke-width="2" stroke-miterlimit="10"/><path d="M334.571 165.285H266.335C263.429 165.285 261.087 167.625 261.087 170.514V220.033C261.087 222.922 263.429 225.262 266.335 225.262H334.571C337.477 225.262 339.819 222.922 339.819 220.033V170.514C339.819 167.625 337.477 165.285 334.571 165.285Z" fill="#F8F6F4" stroke="#333336" stroke-width="2" stroke-miterlimit="10"/><path d="M308.961 190.666C308.961 192.104 308.608 193.516 307.914 194.771C307.221 196.026 306.213 197.084 304.996 197.856V203.882C304.996 205.085 304.525 206.235 303.661 207.085C302.824 207.935 301.659 208.405 300.455 208.405C299.251 208.405 298.099 207.921 297.235 207.085C296.398 206.235 295.9 205.085 295.9 203.882V197.856C294.644 197.071 293.636 195.973 292.943 194.666C292.236 193.359 291.896 191.895 291.935 190.43C291.987 188.953 292.419 187.515 293.191 186.26C293.963 185.005 295.05 183.96 296.345 183.254C297.641 182.535 299.107 182.182 300.586 182.195C302.064 182.221 303.53 182.626 304.8 183.371C306.069 184.117 307.129 185.188 307.849 186.469C308.582 187.751 308.975 189.202 308.975 190.679L308.961 190.666Z" fill="#DCD2FF" stroke="#333336" stroke-width="2" stroke-miterlimit="10"/><path d="M431.532 169.642L431.368 169.644C431.104 169.621 430.781 169.532 430.346 169.305L430.344 169.304C415.552 161.623 404.645 153.994 395.957 145.301C389.839 139.183 386.396 133.862 384.632 127.994L384.631 127.991C383.979 125.84 383.65 123.877 383.614 122.151C383.402 110.277 383.261 98.209 383.125 86.5285L383 76.4596C382.999 76.3292 383.008 76.1949 383.016 76.1069C383.772 75.7931 384.531 75.4972 385.296 75.2038C387.01 74.547 388.739 73.8807 390.336 72.9816L390.338 72.9802C395.499 70.062 398.967 65.5051 400.977 59.2229L400.978 59.221C401.147 58.6905 401.332 58.4891 401.46 58.3957C401.592 58.2999 401.852 58.1818 402.434 58.1748L402.514 58.1738L402.593 58.1728L402.673 58.1719L402.752 58.1709L402.831 58.1699L402.91 58.169L402.989 58.168L403.068 58.167L403.147 58.1661L403.225 58.1651L403.304 58.1642L403.382 58.1632L403.461 58.1623L403.539 58.1613L403.617 58.1603L403.695 58.1594L403.773 58.1584L403.851 58.1575L403.928 58.1566L404.006 58.1556L404.083 58.1547L404.161 58.1537L404.238 58.1528L404.315 58.1518L404.392 58.1509L404.469 58.15L404.546 58.149L404.623 58.1481L404.699 58.1472L404.776 58.1462L404.852 58.1453L404.928 58.1444L405.005 58.1434L405.081 58.1425L405.157 58.1416L405.233 58.1407L405.308 58.1397L405.384 58.1388L405.459 58.1379L405.535 58.137L405.61 58.1361L405.686 58.1352L405.761 58.1342L405.836 58.1333L405.911 58.1324L405.986 58.1315L406.06 58.1306L406.135 58.1297L406.209 58.1288L406.284 58.1279L406.358 58.127L406.432 58.1261L406.506 58.1252L406.581 58.1243L406.654 58.1233L406.728 58.1224L406.802 58.1216L406.876 58.1207L406.949 58.1198L407.022 58.1189L407.096 58.118L407.169 58.1171L407.242 58.1162L407.315 58.1153L407.388 58.1144L407.461 58.1135L407.534 58.1126L407.606 58.1118L407.679 58.1109L407.751 58.11L407.823 58.1091L407.895 58.1082L407.968 58.1074L408.04 58.1065L408.111 58.1056L408.183 58.1047L408.255 58.1039L408.327 58.103L408.398 58.1021L408.469 58.1012L408.541 58.1004L408.612 58.0995L408.683 58.0986L408.754 58.0978L408.825 58.0969L408.896 58.096L408.967 58.0952L409.037 58.0943L409.108 58.0935L409.178 58.0926L409.249 58.0917L409.319 58.0909L409.389 58.09L409.459 58.0892L409.529 58.0883L409.599 58.0875L409.669 58.0866L409.738 58.0858L409.808 58.0849L409.877 58.0841L409.947 58.0832L410.016 58.0824L410.085 58.0816L410.154 58.0807L410.223 58.0799L410.292 58.079L410.361 58.0782L410.43 58.0774L410.498 58.0765L410.567 58.0757L410.635 58.0749L410.704 58.074L410.772 58.0732L410.84 58.0724L410.908 58.0715L410.976 58.0707L411.044 58.0699L411.112 58.0691L411.179 58.0682L411.247 58.0674L411.314 58.0666L411.382 58.0658L411.449 58.0649L411.516 58.0641L411.583 58.0633L411.651 58.0625L411.717 58.0617L411.784 58.0609L411.851 58.0601L411.918 58.0592L411.984 58.0584L412.051 58.0576L412.117 58.0568L412.184 58.056L412.25 58.0552L412.316 58.0544L412.382 58.0536L412.448 58.0528L412.514 58.052L412.579 58.0512L412.645 58.0504L412.711 58.0496L412.776 58.0488L412.842 58.048L412.907 58.0472L412.972 58.0464L413.037 58.0456L413.102 58.0448L413.167 58.044L413.232 58.0432L413.297 58.0424L413.362 58.0416L413.426 58.0409L413.491 58.0401L413.555 58.0393L413.62 58.0385L413.684 58.0377L413.748 58.0369L413.812 58.0362L413.876 58.0354L413.94 58.0346L414.004 58.0338L414.068 58.033L414.131 58.0323L414.195 58.0315L414.259 58.0307L414.322 58.0299L414.385 58.0292L414.448 58.0284L414.512 58.0276L414.575 58.0269L414.638 58.0261L414.701 58.0253L414.763 58.0246L414.826 58.0238L414.889 58.023L414.951 58.0223L415.014 58.0215L415.076 58.0208L415.138 58.02L415.201 58.0192L415.263 58.0185L415.325 58.0177L415.387 58.017L415.449 58.0162L415.511 58.0155L415.572 58.0147L415.634 58.014L415.695 58.0132L415.757 58.0125L415.818 58.0117L415.879 58.011L415.941 58.0102L416.002 58.0095L416.063 58.0087L416.124 58.008L416.185 58.0073L416.246 58.0065L416.306 58.0058L416.367 58.005L416.428 58.0043L416.488 58.0036L416.548 58.0028L416.609 58.0021L416.669 58.0014L416.729 58.0006L416.789 57.9999L416.849 57.9992L416.909 57.9984L416.969 57.9977L417.029 57.997L417.088 57.9962L417.148 57.9955L417.208 57.9948L417.267 57.9941L417.326 57.9933L417.386 57.9926L417.445 57.9919L417.504 57.9912L417.563 57.9905L417.622 57.9897L417.681 57.989L417.74 57.9883L417.799 57.9876L417.857 57.9869L417.916 57.9862L417.974 57.9855L418.033 57.9847L418.091 57.984L418.149 57.9833L418.208 57.9826L418.266 57.9819L418.324 57.9812L418.382 57.9805L418.44 57.9798L418.498 57.9791L418.555 57.9784L418.613 57.9777L418.671 57.977L418.728 57.9763L418.786 57.9756L418.843 57.9749L418.9 57.9742L418.957 57.9735L419.015 57.9728L419.072 57.9721L419.129 57.9714L419.186 57.9707L419.242 57.97L419.299 57.9693L419.356 57.9686L419.413 57.9679L419.469 57.9673L419.526 57.9666L419.582 57.9659L419.638 57.9652L419.695 57.9645L419.751 57.9638L419.807 57.9631L419.863 57.9625L419.919 57.9618L419.975 57.9611L420.031 57.9604L420.086 57.9597L420.142 57.959L420.198 57.9584L420.253 57.9577L420.309 57.957L420.364 57.9563L420.419 57.9557L420.475 57.955L420.53 57.9543L420.585 57.9537L420.64 57.953L420.695 57.9523L420.75 57.9516L420.805 57.951L420.86 57.9503L420.914 57.9496L420.969 57.949L421.023 57.9483L421.078 57.9476L421.132 57.947L421.187 57.9463L421.241 57.9457L421.295 57.945L421.349 57.9443L421.403 57.9437L421.457 57.943L421.511 57.9424L421.565 57.9417L421.619 57.9411L421.673 57.9404L421.726 57.9397L421.78 57.9391L421.834 57.9384L421.887 57.9378L421.941 57.9371L421.994 57.9365L422.047 57.9358L422.1 57.9352L422.153 57.9345L422.206 57.9339L422.259 57.9332L422.312 57.9326L422.365 57.932L422.418 57.9313L422.471 57.9307L422.524 57.93L422.576 57.9294L422.629 57.9288L422.681 57.9281L422.734 57.9275L422.786 57.9268L422.838 57.9262L422.89 57.9256L422.942 57.9249L422.995 57.9243L423.047 57.9237L423.099 57.923L423.151 57.9224L423.202 57.9218L423.254 57.9211L423.306 57.9205L423.357 57.9199L423.409 57.9193L423.461 57.9186L423.512 57.918L423.563 57.9174L423.615 57.9167L423.666 57.9161L423.717 57.9155L423.768 57.9149L423.819 57.9142L423.87 57.9136L423.921 57.913L423.972 57.9124L424.023 57.9118L424.074 57.9111L424.125 57.9105L424.175 57.9099L424.226 57.9093L424.276 57.9087L424.327 57.9081L424.377 57.9075L424.428 57.9068L424.478 57.9062L424.528 57.9056L424.578 57.905L424.628 57.9044L424.678 57.9038L424.728 57.9032L424.778 57.9026L424.828 57.902L424.878 57.9014L424.928 57.9008L424.978 57.9001L425.027 57.8995L425.077 57.8989L425.126 57.8983L425.176 57.8977L425.225 57.8971L425.275 57.8965L425.324 57.8959L425.373 57.8953L425.422 57.8947L425.471 57.8941L425.521 57.8935L425.569 57.8929L425.618 57.8923L425.667 57.8917L425.716 57.8911L425.765 57.8905L425.814 57.89L425.862 57.8894L425.911 57.8888L425.959 57.8882L426.008 57.8876L426.056 57.887L426.105 57.8864L426.153 57.8858L426.201 57.8852L426.25 57.8846L426.298 57.8841L426.346 57.8835L426.394 57.8829L426.442 57.8823L426.49 57.8817L426.538 57.8811L426.586 57.8806L426.633 57.88L426.681 57.8794L426.729 57.8788L426.777 57.8782L426.824 57.8776L426.872 57.8771L426.919 57.8765L426.967 57.8759L427.014 57.8753L427.061 57.8748L427.109 57.8742L427.156 57.8736L427.203 57.873L427.25 57.8725L427.297 57.8719L427.344 57.8713L427.391 57.8707L427.438 57.8702L427.485 57.8696L427.532 57.869L427.578 57.8685L427.625 57.8679L427.672 57.8673L427.718 57.8667L427.765 57.8662L427.811 57.8656L427.858 57.8651L427.904 57.8645L427.951 57.8639L427.997 57.8634L428.043 57.8628L428.089 57.8622L428.136 57.8617L428.182 57.8611L428.228 57.8605L428.274 57.86L428.32 57.8594L428.366 57.8589L428.412 57.8583L428.457 57.8578L428.503 57.8572L428.549 57.8566L428.595 57.8561L428.64 57.8555L428.686 57.855L428.731 57.8544L428.777 57.8539L428.822 57.8533L428.868 57.8528L428.913 57.8522L428.958 57.8517L429.003 57.8511L429.049 57.8505L429.094 57.85L429.139 57.8495L429.184 57.8489L429.229 57.8484L429.274 57.8478L429.319 57.8473L429.364 57.8467L429.409 57.8462L429.453 57.8456L429.498 57.8451L429.543 57.8445L429.588 57.844L429.632 57.8434L429.677 57.8429L429.721 57.8424L429.766 57.8418L429.81 57.8413L429.855 57.8407L429.899 57.8402L429.943 57.8396L429.988 57.8391L430.032 57.8386L430.076 57.838L430.12 57.8375L430.164 57.837L430.208 57.8364L430.252 57.8359L430.296 57.8354L430.34 57.8348L430.384 57.8343L430.428 57.8338L430.472 57.8332L430.515 57.8327L430.559 57.8322L430.603 57.8316L430.646 57.8311L430.69 57.8306L430.734 57.83L430.777 57.8295L430.821 57.829L430.864 57.8284L430.908 57.8279L430.951 57.8274L430.994 57.8269L431.037 57.8263L431.081 57.8258L431.124 57.8253L431.167 57.8247L431.21 57.8242L431.253 57.8237L431.296 57.8232L431.339 57.8226L431.382 57.8221L431.425 57.8216L431.468 57.8211L431.511 57.8206L431.554 57.82L431.596 57.8195L431.639 57.819L431.682 57.8185L431.725 57.8179L431.767 57.8174L431.81 57.8169L431.852 57.8164L431.895 57.8159L431.937 57.8154L431.98 57.8148L432.022 57.8143L432.065 57.8138L445.679 57.648L445.701 57.6477L445.722 57.6474L445.743 57.6472L445.765 57.6469L445.786 57.6467L445.808 57.6464L445.829 57.6461L445.851 57.6459L445.872 57.6456L445.894 57.6454L445.915 57.6451L445.936 57.6448L445.958 57.6446L445.979 57.6443L446.001 57.644L446.022 57.6438L446.044 57.6435L446.065 57.6433L446.087 57.643L446.108 57.6427L446.13 57.6425L446.151 57.6422L446.173 57.6419L446.194 57.6417L446.216 57.6414L446.237 57.6412L446.259 57.6409L446.281 57.6406L446.302 57.6404L446.324 57.6401L446.345 57.6398L446.367 57.6396L446.388 57.6393L446.41 57.6391L446.431 57.6388L446.453 57.6385L446.475 57.6383L446.496 57.638L446.518 57.6377L446.539 57.6375L446.561 57.6372L446.583 57.637L446.604 57.6367L446.626 57.6364L446.647 57.6362L446.669 57.6359L446.691 57.6356L446.712 57.6354L446.734 57.6351L446.756 57.6349L446.777 57.6346L446.799 57.6343L446.821 57.6341L446.842 57.6338L446.864 57.6335L446.886 57.6333L446.907 57.633L446.929 57.6327L446.951 57.6325L446.972 57.6322L446.994 57.6319L447.016 57.6317L447.038 57.6314L447.059 57.6311L447.081 57.6309L447.103 57.6306L447.125 57.6303L447.146 57.6301L447.168 57.6298L447.19 57.6296L447.212 57.6293L447.233 57.629L447.255 57.6288L447.277 57.6285L447.299 57.6282L447.321 57.628L447.342 57.6277L447.364 57.6274L447.386 57.6272L447.408 57.6269L447.43 57.6266L447.452 57.6264L447.473 57.6261L447.495 57.6258L447.517 57.6256L447.539 57.6253L447.561 57.625L447.583 57.6248L447.605 57.6245L447.626 57.6242L447.648 57.624L447.67 57.6237L447.692 57.6234L447.714 57.6232L447.736 57.6229L447.758 57.6226L447.78 57.6224L447.802 57.6221L447.824 57.6218L447.846 57.6216L447.868 57.6213L447.89 57.621L447.912 57.6208L447.934 57.6205L447.956 57.6202L447.978 57.62L448 57.6197L448.022 57.6194L448.044 57.6192L448.066 57.6189L448.088 57.6186L448.11 57.6184L448.132 57.6181L448.154 57.6178L448.176 57.6176L448.198 57.6173L448.22 57.617L448.242 57.6167L448.264 57.6165L448.286 57.6162L448.308 57.6159L448.331 57.6157L448.353 57.6154L448.375 57.6151L448.397 57.6149L448.419 57.6146L448.441 57.6143L448.463 57.614L448.486 57.6138L448.508 57.6135L448.53 57.6132L448.552 57.613L448.574 57.6127L448.596 57.6124L448.619 57.6121L448.641 57.6119L448.663 57.6116L448.685 57.6113L448.708 57.6111L448.73 57.6108L448.752 57.6105L448.774 57.6103L448.797 57.61L448.819 57.6097L448.841 57.6094L448.863 57.6092L448.886 57.6089L448.908 57.6086L448.93 57.6084L448.953 57.6081L448.975 57.6078L448.997 57.6075L449.02 57.6073L449.042 57.607L449.064 57.6067L449.087 57.6064L449.109 57.6062L449.132 57.6059L449.154 57.6056L449.176 57.6054L449.199 57.6051L449.221 57.6048L449.244 57.6045L449.266 57.6043L449.288 57.604L449.311 57.6037L449.333 57.6034L449.356 57.6032L449.378 57.6029L449.401 57.6026L449.423 57.6023L449.446 57.6021L449.468 57.6018L449.491 57.6015L449.513 57.6012L449.536 57.601L449.558 57.6007L449.581 57.6004L449.604 57.6002L449.626 57.5999L449.649 57.5996L449.671 57.5993L449.694 57.5991L449.716 57.5988L449.739 57.5985L449.762 57.5982L449.784 57.5979L449.807 57.5977L449.83 57.5974L449.852 57.5971L449.875 57.5968L449.898 57.5966L449.92 57.5963L449.943 57.596L449.966 57.5957L449.988 57.5955L450.011 57.5952L450.034 57.5949L450.057 57.5946L450.079 57.5944L450.102 57.5941L450.125 57.5938L450.148 57.5935L450.171 57.5932L450.193 57.593L450.216 57.5927L450.239 57.5924L450.262 57.5921L450.285 57.5919L450.307 57.5916L450.33 57.5913L450.353 57.591L450.376 57.5907L450.399 57.5905L450.422 57.5902L450.445 57.5899L450.468 57.5896L450.491 57.5894L450.514 57.5891L450.536 57.5888L450.559 57.5885L450.582 57.5882L450.605 57.5879L450.628 57.5877L450.651 57.5874L450.674 57.5871L450.697 57.5868L450.72 57.5866L450.743 57.5863L450.766 57.586L450.789 57.5857L450.812 57.5854L450.835 57.5851L450.859 57.5849L450.882 57.5846L450.905 57.5843L450.928 57.584L450.951 57.5837L450.974 57.5835L450.997 57.5832L451.02 57.5829L451.044 57.5826L451.067 57.5823L451.09 57.5821L451.113 57.5818L451.136 57.5815L451.159 57.5812L451.183 57.5809L451.206 57.5806L451.229 57.5804L451.252 57.5801L451.276 57.5798L451.299 57.5795L451.322 57.5792L451.345 57.5789L451.369 57.5786L451.392 57.5784L451.415 57.5781L451.439 57.5778L451.462 57.5775L451.485 57.5772L451.509 57.5769L451.532 57.5767L451.556 57.5764L451.579 57.5761L451.602 57.5758L451.626 57.5755L451.649 57.5752L451.673 57.5749L451.696 57.5747L451.72 57.5744L451.743 57.5741L451.766 57.5738L451.79 57.5735L451.814 57.5732L451.837 57.5729L451.861 57.5727L451.884 57.5724L451.908 57.5721L451.931 57.5718L451.955 57.5715L451.978 57.5712L452.002 57.5709L452.026 57.5706L452.049 57.5704L452.073 57.5701L452.096 57.5698L452.12 57.5695L452.144 57.5692L452.168 57.5689L452.191 57.5686L452.215 57.5683L452.239 57.5681L452.262 57.5678L452.286 57.5675L452.31 57.5672L452.334 57.5669L452.357 57.5666L452.381 57.5663L452.405 57.566L452.429 57.5657L452.452 57.5655L452.476 57.5652L452.5 57.5649L452.524 57.5646L452.548 57.5643L452.572 57.564L452.596 57.5637L452.619 57.5634L452.643 57.5631L452.667 57.5628L452.691 57.5625L452.715 57.5623L452.739 57.562L452.763 57.5617L452.787 57.5614L452.811 57.5611L452.835 57.5608L452.859 57.5605L452.883 57.5602L452.907 57.5599L452.931 57.5596L452.955 57.5593L452.979 57.559L453.003 57.5587L453.028 57.5584L453.052 57.5581L453.076 57.5579L453.1 57.5576L453.124 57.5573L453.148 57.557L453.172 57.5567L453.196 57.5564L453.221 57.5561L453.245 57.5558L453.269 57.5555L453.293 57.5552L453.318 57.5549L453.342 57.5546L453.366 57.5543L453.391 57.554L453.415 57.5537L453.439 57.5534L453.463 57.5531L453.488 57.5528L453.512 57.5525L453.536 57.5522L453.561 57.5519L453.585 57.5516L453.61 57.5514L453.634 57.5511L453.658 57.5508L453.683 57.5505L453.707 57.5502L453.732 57.5499L453.756 57.5496L453.781 57.5493L453.805 57.549L453.83 57.5487L453.854 57.5484L453.879 57.5481L453.904 57.5478L453.928 57.5475L453.953 57.5472L453.977 57.5469L454.002 57.5466L454.026 57.5463L454.051 57.546L454.076 57.5457L454.1 57.5454L454.125 57.5451L454.15 57.5448L454.174 57.5445L454.199 57.5442L454.224 57.5439L454.249 57.5436L454.273 57.5433L454.298 57.543L454.323 57.5427L454.348 57.5424L454.373 57.5421L454.397 57.5418L454.422 57.5415L454.447 57.5411L454.472 57.5409L454.497 57.5405L454.522 57.5402L454.547 57.5399L454.572 57.5396L454.596 57.5393L454.621 57.539L454.646 57.5387L454.671 57.5384L454.696 57.5381L454.721 57.5378L454.746 57.5375L454.771 57.5372L454.796 57.5369L454.821 57.5366L454.846 57.5363L454.872 57.536L454.897 57.5357L454.922 57.5354L454.947 57.5351L454.972 57.5347L454.997 57.5345L455.022 57.5341L455.048 57.5338L455.073 57.5335L455.098 57.5332L455.123 57.5329L455.149 57.5326L455.174 57.5323L455.199 57.532L455.224 57.5317L455.25 57.5314L455.275 57.5311L455.3 57.5308L455.326 57.5305L455.351 57.5301L455.376 57.5298L455.402 57.5295L455.427 57.5292L455.453 57.5289L455.478 57.5286L455.504 57.5283L455.529 57.528L455.554 57.5277L455.58 57.5274L455.605 57.527L455.631 57.5267L455.656 57.5264L455.682 57.5261L455.708 57.5258L455.733 57.5255L455.759 57.5252L455.784 57.5249L455.81 57.5245L455.836 57.5242L455.861 57.5239L455.887 57.5236L455.913 57.5233L455.938 57.523L455.964 57.5227L455.99 57.5224L456.016 57.522L456.041 57.5217L456.067 57.5214L456.093 57.5211L456.119 57.5208L456.145 57.5205L456.17 57.5202L456.196 57.5199L456.222 57.5195L456.248 57.5192L456.274 57.5189L456.3 57.5186L456.326 57.5183L456.352 57.518L456.378 57.5176L456.404 57.5173L456.43 57.517L456.456 57.5167L456.482 57.5164L456.508 57.516L456.534 57.5157L456.56 57.5154L456.586 57.5151L456.612 57.5148L456.638 57.5145L456.664 57.5141L456.69 57.5138L456.716 57.5135L456.743 57.5132L456.769 57.5129L456.795 57.5125L456.821 57.5122L456.848 57.5119L456.874 57.5116L456.9 57.5113L456.926 57.511L456.953 57.5106L456.979 57.5103L457.005 57.51L457.032 57.5097L457.058 57.5094L457.085 57.509L457.111 57.5087L457.137 57.5084L457.164 57.5081L457.19 57.5077L457.217 57.5074L457.243 57.5071L457.27 57.5068L457.296 57.5064L457.323 57.5061L457.349 57.5058L457.376 57.5055L457.402 57.5051L457.429 57.5048L457.456 57.5045L457.482 57.5042L457.509 57.5039L457.536 57.5035L457.562 57.5032L457.589 57.5029L457.616 57.5026L457.643 57.5022L457.669 57.5019L457.696 57.5016L457.723 57.5012L457.75 57.5009C458.157 57.496 458.405 57.5086 458.615 57.5986C458.741 57.6524 458.991 57.7873 459.203 58.3751C460.791 62.8204 463.047 66.4177 466.053 69.1314C469.064 71.8501 472.759 73.6188 477.122 74.5057L477.135 74.5082C477.212 74.5233 477.319 74.5533 477.509 74.6247L477.532 74.6335L477.556 74.6415L477.638 74.6693L477.656 76.1169C477.707 80.2049 477.741 84.2935 477.776 88.3856L477.784 89.3287C477.868 98.6833 477.955 108.341 478.237 117.841C478.449 124.97 476.39 131.472 471.88 137.787C466.898 144.768 460.474 150.975 452.205 156.765C448.095 159.645 443.759 162.33 439.513 164.96L439.087 165.224C438.771 165.42 438.454 165.616 438.137 165.812C436.289 166.956 434.434 168.104 432.597 169.276C432.167 169.549 431.831 169.638 431.532 169.642Z" fill="#F8F6F4"/><path d="M439.087 165.224L439.513 164.96C443.759 162.33 448.095 159.645 452.205 156.765C460.474 150.975 466.898 144.768 471.88 137.787C476.39 131.472 478.449 124.97 478.237 117.841C477.955 108.341 477.868 98.6833 477.784 89.3287L477.776 88.3856C477.741 84.2935 477.707 80.2049 477.656 76.1169L477.638 74.6693L477.556 74.6415L477.532 74.6335L477.509 74.6247C477.319 74.5533 477.212 74.5233 477.135 74.5082L477.122 74.5057C472.759 73.6188 469.064 71.8501 466.053 69.1314C463.047 66.4177 460.791 62.8204 459.203 58.3751C458.991 57.7873 458.741 57.6524 458.615 57.5986C458.405 57.5086 458.157 57.496 457.75 57.5009L457.723 57.5012L457.696 57.5016L457.669 57.5019L457.643 57.5022L457.616 57.5026L457.589 57.5029L457.562 57.5032L457.536 57.5035L457.509 57.5039L457.482 57.5042L457.456 57.5045L457.429 57.5048L457.402 57.5051L457.376 57.5055L457.349 57.5058L457.323 57.5061L457.296 57.5064L457.27 57.5068L457.243 57.5071L457.217 57.5074L457.19 57.5077L457.164 57.5081L457.137 57.5084L457.111 57.5087L457.085 57.509L457.058 57.5094L457.032 57.5097L457.005 57.51L456.979 57.5103L456.953 57.5106L456.926 57.511L456.9 57.5113L456.874 57.5116L456.848 57.5119L456.821 57.5122L456.795 57.5125L456.769 57.5129L456.743 57.5132L456.716 57.5135L456.69 57.5138L456.664 57.5141L456.638 57.5145L456.612 57.5148L456.586 57.5151L456.56 57.5154L456.534 57.5157L456.508 57.516L456.482 57.5164L456.456 57.5167L456.43 57.517L456.404 57.5173L456.378 57.5176L456.352 57.518L456.326 57.5183L456.3 57.5186L456.274 57.5189L456.248 57.5192L456.222 57.5195L456.196 57.5199L456.17 57.5202L456.145 57.5205L456.119 57.5208L456.093 57.5211L456.067 57.5214L456.041 57.5217L456.016 57.522L455.99 57.5224L455.964 57.5227L455.938 57.523L455.913 57.5233L455.887 57.5236L455.861 57.5239L455.836 57.5242L455.81 57.5245L455.784 57.5249L455.759 57.5252L455.733 57.5255L455.708 57.5258L455.682 57.5261L455.656 57.5264L455.631 57.5267L455.605 57.527L455.58 57.5274L455.554 57.5277L455.529 57.528L455.504 57.5283L455.478 57.5286L455.453 57.5289L455.427 57.5292L455.402 57.5295L455.376 57.5298L455.351 57.5301L455.326 57.5305L455.3 57.5308L455.275 57.5311L455.25 57.5314L455.224 57.5317L455.199 57.532L455.174 57.5323L455.149 57.5326L455.123 57.5329L455.098 57.5332L455.073 57.5335L455.048 57.5338L455.022 57.5341L454.997 57.5345L454.972 57.5347L454.947 57.5351L454.922 57.5354L454.897 57.5357L454.872 57.536L454.846 57.5363L454.821 57.5366L454.796 57.5369L454.771 57.5372L454.746 57.5375L454.721 57.5378L454.696 57.5381L454.671 57.5384L454.646 57.5387L454.621 57.539L454.596 57.5393L454.572 57.5396L454.547 57.5399L454.522 57.5402L454.497 57.5405L454.472 57.5409L454.447 57.5411L454.422 57.5415L454.397 57.5418L454.373 57.5421L454.348 57.5424L454.323 57.5427L454.298 57.543L454.273 57.5433L454.249 57.5436L454.224 57.5439L454.199 57.5442L454.174 57.5445L454.15 57.5448L454.125 57.5451L454.1 57.5454L454.076 57.5457L454.051 57.546L454.026 57.5463L454.002 57.5466L453.977 57.5469L453.953 57.5472L453.928 57.5475L453.904 57.5478L453.879 57.5481L453.854 57.5484L453.83 57.5487L453.805 57.549L453.781 57.5493L453.756 57.5496L453.732 57.5499L453.707 57.5502L453.683 57.5505L453.658 57.5508L453.634 57.5511L453.61 57.5514L453.585 57.5516L453.561 57.5519L453.536 57.5522L453.512 57.5525L453.488 57.5528L453.463 57.5531L453.439 57.5534L453.415 57.5537L453.391 57.554L453.366 57.5543L453.342 57.5546L453.318 57.5549L453.293 57.5552L453.269 57.5555L453.245 57.5558L453.221 57.5561L453.196 57.5564L453.172 57.5567L453.148 57.557L453.124 57.5573L453.1 57.5576L453.076 57.5579L453.052 57.5581L453.028 57.5584L453.003 57.5587L452.979 57.559L452.955 57.5593L452.931 57.5596L452.907 57.5599L452.883 57.5602L452.859 57.5605L452.835 57.5608L452.811 57.5611L452.787 57.5614L452.763 57.5617L452.739 57.562L452.715 57.5623L452.691 57.5625L452.667 57.5628L452.643 57.5631L452.619 57.5634L452.596 57.5637L452.572 57.564L452.548 57.5643L452.524 57.5646L452.5 57.5649L452.476 57.5652L452.452 57.5655L452.429 57.5657L452.405 57.566L452.381 57.5663L452.357 57.5666L452.334 57.5669L452.31 57.5672L452.286 57.5675L452.262 57.5678L452.239 57.5681L452.215 57.5683L452.191 57.5686L452.168 57.5689L452.144 57.5692L452.12 57.5695L452.096 57.5698L452.073 57.5701L452.049 57.5704L452.026 57.5706L452.002 57.5709L451.978 57.5712L451.955 57.5715L451.931 57.5718L451.908 57.5721L451.884 57.5724L451.861 57.5727L451.837 57.5729L451.814 57.5732L451.79 57.5735L451.766 57.5738L451.743 57.5741L451.72 57.5744L451.696 57.5747L451.673 57.5749L451.649 57.5752L451.626 57.5755L451.602 57.5758L451.579 57.5761L451.556 57.5764L451.532 57.5767L451.509 57.5769L451.485 57.5772L451.462 57.5775L451.439 57.5778L451.415 57.5781L451.392 57.5784L451.369 57.5786L451.345 57.5789L451.322 57.5792L451.299 57.5795L451.276 57.5798L451.252 57.5801L451.229 57.5804L451.206 57.5806L451.183 57.5809L451.159 57.5812L451.136 57.5815L451.113 57.5818L451.09 57.5821L451.067 57.5823L451.044 57.5826L451.02 57.5829L450.997 57.5832L450.974 57.5835L450.951 57.5837L450.928 57.584L450.905 57.5843L450.882 57.5846L450.859 57.5849L450.835 57.5851L450.812 57.5854L450.789 57.5857L450.766 57.586L450.743 57.5863L450.72 57.5866L450.697 57.5868L450.674 57.5871L450.651 57.5874L450.628 57.5877L450.605 57.5879L450.582 57.5882L450.559 57.5885L450.536 57.5888L450.514 57.5891L450.491 57.5894L450.468 57.5896L450.445 57.5899L450.422 57.5902L450.399 57.5905L450.376 57.5907L450.353 57.591L450.33 57.5913L450.307 57.5916L450.285 57.5919L450.262 57.5921L450.239 57.5924L450.216 57.5927L450.193 57.593L450.171 57.5932L450.148 57.5935L450.125 57.5938L450.102 57.5941L450.079 57.5944L450.057 57.5946L450.034 57.5949L450.011 57.5952L449.988 57.5955L449.966 57.5957L449.943 57.596L449.92 57.5963L449.898 57.5966L449.875 57.5968L449.852 57.5971L449.83 57.5974L449.807 57.5977L449.784 57.5979L449.762 57.5982L449.739 57.5985L449.716 57.5988L449.694 57.5991L449.671 57.5993L449.649 57.5996L449.626 57.5999L449.604 57.6002L449.581 57.6004L449.558 57.6007L449.536 57.601L449.513 57.6012L449.491 57.6015L449.468 57.6018L449.446 57.6021L449.423 57.6023L449.401 57.6026L449.378 57.6029L449.356 57.6032L449.333 57.6034L449.311 57.6037L449.288 57.604L449.266 57.6043L449.244 57.6045L449.221 57.6048L449.199 57.6051L449.176 57.6054L449.154 57.6056L449.132 57.6059L449.109 57.6062L449.087 57.6064L449.064 57.6067L449.042 57.607L449.02 57.6073L448.997 57.6075L448.975 57.6078L448.953 57.6081L448.93 57.6084L448.908 57.6086L448.886 57.6089L448.863 57.6092L448.841 57.6094L448.819 57.6097L448.797 57.61L448.774 57.6103L448.752 57.6105L448.73 57.6108L448.708 57.6111L448.685 57.6113L448.663 57.6116L448.641 57.6119L448.619 57.6121L448.596 57.6124L448.574 57.6127L448.552 57.613L448.53 57.6132L448.508 57.6135L448.486 57.6138L448.463 57.614L448.441 57.6143L448.419 57.6146L448.397 57.6149L448.375 57.6151L448.353 57.6154L448.331 57.6157L448.308 57.6159L448.286 57.6162L448.264 57.6165L448.242 57.6167L448.22 57.617L448.198 57.6173L448.176 57.6176L448.154 57.6178L448.132 57.6181L448.11 57.6184L448.088 57.6186L448.066 57.6189L448.044 57.6192L448.022 57.6194L448 57.6197L447.978 57.62L447.956 57.6202L447.934 57.6205L447.912 57.6208L447.89 57.621L447.868 57.6213L447.846 57.6216L447.824 57.6218L447.802 57.6221L447.78 57.6224L447.758 57.6226L447.736 57.6229L447.714 57.6232L447.692 57.6234L447.67 57.6237L447.648 57.624L447.626 57.6242L447.605 57.6245L447.583 57.6248L447.561 57.625L447.539 57.6253L447.517 57.6256L447.495 57.6258L447.473 57.6261L447.452 57.6264L447.43 57.6266L447.408 57.6269L447.386 57.6272L447.364 57.6274L447.342 57.6277L447.321 57.628L447.299 57.6282L447.277 57.6285L447.255 57.6288L447.233 57.629L447.212 57.6293L447.19 57.6296L447.168 57.6298L447.146 57.6301L447.125 57.6303L447.103 57.6306L447.081 57.6309L447.059 57.6311L447.038 57.6314L447.016 57.6317L446.994 57.6319L446.972 57.6322L446.951 57.6325L446.929 57.6327L446.907 57.633L446.886 57.6333L446.864 57.6335L446.842 57.6338L446.821 57.6341L446.799 57.6343L446.777 57.6346L446.756 57.6349L446.734 57.6351L446.712 57.6354L446.691 57.6356L446.669 57.6359L446.647 57.6362L446.626 57.6364L446.604 57.6367L446.583 57.637L446.561 57.6372L446.539 57.6375L446.518 57.6377L446.496 57.638L446.475 57.6383L446.453 57.6385L446.431 57.6388L446.41 57.6391L446.388 57.6393L446.367 57.6396L446.345 57.6398L446.324 57.6401L446.302 57.6404L446.281 57.6406L446.259 57.6409L446.237 57.6412L446.216 57.6414L446.194 57.6417L446.173 57.6419L446.151 57.6422L446.13 57.6425L446.108 57.6427L446.087 57.643L446.065 57.6433L446.044 57.6435L446.022 57.6438L446.001 57.644L445.979 57.6443L445.958 57.6446L445.936 57.6448L445.915 57.6451L445.894 57.6454L445.872 57.6456L445.851 57.6459L445.829 57.6461L445.808 57.6464L445.786 57.6467L445.765 57.6469L445.744 57.6472L445.722 57.6474L445.701 57.6477L445.679 57.648L432.065 57.8138L432.022 57.8143L431.98 57.8148L431.937 57.8154L431.895 57.8159L431.852 57.8164L431.81 57.8169L431.767 57.8174L431.725 57.8179L431.682 57.8185L431.639 57.819L431.596 57.8195L431.554 57.82L431.511 57.8206L431.468 57.8211L431.425 57.8216L431.382 57.8221L431.339 57.8226L431.296 57.8232L431.253 57.8237L431.21 57.8242L431.167 57.8247L431.124 57.8253L431.081 57.8258L431.037 57.8263L430.994 57.8269L430.951 57.8274L430.908 57.8279L430.864 57.8284L430.821 57.829L430.777 57.8295L430.734 57.83L430.69 57.8306L430.646 57.8311L430.603 57.8316L430.559 57.8322L430.515 57.8327L430.472 57.8332L430.428 57.8338L430.384 57.8343L430.34 57.8348L430.296 57.8354L430.252 57.8359L430.208 57.8364L430.164 57.837L430.12 57.8375L430.076 57.838L430.032 57.8386L429.988 57.8391L429.943 57.8396L429.899 57.8402L429.855 57.8407L429.81 57.8413L429.766 57.8418L429.721 57.8424L429.677 57.8429L429.632 57.8434L429.588 57.844L429.543 57.8445L429.498 57.8451L429.453 57.8456L429.409 57.8462L429.364 57.8467L429.319 57.8473L429.274 57.8478L429.229 57.8484L429.184 57.8489L429.139 57.8495L429.094 57.85L429.049 57.8505L429.003 57.8511L428.958 57.8517L428.913 57.8522L428.868 57.8528L428.822 57.8533L428.777 57.8539L428.731 57.8544L428.686 57.855L428.64 57.8555L428.595 57.8561L428.549 57.8566L428.503 57.8572L428.457 57.8578L428.412 57.8583L428.366 57.8589L428.32 57.8594L428.274 57.86L428.228 57.8605L428.182 57.8611L428.136 57.8617L428.089 57.8622L428.043 57.8628L427.997 57.8634L427.951 57.8639L427.904 57.8645L427.858 57.8651L427.811 57.8656L427.765 57.8662L427.718 57.8667L427.672 57.8673L427.625 57.8679L427.578 57.8685L427.532 57.869L427.485 57.8696L427.438 57.8702L427.391 57.8707L427.344 57.8713L427.297 57.8719L427.25 57.8725L427.203 57.873L427.156 57.8736L427.109 57.8742L427.061 57.8748L427.014 57.8753L426.967 57.8759L426.919 57.8765L426.872 57.8771L426.824 57.8776L426.777 57.8782L426.729 57.8788L426.681 57.8794L426.633 57.88L426.586 57.8806L426.538 57.8811L426.49 57.8817L426.442 57.8823L426.394 57.8829L426.346 57.8835L426.298 57.8841L426.25 57.8846L426.201 57.8852L426.153 57.8858L426.105 57.8864L426.056 57.887L426.008 57.8876L425.959 57.8882L425.911 57.8888L425.862 57.8894L425.814 57.89L425.765 57.8905L425.716 57.8911L425.667 57.8917L425.618 57.8923L425.569 57.8929L425.521 57.8935L425.471 57.8941L425.422 57.8947L425.373 57.8953L425.324 57.8959L425.275 57.8965L425.225 57.8971L425.176 57.8977L425.126 57.8983L425.077 57.8989L425.027 57.8995L424.978 57.9001L424.928 57.9008L424.878 57.9014L424.828 57.902L424.778 57.9026L424.728 57.9032L424.678 57.9038L424.628 57.9044L424.578 57.905L424.528 57.9056L424.478 57.9062L424.428 57.9068L424.377 57.9075L424.327 57.9081L424.276 57.9087L424.226 57.9093L424.175 57.9099L424.125 57.9105L424.074 57.9111L424.023 57.9118L423.972 57.9124L423.921 57.913L423.87 57.9136L423.819 57.9142L423.768 57.9149L423.717 57.9155L423.666 57.9161L423.615 57.9167L423.563 57.9174L423.512 57.918L423.461 57.9186L423.409 57.9193L423.357 57.9199L423.306 57.9205L423.254 57.9211L423.202 57.9218L423.151 57.9224L423.099 57.923L423.047 57.9237L422.995 57.9243L422.942 57.9249L422.89 57.9256L422.838 57.9262L422.786 57.9268L422.734 57.9275L422.681 57.9281L422.629 57.9288L422.576 57.9294L422.524 57.93L422.471 57.9307L422.418 57.9313L422.365 57.932L422.312 57.9326L422.259 57.9332L422.206 57.9339L422.153 57.9345L422.1 57.9352L422.047 57.9358L421.994 57.9365L421.941 57.9371L421.887 57.9378L421.834 57.9384L421.78 57.9391L421.726 57.9397L421.673 57.9404L421.619 57.9411L421.565 57.9417L421.511 57.9424L421.457 57.943L421.404 57.9437L421.349 57.9443L421.295 57.945L421.241 57.9457L421.187 57.9463L421.132 57.947L421.078 57.9476L421.024 57.9483L420.969 57.949L420.914 57.9496L420.86 57.9503L420.805 57.951L420.75 57.9516L420.695 57.9523L420.64 57.953L420.585 57.9537L420.53 57.9543L420.475 57.955L420.419 57.9557L420.364 57.9563L420.309 57.957L420.253 57.9577L420.198 57.9584L420.142 57.959L420.086 57.9597L420.031 57.9604L419.975 57.9611L419.919 57.9618L419.863 57.9625L419.807 57.9631L419.751 57.9638L419.695 57.9645L419.638 57.9652L419.582 57.9659L419.526 57.9666L419.469 57.9673L419.413 57.9679L419.356 57.9686L419.299 57.9693L419.242 57.97L419.186 57.9707L419.129 57.9714L419.072 57.9721L419.015 57.9728L418.957 57.9735L418.9 57.9742L418.843 57.9749L418.786 57.9756L418.728 57.9763L418.671 57.977L418.613 57.9777L418.555 57.9784L418.498 57.9791L418.44 57.9798L418.382 57.9805L418.324 57.9812L418.266 57.9819L418.208 57.9826L418.149 57.9833L418.091 57.984L418.033 57.9847L417.974 57.9855L417.916 57.9862L417.857 57.9869L417.799 57.9876L417.74 57.9883L417.681 57.989L417.622 57.9897L417.563 57.9905L417.504 57.9912L417.445 57.9919L417.386 57.9926L417.326 57.9933L417.267 57.9941L417.208 57.9948L417.148 57.9955L417.088 57.9962L417.029 57.997L416.969 57.9977L416.909 57.9984L416.849 57.9992L416.789 57.9999L416.729 58.0006L416.669 58.0014L416.609 58.0021L416.548 58.0028L416.488 58.0036L416.428 58.0043L416.367 58.005L416.306 58.0058L416.246 58.0065L416.185 58.0073L416.124 58.008L416.063 58.0087L416.002 58.0095L415.941 58.0102L415.879 58.011L415.818 58.0117L415.757 58.0125L415.695 58.0132L415.634 58.014L415.572 58.0147L415.511 58.0155L415.449 58.0162L415.387 58.017L415.325 58.0177L415.263 58.0185L415.201 58.0192L415.138 58.02L415.076 58.0208L415.014 58.0215L414.951 58.0223L414.889 58.023L414.826 58.0238L414.763 58.0246L414.701 58.0253L414.638 58.0261L414.575 58.0269L414.512 58.0276L414.448 58.0284L414.385 58.0292L414.322 58.0299L414.259 58.0307L414.195 58.0315L414.131 58.0323L414.068 58.033L414.004 58.0338L413.94 58.0346L413.876 58.0354L413.812 58.0362L413.748 58.0369L413.684 58.0377L413.62 58.0385L413.555 58.0393L413.491 58.0401L413.426 58.0409L413.362 58.0416L413.297 58.0424L413.232 58.0432L413.167 58.044L413.102 58.0448L413.037 58.0456L412.972 58.0464L412.907 58.0472L412.842 58.048L412.776 58.0488L412.711 58.0496L412.645 58.0504L412.579 58.0512L412.514 58.052L412.448 58.0528L412.382 58.0536L412.316 58.0544L412.25 58.0552L412.184 58.056L412.117 58.0568L412.051 58.0576L411.984 58.0584L411.918 58.0592L411.851 58.0601L411.784 58.0609L411.717 58.0617L411.651 58.0625L411.583 58.0633L411.516 58.0641L411.449 58.0649L411.382 58.0658L411.314 58.0666L411.247 58.0674L411.179 58.0682L411.112 58.0691L411.044 58.0699L410.976 58.0707L410.908 58.0715L410.84 58.0724L410.772 58.0732L410.704 58.074L410.635 58.0749L410.567 58.0757L410.498 58.0765L410.43 58.0774L410.361 58.0782L410.292 58.079L410.223 58.0799L410.154 58.0807L410.085 58.0816L410.016 58.0824L409.947 58.0832L409.877 58.0841L409.808 58.0849L409.738 58.0858L409.669 58.0866L409.599 58.0875L409.529 58.0883L409.459 58.0892L409.389 58.09L409.319 58.0909L409.249 58.0917L409.178 58.0926L409.108 58.0935L409.037 58.0943L408.967 58.0952L408.896 58.096L408.825 58.0969L408.754 58.0978L408.683 58.0986L408.612 58.0995L408.541 58.1004L408.469 58.1012L408.398 58.1021L408.327 58.103L408.255 58.1039L408.183 58.1047L408.111 58.1056L408.04 58.1065L407.968 58.1074L407.895 58.1082L407.823 58.1091L407.751 58.11L407.679 58.1109L407.606 58.1118L407.534 58.1126L407.461 58.1135L407.388 58.1144L407.315 58.1153L407.242 58.1162L407.169 58.1171L407.096 58.118L407.022 58.1189L406.949 58.1198L406.876 58.1207L406.802 58.1216L406.728 58.1224L406.654 58.1233L406.581 58.1243L406.506 58.1252L406.432 58.1261L406.358 58.127L406.284 58.1279L406.209 58.1288L406.135 58.1297L406.06 58.1306L405.986 58.1315L405.911 58.1324L405.836 58.1333L405.761 58.1342L405.686 58.1352L405.61 58.1361L405.535 58.137L405.459 58.1379L405.384 58.1388L405.308 58.1397L405.233 58.1407L405.157 58.1416L405.081 58.1425L405.005 58.1434L404.928 58.1444L404.852 58.1453L404.776 58.1462L404.699 58.1472L404.623 58.1481L404.546 58.149L404.469 58.15L404.392 58.1509L404.315 58.1518L404.238 58.1528L404.161 58.1537L404.083 58.1547L404.006 58.1556L403.928 58.1566L403.851 58.1575L403.773 58.1584L403.695 58.1594L403.617 58.1603L403.539 58.1613L403.461 58.1623L403.382 58.1632L403.304 58.1642L403.225 58.1651L403.147 58.1661L403.068 58.167L402.989 58.168L402.91 58.169L402.831 58.1699L402.752 58.1709L402.673 58.1719L402.593 58.1728L402.514 58.1738L402.434 58.1748C401.852 58.1818 401.592 58.2999 401.46 58.3957C401.332 58.4891 401.147 58.6905 400.978 59.221L400.977 59.2229C398.967 65.5051 395.499 70.062 390.338 72.9802L390.336 72.9815C388.739 73.8807 387.01 74.547 385.296 75.2038C384.531 75.4972 383.772 75.7931 383.016 76.1069C383.008 76.1949 382.999 76.3292 383 76.4596L383.125 86.5285C383.261 98.209 383.402 110.277 383.614 122.151C383.65 123.877 383.979 125.84 384.631 127.991L384.632 127.994C386.396 133.862 389.839 139.183 395.957 145.301C404.645 153.994 415.552 161.623 430.344 169.304L430.346 169.305C430.781 169.532 431.104 169.621 431.368 169.644L431.532 169.642C431.831 169.638 432.167 169.549 432.597 169.276C434.434 168.104 436.289 166.956 438.137 165.812C438.454 165.616 438.771 165.42 439.087 165.224ZM439.087 165.224L439.822 166.392" stroke="#333336" stroke-width="2"/><path d="M430.499 56.6885L431.806 170.448" stroke="#333336" stroke-width="2" stroke-miterlimit="10"/><path d="M431 169.644L431.164 169.642C431.463 169.638 431.799 169.549 432.229 169.276C434.062 168.107 435.912 166.962 437.756 165.82L437.769 165.812L438.041 165.644C438.267 165.504 438.493 165.364 438.719 165.224L439.145 164.96C443.391 162.33 447.727 159.645 451.837 156.765C460.106 150.975 466.53 144.768 471.512 137.787C476.021 131.472 478.081 124.97 477.869 117.841C477.587 108.344 477.5 98.6877 477.416 89.335L477.416 89.3287L477.408 88.3856C477.373 84.2936 477.339 80.205 477.288 76.1169L477.27 74.6694L477.188 74.6415L477.164 74.6335L477.141 74.6248C476.951 74.5534 476.844 74.5233 476.767 74.5082L476.753 74.5057C472.39 73.6189 468.696 71.8501 465.685 69.1314C462.679 66.4178 460.423 62.8205 458.834 58.3752C458.623 57.7874 458.373 57.6525 458.247 57.5986L430.5 58L431 169.644Z" fill="#CCEDFE"/><path d="M438.719 165.224L439.145 164.96C443.391 162.33 447.727 159.645 451.837 156.765C460.106 150.975 466.53 144.768 471.512 137.787C476.021 131.472 478.081 124.97 477.869 117.841C477.587 108.341 477.5 98.6834 477.416 89.3287L477.408 88.3856C477.373 84.2936 477.339 80.205 477.288 76.1169L477.27 74.6694L477.188 74.6415L477.164 74.6335L477.141 74.6248C476.951 74.5534 476.844 74.5233 476.767 74.5082L476.753 74.5057C472.39 73.6189 468.696 71.8501 465.685 69.1314C462.679 66.4178 460.423 62.8205 458.834 58.3752C458.623 57.7874 458.373 57.6525 458.247 57.5986L430.5 58L431 169.644L431.164 169.642C431.463 169.638 431.799 169.549 432.229 169.276C434.066 168.104 435.921 166.956 437.769 165.812C438.086 165.616 438.403 165.42 438.719 165.224ZM438.719 165.224L439.454 166.392" stroke="#333336" stroke-width="2"/><g clip-path="url(#a)"><path d="M197.194 185.406H59.0252C48.3879 185.406 39.7646 194.077 39.7646 204.773C39.7646 215.469 48.3879 224.139 59.0252 224.139H197.194C207.831 224.139 216.455 215.469 216.455 204.773C216.455 194.077 207.831 185.406 197.194 185.406Z" fill="#F8F6F4" stroke="#333336" stroke-width="2" stroke-linecap="round" stroke-linejoin="round"/><path d="M77.5057 198.011 72.9727 204.008V204.104L80.1781 203.145V206.407L72.9727 205.544V205.64L77.5535 211.397 74.5474 213.124 71.6847 206.407H71.5892L68.4876 213.172 65.7682 211.445 70.301 205.592V205.496L63.239 206.407V203.145L70.2533 204.056V203.96L65.7682 198.107 68.6786 196.428 71.6369 203.097H71.7324L74.643 196.38 77.5057 198.011ZM99.9974 198.011 95.4644 204.008V204.104L102.67 203.145V206.407L95.4644 205.544V205.64L100.045 211.397 97.0391 213.124 94.1764 206.407H94.0809L90.9793 213.172 88.2599 211.445 92.7927 205.592V205.496L85.7307 206.407V203.145L92.745 204.056V203.96L88.2599 198.107 91.1703 196.428 94.1286 203.097H94.2241L97.1347 196.38 99.9974 198.011ZM122.473 198.011 117.94 204.008V204.104L125.146 203.145V206.407L117.94 205.544V205.64L122.521 211.397 119.515 213.124 116.652 206.407H116.557L113.455 213.172 110.736 211.445 115.269 205.592V205.496L108.207 206.407V203.145L115.221 204.056V203.96L110.736 198.107 113.646 196.428 116.605 203.097H116.7L119.611 196.38 122.473 198.011ZM141.23 200.862C141.23 201.602 141.02 202.244 140.599 202.788 140.179 203.332 139.533 203.853 138.661 204.351 139.698 204.819 140.487 205.408 141.027 206.118 141.583 206.828 141.861 207.644 141.861 208.565 141.861 209.411 141.636 210.181 141.185 210.876 140.749 211.556 140.111 212.092 139.27 212.485 138.444 212.878 137.467 213.074 136.341 213.074 135.199 213.074 134.215 212.878 133.389 212.485 132.578 212.092 131.962 211.563 131.541 210.899 131.12 210.219 130.91 209.464 130.91 208.633 130.91 206.851 131.917 205.507 133.929 204.6 133.088 204.162 132.48 203.671 132.104 203.128 131.729 202.569 131.541 201.859 131.541 200.998 131.541 200.107 131.766 199.352 132.217 198.732 132.683 198.098 133.284 197.622 134.02 197.305 134.771 196.988 135.559 196.829 136.386 196.829 137.272 196.829 138.075 196.988 138.797 197.305 139.533 197.607 140.119 198.06 140.554 198.664 141.005 199.269 141.23 200.001 141.23 200.862ZM133.975 201.021C133.975 201.519 134.087 201.927 134.313 202.244 134.538 202.561 134.853 202.826 135.259 203.037 135.665 203.233 136.228 203.46 136.949 203.717 137.61 203.309 138.083 202.901 138.368 202.493 138.654 202.085 138.797 201.587 138.797 200.998 138.797 200.288 138.586 199.729 138.166 199.321 137.745 198.898 137.152 198.687 136.386 198.687 135.62 198.687 135.026 198.891 134.605 199.299 134.185 199.706 133.975 200.281 133.975 201.021ZM139.27 208.588C139.27 207.984 139.127 207.493 138.842 207.115 138.556 206.723 138.166 206.405 137.67 206.164 137.189 205.922 136.483 205.635 135.552 205.303 134.185 206.013 133.501 207.093 133.501 208.543 133.501 209.358 133.742 210 134.222 210.468 134.718 210.922 135.432 211.148 136.363 211.148 137.294 211.148 138.008 210.914 138.504 210.446 139.014 209.962 139.27 209.343 139.27 208.588ZM156.994 200.862C156.994 201.602 156.784 202.244 156.363 202.788 155.943 203.332 155.297 203.853 154.426 204.351 155.462 204.819 156.251 205.408 156.791 206.118 157.347 206.828 157.625 207.644 157.625 208.565 157.625 209.411 157.4 210.181 156.949 210.876 156.514 211.556 155.875 212.092 155.034 212.485 154.208 212.878 153.231 213.074 152.105 213.074 150.963 213.074 149.979 212.878 149.153 212.485 148.342 212.092 147.726 211.563 147.305 210.899 146.885 210.219 146.674 209.464 146.674 208.633 146.674 206.851 147.681 205.507 149.694 204.6 148.852 204.162 148.244 203.671 147.868 203.128 147.493 202.569 147.305 201.859 147.305 200.998 147.305 200.107 147.53 199.352 147.981 198.732 148.447 198.098 149.048 197.622 149.784 197.305 150.535 196.988 151.324 196.829 152.15 196.829 153.036 196.829 153.84 196.988 154.561 197.305 155.297 197.607 155.883 198.06 156.318 198.664 156.769 199.269 156.994 200.001 156.994 200.862ZM149.739 201.021C149.739 201.519 149.851 201.927 150.077 202.244 150.302 202.561 150.618 202.826 151.023 203.037 151.429 203.233 151.992 203.46 152.713 203.717 153.374 203.309 153.847 202.901 154.133 202.493 154.418 202.085 154.561 201.587 154.561 200.998 154.561 200.288 154.35 199.729 153.93 199.321 153.509 198.898 152.916 198.687 152.15 198.687 151.384 198.687 150.79 198.891 150.37 199.299 149.949 199.706 149.739 200.281 149.739 201.021ZM155.034 208.588C155.034 207.984 154.891 207.493 154.606 207.115 154.32 206.723 153.93 206.405 153.434 206.164 152.953 205.922 152.247 205.635 151.316 205.303 149.949 206.013 149.266 207.093 149.266 208.543 149.266 209.358 149.506 210 149.987 210.468 150.482 210.922 151.196 211.148 152.127 211.148 153.059 211.148 153.772 210.914 154.268 210.446 154.779 209.962 155.034 209.343 155.034 208.588ZM167.238 196.829C168.244 196.829 169.123 197.01 169.874 197.373 170.625 197.72 171.204 198.196 171.609 198.8 172.015 199.404 172.218 200.069 172.218 200.794 172.218 201.731 171.925 202.524 171.339 203.173 170.768 203.822 170.032 204.253 169.131 204.464 170.182 204.57 171.038 204.948 171.699 205.597 172.375 206.247 172.713 207.153 172.713 208.316 172.713 209.207 172.481 210.015 172.015 210.74 171.549 211.465 170.888 212.039 170.032 212.462 169.176 212.87 168.192 213.074 167.08 213.074 166.074 213.074 165.127 212.893 164.241 212.53 163.355 212.153 162.619 211.609 162.033 210.899L163.588 209.54C164.008 210.053 164.511 210.438 165.097 210.695 165.683 210.952 166.299 211.08 166.945 211.08 167.921 211.08 168.688 210.823 169.243 210.31 169.814 209.796 170.1 209.101 170.1 208.225 170.1 206.398 169.093 205.484 167.08 205.484H165.751L166.044 203.626H166.99C167.771 203.626 168.417 203.415 168.928 202.992 169.454 202.569 169.717 201.957 169.717 201.156 169.717 200.416 169.469 199.842 168.973 199.435 168.477 199.012 167.831 198.8 167.035 198.8 166.404 198.8 165.833 198.914 165.323 199.14 164.812 199.367 164.309 199.722 163.813 200.205L162.483 198.755C163.805 197.471 165.39 196.829 167.238 196.829ZM184.602 202.493C185.428 202.493 186.172 202.682 186.832 203.06 187.494 203.437 188.02 204.004 188.411 204.759 188.8 205.514 188.996 206.428 188.996 207.5 188.996 208.603 188.77 209.577 188.32 210.423 187.884 211.269 187.276 211.926 186.494 212.394 185.728 212.847 184.849 213.074 183.858 213.074 181.995 213.074 180.629 212.402 179.757 211.058 178.886 209.698 178.45 207.848 178.45 205.507 178.45 203.77 178.691 202.252 179.171 200.953 179.668 199.639 180.38 198.627 181.312 197.917 182.243 197.192 183.34 196.829 184.602 196.829 185.788 196.829 186.855 197.146 187.802 197.781L186.832 199.412C186.141 198.974 185.398 198.755 184.602 198.755 183.551 198.755 182.71 199.253 182.078 200.25 181.448 201.232 181.101 202.591 181.042 204.329 181.958 203.105 183.145 202.493 184.602 202.493ZM183.881 211.148C184.722 211.148 185.361 210.831 185.796 210.197 186.232 209.562 186.449 208.701 186.449 207.614 186.449 205.454 185.661 204.374 184.084 204.374 183.483 204.374 182.919 204.54 182.393 204.872 181.883 205.189 181.44 205.635 181.065 206.209 181.095 207.916 181.327 209.169 181.763 209.97 182.198 210.756 182.904 211.148 183.881 211.148Z" fill="#333336"/><path d="M223.212 159.54C222.97 159.12 222.524 158.86 222.041 158.86C221.556 158.86 221.11 159.12 220.868 159.54L198.112 199.171C197.872 199.592 197.872 200.11 198.112 200.531C198.355 200.952 198.801 201.211 199.284 201.211H244.796C245.279 201.211 245.725 200.952 245.968 200.531C246.208 200.11 246.208 199.592 245.968 199.171L223.212 159.54Z" fill="#FFEA80" stroke="#333336" stroke-width="2" stroke-linejoin="round"/><path d="M223.675 172.864L223.345 187.369H220.695L220.332 172.864H223.675ZM222.035 190.619C222.676 190.619 223.212 190.836 223.643 191.269C224.075 191.702 224.29 192.225 224.29 192.838C224.29 193.462 224.075 193.995 223.643 194.439C223.212 194.883 222.676 195.105 222.035 195.105C221.416 195.105 220.89 194.883 220.46 194.439C220.039 193.995 219.828 193.462 219.828 192.838C219.828 192.225 220.039 191.702 220.46 191.269C220.89 190.836 221.416 190.619 222.035 190.619Z" fill="#333336"/></g><defs><clipPath id="a"><path fill="#fff" transform="translate(38 157.5)" d="M0 0H211V68H0z"/></clipPath></defs></svg>
