<svg width="107" height="100" fill="none" xmlns="http://www.w3.org/2000/svg"><path d="M39.5188 89.4108L39.3914 89.4124C39.1855 89.3947 38.9337 89.3245 38.595 89.1465L38.5934 89.1457C27.0692 83.1145 18.5724 77.1249 11.8036 70.2996C7.03715 65.4961 4.35471 61.3183 2.98052 56.7114L2.97982 56.7091C2.47217 55.0202 2.21592 53.4792 2.18756 52.1243C2.02275 42.8015 1.91271 33.3263 1.80643 24.1555L1.70938 16.2501C1.70812 16.1477 1.71509 16.0423 1.72157 15.9732C2.31028 15.7268 2.90226 15.4945 3.49797 15.2641C4.83365 14.7484 6.1803 14.2253 7.42434 13.5194L7.42616 13.5183C11.4468 11.2271 14.1487 7.64936 15.7149 2.71696L15.7153 2.71549C15.847 2.29897 15.9908 2.1408 16.0909 2.0675C16.1936 1.9923 16.3966 1.8996 16.8498 1.89403L16.9117 1.89328L16.9737 1.89251L17.0356 1.89175L17.0974 1.891L17.1591 1.89024L17.2207 1.88948L17.2822 1.88873L17.3436 1.88797L17.405 1.88722L17.4663 1.88646L17.5274 1.88572L17.5885 1.88496L17.6495 1.88422L17.7105 1.88347L17.7714 1.88272L17.8321 1.88197L17.8928 1.88123L17.9534 1.88048L18.0138 1.87974L18.0743 1.87901L18.1346 1.87826L18.1949 1.87752L18.2551 1.87679L18.3152 1.87604L18.3752 1.87531L18.4351 1.87458L18.495 1.87383L18.5548 1.8731L18.6144 1.87237L18.6741 1.87164L18.7336 1.8709L18.793 1.87018L18.8523 1.86945L18.9116 1.86872L18.9708 1.868L19.03 1.86728L19.0889 1.86654L19.1479 1.86582L19.2067 1.8651L19.2656 1.86438L19.3243 1.86366L19.3829 1.86294L19.4414 1.86222L19.4999 1.8615L19.5582 1.86079L19.6166 1.86007L19.6748 1.85936L19.7329 1.85864L19.791 1.85793L19.8489 1.85722L19.9068 1.85651L19.9648 1.8558L20.0224 1.85509L20.0801 1.85438L20.1377 1.85367L20.1952 1.85296L20.2527 1.85226L20.31 1.85155L20.3672 1.85086L20.4244 1.85015L20.4815 1.84945L20.5386 1.84875L20.5955 1.84805L20.6524 1.84736L20.7092 1.84666L20.7659 1.84596L20.8225 1.84526L20.8791 1.84457L20.9356 1.84388L20.992 1.84318L21.0482 1.8425L21.1045 1.8418L21.1607 1.84111L21.2168 1.84043L21.2728 1.83974L21.3288 1.83905L21.3846 1.83837L21.4405 1.83768L21.4962 1.837L21.5517 1.83631L21.6073 1.83562L21.6628 1.83495L21.7182 1.83426L21.7735 1.83359L21.8288 1.83291L21.8839 1.83223L21.9391 1.83155L21.9941 1.83088L22.0491 1.83021L22.1039 1.82953L22.1587 1.82886L22.2135 1.82819L22.2681 1.82752L22.3227 1.82684L22.3772 1.82618L22.4316 1.82551L22.4859 1.82484L22.5402 1.82418L22.5944 1.82351L22.6485 1.82284L22.7025 1.82218L22.7565 1.82152L22.8105 1.82086L22.8643 1.82019L22.918 1.81954L22.9717 1.81888L23.0253 1.81822L23.0788 1.81757L23.1323 1.8169L23.1857 1.81625L23.2389 1.8156L23.2922 1.81495L23.3455 1.81429L23.3985 1.81364L23.4515 1.81298L23.5044 1.81233L23.5573 1.81169L23.6101 1.81104L23.6629 1.81039L23.7156 1.80975L23.7681 1.8091L23.8207 1.80846L23.8731 1.80781L23.9255 1.80717L23.9778 1.80653L24.03 1.80589L24.0821 1.80525L24.1342 1.80461L24.1863 1.80397L24.2381 1.80333L24.2901 1.80269L24.3418 1.80205L24.3936 1.80143L24.4452 1.80079L24.4969 1.80016L24.5484 1.79952L24.5998 1.79889L24.6512 1.79826L24.7025 1.79764L24.7537 1.79701L24.8049 1.79637L24.856 1.79575L24.9071 1.79512L24.958 1.7945L25.0089 1.79387L25.0598 1.79324L25.1105 1.79262L25.1612 1.792L25.2117 1.79138L25.2623 1.79076L25.3128 1.79014L25.3632 1.78952L25.4136 1.7889L25.4638 1.78829L25.5141 1.78767L25.5642 1.78705L25.6143 1.78644L25.6643 1.78582L25.7142 1.78522L25.7641 1.7846L25.8138 1.78398L25.8636 1.78338L25.9132 1.78276L25.9628 1.78216L26.0123 1.78155L26.0618 1.78094L26.1112 1.78033L26.1606 1.77973L26.2098 1.77912L26.2589 1.77852L26.3081 1.77791L26.3572 1.77732L26.4062 1.77672L26.4551 1.77611L26.5039 1.77552L26.5528 1.77491L26.6015 1.77432L26.6501 1.77372L26.6987 1.77312L26.7473 1.77253L26.7958 1.77194L26.8442 1.77133L26.8925 1.77074L26.9408 1.77015L26.9889 1.76957L27.0372 1.76897L27.0852 1.76838L27.1332 1.76779L27.1812 1.7672L27.2291 1.76661L27.2768 1.76603L27.3246 1.76544L27.3723 1.76486L27.42 1.76427L27.4675 1.76368L27.5151 1.7631L27.5625 1.76252L27.6099 1.76194L27.6572 1.76136L27.7044 1.76077L27.7516 1.76019L27.7987 1.75962L27.8458 1.75904L27.8928 1.75846L27.9398 1.75789L27.9866 1.75731L28.0335 1.75674L28.0802 1.75617L28.1269 1.75559L28.1735 1.75502L28.2201 1.75445L28.2665 1.75388L28.313 1.75331L28.3594 1.75274L28.4057 1.75217L28.452 1.7516L28.4981 1.75103L28.5443 1.75047L28.5903 1.7499L28.6364 1.74933L28.6823 1.74877L28.7282 1.7482L28.7741 1.74765L28.8198 1.74709L28.8655 1.74652L28.9112 1.74596L28.9567 1.7454L29.0022 1.74484L29.0477 1.74429L29.0931 1.74373L29.1385 1.74317L29.1837 1.74261L29.2289 1.74207L29.2742 1.74151L29.3193 1.74095L29.3643 1.7404L29.4093 1.73984L29.4543 1.7393L29.4991 1.73874L29.5439 1.73819L29.5887 1.73765L29.6334 1.7371L29.678 1.73655L29.7225 1.736L29.7671 1.73545L29.8116 1.73491L29.856 1.73437L29.9003 1.73382L29.9446 1.73327L29.9888 1.73273L30.033 1.73219L30.0772 1.73165L30.1213 1.73111L30.1652 1.73057L30.2092 1.73003L30.253 1.72948L30.2969 1.72895L30.3407 1.72841L30.3844 1.72788L30.428 1.72734L30.4716 1.72681L30.5152 1.72627L30.5587 1.72574L30.6022 1.7252L30.6456 1.72467L30.6888 1.72414L30.7322 1.72361L30.7753 1.72308L30.8185 1.72254L30.8616 1.72202L30.9046 1.72148L30.9477 1.72096L30.9906 1.72044L31.0335 1.7199L31.0764 1.71938L31.1191 1.71886L31.1619 1.71833L31.2045 1.71781L31.2471 1.71729L31.2896 1.71676L31.3322 1.71624L31.3746 1.71572L31.417 1.7152L31.4594 1.71468L31.5016 1.71416L31.5438 1.71365L31.586 1.71312L31.6282 1.71261L31.6702 1.71209L31.7123 1.71158L31.7543 1.71105L31.7962 1.71054L31.838 1.71003L31.8799 1.70952L31.9216 1.70901L31.9634 1.7085L32.005 1.70798L32.0466 1.70747L32.0881 1.70696L32.1296 1.70645L32.171 1.70594L32.2124 1.70544L32.2538 1.70493L32.2951 1.70441L32.3364 1.70391L32.3776 1.7034L32.4187 1.7029L32.4598 1.7024L32.5008 1.70189L32.5417 1.70139L32.5827 1.70089L32.6236 1.70039L32.6644 1.69989L32.7052 1.69939L32.7459 1.69889L32.7866 1.69839L32.8272 1.69789L32.8678 1.69739L32.9084 1.69689L32.9488 1.69639L32.9893 1.6959L33.0296 1.6954L33.07 1.6949L33.1102 1.69441L33.1505 1.69391L33.1907 1.69343L33.2308 1.69294L33.2709 1.69244L33.3109 1.69195L33.3509 1.69146L33.3909 1.69097L33.4308 1.69047L33.4706 1.68998L33.5105 1.6895L33.5501 1.68901L33.5899 1.68853L33.6295 1.68804L33.6691 1.68755L33.7087 1.68707L33.7481 1.68658L33.7877 1.6861L33.8271 1.68561L33.8664 1.68514L33.9058 1.68465L33.945 1.68417L33.9843 1.68368L34.0235 1.6832L34.0625 1.68272L34.1016 1.68224L34.1407 1.68176L34.1796 1.68129L34.2186 1.68081L34.2575 1.68033L34.2964 1.67986L34.3352 1.67938L34.3739 1.6789L34.4127 1.67843L34.4514 1.67795L34.49 1.67747L34.5286 1.677L34.5671 1.67653L34.6056 1.67605L34.6441 1.67559L34.6824 1.67511L34.7208 1.67464L34.7592 1.67417L34.7974 1.6737L34.8357 1.67323L34.8738 1.67276L34.912 1.6723L34.95 1.67182L34.9881 1.67136L35.0262 1.67089L35.0641 1.67043L35.102 1.66996L35.1399 1.6695L35.1777 1.66903L35.2155 1.66857L35.2533 1.6681L35.2909 1.66765L35.3286 1.66718L35.3662 1.66672L35.4038 1.66625L35.4413 1.6658L35.4788 1.66533L35.5163 1.66488L35.5536 1.66441L35.591 1.66396L35.6284 1.6635L35.6656 1.66304L35.7028 1.66259L35.74 1.66212L35.7772 1.66167L35.8143 1.66122L35.8514 1.66076L35.8884 1.66031L35.9253 1.65986L35.9623 1.6594L35.9993 1.65895L36.0362 1.6585L36.0729 1.65804L36.1098 1.65759L36.1465 1.65713L36.1831 1.65669L36.2199 1.65624L36.2565 1.65579L36.293 1.65534L36.3295 1.65489L36.366 1.65444L36.4025 1.654L36.4389 1.65354L36.4753 1.6531L36.5117 1.65266L36.548 1.6522L36.5843 1.65176L36.6205 1.65132L36.6567 1.65088L36.6928 1.65043L36.7289 1.64998L36.765 1.64954L36.801 1.6491L36.8371 1.64866L36.873 1.64822L36.9089 1.64777L36.9448 1.64733L36.9807 1.6469L37.0165 1.64646L37.0522 1.64602L37.088 1.64558L37.1237 1.64515L37.1593 1.6447L37.195 1.64426L37.2306 1.64383L37.266 1.64339L37.3016 1.64296L37.3371 1.64252L37.3724 1.64209L37.4079 1.64166L37.4432 1.64122L37.4786 1.64079L37.5138 1.64036L37.5491 1.63991L37.5843 1.63948L37.6195 1.63905L37.6546 1.63862L37.6898 1.63819L37.7249 1.63776L37.7599 1.63733L37.7949 1.6369L37.8299 1.63647L37.8648 1.63604L37.8996 1.63561L37.9345 1.63518L37.9694 1.63476L38.0042 1.63433L38.0389 1.6339L38.0737 1.63348L38.1084 1.63305L38.143 1.63262L38.1777 1.6322L38.2122 1.63177L38.2467 1.63136L38.2813 1.63093L38.3158 1.63051L38.3502 1.63009L38.3846 1.62966L38.4191 1.62924L38.4535 1.62882L38.4878 1.62839L38.5221 1.62797L38.5563 1.62755L38.5905 1.62713L38.6248 1.62672L38.6588 1.6263L38.693 1.62588L38.7271 1.62546L38.7612 1.62504L38.7952 1.62462L38.8292 1.6242L38.8631 1.62379L38.8971 1.62337L38.9309 1.62295L38.9649 1.62254L38.9987 1.62212L39.0326 1.6217L39.0663 1.6213L39.1 1.62088L39.1337 1.62046L39.1674 1.62005L39.201 1.61963L39.2348 1.61923L39.2682 1.61881L39.3019 1.6184L39.3353 1.61798L39.3689 1.61758L39.4023 1.61717L39.4358 1.61675L39.4692 1.61634L39.5026 1.61594L39.5359 1.61553L39.5693 1.61512L39.6026 1.6147L39.6358 1.6143L39.6691 1.61389L39.7023 1.61348L39.7355 1.61308L39.7686 1.61267L39.8017 1.61226L39.8349 1.61186L39.8679 1.61145L39.9009 1.61104L39.934 1.61065L50.5407 1.48043L50.5574 1.48023L50.5741 1.48002L50.5908 1.47981L50.6074 1.47961L50.6242 1.4794L50.6408 1.47919L50.6576 1.479L50.6743 1.47879L50.6909 1.47858L50.7077 1.47838L50.7244 1.47817L50.7412 1.47797L50.7579 1.47776L50.7745 1.47755L50.7913 1.47736L50.808 1.47715L50.8248 1.47694L50.8415 1.47674L50.8583 1.47653L50.875 1.47632L50.8917 1.47611L50.9085 1.47591L50.9254 1.4757L50.9421 1.47549L50.9588 1.4753L50.9756 1.47509L50.9923 1.47488L51.0092 1.47468L51.0259 1.47447L51.0427 1.47426L51.0595 1.47405L51.0763 1.47386L51.0931 1.47365L51.1099 1.47344L51.1267 1.47323L51.1435 1.47303L51.1603 1.47282L51.1772 1.47261L51.194 1.4724L51.2108 1.4722L51.2277 1.47199L51.2445 1.47179L51.2613 1.47158L51.2781 1.47138L51.295 1.47117L51.3119 1.47096L51.3287 1.47075L51.3456 1.47054L51.3624 1.47034L51.3793 1.47013L51.3962 1.46993L51.413 1.46972L51.43 1.46951L51.4469 1.4693L51.4637 1.4691L51.4806 1.46889L51.4976 1.46868L51.5144 1.46847L51.5313 1.46826L51.5483 1.46805L51.5651 1.46786L51.5821 1.46765L51.5991 1.46744L51.6159 1.46723L51.6329 1.46702L51.6498 1.46681L51.6667 1.4666L51.6837 1.46639L51.7007 1.46618L51.7177 1.46598L51.7345 1.46577L51.7515 1.46556L51.7685 1.46536L51.7855 1.46515L51.8024 1.46494L51.8194 1.46473L51.8365 1.46452L51.8535 1.46431L51.8705 1.4641L51.8874 1.46389L51.9044 1.46368L51.9215 1.46347L51.9385 1.46326L51.9556 1.46305L51.9726 1.46284L51.9897 1.46263L52.0066 1.46243L52.0237 1.46222L52.0407 1.46201L52.0578 1.4618L52.0749 1.46159L52.0919 1.46138L52.109 1.46117L52.126 1.46096L52.1431 1.46075L52.1602 1.46054L52.1773 1.46033L52.1944 1.46012L52.2115 1.45991L52.2286 1.4597L52.2457 1.45949L52.2628 1.45929L52.28 1.45908L52.2971 1.45887L52.3142 1.45866L52.3314 1.45845L52.3485 1.45824L52.3657 1.45802L52.3828 1.45781L52.4 1.4576L52.4171 1.45739L52.4343 1.45718L52.4515 1.45697L52.4686 1.45676L52.4858 1.45655L52.503 1.45633L52.5202 1.45612L52.5374 1.45591L52.5546 1.4557L52.5719 1.45549L52.5891 1.45529L52.6063 1.45506L52.6235 1.45486L52.6408 1.45465L52.658 1.45444L52.6752 1.45423L52.6926 1.45401L52.7098 1.4538L52.7271 1.45359L52.7443 1.45338L52.7616 1.45316L52.7788 1.45295L52.7962 1.45274L52.8135 1.45253L52.8307 1.45231L52.848 1.4521L52.8653 1.45189L52.8827 1.45168L52.9 1.45146L52.9173 1.45125L52.9347 1.45104L52.952 1.45082L52.9694 1.45061L52.9867 1.4504L53.0041 1.45018L53.0214 1.44997L53.0388 1.44976L53.0562 1.44954L53.0736 1.44933L53.0909 1.44912L53.1084 1.4489L53.1258 1.44869L53.1431 1.44847L53.1606 1.44826L53.178 1.44805L53.1955 1.44783L53.2129 1.44762L53.2304 1.4474L53.2478 1.44719L53.2652 1.44698L53.2827 1.44676L53.3001 1.44655L53.3177 1.44633L53.3351 1.44612L53.3526 1.4459L53.3701 1.44569L53.3876 1.44547L53.4051 1.44526L53.4226 1.44504L53.4401 1.44483L53.4577 1.44461L53.4752 1.4444L53.4927 1.44418L53.5102 1.44397L53.5278 1.44375L53.5453 1.44354L53.5629 1.44332L53.5805 1.44311L53.5981 1.44289L53.6157 1.44268L53.6333 1.44246L53.6508 1.44225L53.6685 1.44203L53.686 1.44181L53.7037 1.4416L53.7213 1.44138L53.739 1.44116L53.7566 1.44095L53.7742 1.44073L53.7919 1.44052L53.8095 1.4403L53.8272 1.44008L53.8449 1.43987L53.8626 1.43965L53.8802 1.43943L53.8979 1.43922L53.9157 1.43899L53.9334 1.43877L53.951 1.43856L53.9688 1.43834L53.9865 1.43812L54.0043 1.4379L54.022 1.43769L54.0398 1.43747L54.0576 1.43725L54.0753 1.43703L54.0931 1.43682L54.1108 1.4366L54.1286 1.43638L54.1464 1.43616L54.1643 1.43594L54.1821 1.43573L54.1999 1.43551L54.2177 1.43529L54.2356 1.43506L54.2534 1.43484L54.2713 1.43463L54.2891 1.43441L54.307 1.43419L54.3248 1.43397L54.3427 1.43375L54.3606 1.43353L54.3785 1.43331L54.3964 1.43309L54.4143 1.43288L54.4322 1.43266L54.4501 1.43244L54.468 1.43222L54.486 1.43199L54.504 1.43177L54.5219 1.43155L54.5399 1.43133L54.5578 1.43111L54.5758 1.43089L54.5938 1.43067L54.6117 1.43045L54.6298 1.43023L54.6478 1.43001L54.6658 1.42979L54.6838 1.42956L54.7019 1.42934L54.7199 1.42912L54.7379 1.4289L54.756 1.42868L54.7741 1.42846L54.7921 1.42824L54.8102 1.42801L54.8284 1.42779L54.8464 1.42756L54.8645 1.42734L54.8827 1.42712L54.9007 1.4269L54.9188 1.42668L54.937 1.42646L54.9551 1.42623L54.9734 1.42601L54.9915 1.42579L55.0097 1.42556L55.0278 1.42534L55.046 1.42512L55.0642 1.42489L55.0824 1.42467L55.1006 1.42445L55.1188 1.42423L55.1371 1.42399L55.1554 1.42377L55.1736 1.42355L55.1917 1.42333L55.2101 1.4231L55.2284 1.42288L55.2466 1.42266L55.2649 1.42243L55.2831 1.4222L55.3015 1.42198L55.3198 1.42175L55.3381 1.42153L55.3565 1.42131L55.3748 1.42108L55.3931 1.42086L55.4115 1.42063L55.4299 1.4204L55.4483 1.42018L55.4666 1.41995L55.485 1.41973L55.5034 1.41951L55.5219 1.41927L55.5402 1.41905L55.5587 1.41882L55.5771 1.4186L55.5956 1.41837L55.614 1.41815L55.6324 1.41791L55.6509 1.41769L55.6694 1.41746L55.6879 1.41724L55.7064 1.41701L55.7249 1.41679L55.7434 1.41655L55.762 1.41633L55.7805 1.4161L55.7991 1.41588L55.8176 1.41565L55.8362 1.41541L55.8547 1.41519L55.8733 1.41496L55.8919 1.41474L55.9105 1.41451L55.9291 1.41427L55.9477 1.41405L55.9663 1.41382L55.9849 1.41359L56.0036 1.41337L56.0222 1.41313L56.0409 1.4129L56.0595 1.41267L56.0783 1.41245L56.097 1.41222L56.1156 1.41198L56.1343 1.41175L56.153 1.41153L56.1717 1.4113L56.1906 1.41106L56.2093 1.41083L56.228 1.41061L56.2467 1.41038L56.2656 1.41015L56.2843 1.40991L56.3031 1.40968L56.322 1.40945L56.3408 1.40923L56.3595 1.40899L56.3784 1.40876L56.3972 1.40853L56.4162 1.4083L56.435 1.40806L56.4538 1.40783L56.4727 1.4076L56.4916 1.40737L56.5105 1.40713L56.5294 1.4069L56.5484 1.40667L56.5673 1.40644L56.5863 1.4062L56.6051 1.40597L56.6242 1.40574L56.6431 1.40551L56.6621 1.40527L56.681 1.40504L56.7001 1.40481L56.7191 1.40458L56.7381 1.40434L56.7571 1.40411L56.7762 1.40388L56.7952 1.40365L56.8143 1.40341L56.8334 1.40318L56.8524 1.40294L56.8715 1.4027L56.8906 1.40247L56.9098 1.40224L56.9288 1.40201L56.948 1.40176L56.9671 1.40153L56.9863 1.4013L57.0055 1.40106L57.0247 1.40083L57.0438 1.40059L57.063 1.40036L57.0822 1.40012L57.1014 1.39989L57.1206 1.39965L57.1399 1.39941L57.1591 1.39918L57.1784 1.39894L57.1977 1.3987L57.2169 1.39847L57.2362 1.39823L57.2555 1.39799L57.2748 1.39775L57.2941 1.39752L57.3135 1.39729L57.3328 1.39704L57.3521 1.39681L57.3715 1.39656L57.3908 1.39633L57.4102 1.39609L57.4297 1.39586L57.4491 1.39561L57.4685 1.39538L57.4879 1.39513L57.5073 1.3949L57.5267 1.39466L57.5462 1.39442L57.5657 1.39418L57.5851 1.39395L57.6047 1.3937L57.6242 1.39347L57.6437 1.39323L57.6631 1.39298L57.6827 1.39275L57.7023 1.39251L57.7219 1.39226L57.7414 1.39203L57.7609 1.39179L57.7806 1.39154L57.8001 1.39131L57.8198 1.39106L57.8394 1.39082L57.8591 1.39059L57.8787 1.39034L57.8984 1.3901L57.918 1.38986L57.9377 1.38962L57.9573 1.38938L57.9771 1.38913L57.9967 1.38889L58.0165 1.38865L58.0363 1.38841L58.0559 1.38817L58.0757 1.38792L58.0955 1.38768L58.1152 1.38744L58.1351 1.38719L58.1549 1.38695L58.1747 1.3867L58.1945 1.38646L58.2143 1.38622L58.2342 1.38598L58.2541 1.38574L58.274 1.38549L58.2938 1.38525L58.3137 1.38501L58.3336 1.38476L58.3535 1.38452L58.3735 1.38426L58.3934 1.38402L58.4134 1.38377L58.4334 1.38353L58.4533 1.38329L58.4733 1.38304L58.4933 1.3828L58.5133 1.38255L58.5333 1.38231L58.5534 1.38206L58.5734 1.38181L58.5935 1.38156L58.6135 1.38132L58.6336 1.38108L58.6537 1.38083L58.6738 1.38058L58.694 1.38033L58.7141 1.38009L58.7342 1.37984L58.7543 1.37959L58.7745 1.37934L58.7947 1.3791L58.8149 1.37884L58.8351 1.3786L58.8554 1.37836L58.8756 1.3781L58.8958 1.37786L58.916 1.37761L58.9363 1.37736L58.9565 1.37711L58.9769 1.37686L58.9971 1.37661L59.0174 1.37637L59.0378 1.37611L59.0581 1.37587L59.0785 1.37561L59.0988 1.37537L59.1192 1.37511L59.1395 1.37487L59.16 1.37461L59.1804 1.37437L59.2008 1.37411L59.2213 1.37386L59.2417 1.37361L59.2621 1.37336L59.2827 1.37311L59.3031 1.37286L59.3236 1.3726L59.3441 1.37236L59.3647 1.3721L59.3851 1.37184L59.4057 1.3716L59.4263 1.37134L59.4469 1.37109L59.4674 1.37083L59.488 1.37059L59.5086 1.37033L59.5293 1.37008L59.5499 1.36982L59.5706 1.36958L59.5912 1.36932L59.6119 1.36906L59.6326 1.36881L59.6533 1.36855L59.674 1.3683L59.6948 1.36805L59.7155 1.3678L59.7362 1.36754L59.757 1.36729L59.7778 1.36703L59.7985 1.36677L59.8193 1.36652L59.8401 1.36626L59.861 1.36601L59.8819 1.36575L59.9027 1.36549L59.9236 1.36524L59.9444 1.36498C60.2616 1.36109 60.4551 1.37099 60.619 1.44165C60.7169 1.48393 60.9113 1.58983 61.0764 2.05136C62.3141 5.54149 64.0718 8.36584 66.4134 10.4964C68.7593 12.631 71.6375 14.0197 75.0365 14.716L75.0468 14.718C75.1072 14.7298 75.1904 14.7534 75.3385 14.8095L75.3566 14.8163L75.375 14.8226L75.4392 14.8445L75.4532 15.981C75.4925 19.1906 75.5193 22.4008 75.5462 25.6136L75.5528 26.354C75.6184 33.6987 75.6861 41.2815 75.9058 48.7403C76.0707 54.337 74.4663 59.4421 70.9531 64.4003C67.0717 69.8811 62.0671 74.755 55.625 79.3007C52.4228 81.5616 49.045 83.6701 45.7366 85.7351L45.4052 85.942C45.1587 86.0959 44.9117 86.2499 44.6648 86.4039C43.2252 87.302 41.78 88.2035 40.3491 89.1231C40.0136 89.3379 39.7523 89.4079 39.5188 89.4108Z" fill="#F8F6F4"/><path d="M45.4052 85.942L45.7366 85.7351C49.045 83.6701 52.4228 81.5616 55.625 79.3007C62.0671 74.755 67.0717 69.8811 70.9531 64.4003C74.4663 59.4421 76.0707 54.337 75.9058 48.7403C75.6861 41.2815 75.6184 33.6987 75.5528 26.354L75.5462 25.6136C75.5193 22.4008 75.4925 19.1906 75.4532 15.981L75.4392 14.8445L75.375 14.8226L75.3566 14.8163L75.3385 14.8095C75.1904 14.7534 75.1072 14.7298 75.0468 14.718L75.0365 14.716C71.6375 14.0197 68.7593 12.631 66.4134 10.4964C64.0718 8.36584 62.3141 5.54149 61.0764 2.05136C60.9113 1.58983 60.7169 1.48393 60.619 1.44165C60.4551 1.37099 60.2616 1.36109 59.9444 1.36498L59.9236 1.36524L59.9027 1.36549L59.8819 1.36575L59.861 1.36601L59.8401 1.36626L59.8193 1.36652L59.7985 1.36677L59.7778 1.36703L59.757 1.36729L59.7362 1.36754L59.7155 1.3678L59.6948 1.36805L59.674 1.3683L59.6533 1.36855L59.6326 1.36881L59.6119 1.36906L59.5912 1.36932L59.5706 1.36958L59.5499 1.36982L59.5293 1.37008L59.5086 1.37033L59.488 1.37059L59.4674 1.37083L59.4469 1.37109L59.4263 1.37134L59.4057 1.3716L59.3851 1.37184L59.3647 1.3721L59.3441 1.37236L59.3236 1.3726L59.3031 1.37286L59.2827 1.37311L59.2621 1.37336L59.2417 1.37361L59.2213 1.37386L59.2008 1.37411L59.1804 1.37437L59.16 1.37461L59.1395 1.37487L59.1192 1.37511L59.0988 1.37537L59.0785 1.37561L59.0581 1.37587L59.0378 1.37611L59.0174 1.37637L58.9971 1.37661L58.9769 1.37686L58.9565 1.37711L58.9363 1.37736L58.9161 1.37761L58.8958 1.37786L58.8756 1.3781L58.8554 1.37836L58.8351 1.3786L58.8149 1.37884L58.7947 1.3791L58.7745 1.37934L58.7543 1.37959L58.7342 1.37984L58.7141 1.38009L58.694 1.38033L58.6738 1.38058L58.6537 1.38083L58.6336 1.38108L58.6135 1.38132L58.5935 1.38156L58.5734 1.38181L58.5534 1.38206L58.5333 1.38231L58.5133 1.38255L58.4933 1.3828L58.4733 1.38304L58.4533 1.38329L58.4334 1.38353L58.4134 1.38377L58.3934 1.38402L58.3735 1.38426L58.3535 1.38452L58.3336 1.38476L58.3137 1.38501L58.2938 1.38525L58.274 1.38549L58.2541 1.38574L58.2342 1.38598L58.2143 1.38622L58.1945 1.38646L58.1747 1.3867L58.1549 1.38695L58.1351 1.38719L58.1152 1.38744L58.0955 1.38768L58.0757 1.38792L58.0559 1.38817L58.0363 1.38841L58.0165 1.38865L57.9967 1.38889L57.9771 1.38913L57.9573 1.38938L57.9377 1.38962L57.918 1.38986L57.8984 1.3901L57.8787 1.39034L57.8591 1.39059L57.8394 1.39082L57.8198 1.39106L57.8001 1.39131L57.7806 1.39154L57.7609 1.39179L57.7414 1.39203L57.7219 1.39226L57.7023 1.39251L57.6827 1.39275L57.6631 1.39298L57.6437 1.39323L57.6242 1.39347L57.6047 1.3937L57.5851 1.39395L57.5657 1.39418L57.5462 1.39442L57.5267 1.39466L57.5073 1.3949L57.4879 1.39513L57.4685 1.39538L57.4491 1.39561L57.4297 1.39586L57.4102 1.39609L57.3908 1.39633L57.3715 1.39656L57.3521 1.39681L57.3328 1.39704L57.3135 1.39729L57.2941 1.39752L57.2748 1.39775L57.2555 1.39799L57.2362 1.39823L57.2169 1.39847L57.1977 1.3987L57.1784 1.39894L57.1591 1.39918L57.1399 1.39941L57.1206 1.39965L57.1014 1.39989L57.0822 1.40012L57.063 1.40036L57.0438 1.40059L57.0247 1.40083L57.0055 1.40106L56.9863 1.4013L56.9671 1.40153L56.948 1.40176L56.9288 1.40201L56.9098 1.40224L56.8906 1.40247L56.8715 1.4027L56.8524 1.40294L56.8334 1.40318L56.8143 1.40341L56.7952 1.40365L56.7762 1.40388L56.7571 1.40411L56.7381 1.40434L56.7191 1.40458L56.7001 1.40481L56.6811 1.40504L56.6621 1.40527L56.6431 1.40551L56.6242 1.40574L56.6051 1.40597L56.5863 1.4062L56.5673 1.40644L56.5484 1.40667L56.5294 1.4069L56.5105 1.40713L56.4916 1.40737L56.4727 1.4076L56.4538 1.40783L56.435 1.40806L56.4162 1.4083L56.3972 1.40853L56.3784 1.40876L56.3595 1.40899L56.3408 1.40923L56.322 1.40945L56.3031 1.40968L56.2843 1.40991L56.2656 1.41015L56.2467 1.41038L56.228 1.41061L56.2093 1.41083L56.1906 1.41106L56.1717 1.4113L56.153 1.41153L56.1343 1.41175L56.1156 1.41198L56.097 1.41222L56.0783 1.41245L56.0595 1.41267L56.0409 1.4129L56.0222 1.41313L56.0036 1.41337L55.9849 1.41359L55.9663 1.41382L55.9477 1.41405L55.9291 1.41427L55.9105 1.41451L55.8919 1.41474L55.8733 1.41496L55.8547 1.41519L55.8362 1.41541L55.8176 1.41565L55.7991 1.41588L55.7805 1.4161L55.762 1.41633L55.7434 1.41655L55.7249 1.41679L55.7064 1.41701L55.6879 1.41724L55.6694 1.41746L55.6509 1.41769L55.6324 1.41791L55.614 1.41815L55.5956 1.41837L55.5771 1.4186L55.5587 1.41882L55.5402 1.41905L55.5219 1.41927L55.5034 1.41951L55.485 1.41973L55.4666 1.41995L55.4483 1.42018L55.4299 1.4204L55.4115 1.42063L55.3931 1.42086L55.3748 1.42108L55.3565 1.42131L55.3381 1.42153L55.3198 1.42175L55.3015 1.42198L55.2831 1.4222L55.2649 1.42243L55.2466 1.42266L55.2284 1.42288L55.2101 1.4231L55.1917 1.42333L55.1736 1.42355L55.1554 1.42377L55.1371 1.42399L55.1188 1.42423L55.1006 1.42445L55.0824 1.42467L55.0642 1.42489L55.046 1.42512L55.0278 1.42534L55.0097 1.42556L54.9915 1.42579L54.9734 1.42601L54.9551 1.42623L54.937 1.42646L54.9188 1.42668L54.9007 1.4269L54.8827 1.42712L54.8645 1.42734L54.8464 1.42756L54.8284 1.42779L54.8102 1.42801L54.7921 1.42824L54.7741 1.42846L54.756 1.42868L54.7379 1.4289L54.7199 1.42912L54.7019 1.42934L54.6838 1.42956L54.6658 1.42979L54.6478 1.43001L54.6298 1.43023L54.6117 1.43045L54.5938 1.43067L54.5758 1.43089L54.5578 1.43111L54.5399 1.43133L54.5219 1.43155L54.504 1.43177L54.4861 1.43199L54.468 1.43222L54.4501 1.43244L54.4322 1.43266L54.4143 1.43288L54.3964 1.43309L54.3785 1.43331L54.3606 1.43353L54.3427 1.43375L54.3248 1.43397L54.307 1.43419L54.2891 1.43441L54.2713 1.43463L54.2534 1.43484L54.2356 1.43506L54.2177 1.43529L54.1999 1.43551L54.1821 1.43573L54.1643 1.43594L54.1464 1.43616L54.1286 1.43638L54.1108 1.4366L54.0931 1.43682L54.0753 1.43703L54.0576 1.43725L54.0398 1.43747L54.022 1.43769L54.0043 1.4379L53.9865 1.43812L53.9688 1.43834L53.951 1.43856L53.9334 1.43877L53.9157 1.43899L53.8979 1.43922L53.8802 1.43943L53.8626 1.43965L53.8449 1.43987L53.8272 1.44008L53.8095 1.4403L53.7919 1.44052L53.7742 1.44073L53.7566 1.44095L53.739 1.44116L53.7213 1.44138L53.7037 1.4416L53.686 1.44181L53.6685 1.44203L53.6508 1.44225L53.6333 1.44246L53.6157 1.44268L53.5981 1.44289L53.5805 1.44311L53.5629 1.44332L53.5454 1.44354L53.5278 1.44375L53.5102 1.44397L53.4927 1.44418L53.4752 1.4444L53.4577 1.44461L53.4401 1.44483L53.4226 1.44504L53.4051 1.44526L53.3876 1.44547L53.3701 1.44569L53.3526 1.4459L53.3351 1.44612L53.3177 1.44633L53.3001 1.44655L53.2827 1.44676L53.2652 1.44698L53.2478 1.44719L53.2303 1.4474L53.2129 1.44762L53.1955 1.44783L53.178 1.44805L53.1606 1.44826L53.1431 1.44847L53.1258 1.44869L53.1084 1.4489L53.0909 1.44912L53.0736 1.44933L53.0562 1.44954L53.0388 1.44976L53.0214 1.44997L53.0041 1.45018L52.9867 1.4504L52.9694 1.45061L52.952 1.45082L52.9347 1.45104L52.9173 1.45125L52.9 1.45146L52.8827 1.45168L52.8653 1.45189L52.848 1.4521L52.8307 1.45231L52.8135 1.45253L52.7962 1.45274L52.7788 1.45295L52.7616 1.45316L52.7443 1.45338L52.7271 1.45359L52.7098 1.4538L52.6926 1.45401L52.6752 1.45423L52.658 1.45444L52.6408 1.45465L52.6235 1.45486L52.6063 1.45506L52.5891 1.45529L52.5719 1.45549L52.5547 1.4557L52.5374 1.45591L52.5202 1.45612L52.503 1.45633L52.4858 1.45655L52.4686 1.45676L52.4515 1.45697L52.4343 1.45718L52.4171 1.45739L52.4 1.4576L52.3828 1.45781L52.3657 1.45802L52.3485 1.45824L52.3314 1.45845L52.3142 1.45866L52.2971 1.45887L52.28 1.45908L52.2628 1.45929L52.2457 1.45949L52.2286 1.4597L52.2115 1.45991L52.1944 1.46012L52.1773 1.46033L52.1602 1.46054L52.1431 1.46075L52.126 1.46096L52.109 1.46117L52.0919 1.46138L52.0749 1.46159L52.0578 1.4618L52.0407 1.46201L52.0237 1.46222L52.0066 1.46243L51.9897 1.46263L51.9726 1.46284L51.9556 1.46305L51.9385 1.46326L51.9215 1.46347L51.9044 1.46368L51.8874 1.46389L51.8705 1.4641L51.8535 1.46431L51.8365 1.46452L51.8194 1.46473L51.8024 1.46494L51.7855 1.46515L51.7685 1.46536L51.7515 1.46556L51.7345 1.46577L51.7177 1.46598L51.7007 1.46618L51.6837 1.46639L51.6667 1.4666L51.6498 1.46681L51.6329 1.46702L51.6159 1.46723L51.5991 1.46744L51.5821 1.46765L51.5651 1.46786L51.5483 1.46805L51.5313 1.46826L51.5144 1.46847L51.4976 1.46868L51.4806 1.46889L51.4637 1.4691L51.4469 1.4693L51.43 1.46951L51.413 1.46972L51.3962 1.46993L51.3793 1.47013L51.3624 1.47034L51.3456 1.47054L51.3287 1.47075L51.3119 1.47096L51.295 1.47117L51.2781 1.47138L51.2613 1.47158L51.2445 1.47179L51.2277 1.47199L51.2108 1.4722L51.194 1.4724L51.1772 1.47261L51.1603 1.47282L51.1435 1.47303L51.1267 1.47323L51.1099 1.47344L51.0931 1.47365L51.0763 1.47386L51.0595 1.47405L51.0427 1.47426L51.0259 1.47447L51.0092 1.47468L50.9923 1.47488L50.9756 1.47509L50.9588 1.4753L50.9421 1.47549L50.9253 1.4757L50.9085 1.47591L50.8917 1.47611L50.875 1.47632L50.8583 1.47653L50.8415 1.47674L50.8248 1.47694L50.808 1.47715L50.7913 1.47736L50.7745 1.47755L50.7579 1.47776L50.7412 1.47797L50.7244 1.47817L50.7077 1.47838L50.6909 1.47858L50.6743 1.47879L50.6576 1.479L50.6408 1.47919L50.6242 1.4794L50.6074 1.47961L50.5908 1.47981L50.5741 1.48002L50.5574 1.48023L50.5407 1.48043L39.934 1.61065L39.9009 1.61104L39.8679 1.61145L39.8349 1.61186L39.8017 1.61226L39.7686 1.61267L39.7355 1.61308L39.7023 1.61348L39.6691 1.61389L39.6358 1.6143L39.6026 1.6147L39.5693 1.61512L39.5359 1.61553L39.5026 1.61594L39.4692 1.61634L39.4358 1.61675L39.4023 1.61717L39.3689 1.61758L39.3353 1.61798L39.3019 1.6184L39.2683 1.61881L39.2348 1.61923L39.201 1.61963L39.1674 1.62005L39.1337 1.62046L39.1 1.62088L39.0663 1.6213L39.0326 1.6217L38.9987 1.62212L38.9649 1.62254L38.9309 1.62295L38.8971 1.62337L38.8631 1.62379L38.8292 1.6242L38.7952 1.62462L38.7612 1.62504L38.7271 1.62546L38.693 1.62588L38.6588 1.6263L38.6248 1.62672L38.5905 1.62713L38.5563 1.62755L38.5221 1.62797L38.4878 1.62839L38.4535 1.62882L38.4191 1.62924L38.3846 1.62966L38.3502 1.63009L38.3158 1.63051L38.2813 1.63093L38.2467 1.63136L38.2122 1.63177L38.1777 1.6322L38.143 1.63262L38.1084 1.63305L38.0737 1.63348L38.0389 1.6339L38.0042 1.63433L37.9694 1.63476L37.9345 1.63518L37.8996 1.63561L37.8648 1.63604L37.8299 1.63647L37.7949 1.6369L37.7599 1.63733L37.7249 1.63776L37.6898 1.63819L37.6546 1.63862L37.6195 1.63905L37.5843 1.63948L37.5491 1.63991L37.5138 1.64036L37.4786 1.64079L37.4432 1.64122L37.4079 1.64166L37.3724 1.64209L37.3371 1.64252L37.3016 1.64296L37.266 1.64339L37.2306 1.64383L37.195 1.64426L37.1593 1.6447L37.1237 1.64515L37.088 1.64558L37.0522 1.64602L37.0165 1.64646L36.9807 1.6469L36.9448 1.64733L36.9089 1.64777L36.873 1.64822L36.8371 1.64866L36.801 1.6491L36.765 1.64954L36.7289 1.64998L36.6928 1.65043L36.6567 1.65088L36.6205 1.65132L36.5843 1.65176L36.548 1.6522L36.5117 1.65266L36.4753 1.6531L36.4389 1.65354L36.4026 1.654L36.366 1.65444L36.3295 1.65489L36.293 1.65534L36.2565 1.65579L36.2199 1.65624L36.1831 1.65669L36.1465 1.65713L36.1098 1.65759L36.0729 1.65804L36.0362 1.6585L35.9993 1.65895L35.9623 1.6594L35.9253 1.65986L35.8884 1.66031L35.8514 1.66076L35.8143 1.66122L35.7772 1.66167L35.74 1.66212L35.7028 1.66259L35.6656 1.66304L35.6284 1.6635L35.591 1.66396L35.5536 1.66441L35.5163 1.66488L35.4788 1.66533L35.4413 1.6658L35.4038 1.66625L35.3662 1.66672L35.3286 1.66718L35.2909 1.66765L35.2532 1.6681L35.2155 1.66857L35.1777 1.66903L35.1399 1.6695L35.102 1.66996L35.0641 1.67043L35.0262 1.67089L34.9881 1.67136L34.95 1.67182L34.912 1.6723L34.8738 1.67276L34.8357 1.67323L34.7974 1.6737L34.7592 1.67417L34.7208 1.67464L34.6824 1.67511L34.6441 1.67559L34.6056 1.67605L34.5671 1.67653L34.5286 1.677L34.49 1.67747L34.4514 1.67795L34.4127 1.67843L34.3739 1.6789L34.3352 1.67938L34.2964 1.67986L34.2576 1.68033L34.2186 1.68081L34.1796 1.68129L34.1407 1.68176L34.1016 1.68224L34.0626 1.68272L34.0235 1.6832L33.9843 1.68368L33.945 1.68417L33.9058 1.68465L33.8664 1.68514L33.8271 1.68561L33.7877 1.6861L33.7481 1.68658L33.7087 1.68707L33.6691 1.68755L33.6295 1.68804L33.5899 1.68853L33.5501 1.68901L33.5105 1.6895L33.4706 1.68998L33.4308 1.69047L33.3909 1.69097L33.3509 1.69146L33.3109 1.69195L33.2709 1.69244L33.2308 1.69294L33.1907 1.69343L33.1505 1.69391L33.1102 1.69441L33.07 1.6949L33.0296 1.6954L32.9893 1.6959L32.9488 1.69639L32.9084 1.69689L32.8678 1.69739L32.8272 1.69789L32.7866 1.69839L32.7459 1.69889L32.7052 1.69939L32.6644 1.69989L32.6236 1.70039L32.5827 1.70089L32.5417 1.70139L32.5008 1.70189L32.4598 1.7024L32.4187 1.7029L32.3775 1.7034L32.3364 1.70391L32.2951 1.70441L32.2538 1.70493L32.2124 1.70544L32.171 1.70594L32.1296 1.70645L32.0881 1.70696L32.0466 1.70747L32.005 1.70798L31.9634 1.7085L31.9216 1.70901L31.8799 1.70952L31.838 1.71003L31.7962 1.71054L31.7543 1.71105L31.7123 1.71158L31.6702 1.71209L31.6282 1.71261L31.586 1.71312L31.5438 1.71365L31.5016 1.71416L31.4594 1.71468L31.417 1.7152L31.3746 1.71572L31.3322 1.71624L31.2896 1.71676L31.2471 1.71729L31.2045 1.71781L31.1619 1.71833L31.1191 1.71886L31.0764 1.71938L31.0335 1.7199L30.9906 1.72044L30.9477 1.72096L30.9046 1.72148L30.8616 1.72202L30.8185 1.72254L30.7753 1.72308L30.7322 1.72361L30.6888 1.72414L30.6456 1.72467L30.6022 1.7252L30.5587 1.72574L30.5152 1.72627L30.4716 1.72681L30.428 1.72734L30.3844 1.72788L30.3407 1.72841L30.2969 1.72895L30.253 1.72948L30.2092 1.73003L30.1652 1.73057L30.1213 1.73111L30.0772 1.73165L30.033 1.73219L29.9888 1.73273L29.9446 1.73327L29.9003 1.73382L29.856 1.73437L29.8116 1.73491L29.7671 1.73545L29.7225 1.736L29.678 1.73655L29.6334 1.7371L29.5887 1.73765L29.5439 1.73819L29.4991 1.73874L29.4543 1.7393L29.4093 1.73984L29.3643 1.7404L29.3193 1.74095L29.2742 1.74151L29.2289 1.74207L29.1837 1.74261L29.1385 1.74317L29.0931 1.74373L29.0477 1.74429L29.0022 1.74484L28.9567 1.7454L28.9112 1.74596L28.8655 1.74652L28.8198 1.74709L28.7741 1.74765L28.7282 1.7482L28.6823 1.74877L28.6364 1.74933L28.5903 1.7499L28.5443 1.75047L28.4981 1.75103L28.452 1.7516L28.4057 1.75217L28.3594 1.75274L28.313 1.75331L28.2665 1.75388L28.2201 1.75445L28.1735 1.75502L28.1269 1.75559L28.0802 1.75617L28.0335 1.75674L27.9866 1.75731L27.9398 1.75789L27.8928 1.75846L27.8458 1.75904L27.7987 1.75962L27.7516 1.76019L27.7044 1.76077L27.6572 1.76136L27.6099 1.76194L27.5625 1.76252L27.5151 1.7631L27.4675 1.76368L27.42 1.76427L27.3723 1.76486L27.3246 1.76544L27.2768 1.76603L27.2291 1.76661L27.1812 1.76721L27.1332 1.76779L27.0852 1.76838L27.0372 1.76897L26.9889 1.76957L26.9408 1.77015L26.8925 1.77074L26.8442 1.77133L26.7958 1.77194L26.7473 1.77253L26.6987 1.77312L26.6501 1.77372L26.6015 1.77432L26.5528 1.77491L26.5039 1.77552L26.4551 1.77611L26.4062 1.77672L26.3572 1.77732L26.3081 1.77791L26.2589 1.77852L26.2098 1.77912L26.1606 1.77973L26.1112 1.78033L26.0619 1.78094L26.0123 1.78155L25.9628 1.78216L25.9132 1.78276L25.8636 1.78338L25.8138 1.78398L25.7641 1.7846L25.7142 1.78522L25.6643 1.78582L25.6143 1.78644L25.5642 1.78705L25.5141 1.78767L25.4638 1.78829L25.4136 1.7889L25.3632 1.78952L25.3128 1.79014L25.2623 1.79076L25.2117 1.79138L25.1612 1.792L25.1105 1.79262L25.0598 1.79324L25.0089 1.79387L24.958 1.7945L24.9071 1.79512L24.856 1.79575L24.8049 1.79637L24.7537 1.79701L24.7025 1.79764L24.6512 1.79826L24.5998 1.79889L24.5484 1.79952L24.4969 1.80016L24.4452 1.80079L24.3936 1.80143L24.3418 1.80205L24.2901 1.80269L24.2381 1.80333L24.1863 1.80397L24.1342 1.80461L24.0821 1.80525L24.03 1.80589L23.9778 1.80653L23.9255 1.80717L23.8731 1.80781L23.8207 1.80846L23.7681 1.8091L23.7156 1.80975L23.6629 1.81039L23.6101 1.81104L23.5573 1.81169L23.5044 1.81233L23.4515 1.81298L23.3985 1.81364L23.3455 1.81429L23.2922 1.81495L23.2389 1.8156L23.1857 1.81625L23.1323 1.8169L23.0788 1.81757L23.0253 1.81822L22.9717 1.81888L22.918 1.81954L22.8643 1.82019L22.8105 1.82086L22.7565 1.82152L22.7025 1.82218L22.6485 1.82284L22.5944 1.82351L22.5402 1.82418L22.4859 1.82484L22.4316 1.82551L22.3772 1.82618L22.3227 1.82684L22.2681 1.82752L22.2135 1.82819L22.1587 1.82886L22.1039 1.82953L22.0491 1.83021L21.9941 1.83088L21.9391 1.83155L21.8839 1.83223L21.8288 1.83291L21.7735 1.83359L21.7182 1.83426L21.6628 1.83495L21.6073 1.83562L21.5517 1.83631L21.4962 1.837L21.4405 1.83768L21.3846 1.83837L21.3288 1.83905L21.2728 1.83974L21.2168 1.84043L21.1607 1.84111L21.1045 1.8418L21.0482 1.8425L20.992 1.84318L20.9356 1.84388L20.8791 1.84457L20.8225 1.84526L20.7659 1.84596L20.7092 1.84666L20.6524 1.84736L20.5955 1.84805L20.5386 1.84875L20.4815 1.84945L20.4244 1.85015L20.3672 1.85086L20.31 1.85155L20.2527 1.85226L20.1952 1.85296L20.1377 1.85367L20.0801 1.85438L20.0224 1.85509L19.9648 1.8558L19.9068 1.85651L19.8489 1.85722L19.791 1.85793L19.7329 1.85864L19.6748 1.85936L19.6166 1.86007L19.5582 1.86079L19.4999 1.8615L19.4414 1.86222L19.3829 1.86294L19.3243 1.86366L19.2656 1.86438L19.2067 1.8651L19.1479 1.86582L19.0889 1.86654L19.03 1.86728L18.9708 1.868L18.9116 1.86872L18.8523 1.86945L18.793 1.87018L18.7336 1.8709L18.6741 1.87164L18.6144 1.87237L18.5548 1.8731L18.495 1.87383L18.4351 1.87458L18.3752 1.87531L18.3152 1.87604L18.2551 1.87679L18.1949 1.87752L18.1346 1.87826L18.0743 1.87901L18.0138 1.87974L17.9534 1.88048L17.8928 1.88123L17.8321 1.88197L17.7714 1.88272L17.7105 1.88347L17.6495 1.88422L17.5885 1.88496L17.5274 1.88572L17.4663 1.88646L17.405 1.88722L17.3436 1.88797L17.2822 1.88873L17.2207 1.88948L17.1591 1.89024L17.0974 1.891L17.0356 1.89175L16.9737 1.89251L16.9117 1.89328L16.8498 1.89403C16.3966 1.8996 16.1936 1.9923 16.0909 2.0675C15.9908 2.1408 15.847 2.29897 15.7153 2.71549L15.7149 2.71696C14.1487 7.64936 11.4468 11.2271 7.42616 13.5183L7.42434 13.5194C6.1803 14.2253 4.83365 14.7484 3.49797 15.2641C2.90226 15.4945 2.31028 15.7268 1.72157 15.9732C1.71509 16.0423 1.70812 16.1477 1.70938 16.2501L1.80643 24.1555C1.91271 33.3263 2.02275 42.8015 2.18756 52.1243C2.21592 53.4792 2.47217 55.0202 2.97982 56.7091L2.98052 56.7114C4.35471 61.3183 7.03715 65.4961 11.8036 70.2996C18.5724 77.1249 27.0692 83.1145 38.5934 89.1457L38.595 89.1465C38.9337 89.3245 39.1855 89.3947 39.3914 89.4124L39.5188 89.4108C39.7523 89.4079 40.0136 89.3379 40.3491 89.1231C41.78 88.2035 43.2252 87.302 44.6648 86.4039C44.9117 86.2499 45.1587 86.0959 45.4052 85.942ZM45.4052 85.942L45.9777 86.8591" stroke="#333336" stroke-width="2"/><path d="M38.5629 0.933594L39.5817 90.25" stroke="#333336" stroke-width="2" stroke-miterlimit="10"/><g clip-path="url(#a)" stroke="#333336" stroke-width="2" stroke-miterlimit="10"><path d="M93.6113 55.7423V45.8098C93.6113 41.6787 91.9984 37.7154 89.1278 34.7948C86.2573 31.8727 82.3635 30.2324 78.3055 30.2324C74.2474 30.2324 70.3536 31.8741 67.4831 34.7948C64.6127 37.7154 62.9996 41.6787 62.9996 45.8098V55.7423"/><path d="M101.516 56.9043H55.089C53.1157 56.9043 51.5171 58.4995 51.5171 60.4679V94.2006C51.5171 96.1688 53.1174 97.7642 55.089 97.7642H101.516C103.489 97.7642 105.087 96.1688 105.087 94.2006V60.4679C105.087 58.4995 103.487 56.9043 101.516 56.9043Z" fill="#CCEDFE"/><path d="M84.1068 74.1877C84.1068 75.1653 83.8587 76.1261 83.3858 76.9821C82.9128 77.838 82.2302 78.559 81.4009 79.0802V83.1801C81.4009 83.9977 81.0745 84.782 80.4949 85.3615C79.9154 85.9393 79.1295 86.2641 78.3085 86.2641C77.4875 86.2641 76.7016 85.9393 76.122 85.3615C75.5425 84.7837 75.2162 83.9977 75.2162 83.1801V79.0802C74.3635 78.544 73.6659 77.7964 73.1912 76.9088C72.7183 76.0212 72.4835 75.0254 72.5135 74.0212C72.5434 73.0154 72.8349 72.0363 73.3595 71.1787C73.884 70.3211 74.6251 69.6134 75.5076 69.1272C76.3902 68.6409 77.3842 68.3945 78.3918 68.4077C79.4009 68.4227 80.3867 68.6991 81.2542 69.2104C82.1219 69.7216 82.8412 70.4494 83.3409 71.3219C83.8404 72.1945 84.1035 73.1837 84.1035 74.1877H84.1068Z" fill="#F8F6F4"/></g><defs><clipPath id="a"><path fill="#fff" transform="translate(50 29.0693)" d="M0 0H56.9768V70.9304H0z"/></clipPath></defs></svg>