<svg width="128" height="100" fill="none" xmlns="http://www.w3.org/2000/svg"><path d="M1.81836 19.957H94.4069V65.7652C94.4069 68.5375 92.1512 70.7913 89.3633 70.7913H6.86205C4.08016 70.7913 1.81836 68.5434 1.81836 65.7652V19.957Z" fill="#754FE0" stroke="#333336" stroke-width="2"/><path d="M107.126 32.0205H27.4062C24.7543 32.0205 22.6045 34.1629 22.6045 36.8056V92.9312C22.6045 95.574 24.7543 97.7163 27.4062 97.7163H107.126C109.777 97.7163 111.927 95.574 111.927 92.9312V36.8056C111.927 34.1629 109.777 32.0205 107.126 32.0205ZM1.81836 6.41485C1.81836 3.63659 4.07411 1.38867 6.86205 1.38867H89.3633C92.1452 1.38867 94.4069 3.63659 94.4069 6.41485V19.9566H1.81836V6.41485Z" fill="#F8F6F4" stroke="#333336" stroke-width="2"/><path d="M13.7743 14.0022C15.4344 14.0022 16.78 12.6773 16.78 11.043 16.78 9.4088 15.4344 8.08398 13.7743 8.08398 12.1144 8.08398 10.7687 9.4088 10.7687 11.043 10.7687 12.6773 12.1144 14.0022 13.7743 14.0022ZM25.2017 14.0022C26.8618 14.0022 28.2075 12.6773 28.2075 11.043 28.2075 9.4088 26.8618 8.08398 25.2017 8.08398 23.5418 8.08398 22.1962 9.4088 22.1962 11.043 22.1962 12.6773 23.5418 14.0022 25.2017 14.0022ZM36.6239 14.0022C38.2839 14.0022 39.6296 12.6773 39.6296 11.043 39.6296 9.4088 38.2839 8.08398 36.6239 8.08398 34.9639 8.08398 33.6183 9.4088 33.6183 11.043 33.6183 12.6773 34.9639 14.0022 36.6239 14.0022Z" stroke="#333336" stroke-width="2"/><path d="M108.591 46.6665H66.6733C56.6759 46.6665 48.5714 54.771 48.5714 64.7684C48.5714 74.7657 56.6759 82.8702 66.6733 82.8702H108.591C118.589 82.8702 126.693 74.7657 126.693 64.7684C126.693 54.771 118.589 46.6665 108.591 46.6665Z" fill="#D98DFA" stroke="#333336" stroke-width="2"/><path d="M81.9152 64.7671C81.9152 56.8744 75.517 50.4761 67.6243 50.4761C59.7316 50.4761 53.3333 56.8744 53.3333 64.7671C53.3333 72.6598 59.7316 79.0581 67.6243 79.0581C75.517 79.0581 81.9152 72.6598 81.9152 64.7671Z" fill="#F8F6F4" stroke="#333336" stroke-width="2"/></svg>