<svg width="20" height="20" viewBox="0 0 20 20" fill="none" xmlns="http://www.w3.org/2000/svg">
<path d="M3.36749 11.2775C3.8475 11.7575 4.46749 11.9976 5.0975 11.9976L5.10751 12.0075C5.7275 12.0075 6.35751 11.7675 6.83749 11.2875L7.21749 10.9075L5.9775 9.66751L5.5975 10.0475C5.33749 10.3175 4.87749 10.3175 4.60751 10.0475L1.96749 7.4075C1.67748 7.11758 1.67748 6.63748 1.96749 6.34756L6.3475 1.96756C6.6375 1.67752 7.11749 1.67752 7.40749 1.96756L10.0475 4.60757C10.1875 4.73758 10.2575 4.9075 10.2575 5.09756C10.2575 5.28751 10.1775 5.46756 10.0475 5.59756L9.6675 5.97757L10.9075 7.21756L11.2875 6.83755C12.2475 5.87747 12.2475 4.32755 11.2875 3.36758L8.64748 0.72757C7.6675 -0.242523 6.08749 -0.242523 5.10751 0.72757L0.727501 5.09756C-0.2425 6.07755 -0.2425 7.6575 0.727501 8.63748L3.36749 11.2775Z" fill="black"/>
<path d="M7.06359 5.81863L5.82616 7.05606L12.9326 14.1625L14.17 12.9251L7.06359 5.81863Z" fill="black"/>
<path d="M13.1175 19.9976C12.4775 19.9976 11.8375 19.7576 11.3475 19.2676L8.70754 16.6276C7.74755 15.6676 7.74755 14.1176 8.70754 13.1576L9.08755 12.7776L10.3275 14.0176L9.94753 14.3976C9.81753 14.5276 9.73754 14.7076 9.73754 14.8976C9.73754 15.0876 9.80755 15.2576 9.94753 15.3876L12.5875 18.0276C12.8776 18.3175 13.3575 18.3175 13.6475 18.0276L18.0275 13.6476C18.3175 13.3576 18.3175 12.8776 18.0275 12.5876L15.3875 9.94754C15.1275 9.67752 14.6576 9.68753 14.3975 9.94754L14.0175 10.3275L12.7775 9.08755L13.1576 8.70755C14.1175 7.74759 15.6675 7.74759 16.6276 8.70755L19.2675 11.3476C20.2375 12.3275 20.2375 13.9076 19.2675 14.8876L14.8875 19.2676C14.3975 19.7576 13.7575 19.9976 13.1175 19.9976Z" fill="black"/>
</svg>
