<svg width="24" height="24" viewBox="0 0 24 24" fill="none" xmlns="http://www.w3.org/2000/svg">
<path fill-rule="evenodd" clip-rule="evenodd" d="M13.7849 3.21129C13.1422 1.59721 10.8577 1.59721 10.2151 3.21129L9.07851 6.0675L6.01152 6.26581C4.27811 6.37784 3.57218 8.55033 4.90696 9.66112L7.27158 11.6249L6.51293 14.6035C6.08528 16.2866 7.93251 17.6289 9.4015 16.7016L11.9999 15.0592L14.5979 16.7019C16.0653 17.6282 17.9155 16.2879 17.4858 14.6026L16.7274 11.6249L19.0922 9.66093C20.4287 8.55029 19.722 6.37785 17.9884 6.2658L14.9215 6.0675L13.7849 3.21129ZM10.5 7.22849L11.8409 3.85867C11.8601 3.81066 11.8835 3.78932 11.9026 3.77707C11.926 3.76204 11.9598 3.75073 12 3.75073C12.0402 3.75073 12.074 3.76204 12.0974 3.77707C12.1165 3.78932 12.1399 3.81066 12.1591 3.85867L13.5 7.22849C13.6249 7.54241 13.9194 7.75636 14.2565 7.77816L17.8756 8.01216C17.9272 8.0155 17.9546 8.03115 17.9722 8.04555C17.9937 8.0632 18.015 8.09187 18.0274 8.13008C18.0398 8.16829 18.0395 8.20394 18.0325 8.23092C18.0267 8.25293 18.0137 8.2818 17.9737 8.31503L15.184 10.6318C14.9241 10.8476 14.8117 11.1937 14.8951 11.5209L15.7902 15.0353C15.803 15.0855 15.7965 15.1163 15.7883 15.1373C15.7782 15.1631 15.7576 15.1921 15.725 15.2158C15.6924 15.2394 15.6583 15.2502 15.6303 15.2519C15.6074 15.2532 15.5759 15.2497 15.5321 15.2221L12.4676 13.2844C12.182 13.1039 11.8181 13.1038 11.5325 13.2844L8.46691 15.2221C8.42303 15.2498 8.39159 15.2532 8.36886 15.2519C8.341 15.2502 8.30698 15.2395 8.27446 15.2159C8.24195 15.1922 8.22119 15.1632 8.21101 15.1371C8.20271 15.1159 8.19629 15.0847 8.20903 15.0345L9.10391 11.5209C9.18727 11.1937 9.07483 10.8476 8.815 10.6318L6.02545 8.31521C5.98589 8.28222 5.97299 8.25352 5.96724 8.23149C5.96018 8.20444 5.95991 8.16866 5.97238 8.13033C5.98486 8.092 6.00614 8.06326 6.02774 8.04557C6.04537 8.03115 6.07279 8.0155 6.12444 8.01216L9.74344 7.77816C10.0806 7.75636 10.3751 7.54241 10.5 7.22849Z" fill="black"/>
<path d="M5 19.5V17H3.25V19.5C3.25 20.8802 4.36975 22 5.75 22H18.25C19.6302 22 20.75 20.8802 20.75 19.5V17H19V19.5C19 19.9137 18.6638 20.25 18.25 20.25H5.75C5.33625 20.25 5 19.9137 5 19.5Z" fill="black"/>
</svg>
