<svg width="20" height="19" viewBox="0 0 20 19" fill="none" xmlns="http://www.w3.org/2000/svg">
<path d="M5.09934 18.99C4.65934 18.99 4.20934 18.85 3.83934 18.58C3.11934 18.06 2.79934 17.17 3.01934 16.31L4.07934 12.16L0.779338 9.42C0.0993382 8.85 -0.170662 7.94 0.109338 7.1C0.379338 6.26 1.12934 5.67 2.01934 5.62L6.29934 5.34L7.87934 1.36C8.20934 0.54 8.98934 0 9.87934 0C10.7693 0 11.5493 0.53 11.8793 1.36L13.4593 5.34L17.7393 5.62C18.6193 5.68 19.3693 6.26 19.6493 7.1C19.9193 7.94 19.6593 8.86 18.9793 9.42L15.6793 12.16L16.7393 16.31C16.9593 17.17 16.6393 18.06 15.9193 18.58C15.1993 19.1 14.2493 19.13 13.4993 18.66L9.87934 16.37L6.25934 18.66C5.90934 18.88 5.50934 19 5.10934 19L5.09934 18.99ZM9.86934 1.74C9.76934 1.74 9.57934 1.77 9.49934 1.99L7.70934 6.49C7.58934 6.8 7.28934 7.02 6.94934 7.04L2.11934 7.35C1.87934 7.37 1.78934 7.53 1.75934 7.63C1.72934 7.71 1.69934 7.91 1.88934 8.07L5.60934 11.16C5.86934 11.38 5.97934 11.72 5.89934 12.05L4.70934 16.74C4.64934 16.97 4.77934 17.11 4.85934 17.17C4.93934 17.23 5.10934 17.31 5.30934 17.18L9.39934 14.59C9.68934 14.41 10.0493 14.41 10.3293 14.59L14.4193 17.18C14.6193 17.31 14.7893 17.23 14.8693 17.17C14.9493 17.11 15.0793 16.97 15.0193 16.74L13.8193 12.05C13.7393 11.72 13.8493 11.38 14.1093 11.16L17.8293 8.07C18.0193 7.91 17.9793 7.71 17.9593 7.64C17.9293 7.54 17.8393 7.38 17.5993 7.36L12.7693 7.05C12.4293 7.03 12.1393 6.81 12.0093 6.5L10.2193 2C10.1293 1.78 9.94934 1.75 9.84934 1.75L9.86934 1.74Z" fill="black"/>
</svg>
