<svg width="24" height="24" viewBox="0 0 24 24" fill="none" xmlns="http://www.w3.org/2000/svg">
<path fill-rule="evenodd" clip-rule="evenodd" d="M3.23744 1.99023L21.9994 20.7522L20.762 21.9897L18.812 20.0397C18.6722 20.4493 18.4078 20.8158 18.0387 21.084C17.3187 21.606 16.3717 21.636 15.6227 21.162L11.9997 18.873L8.37572 21.161C8.02172 21.386 7.62172 21.497 7.22472 21.497C6.78072 21.497 6.33872 21.358 5.95972 21.083C5.24372 20.563 4.92072 19.67 5.13972 18.811L6.19872 14.658L2.90172 11.92C2.21872 11.354 1.95372 10.443 2.22872 9.59895C2.50372 8.75495 3.25272 8.17295 4.13772 8.11595L6.72098 7.94865L2 3.22767L3.23744 1.99023ZM8.36745 9.59512L4.25072 9.86195C4.01372 9.87695 3.92472 10.042 3.89372 10.139C3.86272 10.236 3.83672 10.422 4.01972 10.573L7.74172 13.665C8.00272 13.881 8.11472 14.227 8.03072 14.554L6.83572 19.243C6.77672 19.474 6.90672 19.608 6.98972 19.669C7.05472 19.718 7.23272 19.815 7.44072 19.684L11.5317 17.099C11.8197 16.917 12.1807 16.917 12.4677 17.099L16.5587 19.684C16.7697 19.815 16.9457 19.718 17.0097 19.669C17.0927 19.608 17.2227 19.473 17.1637 19.243L16.8723 18.1L8.36745 9.59512Z" fill="black"/>
<path d="M21.7708 9.59895C21.4968 8.75495 20.7478 8.17295 19.8628 8.11695L15.5858 7.83995L13.9998 3.85695C13.6718 3.03195 12.8868 2.49995 11.9998 2.49995C11.1128 2.49995 10.3278 3.03195 9.99976 3.85695L9.20776 5.84795L10.5548 7.19495L11.6258 4.50395C11.7138 4.28295 11.8968 4.24995 11.9998 4.24995C12.1028 4.24995 12.2858 4.28295 12.3748 4.50395L14.1638 8.99895C14.2878 9.31295 14.5828 9.52695 14.9198 9.54895L19.7488 9.86195C19.9858 9.87795 20.0748 10.043 20.1058 10.139C20.1368 10.235 20.1628 10.421 19.9798 10.574L16.6758 13.317L17.9188 14.56L21.0968 11.921C21.7798 11.354 22.0448 10.442 21.7708 9.59895Z" fill="black"/>
</svg>
