<svg width="20" height="20" viewBox="0 0 20 20" fill="none" xmlns="http://www.w3.org/2000/svg">
<path d="M19.273 6.70725C18.861 5.70825 18.162 4.85325 17.265 4.25025C17.756 5.17025 18.098 6.16325 18.279 7.19125V7.21225C17.154 4.48125 15.228 3.38025 13.655 0.98425L13.419 0.60925C13.375 0.53525 13.34 0.46925 13.309 0.40825C13.244 0.28725 13.194 0.15925 13.16 0.0262499C13.16 0.0212499 13.158 0.01625 13.155 0.01225C13.152 0.00824999 13.148 0.00425 13.144 0.00225C13.136 -0.00075 13.128 -0.00075 13.12 0.00225H13.113C12.155 0.56425 11.343 1.34525 10.745 2.28025C10.147 3.21625 9.778 4.28025 9.67 5.38525C9.787 5.37825 9.904 5.36825 10.022 5.36825C10.905 5.36425 11.775 5.59125 12.544 6.02625C13.313 6.46125 13.956 7.08825 14.409 7.84725C13.699 7.37425 12.842 7.17325 11.996 7.28125C12.829 7.71425 13.484 8.42725 13.844 9.29525C14.204 10.1632 14.248 11.1292 13.967 12.0262C13.686 12.9222 13.098 13.6913 12.307 14.1983C11.516 14.7053 10.572 14.9163 9.64 14.7963C9.196 14.7773 8.757 14.6923 8.338 14.5463C8.241 14.5113 8.142 14.4723 8.044 14.4303C7.987 14.4053 7.93 14.3802 7.875 14.3532C7.247 14.0672 6.702 13.6263 6.29 13.0733C5.878 12.5203 5.611 11.8723 5.516 11.1883C5.516 11.1883 5.977 9.52125 8.824 9.52125C9.338 9.31525 9.763 8.93625 10.029 8.45025C9.181 8.05625 8.369 7.58925 7.603 7.05325C7.24 6.70425 7.067 6.53725 6.913 6.41225C6.831 6.34525 6.753 6.28725 6.654 6.22225C6.427 5.45125 6.417 4.63125 6.627 3.85525C5.709 4.28425 4.888 4.89725 4.217 5.65725C3.907 4.88825 3.789 4.05525 3.872 3.23025C3.755 3.27725 3.643 3.33525 3.538 3.40325C3.189 3.64425 2.861 3.91525 2.559 4.21425C2.218 4.54925 1.906 4.91225 1.625 5.29825C0.982 6.17525 0.523 7.17325 0.275 8.23225C0.275 8.24325 0.18 8.63825 0.111 9.12525L0.0799999 9.35225C0.0559999 9.49825 0.039 9.65825 0.02 9.90725V9.93625C0.014 10.0313 0.006 10.1363 0 10.2583V10.3083C0.044 12.9193 1.123 15.4072 2.999 17.2232C4.876 19.0392 7.397 20.0362 10.008 19.9942C12.336 20.0243 14.601 19.2343 16.406 17.7633C18.211 16.2922 19.441 14.2332 19.881 11.9462L19.926 11.5712C20.132 9.92225 19.907 8.24525 19.273 6.70725Z" fill="black"/>
</svg>
