<svg width="16" height="16" viewBox="0 0 16 16" fill="none" xmlns="http://www.w3.org/2000/svg">
<path fill-rule="evenodd" clip-rule="evenodd" d="M8.06694 10.8169C8.18415 10.6997 8.25 10.5408 8.25 10.375V2.052L11.558 5.361C11.6764 5.47338 11.8339 5.53509 11.9971 5.53297C12.1603 5.53085 12.3163 5.46508 12.4317 5.34967C12.5471 5.23426 12.6129 5.07834 12.615 4.91514C12.6171 4.75194 12.5554 4.59436 12.443 4.476L7.966 0H7.285L2.807 4.476C2.69462 4.59436 2.63292 4.75194 2.63503 4.91514C2.63715 5.07834 2.70292 5.23426 2.81833 5.34967C2.93374 5.46508 3.08966 5.53085 3.25286 5.53297C3.41606 5.53509 3.57364 5.47338 3.692 5.361L7 2.052V10.375C7 10.5408 7.06585 10.6997 7.18306 10.8169C7.30027 10.9342 7.45924 11 7.625 11C7.79076 11 7.94973 10.9342 8.06694 10.8169ZM13.6642 14.4142C13.2891 14.7893 12.7804 15 12.25 15H3C2.46957 15 1.96086 14.7893 1.58579 14.4142C1.21071 14.0391 1 13.5304 1 13V11.625C1 11.4592 1.06585 11.3003 1.18306 11.1831C1.30027 11.0658 1.45924 11 1.625 11C1.79076 11 1.94973 11.0658 2.06694 11.1831C2.18415 11.3003 2.25 11.4592 2.25 11.625V13.15L2.85 13.75H12.4L13 13.15V11.625C13 11.4592 13.0658 11.3003 13.1831 11.1831C13.3003 11.0658 13.4592 11 13.625 11C13.7908 11 13.9497 11.0658 14.0669 11.1831C14.1842 11.3003 14.25 11.4592 14.25 11.625V13C14.25 13.5304 14.0393 14.0391 13.6642 14.4142Z" fill="black"/>
</svg>
