<svg width="15" height="20" viewBox="0 0 15 20" fill="none" xmlns="http://www.w3.org/2000/svg">
<path fill-rule="evenodd" clip-rule="evenodd" d="M2.09468 17.9488C3.48468 19.3188 5.32468 19.9988 7.15468 19.9988L7.14468 19.9888C8.98468 19.9888 10.8247 19.3088 12.2247 17.9388C13.9747 16.1788 14.9347 13.8188 14.9347 11.2688C14.9347 9.53878 14.4547 7.84878 13.5447 6.36878C13.3847 6.10878 13.1047 5.94878 12.8047 5.94878C12.5047 5.94878 12.2247 6.10878 12.0647 6.36878C11.7247 6.92878 11.3047 7.43878 10.8247 7.89878C10.3947 4.31878 7.90468 1.24878 4.36468 0.0487807C4.05468 -0.0612193 3.71468 0.0187807 3.47468 0.248781C3.24468 0.478781 3.15468 0.828781 3.25468 1.13878C4.03468 3.63878 3.45468 6.37878 1.75468 8.36878L1.66468 8.45878C1.63468 8.49878 1.57468 8.56878 1.57468 8.56878L1.52468 8.62878C1.51468 8.63878 1.50718 8.64878 1.49968 8.65878C1.49218 8.66878 1.48468 8.67878 1.47468 8.68878C-0.695319 11.4488 -0.455319 15.4588 2.09468 17.9488ZM3.31468 16.6988C1.37468 14.8088 1.19468 11.8488 2.86468 9.74878V9.72878C4.70468 7.71878 5.57468 5.01878 5.28468 2.36878C7.64468 3.74878 9.14468 6.25878 9.14468 9.00878C9.14468 9.19878 9.13468 9.38878 9.12468 9.57878C9.10468 9.90878 9.26468 10.2188 9.54468 10.3888C9.82468 10.5688 10.1747 10.5588 10.4547 10.3888C11.2847 9.86878 12.0347 9.22878 12.6647 8.48878C13.0147 9.36878 13.1947 10.3088 13.1947 11.2688C13.1947 13.3488 12.4147 15.2788 11.0047 16.6988C10.6119 17.0823 10.1735 17.3947 9.70636 17.6361C9.86857 17.1499 9.96466 16.6264 9.96466 16.0788C9.96466 14.2988 9.09466 12.7088 7.72466 12.0688C7.56466 11.9888 7.36466 11.9888 7.20466 12.0688C5.83466 12.7088 4.96466 14.2988 4.96466 16.0788C4.96466 16.7434 5.09913 17.3726 5.32639 17.9426C4.59144 17.6869 3.90202 17.2723 3.31468 16.6988Z" fill="black"/>
</svg>
