<svg width="18" height="20" viewBox="0 0 18 20" fill="none" xmlns="http://www.w3.org/2000/svg">
<path d="M13.5 11.5H4V9.75H13.5V11.5Z" fill="black"/>
<path d="M4 15.5H13.5V13.75H4V15.5Z" fill="black"/>
<path fill-rule="evenodd" clip-rule="evenodd" d="M4.807 0C3.91966 0 3.09787 0.470484 2.64968 1.23728L0.119911 5.55789C0.0413886 5.69199 0 5.84459 0 6V17.5C0 18.8802 1.11975 20 2.5 20H15C16.3802 20 17.5 18.8802 17.5 17.5V6C17.5 5.84465 17.4586 5.69209 17.3802 5.55802L14.8508 1.23642C14.4018 0.470709 13.5807 0 12.693 0H4.807ZM4.16048 2.12045C4.29432 1.89141 4.54044 1.75 4.807 1.75H12.693C12.9591 1.75 13.2061 1.89164 13.3412 2.12158L15.1722 5.25H2.32809L4.16048 2.12045ZM1.75 7V17.5C1.75 17.9138 2.08625 18.25 2.5 18.25H15C15.4138 18.25 15.75 17.9138 15.75 17.5V7H1.75Z" fill="black"/>
</svg>
