<svg width="16" height="16" viewBox="0 0 16 16" fill="none" xmlns="http://www.w3.org/2000/svg">
<path d="M8.801 1.975a17 17 0 0 1 2.414 2.011c3.731 3.731 5.068 8.242 3.042 10.27-.64.639-1.527.944-2.559.944-1.218 0-2.639-.439-4.092-1.242-1.457.802-2.882 1.242-4.103 1.242-1.032 0-1.919-.304-2.559-.943-1.396-1.397-1.195-3.973.285-6.661C-.247 4.911-.45 2.34.944.945s3.969-1.196 6.655.282c2.686-1.478 5.26-1.678 6.656-.282.409.409.674.922.818 1.507a2.2 2.2 0 0 0-.471-.054c-.262 0-.511.054-.745.138a1.9 1.9 0 0 0-.45-.744c-.411-.41-1.003-.604-1.712-.604-.838 0-1.841.283-2.894.786M3.505 1.19c-.709 0-1.301.194-1.712.604-.898.897-.754 2.664.178 4.613a17 17 0 0 1 2.015-2.42A17 17 0 0 1 6.4 1.976c-1.054-.502-2.057-.786-2.894-.786M1.972 8.794c-.93 1.949-1.075 3.716-.178 4.614 1.501 1.498 5.425.106 8.573-3.042a15.4 15.4 0 0 0 2.202-2.772 15.6 15.6 0 0 0-2.202-2.759A15.6 15.6 0 0 0 7.6 2.627a15.6 15.6 0 0 0-2.766 2.207A15.6 15.6 0 0 0 2.628 7.6a15 15 0 0 0 1.615 2.142 2.2 2.2 0 0 0-.974.712 17 17 0 0 1-1.298-1.661m6.817 4.433c1.95.934 3.72 1.078 4.619.181.896-.897.752-2.662-.176-4.608a17 17 0 0 1-2.017 2.415 17 17 0 0 1-2.426 2.012M4.4 10.8h1.2l.4.4v1.2l-.4.4H4.4l-.4-.4v-1.2zm10.8-7.2H14l-.4.4v1.2l.4.4h1.2l.4-.4V4zm-10 4c0 1.323 1.077 2.4 2.4 2.4S10 8.923 10 7.6 8.923 5.2 7.6 5.2 5.2 6.277 5.2 7.6m1.2 0a1.201 1.201 0 0 1 2.4 0 1.201 1.201 0 0 1-2.4 0" fill="black"/>
</svg>
