<svg width="22" height="19" viewBox="0 0 22 19" fill="none" xmlns="http://www.w3.org/2000/svg">
<path fill-rule="evenodd" clip-rule="evenodd" d="M1.1466 9.78373L1.95129 9.08582V16.5037C1.95129 17.8839 3.07104 19.0037 4.45129 19.0037H16.9513C18.3315 19.0037 19.4513 17.8839 19.4513 16.5037V9.08495L20.257 9.78373L21.4036 8.46168L12.3616 0.619676C11.4091 -0.206145 9.99435 -0.206972 9.042 0.619676L0 8.46168L1.1466 9.78373ZM11.215 1.94173C10.9197 1.68577 10.4826 1.68641 10.189 1.94137L3.70129 7.56807V16.5037C3.70129 16.9174 4.03754 17.2537 4.45129 17.2537H6.95129V12.7537C6.95129 11.3734 8.07104 10.2537 9.45129 10.2537H11.9513C13.3315 10.2537 14.4513 11.3734 14.4513 12.7537V17.2537H16.9513C17.365 17.2537 17.7013 16.9174 17.7013 16.5037V7.5672L11.215 1.94173ZM12.7013 17.2537V12.7537C12.7013 12.3399 12.365 12.0037 11.9513 12.0037H9.45129C9.03754 12.0037 8.70129 12.3399 8.70129 12.7537V17.2537H12.7013Z" fill="black"/>
</svg>
