<svg width="20" height="19" viewBox="0 0 20 19" fill="none" xmlns="http://www.w3.org/2000/svg">
<path d="M18.144 19H20L15.284 7.617C15.13 7.244 14.765 7 14.36 7H13.514C13.11 7 12.745 7.244 12.59 7.617L10.238 13.294C9.561 12.944 8.911 12.533 8.329 12.019C7.843 11.59 7.385 11.136 6.955 10.659C8.65 8.73 9.927 6.474 10.728 3.999H11.711V2.25H6.71V0H5.002V2.25H0V4H8.931C8.228 5.949 7.191 7.737 5.861 9.297C5.059 8.2 4.382 7.015 3.859 5.75H2.033C2.674 7.484 3.558 9.099 4.654 10.561C4.494 10.714 4.339 10.872 4.172 11.019C3.231 11.85 2.14 12.459 0.977 12.849V14.675C2.553 14.234 4.032 13.453 5.287 12.345C5.45 12.201 5.6 12.047 5.758 11.899C6.217 12.404 6.699 12.891 7.216 13.346C7.933 13.98 8.724 14.507 9.563 14.929L7.875 19H9.731L11.077 15.75H16.798L18.144 19ZM11.802 14L13.937 8.845L16.073 14H11.802Z" fill="black"/>
</svg>
