<svg width="24" height="24" viewBox="0 0 24 24" fill="none" xmlns="http://www.w3.org/2000/svg">
<path d="M13.87 15.1001L15.32 11.6201L16.77 15.1001H13.87Z" fill="black"/>
<path fill-rule="evenodd" clip-rule="evenodd" d="M6 2C3.79086 2 2 3.79086 2 6V18C2 20.2091 3.79086 22 6 22H18C20.2091 22 22 20.2091 22 18V6C22 3.79086 20.2091 2 18 2H6ZM16.55 10.14C16.4 9.78 16.05 9.55 15.65 9.55H14.97C14.58 9.55 14.22 9.78 14.07 10.14L12.26 14.47C11.79 14.22 11.34 13.92 10.93 13.57C10.58 13.27 10.26 12.95 9.95 12.62C11.24 11.13 12.23 9.4 12.86 7.51H13.69V5.78H9.71V4H8V5.78H4V7.51H11.07C10.54 8.88 9.8 10.14 8.87 11.26C8.29 10.45 7.8 9.58 7.42 8.66L7.38 8.56H5.55L5.64 8.79C6.14 10.13 6.82 11.39 7.67 12.53H7.66C7.63719 12.5528 7.61503 12.5756 7.59318 12.5981C7.52882 12.6643 7.46718 12.7277 7.4 12.78C6.67 13.42 5.81 13.89 4.9 14.2L4.78 14.24V16.03L5 15.97C6.28 15.61 7.49 14.98 8.51 14.09C8.59 14.02 8.68 13.94 8.76 13.86H8.77C9.11 14.21 9.46 14.56 9.83 14.88C10.37 15.36 10.97 15.76 11.6 16.09L10.21 19.41H12.06L13.14 16.83H17.49L18.57 19.41H20.42L16.55 10.15V10.14Z" fill="black"/>
</svg>
