<svg width="14" height="14" viewBox="0 0 14 14" fill="none" xmlns="http://www.w3.org/2000/svg">
<path d="M4.6441 3.7116L5.58066 1.33614C5.95474 0.387952 7.29617 0.387952 7.67025 1.33614L8.60681 3.7116C8.77528 4.13815 9.11222 4.47504 9.53884 4.64349L11.9137 5.57991C12.8621 5.95393 12.8621 7.29607 11.9137 7.67009L9.53884 8.60651C9.11222 8.77496 8.77528 9.11185 8.60681 9.5384L7.67025 11.9139C7.29617 12.862 5.95474 12.862 5.58066 11.9139L4.6441 9.5384C4.47563 9.11185 4.13868 8.77496 3.71207 8.60651L1.33625 7.67009C0.387917 7.29607 0.387917 5.95484 1.33625 5.58081L3.71207 4.6444C4.13868 4.47504 4.47563 4.13815 4.6441 3.7116Z" stroke="black" stroke-width="1.25" stroke-miterlimit="10"/>
</svg>
