<svg width="16" height="16" viewBox="0 0 16 16" fill="none" xmlns="http://www.w3.org/2000/svg">
<path fill-rule="evenodd" clip-rule="evenodd" d="M3.00008 2.66669C2.07992 2.66669 1.33341 3.41319 1.33341 4.33335V11C1.33341 11.9202 2.07992 12.6667 3.00008 12.6667H0.666748V13.8334H15.3334V12.6667H13.0001C13.9202 12.6667 14.6667 11.9202 14.6667 11V4.33335C14.6667 3.41319 13.9202 2.66669 13.0001 2.66669H3.00008ZM2.50008 4.33335C2.50008 4.05752 2.72425 3.83335 3.00008 3.83335H13.0001C13.2759 3.83335 13.5001 4.05752 13.5001 4.33335V11C13.5001 11.2759 13.2759 11.5 13.0001 11.5H3.00008C2.72425 11.5 2.50008 11.2759 2.50008 11V4.33335Z" fill="#AE89FF"/>
</svg>
