<svg width="16" height="16" viewBox="0 0 16 16" fill="none" xmlns="http://www.w3.org/2000/svg">
<path d="M8.58342 10.0081V2H7.41675V10.0084L4.82471 7.41638L3.99976 8.24134L7.58757 11.8292C7.69697 11.9386 7.84536 12 8.00008 12C8.1548 12 8.30318 11.9385 8.41257 11.8291L11.9997 8.24125L11.1746 7.41638L8.58342 10.0081Z" fill="#AE89FF"/>
<path d="M3.33341 11.3333V13C3.33341 13.2758 3.55758 13.5 3.83341 13.5H12.1667C12.4426 13.5 12.6667 13.2758 12.6667 13V11.3333H13.8334V13C13.8334 13.9202 13.0869 14.6667 12.1667 14.6667H3.83341C2.91325 14.6667 2.16675 13.9202 2.16675 13V11.3333H3.33341Z" fill="#AE89FF"/>
</svg>
