<svg width="16" height="16" viewBox="0 0 16 16" fill="none" xmlns="http://www.w3.org/2000/svg">
<path d="M12.3334 14.6667H4.33341C3.41275 14.6667 2.66675 13.9207 2.66675 13V11.5833C2.66675 11.2613 2.92808 11 3.25008 11H4.66675C5.49541 11 6.16675 10.3287 6.16675 9.50001C6.16675 8.67134 5.49541 8.00001 4.66675 8.00001H3.25008C2.92808 8.00001 2.66675 7.73868 2.66675 7.41668V6.33334C2.66675 5.41268 3.41275 4.66668 4.33341 4.66668H6.66675V3.25001C6.66675 2.19134 7.52475 1.33334 8.58341 1.33334C9.64208 1.33334 10.5001 2.19134 10.5001 3.25001V4.66668H12.3334C13.2541 4.66668 14.0001 5.41268 14.0001 6.33334V13C14.0001 13.9207 13.2541 14.6667 12.3334 14.6667Z" fill="#AE89FF"/>
</svg>
