<svg width="16" height="16" viewBox="0 0 16 16" fill="none" xmlns="http://www.w3.org/2000/svg">
<path fill-rule="evenodd" clip-rule="evenodd" d="M8.00008 6C6.75744 6 5.75008 7.00736 5.75008 8.25C5.75008 9.49264 6.75744 10.5 8.00008 10.5C9.24272 10.5 10.2501 9.49264 10.2501 8.25C10.2501 7.00736 9.24272 6 8.00008 6ZM6.91675 8.25C6.91675 7.65169 7.40177 7.16667 8.00008 7.16667C8.59839 7.16667 9.08341 7.65169 9.08341 8.25C9.08341 8.84831 8.59839 9.33333 8.00008 9.33333C7.40177 9.33333 6.91675 8.84831 6.91675 8.25Z" fill="#AE89FF"/>
<path fill-rule="evenodd" clip-rule="evenodd" d="M8.00004 3.5127C5.00202 3.5127 2.4665 5.4037 1.46654 8.04338C1.4161 8.17653 1.4161 8.32353 1.46654 8.45668C2.4665 11.0964 5.00202 12.9874 8.00004 12.9874C10.9981 12.9874 13.5336 11.0964 14.5335 8.45668C14.584 8.32353 14.584 8.17653 14.5335 8.04338C13.5336 5.4037 10.9981 3.5127 8.00004 3.5127ZM8.00004 11.8207C5.58721 11.8207 3.52723 10.3477 2.64034 8.25003C3.52723 6.15231 5.58721 4.67936 8.00004 4.67936C10.4129 4.67936 12.4729 6.15231 13.3597 8.25003C12.4729 10.3477 10.4129 11.8207 8.00004 11.8207Z" fill="#AE89FF"/>
</svg>
