<svg width="16" height="16" viewBox="0 0 16 16" fill="none" xmlns="http://www.w3.org/2000/svg">
<path d="M6.95922 1.52271C9.50789 0.884047 12.3446 1.93471 13.7032 4.02871C15.3939 6.63071 14.7019 10.1287 11.7532 13.878L10.8366 13.1567C13.4519 9.83138 14.1226 6.81605 12.7252 4.66471C11.6286 2.97605 9.32389 2.13005 7.24455 2.65471C5.26789 3.15538 4.02722 4.76138 3.84255 7.05938L3.82055 7.33338H2.65055L2.68055 6.96538C2.90855 4.13871 4.46789 2.15471 6.95922 1.52271Z" fill="#AE89FF"/>
<path d="M7.50192 14.1154L6.90792 13.1114L7.40992 12.8147C7.57059 12.7194 7.72459 12.6194 7.86992 12.516C10.6166 10.5594 10.7413 7.11138 10.7419 7.07671L10.7493 7.00005C10.9039 6.03671 10.1226 5.10738 9.00659 4.92805C8.35992 4.82271 7.67592 4.99671 7.21059 5.37471C6.99259 5.55271 6.72792 5.85405 6.70792 6.28338V7.33338C6.70792 8.80405 5.51192 10 4.04125 10H1.33325V8.83338H4.04125C4.86792 8.83338 5.54125 8.16005 5.54125 7.33338V6.25605C5.57325 5.55738 5.90392 4.93205 6.47392 4.46871C7.20125 3.87738 8.21659 3.62071 9.19125 3.77471C10.9293 4.05471 12.1399 5.56271 11.9066 7.14738C11.8866 7.59605 11.6279 11.272 8.54592 13.4667C8.37259 13.5894 8.19325 13.706 8.00392 13.818L7.50192 14.1154Z" fill="#AE89FF"/>
<path d="M8.04125 6.66668V7.75001C8.04125 9.72601 6.43392 11.3333 4.45792 11.3333H1.33325V12.5H4.45859C7.07792 12.5 9.20859 10.3693 9.20859 7.75001V6.66668H8.04125Z" fill="#AE89FF"/>
</svg>
