<svg width="16" height="16" viewBox="0 0 16 16" fill="none" xmlns="http://www.w3.org/2000/svg">
<path fill-rule="evenodd" clip-rule="evenodd" d="M7.99992 1.33331C11.6818 1.33331 14.6666 4.31808 14.6666 7.99998C14.6666 11.6819 11.6818 14.6666 7.99992 14.6666C4.31802 14.6666 1.33325 11.6819 1.33325 7.99998C1.33325 4.31808 4.31802 1.33331 7.99992 1.33331ZM11.2903 8.60415C11.166 10.3596 10.5225 11.9714 9.51294 13.2871C11.6274 12.6831 13.2209 10.8473 13.4661 8.60415H11.2903ZM2.53377 8.60415C2.77735 10.833 4.35216 12.6596 6.44653 13.2754C5.45219 11.9592 4.82251 10.3521 4.70695 8.60415H2.53377ZM5.87622 8.60415C6.01445 10.4142 6.79074 12.0437 7.98039 13.2734C9.18323 12.0483 9.9728 10.4179 10.121 8.60415H5.87622ZM8.01815 2.72394C6.80579 3.95878 6.01502 5.60702 5.87557 7.43748H10.1269C9.99756 5.61016 9.21802 3.96389 8.01815 2.72394ZM9.552 2.72329C10.5548 4.05044 11.188 5.67301 11.2961 7.43748H13.4713C13.2429 5.18919 11.6602 3.3424 9.552 2.72329ZM6.4869 2.71222C4.35922 3.31988 2.75837 5.17535 2.52856 7.43748H4.7063C4.82322 5.66571 5.46905 4.03841 6.4869 2.71222Z" fill="#AE89FF"/>
</svg>
