<svg width="16" height="16" viewBox="0 0 16 16" fill="none" xmlns="http://www.w3.org/2000/svg">
<path fill-rule="evenodd" clip-rule="evenodd" d="M1.33203 8.0013C1.33203 6.16035 2.82442 4.66797 4.66536 4.66797C6.278 4.66797 7.62317 5.81314 7.93202 7.33464H14.6654V8.5013H13.1654V10.668H11.9987V8.5013H7.96145C7.72021 10.1051 6.33638 11.3346 4.66536 11.3346C2.82442 11.3346 1.33203 9.84225 1.33203 8.0013ZM4.66536 5.83464C3.46875 5.83464 2.4987 6.80468 2.4987 8.0013C2.4987 9.19792 3.46875 10.168 4.66536 10.168C5.86198 10.168 6.83203 9.19792 6.83203 8.0013C6.83203 6.80468 5.86198 5.83464 4.66536 5.83464Z" fill="#AE89FF"/>
</svg>
