<svg width="16" height="16" viewBox="0 0 16 16" fill="none" xmlns="http://www.w3.org/2000/svg">
<path fill-rule="evenodd" clip-rule="evenodd" d="M5.50008 3.83331C5.50008 2.45248 6.61925 1.33331 8.00008 1.33331C9.38091 1.33331 10.5001 2.45248 10.5001 3.83331V6.99998C10.5001 8.38081 9.38091 9.49998 8.00008 9.49998C6.61925 9.49998 5.50008 8.38081 5.50008 6.99998V3.83331ZM8.00008 2.49998C7.26358 2.49998 6.66675 3.09681 6.66675 3.83331V6.99998C6.66675 7.73648 7.26358 8.33331 8.00008 8.33331C8.73658 8.33331 9.33341 7.73648 9.33341 6.99998V3.83331C9.33341 3.09681 8.73658 2.49998 8.00008 2.49998Z" fill="#AE89FF"/>
<path d="M7.41675 11.7905C5.02235 11.5025 3.16675 9.46407 3.16675 6.992H4.33341C4.33341 9.01717 5.97491 10.6587 8.00008 10.6587C10.0252 10.6587 11.6667 9.01717 11.6667 6.992H12.8334C12.8334 9.46407 10.9778 11.5025 8.58341 11.7905V13.5H11.3334V14.6666H4.66675V13.5H7.41675V11.7905Z" fill="#AE89FF"/>
</svg>
