<svg width="16" height="16" viewBox="0 0 16 16" fill="none" xmlns="http://www.w3.org/2000/svg">
<path d="M11.9999 5.33334H3.99992V4.16668H11.9999V5.33334Z" fill="#AE89FF"/>
<path d="M3.99992 8.00001H8.66658V6.83334H3.99992V8.00001Z" fill="#AE89FF"/>
<path fill-rule="evenodd" clip-rule="evenodd" d="M1.33325 3.00001C1.33325 2.07984 2.07975 1.33334 2.99992 1.33334H12.9999C13.9201 1.33334 14.6666 2.07984 14.6666 3.00001V9.66668C14.6666 10.5868 13.9201 11.3333 12.9999 11.3333H11.9999V14.0833C11.9999 14.3193 11.8578 14.532 11.6398 14.6223C11.4218 14.7126 11.1709 14.6627 11.0041 14.4958L7.84163 11.3333H2.99992C2.07975 11.3333 1.33325 10.5868 1.33325 9.66668V3.00001ZM2.99992 2.50001C2.72408 2.50001 2.49992 2.72418 2.49992 3.00001V9.66668C2.49992 9.94251 2.72408 10.1667 2.99992 10.1667H8.08325C8.23796 10.1667 8.38633 10.2281 8.49573 10.3375L10.8333 12.6751V10.75C10.8333 10.4278 11.0944 10.1667 11.4166 10.1667H12.9999C13.2758 10.1667 13.4999 9.94251 13.4999 9.66668V3.00001C13.4999 2.72418 13.2758 2.50001 12.9999 2.50001H2.99992Z" fill="#AE89FF"/>
</svg>
