<svg width="16" height="16" viewBox="0 0 16 16" fill="none" xmlns="http://www.w3.org/2000/svg">
<path d="M14.6083 5.90122C14.6416 5.24122 14.195 4.65255 13.5503 4.50589C11.9536 4.14322 10.2816 4.59322 9.08231 5.70855L8.87698 5.89922C8.63764 6.12189 8.32297 6.24522 7.99631 6.24522C7.66897 6.24522 7.35431 6.12122 7.11497 5.89855L6.91431 5.71189C5.71497 4.59455 4.04097 4.14389 2.44297 4.50655H2.44164C1.80031 4.65322 1.35497 5.23922 1.38564 5.89789V5.90189C1.22097 6.55189 1.47497 8.95189 1.61897 9.32922C1.90831 10.8539 3.15431 12.0006 4.64764 12.0006C5.39364 12.0006 6.06897 11.7026 6.60297 11.2266L6.92831 10.9479C7.52897 10.4339 8.41231 10.4266 9.02097 10.9312L9.51031 11.3352V11.3332C10.025 11.7472 10.6556 12.0006 11.3463 12.0006C12.8396 12.0006 14.0856 10.8539 14.375 9.32922C14.519 8.95122 14.7823 6.56122 14.6083 5.90122ZM6.52564 8.46188C6.17031 8.86389 5.61897 9.12255 4.99897 9.12255C4.37897 9.12255 3.82764 8.86389 3.47231 8.46188C3.28564 8.25122 3.28564 7.91922 3.47231 7.70789C3.82764 7.30589 4.37897 7.04722 4.99897 7.04722C5.61897 7.04722 6.17031 7.30589 6.52564 7.70789C6.71231 7.91922 6.71231 8.25122 6.52564 8.46188ZM12.5256 8.46188C12.1703 8.86389 11.619 9.12255 10.999 9.12255C10.379 9.12255 9.82764 8.86389 9.47231 8.46188C9.28564 8.25122 9.28564 7.91922 9.47231 7.70789C9.82764 7.30589 10.379 7.04722 10.999 7.04722C11.619 7.04722 12.1703 7.30589 12.5256 7.70789C12.7123 7.91922 12.7123 8.25122 12.5256 8.46188Z" fill="#AE89FF"/>
</svg>
