<svg width="16" height="16" viewBox="0 0 16 16" fill="none" xmlns="http://www.w3.org/2000/svg">
<path fill-rule="evenodd" clip-rule="evenodd" d="M2 3.66667C2 2.7465 2.7465 2 3.66667 2H6.83333C6.93485 2 7.03461 2.02649 7.12275 2.07686L8 2.57815L8.87725 2.07686C8.96539 2.02649 9.06515 2 9.16667 2H12.3333C13.2535 2 14 2.7465 14 3.66667V12.3333C14 13.2535 13.2535 14 12.3333 14H9.32158L8.28941 14.5898C8.11008 14.6923 7.88992 14.6923 7.71059 14.5898L6.67842 14H3.66667C2.7465 14 2 13.2535 2 12.3333V3.66667ZM3.66667 3.16667C3.39083 3.16667 3.16667 3.39083 3.16667 3.66667V12.3333C3.16667 12.6092 3.39083 12.8333 3.66667 12.8333H6.83333C6.93485 12.8333 7.03461 12.8598 7.12275 12.9102L8 13.4115L8.87725 12.9102C8.96539 12.8598 9.06515 12.8333 9.16667 12.8333H12.3333C12.6092 12.8333 12.8333 12.6092 12.8333 12.3333V3.66667C12.8333 3.39083 12.6092 3.16667 12.3333 3.16667H9.32158L8.28941 3.75648C8.11008 3.85895 7.88992 3.85895 7.71059 3.75648L6.67842 3.16667H3.66667Z" fill="#AE89FF"/>
<path fill-rule="evenodd" clip-rule="evenodd" d="M8 8.66667H4.66667V7.5H8V8.66667Z" fill="#AE89FF"/>
<path fill-rule="evenodd" clip-rule="evenodd" d="M7.33333 11.3333H4.66667V10.1667H7.33333V11.3333Z" fill="#AE89FF"/>
<path fill-rule="evenodd" clip-rule="evenodd" d="M8 6H4.66667V4.83333H8V6Z" fill="#AE89FF"/>
</svg>
