<svg width="16" height="16" viewBox="0 0 16 16" fill="none" xmlns="http://www.w3.org/2000/svg">
<path fill-rule="evenodd" clip-rule="evenodd" d="M7.01315 13.743C7.31715 13.914 7.65815 14 7.99815 14C8.33915 14 8.68115 13.913 8.98515 13.741C10.1972 13.056 11.3132 11.999 12.1272 10.764C12.5492 10.123 12.8482 9.347 13.0132 8.457L13.4782 5.954C13.5972 5.313 13.2882 4.668 12.7142 4.359L8.66315 2.179C8.21815 1.94 7.68315 1.94 7.23815 2.181L3.27815 4.324C2.70715 4.633 2.39915 5.275 2.51715 5.915L2.98415 8.45C3.14915 9.344 3.44715 10.124 3.87215 10.769C4.68615 12.002 5.80115 13.057 7.01315 13.743ZM7.38314 9.854C7.47714 9.947 7.60414 10 7.73714 10C7.87014 10 7.99714 9.947 8.09014 9.854L10.7481 7.196L10.0411 6.489L7.73714 8.793L6.45514 7.511L5.74814 8.218L7.38314 9.854Z" fill="#AE89FF"/>
</svg>
