<svg width="16" height="16" viewBox="0 0 16 16" fill="none" xmlns="http://www.w3.org/2000/svg">
<path d="M3.22467 11.584L3.37933 10.864C3.45267 10.5227 3.93933 10.5227 4.01267 10.864L4.16733 11.584C4.194 11.7087 4.29133 11.806 4.416 11.8327L5.136 11.9873C5.47733 12.0607 5.47733 12.5473 5.136 12.6207L4.416 12.7753C4.29133 12.802 4.194 12.8993 4.16733 13.024L4.01267 13.744C3.93933 14.0853 3.45267 14.0853 3.37933 13.744L3.22467 13.024C3.198 12.8993 3.10067 12.802 2.976 12.7753L2.256 12.6207C1.91467 12.5473 1.91467 12.0607 2.256 11.9873L2.976 11.8327C3.10067 11.806 3.198 11.7087 3.22467 11.584Z" fill="#AE89FF"/>
<path d="M3.22467 2.976L3.37933 2.256C3.45267 1.91467 3.93933 1.91467 4.01267 2.256L4.16733 2.976C4.194 3.10067 4.29133 3.198 4.416 3.22467L5.136 3.37933C5.47733 3.45267 5.47733 3.93933 5.136 4.01267L4.416 4.16733C4.29133 4.194 4.194 4.29133 4.16733 4.416L4.01267 5.136C3.93933 5.47733 3.45267 5.47733 3.37933 5.136L3.22467 4.416C3.198 4.29133 3.10067 4.194 2.976 4.16733L2.256 4.01267C1.91467 3.93933 1.91467 3.45267 2.256 3.37933L2.976 3.22467C3.10067 3.198 3.198 3.10067 3.22467 2.976Z" fill="#AE89FF"/>
<path fill-rule="evenodd" clip-rule="evenodd" d="M9.43997 4.65405L8.75069 6.4026C8.56736 6.86684 8.2005 7.23358 7.73725 7.4175L5.98738 8.10731C5.78192 8.18847 5.7818 8.47882 5.98726 8.55998L7.73593 9.24931C8.20008 9.4326 8.56727 9.7996 8.75056 10.2637L9.43997 12.0126C9.52113 12.2181 9.81148 12.2182 9.89264 12.0127L10.582 10.2641C10.7653 9.79992 11.1323 9.43273 11.5964 9.24944L13.3446 8.56003C13.5502 8.47889 13.5502 8.18779 13.3447 8.10666L11.5967 7.41733C11.1325 7.23404 10.7654 6.86707 10.5821 6.40293L9.89269 4.65405C9.81153 4.44859 9.52113 4.44858 9.43997 4.65405ZM8.35469 4.22595C8.82425 3.03557 10.5084 3.03557 10.978 4.22595L11.6672 5.97441C11.732 6.13811 11.8612 6.26744 12.0249 6.33211L13.7727 7.02134C14.963 7.4909 14.9631 9.17575 13.7727 9.64531L12.0249 10.3346C11.8611 10.3992 11.732 10.5283 11.6673 10.6921L10.978 12.4406C10.5085 13.631 8.82425 13.6311 8.35469 12.4407L7.66544 10.6923C7.60078 10.5285 7.47177 10.3994 7.30807 10.3347L5.5594 9.64536C4.36903 9.1758 4.36891 7.49158 5.55928 7.02203L7.30675 6.33317C7.47119 6.2677 7.60079 6.13804 7.6654 5.97452L8.35469 4.22595Z" fill="#AE89FF"/>
</svg>
