<svg width="16" height="16" viewBox="0 0 16 16" fill="none" xmlns="http://www.w3.org/2000/svg">
<path fill-rule="evenodd" clip-rule="evenodd" d="M8.125 15C8.29076 15 8.44973 14.9342 8.56694 14.8169C8.68415 14.6997 8.75 14.5408 8.75 14.375C8.75 14.2092 8.68415 14.0503 8.56694 13.9331C8.44973 13.8158 8.29076 13.75 8.125 13.75H1.85L1.25 13.15V3.85L1.85 3.25H12.15L12.75 3.85V8.125C12.75 8.29076 12.8158 8.44973 12.9331 8.56694C13.0503 8.68415 13.2092 8.75 13.375 8.75C13.5408 8.75 13.6997 8.68415 13.8169 8.56694C13.9342 8.44973 14 8.29076 14 8.125V4C14 3.46957 13.7893 2.96086 13.4142 2.58579C13.0391 2.21071 12.5304 2 12 2H2C1.46957 2 0.960859 2.21071 0.585786 2.58579C0.210714 2.96086 0 3.46957 0 4V13C0 13.5304 0.210714 14.0391 0.585786 14.4142C0.960859 14.7893 1.46957 15 2 15H8.125ZM11.286 12.17L10.536 12.92C10.492 12.964 10.436 12.9939 10.375 13.006C10.314 13.018 10.2508 13.0117 10.1934 12.9878C10.136 12.964 10.0869 12.9236 10.0525 12.8718C10.0181 12.82 9.99982 12.7592 10 12.697V10.188L10.189 10H12.698C12.978 10 13.118 10.338 12.92 10.536L12.17 11.286L14.822 13.938C14.9138 14.0307 14.9739 14.1502 14.9936 14.2791C15.0134 14.4081 14.9918 14.54 14.932 14.656C14.9071 14.7183 14.8697 14.7749 14.8223 14.8223C14.7749 14.8697 14.7183 14.9071 14.656 14.932C14.54 14.9918 14.4081 15.0134 14.2791 14.9936C14.1502 14.9739 14.0307 14.9138 13.938 14.822L11.286 12.17ZM4 5H8C8.26522 5 8.51957 5.10536 8.70711 5.29289C8.89464 5.48043 9 5.73478 9 6V9C9 9.26522 8.89464 9.51957 8.70711 9.70711C8.51957 9.89464 8.26522 10 8 10H4C3.73478 10 3.48043 9.89464 3.29289 9.70711C3.10536 9.51957 3 9.26522 3 9V6C3 5.73478 3.10536 5.48043 3.29289 5.29289C3.48043 5.10536 3.73478 5 4 5Z" fill="black"/>
</svg>
