<svg width="16" height="16" viewBox="0 0 16 16" fill="none" xmlns="http://www.w3.org/2000/svg">
<path fill-rule="evenodd" clip-rule="evenodd" d="M14 9C14.552 9 15 9.448 15 10V15C15 15.552 14.552 16 14 16H9C8.448 16 8 15.552 8 15V10C8 9.448 8.448 9 9 9H14ZM10 14.5H13V13.25H10V14.5ZM10 11.75H13V10.5H10V11.75Z" fill="black"/>
<path fill-rule="evenodd" clip-rule="evenodd" d="M6 0C7.93 0 9.5 1.57 9.5 3.5V6C10.465 6 11.25 6.785 11.25 7.75H9.75C9.75 7.612 9.638 7.5 9.5 7.5H2.5C2.362 7.5 2.25 7.612 2.25 7.75V12.25C2.25 12.388 2.362 12.5 2.5 12.5H6.75V14H2.5C1.535 14 0.75 13.215 0.75 12.25V7.75C0.75 6.785 1.535 6 2.5 6V3.5C2.5 1.57 4.07 0 6 0ZM6 1.5C4.897 1.5 4 2.397 4 3.5V6H8V3.5C8 2.397 7.103 1.5 6 1.5Z" fill="black"/>
</svg>
