<svg width="16" height="16" viewBox="0 0 16 16" fill="none" xmlns="http://www.w3.org/2000/svg">
<path d="M12 7V4C12 1.794 10.206 0 8 0C5.794 0 4 1.794 4 4V7C3.46957 7 2.96086 7.21071 2.58579 7.58579C2.21071 7.96086 2 8.46957 2 9V14C2 14.5304 2.21071 15.0391 2.58579 15.4142C2.96086 15.7893 3.46957 16 4 16H12C12.5304 16 13.0391 15.7893 13.4142 15.4142C13.7893 15.0391 14 14.5304 14 14V9C14 8.46957 13.7893 7.96086 13.4142 7.58579C13.0391 7.21071 12.5304 7 12 7ZM5.25 4C5.25 2.483 6.483 1.25 8 1.25C9.517 1.25 10.75 2.483 10.75 4V7H5.25V4ZM12.75 14.15L12.15 14.75H3.85L3.25 14.15V8.85L3.85 8.25H12.15L12.75 8.85V14.15Z" fill="black"/>
</svg>
