<svg width="16" height="16" viewBox="0 0 16 16" fill="none" xmlns="http://www.w3.org/2000/svg">
<path fill-rule="evenodd" clip-rule="evenodd" d="M6 0C8.206 0 10 1.794 10 4V7C10.0729 7 10.1419 7.01155 10.2129 7.01855C9.87689 7.22655 9.58784 7.51209 9.38184 7.87109L9.02148 8.5H2C1.725 8.5 1.5 8.725 1.5 9V14C1.5 14.275 1.725 14.5 2 14.5H5.79297C5.72697 14.952 5.79221 15.4089 5.99121 15.8359C5.97021 15.8909 5.94385 15.945 5.92285 16H2C0.897 16 0 15.103 0 14V9C0 7.897 0.897 7 2 7V4C2 1.794 3.794 0 6 0ZM6 1.5C4.621 1.5 3.5 2.621 3.5 4V7H8.5V4C8.5 2.621 7.379 1.5 6 1.5Z" fill="black"/>
<path fill-rule="evenodd" clip-rule="evenodd" d="M10.4668 8.49219C10.9211 7.7023 12.0811 7.70203 12.5352 8.49219L15.8467 14.2656C16.2914 15.0404 15.7191 15.9997 14.8125 16H8.18945C7.28149 16 6.70938 15.0406 7.15527 14.2656L10.4668 8.49219ZM10.875 14.999H12.125V13.749H10.875V14.999ZM10.875 12.749H12.125V10.499H10.875V12.749Z" fill="black"/>
</svg>
