<svg width="20" height="19" viewBox="0 0 20 19" fill="none" xmlns="http://www.w3.org/2000/svg">
<path d="M12 4C12 6.20914 10.2091 8 8 8C5.79086 8 4 6.20914 4 4C4 1.79086 5.79086 0 8 0C10.2091 0 12 1.79086 12 4Z" fill="black"/>
<path fill-rule="evenodd" clip-rule="evenodd" d="M17.375 12.883C19.164 12.421 20.401 10.587 19.88 8.568C19.575 7.389 18.611 6.425 17.433 6.121C17.116 6.039 16.803 6 16.5 6C14.567 6 13 7.567 13 9.5C13 11.129 14.118 12.486 15.625 12.876V19H17.375V18H19V15.5H17.375V12.883ZM14.75 9.5C14.75 8.535 15.535 7.75 16.5 7.75C16.662 7.75 16.828 7.772 16.995 7.815C17.561 7.961 18.039 8.44 18.186 9.006C18.384 9.774 18.083 10.316 17.886 10.57C17.551 11.002 17.046 11.25 16.501 11.25C15.535 11.25 14.75 10.465 14.75 9.5Z" fill="black"/>
<path d="M14.375 13.736C12.865 12.982 11.859 11.466 11.768 9.75H4.75C2.127 9.75 0 11.877 0 14.5V18H14.375V13.736Z" fill="black"/>
</svg>
