<svg width="16" height="16" viewBox="0 0 16 16" fill="none" xmlns="http://www.w3.org/2000/svg">
<path d="M9.75 2.55702V1.04102C13.263 1.41602 16 4.38802 16 8.00002C16 11.612 13.263 14.584 9.75 14.959V13.443C12.428 13.075 14.5 10.778 14.5 8.00002C14.5 5.22202 12.428 2.92502 9.75 2.55702Z" fill="black"/>
<path d="M5.517 1.71601L3.721 4.77401C3.68487 4.83658 3.66039 4.90458 3.63592 4.97255L3.626 5.00001H1.333C0.597 5.00001 0 5.59701 0 6.33301V9.66601C0 10.403 0.597 11 1.333 11H3.626L3.63821 11.034C3.66171 11.0998 3.68517 11.1654 3.721 11.226L5.516 14.284C6.205 15.456 8 14.968 8 13.609V2.39101C8 1.03201 6.205 0.544009 5.517 1.71601Z" fill="black"/>
<path d="M9.75 4.32605V11.675C11.462 11.3271 12.75 9.81505 12.75 8.00105C12.75 6.18605 11.462 4.67305 9.75 4.32605Z" fill="black"/>
</svg>
