<svg width="16" height="16" viewBox="0 0 16 16" fill="none" xmlns="http://www.w3.org/2000/svg">
<g clip-path="url(#clip0_1202_2705)">
<path d="M13.804 13.0969C14.5024 12.4018 15.0561 11.5751 15.433 10.6647C15.8099 9.75434 16.0027 8.77824 16 7.79289C16 7.62713 15.9342 7.46816 15.8169 7.35095C15.6997 7.23374 15.5408 7.16789 15.375 7.16789C15.2092 7.16789 15.0503 7.23374 14.9331 7.35095C14.8159 7.46816 14.75 7.62713 14.75 7.79289C14.75 9.46189 14.1 11.0319 12.919 12.2119C12.3402 12.7942 11.6515 13.2559 10.893 13.5702C10.1345 13.8845 9.32108 14.0452 8.5 14.0429C5.054 14.0429 2.25 11.2389 2.25 7.79289C2.25 4.34689 5.054 1.54289 8.5 1.54289C9.551 1.54289 10.566 1.81789 11.478 2.31489L10.353 3.43989C10.2832 3.50988 10.2358 3.59896 10.2166 3.6959C10.1974 3.79284 10.2074 3.89328 10.2453 3.98455C10.2832 4.07582 10.3472 4.15381 10.4294 4.20869C10.5116 4.26357 10.6082 4.29287 10.707 4.29289L14.227 4.29289L14.5 4.01989L14.5 0.499894C14.5 0.400959 14.4706 0.304253 14.4156 0.222017C14.3606 0.139782 14.2824 0.0757127 14.191 0.0379193C14.0996 0.000125787 13.999 -0.00969309 13.902 0.00970539C13.805 0.0291039 13.7159 0.0768476 13.646 0.146894L12.395 1.39789C11.2235 0.677116 9.87544 0.294663 8.5 0.292894C4.364 0.292893 1 3.65689 1 7.79289C1 11.9289 4.364 15.2929 8.5 15.2929C10.503 15.2929 12.387 14.5129 13.804 13.0969Z" fill="black"/>
<path d="M8.51847 11.0795C9.81392 11.0795 10.6946 10.2358 10.6918 9.05966C10.6946 7.94602 9.91619 7.14489 8.8679 7.14489C8.35653 7.14489 7.91619 7.35795 7.71165 7.64489H7.67756L7.82812 6.1875H10.3707V5.18182H6.81392L6.53835 8.25L7.6321 8.44602C7.81108 8.20455 8.15767 8.05398 8.50142 8.05398C9.08665 8.05682 9.5071 8.48011 9.5071 9.09091C9.5071 9.69602 9.09517 10.1136 8.51847 10.1136C8.02983 10.1136 7.63494 9.80682 7.60653 9.35511H6.41335C6.43608 10.3608 7.31392 11.0795 8.51847 11.0795Z" fill="black"/>
</g>
<defs>
<clipPath id="clip0_1202_2705">
<rect width="16" height="16" fill="white"/>
</clipPath>
</defs>
</svg>
