<svg width="90" height="75" viewBox="0 0 90 75" fill="none" xmlns="http://www.w3.org/2000/svg">
<path d="M85.6909 12.9082H18.0423C15.6622 12.9082 13.7324 14.838 13.7324 17.2181V24.714V70.3955C13.7324 72.4626 15.4073 74.1375 17.4744 74.1375H86.2589C88.326 74.1375 90.0009 72.4626 90.0009 70.3955V24.714V17.2181C90.0009 14.838 88.0711 12.9082 85.6909 12.9082Z" fill="url(#paint0_linear_111229_115582)"/>
<path d="M78.8726 6.55859H11.224C8.84382 6.55859 6.91406 8.48835 6.91406 10.8685V18.3643V64.0459C6.91406 66.113 8.5889 67.7879 10.656 67.7879H79.4405C81.5077 67.7879 83.1825 66.113 83.1825 64.0459V18.3657V10.8698C83.1825 8.48967 81.2527 6.55991 78.8726 6.55991V6.55859Z" fill="url(#paint1_linear_111229_115582)"/>
<path d="M33.2775 11.8066H0V57.4882C0 59.5553 1.67484 61.2302 3.74196 61.2302H72.5265C74.5936 61.2302 76.2684 59.5553 76.2684 57.4882V11.8066H33.2775Z" fill="url(#paint2_linear_111229_115582)"/>
<path d="M71.9585 0H4.30993C1.92976 0 0 1.92976 0 4.30993V11.8057H76.2697V4.30993C76.2697 1.92976 74.34 0 71.9598 0L71.9585 0Z" fill="url(#paint3_linear_111229_115582)"/>
<path d="M8.28172 8.39047C9.38566 7.9332 9.90989 6.66759 9.45263 5.56365C8.99536 4.45971 7.72975 3.93548 6.62581 4.39275C5.52187 4.85002 4.99764 6.11562 5.45491 7.21956C5.91217 8.3235 7.17778 8.84773 8.28172 8.39047Z" fill="white"/>
<path d="M14.5366 8.55366C15.7315 8.55366 16.7001 7.58501 16.7001 6.39011C16.7001 5.19522 15.7315 4.22656 14.5366 4.22656C13.3417 4.22656 12.373 5.19522 12.373 6.39011C12.373 7.58501 13.3417 8.55366 14.5366 8.55366Z" fill="white"/>
<path d="M21.6167 8.55366C22.8116 8.55366 23.7802 7.58501 23.7802 6.39011C23.7802 5.19522 22.8116 4.22656 21.6167 4.22656C20.4218 4.22656 19.4531 5.19522 19.4531 6.39011C19.4531 7.58501 20.4218 8.55366 21.6167 8.55366Z" fill="white"/>
<defs>
<linearGradient id="paint0_linear_111229_115582" x1="18.9392" y1="-9.60434" x2="86.4544" y2="99.7447" gradientUnits="userSpaceOnUse">
<stop stop-color="#D574E5"/>
<stop offset="0.28" stop-color="#E652F7"/>
<stop offset="0.35" stop-color="#D94EF6"/>
<stop offset="0.47" stop-color="#B944F6"/>
<stop offset="0.63" stop-color="#8535F5"/>
<stop offset="0.83" stop-color="#3D20F5"/>
<stop offset="0.88" stop-color="#271AF5"/>
</linearGradient>
<linearGradient id="paint1_linear_111229_115582" x1="12.0944" y1="-15.9962" x2="91.3031" y2="112.294" gradientUnits="userSpaceOnUse">
<stop stop-color="#D574E5"/>
<stop offset="0.42" stop-color="#E652F7"/>
<stop offset="0.47" stop-color="#DD4FF6"/>
<stop offset="0.56" stop-color="#C548F6"/>
<stop offset="0.66" stop-color="#9F3DF6"/>
<stop offset="0.79" stop-color="#6A2DF5"/>
<stop offset="0.93" stop-color="#271AF5"/>
</linearGradient>
<linearGradient id="paint2_linear_111229_115582" x1="-12.025" y1="-15.5085" x2="84.8645" y2="82.8551" gradientUnits="userSpaceOnUse">
<stop stop-color="white"/>
<stop offset="0.12" stop-color="#FEF9FE"/>
<stop offset="0.27" stop-color="#FCEAFE"/>
<stop offset="0.44" stop-color="#F8D2FC"/>
<stop offset="0.61" stop-color="#F3AFFB"/>
<stop offset="0.79" stop-color="#ED83F9"/>
<stop offset="0.96" stop-color="#E652F7"/>
</linearGradient>
<linearGradient id="paint3_linear_111229_115582" x1="-22.5535" y1="-19.2236" x2="103.111" y2="34.3183" gradientUnits="userSpaceOnUse">
<stop stop-color="#E552F6"/>
<stop offset="0.25" stop-color="#AD41F5"/>
<stop offset="0.71" stop-color="#4D25F4"/>
<stop offset="0.91" stop-color="#271AF4"/>
</linearGradient>
</defs>
</svg>
