<svg width="16" height="16" viewBox="0 0 16 16" fill="none" xmlns="http://www.w3.org/2000/svg">
<path fill-rule="evenodd" clip-rule="evenodd" d="M11 3H13.6C14 3 14.3 3.3 14.3 3.6C14.3 3.9 14 4.2 13.7 4.2H13.3V14C13.3 15.1 12.4 16 11.3 16H4.79999C3.69999 16 2.79999 15.1 2.79999 14V4.2H2.39999C1.99999 4.2 1.79999 4 1.79999 3.6C1.79999 3.2 1.99999 3 2.39999 3H4.99999V2C4.99999 0.9 5.89999 0 6.99999 0H8.99999C10.1 0 11 0.9 11 2V3ZM6.89999 1.2L6.29999 1.8V3H9.79999V1.8L9.19999 1.2H6.89999ZM11.4 14.7L12 14.1V4.2H3.99999V14.1L4.59999 14.7H11.4ZM6.99999 12.4C6.99999 12.7 6.69999 13 6.39999 13C6.09999 13 5.79999 12.7 5.79999 12.4V7.6C5.69999 7.3 5.99999 7 6.39999 7C6.79999 7 6.99999 7.3 6.99999 7.6V12.4ZM10.2 12.4C10.2 12.7 9.9 13 9.6 13C9.3 13 9 12.7 9 12.4V7.6C9 7.3 9.3 7 9.6 7C9.9 7 10.2 7.3 10.2 7.6V12.4Z" fill="black"/>
</svg>
