<svg width="16" height="16" viewBox="0 0 16 16" fill="none" xmlns="http://www.w3.org/2000/svg">
<path d="M2.499 12.625C2.619 12.625 2.739 12.605 2.857 12.566L6.29 11.42L13.289 4.42198C14.019 3.69098 14.019 2.50098 13.289 1.76998L12.229 0.709976C11.497 -0.0200244 10.309 -0.0200244 9.577 0.709976L2.578 7.70898L1.433 11.145C1.298 11.551 1.402 11.993 1.705 12.295C1.921 12.51 2.206 12.625 2.499 12.625ZM10.461 1.59498C10.703 1.35098 11.102 1.35098 11.344 1.59498L12.405 2.65598C12.649 2.89898 12.649 3.29598 12.405 3.53898L11.34 4.60498L9.395 2.65998L10.461 1.59498ZM3.67 8.38498L8.51 3.54498L10.454 5.48898L5.614 10.33L2.697 11.303L3.67 8.38498Z" fill="black"/>
<path d="M14.817 13.314L13.023 13.862C12.331 14.073 11.591 14.111 10.886 13.968L8.804 13.551C7.585 13.308 6.298 13.48 5.185 14.036C3.953 14.652 2.467 14.412 1.492 13.436L1.441 13.385L0.608002 14.321C1.463 15.175 2.6 15.625 3.753 15.625C4.429 15.625 5.11 15.471 5.744 15.153C6.609 14.721 7.609 14.586 8.559 14.777L10.641 15.194C11.551 15.376 12.501 15.327 13.388 15.056L15.182 14.508L14.817 13.314Z" fill="black"/>
</svg>
