<svg width="24" height="24" viewBox="0 0 24 24" fill="none" xmlns="http://www.w3.org/2000/svg">
<path fill-rule="evenodd" clip-rule="evenodd" d="M4.48719 5.625C4.07574 5.625 3.74219 5.95855 3.74219 6.37V17.63C3.74219 18.0415 4.07574 18.375 4.48719 18.375H19.4972C19.9086 18.375 20.2422 18.0415 20.2422 17.63V6.37C20.2422 5.95855 19.9086 5.625 19.4972 5.625H4.48719ZM1.99219 6.37C1.99219 4.99205 3.10924 3.875 4.48719 3.875H19.4972C20.8751 3.875 21.9922 4.99205 21.9922 6.37V17.63C21.9922 19.0079 20.8751 20.125 19.4972 20.125H4.48719C3.10924 20.125 1.99219 19.0079 1.99219 17.63V6.37Z" fill="black"/>
<path d="M8.64123 16.0994C7.0006 16.0994 5.81808 15.2223 5.82163 14.0433C5.81808 13.1342 6.51055 12.392 7.39833 12.2464V12.1967C6.62418 12.0405 6.08796 11.38 6.09151 10.5845C6.08796 9.45881 7.16751 8.62784 8.64123 8.62784C10.1114 8.62784 11.1909 9.45881 11.1945 10.5845C11.1909 11.3835 10.6476 12.0405 9.88768 12.1967V12.2464C10.7613 12.392 11.4608 13.1342 11.4644 14.0433C11.4608 15.2223 10.2819 16.0994 8.64123 16.0994ZM8.64123 14.9702C9.36921 14.9702 9.86282 14.5405 9.86282 13.9226C9.86282 13.294 9.34435 12.8395 8.64123 12.8395C7.93455 12.8395 7.41964 13.294 7.41964 13.9226C7.41964 14.5369 7.90969 14.9702 8.64123 14.9702ZM8.64123 11.7209C9.25202 11.7209 9.69237 11.3196 9.69237 10.7443C9.69237 10.1797 9.25913 9.78551 8.64123 9.78551C8.01978 9.78551 7.59009 10.1761 7.59009 10.7443C7.59009 11.3196 8.02688 11.7209 8.64123 11.7209ZM15.3526 16.0994C13.7119 16.0994 12.5294 15.2223 12.533 14.0433C12.5294 13.1342 13.2219 12.392 14.1097 12.2464V12.1967C13.3355 12.0405 12.7993 11.38 12.8028 10.5845C12.7993 9.45881 13.8788 8.62784 15.3526 8.62784C16.8227 8.62784 17.9023 9.45881 17.9058 10.5845C17.9023 11.3835 17.3589 12.0405 16.599 12.1967V12.2464C17.4726 12.392 18.1722 13.1342 18.1757 14.0433C18.1722 15.2223 16.9932 16.0994 15.3526 16.0994ZM15.3526 14.9702C16.0805 14.9702 16.5741 14.5405 16.5741 13.9226C16.5741 13.294 16.0557 12.8395 15.3526 12.8395C14.6459 12.8395 14.131 13.294 14.131 13.9226C14.131 14.5369 14.621 14.9702 15.3526 14.9702ZM15.3526 11.7209C15.9634 11.7209 16.4037 11.3196 16.4037 10.7443C16.4037 10.1797 15.9705 9.78551 15.3526 9.78551C14.7311 9.78551 14.3014 10.1761 14.3014 10.7443C14.3014 11.3196 14.7382 11.7209 15.3526 11.7209Z" fill="black"/>
</svg>
