<svg width="20" height="20" viewBox="0 0 20 20" fill="none" xmlns="http://www.w3.org/2000/svg">
<path fill-rule="evenodd" clip-rule="evenodd" d="M0 2.5C0 1.11975 1.11975 0 2.5 0H17.5C18.8802 0 20 1.11975 20 2.5V12.5C20 13.8802 18.8802 15 17.5 15H2.5C1.11975 15 0 13.8802 0 12.5V2.5ZM2.5 1.75C2.08625 1.75 1.75 2.08625 1.75 2.5V12.5C1.75 12.9138 2.08625 13.25 2.5 13.25H17.5C17.9138 13.25 18.25 12.9138 18.25 12.5V2.5C18.25 2.08625 17.9138 1.75 17.5 1.75H2.5Z" fill="black"/>
<path fill-rule="evenodd" clip-rule="evenodd" d="M2.5 19.5C1.11975 19.5 0 18.3802 0 17H1.75C1.75 17.4138 2.08625 17.75 2.5 17.75H17.5C17.9138 17.75 18.25 17.4138 18.25 17H20C20 18.3802 18.8802 19.5 17.5 19.5H2.5Z" fill="black"/>
</svg>
