<svg width="24" height="24" viewBox="0 0 24 24" fill="none" xmlns="http://www.w3.org/2000/svg">
<path fill-rule="evenodd" clip-rule="evenodd" d="M6 4.5C6 3.11975 7.11975 2 8.5 2H16.5C17.8802 2 19 3.11975 19 4.5V20.125C19 20.4382 18.8326 20.7275 18.5611 20.8836C18.2896 21.0397 17.9554 21.0387 17.6847 20.8812L12.5 17.8625L7.31526 20.8812C7.04461 21.0387 6.71039 21.0397 6.43888 20.8836C6.16738 20.7275 6 20.4382 6 20.125V4.5ZM8.5 3.75C8.08625 3.75 7.75 4.08625 7.75 4.5V18.6031L12.0597 16.0938C12.3319 15.9354 12.6681 15.9354 12.9403 16.0938L17.25 18.6031V4.5C17.25 4.08625 16.9138 3.75 16.5 3.75H8.5Z" fill="black"/>
</svg>
