<svg width="16" height="16" viewBox="0 0 16 16" fill="none" xmlns="http://www.w3.org/2000/svg">
<path fill-rule="evenodd" clip-rule="evenodd" d="M14 6C15.1042 6 16 6.89579 16 8V14C16 15.1042 15.1042 16 14 16H11C9.89579 16 9 15.1042 9 14V8C9 6.89579 9.89579 6 11 6H14ZM11 7.5C10.7242 7.5 10.5 7.72421 10.5 8V13.5H14.5V8C14.5 7.72421 14.2758 7.5 14 7.5H11Z" fill="black"/>
<path d="M13 0C14.1042 0 15 0.895786 15 2V4.5H13.5V2C13.5 1.72421 13.2758 1.5 13 1.5H3C2.72421 1.5 2.5 1.72421 2.5 2V9C2.5 9.27579 2.72421 9.5 3 9.5H7.5V12.5H0V11H3C1.89579 11 1 10.1042 1 9V2C1 0.895786 1.89579 0 3 0H13Z" fill="black"/>
</svg>
