<svg width="24" height="24" viewBox="0 0 24 24" fill="none" xmlns="http://www.w3.org/2000/svg">
<path fill-rule="evenodd" clip-rule="evenodd" d="M3 5.5C3 4.11975 4.11975 3 5.5 3H8.5C9.88025 3 11 4.11975 11 5.5V8.5C11 9.88025 9.88025 11 8.5 11H5.5C4.11975 11 3 9.88025 3 8.5V5.5ZM5.5 4.75C5.08625 4.75 4.75 5.08625 4.75 5.5V8.5C4.75 8.91375 5.08625 9.25 5.5 9.25H8.5C8.91375 9.25 9.25 8.91375 9.25 8.5V5.5C9.25 5.08625 8.91375 4.75 8.5 4.75H5.5Z" fill="black"/>
<path fill-rule="evenodd" clip-rule="evenodd" d="M12.75 5.5C12.75 4.11975 13.8698 3 15.25 3H18.25C19.6302 3 20.75 4.11975 20.75 5.5V8.5C20.75 9.88025 19.6302 11 18.25 11H15.25C13.8698 11 12.75 9.88025 12.75 8.5V5.5ZM15.25 4.75C14.8362 4.75 14.5 5.08625 14.5 5.5V8.5C14.5 8.91375 14.8362 9.25 15.25 9.25H18.25C18.6638 9.25 19 8.91375 19 8.5V5.5C19 5.08625 18.6638 4.75 18.25 4.75H15.25Z" fill="black"/>
<path fill-rule="evenodd" clip-rule="evenodd" d="M5.5 12.75C4.11975 12.75 3 13.8698 3 15.25V18.25C3 19.6302 4.11975 20.75 5.5 20.75H8.5C9.88025 20.75 11 19.6302 11 18.25V15.25C11 13.8698 9.88025 12.75 8.5 12.75H5.5ZM4.75 15.25C4.75 14.8362 5.08625 14.5 5.5 14.5H8.5C8.91375 14.5 9.25 14.8362 9.25 15.25V18.25C9.25 18.6638 8.91375 19 8.5 19H5.5C5.08625 19 4.75 18.6638 4.75 18.25V15.25Z" fill="black"/>
<path d="M15.875 15.875V13H17.625V15.875H20.5V17.625H17.625V20.5H15.875V17.625H13V15.875H15.875Z" fill="black"/>
</svg>
