<svg width="16" height="16" viewBox="0 0 16 16" fill="none" xmlns="http://www.w3.org/2000/svg">
<path fill-rule="evenodd" clip-rule="evenodd" d="M0.666748 7.33332C0.666748 3.65732 3.65741 0.666656 7.33342 0.666656C11.0094 0.666656 14.0001 3.65732 14.0001 7.33332C14.0001 7.75399 13.9561 8.16399 13.8814 8.56332C13.4467 8.41666 12.9834 8.33332 12.5001 8.33332C11.4494 8.33332 10.4854 8.70999 9.73408 9.33466L9.73463 9.33393L9.73541 9.33332H4.83342C4.09141 9.33332 3.46941 9.82199 3.25408 10.492C4.20008 11.7113 5.67475 12.5 7.33342 12.5C7.62275 12.5 7.90342 12.468 8.17941 12.422C8.17805 12.4459 8.17639 12.4697 8.17473 12.4935C8.17074 12.5508 8.16675 12.6082 8.16675 12.6667C8.16675 13.1 8.23275 13.5187 8.35142 13.914C8.01875 13.9653 7.68075 14 7.33342 14C3.65741 14 0.666748 11.0093 0.666748 7.33332ZM5.40208 6.53266C5.57608 7.20666 6.12741 7.75732 6.80075 7.93132C8.13475 8.27599 9.33342 7.27799 9.33342 5.99999C9.33342 4.89532 8.43808 3.99999 7.33342 3.99999C6.05542 3.99999 5.05741 5.19866 5.40208 6.53266Z" fill="#AE89FF"/>
<path fill-rule="evenodd" clip-rule="evenodd" d="M12.5001 16C10.6621 16 9.16675 14.5047 9.16675 12.6667C9.16675 10.8287 10.6621 9.33332 12.5001 9.33332C14.3381 9.33332 15.8334 10.8287 15.8334 12.6667C15.8334 14.5047 14.3381 16 12.5001 16ZM13.0001 10.6667V11.6667H12.0001V10.6667H13.0001ZM13.0001 12.5V14.6667H12.0001V12.5H13.0001Z" fill="#AE89FF"/>
</svg>
