<svg width="16" height="16" viewBox="0 0 16 16" fill="none" xmlns="http://www.w3.org/2000/svg">
<path fill-rule="evenodd" clip-rule="evenodd" d="M5.33333 7.33335V5.33335C5.33333 3.86054 6.52719 2.66669 8 2.66669C9.47281 2.66669 10.6667 3.86054 10.6667 5.33335V7.33335H10.8333C11.4773 7.33335 12 7.85602 12 8.50002V12.1667C12 12.8107 11.4773 13.3334 10.8333 13.3334H5.16667C4.52267 13.3334 4 12.8107 4 12.1667V8.50002C4 7.85602 4.52267 7.33335 5.16667 7.33335H5.33333ZM6.33333 5.33335C6.33333 4.41283 7.07948 3.66669 8 3.66669C8.92052 3.66669 9.66667 4.41283 9.66667 5.33335V7.33335H6.33333V5.33335Z" fill="#AE89FF"/>
</svg>
