<svg width="16" height="16" viewBox="0 0 16 16" fill="none" xmlns="http://www.w3.org/2000/svg">
<path d="M7.79792 12.8333H3.99992C3.72459 12.8333 3.49992 12.6086 3.49992 12.3333V2.99998C3.49992 2.72465 3.72459 2.49998 3.99992 2.49998H10.6666C10.9419 2.49998 11.1666 2.72465 11.1666 2.99998V7.76331C11.3373 7.70198 11.5193 7.66665 11.7073 7.66665H12.2959C12.3031 7.66665 12.3101 7.66751 12.3171 7.66838C12.3225 7.66903 12.3278 7.66969 12.3333 7.66998V2.99998C12.3333 2.08065 11.5859 1.33331 10.6666 1.33331H3.99992C3.08059 1.33331 2.33325 2.08065 2.33325 2.99998V12.3333C2.33325 13.2526 3.08059 14 3.99992 14H7.64925C7.55125 13.6066 7.60459 13.1893 7.79792 12.8333Z" fill="#AE89FF"/>
<path d="M5.16659 4.16665H9.49992V5.33331H5.16659V4.16665Z" fill="#AE89FF"/>
<path d="M5.16659 6.83331H9.49992V7.99998H5.16659V6.83331Z" fill="#AE89FF"/>
<path d="M7.81459 9.49998H5.16659V10.6666H7.81459V9.49998Z" fill="#AE89FF"/>
<path fill-rule="evenodd" clip-rule="evenodd" d="M14.6812 12.598L15.2379 13.1853C15.4232 13.38 15.4586 13.6786 15.3239 13.9113L15.0299 14.4206C14.9192 14.612 14.7132 14.726 14.4986 14.726C14.4506 14.726 14.4012 14.72 14.3532 14.708L13.5832 14.516C13.4152 14.6393 13.2619 14.732 13.1072 14.8026L12.8819 15.5626C12.8052 15.82 12.5646 16 12.2959 16H11.7072C11.4366 16 11.1946 15.818 11.1199 15.5566L10.9039 14.8053C10.7439 14.7333 10.5839 14.638 10.4172 14.5153L9.64791 14.7073C9.59991 14.7193 9.55058 14.7253 9.50191 14.7253C9.28658 14.7253 9.08191 14.6113 8.97124 14.42L8.67724 13.9106C8.54258 13.6773 8.57791 13.3793 8.76324 13.184L9.31924 12.598L9.31658 12.578C9.30524 12.4973 9.29458 12.4166 9.29458 12.3333C9.29458 12.2426 9.30658 12.1553 9.31858 12.068L9.32058 12.0553L8.76791 11.4833C8.57924 11.288 8.54258 10.988 8.67791 10.7533L8.97258 10.244C9.08258 10.0533 9.28858 9.93865 9.50324 9.93865C9.54991 9.93865 9.59724 9.94398 9.64391 9.95531L10.4266 10.1433C10.5892 10.0246 10.7466 9.93131 10.9039 9.86065L11.1199 9.10931C11.1946 8.84865 11.4366 8.66665 11.7072 8.66665H12.2959C12.5639 8.66665 12.8052 8.84665 12.8819 9.10465L13.1072 9.86465C13.2586 9.93398 13.4092 10.0233 13.5732 10.1433L14.3559 9.95531C14.4032 9.94398 14.4506 9.93865 14.4972 9.93865C14.7119 9.93865 14.9179 10.0533 15.0279 10.244L15.3219 10.7533C15.4572 10.988 15.4206 11.288 15.2326 11.4833L14.6799 12.0553L14.6819 12.068C14.6939 12.1553 14.7059 12.2426 14.7059 12.3333C14.7059 12.4122 14.6958 12.4886 14.6856 12.5649L14.6812 12.598ZM10.9999 12.3333C10.9999 12.8853 11.4479 13.3333 11.9999 13.3333C12.5519 13.3333 12.9999 12.8853 12.9999 12.3333C12.9999 11.7813 12.5519 11.3333 11.9999 11.3333C11.4479 11.3333 10.9999 11.7813 10.9999 12.3333Z" fill="#AE89FF"/>
</svg>
