<svg width="16" height="16" viewBox="0 0 16 16" fill="none" xmlns="http://www.w3.org/2000/svg">
<path d="M6.00999 10.1671V12.2371C6.00933 12.418 6.04447 12.5972 6.11339 12.7644C6.1823 12.9317 6.28363 13.0836 6.41154 13.2115C6.53944 13.3394 6.6914 13.4408 6.85864 13.5097C7.02588 13.5786 7.20511 13.6137 7.38599 13.6131C7.74299 13.6131 8.09399 13.4731 8.35799 13.2101L10.841 10.7261L14.934 14.8191C15.0512 14.9363 15.2102 15.0022 15.376 15.0022C15.5418 15.0022 15.7008 14.9363 15.818 14.8191C15.9352 14.7019 16.0011 14.5429 16.0011 14.3771C16.0011 14.2113 15.9352 14.0523 15.818 13.9351L11.725 9.84208L14.208 7.35808C14.603 6.96308 14.721 6.37608 14.507 5.86008C14.293 5.34408 13.795 5.01008 13.236 5.01008H11.164L10.54 4.76808L7.54699 1.77408L8.25399 1.06708C8.37122 0.949857 8.43707 0.790865 8.43707 0.625082C8.43707 0.4593 8.37122 0.300308 8.25399 0.183082C8.13677 0.0658567 7.97777 1.7468e-09 7.81199 0C7.64621 -1.7468e-09 7.48722 0.0658567 7.36999 0.183082L1.18299 6.37108C1.06577 6.48831 0.999908 6.6473 0.999908 6.81308C0.999908 6.97886 1.06577 7.13786 1.18299 7.25508C1.30022 7.37231 1.45921 7.43816 1.62499 7.43816C1.79077 7.43816 1.94977 7.37231 2.06699 7.25508L2.77199 6.54708L5.76899 9.54308L6.00999 10.1671Z" fill="black"/>
</svg>
