<svg width="16" height="16" viewBox="0 0 16 16" fill="none" xmlns="http://www.w3.org/2000/svg">
<path d="M5.75 11.75H4.25V9H5.75V11.75Z" fill="black"/>
<path d="M8.75 11.75H7.25V7.75H8.75V11.75Z" fill="black"/>
<path d="M11.75 11.75H10.25V9H11.75V11.75Z" fill="black"/>
<path fill-rule="evenodd" clip-rule="evenodd" d="M13 1C14.1042 1 15 1.89579 15 3V13C15 14.1042 14.1042 15 13 15H3C1.89579 15 1 14.1042 1 13V3C1 1.89579 1.89579 1 3 1H13ZM2.5 13C2.5 13.2758 2.72421 13.5 3 13.5H13C13.2758 13.5 13.5 13.2758 13.5 13V6H2.5V13ZM3 2.5C2.72421 2.5 2.5 2.72421 2.5 3V4.5H13.5V3C13.5 2.72421 13.2758 2.5 13 2.5H3Z" fill="black"/>
</svg>
