<svg width="16" height="16" viewBox="0 0 16 16" fill="none" xmlns="http://www.w3.org/2000/svg">
<path fill-rule="evenodd" clip-rule="evenodd" d="M15.3745 0C15.5405 0 15.6996 0.0658956 15.817 0.183202C15.9341 0.300415 16 0.459288 16.0002 0.624996C16.0004 0.790704 15.9349 0.949726 15.818 1.0672L12.193 4.6922L13.647 6.1462C13.7171 6.21613 13.7649 6.3053 13.7842 6.40241C13.8036 6.49952 13.7937 6.60019 13.7558 6.69167C13.7179 6.78314 13.6537 6.86129 13.5713 6.91622C13.4889 6.97115 13.392 7.00038 13.293 7.0002H9.30001L9.00001 6.7002V2.7072C9.00023 2.60847 9.02967 2.51202 9.08463 2.43C9.13958 2.34797 9.21759 2.28406 9.30882 2.24631C9.40005 2.20855 9.50041 2.19865 9.59725 2.21785C9.6941 2.23706 9.78309 2.2845 9.85301 2.3542L11.026 3.5272L11.307 3.8082L14.932 0.183202C15.0494 0.0658956 15.2086 0 15.3745 0ZM3.42876 8.08419C3.51115 8.02926 3.60799 8.00003 3.70701 8.00021H7.70001L8.00001 8.30021V12.2932C7.99999 12.3921 7.97062 12.4888 7.91562 12.5711C7.86061 12.6533 7.78245 12.7174 7.69101 12.7552C7.59958 12.793 7.49899 12.8028 7.40198 12.7834C7.30496 12.764 7.21588 12.7163 7.14601 12.6462L5.97301 11.4732L5.69201 11.1922L2.06701 14.8172C1.94925 14.9337 1.79035 14.9991 1.62472 14.9993C1.45909 14.9995 1.30004 14.9344 1.18201 14.8182C1.06519 14.7006 0.999634 14.5415 0.999634 14.3757C0.999634 14.2099 1.06519 14.0508 1.18201 13.9332L4.80701 10.3082L3.35301 8.85421C3.28291 8.78428 3.23514 8.69511 3.21578 8.598C3.19641 8.50089 3.20631 8.40022 3.24423 8.30874C3.28215 8.21727 3.34637 8.13912 3.42876 8.08419Z" fill="black"/>
</svg>
