<svg width="24" height="24" viewBox="0 0 24 24" fill="none" xmlns="http://www.w3.org/2000/svg">
<path fill-rule="evenodd" clip-rule="evenodd" d="M4.48719 5.625C4.07574 5.625 3.74219 5.95855 3.74219 6.37V17.63C3.74219 18.0415 4.07574 18.375 4.48719 18.375H19.4972C19.9086 18.375 20.2422 18.0415 20.2422 17.63V6.37C20.2422 5.95855 19.9086 5.625 19.4972 5.625H4.48719ZM1.99219 6.37C1.99219 4.99205 3.10924 3.875 4.48719 3.875H19.4972C20.8751 3.875 21.9922 4.99205 21.9922 6.37V17.63C21.9922 19.0079 20.8751 20.125 19.4972 20.125H4.48719C3.10924 20.125 1.99219 19.0079 1.99219 17.63V6.37Z" fill="black"/>
</svg>
