<svg width="12" height="12" viewBox="0 0 12 12" fill="none" xmlns="http://www.w3.org/2000/svg">
<path fill-rule="evenodd" clip-rule="evenodd" d="M2.25 2C1.55988 2 1 2.55988 1 3.25V8.25C1 8.94012 1.55988 9.5 2.25 9.5H0.5V10.375H11.5V9.5H9.75C10.4401 9.5 11 8.94012 11 8.25V3.25C11 2.55988 10.4401 2 9.75 2H2.25ZM1.875 3.25C1.875 3.04312 2.04312 2.875 2.25 2.875H9.75C9.95688 2.875 10.125 3.04312 10.125 3.25V8.25C10.125 8.45688 9.95688 8.625 9.75 8.625H2.25C2.04312 8.625 1.875 8.45688 1.875 8.25V3.25Z" fill="#42414D"/>
</svg>
