<svg width="24" height="24" viewBox="0 0 24 24" fill="none" xmlns="http://www.w3.org/2000/svg">
<path fill-rule="evenodd" clip-rule="evenodd" d="M2.98744 0.750244L23.2494 21.0122L22.012 22.2497L20.1405 20.3782C19.7033 20.765 19.1299 21 18.4998 21H13.9818L12.4348 21.885C12.2998 21.961 12.1488 22 11.9998 22C11.8508 22 11.6998 21.961 11.5658 21.885L10.0178 21H5.49976C4.12076 21 2.99976 19.878 2.99976 18.5V5.50005C2.99976 4.86993 3.23484 4.29646 3.62165 3.85933L1.75 1.98768L2.98744 0.750244ZM11.9998 12.2374L11.0123 11.25H6.99976V13H11.9998V12.2374ZM8.76232 9L7.01232 7.25H6.99976V9H8.76232ZM10.9998 17V15.25H6.99976V17H10.9998Z" fill="black"/>
<path d="M20.9998 5.5V16.642L7.35779 3H10.2498C10.4018 3 10.5518 3.04 10.6848 3.115L11.9998 3.867L13.3148 3.115C13.4478 3.04 13.5978 3 13.7498 3H18.4998C19.8788 3 20.9998 4.122 20.9998 5.5Z" fill="black"/>
</svg>
