<svg width="24" height="24" viewBox="0 0 24 24" fill="none" xmlns="http://www.w3.org/2000/svg">
<path d="M11.697 19.25H6C5.587 19.25 5.25 18.913 5.25 18.5V4.5C5.25 4.087 5.587 3.75 6 3.75H16C16.413 3.75 16.75 4.087 16.75 4.5V11.645C17.006 11.553 17.279 11.5 17.561 11.5H18.444C18.4548 11.5 18.4653 11.5013 18.4758 11.5026C18.4838 11.5036 18.4918 11.5046 18.5 11.505V4.5C18.5 3.121 17.379 2 16 2H6C4.621 2 3.5 3.121 3.5 4.5V18.5C3.5 19.879 4.621 21 6 21H11.474C11.327 20.41 11.407 19.784 11.697 19.25Z" fill="black"/>
<path d="M7.75 6.25H14.25V8H7.75V6.25Z" fill="black"/>
<path d="M7.75 10.25H14.25V12H7.75V10.25Z" fill="black"/>
<path d="M11.722 14.25H7.75V16H11.722V14.25Z" fill="black"/>
<path fill-rule="evenodd" clip-rule="evenodd" d="M22.022 18.897L22.857 19.778C23.135 20.07 23.188 20.518 22.986 20.867L22.545 21.631C22.379 21.918 22.07 22.089 21.748 22.089C21.676 22.089 21.602 22.08 21.53 22.062L20.375 21.774C20.123 21.959 19.893 22.098 19.661 22.204L19.323 23.344C19.208 23.73 18.847 24 18.444 24H17.561C17.155 24 16.792 23.727 16.68 23.335L16.356 22.208C16.116 22.1 15.876 21.957 15.626 21.773L14.472 22.061C14.4 22.079 14.326 22.088 14.253 22.088C13.93 22.088 13.623 21.917 13.457 21.63L13.016 20.866C12.814 20.516 12.867 20.069 13.145 19.776L13.979 18.897L13.975 18.867C13.958 18.746 13.942 18.625 13.942 18.5C13.942 18.364 13.96 18.233 13.978 18.102L13.981 18.083L13.152 17.225C12.869 16.932 12.814 16.482 13.017 16.13L13.459 15.366C13.624 15.08 13.933 14.908 14.255 14.908C14.325 14.908 14.396 14.916 14.466 14.933L15.64 15.215C15.884 15.037 16.12 14.897 16.356 14.791L16.68 13.664C16.792 13.273 17.155 13 17.561 13H18.444C18.846 13 19.208 13.27 19.323 13.657L19.661 14.797C19.888 14.901 20.114 15.035 20.36 15.215L21.534 14.933C21.605 14.916 21.676 14.908 21.746 14.908C22.068 14.908 22.377 15.08 22.542 15.366L22.983 16.13C23.186 16.482 23.131 16.932 22.849 17.225L22.02 18.083L22.023 18.102C22.041 18.233 22.059 18.364 22.059 18.5C22.059 18.6183 22.0438 18.7329 22.0286 18.8474L22.022 18.897ZM16.5 18.5C16.5 19.328 17.172 20 18 20C18.828 20 19.5 19.328 19.5 18.5C19.5 17.672 18.828 17 18 17C17.172 17 16.5 17.672 16.5 18.5Z" fill="black"/>
</svg>
