<svg width="16" height="16" viewBox="0 0 16 16" fill="none" xmlns="http://www.w3.org/2000/svg">
<path d="M16 16H10V14.5H16V16Z" fill="black"/>
<path d="M9.25 0C9.449 0 9.64027 0.0787271 9.78027 0.219727L13.7803 4.21973C13.9213 4.35973 14 4.551 14 4.75V6.49512H12.5V5.06055L12.4395 5H9.5C9.224 5 9 4.776 9 4.5V1.56055L8.93945 1.5H4C3.725 1.5 3.5 1.725 3.5 2V13C3.5 13.275 3.725 13.5 4 13.5H8.5V15H4C2.895 15 2 14.105 2 13V2C2 0.895 2.895 0 4 0H9.25Z" fill="black"/>
<path d="M14.002 11H15.3584C15.7081 11.0003 15.8826 11.423 15.6357 11.6699L13.5303 13.7764C13.3773 13.9293 13.1276 13.9294 12.9746 13.7764L10.8682 11.6689C10.6203 11.4231 10.7948 11.0004 11.1445 11H12.502V8H14.002V11Z" fill="black"/>
</svg>
