<svg width="24" height="24" viewBox="0 0 24 24" fill="none" xmlns="http://www.w3.org/2000/svg">
<path d="M12.0413 13.9956L15.499 10.5368L14.2613 9.29956L11.4222 12.1396L9.73615 10.4546L8.49908 11.6924L10.804 13.9959C11.1458 14.3375 11.6997 14.3373 12.0413 13.9956Z" fill="black"/>
<path fill-rule="evenodd" clip-rule="evenodd" d="M13.7312 2.6743C12.7755 1.71859 11.2245 1.71859 10.2688 2.6743L8.77321 4.16902H6.6595C5.30725 4.16902 4.2115 5.26477 4.2115 6.61702V8.73058L2.71678 10.2253C1.76107 11.181 1.76107 12.732 2.71678 13.6877L4.2115 15.1825V17.296C4.2115 18.6483 5.30725 19.744 6.6595 19.744H8.77306L10.2678 21.2387C11.2235 22.1944 12.7745 22.1944 13.7302 21.2387L15.2249 19.744H17.3385C18.6907 19.744 19.7865 18.6483 19.7865 17.296V15.1825L21.2809 13.6881C22.2395 12.7319 22.2385 11.1816 21.2822 10.2253L19.7875 8.73058V6.61702C19.7875 5.26477 18.6917 4.16902 17.3395 4.16902H15.2259L13.7312 2.6743ZM11.5062 3.91174C11.7785 3.63945 12.2215 3.63945 12.4938 3.91174L14.2448 5.66274C14.4089 5.82683 14.6314 5.91902 14.8635 5.91902H17.3395C17.7253 5.91902 18.0375 6.23127 18.0375 6.61702V9.09302C18.0375 9.32508 18.1297 9.54764 18.2938 9.71174L20.0448 11.4627C20.3183 11.7362 20.3175 12.1774 20.0448 12.4493L18.2928 14.2013C18.1287 14.3654 18.0365 14.588 18.0365 14.82V17.296C18.0365 17.6818 17.7243 17.994 17.3385 17.994H14.8625C14.6304 17.994 14.4079 18.0862 14.2438 18.2503L12.4928 20.0013C12.2205 20.2736 11.7775 20.2736 11.5052 20.0013L9.75422 18.2503C9.59012 18.0862 9.36756 17.994 9.1355 17.994H6.6595C6.27375 17.994 5.9615 17.6818 5.9615 17.296V14.82C5.9615 14.588 5.86931 14.3654 5.70522 14.2013L3.95422 12.4503C3.68193 12.178 3.68193 11.735 3.95422 11.4627L5.70522 9.71174C5.86931 9.54764 5.9615 9.32508 5.9615 9.09302V6.61702C5.9615 6.23127 6.27375 5.91902 6.6595 5.91902H9.1355C9.36748 5.91902 9.58996 5.8269 9.75404 5.66291L11.5062 3.91174Z" fill="black"/>
</svg>
