<svg width="24" height="24" viewBox="0 0 24 24" fill="none" xmlns="http://www.w3.org/2000/svg">
<path fill-rule="evenodd" clip-rule="evenodd" d="M15.227 18.75C15.7716 19.507 16.6602 20 17.664 20C18.6678 20 19.5564 19.507 20.101 18.75H20.376C21.2733 18.75 22.001 18.0222 22.001 17.125V11.7C22.001 11.5467 21.9607 11.3961 21.8842 11.2633L19.6812 7.4383C19.5251 7.16712 19.2359 7 18.923 7H15.6929C15.5596 5.74518 14.4971 4.76697 13.207 4.76697H4.5C3.11975 4.76697 2 5.88672 2 7.26697V16.25C2 17.4014 2.77817 18.3704 3.83749 18.6611C4.37516 19.4682 5.29347 20 6.336 20C7.33976 20 8.22839 19.507 8.77297 18.75H15.227ZM4.5 6.51697C4.08625 6.51697 3.75 6.85322 3.75 7.26697V15.4783C4.27173 14.5936 5.23454 14 6.336 14C7.99285 14 9.336 15.3431 9.336 17H13.957V7.26697C13.957 6.85322 13.6208 6.51697 13.207 6.51697H4.5ZM15.707 12H20.251V11.934L18.4172 8.75H15.707V12ZM5.086 17C5.086 16.3096 5.64564 15.75 6.336 15.75C7.02635 15.75 7.586 16.3096 7.586 17C7.586 17.6904 7.02635 18.25 6.336 18.25C5.64564 18.25 5.086 17.6904 5.086 17ZM16.414 17C16.414 16.3096 16.9736 15.75 17.664 15.75C18.3544 15.75 18.914 16.3096 18.914 17C18.914 17.6904 18.3544 18.25 17.664 18.25C16.9736 18.25 16.414 17.6904 16.414 17Z" fill="black"/>
</svg>
