<svg width="16" height="16" viewBox="0 0 16 16" fill="none" xmlns="http://www.w3.org/2000/svg">
<path fill-rule="evenodd" clip-rule="evenodd" d="M2.889 14L5.194 11.695L5.192 11.693L12.692 4.193L12.694 4.195L15 1.889V1.3L14.7 1H10.707C10.608 0.999824 10.5111 1.02905 10.4287 1.08398C10.3464 1.13891 10.2821 1.21706 10.2442 1.30854C10.2063 1.40001 10.1964 1.50068 10.2158 1.59779C10.2351 1.6949 10.2829 1.78407 10.353 1.854L11.807 3.308L4.307 10.808L2.853 9.354C2.78308 9.2843 2.69409 9.23686 2.59724 9.21765C2.5004 9.19845 2.40003 9.20835 2.30881 9.24611C2.21758 9.28386 2.13957 9.34777 2.08462 9.4298C2.02966 9.51182 2.00022 9.60827 2 9.707V13.7L2.3 14H2.889ZM5.902 12.402L4.304 14H6.293C6.39202 14.0002 6.48886 13.971 6.57125 13.916C6.65364 13.8611 6.71787 13.7829 6.75579 13.6915C6.7937 13.6 6.80361 13.4993 6.78424 13.4022C6.76487 13.3051 6.71711 13.2159 6.647 13.146L5.902 12.402ZM14.147 5.647L13.402 4.902L15 3.303V5.293C15 5.39182 14.9707 5.48841 14.9158 5.57059C14.8609 5.65276 14.7829 5.71683 14.6917 5.75471C14.6004 5.79258 14.4999 5.80257 14.403 5.7834C14.3061 5.76423 14.217 5.71677 14.147 5.647Z" fill="black"/>
</svg>
