<svg width="20" height="19" viewBox="0 0 20 19" fill="none" xmlns="http://www.w3.org/2000/svg">
<path fill-rule="evenodd" clip-rule="evenodd" d="M5 17.375H14.656C16.044 17.375 17.27 16.49 17.71 15.174L19.855 8.738C20.141 7.88 20.001 6.967 19.473 6.234C18.945 5.502 18.123 5.081 17.219 5.081H13.23V2.838C13.23 1.273 11.956 0 10.388 0C9.61999 0 8.94199 0.489 8.70099 1.216L7.70699 4.198C7.65799 4.343 7.59199 4.48 7.50999 4.606L5.66499 7.419H5V7.375C5 6.823 4.552 6.375 4 6.375H1C0.448 6.375 0 6.823 0 7.375V17.875C0 18.427 0.448 18.875 1 18.875H4C4.552 18.875 5 18.427 5 17.875V17.375ZM5 15.625H14.656C15.289 15.625 15.849 15.222 16.05 14.62L18.195 8.185C18.3 7.867 18.25 7.529 18.054 7.257C17.858 6.986 17.554 6.83 17.219 6.83H11.48V2.838C11.48 2.238 10.992 1.75 10.391 1.75L9.36599 4.755C9.26799 5.044 9.13699 5.316 8.97299 5.566L6.60999 9.169H5V15.625Z" fill="black"/>
</svg>
