<svg width="16" height="16" viewBox="0 0 16 16" fill="none" xmlns="http://www.w3.org/2000/svg">
<path fill-rule="evenodd" clip-rule="evenodd" d="M12.919 3.58103C11.739 2.40003 10.169 1.75003 8.5 1.75003C8.33424 1.75003 8.17527 1.68418 8.05806 1.56697C7.94085 1.44976 7.875 1.29079 7.875 1.12503C7.875 0.959267 7.94085 0.800295 8.05806 0.683085C8.17527 0.565875 8.33424 0.500027 8.5 0.500027C9.48535 0.497378 10.4614 0.690092 11.3719 1.06702C12.2823 1.44396 13.1089 1.99763 13.804 2.69603C15.22 4.11303 16 5.99703 16 8.00003C16 9.95066 15.2374 11.824 13.875 13.22L12.991 12.336C14.1192 11.1746 14.7502 9.61918 14.75 8.00003C14.7523 7.17895 14.5917 6.36558 14.2774 5.60703C13.963 4.84849 13.5013 4.15986 12.919 3.58103ZM5 2.28603V4.34503L2.655 2.00003H4.714L5 2.28603ZM11.948 8.60804L10.239 9.58404L6 5.34504V5.20104C6.00006 5.07839 6.03235 4.95791 6.09363 4.85166C6.15491 4.74542 6.24303 4.65714 6.34916 4.59567C6.45529 4.5342 6.57571 4.50169 6.69836 4.50141C6.82101 4.50112 6.94158 4.53306 7.048 4.59404L11.948 7.39304C12.055 7.4543 12.144 7.54274 12.2058 7.64942C12.2677 7.7561 12.3002 7.87722 12.3002 8.00054C12.3002 8.12385 12.2677 8.24497 12.2058 8.35165C12.144 8.45833 12.055 8.54677 11.948 8.60804ZM1.067 2.18302C0.948637 2.07064 0.791063 2.00894 0.627862 2.01105C0.464661 2.01317 0.308741 2.07894 0.19333 2.19435C0.0779204 2.30976 0.0121483 2.46568 0.0100319 2.62888C0.00791562 2.79209 0.0696225 2.94966 0.182001 3.06802L1.79 4.67402C1.27281 5.70661 1.00237 6.84516 1 8.00002C1 12.136 4.364 15.5 8.5 15.5C9.65381 15.4983 10.7912 15.2264 11.821 14.706L12.932 15.817C13.0495 15.9341 13.2086 15.9998 13.3745 15.9998C13.5404 15.9998 13.6995 15.9341 13.817 15.817C13.9338 15.6994 13.9994 15.5403 13.9994 15.3745C13.9994 15.2087 13.9338 15.0497 13.817 14.932L1.067 2.18302ZM8.5 14.25C6.84297 14.2482 5.25433 13.5891 4.08263 12.4174C2.91093 11.2457 2.25185 9.65706 2.25 8.00002C2.25 7.17402 2.423 6.37002 2.734 5.61802L6 8.88502V10.799C5.99999 10.9216 6.03217 11.0421 6.09333 11.1483C6.15448 11.2545 6.24247 11.3429 6.34848 11.4044C6.45449 11.466 6.5748 11.4986 6.69739 11.4991C6.81998 11.4995 6.94054 11.4678 7.047 11.407L7.985 10.871L10.875 13.761C10.1235 14.0796 9.31623 14.2458 8.5 14.25Z" fill="black"/>
</svg>
