<svg width="16" height="16" viewBox="0 0 16 16" fill="none" xmlns="http://www.w3.org/2000/svg">
<path fill-rule="evenodd" clip-rule="evenodd" d="M12.586 3.414C12.994 3.006 13.495 2.824 13.986 2.824C15.014 2.824 16 3.623 16 4.828V11.171C16 12.377 15.014 13.175 13.986 13.175C13.494 13.175 12.993 12.992 12.586 12.585L10.75 10.766V9.5H11.268L13.47 11.701C13.5362 11.7715 13.6161 11.8278 13.7049 11.8663C13.7936 11.9048 13.8893 11.9248 13.986 11.925C14.303 11.925 14.75 11.691 14.75 11.171V4.828C14.75 4.308 14.303 4.074 13.986 4.074C13.8893 4.07439 13.7937 4.09445 13.705 4.13296C13.6163 4.17147 13.5363 4.22762 13.47 4.298L11.268 6.5H10.75V3.85L10.15 3.25H3.142L2.12 2.228C2.387 2.093 2.68 2 3 2H10C10.5304 2 11.0391 2.21071 11.4142 2.58579C11.7893 2.96086 12 3.46957 12 4L12.586 3.414ZM0.627862 2.76102C0.791063 2.75891 0.948637 2.82061 1.067 2.93299L12.067 13.932C12.1838 14.0496 12.2494 14.2087 12.2494 14.3745C12.2494 14.5403 12.1838 14.6994 12.067 14.817C12.0092 14.8755 11.9404 14.922 11.8645 14.9537C11.7887 14.9854 11.7072 15.0018 11.625 15.0018C11.5428 15.0018 11.4613 14.9854 11.3855 14.9537C11.3096 14.922 11.2408 14.8755 11.183 14.817L10.333 14H3C2.46957 14 1.96086 13.7893 1.58579 13.4142C1.21071 13.0391 1 12.5304 1 12V4.63499L0.182001 3.81799C0.0696225 3.69963 0.00791562 3.54205 0.0100319 3.37885C0.0121483 3.21565 0.0779204 3.05973 0.19333 2.94432C0.308741 2.82891 0.464661 2.76314 0.627862 2.76102ZM2.25 12.15L2.85 12.75H9.115L2.25 5.88499V12.15Z" fill="black"/>
</svg>
