<svg width="16" height="16" viewBox="0 0 16 16" fill="none" xmlns="http://www.w3.org/2000/svg">
<path fill-rule="evenodd" clip-rule="evenodd" d="M9.74998 3.5C9.74998 2.811 9.18898 2.25 8.49998 2.25C7.81098 2.25 7.24998 2.811 7.24998 3.5V6.5C7.24998 7.189 7.81098 7.75 8.49998 7.75C9.18898 7.75 9.74998 7.189 9.74998 6.5V3.5ZM6.73222 1.73223C7.20106 1.26339 7.83694 1 8.49998 1C9.16303 1 9.79891 1.26339 10.2678 1.73223C10.7366 2.20107 11 2.83696 11 3.5V6.5C11 7.16304 10.7366 7.79893 10.2678 8.26777C9.79891 8.73661 9.16303 9 8.49998 9C7.83694 9 7.20106 8.73661 6.73222 8.26777C6.26338 7.79893 5.99998 7.16304 5.99998 6.5V3.5C5.99998 2.83696 6.26338 2.20107 6.73222 1.73223ZM7.87498 13.75V11.617L7.58498 11.377C6.69685 11.198 5.88411 10.7533 5.25456 10.1018C4.62501 9.45025 4.2084 8.62274 4.05998 7.729C4.04637 7.64804 4.04884 7.56519 4.06726 7.48518C4.08568 7.40518 4.11968 7.32959 4.16732 7.26272C4.21496 7.19586 4.2753 7.13904 4.34491 7.09551C4.41451 7.05197 4.49201 7.02258 4.57298 7.009C4.73631 6.98287 4.90336 7.02202 5.03807 7.118C5.17278 7.21398 5.26434 7.35909 5.29298 7.522C5.55598 9.092 6.90398 10.232 8.49898 10.232C10.094 10.232 11.442 9.092 11.705 7.522C11.7179 7.44074 11.7469 7.36287 11.7903 7.29293C11.8336 7.22299 11.8905 7.16238 11.9575 7.11463C12.0245 7.06688 12.1003 7.03295 12.1806 7.01481C12.2609 6.99668 12.3439 6.9947 12.425 7.009C12.5059 7.02258 12.5834 7.05197 12.653 7.09551C12.7227 7.13904 12.783 7.19586 12.8306 7.26272C12.8783 7.32959 12.9123 7.40518 12.9307 7.48518C12.9491 7.56519 12.9516 7.64804 12.938 7.729C12.7891 8.62545 12.3703 9.45519 11.7377 10.1075C11.105 10.7598 10.2885 11.2037 9.39698 11.38L9.12498 11.617V13.75H10.875C11.0407 13.75 11.1997 13.8158 11.3169 13.9331C11.4341 14.0503 11.5 14.2092 11.5 14.375C11.5 14.5408 11.4341 14.6997 11.3169 14.8169C11.1997 14.9342 11.0407 15 10.875 15H6.12498C5.95922 15 5.80025 14.9342 5.68304 14.8169C5.56583 14.6997 5.49998 14.5408 5.49998 14.375C5.49998 14.2092 5.56583 14.0503 5.68304 13.9331C5.80025 13.8158 5.95922 13.75 6.12498 13.75H7.87498Z" fill="black"/>
</svg>
