<svg width="16" height="16" viewBox="0 0 16 16" fill="none" xmlns="http://www.w3.org/2000/svg">
<path fill-rule="evenodd" clip-rule="evenodd" d="M1 12.25V4C1 3.46957 1.21071 2.96086 1.58579 2.58579C1.96086 2.21071 2.46957 2 3 2H14C14.5304 2 15.0391 2.21071 15.4142 2.58579C15.7893 2.96086 16 3.46957 16 4V12.25C16 12.7804 15.7893 13.2891 15.4142 13.6642C15.0391 14.0393 14.5304 14.25 14 14.25H3C2.46957 14.25 1.96086 14.0393 1.58579 13.6642C1.21071 13.2891 1 12.7804 1 12.25ZM14.75 12.4V3.85L14.15 3.25H2.85L2.25 3.85V12.4L2.85 13H14.15L14.75 12.4ZM9.06695 11.8169C9.18416 11.6997 9.25 11.5408 9.25 11.375V8H11.307C11.4059 7.99978 11.5024 7.97027 11.5845 7.91518C11.6666 7.8601 11.7305 7.78193 11.7682 7.69054C11.8058 7.59915 11.8156 7.49864 11.7961 7.40172C11.7767 7.3048 11.729 7.21581 11.659 7.146L8.836 4.323H8.412L5.589 7.146C5.5189 7.21593 5.47113 7.3051 5.45176 7.40221C5.4324 7.49932 5.4423 7.59999 5.48022 7.69146C5.51814 7.78294 5.58236 7.86109 5.66475 7.91602C5.74714 7.97095 5.84398 8.00018 5.943 8H7.999L8 11.375C8 11.5408 8.06585 11.6997 8.18306 11.8169C8.30027 11.9342 8.45924 12 8.625 12C8.79076 12 8.94974 11.9342 9.06695 11.8169Z" fill="black"/>
</svg>
