<svg width="16" height="16" viewBox="0 0 16 16" fill="none" xmlns="http://www.w3.org/2000/svg">
<path fill-rule="evenodd" clip-rule="evenodd" d="M0.585786 3.58579C0.960859 3.21071 1.46957 3 2 3H14C14.5304 3 15.0391 3.21071 15.4142 3.58579C15.7893 3.96086 16 4.46957 16 5V10C16 10.5304 15.7893 11.0391 15.4142 11.4142C15.0391 11.7893 14.5304 12 14 12H2C1.46957 12 0.960859 11.7893 0.585786 11.4142C0.210714 11.0391 0 10.5304 0 10V5C0 4.46957 0.210714 3.96086 0.585786 3.58579ZM14.15 10.75L14.75 10.15V4.85L14.15 4.25H1.85L1.25 4.85V10.15L1.85 10.75H14.15ZM3.25 7H4L4.25 7.25V8L4 8.25H3.25L3 8V7.25L3.25 7Z" fill="black"/>
</svg>
