<svg width="16" height="16" viewBox="0 0 16 16" fill="none" xmlns="http://www.w3.org/2000/svg">
<path d="M12 2H9.25V1.125C9.25 0.95924 9.18415 0.800269 9.06694 0.683058C8.94973 0.565848 8.79076 0.5 8.625 0.5C8.45924 0.5 8.30027 0.565848 8.18306 0.683058C8.06585 0.800269 8 0.95924 8 1.125V2H5.414C5.28266 1.99986 5.1526 2.02568 5.03127 2.07596C4.90994 2.12624 4.79974 2.2 4.707 2.293L3.293 3.707C3.10545 3.89449 3.00006 4.14881 3 4.414V5C3 5.26522 3.10536 5.51957 3.29289 5.70711C3.48043 5.89464 3.73478 6 4 6H8V14.875C8 15.0408 8.06585 15.1997 8.18306 15.3169C8.30027 15.4342 8.45924 15.5 8.625 15.5C8.79076 15.5 8.94973 15.4342 9.06694 15.3169C9.18415 15.1997 9.25 15.0408 9.25 14.875V6H12C12.2652 6 12.5196 5.89464 12.7071 5.70711C12.8946 5.51957 13 5.26522 13 5V3C13 2.73478 12.8946 2.48043 12.7071 2.29289C12.5196 2.10536 12.2652 2 12 2Z" fill="black"/>
</svg>
