<svg width="16" height="16" viewBox="0 0 16 16" fill="none" xmlns="http://www.w3.org/2000/svg">
<path fill-rule="evenodd" clip-rule="evenodd" d="M2.31903 0.65895C3.91203 -0.80305 6.41703 0.17195 6.69203 4.00995C6.71203 4.28195 6.67903 4.61895 6.61703 4.95695L2.31903 0.65895ZM14.817 14.9329L1.06703 1.18295C0.948668 1.07057 0.791094 1.00886 0.627893 1.01098C0.464692 1.01309 0.308771 1.07887 0.193361 1.19428C0.0779509 1.30969 0.0121788 1.46561 0.0100625 1.62881C0.00794614 1.79201 0.069653 1.94958 0.182032 2.06795L1.12803 3.01395C1.01857 3.58942 0.978615 4.17595 1.00903 4.76095C1.03603 5.38295 1.32103 6.12195 1.49903 6.53095C1.60376 6.77208 1.68319 7.02342 1.73603 7.28095L2.04503 8.75495H5.54803L5.72503 7.60995L10.115 11.9999H9.57003C9.43742 11.9999 9.31025 12.0526 9.21648 12.1464C9.12271 12.2402 9.07003 12.3673 9.07003 12.4999V12.9999C9.07003 14.0999 9.97003 14.9999 11.07 14.9999C11.632 14.9999 12.135 14.7589 12.496 14.3809L13.932 15.8169C14.0493 15.9343 14.2083 16.0003 14.3742 16.0004C14.5401 16.0005 14.6992 15.9347 14.8165 15.8174C14.9339 15.7002 14.9999 15.5412 15 15.3753C15.0001 15.2094 14.9343 15.0503 14.817 14.9329ZM12.41 10.7499L9.51703 7.85695C9.50986 7.83882 9.50447 7.82069 9.49906 7.80248L9.49906 7.80246L9.49905 7.80245L9.49904 7.80243C9.49163 7.77748 9.48417 7.75238 9.47203 7.72695C9.20403 7.13995 9.18203 6.11295 9.33903 5.48795C10.755 -0.153051 16.074 1.49995 14.806 7.21395C14.671 7.82195 14.263 8.50095 14.016 8.87195C13.87 9.09195 13.751 9.32495 13.653 9.56995L13.163 10.7499H12.41ZM6.00003 10.9999V10.4999C6.00003 10.3673 5.94735 10.2402 5.85358 10.1464C5.75982 10.0526 5.63264 9.99995 5.50003 9.99995H2.50003C2.36742 9.99995 2.24025 10.0526 2.14648 10.1464C2.05271 10.2402 2.00003 10.3673 2.00003 10.4999V10.9999C2.00003 12.0999 2.90003 12.9999 4.00003 12.9999C5.10003 12.9999 6.00003 12.0999 6.00003 10.9999Z" fill="black"/>
</svg>
