<svg width="16" height="16" viewBox="0 0 16 16" fill="none" xmlns="http://www.w3.org/2000/svg">
<path fill-rule="evenodd" clip-rule="evenodd" d="M1.067 0.183008L15.817 14.933C15.8751 14.991 15.9211 15.06 15.9525 15.1358C15.9839 15.2116 16.0001 15.2929 16.0001 15.375C16.0001 15.4571 15.9839 15.5384 15.9525 15.6142C15.9211 15.6901 15.8751 15.759 15.817 15.817C15.6995 15.9341 15.5404 15.9998 15.3745 15.9998C15.2086 15.9998 15.0495 15.9341 14.932 15.817L11.115 12H9.3L9 12.3V14.5C9 14.8978 8.84196 15.2794 8.56066 15.5607C8.27936 15.842 7.89782 16 7.5 16H7.497C7.35226 15.9999 7.21122 15.9542 7.09386 15.8695C6.97649 15.7848 6.88873 15.6653 6.843 15.528L6 13L4.25 10.331V5.13501L3 3.88501V10C3 10.2652 2.89464 10.5196 2.70711 10.7071C2.51957 10.8947 2.26522 11 2 11H1C0.734784 11 0.48043 10.8947 0.292893 10.7071C0.105357 10.5196 0 10.2652 0 10V3.00001C0 2.73479 0.105357 2.48044 0.292893 2.2929C0.48043 2.10536 0.734784 2.00001 1 2.00001H1.115L0.182 1.06801C0.0696214 0.949644 0.00791455 0.79207 0.0100309 0.628869C0.0121472 0.465669 0.0779193 0.309748 0.193329 0.194338C0.308739 0.0789275 0.46466 0.0131553 0.627861 0.011039C0.791062 0.0089227 0.948636 0.0706295 1.067 0.183008ZM13.229 4.36801L14.896 9.36801C15.0256 9.75732 15.0315 10.1772 14.9129 10.57C14.7944 10.9628 14.5573 11.3093 14.234 11.562L5.672 3.00001H11.332C11.7518 3.00012 12.1608 3.13229 12.5013 3.37782C12.8418 3.62334 13.0964 3.96976 13.229 4.36801Z" fill="black"/>
</svg>
