<svg width="16" height="16" viewBox="0 0 16 16" fill="none" xmlns="http://www.w3.org/2000/svg">
<path fill-rule="evenodd" clip-rule="evenodd" d="M5.60003 2.99995H4.40003L4.03403 3.36595L3.04703 2.37895C4.06777 1.47739 5.31529 0.871607 6.65503 0.626953L7.03203 0.910953C7.01203 1.10495 7.00003 1.30095 7.00003 1.49995C7.00092 2.96218 7.49497 4.38137 8.4023 5.52805C9.30962 6.67473 10.5772 7.48186 12 7.81895V8.59995L12.4 8.99995H13.6L14 8.59995V7.96095C14.433 7.92695 14.857 7.86395 15.263 7.75395L15.5 7.99995C15.5006 9.82521 14.8321 11.5874 13.621 12.953L9.00003 8.33195V7.39995L8.60003 6.99995H7.66803L5.63403 4.96595L6.00003 4.59995V3.39995L5.60003 2.99995ZM0.627893 2.01098C0.791094 2.00886 0.948668 2.07057 1.06703 2.18295L13.817 14.9319C13.9339 15.0496 13.9994 15.2087 13.9994 15.3744C13.9994 15.5402 13.9339 15.6993 13.817 15.8169C13.6995 15.934 13.5404 15.9997 13.3745 15.9997C13.2087 15.9997 13.0495 15.934 12.932 15.8169L11.659 14.5439C10.577 15.1519 9.33003 15.4999 8.00003 15.4999C6.01091 15.4999 4.10325 14.7098 2.69673 13.3032C1.29021 11.8967 0.500032 9.98907 0.500032 7.99995C0.499096 6.71891 0.828721 5.45931 1.45703 4.34295L0.182032 3.06795C0.069653 2.94958 0.00794614 2.79201 0.0100625 2.62881C0.0121788 2.46561 0.0779509 2.30969 0.193361 2.19428C0.308771 2.07887 0.464692 2.01309 0.627893 2.01098ZM2.00003 8.59995L2.40003 8.99995H3.60003L4.00003 8.59995V7.39995L3.60003 6.99995H2.40003L2.00003 7.39995V8.59995ZM5.60003 12.9999L6.00003 12.5999V11.3999L5.60003 10.9999H4.40003L4.00003 11.3999V12.5999L4.40003 12.9999H5.60003Z" fill="black"/>
</svg>
