<svg width="24" height="24" viewBox="0 0 24 24" fill="none" xmlns="http://www.w3.org/2000/svg">
<path fill-rule="evenodd" clip-rule="evenodd" d="M7 4.125H16.656C18.044 4.125 19.27 5.01 19.71 6.326L21.855 12.762C22.141 13.62 22.001 14.533 21.473 15.266C20.945 15.998 20.123 16.419 19.219 16.419H15.23V18.662C15.23 20.227 13.956 21.5 12.388 21.5C11.62 21.5 10.942 21.011 10.701 20.284L9.70699 17.302C9.65799 17.157 9.59199 17.02 9.50999 16.894L7.66499 14.081H7V14.125C7 14.677 6.552 15.125 6 15.125H3C2.448 15.125 2 14.677 2 14.125V3.625C2 3.073 2.448 2.625 3 2.625H6C6.552 2.625 7 3.073 7 3.625V4.125ZM7 5.875H16.656C17.289 5.875 17.849 6.278 18.05 6.88L20.195 13.315C20.3 13.633 20.25 13.971 20.054 14.243C19.858 14.514 19.554 14.67 19.219 14.67H13.48V18.662C13.48 19.262 12.992 19.75 12.391 19.75L11.366 16.745C11.268 16.456 11.137 16.184 10.973 15.934L8.60999 12.331H7V5.875Z" fill="black"/>
</svg>
