<svg width="24" height="24" viewBox="0 0 24 24" fill="none" xmlns="http://www.w3.org/2000/svg">
<path d="M3.5 19.25H11.486C11.325 19.825 11.383 20.451 11.662 21H3.5C2.121 21 1 19.878 1 18.5V16.125C1 15.642 1.392 15.25 1.875 15.25H4.25C5.215 15.25 6 14.465 6 13.5C6 12.535 5.215 11.75 4.25 11.75H1.875C1.392 11.75 1 11.358 1 10.875V8.5C1 7.122 2.121 6 3.5 6H6V4.5C6 2.57 7.57 1 9.5 1C11.43 1 13 2.57 13 4.5V6H15.5C16.879 6 18 7.122 18 8.5V11H17.561C17.083 11 16.633 11.149 16.25 11.398V8.5C16.25 8.086 15.913 7.75 15.5 7.75H12.125C11.642 7.75 11.25 7.358 11.25 6.875V4.5C11.25 3.535 10.465 2.75 9.5 2.75C8.535 2.75 7.75 3.535 7.75 4.5V6.875C7.75 7.358 7.358 7.75 6.875 7.75H3.5C3.087 7.75 2.75 8.086 2.75 8.5V10H4.25C6.18 10 7.75 11.57 7.75 13.5C7.75 15.43 6.18 17 4.25 17H2.75V18.5C2.75 18.914 3.087 19.25 3.5 19.25Z" fill="black"/>
<path fill-rule="evenodd" clip-rule="evenodd" d="M22.022 18.397L22.857 19.278C23.135 19.57 23.188 20.018 22.986 20.367L22.545 21.131C22.379 21.418 22.07 21.589 21.748 21.589C21.676 21.589 21.602 21.58 21.53 21.562L20.375 21.274C20.123 21.459 19.893 21.598 19.661 21.704L19.323 22.844C19.208 23.23 18.847 23.5 18.444 23.5H17.561C17.154 23.5 16.792 23.227 16.68 22.836L16.356 21.709C16.116 21.601 15.876 21.458 15.626 21.274L14.472 21.562C14.4 21.58 14.326 21.589 14.253 21.589C13.93 21.589 13.623 21.418 13.457 21.131L13.016 20.367C12.814 20.017 12.867 19.57 13.145 19.277L13.979 18.398L13.975 18.368C13.958 18.247 13.942 18.126 13.942 18.001C13.942 17.865 13.96 17.734 13.978 17.603L13.981 17.584L13.152 16.726C12.869 16.433 12.814 15.983 13.017 15.631L13.459 14.867C13.624 14.581 13.933 14.409 14.255 14.409C14.325 14.409 14.396 14.417 14.466 14.434L15.64 14.716C15.884 14.538 16.12 14.398 16.356 14.292L16.68 13.165C16.792 12.774 17.155 12.501 17.561 12.501H18.444C18.847 12.501 19.208 12.771 19.323 13.157L19.661 14.297C19.888 14.401 20.114 14.535 20.36 14.715L21.534 14.433C21.605 14.416 21.676 14.408 21.746 14.408C22.068 14.408 22.377 14.58 22.542 14.866L22.983 15.63C23.186 15.982 23.131 16.432 22.849 16.725L22.02 17.583L22.023 17.602C22.041 17.733 22.059 17.864 22.059 18C22.059 18.1183 22.0438 18.2329 22.0286 18.3474L22.022 18.397ZM16.5 18C16.5 18.828 17.172 19.5 18 19.5C18.828 19.5 19.5 18.828 19.5 18C19.5 17.172 18.828 16.5 18 16.5C17.172 16.5 16.5 17.172 16.5 18Z" fill="black"/>
</svg>
