<svg width="17" height="20" viewBox="0 0 17 20" fill="none" xmlns="http://www.w3.org/2000/svg">
<path fill-rule="evenodd" clip-rule="evenodd" d="M8.5 1.75C7.53325 1.75 6.75 2.53325 6.75 3.5V5.875C6.75 6.35825 6.35825 6.75 5.875 6.75H2.5C2.08625 6.75 1.75 7.08625 1.75 7.5V9H3.25C5.18325 9 6.75 10.5668 6.75 12.5C6.75 14.4332 5.18325 16 3.25 16H1.75V17.5C1.75 17.9138 2.08625 18.25 2.5 18.25H14.5C14.9138 18.25 15.25 17.9138 15.25 17.5V7.5C15.25 7.08625 14.9138 6.75 14.5 6.75H11.125C10.6418 6.75 10.25 6.35825 10.25 5.875V3.5C10.25 2.53325 9.46675 1.75 8.5 1.75ZM5 3.5C5 1.56675 6.56675 0 8.5 0C10.4332 0 12 1.56675 12 3.5V5H14.5C15.8802 5 17 6.11975 17 7.5V17.5C17 18.8802 15.8802 20 14.5 20H2.5C1.11975 20 0 18.8802 0 17.5V15.125C0 14.6418 0.391751 14.25 0.875 14.25H3.25C4.21675 14.25 5 13.4668 5 12.5C5 11.5332 4.21675 10.75 3.25 10.75H0.875C0.391751 10.75 0 10.3582 0 9.875V7.5C0 6.11975 1.11975 5 2.5 5H5V3.5Z" fill="black"/>
</svg>
