<svg width="24" height="24" viewBox="0 0 24 24" fill="none" xmlns="http://www.w3.org/2000/svg">
<path d="M2 4.5C2 3.11975 3.11975 2 4.5 2H11.5C11.7321 2 11.9546 2.09219 12.1187 2.25628L16.7437 6.88128C16.9078 7.04538 17 7.26794 17 7.5V11H15.25V8.5H11.5C10.948 8.5 10.5 8.052 10.5 7.5V3.75H4.5C4.08625 3.75 3.75 4.08625 3.75 4.5V18.5C3.75 18.9138 4.08625 19.25 4.5 19.25H13V21H4.5C3.11975 21 2 19.8802 2 18.5V4.5Z" fill="black"/>
<path d="M19 13H17.25V17H15.638C14.964 17 14.627 17.815 15.103 18.291L17.59 20.778C17.886 21.073 18.365 21.073 18.66 20.778L21.147 18.291C21.623 17.815 21.286 17 20.612 17H19V13Z" fill="black"/>
</svg>
