<svg width="16" height="16" viewBox="0 0 16 16" fill="none" xmlns="http://www.w3.org/2000/svg">
<path fill-rule="evenodd" clip-rule="evenodd" d="M11.3718 1.06702C12.2822 1.44396 13.1089 1.99763 13.804 2.69603C15.22 4.11303 16 5.99703 16 8.00003C16 12.136 12.636 15.5 8.49999 15.5C4.36399 15.5 0.999986 12.136 0.999986 8.00003C1.00176 6.62459 1.38421 5.27648 2.10499 4.10503L0.853986 2.85403C0.78394 2.78416 0.736196 2.69508 0.716798 2.59806C0.697399 2.50105 0.707218 2.40046 0.745012 2.30903C0.782805 2.21759 0.846874 2.13943 0.92911 2.08442C1.01135 2.02942 1.10805 2.00005 1.20699 2.00003H4.72699L4.99999 2.27303V5.79303C4.99997 5.89184 4.97066 5.98844 4.91579 6.07061C4.86091 6.15278 4.78291 6.21685 4.69164 6.25473C4.60037 6.29261 4.49993 6.30259 4.40299 6.28342C4.30605 6.26425 4.21697 6.21679 4.14699 6.14703L3.02199 5.02203C2.52499 5.93403 2.24999 6.94903 2.24999 8.00003C2.24999 11.446 5.05399 14.25 8.49999 14.25C11.946 14.25 14.75 11.446 14.75 8.00003C14.7523 7.17895 14.5916 6.36558 14.2773 5.60703C13.963 4.84849 13.5013 4.15986 12.919 3.58103C11.739 2.40003 10.169 1.75003 8.49999 1.75003C8.33423 1.75003 8.17525 1.68418 8.05804 1.56697C7.94083 1.44976 7.87499 1.29079 7.87499 1.12503C7.87499 0.959267 7.94083 0.800295 8.05804 0.683085C8.17525 0.565875 8.33423 0.500027 8.49999 0.500027C9.48533 0.497378 10.4614 0.690092 11.3718 1.06702ZM5.99998 5.20104V10.799C6.00015 10.9215 6.03246 11.0419 6.09369 11.148C6.15491 11.2541 6.24291 11.3422 6.34889 11.4037C6.45487 11.4651 6.57512 11.4977 6.69763 11.4981C6.82013 11.4985 6.94059 11.4668 7.04698 11.406L11.947 8.60704C12.054 8.54577 12.1429 8.45733 12.2048 8.35065C12.2666 8.24397 12.2992 8.12285 12.2992 7.99954C12.2992 7.87622 12.2666 7.7551 12.2048 7.64842C12.1429 7.54175 12.054 7.4533 11.947 7.39204L7.04698 4.59304C6.94052 4.53227 6.81996 4.50052 6.69738 4.50098C6.57479 4.50144 6.45447 4.53408 6.34846 4.59564C6.24245 4.6572 6.15447 4.74552 6.09331 4.85176C6.03216 4.95801 5.99997 5.07845 5.99998 5.20104Z" fill="black"/>
</svg>
