<svg width="16" height="16" viewBox="0 0 16 16" fill="none" xmlns="http://www.w3.org/2000/svg">
<path fill-rule="evenodd" clip-rule="evenodd" d="M1.85 11.75H6.013C6.032 12.182 6.099 12.6 6.212 13H2C1.46957 13 0.960859 12.7893 0.585786 12.4142C0.210714 12.0391 0 11.5304 0 11V2C0 1.46957 0.210714 0.960859 0.585786 0.585786C0.960859 0.210714 1.46957 0 2 0H12C12.5304 0 13.0391 0.210714 13.4142 0.585786C13.7893 0.960859 14 1.46957 14 2V6.605C13.608 6.405 13.189 6.25 12.75 6.148V5.25H1.25V11.15L1.85 11.75ZM1.85 1.25L1.25 1.85V4H12.75V1.85L12.15 1.25H1.85ZM8.31802 8.31802C9.16193 7.47411 10.3065 7 11.5 7C12.6935 7 13.8381 7.47411 14.682 8.31802C15.5259 9.16193 16 10.3065 16 11.5C16 12.6935 15.5259 13.8381 14.682 14.682C13.8381 15.5259 12.6935 16 11.5 16C10.3065 16 9.16193 15.5259 8.31802 14.682C7.47411 13.8381 7 12.6935 7 11.5C7 10.3065 7.47411 9.16193 8.31802 8.31802ZM13.312 8.804C12.794 8.454 12.171 8.25 11.5 8.25C10.6384 8.25106 9.81234 8.59381 9.20307 9.20307C8.59381 9.81234 8.25106 10.6384 8.25 11.5C8.24961 12.1458 8.44256 12.7769 8.804 13.312L13.312 8.804ZM9.688 14.196C10.2229 14.558 10.8541 14.751 11.5 14.75C12.3616 14.7489 13.1877 14.4062 13.7969 13.7969C14.4062 13.1877 14.7489 12.3616 14.75 11.5C14.75 10.83 14.545 10.206 14.196 9.688L9.688 14.196Z" fill="black"/>
</svg>
