<svg width="16" height="16" viewBox="0 0 16 16" fill="none" xmlns="http://www.w3.org/2000/svg">
<path d="M13.986 2.824C13.495 2.824 12.994 3.006 12.586 3.414L12 4C12 3.46957 11.7893 2.96086 11.4142 2.58579C11.0391 2.21071 10.5304 2 10 2H3C2.46957 2 1.96086 2.21071 1.58579 2.58579C1.21071 2.96086 1 3.46957 1 4V12C1 12.5304 1.21071 13.0391 1.58579 13.4142C1.96086 13.7893 2.46957 14 3 14H10C10.5304 14 11.0391 13.7893 11.4142 13.4142C11.7893 13.0391 12 12.5304 12 12L12.586 12.586C12.993 12.993 13.494 13.176 13.986 13.176C15.014 13.176 16 12.378 16 11.172V4.828C16 3.623 15.014 2.824 13.986 2.824ZM14.75 11.172C14.75 11.692 14.303 11.926 13.986 11.926C13.8893 11.9258 13.7936 11.9058 13.7049 11.8673C13.6161 11.8288 13.5362 11.7725 13.47 11.702L12.884 11.116L11.268 9.5H10.75V12.15L10.15 12.75H2.85L2.25 12.15V3.85L2.85 3.25H10.15L10.75 3.85V6.5H11.268L12.884 4.884L13.47 4.298C13.5363 4.22762 13.6163 4.17147 13.705 4.13296C13.7937 4.09445 13.8893 4.07439 13.986 4.074C14.303 4.074 14.75 4.308 14.75 4.828V11.172Z" fill="black"/>
</svg>
