<svg width="16" height="16" viewBox="0 0 16 16" fill="none" xmlns="http://www.w3.org/2000/svg">
<path fill-rule="evenodd" clip-rule="evenodd" d="M3 1C2.46957 1 1.96086 1.21071 1.58579 1.58579C1.21071 1.96086 1 2.46957 1 3V13C1 13.5304 1.21071 14.0391 1.58579 14.4142C1.96086 14.7893 2.46957 15 3 15H13C13.5304 15 14.0391 14.7893 14.4142 14.4142C14.7893 14.0391 15 13.5304 15 13V3C15 2.46957 14.7893 1.96086 14.4142 1.58579C14.0391 1.21071 13.5304 1 13 1H3ZM13.75 13.15L13.15 13.75H2.85L2.25 13.15V2.85L2.85 2.25H13.15L13.75 2.85V13.15ZM11 12H5C4.73478 12 4.48043 11.8946 4.29289 11.7071C4.10536 11.5196 4 11.2652 4 11V9.679C3.99991 9.48079 4.07829 9.2906 4.218 9.15L6.35 7.005C6.41945 6.93511 6.502 6.87959 6.59292 6.84161C6.68384 6.80363 6.78135 6.78394 6.87988 6.78366C6.97841 6.78339 7.07603 6.80253 7.16716 6.83999C7.2583 6.87745 7.34115 6.93251 7.411 7.002L9.523 9.104L10.135 8.52701C10.2773 8.39274 10.4664 8.31936 10.662 8.32254C10.8576 8.32572 11.0442 8.40519 11.182 8.544L11.782 9.149C11.9217 9.2896 12.0001 9.47979 12 9.67801V11C12 11.2652 11.8946 11.5196 11.7071 11.7071C11.5196 11.8946 11.2652 12 11 12ZM10.4 5H11.6L12 5.4V6.6L11.6 7H10.4L10 6.6V5.4L10.4 5Z" fill="black"/>
</svg>
