<svg width="16" height="16" viewBox="0 0 16 16" fill="none" xmlns="http://www.w3.org/2000/svg">
<path d="M6 11H4.25V9.25H6V11Z" fill="black"/>
<path d="M9.5 11H7.75V9.25H9.5V11Z" fill="black"/>
<path fill-rule="evenodd" clip-rule="evenodd" d="M14 6.5C15.1042 6.5 16 7.39579 16 8.5V12.5C16 13.6042 15.1042 14.5 14 14.5H3C1.89579 14.5 1 13.6042 1 12.5V8.5C1 7.39579 1.89579 6.5 3 6.5H12.5V2H14V6.5ZM3 8C2.72421 8 2.5 8.22421 2.5 8.5V12.5C2.5 12.7758 2.72421 13 3 13H14C14.2758 13 14.5 12.7758 14.5 12.5V8.5C14.5 8.22421 14.2758 8 14 8H3Z" fill="black"/>
<path d="M5.33398 3C6.07292 3 6.75595 3.22185 7.33691 3.5918L6.0752 4.85352C5.9812 4.94652 5.85368 5 5.72168 5H4.94727C4.81427 5 4.68677 4.94654 4.59277 4.85254L3.33105 3.59082C3.91203 3.22187 4.59504 3 5.33398 3Z" fill="black"/>
<path d="M5.33398 0C6.97192 0 8.47599 0.566829 9.66797 1.50977L8.58398 2.59375C7.67101 1.91681 6.55593 1.5 5.33398 1.5C4.11204 1.5 2.99696 1.9168 2.08398 2.59375L1 1.50977C2.19198 0.566823 3.69604 3.63117e-06 5.33398 0Z" fill="black"/>
</svg>
