<svg width="16" height="16" viewBox="0 0 16 16" fill="none" xmlns="http://www.w3.org/2000/svg">
<path fill-rule="evenodd" clip-rule="evenodd" d="M8.00003 1.25C11.171 1.25 13.75 3.778 13.75 6.884C13.75 7.87 13.011 9.327 11.693 11.035L12.584 11.926C13.906 10.237 15 8.387 15 6.884C15 3.082 11.866 0 8.00003 0C5.97003 0 4.14803 0.855 2.87003 2.212L3.75503 3.097C4.29726 2.5134 4.95421 2.04811 5.68468 1.73028C6.41515 1.41245 7.2034 1.24894 8.00003 1.25ZM1.06703 2.183C0.948668 2.07062 0.791094 2.00892 0.627893 2.01103C0.464692 2.01315 0.308771 2.07892 0.193361 2.19433C0.0779509 2.30974 0.0121788 2.46566 0.0100625 2.62886C0.00794614 2.79206 0.069653 2.94964 0.182032 3.068L1.49803 4.384C1.17343 5.17774 1.00437 6.02646 1.00003 6.884C1.00003 9.601 4.57503 13.458 6.61503 15.437C6.98568 15.798 7.48263 16 8.00003 16C8.51743 16 9.01439 15.798 9.38503 15.437C9.92058 14.9164 10.4418 14.3812 10.948 13.832L12.933 15.817C12.9909 15.8753 13.0598 15.9216 13.1357 15.9531C13.2115 15.9847 13.2929 16.0009 13.375 16.0009C13.4572 16.0009 13.5385 15.9847 13.6144 15.9531C13.6903 15.9216 13.7591 15.8753 13.817 15.817C13.9339 15.6994 13.9994 15.5403 13.9994 15.3745C13.9994 15.2087 13.9339 15.0496 13.817 14.932L1.06703 2.183ZM8.51403 14.54C8.45199 14.6003 8.37991 14.6494 8.30103 14.685H7.69903C7.62015 14.6494 7.54807 14.6003 7.48603 14.54C4.20703 11.359 2.25003 8.497 2.25003 6.884C2.25003 6.354 2.33003 5.842 2.47203 5.356L10.06 12.944C9.56049 13.4911 9.04493 14.0233 8.51403 14.54ZM8.00003 5.25C7.43003 5.25 6.92803 5.528 6.60803 5.951L5.72403 5.066C6.00286 4.73326 6.35102 4.46545 6.74415 4.28132C7.13729 4.09719 7.56591 4.00118 8.00003 4C8.79568 4 9.55874 4.31607 10.1214 4.87868C10.684 5.44129 11 6.20435 11 7C10.9989 7.43423 10.9029 7.86297 10.7185 8.25614C10.5342 8.64931 10.2661 8.9974 9.93303 9.276L9.04903 8.392C9.47203 8.072 9.75003 7.57 9.75003 7C9.75003 6.035 8.96503 5.25 8.00003 5.25Z" fill="black"/>
</svg>
