<svg width="16" height="16" viewBox="0 0 16 16" fill="none" xmlns="http://www.w3.org/2000/svg">
<g clip-path="url(#clip0_5999_1418)">
<path d="M6 11H4.25V9.25H6V11Z" fill="black"/>
<path fill-rule="evenodd" clip-rule="evenodd" d="M16 14.9395L14.9395 16L13.4395 14.5H3C1.897 14.5 1 13.603 1 12.5V8.5C1 7.397 1.897 6.5 3 6.5H5.43945L0 1.06055L1.06055 0L16 14.9395ZM3 8C2.725 8 2.5 8.224 2.5 8.5V12.5C2.5 12.776 2.725 13 3 13H11.9395L9.93945 11H8.25V9.31055L6.93945 8H3Z" fill="black"/>
<path d="M14 6.5L14.2041 6.51074C15.2115 6.61331 16 7.46592 16 8.5V12.5C16 12.701 15.9613 12.8922 15.9062 13.0762L14.5 11.6699V8.5C14.5 8.22401 14.275 8.00002 14 8H10.8301L9.33008 6.5H12.5V2H14V6.5Z" fill="black"/>
<path d="M5.87012 3.04004C6.40401 3.11904 6.89899 3.31289 7.33691 3.59082L6.87891 4.04883L5.87012 3.04004Z" fill="black"/>
<path d="M5.33398 0C6.97193 2.20074e-07 8.47599 0.566824 9.66797 1.50977L8.58398 2.59375C7.67101 1.9168 6.55593 1.5 5.33398 1.5C5.01902 1.5 4.71206 1.53002 4.41309 1.58301L3.18262 0.352539C3.86162 0.131539 4.58098 0 5.33398 0Z" fill="black"/>
</g>
<defs>
<clipPath id="clip0_5999_1418">
<rect width="16" height="16" fill="white"/>
</clipPath>
</defs>
</svg>
