<svg width="16" height="16" viewBox="0 0 16 16" fill="none" xmlns="http://www.w3.org/2000/svg">
<g clip-path="url(#clip0_5999_1380)">
<path fill-rule="evenodd" clip-rule="evenodd" d="M13.0557 11.9941L13.0605 12L16 14.9395L14.9395 16L12.4395 13.5H0V12H3C1.897 12 1 11.103 1 10V4C1 3.46387 1.21215 2.97663 1.55664 2.61719L0 1.06055L1.06055 0L13.0557 11.9941ZM2.61914 3.67969C2.54585 3.76665 2.5 3.87755 2.5 4V10C2.5 10.276 2.725 10.5 3 10.5H9.43945L2.61914 3.67969Z" fill="black"/>
<path d="M16 13.1699L14.8301 12H16V13.1699Z" fill="black"/>
<path d="M13 2C14.103 2.00002 15 2.89701 15 4V10C15 10.595 14.7343 11.1242 14.3203 11.4912L13.252 10.4219C13.3969 10.3339 13.5 10.182 13.5 10V4C13.5 3.72401 13.275 3.50002 13 3.5H6.33008L4.83008 2H13Z" fill="black"/>
</g>
<defs>
<clipPath id="clip0_5999_1380">
<rect width="16" height="16" fill="white"/>
</clipPath>
</defs>
</svg>
