<svg width="16" height="16" viewBox="0 0 16 16" fill="none" xmlns="http://www.w3.org/2000/svg">
<path fill-rule="evenodd" clip-rule="evenodd" d="M15.817 14.933L1.06703 0.183008C0.948668 0.0706295 0.791094 0.0089227 0.627893 0.011039C0.464692 0.0131553 0.308771 0.0789275 0.193361 0.194338C0.0779509 0.309748 0.0121788 0.465669 0.0100625 0.628869C0.00794614 0.79207 0.069653 0.949644 0.182032 1.06801L6.04303 6.92901C6.13117 7.43497 6.37335 7.90138 6.73651 8.26453C7.09966 8.62769 7.56607 8.86987 8.07203 8.95801L9.24803 10.134C9.00351 10.1966 8.75241 10.2298 8.50003 10.233C7.73095 10.2353 6.98614 9.96393 6.39878 9.46745C5.81143 8.97096 5.41983 8.28173 5.29403 7.52301C5.26539 7.3601 5.17383 7.21499 5.03912 7.11901C4.90441 7.02303 4.73736 6.98388 4.57403 7.01001C4.49306 7.02358 4.41557 7.05298 4.34596 7.09651C4.27636 7.14005 4.21601 7.19687 4.16837 7.26373C4.12073 7.33059 4.08673 7.40619 4.06832 7.48619C4.0499 7.5662 4.04742 7.64905 4.06103 7.73001C4.20945 8.62375 4.62606 9.45126 5.25561 10.1028C5.88516 10.7543 6.6979 11.199 7.58603 11.378L7.87503 11.618V13.751H6.12503C5.96373 13.7575 5.81118 13.8261 5.69933 13.9425C5.58749 14.0589 5.52503 14.2141 5.52503 14.3755C5.52503 14.5369 5.58749 14.6921 5.69933 14.8085C5.81118 14.9249 5.96373 14.9936 6.12503 15H10.875C11.0408 15 11.1998 14.9342 11.317 14.817C11.4342 14.6997 11.5 14.5408 11.5 14.375C11.5 14.2092 11.4342 14.0503 11.317 13.9331C11.1998 13.8159 11.0408 13.75 10.875 13.75H9.12503V11.617L9.39703 11.38C9.68703 11.322 9.96403 11.228 10.23 11.116L14.932 15.818C15.0501 15.9342 15.2091 15.9993 15.3747 15.9991C15.5404 15.9989 15.6993 15.9335 15.817 15.817C15.8751 15.759 15.9211 15.6901 15.9526 15.6142C15.984 15.5384 16.0001 15.4571 16.0001 15.375C16.0001 15.2929 15.984 15.2116 15.9526 15.1358C15.9211 15.06 15.8751 14.991 15.817 14.933ZM7.25004 3.50001C7.25004 2.81101 7.81104 2.25001 8.50004 2.25001C9.18904 2.25001 9.75004 2.81101 9.75004 3.50001V6.50001C9.75004 6.67701 9.71104 6.84401 9.64404 6.99701L10.56 7.91301C10.8471 7.49777 11.0006 7.00481 11 6.50001V3.50001C11 2.83697 10.7366 2.20108 10.2678 1.73224C9.79896 1.2634 9.16308 1.00001 8.50004 1.00001C7.86149 1.00097 7.24766 1.24692 6.78511 1.68714C6.32256 2.12736 6.04657 2.72829 6.01404 3.36601L7.25004 4.60201V3.50001ZM12.9307 7.48519C12.9492 7.5652 12.9516 7.64805 12.938 7.72901C12.8288 8.38294 12.5746 9.00412 12.194 9.54701L11.292 8.64501C11.498 8.29946 11.638 7.91868 11.705 7.52201C11.718 7.44075 11.747 7.36288 11.7903 7.29294C11.8337 7.223 11.8905 7.16239 11.9575 7.11464C12.0245 7.06689 12.1004 7.03296 12.1807 7.01482C12.2609 6.99669 12.344 6.99471 12.425 7.00901C12.506 7.02258 12.5835 7.05198 12.6531 7.09551C12.7227 7.13905 12.783 7.19587 12.8307 7.26273C12.8783 7.32959 12.9123 7.40519 12.9307 7.48519Z" fill="black"/>
</svg>
