<svg width="16" height="16" viewBox="0 0 16 16" fill="none" xmlns="http://www.w3.org/2000/svg">
<path fill-rule="evenodd" clip-rule="evenodd" d="M2.317 0.182936L15.817 13.6829C15.9343 13.8003 16.0002 13.9595 16.0002 14.1254C16.0002 14.2914 15.9343 14.4506 15.817 14.5679C15.7591 14.6262 15.6902 14.6725 15.6144 14.7041C15.5385 14.7356 15.4572 14.7519 15.375 14.7519C15.2928 14.7519 15.2115 14.7356 15.1356 14.7041C15.0598 14.6725 14.9909 14.6262 14.933 14.5679L14.205 13.8399C13.871 14.0959 13.455 14.2499 13 14.2499H2C1.46957 14.2499 0.960859 14.0392 0.585786 13.6641C0.210714 13.2891 0 12.7804 0 12.2499V3.99994C0 3.4695 0.210714 2.9608 0.585786 2.58572C0.960859 2.21065 1.46957 1.99994 2 1.99994H2.365L1.433 1.06794C1.31564 0.95071 1.24966 0.791665 1.24956 0.62579C1.24947 0.459914 1.31527 0.300794 1.4325 0.183436C1.54973 0.0660778 1.70877 9.38683e-05 1.87465 1.00075e-07C2.04052 -9.36681e-05 2.19964 0.0657104 2.317 0.182936ZM1.85 12.9999H13.15L13.257 12.8919L8.365 7.99994H8.25V11.3749C8.25 11.5407 8.18415 11.6997 8.06694 11.8169C7.94973 11.9341 7.79076 11.9999 7.625 11.9999C7.45924 11.9999 7.30027 11.9341 7.18306 11.8169C7.06585 11.6997 7 11.5407 7 11.3749L6.999 7.99994H4.943C4.84398 8.00011 4.74714 7.97089 4.66475 7.91596C4.58236 7.86103 4.51813 7.78287 4.48022 7.6914C4.4423 7.59993 4.43239 7.49925 4.45176 7.40215C4.47113 7.30504 4.51889 7.21587 4.589 7.14594L6.05 5.68494L3.615 3.24994H1.85L1.25 3.84994V12.3999L1.85 12.9999ZM13.75 3.84994L13.15 3.24994H7.159L5.909 1.99994H13C13.5304 1.99994 14.0391 2.21065 14.4142 2.58572C14.7893 2.96079 15 3.4695 15 3.99994V11.0909L13.75 9.84093V3.84994Z" fill="black"/>
</svg>
