<svg width="16" height="16" viewBox="0 0 16 16" fill="none" xmlns="http://www.w3.org/2000/svg">
<path fill-rule="evenodd" clip-rule="evenodd" d="M2.62786 1.01104C2.79106 1.00892 2.94864 1.07063 3.067 1.18301L15.817 13.932C15.9295 14.0502 15.9914 14.2078 15.9895 14.371C15.9875 14.5342 15.9219 14.6902 15.8067 14.8057C15.6914 14.9212 15.5355 14.9872 15.3723 14.9895C15.2091 14.9918 15.0515 14.9303 14.933 14.818L12.66 12.545C11.294 13.465 9.687 14 8 14C4.507 14 1.325 11.756 0 8.40401V7.59501C0.689308 5.85589 1.90996 4.37872 3.488 3.37401L2.182 2.06801C2.06962 1.94964 2.00791 1.79207 2.01003 1.62887C2.01215 1.46567 2.07792 1.30975 2.19333 1.19434C2.30874 1.07893 2.46466 1.01316 2.62786 1.01104ZM9.289 9.17401L6.826 6.71101C6.475 7.03101 6.25 7.48801 6.25 8.00001C6.25 8.96501 7.035 9.75001 8 9.75001C8.512 9.75001 8.969 9.52601 9.289 9.17401ZM1.17 8.00001C2.331 10.894 4.987 12.75 8 12.75C9.33723 12.7507 10.6476 12.3747 11.781 11.665L10.168 10.052C9.624 10.633 8.858 11 8 11C6.346 11 5 9.65401 5 8.00001C5.0003 7.59285 5.08465 7.19014 5.24778 6.81709C5.4109 6.44404 5.64928 6.10868 5.948 5.83201L4.371 4.25501C2.91642 5.11168 1.78978 6.4298 1.17 8.00001ZM5.993 2.27501C6.644 2.11001 7.313 2.00001 8 2.00001C11.493 2.00001 14.675 4.24401 16 7.59501V8.40401C15.6482 9.28514 15.1595 10.1052 14.552 10.834L13.689 9.97101C14.1622 9.37237 14.5465 8.70852 14.83 8.00001C13.669 5.10601 11.013 3.25001 8 3.25001C7.67935 3.25289 7.35928 3.27761 7.042 3.32401L5.993 2.27501Z" fill="black"/>
</svg>
