<svg width="16" height="16" viewBox="0 0 16 16" fill="none" xmlns="http://www.w3.org/2000/svg">
<path fill-rule="evenodd" clip-rule="evenodd" d="M1.567 0.183008C1.44864 0.0706295 1.29106 0.0089227 1.12786 0.011039C0.96466 0.0131553 0.808739 0.0789275 0.693329 0.194338C0.577919 0.309748 0.512147 0.465669 0.510031 0.628869C0.507915 0.79207 0.569621 0.949644 0.682 1.06801L2.615 3.00001H2C1.46957 3.00001 0.960859 3.21072 0.585786 3.58579C0.210714 3.96087 0 4.46957 0 5.00001V10C0 10.5304 0.210714 11.0391 0.585786 11.4142C0.960859 11.7893 1.46957 12 2 12H11.615L14.433 14.818C14.491 14.8762 14.5599 14.9224 14.6358 14.9539C14.7117 14.9854 14.793 15.0016 14.8752 15.0015C14.9574 15.0014 15.0387 14.985 15.1145 14.9534C15.1904 14.9217 15.2592 14.8754 15.317 14.817C15.4338 14.6994 15.4994 14.5403 15.4994 14.3745C15.4994 14.2087 15.4338 14.0497 15.317 13.932L1.567 0.183008ZM1.85 10.75L1.25 10.15V4.85001L1.85 4.25001H3.865L10.365 10.75H1.85ZM4 7.00002H3.25L3 7.25002V8.00002L3.25 8.25002H4L4.25 8.00002V7.25002L4 7.00002ZM6.157 3.00002H14C14.5304 3.00002 15.0391 3.21073 15.4142 3.5858C15.7893 3.96087 16 4.46958 16 5.00002V10C15.9991 10.3647 15.8981 10.7221 15.708 11.0334C15.5179 11.3446 15.246 11.5977 14.922 11.765L13.907 10.75H14.15L14.75 10.15V4.85002L14.15 4.25002H7.407L6.157 3.00002Z" fill="black"/>
</svg>
