<svg width="17" height="16" viewBox="0 0 17 16" fill="none" xmlns="http://www.w3.org/2000/svg">
<path fill-rule="evenodd" clip-rule="evenodd" d="M12.375 13H12.379L1.05702 1.68301C0.938658 1.57063 0.781084 1.50892 0.617883 1.51104C0.454682 1.51316 0.298761 1.57893 0.183351 1.69434C0.0679411 1.80975 0.00216901 1.96567 5.26915e-05 2.12887C-0.00206363 2.29207 0.0596432 2.44964 0.172022 2.56801L1.14202 3.53801C0.937221 3.72261 0.773387 3.9481 0.661086 4.19991C0.548786 4.45173 0.490511 4.72429 0.490022 5.00001V11C0.490022 11.5304 0.700736 12.0391 1.07581 12.4142C1.45088 12.7893 1.95959 13 2.49002 13H5.42002C6.08902 13 6.71302 12.666 7.08402 12.109L7.65802 11.248C7.74332 11.1216 7.85704 11.017 7.99006 10.9425C8.12308 10.868 8.27171 10.8257 8.42402 10.819L11.923 14.318C11.9809 14.3763 12.0498 14.4226 12.1256 14.4541C12.2015 14.4857 12.2829 14.502 12.365 14.502C12.4472 14.502 12.5285 14.4857 12.6044 14.4541C12.6803 14.4226 12.7491 14.3763 12.807 14.318C12.9238 14.2004 12.9894 14.0413 12.9894 13.8755C12.9894 13.7097 12.9238 13.5507 12.807 13.433L12.375 13ZM6.61802 10.555L6.04402 11.416C5.97554 11.5187 5.88275 11.603 5.7739 11.6612C5.66504 11.7195 5.54349 11.75 5.42002 11.75H2.34002L1.74002 11.15V4.85001L2.02902 4.42301L7.42602 9.82001C7.10502 9.99201 6.82602 10.242 6.61802 10.555ZM8.14803 7.00002H12.865C13.0308 7.00002 13.1898 6.93417 13.307 6.81696C13.4242 6.69975 13.49 6.54078 13.49 6.37502C13.49 6.20925 13.4242 6.05028 13.307 5.93307C13.1898 5.81586 13.0308 5.75002 12.865 5.75002H6.89803L8.14803 7.00002ZM4.14803 3.00002H14.49C15.0205 3.00002 15.5292 3.21073 15.9042 3.5858C16.2793 3.96087 16.49 4.46958 16.49 5.00002V11C16.49 11.5304 16.2793 12.0392 15.9042 12.4142C15.5292 12.7893 15.0205 13 14.49 13H14.148L12.898 11.75H14.64L15.24 11.15V4.85002L14.64 4.25002H5.39803L4.14803 3.00002Z" fill="black"/>
</svg>
