<svg width="20" height="17" viewBox="0 0 20 17" fill="none" xmlns="http://www.w3.org/2000/svg">
<path fill-rule="evenodd" clip-rule="evenodd" d="M2.5 1.75C2.08625 1.75 1.75 2.08625 1.75 2.5V14.5C1.75 14.9138 2.08625 15.25 2.5 15.25H17.5C17.9138 15.25 18.25 14.9138 18.25 14.5V5.5C18.25 5.08625 17.9138 4.75 17.5 4.75H10.67C10.4371 4.75 10.2138 4.65714 10.0496 4.49199L7.54256 1.97099C7.40214 1.82965 7.2114 1.75 7.011 1.75H2.5ZM0 2.5C0 1.11975 1.11975 0 2.5 0H7.011C7.6766 0 8.31416 0.264653 8.78374 0.737307L11.0339 3H17.5C18.8802 3 20 4.11975 20 5.5V14.5C20 15.8802 18.8802 17 17.5 17H2.5C1.11975 17 0 15.8802 0 14.5V2.5Z" fill="black"/>
</svg>
