<svg width="15" height="20" viewBox="0 0 15 20" fill="none" xmlns="http://www.w3.org/2000/svg">
<path fill-rule="evenodd" clip-rule="evenodd" d="M0 7.5C0 3.35775 3.35775 0 7.5 0C11.6422 0 15 3.35775 15 7.5C15 10.0675 13.7 12.3121 11.746 13.6598L11.1874 15.8301C11.0879 16.2168 10.7392 16.487 10.34 16.487H4.661C4.26176 16.487 3.91315 16.2168 3.81362 15.8301L3.255 13.6599C1.30007 12.3122 0 10.0676 0 7.5ZM7.5 1.75C4.32425 1.75 1.75 4.32425 1.75 7.5C1.75 9.5568 2.84137 11.352 4.48004 12.3709C4.67124 12.4898 4.80925 12.6778 4.86538 12.8959L5.33929 14.737H9.66171L10.1356 12.8959C10.1917 12.6779 10.3297 12.4899 10.5208 12.371C12.1586 11.3521 13.25 9.55685 13.25 7.5C13.25 4.32425 10.6758 1.75 7.5 1.75Z" fill="black"/>
<path fill-rule="evenodd" clip-rule="evenodd" d="M11 20H4V18.25H11V20Z" fill="black"/>
</svg>
