<svg width="18" height="20" viewBox="0 0 18 20" fill="none" xmlns="http://www.w3.org/2000/svg">
<path d="M7.5 8V16H5.75V8H7.5Z" fill="black"/>
<path d="M11.75 8V16H10V8H11.75Z" fill="black"/>
<path fill-rule="evenodd" clip-rule="evenodd" d="M7.25 0C5.86975 0 4.75 1.11975 4.75 2.5V4H0V5.75H1.25V17.5C1.25 18.8802 2.36975 20 3.75 20H13.75C15.1302 20 16.25 18.8802 16.25 17.5V5.75H17.5V4H12.75V2.5C12.75 1.11975 11.6302 0 10.25 0H7.25ZM11 4V2.5C11 2.08625 10.6638 1.75 10.25 1.75H7.25C6.83625 1.75 6.5 2.08625 6.5 2.5V4H11ZM14.5 5.75H3V17.5C3 17.9137 3.33625 18.25 3.75 18.25H13.75C14.1638 18.25 14.5 17.9137 14.5 17.5V5.75Z" fill="black"/>
</svg>
