<svg width="16" height="16" viewBox="0 0 16 16" fill="none" xmlns="http://www.w3.org/2000/svg">
<path fill-rule="evenodd" clip-rule="evenodd" d="M12.5958 0.465711C12.6929 0.485078 12.7821 0.532843 12.852 0.602949L15.675 3.42595V3.85095L12.852 6.67395C12.7821 6.74406 12.6929 6.79182 12.5958 6.81119C12.4987 6.83055 12.398 6.82065 12.3065 6.78273C12.2151 6.74482 12.1369 6.68059 12.082 6.5982C12.0271 6.51581 11.9978 6.41897 11.998 6.31995V4.26395V4.24995H10.625C9.73022 4.25101 8.87239 4.60693 8.23968 5.23963C7.60698 5.87234 7.25106 6.73017 7.25 7.62495V10.3749C7.25 10.5407 7.18415 10.6997 7.06694 10.8169C6.94973 10.9341 6.79076 10.9999 6.625 10.9999C6.45924 10.9999 6.30027 10.9341 6.18306 10.8169C6.06585 10.6997 6 10.5407 6 10.3749V7.62495C6.00132 6.39873 6.48902 5.22311 7.35609 4.35604C8.22316 3.48897 9.39878 3.00127 10.625 2.99995H11.998V0.95695C11.9978 0.857929 12.0271 0.761085 12.082 0.678696C12.1369 0.596307 12.2151 0.532083 12.3065 0.494165C12.398 0.456248 12.4987 0.446345 12.5958 0.465711ZM12.8169 9.183C12.9342 9.30021 13 9.45919 13 9.62495V12.9999C13 13.5304 12.7893 14.0391 12.4142 14.4142C12.0391 14.7892 11.5304 14.9999 11 14.9999H2C1.46957 14.9999 0.960859 14.7892 0.585786 14.4142C0.210714 14.0391 0 13.5304 0 12.9999V3.99995C0 3.46951 0.210714 2.96081 0.585786 2.58573C0.960859 2.21066 1.46957 1.99995 2 1.99995H5.375C5.54076 1.99995 5.69973 2.06579 5.81694 2.183C5.93415 2.30022 6 2.45919 6 2.62495C6 2.79071 5.93415 2.94968 5.81694 3.06689C5.69973 3.1841 5.54076 3.24995 5.375 3.24995H1.85L1.25 3.84995V13.1499L1.85 13.7499H11.15L11.75 13.1499V9.62495C11.75 9.45919 11.8158 9.30021 11.9331 9.183C12.0503 9.06579 12.2092 8.99995 12.375 8.99995C12.5408 8.99995 12.6997 9.06579 12.8169 9.183Z" fill="black"/>
</svg>
