<svg width="24" height="24" viewBox="0 0 24 24" fill="none" xmlns="http://www.w3.org/2000/svg">
<path d="M12.6137 1.99025C12.2731 1.65527 11.7269 1.65527 11.3864 1.99025L7.49963 5.81388L8.7269 7.06141L11.125 4.70226V13H12.875V4.7022L15.2732 7.06141L16.5004 5.81388L12.6137 1.99025Z" fill="black"/>
<path fill-rule="evenodd" clip-rule="evenodd" d="M3.5 10.5C3.5 9.11975 4.61975 8 6 8H7.2V9.75H6C5.58625 9.75 5.25 10.0862 5.25 10.5V19.5C5.25 19.9137 5.58625 20.25 6 20.25H18C18.4138 20.25 18.75 19.9137 18.75 19.5V10.5C18.75 10.0862 18.4138 9.75 18 9.75H16.879V8H18C19.3802 8 20.5 9.11975 20.5 10.5V19.5C20.5 20.8802 19.3802 22 18 22H6C4.61975 22 3.5 20.8802 3.5 19.5V10.5Z" fill="black"/>
</svg>
