<svg width="18" height="18" viewBox="0 0 18 18" fill="none" xmlns="http://www.w3.org/2000/svg">
<path fill-rule="evenodd" clip-rule="evenodd" d="M11 3.5C11 1.567 12.567 0 14.5 0C16.433 0 18 1.567 18 3.5C18 5.433 16.433 7 14.5 7C13.4933 7 12.5859 6.57499 11.9474 5.89461L6.89507 8.146C6.96361 8.41933 7 8.70542 7 9C7 9.29877 6.96256 9.58881 6.89213 9.86566L11.9393 12.114C12.5783 11.4286 13.4891 11 14.5 11C16.433 11 18 12.567 18 14.5C18 16.433 16.433 18 14.5 18C12.567 18 11 16.433 11 14.5C11 14.2093 11.0354 13.9269 11.1022 13.6569L6.04409 11.4037C5.40604 12.0788 4.50221 12.5 3.5 12.5C1.567 12.5 0 10.933 0 9C0 7.067 1.567 5.5 3.5 5.5C4.50674 5.5 5.41419 5.92505 6.05271 6.60548L11.105 4.35412C11.0364 4.08075 11 3.79463 11 3.5ZM14.5 1.75C13.5335 1.75 12.75 2.5335 12.75 3.5C12.75 4.4665 13.5335 5.25 14.5 5.25C15.4665 5.25 16.25 4.4665 16.25 3.5C16.25 2.5335 15.4665 1.75 14.5 1.75ZM3.5 7.25C2.5335 7.25 1.75 8.0335 1.75 9C1.75 9.9665 2.5335 10.75 3.5 10.75C4.4665 10.75 5.25 9.9665 5.25 9C5.25 8.0335 4.4665 7.25 3.5 7.25ZM12.75 14.5C12.75 13.5335 13.5335 12.75 14.5 12.75C15.4665 12.75 16.25 13.5335 16.25 14.5C16.25 15.4665 15.4665 16.25 14.5 16.25C13.5335 16.25 12.75 15.4665 12.75 14.5Z" fill="black"/>
</svg>
