<svg width="24" height="24" viewBox="0 0 24 24" fill="none" xmlns="http://www.w3.org/2000/svg">
<path fill-rule="evenodd" clip-rule="evenodd" d="M5.5 3C4.11975 3 3 4.11975 3 5.5V18.5C3 19.8802 4.11975 21 5.5 21H18.5C19.8802 21 21 19.8802 21 18.5V5.5C21 4.11975 19.8802 3 18.5 3H5.5ZM4.75 5.5C4.75 5.08625 5.08625 4.75 5.5 4.75H8V11.504C8 11.814 8.16405 12.1009 8.43125 12.2581C8.69845 12.4154 9.0289 12.4195 9.29992 12.2689L12 10.7689L14.7001 12.2689C14.9711 12.4195 15.3015 12.4154 15.5687 12.2581C15.8359 12.1009 16 11.814 16 11.504V4.75H18.5C18.9138 4.75 19.25 5.08625 19.25 5.5V18.5C19.25 18.9138 18.9138 19.25 18.5 19.25H5.5C5.08625 19.25 4.75 18.9138 4.75 18.5V5.5ZM14.25 4.75H9.75V10.017L11.5751 9.0031C11.8393 8.8563 12.1607 8.8563 12.4249 9.0031L14.25 10.017V4.75Z" fill="black"/>
</svg>
