<svg width="24" height="24" viewBox="0 0 24 24" fill="none" xmlns="http://www.w3.org/2000/svg">
<path d="M9.31671 7.6366L7.72574 9.22757L6.13476 7.6366L7.72574 6.04562L9.31671 7.6366Z" fill="black"/>
<path fill-rule="evenodd" clip-rule="evenodd" d="M2.75 2C2.26675 2 1.875 2.39175 1.875 2.875V11.459C1.875 11.6911 1.96719 11.9136 2.13128 12.0777L10.3103 20.2567C11.287 21.2334 12.869 21.2334 13.8457 20.2567L20.1307 13.9717C21.1074 12.995 21.1074 11.413 20.1308 10.4363L11.9518 2.25632C11.7877 2.0922 11.5651 2 11.333 2H2.75ZM3.625 11.0966V3.75H10.9705L18.8932 11.6737C19.1865 11.967 19.1866 12.441 18.8933 12.7343L12.6083 19.0193C12.315 19.3126 11.841 19.3126 11.5477 19.0193L3.625 11.0966Z" fill="black"/>
</svg>
