<svg width="20" height="19" viewBox="0 0 20 19" fill="none" xmlns="http://www.w3.org/2000/svg">
<path fill-rule="evenodd" clip-rule="evenodd" d="M3.793 0.875C3.793 0.391751 4.18475 0 4.668 0H15.332C15.8152 0 16.207 0.391751 16.207 0.875V2.99805H19.125C19.6082 2.99805 20 3.3898 20 3.87305V7.01905C20 9.54981 17.9776 11.6091 15.4611 11.6687C14.5433 13.3629 12.86 14.5818 10.875 14.8618V17.25H15.018V19H4.982V17.25H9.125V14.8618C7.13996 14.5818 5.45672 13.3629 4.53885 11.6687C2.02239 11.6091 0 9.54981 0 7.01905V3.87305C0 3.3898 0.391751 2.99805 0.875 2.99805H3.793V0.875ZM16.1092 9.81934C17.3424 9.48515 18.25 8.35775 18.25 7.01905V4.74805H16.207V8.716C16.207 9.09256 16.1735 9.46128 16.1092 9.81934ZM3.793 8.716C3.793 9.09256 3.82652 9.46128 3.89075 9.81934C2.65755 9.48515 1.75 8.35775 1.75 7.01905V4.74805H3.793V8.716ZM5.543 1.75V8.716C5.543 11.1778 7.53825 13.173 10 13.173C12.4618 13.173 14.457 11.1778 14.457 8.716V1.75H5.543Z" fill="black"/>
</svg>
