<svg width="16" height="16" viewBox="0 0 16 16" fill="none" xmlns="http://www.w3.org/2000/svg">
<path d="M8 0.5C7.01509 0.5 6.03982 0.693993 5.12987 1.0709C4.21993 1.44781 3.39314 2.00026 2.6967 2.6967C2.00026 3.39314 1.44781 4.21993 1.0709 5.12987C0.693993 6.03982 0.5 7.01509 0.5 8C0.5 8.98491 0.693993 9.96018 1.0709 10.8701C1.44781 11.7801 2.00026 12.6069 2.6967 13.3033C3.39314 13.9997 4.21993 14.5522 5.12987 14.9291C6.03982 15.306 7.01509 15.5 8 15.5C9.98912 15.5 11.8968 14.7098 13.3033 13.3033C14.7098 11.8968 15.5 9.98912 15.5 8C15.5 6.01088 14.7098 4.10322 13.3033 2.6967C11.8968 1.29018 9.98912 0.5 8 0.5ZM10.817 9.933C10.9338 10.0506 10.9994 10.2097 10.9994 10.3755C10.9994 10.5413 10.9338 10.7004 10.817 10.818C10.6995 10.9349 10.5405 11.0004 10.3748 11.0002C10.2091 11 10.0502 10.9341 9.933 10.817L8.204 9.088L7.797 9.087L6.068 10.816C6.01008 10.8744 5.94118 10.9208 5.86528 10.9524C5.78937 10.9841 5.70795 11.0004 5.62571 11.0005C5.54346 11.0006 5.46201 10.9845 5.38603 10.953C5.31006 10.9215 5.24106 10.8753 5.183 10.817C5.06618 10.6994 5.00062 10.5403 5.00062 10.3745C5.00062 10.2087 5.06618 10.0496 5.183 9.932L6.897 8.218V7.781L5.183 6.067C5.07062 5.94864 5.00891 5.79106 5.01103 5.62786C5.01315 5.46466 5.07892 5.30874 5.19433 5.19333C5.30974 5.07792 5.46566 5.01215 5.62886 5.01003C5.79206 5.00791 5.94964 5.06962 6.068 5.182L7.787 6.901H8.215L9.934 5.182C10.0524 5.06962 10.2099 5.00791 10.3731 5.01003C10.5363 5.01215 10.6923 5.07792 10.8077 5.19333C10.9231 5.30874 10.9889 5.46466 10.991 5.62786C10.9931 5.79106 10.9314 5.94864 10.819 6.067L9.1 7.786V8.214L10.817 9.933Z" fill="black"/>
</svg>
