<svg width="16" height="16" viewBox="0 0 16 16" fill="none" xmlns="http://www.w3.org/2000/svg">
<path fill-rule="evenodd" clip-rule="evenodd" d="M8.5 9C10.157 9 11.5 10.343 11.5 12V14C11.5 14.552 11.052 15 10.5 15H1C0.448 15 0 14.552 0 14V12C0 10.343 1.343 9 3 9H8.5ZM3 10.5C2.173 10.5 1.5 11.173 1.5 12V13.5H10V12C10 11.173 9.327 10.5 8.5 10.5H3Z" fill="black"/>
<path d="M16 4.66602L12.8027 7.86426C12.6619 8.00499 12.4722 8.08386 12.2725 8.08398C12.0736 8.08398 11.8822 8.00512 11.7422 7.86426L9.62891 5.75098L10.6904 4.69043L12.2734 6.27344L14.9404 3.60547L16 4.66602Z" fill="black"/>
<path fill-rule="evenodd" clip-rule="evenodd" d="M5.75 1.75C7.407 1.75 8.75 3.093 8.75 4.75C8.75 6.407 7.407 7.75 5.75 7.75C4.093 7.75 2.75 6.407 2.75 4.75C2.75 3.093 4.093 1.75 5.75 1.75ZM5.75 3.25C4.923 3.25 4.25 3.923 4.25 4.75C4.25 5.577 4.923 6.25 5.75 6.25C6.577 6.25 7.25 5.577 7.25 4.75C7.25 3.923 6.577 3.25 5.75 3.25Z" fill="black"/>
</svg>
