<svg width="16" height="16" viewBox="0 0 16 16" fill="none" xmlns="http://www.w3.org/2000/svg">
<path d="M6 8.25C6.828 8.25 7.5 8.922 7.5 9.75V11H2.5V9.75C2.5 8.922 3.172 8.25 4 8.25H6Z" fill="black"/>
<path d="M13 10.5H9V9H13V10.5Z" fill="black"/>
<path d="M5 5C5.75939 5 6.375 5.61561 6.375 6.375C6.375 7.13439 5.75939 7.75 5 7.75C4.24061 7.75 3.625 7.13439 3.625 6.375C3.625 5.61561 4.24061 5 5 5Z" fill="black"/>
<path d="M13 7.5H9V6H13V7.5Z" fill="black"/>
<path fill-rule="evenodd" clip-rule="evenodd" d="M14 2C15.1042 2 16 2.89579 16 4V12C16 13.1042 15.1042 14 14 14H2C0.895786 14 0 13.1042 0 12V4C0 2.89579 0.895786 2 2 2H14ZM2 3.5C1.72421 3.5 1.5 3.72421 1.5 4V12C1.5 12.2758 1.72421 12.5 2 12.5H14C14.2758 12.5 14.5 12.2758 14.5 12V4C14.5 3.72421 14.2758 3.5 14 3.5H2Z" fill="black"/>
</svg>
