<svg width="16" height="16" viewBox="0 0 16 16" fill="none" xmlns="http://www.w3.org/2000/svg">
<g clip-path="url(#clip0_3940_1236)">
<path d="M15.13 11.32L12.93 9.11997C12.67 8.85997 12.23 9.03997 12.23 9.40997V10.42C9.65 10.6 7.54 12.46 7.01 14.93C6.92 15.36 7.47 15.63 7.73 15.28C8.78 13.9 10.39 12.99 12.22 12.87V13.82C12.22 14.19 12.66 14.37 12.92 14.11L15.12 11.91C15.28 11.75 15.28 11.49 15.12 11.33L15.13 11.32Z" fill="black"/>
<path d="M12.09 2.98C12.72 3.4 13.21 4 13.5 4.7C13.94 5.78 14.1 6.95 13.96 8.11L13.93 8.37C13.91 8.46 13.89 8.55 13.87 8.64L13.65 8.42C12.76 7.53 11.24 8.16 11.24 9.42V9.56C8.9 10.05 7.01 11.74 6.25 13.98C4.7 13.83 3.24 13.16 2.11 12.07C0.79 10.79 0.03 9.05 0 7.22V7.18C0 7.12 0 7.07 0 7.02V6.94C0.02 6.77 0.03 6.65 0.05 6.55L0.07 6.39C0.11 6.12 0.16 5.89 0.18 5.8V5.76C0.36 5.02 0.68 4.32 1.13 3.71C1.33 3.44 1.55 3.19 1.78 2.95C1.99 2.74 2.22 2.55 2.47 2.38C2.54 2.33 2.62 2.29 2.7 2.26C2.64 2.84 2.72 3.42 2.94 3.96C3.41 3.43 3.98 3 4.63 2.7C4.48 3.24 4.49 3.82 4.65 4.36C4.72 4.41 4.77 4.45 4.83 4.49C4.93 4.58 5.05 4.69 5.29 4.92L5.31 4.94C5.85 5.32 6.41 5.64 7.01 5.92C6.82 6.26 6.53 6.53 6.17 6.67C4.18 6.67 3.85 7.84 3.85 7.84C3.92 8.32 4.1 8.77 4.39 9.16C4.68 9.55 5.06 9.86 5.5 10.06C5.54 10.08 5.58 10.1 5.62 10.11C5.69 10.14 5.76 10.17 5.83 10.19C6.12 10.29 6.43 10.35 6.74 10.37C7.39 10.45 8.05 10.31 8.61 9.95C9.16 9.6 9.58 9.06 9.77 8.43C9.97 7.8 9.94 7.13 9.68 6.52C9.43 5.91 8.97 5.41 8.39 5.11C8.98 5.03 9.58 5.18 10.08 5.51C9.76 4.98 9.31 4.54 8.77 4.24C8.23 3.94 7.62 3.78 7 3.78C6.94 3.78 6.87 3.78 6.81 3.78H6.75C6.83 3.01 7.08 2.26 7.5 1.61C7.94 0.94 8.51 0.4 9.18 0C9.18 0 9.19 0 9.2 0V0.02C9.23 0.11 9.26 0.2 9.31 0.29C9.33 0.33 9.36 0.38 9.39 0.43L9.56 0.69C10 1.36 10.48 1.89 10.95 2.4C11.65 3.17 12.32 3.9 12.79 5.05C12.66 4.32 12.42 3.62 12.08 2.98H12.09Z" fill="black"/>
</g>
<defs>
<clipPath id="clip0_3940_1236">
<rect width="16" height="16" fill="white"/>
</clipPath>
</defs>
</svg>
