<svg width="20" height="20" viewBox="0 0 20 20" fill="none" xmlns="http://www.w3.org/2000/svg">
<path fill-rule="evenodd" clip-rule="evenodd" d="M6 3H14V1H15.75V3.01172C17.013 3.1372 18 4.2041 18 5.5V15.25C18 16.6302 16.8802 17.75 15.5 17.75H4.5C3.11975 17.75 2 16.6302 2 15.25V5.5C2 4.2041 2.98701 3.1372 4.25 3.01172V1H6V3ZM3.75 15.25C3.75 15.6638 4.08625 16 4.5 16H15.5C15.9138 16 16.25 15.6638 16.25 15.25V8.75H3.75V15.25ZM4.5 4.75C4.08625 4.75 3.75 5.08625 3.75 5.5V7H16.25V5.5C16.25 5.08625 15.9138 4.75 15.5 4.75H4.5Z" fill="black"/>
</svg>
