<svg width="24" height="24" viewBox="0 0 24 24" fill="none" xmlns="http://www.w3.org/2000/svg">
<path d="M13.3196 19.65C13.0896 19.8 12.8596 19.97 12.6196 20.1C12.2396 20.31 11.7796 20.31 11.3996 20.1C9.55963 19.07 7.85963 17.46 6.61963 15.58C6.03963 14.7 5.61963 13.61 5.38963 12.34L4.67963 8.49C4.57963 7.95 4.82963 7.42 5.30963 7.16L11.3296 3.9C11.5096 3.8 11.7196 3.75 11.9196 3.75H11.9296C12.1296 3.76 12.3296 3.81 12.5196 3.91L18.6896 7.23C19.1696 7.49 19.4296 8.02 19.3296 8.56L18.6196 12.35C18.4896 13.05 18.3096 13.68 18.0796 14.26C18.6896 14.26 19.2696 14.39 19.7996 14.61C20.0196 14 20.1996 13.36 20.3296 12.66L21.0396 8.87C21.2796 7.58 20.6596 6.3 19.5096 5.68L13.3396 2.36C12.4496 1.88 11.3796 1.88 10.4896 2.36L4.46963 5.62C3.32963 6.24 2.70963 7.52 2.94963 8.8L3.65963 12.65C3.93963 14.16 4.43963 15.46 5.14963 16.54C6.54963 18.66 8.45963 20.46 10.5396 21.62C10.9896 21.87 11.4896 22 11.9996 22C12.5096 22 13.0096 21.87 13.4596 21.62C13.6096 21.54 13.7496 21.44 13.8996 21.35C13.5996 20.83 13.3996 20.26 13.3196 19.64V19.65Z" fill="black"/>
<path d="M18 22C19.6569 22 21 20.6569 21 19C21 17.3431 19.6569 16 18 16C16.3431 16 15 17.3431 15 19C15 20.6569 16.3431 22 18 22Z" fill="black"/>
</svg>
