<svg width="24" height="24" viewBox="0 0 24 24" fill="none" xmlns="http://www.w3.org/2000/svg">
<path d="M11.9996 22C11.4896 22 10.9896 21.87 10.5396 21.62C8.45963 20.46 6.54963 18.66 5.14963 16.54C4.43963 15.46 3.93963 14.16 3.65963 12.65L2.94963 8.8C2.70963 7.52 3.32963 6.24 4.46963 5.62L10.4896 2.36C11.3796 1.88 12.4396 1.88 13.3396 2.36L19.5096 5.68C20.6596 6.3 21.2796 7.58 21.0396 8.87L20.3296 12.66C20.0496 14.16 19.5496 15.46 18.8496 16.53C17.4496 18.65 15.5396 20.45 13.4596 21.62C13.0096 21.87 12.4996 22 11.9996 22ZM11.9196 3.75C11.7196 3.75 11.5096 3.8 11.3296 3.9L5.30963 7.16C4.82963 7.42 4.57963 7.95 4.67963 8.49L5.38963 12.34C5.61963 13.61 6.03963 14.7 6.61963 15.58C7.85963 17.47 9.55963 19.07 11.3996 20.1C11.7796 20.31 12.2496 20.31 12.6196 20.1C14.4596 19.07 16.1596 17.47 17.3996 15.58C17.9796 14.7 18.3896 13.62 18.6196 12.35L19.3296 8.56C19.4296 8.02 19.1696 7.49 18.6896 7.23L12.5096 3.91C12.3196 3.81 12.1196 3.76 11.9196 3.76V3.75Z" fill="black"/>
<path d="M11.9931 10.7626L14.2629 8.49271L15.5004 9.73014L13.2305 12L15.5004 14.2699L14.2629 15.5073L11.9931 13.2374L9.73744 15.4931L8.5 14.2556L10.7556 12L8.5 9.7444L9.73744 8.50696L11.9931 10.7626Z" fill="black"/>
</svg>
