<svg width="24" height="24" viewBox="0 0 24 24" fill="none" xmlns="http://www.w3.org/2000/svg">
<path d="M11.3301 3.9L8.69015 5.33V5.32L7.40015 4.03L10.4901 2.36C11.3801 1.88 12.4501 1.88 13.3401 2.36L19.5101 5.68C20.6601 6.3 21.2801 7.58 21.0401 8.87L20.3401 12.66C20.1201 13.86 19.7401 14.94 19.2401 15.87L17.9301 14.56C18.2301 13.9 18.4701 13.16 18.6201 12.34L19.3201 8.55C19.4201 8.01 19.1601 7.48 18.6801 7.22L12.5101 3.9C12.3301 3.8 12.1201 3.75 11.9201 3.75C11.7201 3.75 11.5201 3.8 11.3301 3.9Z" fill="black"/>
<path d="M12.6102 20.09C14.3402 19.12 15.9302 17.64 17.1502 15.9L18.4102 17.16C17.0602 19 15.3302 20.57 13.4602 21.61C13.0102 21.86 12.5002 21.99 12.0002 21.99C11.5002 21.99 10.9902 21.86 10.5402 21.61C8.46017 20.45 6.55017 18.64 5.15017 16.53C4.44017 15.45 3.94017 14.14 3.66017 12.64L2.95017 8.79002C2.71017 7.51002 3.32017 6.23002 4.47017 5.61002L6.02017 4.77002L7.31017 6.06002L5.30017 7.15002C4.83017 7.41002 4.57017 7.95002 4.67017 8.48002L5.38017 12.33C5.62017 13.6 6.03017 14.69 6.61017 15.57C7.85017 17.46 9.55017 19.06 11.3902 20.09C11.7602 20.3 12.2302 20.3 12.6102 20.09Z" fill="black"/>
<path d="M3.22962 2.00152L1.99219 3.23895L20.7517 21.9985L21.9892 20.7611L3.22962 2.00152Z" fill="black"/>
</svg>
