<svg width="19" height="20" viewBox="0 0 19 20" fill="none" xmlns="http://www.w3.org/2000/svg">
<path d="M9.1012 20C8.5912 20 8.0912 19.87 7.6412 19.62C5.5612 18.46 3.6512 16.66 2.2512 14.54C1.5412 13.46 1.0412 12.16 0.761197 10.65L0.0511967 6.8C-0.188803 5.52 0.431196 4.24 1.5712 3.62L7.5912 0.36C8.4812 -0.12 9.5512 -0.12 10.4412 0.36L16.6112 3.68C17.7612 4.3 18.3812 5.58 18.1412 6.87L17.4312 10.66C17.1512 12.16 16.6512 13.46 15.9512 14.53C14.5512 16.65 12.6412 18.45 10.5612 19.62C10.1112 19.87 9.6012 20 9.1012 20ZM9.0212 1.75C8.8212 1.75 8.6112 1.8 8.4312 1.9L2.4112 5.16C1.9312 5.42 1.6812 5.95 1.7812 6.49L2.4912 10.34C2.7212 11.61 3.1412 12.7 3.7212 13.58C4.9612 15.46 6.6612 17.07 8.5012 18.1C8.8812 18.31 9.3412 18.31 9.7212 18.1C11.5612 17.07 13.2612 15.47 14.5012 13.58C15.0812 12.7 15.4912 11.62 15.7212 10.35L16.4312 6.56C16.5312 6.02 16.2712 5.49 15.7912 5.23L9.6212 1.91C9.4312 1.81 9.2312 1.76 9.0312 1.76L9.0212 1.75Z" fill="black"/>
</svg>
