<svg width="16" height="16" viewBox="0 0 16 16" fill="none" xmlns="http://www.w3.org/2000/svg">
<path fill-rule="evenodd" clip-rule="evenodd" d="M1 6.25C1 5.28379 1.78379 4.5 2.75 4.5H4.75C5.16421 4.5 5.5 4.83579 5.5 5.25V8H10.5V5.25C10.5 4.83579 10.8358 4.5 11.25 4.5H13.25C14.2162 4.5 15 5.28379 15 6.25V7.875H16V9.625H15V11.25C15 12.2162 14.2162 13 13.25 13H11.25C10.8358 13 10.5 12.6642 10.5 12.25V9.5H5.5V12.25C5.5 12.6642 5.16421 13 4.75 13H2.75C1.78379 13 1 12.2162 1 11.25V9.625H0V7.875H1V6.25ZM2.75 6C2.61221 6 2.5 6.11221 2.5 6.25V11.25C2.5 11.3878 2.61221 11.5 2.75 11.5H4V6H2.75ZM12 6V11.5H13.25C13.3878 11.5 13.5 11.3878 13.5 11.25V6.25C13.5 6.11221 13.3878 6 13.25 6H12Z" fill="black"/>
</svg>
