<svg width="16" height="16" viewBox="0 0 16 16" fill="none" xmlns="http://www.w3.org/2000/svg">
<g clip-path="url(#clip0_5563_558)">
<path fill-rule="evenodd" clip-rule="evenodd" d="M8.80005 3.5H10.2556L10.7914 5.5H5.50025L5.49528 4.75H6.125C6.608 4.75 7 4.358 7 3.875C7 3.392 6.608 3 6.125 3H3.25C3.112 3 3 3.112 3 3.25V4.5C3 4.638 3.112 4.75 3.25 4.75H3.99524L4.00786 6.65144L3.88366 6.9198C3.66298 6.87405 3.43435 6.85001 3.2001 6.85001C1.34994 6.85001 -0.149902 8.34985 -0.149902 10.2C-0.149902 12.0502 1.34994 13.55 3.2001 13.55C5.05025 13.55 6.5501 12.0502 6.5501 10.2C6.5501 9.12028 6.03929 8.15985 5.24614 7.54722L5.49939 7H11.1934L11.2542 7.22715C10.1821 7.78576 9.44995 8.90739 9.44995 10.2C9.44995 12.0502 10.9498 13.55 12.8 13.55C14.6501 13.55 16.15 12.0502 16.15 10.2C16.15 8.34985 14.6501 6.85001 12.8 6.85001C12.7687 6.85001 12.7375 6.85043 12.7064 6.85129L11.5555 2.55589C11.4676 2.228 11.1705 2 10.831 2H8.80005V3.5ZM11.6603 8.74262L12.1856 10.7031L13.6345 10.3149L13.1152 8.37675C13.9867 8.52637 14.65 9.28574 14.65 10.2C14.65 11.2217 13.8217 12.05 12.8 12.05C11.7782 12.05 10.95 11.2217 10.95 10.2C10.95 9.60818 11.2279 9.08125 11.6603 8.74262ZM2.36841 10.194L3.22173 8.35013L3.2001 8.35001C2.17837 8.35001 1.3501 9.17828 1.3501 10.2C1.3501 11.2217 2.17837 12.05 3.2001 12.05C4.22182 12.05 5.0501 11.2217 5.0501 10.2C5.0501 9.72982 4.87469 9.3006 4.58575 8.97422L3.7297 10.824L2.36841 10.194Z" fill="black"/>
</g>
<defs>
<clipPath id="clip0_5563_558">
<rect width="16" height="16" fill="white"/>
</clipPath>
</defs>
</svg>
