<svg width="16" height="16" viewBox="0 0 16 16" fill="none" xmlns="http://www.w3.org/2000/svg">
<path fill-rule="evenodd" clip-rule="evenodd" d="M4.5 2C4.5 0.895786 5.39579 0 6.5 0H9.5C10.6042 0 11.5 0.895786 11.5 2V3H14C15.1042 3 16 3.89579 16 5V13C16 14.1042 15.1042 15 14 15H2C0.895786 15 0 14.1042 0 13V5C0 3.89579 0.895786 3 2 3H4.5V2ZM10 2V3H6V2C6 1.72421 6.22421 1.5 6.5 1.5H9.5C9.77579 1.5 10 1.72421 10 2ZM1.5 5C1.5 4.72421 1.72421 4.5 2 4.5H3.5V13.5H2C1.72421 13.5 1.5 13.2758 1.5 13V5ZM14 13.5C14.2758 13.5 14.5 13.2758 14.5 13V5C14.5 4.72421 14.2758 4.5 14 4.5H12.5V13.5H14ZM11 13.5V4.5H5V13.5H11Z" fill="black"/>
</svg>
