<svg width="16" height="16" viewBox="0 0 16 16" fill="none" xmlns="http://www.w3.org/2000/svg">
<g clip-path="url(#clip0_5563_563)">
<path fill-rule="evenodd" clip-rule="evenodd" d="M1.73894 4.00772C2.09539 3.38432 2.75773 3 3.47502 3H12.524C13.2413 3 13.9043 3.3835 14.2603 4.00798L14.2608 4.00898L15.9011 6.87772C16.069 7.1714 16.0196 7.54113 15.7803 7.78033L8.53035 15.0303C8.23745 15.3232 7.76258 15.3232 7.46969 15.0303L0.219688 7.78033C-0.0194652 7.54118 -0.0689653 7.17155 0.0988355 6.8779L1.73894 4.00772ZM3.0411 4.75228L2.0424 6.5H4.0648L5.20766 4.5H3.47502C3.29636 4.5 3.13067 4.59578 3.0411 4.75228ZM10.2077 6.5H5.79243L6.93529 4.5H9.06483L10.2077 6.5ZM11.9353 6.5H13.9572L12.9579 4.75228L12.9572 4.75102C12.869 4.5961 12.7043 4.5 12.524 4.5H10.7925L11.9353 6.5ZM13.4394 8H8.75V12.6894L13.4394 8ZM7.25 8H2.56068L7.25 12.6893V8Z" fill="black"/>
</g>
<defs>
<clipPath id="clip0_5563_563">
<rect width="16" height="16" fill="white"/>
</clipPath>
</defs>
</svg>
