<svg width="16" height="16" viewBox="0 0 16 16" fill="none" xmlns="http://www.w3.org/2000/svg">
<g clip-path="url(#clip0_3828_974)">
<path d="M8.03002 14.98C7.83002 14.98 7.64002 14.9 7.50002 14.76L1.31002 8.59002C-0.159984 7.13002 -0.419984 4.89002 0.660016 3.13002C1.47002 1.81002 2.88002 1.02002 4.43002 1.02002H4.46002C5.88002 1.02002 7.17002 1.69002 8.00002 2.82002C8.83002 1.70002 10.12 1.03002 11.54 1.02002H11.57C13.12 1.02002 14.53 1.81002 15.35 3.13002C16.43 4.88002 16.17 7.13002 14.71 8.59002L8.56002 14.76C8.42002 14.9 8.23002 14.98 8.03002 14.98ZM4.44002 2.52002C3.41002 2.52002 2.48002 3.04002 1.94002 3.91002C1.22002 5.07002 1.40002 6.56002 2.37002 7.52002L8.03002 13.16L13.65 7.52002C14.61 6.55002 14.79 5.07002 14.07 3.91002C13.53 3.03002 12.58 2.53002 11.55 2.51002C10.52 2.51002 9.58002 3.05002 9.05002 3.93002L8.64002 4.61002C8.50002 4.84002 8.26002 4.97002 8.00002 4.97002C7.74002 4.97002 7.49002 4.83002 7.36002 4.61002L6.95002 3.93002C6.42002 3.05002 5.48002 2.51002 4.45002 2.51002H4.43002L4.44002 2.52002Z" fill="black"/>
</g>
<defs>
<clipPath id="clip0_3828_974">
<rect width="16" height="16" fill="white"/>
</clipPath>
</defs>
</svg>
