<svg width="16" height="16" viewBox="0 0 16 16" fill="none" xmlns="http://www.w3.org/2000/svg">
<path d="M9.12057 5.37684C8.97691 5.12638 8.70222 4.98063 8.41428 5.00208C8.12634 5.02353 7.87628 5.20838 7.77131 5.47736L6.58307 8.52241L6.20962 7.87518C6.07567 7.64303 5.82802 7.50001 5.56 7.50001H3V9.00001H5.12686L6.06438 10.6248C6.20851 10.8746 6.48311 11.0197 6.77068 10.9979C7.05825 10.9761 7.30785 10.7913 7.41269 10.5227L8.59907 7.48238L9.25343 8.62318C9.38712 8.85626 9.6353 9.00001 9.904 9.00001H13V7.50001H10.3384L9.12057 5.37684Z" fill="black"/>
<path fill-rule="evenodd" clip-rule="evenodd" d="M2 2C0.895786 2 0 2.89579 0 4V12C0 13.1042 0.895786 14 2 14H14C15.1042 14 16 13.1042 16 12V4C16 2.89579 15.1042 2 14 2H2ZM1.5 4C1.5 3.72421 1.72421 3.5 2 3.5H14C14.2758 3.5 14.5 3.72421 14.5 4V12C14.5 12.2758 14.2758 12.5 14 12.5H2C1.72421 12.5 1.5 12.2758 1.5 12V4Z" fill="black"/>
</svg>
