<svg width="16" height="16" viewBox="0 0 16 16" fill="none" xmlns="http://www.w3.org/2000/svg">
<path fill-rule="evenodd" clip-rule="evenodd" d="M2.71737 12.2221C2.07621 11.4212 1.61505 10.4729 1.40089 9.44398C0.494171 5.0917 3.79827 1.25 8.00012 1.25H14.0001C14.4143 1.25 14.7501 1.58579 14.7501 2V8C14.7501 12.2019 10.9085 15.5061 6.55614 14.5992C5.52757 14.3847 4.57916 13.9236 3.77815 13.2826L2.00011 15.0607L0.939453 14L2.71737 12.2221ZM2.86935 9.13802C2.16019 5.73437 4.73202 2.75 8.00012 2.75H13.2501V8C13.2501 11.2681 10.2658 13.8399 6.86224 13.1308C6.12464 12.977 5.43869 12.657 4.8472 12.2136L9.56077 7.49999L8.50011 6.43933L3.78641 11.153C3.34284 10.5616 3.02284 9.87554 2.86935 9.13802Z" fill="black"/>
</svg>
