<svg width="16" height="16" viewBox="0 0 16 16" fill="none" xmlns="http://www.w3.org/2000/svg">
<path fill-rule="evenodd" clip-rule="evenodd" d="M8 10C6.07 10 4.5 8.43 4.5 6.5C4.5 4.57 6.07 3 8 3C9.93 3 11.5 4.57 11.5 6.5C11.5 8.43 9.93 10 8 10ZM8 4.5C6.9 4.5 6 5.4 6 6.5C6 7.6 6.9 8.5 8 8.5C9.1 8.5 10 7.6 10 6.5C10 5.4 9.1 4.5 8 4.5Z" fill="black"/>
<path fill-rule="evenodd" clip-rule="evenodd" d="M12.6832 11C13.8074 9.83061 14.5 8.24358 14.5 6.5C14.5 2.92 11.58 0 8 0C4.42 0 1.5 2.92 1.5 6.5C1.5 8.24358 2.19263 9.83061 3.31681 11H1.75C1.34 11 1 11.34 1 11.75V14C1 15.1 1.9 16 3 16H13C14.1 16 15 15.1 15 14V11.75C15 11.34 14.66 11 14.25 11H12.6832ZM2.5 12.5V14C2.5 14.28 2.72 14.5 3 14.5H13C13.28 14.5 13.5 14.28 13.5 14V12.5H2.5ZM10.1809 11C11.8492 10.1894 13 8.47828 13 6.5C13 3.74 10.76 1.5 8 1.5C5.24 1.5 3 3.74 3 6.5C3 8.47828 4.15081 10.1894 5.81906 11H10.1809Z" fill="black"/>
</svg>
