<svg width="16" height="16" viewBox="0 0 16 16" fill="none" xmlns="http://www.w3.org/2000/svg">
<g clip-path="url(#clip0_5563_557)">
<path fill-rule="evenodd" clip-rule="evenodd" d="M14.1427 1.85732C13.6666 1.38122 12.8935 1.38122 12.4173 1.85732L10.6723 3.60232C10.4829 3.79178 10.2068 3.86578 9.94796 3.79645L4.8683 2.43581C4.86812 2.43576 4.86848 2.43586 4.8683 2.43581C4.70085 2.39149 4.52334 2.43933 4.40235 2.56032L3.41095 3.55172L7.9231 4.76054C8.18193 4.82988 8.3841 5.03204 8.45345 5.29086C8.52281 5.54969 8.44882 5.82585 8.25935 6.01532L5.10434 9.17032C4.94124 9.33343 4.71215 9.41241 4.48318 9.38447L2.67394 9.16373L2.13689 9.70077L4.90033 10.6269C5.12336 10.7016 5.2984 10.8767 5.37314 11.0997L6.29936 13.8635L6.83628 13.3269L6.61553 11.5168C6.58761 11.2879 6.66656 11.0588 6.8296 10.8957L9.9846 7.73975C10.1741 7.55023 10.4503 7.47619 10.7091 7.54554C10.968 7.61489 11.1701 7.81709 11.2395 8.07594L12.4483 12.589L13.4397 11.5977C13.5618 11.4756 13.609 11.2986 13.5646 11.1333L12.2036 6.05205C12.1342 5.79324 12.2082 5.51712 12.3977 5.32766L14.1427 3.58266C14.6188 3.10656 14.6188 2.33343 14.1427 1.85732ZM11.3567 0.796664C12.4186 -0.265229 14.1415 -0.265229 15.2033 0.796664C16.2652 1.85856 16.2652 3.58143 15.2033 4.64332L13.7645 6.08217L15.0134 10.7447C15.0134 10.7446 15.0134 10.7448 15.0134 10.7447C15.1969 11.4293 15.0002 12.1585 14.5003 12.6583L12.5903 14.5683C12.4009 14.7578 12.1247 14.8318 11.8659 14.7624C11.607 14.6931 11.4049 14.4909 11.3356 14.232L10.1268 9.7192L8.14873 11.6979L8.3695 13.5082C8.39743 13.7372 8.31839 13.9664 8.15518 14.1295L6.50318 15.7805C6.31951 15.964 6.05395 16.0395 5.80118 15.98C5.54841 15.9205 5.3444 15.7345 5.26189 15.4883L4.06956 11.9304L0.511699 10.7381C0.265441 10.6556 0.0794073 10.4515 0.0199397 10.1987C-0.0395279 9.9459 0.0360361 9.68031 0.219685 9.49667L1.87168 7.84466C2.03479 7.68156 2.26388 7.60258 2.49285 7.63052L4.30209 7.85126L6.28008 5.87327L1.76793 4.66445C1.5091 4.59511 1.30693 4.39295 1.23757 4.13412C1.16822 3.8753 1.24221 3.59914 1.43168 3.40966L3.34168 1.49966C3.84256 0.998787 4.57134 0.80474 5.25373 0.986177L5.25507 0.986532L9.91784 2.23551L11.3567 0.796664Z" fill="black"/>
</g>
<defs>
<clipPath id="clip0_5563_557">
<rect width="16" height="16" fill="white"/>
</clipPath>
</defs>
</svg>
