<svg width="16" height="16" viewBox="0 0 16 16" fill="none" xmlns="http://www.w3.org/2000/svg">
<g clip-path="url(#clip0_5563_560)">
<path d="M7.99997 6L5.89697 7.528L6.69997 10H9.29997L10.103 7.528L7.99997 6Z" fill="black"/>
<path fill-rule="evenodd" clip-rule="evenodd" d="M8 0C3.58172 0 0 3.58172 0 8C0 12.4183 3.58172 16 8 16C12.4183 16 16 12.4183 16 8C16 3.58172 12.4183 0 8 0ZM5.42604 2.02955C4.60915 2.38219 3.87898 2.89758 3.27636 3.53486L4.45005 6.593L1.56587 8.9289C1.67717 9.70669 1.92615 10.44 2.28735 11.1035L5.15311 10.953L6.44233 14.3122C6.94137 14.4349 7.46308 14.5 8 14.5C8.55846 14.5 9.10048 14.4296 9.61764 14.2971L10.459 11.157L13.7765 10.9832C14.1303 10.2996 14.3663 9.5451 14.4576 8.74669L11.6499 6.92299L12.5937 3.40131C12.0171 2.82538 11.333 2.35719 10.5739 2.02952L7.99995 3.89999L5.42604 2.02955Z" fill="black"/>
</g>
<defs>
<clipPath id="clip0_5563_560">
<rect width="16" height="16" fill="white"/>
</clipPath>
</defs>
</svg>
