<svg width="16" height="16" viewBox="0 0 16 16" fill="none" xmlns="http://www.w3.org/2000/svg">
<path fill-rule="evenodd" clip-rule="evenodd" d="M7.99998 2.74425L6.87572 5.59608C6.64448 6.18088 6.18156 6.64423 5.59676 6.87547L2.74422 8.00001L5.59604 9.12427C6.18084 9.35551 6.6442 9.81843 6.87543 10.4032L7.99998 13.2558L9.12424 10.4039C9.35547 9.81915 9.8184 9.35579 10.4032 9.12455L13.2557 8.00001L10.4039 6.87575C9.81911 6.64452 9.35576 6.18159 9.12452 5.59679L7.99998 2.74425ZM6.73641 1.85951C7.18928 0.712845 8.81068 0.712845 9.26355 1.85951L10.5194 5.04523C10.5194 5.04508 10.5195 5.04538 10.5194 5.04523C10.5982 5.24411 10.7555 5.40168 10.9544 5.48043C10.9543 5.48039 10.9545 5.48047 10.9544 5.48043L14.14 6.73627C15.2867 7.18914 15.2871 8.81071 14.1405 9.26358L10.9548 10.5195C10.9546 10.5195 10.9549 10.5194 10.9548 10.5195C10.7559 10.5982 10.5984 10.7555 10.5196 10.9543C10.5196 10.9545 10.5197 10.9542 10.5196 10.9543L9.26372 14.1401C8.81085 15.2867 7.18928 15.2872 6.73641 14.1405L5.48052 10.9548C5.48048 10.9547 5.48056 10.9549 5.48052 10.9548C5.40177 10.7559 5.24453 10.5984 5.04565 10.5196C5.0455 10.5196 5.0458 10.5197 5.04565 10.5196L1.85991 9.26375C0.713244 8.81088 0.712811 7.18931 1.85948 6.73644L5.0452 5.48056C5.04509 5.4806 5.0453 5.48051 5.0452 5.48056C5.24414 5.40179 5.40163 5.24449 5.4804 5.04555C5.48036 5.04565 5.48044 5.04544 5.4804 5.04555L6.73641 1.85951Z" fill="black"/>
</svg>
