<svg width="16" height="16" viewBox="0 0 16 16" fill="none" xmlns="http://www.w3.org/2000/svg">
<g clip-path="url(#clip0_5563_565)">
<path d="M11.5 5.5H9.5V7.5H11.5V5.5Z" fill="black"/>
<path d="M6.12988 5H4.87988V5.88H4V7.13H4.87988V8H6.12988V7.13H7V5.88H6.12988V5Z" fill="black"/>
<path fill-rule="evenodd" clip-rule="evenodd" d="M13.5 13.5C12.64 13.5 11.79 13.05 11.33 12.25L10.62 11H5.37005L4.66005 12.25C3.97005 13.44 2.44005 13.85 1.24005 13.17C0.24005 12.58 -0.23995 11.35 0.12005 10.25L1.97005 3.47C2.21005 2.6 3.00005 2 3.90005 2H12.1C13 2 13.79 2.6 14.03 3.47L15.9 10.29C16.24 11.39 15.7701 12.58 14.75 13.17C14.36 13.4 13.93 13.5 13.5 13.5ZM4.95005 9.5H11.0601C11.3301 9.5 11.58 9.65 11.71 9.88L12.63 11.5C12.9001 11.97 13.51 12.13 13.99 11.86C14.4 11.63 14.58 11.15 14.45 10.7L12.57 3.86C12.51 3.64 12.3101 3.49 12.09 3.49H3.90005C3.68005 3.49 3.48005 3.64 3.42005 3.86L1.55005 10.66C1.40005 11.13 1.59005 11.62 2.00005 11.86C2.48005 12.14 3.09005 11.97 3.37005 11.5L4.30005 9.88C4.43005 9.65 4.68005 9.5 4.95005 9.5Z" fill="black"/>
</g>
<defs>
<clipPath id="clip0_5563_565">
<rect width="16" height="16" fill="white"/>
</clipPath>
</defs>
</svg>
