<svg width="19" height="19" viewBox="0 0 19 19" fill="none" xmlns="http://www.w3.org/2000/svg">
<path d="M14.2498 3.50037C13.5598 3.50037 12.9998 4.06037 12.9998 4.75037C12.9998 5.44037 13.5598 6.00037 14.2498 6.00037C14.9398 6.00037 15.4998 5.44037 15.4998 4.75037C15.4998 4.06037 14.9398 3.50037 14.2498 3.50037Z" fill="black"/>
<path fill-rule="evenodd" clip-rule="evenodd" d="M9.49976 6.62537C7.91194 6.62537 6.62476 7.91255 6.62476 9.50037C6.62476 11.0882 7.91194 12.3754 9.49976 12.3754C11.0876 12.3754 12.3748 11.0882 12.3748 9.50037C12.3748 7.91255 11.0876 6.62537 9.49976 6.62537ZM8.37476 9.50037C8.37476 8.87905 8.87844 8.37537 9.49976 8.37537C10.1211 8.37537 10.6248 8.87905 10.6248 9.50037C10.6248 10.1217 10.1211 10.6254 9.49976 10.6254C8.87844 10.6254 8.37476 10.1217 8.37476 9.50037Z" fill="black"/>
<path d="M3.49976 14.2504C3.49976 14.9404 4.05976 15.5004 4.74976 15.5004C5.43976 15.5004 5.99976 14.9404 5.99976 14.2504C5.99976 13.5604 5.43976 13.0004 4.74976 13.0004C4.05976 13.0004 3.49976 13.5604 3.49976 14.2504Z" fill="black"/>
<path fill-rule="evenodd" clip-rule="evenodd" d="M18.5348 7.11637C18.2808 7.90137 17.9238 8.70137 17.4878 9.50037C17.9238 10.2994 18.2808 11.0994 18.5368 11.8844C19.3518 14.4044 19.0878 16.5044 17.7968 17.7964C16.9978 18.5964 15.8888 19.0014 14.5628 19.0014C13.7458 19.0014 12.8458 18.8464 11.8848 18.5364C11.0998 18.2824 10.2998 17.9254 9.5008 17.4894C8.70181 17.9254 7.9008 18.2824 7.1168 18.5364C6.1558 18.8474 5.25581 19.0014 4.43881 19.0014C3.11281 19.0014 2.0048 18.5954 1.2048 17.7964C-0.0871954 16.5034 -0.350195 14.4034 0.464805 11.8844C0.718805 11.0994 1.0758 10.2994 1.5118 9.50037C1.0758 8.70137 0.718805 7.90137 0.464805 7.11637C-0.350195 4.59737 -0.0871954 2.49737 1.2048 1.20537C2.4968 -0.0876333 4.59481 -0.349633 7.11581 0.465367C7.9008 0.719367 8.7008 1.07637 9.4998 1.51237C10.2988 1.07637 11.0988 0.718367 11.8828 0.464367C14.4028 -0.349633 16.5008 -0.0876333 17.7948 1.20437C19.0868 2.49737 19.3498 4.59637 18.5348 7.11637ZM4.45281 1.75337C3.59381 1.75337 2.8988 1.98437 2.4418 2.44237C1.6498 3.23437 1.5358 4.74237 2.1278 6.57837C2.2538 6.96737 2.4158 7.36337 2.5958 7.76137C3.2758 6.79437 4.0658 5.84837 4.9568 4.95737C5.8478 4.06637 6.79381 3.27737 7.75981 2.59737C7.36281 2.41737 6.9668 2.25537 6.5768 2.12937C5.8008 1.87837 5.08281 1.75337 4.45281 1.75337ZM12.4228 16.8714C14.2568 17.4654 15.7648 17.3524 16.5578 16.5584C17.3498 15.7664 17.4638 14.2584 16.8718 12.4224C16.7458 12.0334 16.5838 11.6374 16.4038 11.2394C15.7238 12.2064 14.9348 13.1514 14.0438 14.0424L14.0428 14.0434C13.1518 14.9344 12.2058 15.7234 11.2398 16.4034C11.6368 16.5834 12.0328 16.7454 12.4228 16.8714ZM16.4028 7.76037C16.5828 7.36337 16.7448 6.96737 16.8708 6.57737C17.4638 4.74237 17.3498 3.23437 16.5568 2.44137C16.0998 1.98337 15.4048 1.75237 14.5458 1.75237C13.9168 1.75237 13.1988 1.87737 12.4218 2.12837C12.0328 2.25437 11.6368 2.41637 11.2388 2.59637C11.5033 2.78262 11.7631 2.98924 12.0232 3.19609C12.0787 3.24024 12.1342 3.28439 12.1898 3.32837C11.9098 3.73237 11.7428 4.22137 11.7428 4.74937C11.7428 4.92337 11.7608 5.09337 11.7948 5.25737C11.0478 4.60637 10.2778 4.02537 9.4998 3.53637C8.3658 4.25037 7.24281 5.14537 6.19381 6.19437C5.1448 7.24337 4.2498 8.36637 3.5358 9.50037C4.0278 10.2814 4.6108 11.0554 5.2658 11.8054C5.0988 11.7704 4.92681 11.7504 4.7498 11.7504C4.2238 11.7504 3.73581 11.9164 3.3328 12.1954C3.29413 12.1467 3.25533 12.0981 3.21655 12.0495C3.00262 11.7815 2.78897 11.5138 2.5968 11.2404C2.4168 11.6374 2.2548 12.0334 2.1288 12.4234C1.5348 14.2584 1.6488 15.7664 2.4418 16.5584C3.2338 17.3514 4.7398 17.4654 6.5768 16.8714C6.9658 16.7454 7.3618 16.5834 7.75981 16.4034C7.49173 16.2135 7.22781 16.0036 6.96402 15.7938C6.91095 15.7516 6.85789 15.7094 6.80481 15.6674C7.08381 15.2644 7.2498 14.7774 7.2498 14.2504C7.2498 14.0734 7.2298 13.9014 7.19581 13.7344C7.94581 14.3884 8.7198 14.9724 9.5008 15.4634C10.6348 14.7504 11.7568 13.8554 12.8058 12.8064L12.8068 12.8054C13.8548 11.7574 14.7498 10.6344 15.4638 9.50037C14.9728 8.72037 14.3908 7.94737 13.7368 7.19837C13.8998 7.23237 14.0698 7.25037 14.2428 7.25037C14.7708 7.25037 15.2598 7.08337 15.6648 6.80137C15.7052 6.85237 15.7458 6.90335 15.7864 6.95433C15.9988 7.22123 16.2114 7.48833 16.4028 7.76037Z" fill="black"/>
</svg>
