<svg width="20" height="20" viewBox="0 0 20 20" fill="none" xmlns="http://www.w3.org/2000/svg">
<path fill-rule="evenodd" clip-rule="evenodd" d="M10.1714 1.23744L8.77967 2.62921L12.6032 6.45274L15.8688 6.52497C17.7441 6.56598 18.655 8.835 17.3285 10.1615L14.3637 13.1263L19.9994 18.762L18.762 19.9994L13.1263 14.3637L10.1619 17.3281C8.83509 18.656 6.56738 17.7425 6.52501 15.8696L6.45186 12.6033L2.62873 8.78014L1.23744 10.1714L0 8.934L8.934 0L10.1714 1.23744ZM3.86617 7.54271L7.54223 3.86664L11.8624 8.18678L15.8308 8.27455C16.1653 8.28182 16.3285 8.6866 16.0911 8.92404L8.92367 16.0914C8.68842 16.327 8.28218 16.1669 8.27456 15.83L8.18571 11.8622L3.86617 7.54271Z" fill="black"/>
</svg>
