<svg width="278" height="287" viewBox="0 0 278 287" fill="none" xmlns="http://www.w3.org/2000/svg">
  <path
    d="M267.512 96.4105C261.465 81.9139 249.253 66.2729 239.645 61.3135C246.48 74.5226 251.236 88.7092 253.722 103.396C253.722 103.396 253.722 103.468 253.746 103.635C238.043 64.5562 211.395 48.8198 189.646 14.5097C188.523 12.7691 187.423 10.9809 186.372 9.19267C185.822 8.26279 185.32 7.30907 184.842 6.33151C183.934 4.59097 183.241 2.75506 182.763 0.847613C182.763 0.656869 182.643 0.489967 182.452 0.466124C182.357 0.442281 182.285 0.442281 182.189 0.466124C182.189 0.466124 182.141 0.489967 182.118 0.513811L182.022 0.561497L182.07 0.489967C147.176 20.8758 135.321 58.6193 134.246 77.4791C120.312 78.4328 106.976 83.5591 96.0061 92.1903C94.8589 91.2127 93.6639 90.3067 92.3972 89.4722C89.2185 78.409 89.099 66.7259 92.0148 55.5912C79.2044 61.7904 67.8041 70.5646 58.5549 81.3655H58.4832C52.9623 74.4034 53.3686 51.4425 53.6793 46.6501C52.0541 47.2938 50.5006 48.1283 49.0427 49.1059C44.191 52.5631 39.6261 56.4496 35.4675 60.7175C30.7114 65.5338 26.3855 70.7077 22.4898 76.2393C13.5513 88.8761 7.21778 103.134 3.84789 118.227C3.77619 118.537 3.72839 118.847 3.65669 119.133C3.39379 120.349 2.46169 126.453 2.29439 127.788C2.29439 127.883 2.29439 127.979 2.27049 128.098C1.0516 134.416 0.286799 140.83 0 147.244C0 147.482 0 147.721 0 147.959C0 224.519 62.2116 286.582 138.954 286.559C206.615 286.559 264.453 237.919 275.901 171.397C276.14 169.632 276.331 167.844 276.522 166.056C279.39 142.451 276.283 118.513 267.512 96.4105ZM107.382 204.896C108.028 205.206 108.649 205.54 109.318 205.85L109.414 205.921C108.721 205.588 108.052 205.254 107.382 204.896Z"
    fill="url(#paint0_linear_103006_12956)" />
  <path
    d="M267.512 96.4094C261.465 81.9129 249.253 66.2719 239.645 61.3125C246.48 74.5215 251.236 88.7081 253.722 103.395C253.722 103.372 253.722 103.419 253.722 103.515V103.658C266.843 139.112 259.721 175.187 249.42 197.218C233.502 231.313 194.952 266.243 134.604 264.551C69.4293 262.715 11.9739 214.456 1.2667 151.225C-0.693098 141.258 1.2667 136.203 2.24659 128.097C0.908198 134.391 0.1673 140.805 0 147.243C0 147.481 0 147.72 0 147.958C0 224.518 62.2116 286.581 138.954 286.581C206.615 286.581 264.453 237.942 275.901 171.42C276.14 169.655 276.331 167.867 276.522 166.079C279.39 142.474 276.283 118.536 267.512 96.4333V96.4094Z"
    fill="url(#paint1_radial_103006_12956)" />
  <path
    d="M267.512 96.4094C261.465 81.9129 249.253 66.2719 239.645 61.3125C246.48 74.5215 251.236 88.7081 253.722 103.395C253.722 103.372 253.722 103.419 253.722 103.515V103.658C266.843 139.112 259.721 175.187 249.42 197.218C233.502 231.313 194.952 266.243 134.604 264.551C69.4293 262.715 11.9739 214.456 1.2667 151.225C-0.693098 141.258 1.2667 136.203 2.24659 128.097C0.908198 134.391 0.1673 140.805 0 147.243C0 147.481 0 147.72 0 147.958C0 224.518 62.2116 286.581 138.954 286.581C206.615 286.581 264.453 237.942 275.901 171.42C276.14 169.655 276.331 167.867 276.522 166.079C279.39 142.474 276.283 118.536 267.512 96.4333V96.4094Z"
    fill="url(#paint2_radial_103006_12956)" />
  <path
    d="M139.194 121.301C138.955 124.758 126.766 136.632 122.487 136.632C82.9809 136.632 76.5757 160.475 76.5757 160.475C78.3204 180.551 92.3257 197.098 109.295 205.849C110.059 206.23 110.848 206.612 111.637 206.969C112.975 207.565 114.338 208.114 115.724 208.638C121.531 210.689 127.626 211.857 133.816 212.119C203.054 215.362 216.486 129.527 166.511 104.587C179.298 102.37 192.586 107.496 200.019 112.694C187.591 90.8059 164.336 77.2869 139.146 77.2393C137.497 77.2393 135.895 77.3823 134.27 77.4777C120.336 78.4314 107 83.5577 96.0302 92.1888C98.1573 93.9771 100.547 96.3614 105.59 101.321C115.007 110.596 139.194 120.204 139.241 121.325L139.194 121.301Z"
    fill="url(#paint3_radial_103006_12956)" />
  <path
    d="M139.194 121.301C138.955 124.758 126.766 136.632 122.487 136.632C82.9809 136.632 76.5757 160.475 76.5757 160.475C78.3204 180.551 92.3257 197.098 109.295 205.849C110.059 206.23 110.848 206.612 111.637 206.969C112.975 207.565 114.338 208.114 115.724 208.638C121.531 210.689 127.626 211.857 133.816 212.119C203.054 215.362 216.486 129.527 166.511 104.587C179.298 102.37 192.586 107.496 200.019 112.694C187.591 90.8059 164.336 77.2869 139.146 77.2393C137.497 77.2393 135.895 77.3823 134.27 77.4777C120.336 78.4314 107 83.5577 96.0302 92.1888C98.1573 93.9771 100.547 96.3614 105.59 101.321C115.007 110.596 139.194 120.204 139.241 121.325L139.194 121.301Z"
    fill="url(#paint4_radial_103006_12956)" />
  <path
    d="M89.532 87.5653C90.488 88.1852 91.444 88.829 92.4 89.4727C89.2213 78.4096 89.1018 66.7265 92.0176 55.5918C79.2072 61.791 67.8069 70.5652 58.5815 81.3661C59.2507 81.3661 79.3984 80.9846 89.5559 87.5653H89.532Z"
    fill="url(#paint5_radial_103006_12956)" />
  <path
    d="M1.29626 151.225C12.0273 214.433 69.4589 262.715 134.634 264.527C194.957 266.22 233.508 231.29 249.449 197.195C259.75 175.164 266.896 139.113 253.775 103.635V103.492C253.775 103.396 253.775 103.325 253.775 103.372C253.775 103.42 253.775 103.444 253.799 103.611C258.723 135.727 242.351 166.819 216.754 187.848L216.683 188.039C166.827 228.548 119.099 212.478 109.443 205.897C108.774 205.564 108.081 205.23 107.412 204.896C78.3497 191.043 66.328 164.601 68.9092 141.95C54.8082 142.165 41.9023 134.058 35.999 121.302C35.999 121.302 58.0347 105.614 87.0731 119.252C103.516 126.715 122.254 127.43 139.247 121.302C139.199 120.182 115.012 110.573 105.596 101.298C100.553 96.3387 98.1627 93.9544 96.0356 92.1662C94.8884 91.1886 93.6934 90.2826 92.4267 89.4481C91.5902 88.8758 90.682 88.2797 89.5587 87.5406C79.4252 80.9599 59.2775 81.3414 58.6083 81.3414H58.5366C53.0157 74.3793 53.422 51.4184 53.7327 46.626C52.1075 47.2697 50.554 48.1042 49.0961 49.0818C44.2445 52.539 39.6796 56.4255 35.521 60.6934C30.7649 65.5097 26.439 70.6836 22.5433 76.2152C13.6047 88.852 7.27125 103.11 3.90135 118.203C3.82965 118.513 -1.11763 140.043 1.32016 151.201L1.29626 151.225Z"
    fill="url(#paint6_radial_103006_12956)" />
  <path
    d="M202.934 115.032C202.265 114.436 201.572 113.864 200.855 113.339C200.568 113.125 200.281 112.91 199.995 112.696C192.586 107.498 179.297 102.372 166.487 104.589C216.462 129.529 203.054 215.364 133.792 212.121C127.626 211.883 121.531 210.691 115.7 208.64C114.313 208.116 112.951 207.567 111.613 206.971C110.824 206.613 110.035 206.256 109.271 205.85L109.366 205.922C119.022 212.503 166.75 228.573 216.605 188.064L216.677 187.873C217.92 184.94 234.411 144.002 202.91 115.032H202.934Z"
    fill="url(#paint7_radial_103006_12956)" />
  <path
    d="M76.5757 160.475C76.5757 160.475 82.9809 136.632 122.487 136.632C126.766 136.632 138.978 124.735 139.194 121.301C122.201 127.453 103.487 126.714 87.02 119.251C57.9815 105.612 35.9458 121.301 35.9458 121.301C41.873 134.057 54.7551 142.164 68.856 141.949C66.2748 164.6 78.2965 191.042 107.359 204.895C108.004 205.205 108.626 205.539 109.295 205.849C92.3258 197.098 78.3204 180.551 76.5757 160.475Z"
    fill="url(#paint8_radial_103006_12956)" />
  <path
    d="M267.536 96.4036C261.489 81.9071 249.276 66.266 239.669 61.3067C246.504 74.5157 251.26 88.7023 253.746 103.39C253.746 103.39 253.746 103.461 253.77 103.628C238.067 64.5493 211.419 48.8129 189.67 14.5028C188.547 12.7623 187.447 10.9741 186.396 9.18584C185.846 8.25596 185.344 7.30224 184.866 6.32467C183.958 4.58413 183.265 2.74822 182.787 0.840777C182.787 0.650033 182.667 0.483132 182.476 0.459289C182.38 0.435445 182.309 0.435445 182.213 0.459289C182.213 0.459289 182.165 0.483132 182.141 0.506975L182.046 0.554661L182.094 0.483132C147.2 20.8689 135.345 58.6124 134.27 77.4723C135.895 77.3531 137.496 77.2338 139.145 77.2338C164.336 77.2815 187.591 90.8005 200.019 112.688C192.61 107.491 179.321 102.364 166.511 104.582C216.486 129.522 203.078 215.356 133.816 212.114C127.65 211.875 121.555 210.683 115.724 208.633C114.337 208.108 112.975 207.56 111.637 206.964C110.848 206.606 110.059 206.248 109.294 205.843L109.39 205.915C108.721 205.581 108.028 205.247 107.359 204.913C108.004 205.223 108.625 205.557 109.294 205.867C92.3255 197.117 78.3201 180.593 76.5754 160.494C76.5754 160.494 82.9806 136.651 122.487 136.651C126.765 136.651 138.978 124.753 139.193 121.32C139.145 120.199 114.959 110.59 105.542 101.315C100.499 96.3559 98.1093 93.9716 95.9822 92.1834C94.835 91.2058 93.64 90.2998 92.3733 89.4653C89.1946 78.4021 89.0751 66.7191 91.9909 55.5844C79.1805 61.7835 67.7802 70.5578 58.5549 81.3587H58.4832C52.9623 74.3965 53.3686 51.4357 53.6793 46.6432C52.0541 47.287 50.5006 48.1215 49.0427 49.0991C44.191 52.5563 39.6261 56.4427 35.4675 60.7106C30.7114 65.5269 26.3855 70.7008 22.4898 76.2324C13.5513 88.8692 7.21778 103.127 3.84789 118.22C3.77619 118.53 3.72839 118.84 3.65669 119.126C3.39379 120.342 2.22269 126.541 2.0554 127.876C0.979898 134.266 0.310699 140.728 0 147.213C0 147.452 0 147.69 0 147.928C0 224.488 62.2116 286.552 138.954 286.528C206.615 286.528 264.453 237.888 275.901 171.366C276.14 169.602 276.331 167.813 276.522 166.025C279.39 142.421 276.283 118.482 267.512 96.3798L267.536 96.4036Z"
    fill="url(#paint9_linear_103006_12956)" />
  <defs>
    <linearGradient id="paint0_linear_103006_12956" x1="251.336" y1="38.3289" x2="28.2682"
      y2="254.718" gradientUnits="userSpaceOnUse">
      <stop offset="0.05" stop-color="#FFF44F" />
      <stop offset="0.37" stop-color="#FF980E" />
      <stop offset="0.53" stop-color="#FF3647" />
      <stop offset="0.7" stop-color="#E31587" />
    </linearGradient>
    <radialGradient id="paint1_radial_103006_12956" cx="0" cy="0" r="1"
      gradientUnits="userSpaceOnUse"
      gradientTransform="translate(148.958 61.6818) scale(374.869 380.255)">
      <stop offset="0.229287" stop-color="#FFBD4F" />
      <stop offset="0.28" stop-color="#FF980E" />
      <stop offset="0.379306" stop-color="#FF3750" />
      <stop offset="0.549519" stop-color="#EB0878" />
      <stop offset="0.698095" stop-color="#E50080" />
    </radialGradient>
    <radialGradient id="paint2_radial_103006_12956" cx="0" cy="0" r="1"
      gradientUnits="userSpaceOnUse"
      gradientTransform="translate(136.145 149.745) scale(291.327 288.314)">
      <stop offset="0.3" stop-color="#960E18" />
      <stop offset="0.35" stop-color="#B11927" stop-opacity="0.74" />
      <stop offset="0.43" stop-color="#DB293D" stop-opacity="0.34" />
      <stop offset="0.5" stop-color="#F5334B" stop-opacity="0.09" />
      <stop offset="0.53" stop-color="#FF3750" stop-opacity="0" />
    </radialGradient>
    <radialGradient id="paint3_radial_103006_12956" cx="0" cy="0" r="1"
      gradientUnits="userSpaceOnUse"
      gradientTransform="translate(108.362 224.782) scale(123.419 134.975)">
      <stop offset="0.35" stop-color="#3A8EE6" />
      <stop offset="0.67" stop-color="#9059FF" />
      <stop offset="1" stop-color="#C139E6" />
    </radialGradient>
    <radialGradient id="paint4_radial_103006_12956" cx="0" cy="0" r="1"
      gradientUnits="userSpaceOnUse"
      gradientTransform="translate(130.041 120.851) scale(65.5413 79.6355)">
      <stop offset="0.21" stop-color="#9059FF" stop-opacity="0" />
      <stop offset="0.97" stop-color="#6E008B" stop-opacity="0.6" />
    </radialGradient>
    <radialGradient id="paint5_radial_103006_12956" cx="0" cy="0" r="1"
      gradientUnits="userSpaceOnUse"
      gradientTransform="translate(139.506 20.2917) scale(98.0734 98.2547)">
      <stop offset="0.1" stop-color="#FFE226" />
      <stop offset="0.79" stop-color="#FF7139" />
    </radialGradient>
    <radialGradient id="paint6_radial_103006_12956" cx="0" cy="0" r="1"
      gradientUnits="userSpaceOnUse"
      gradientTransform="translate(210.555 -42.1621) scale(468.487 392.308)">
      <stop offset="0.11" stop-color="#FFF44F" />
      <stop offset="0.46" stop-color="#FF980E" />
      <stop offset="0.72" stop-color="#FF3647" />
      <stop offset="0.9" stop-color="#E31587" />
    </radialGradient>
    <radialGradient id="paint7_radial_103006_12956" cx="0" cy="0" r="1"
      gradientUnits="userSpaceOnUse"
      gradientTransform="translate(120.916 50.567) scale(268.539 263.247)">
      <stop offset="0.14" stop-color="#FFF44F" />
      <stop offset="0.48" stop-color="#FF980E" />
      <stop offset="0.66" stop-color="#FF3647" />
      <stop offset="0.9" stop-color="#E31587" />
    </radialGradient>
    <radialGradient id="paint8_radial_103006_12956" cx="0" cy="0" r="1"
      gradientUnits="userSpaceOnUse"
      gradientTransform="translate(204.899 68.2461) scale(323.165 288.514)">
      <stop offset="0.09" stop-color="#FFF44F" />
      <stop offset="0.63" stop-color="#FF980E" />
    </radialGradient>
    <linearGradient id="paint9_linear_103006_12956" x1="271.731" y1="14.9399" x2="58.8906"
      y2="232.399" gradientUnits="userSpaceOnUse">
      <stop offset="0.0075568" stop-color="#FFF44F" stop-opacity="0.8" />
      <stop offset="0.805708" stop-color="#FFF44F" stop-opacity="0" />
    </linearGradient>
  </defs>
</svg>
