<svg width="1730" height="496" viewBox="0 0 1730 496" fill="none" xmlns="http://www.w3.org/2000/svg">
<path d="M610 128H774.898V165.266H658.48V237.819H747.855V275.085H658.48V372.702H610V128ZM809.527 196.596H856.688V372.702H809.527V196.596ZM899.563 196.596H942.766V228.255H947.712C951.89 216.822 957.936 208.359 965.852 202.861C973.987 197.146 984.321 194.287 996.852 194.287H1024.23V230.234H977.394C966.841 230.234 959.036 233.201 953.979 239.138C948.923 245.075 946.394 254.967 946.394 268.82V372.702H899.563V196.596ZM807.548 128H858.667V165.266H807.548V128ZM1121.52 376C1094.03 376 1072.6 368.085 1057.21 352.256C1042.04 336.205 1034.45 313.671 1034.45 284.649C1034.45 255.628 1042.04 233.201 1057.21 217.372C1072.6 201.322 1094.03 193.298 1121.52 193.298C1148.34 193.298 1169.12 200.663 1183.85 215.394C1198.58 230.125 1205.94 251.011 1205.94 278.053V293.884H1083.92V297.51C1083.92 313.561 1086.89 325.433 1092.82 333.129C1098.98 340.603 1108.54 344.34 1121.52 344.34C1132.07 344.34 1139.99 342.253 1145.26 338.075C1150.76 333.677 1153.51 329.061 1153.51 324.224V322.905H1201.66C1196.6 340.053 1187.15 353.245 1173.29 362.48C1159.66 371.493 1142.4 376 1121.52 376ZM1159.11 264.202C1158.23 250.352 1154.71 240.238 1148.56 233.862C1142.62 227.266 1133.61 223.968 1121.52 223.968C1109.42 223.968 1100.3 227.266 1094.14 233.862C1088.21 240.238 1084.8 250.352 1083.92 264.202H1159.11ZM1251.46 227.596H1221.45V196.596H1251.46V156.362C1251.46 147.348 1253.88 140.422 1258.71 135.585C1263.77 130.528 1271.02 128 1280.48 128H1351.72V159H1298.62V196.596H1351.72V227.596H1298.62V372.702H1251.46V227.596ZM1450.65 376C1422.95 376 1401.29 368.085 1385.68 352.256C1370.07 336.205 1362.27 313.671 1362.27 284.649C1362.27 255.628 1370.07 233.201 1385.68 217.372C1401.29 201.322 1422.95 193.298 1450.65 193.298C1478.36 193.298 1499.9 201.322 1515.3 217.372C1530.91 233.201 1538.71 255.628 1538.71 284.649C1538.71 313.671 1530.91 336.205 1515.3 352.256C1499.9 368.085 1478.36 376 1450.65 376ZM1450.65 344.34C1463.85 344.34 1473.52 340.603 1479.68 333.129C1486.05 325.433 1489.24 313.561 1489.24 297.51V271.787C1489.24 255.737 1486.05 243.976 1479.68 236.499C1473.52 228.805 1463.85 224.957 1450.65 224.957C1437.46 224.957 1427.68 228.805 1421.3 236.499C1414.93 243.976 1411.74 255.737 1411.74 271.787V297.51C1411.74 313.561 1414.93 325.433 1421.3 333.129C1427.68 340.603 1437.46 344.34 1450.65 344.34ZM1603.02 282.012L1546.3 196.596H1595.11L1635.01 259.256H1638.64L1678.55 196.596H1726.03L1669.31 282.012L1729 372.702H1680.85L1637.65 304.767H1634.02L1590.82 372.702H1543.33L1603.02 282.012Z" fill="white"/>
<path d="M462.607 166.433C452.155 141.316 431.032 114.203 414.403 105.624C426.228 128.525 434.433 153.11 438.739 178.539L438.801 178.944C411.626 111.208 365.574 83.9081 327.947 24.4719C326.013 21.4454 324.11 18.3878 322.299 15.2678C321.364 13.6453 320.49 11.9918 319.647 10.3069C318.088 7.28054 316.871 4.09812 316.06 0.790909C316.06 0.478907 315.841 0.198106 315.529 0.135705C315.373 0.104505 315.217 0.104505 315.061 0.135705C315.031 0.135705 314.968 0.198106 314.937 0.198106C314.906 0.198106 314.812 0.260506 314.781 0.291706L314.875 0.166905C254.533 35.5167 234.066 100.912 232.163 133.61C208.076 135.264 185.019 144.156 166.049 159.1C164.053 157.416 161.962 155.856 159.81 154.389C154.349 135.233 154.099 114.953 159.123 95.6706C136.971 106.403 117.284 121.629 101.309 140.35H101.185C91.6681 128.275 92.3234 88.4946 92.8849 80.1954C90.077 81.3186 87.3937 82.7537 84.8665 84.4385C76.4737 90.429 68.6112 97.1682 61.3728 104.562C53.1671 112.894 45.6479 121.879 38.9399 131.457C23.4958 153.36 12.5445 178.102 6.71008 204.247C6.58528 204.777 6.49169 205.308 6.39808 205.839C5.96128 207.96 4.33886 218.537 4.02686 220.846C4.02686 221.033 3.99567 221.189 3.96448 221.376C1.87406 232.327 0.563656 243.403 0.0644531 254.51C0.0644531 254.916 0.0644531 255.322 0.0644531 255.759C0.0644531 388.421 107.643 495.969 240.305 495.969C357.306 495.969 457.272 411.697 477.052 296.381C477.458 293.292 477.801 290.204 478.145 287.115C483.106 246.211 477.739 204.715 462.576 166.401L462.607 166.433ZM185.736 354.476C186.86 355.006 187.92 355.599 189.075 356.13L189.231 356.224C188.045 355.662 186.891 355.069 185.705 354.476H185.736Z" fill="url(#paint0_linear_137_58)"/>
<path d="M462.605 166.433C452.153 141.316 431.031 114.204 414.401 105.624C426.226 128.524 434.431 153.11 438.737 178.538C438.737 178.475 438.737 178.569 438.768 178.756V179.006C461.482 240.47 449.127 302.965 431.342 341.122C403.824 400.215 337.18 460.743 232.847 457.811C120.12 454.628 20.8419 370.981 2.30896 261.437C-1.06065 244.152 2.30896 235.416 3.99377 221.345C1.65376 232.234 0.374551 243.341 0.09375 254.479C0.09375 254.885 0.09375 255.291 0.09375 255.728C0.09375 388.39 107.641 495.969 240.335 495.969C357.336 495.969 457.301 411.697 477.113 296.382C477.519 293.292 477.862 290.203 478.205 287.115C483.166 246.212 477.8 204.715 462.637 166.401L462.605 166.433Z" fill="url(#paint1_radial_137_58)"/>
<path d="M462.605 166.433C452.153 141.316 431.031 114.204 414.401 105.624C426.226 128.524 434.431 153.11 438.737 178.538C438.737 178.475 438.737 178.569 438.768 178.756V179.006C461.482 240.47 449.127 302.965 431.342 341.122C403.824 400.215 337.18 460.743 232.847 457.811C120.12 454.628 20.8419 370.981 2.30896 261.437C-1.06065 244.152 2.30896 235.416 3.99377 221.345C1.65376 232.234 0.374551 243.341 0.09375 254.479C0.09375 254.885 0.09375 255.291 0.09375 255.728C0.09375 388.39 107.641 495.969 240.335 495.969C357.336 495.969 457.301 411.697 477.113 296.382C477.519 293.292 477.862 290.203 478.205 287.115C483.166 246.212 477.8 204.715 462.637 166.401L462.605 166.433Z" fill="url(#paint2_radial_137_58)"/>
<path d="M345.853 194.668C346.384 195.043 346.852 195.417 347.351 195.761C341.329 185.059 333.81 175.262 325.043 166.651C250.381 91.9889 305.481 4.75322 314.778 0.322799L314.872 0.197998C254.53 35.5478 234.063 100.944 232.16 133.641C234.968 133.453 237.745 133.236 240.584 133.236C284.171 133.329 324.326 156.791 345.822 194.699L345.853 194.668Z" fill="url(#paint3_radial_137_58)"/>
<path d="M240.741 209.582C240.335 215.572 219.244 236.165 211.849 236.165C143.521 236.165 132.445 277.474 132.445 277.474C135.472 312.262 159.683 340.935 189.042 356.098C190.384 356.785 191.725 357.409 193.099 358.032C195.407 359.062 197.779 360.03 200.15 360.934C210.196 364.491 220.741 366.519 231.412 366.955C351.127 372.572 374.34 223.809 287.947 180.597C310.067 176.759 333.031 185.651 345.885 194.637C324.389 156.729 284.203 133.266 240.616 133.173C237.777 133.173 234.969 133.422 232.192 133.578C208.105 135.232 185.048 144.125 166.079 159.069C169.729 162.158 173.879 166.308 182.615 174.888C198.901 190.956 240.71 207.617 240.804 209.551L240.741 209.582Z" fill="url(#paint4_radial_137_58)"/>
<path d="M240.741 209.582C240.335 215.572 219.244 236.165 211.849 236.165C143.521 236.165 132.445 277.474 132.445 277.474C135.472 312.262 159.683 340.935 189.042 356.098C190.384 356.785 191.725 357.409 193.099 358.032C195.407 359.062 197.779 360.03 200.15 360.934C210.196 364.491 220.741 366.519 231.412 366.955C351.127 372.572 374.34 223.809 287.947 180.597C310.067 176.759 333.031 185.651 345.885 194.637C324.389 156.729 284.203 133.266 240.616 133.173C237.777 133.173 234.969 133.422 232.192 133.578C208.105 135.232 185.048 144.125 166.079 159.069C169.729 162.158 173.879 166.308 182.615 174.888C198.901 190.956 240.71 207.617 240.804 209.551L240.741 209.582Z" fill="url(#paint5_radial_137_58)"/>
<path d="M154.844 151.114C156.529 152.174 158.183 153.298 159.806 154.42C154.345 135.264 154.095 114.984 159.119 95.7019C136.967 106.434 117.28 121.661 101.305 140.381C102.459 140.381 137.31 139.725 154.844 151.114Z" fill="url(#paint6_radial_137_58)"/>
<path d="M2.3063 261.468C20.8392 371.012 120.118 454.659 232.844 457.842C337.146 460.807 403.821 400.246 431.34 341.153C449.124 302.964 461.511 240.471 438.828 179.038V178.788C438.828 178.601 438.797 178.507 438.797 178.57L438.859 178.975C447.377 234.636 419.078 288.518 374.805 324.991L374.68 325.304C288.474 395.504 205.981 367.674 189.288 356.255C188.103 355.693 186.948 355.1 185.795 354.507C135.531 330.483 114.783 284.681 119.213 245.431C94.846 245.774 72.5379 231.765 62.3042 209.645C62.3042 209.645 100.4 182.469 150.631 206.088C179.087 219.005 211.441 220.285 240.832 209.645C240.738 207.679 198.93 191.049 182.643 174.981C173.938 166.401 169.789 162.252 166.108 159.163C164.141 157.478 162.051 155.918 159.898 154.451C158.463 153.485 156.872 152.423 154.938 151.145C137.403 139.757 102.584 140.412 101.429 140.412H101.304C91.7884 128.337 92.4436 88.5571 93.0052 80.2578C90.1972 81.381 87.514 82.8163 84.9867 84.501C76.5939 90.4915 68.7314 97.2307 61.493 104.625C53.2873 112.956 45.7681 121.941 39.0601 131.52C23.616 153.422 12.6647 178.164 6.83032 204.31C6.70552 204.84 -1.84333 242.156 2.36869 261.53L2.3063 261.468Z" fill="url(#paint7_radial_137_58)"/>
<path d="M325.043 166.651C333.81 175.262 341.33 185.059 347.351 195.761C348.6 196.697 349.816 197.664 350.971 198.725C405.415 248.895 376.898 319.907 374.776 324.96C419.018 288.518 447.316 234.605 438.83 178.944C411.624 111.239 365.572 83.9394 327.945 24.5031C326.011 21.4767 324.108 18.4191 322.297 15.2991C321.362 13.6766 320.488 12.023 319.646 10.3383C318.085 7.31179 316.869 4.12937 316.058 0.822159C316.058 0.510157 315.839 0.229355 315.527 0.166955C315.372 0.135755 315.216 0.135755 315.06 0.166955C315.028 0.166955 314.966 0.229355 314.935 0.229355C314.904 0.229355 314.81 0.291756 314.779 0.322956C305.481 4.75338 250.381 91.989 325.043 166.651Z" fill="url(#paint8_linear_137_58)" fill-opacity="0.8"/>
<path d="M350.971 198.725C349.817 197.695 348.6 196.696 347.352 195.761C346.853 195.386 346.384 195.012 345.855 194.668C333.031 185.651 310.068 176.759 287.916 180.629C374.309 223.84 351.127 372.603 231.381 366.988C220.711 366.551 210.196 364.523 200.119 360.965C197.748 360.061 195.376 359.093 193.067 358.063C191.726 357.44 190.353 356.816 189.012 356.129L189.168 356.223C205.859 367.611 288.353 395.473 374.559 325.273L374.684 324.96C376.805 319.906 405.354 248.925 350.878 198.725H350.971Z" fill="url(#paint9_radial_137_58)"/>
<path d="M132.475 277.474C132.475 277.474 143.551 236.165 211.88 236.165C219.274 236.165 240.397 215.541 240.772 209.582C211.412 220.221 179.026 218.943 150.571 206.025C100.37 182.407 62.2441 209.582 62.2441 209.582C72.4777 231.703 94.7859 245.743 119.153 245.369C114.691 284.65 135.471 330.452 185.734 354.444C186.857 354.975 187.918 355.567 189.072 356.098C159.744 340.935 135.502 312.262 132.475 277.474Z" fill="url(#paint10_radial_137_58)"/>
<path d="M462.605 166.433C452.153 141.316 431.03 114.204 414.4 105.624C426.225 128.525 434.431 153.11 438.737 178.539L438.8 178.944C411.623 111.208 365.573 83.9081 327.945 24.4719C326.01 21.4454 324.107 18.3878 322.298 15.2678C321.361 13.6453 320.488 11.9918 319.646 10.3069C318.086 7.28054 316.869 4.09812 316.058 0.790909C316.058 0.478907 315.84 0.198106 315.527 0.135705C315.371 0.104505 315.215 0.104505 315.059 0.135705C315.028 0.135705 314.966 0.198106 314.934 0.198106C314.903 0.198106 314.81 0.260506 314.778 0.291706L314.872 0.166905C254.531 35.5167 234.064 100.912 232.16 133.61C234.968 133.423 237.745 133.205 240.585 133.205C284.171 133.298 324.326 156.76 345.822 194.669C332.999 185.652 310.036 176.759 287.884 180.629C374.277 223.841 351.095 372.603 231.349 366.987C220.679 366.55 210.164 364.523 200.087 360.965C197.716 360.061 195.345 359.093 193.036 358.064C191.694 357.44 190.321 356.816 188.979 356.13L189.135 356.224C187.95 355.662 186.795 355.069 185.641 354.476C186.764 355.006 187.825 355.599 188.979 356.13C159.651 340.966 135.409 312.294 132.382 277.505C132.382 277.505 143.458 236.196 211.786 236.196C219.181 236.196 240.304 215.572 240.678 209.614C240.585 207.648 198.776 191.018 182.489 174.95C173.785 166.37 169.635 162.221 165.954 159.132C163.956 157.447 161.897 155.856 159.744 154.42C154.285 135.264 154.035 114.984 159.059 95.7018C136.906 106.434 117.219 121.661 101.244 140.38H101.12C91.6037 128.306 92.2589 88.5258 92.8205 80.2266C90.0125 81.3498 87.3292 82.7849 84.802 84.4698C76.4092 90.4602 68.5468 97.1994 61.3083 104.594C53.1026 112.925 45.5835 121.91 38.8754 131.488C23.4313 153.391 12.48 178.133 6.64563 204.278C6.52082 204.809 6.42723 205.339 6.33363 205.87C5.89683 207.991 3.86882 218.724 3.55681 221.033C1.716 232.14 0.530403 243.31 0 254.542C0 254.947 0 255.353 0 255.79C0 388.453 107.578 496 240.241 496C357.241 496 457.207 411.728 476.988 296.413C477.394 293.323 477.736 290.235 478.08 287.146C483.041 246.243 477.674 204.746 462.511 166.433H462.605ZM438.768 178.757V179.007H438.8V178.757H438.768Z" fill="url(#paint11_linear_137_58)"/>
<defs>
<linearGradient id="paint0_linear_137_58" x1="439.09" y1="76.6073" x2="53.786" y2="445.865" gradientUnits="userSpaceOnUse">
<stop offset="0.05" stop-color="#FFF44F"/>
<stop offset="0.37" stop-color="#FF980E"/>
<stop offset="0.53" stop-color="#FF3647"/>
<stop offset="0.7" stop-color="#E31587"/>
</linearGradient>
<radialGradient id="paint1_radial_137_58" cx="0" cy="0" r="1" gradientUnits="userSpaceOnUse" gradientTransform="translate(410.922 104.109) scale(492.797 501.072)">
<stop offset="0.13" stop-color="#FFBD4F"/>
<stop offset="0.28" stop-color="#FF980E"/>
<stop offset="0.47" stop-color="#FF3750"/>
<stop offset="0.78" stop-color="#EB0878"/>
<stop offset="0.86" stop-color="#E50080"/>
</radialGradient>
<radialGradient id="paint2_radial_137_58" cx="0" cy="0" r="1" gradientUnits="userSpaceOnUse" gradientTransform="translate(237.593 260.61) scale(505.103 501.072)">
<stop offset="0.3" stop-color="#960E18"/>
<stop offset="0.35" stop-color="#B11927" stop-opacity="0.74"/>
<stop offset="0.43" stop-color="#DB293D" stop-opacity="0.34"/>
<stop offset="0.5" stop-color="#F5334B" stop-opacity="0.09"/>
<stop offset="0.53" stop-color="#FF3750" stop-opacity="0"/>
</radialGradient>
<radialGradient id="paint3_radial_137_58" cx="0" cy="0" r="1" gradientUnits="userSpaceOnUse" gradientTransform="translate(299.854 -18.2223) scale(160.866 273.19)">
<stop offset="0.13" stop-color="#FFF44F"/>
<stop offset="0.53" stop-color="#FF980E"/>
</radialGradient>
<radialGradient id="paint4_radial_137_58" cx="0" cy="0" r="1" gradientUnits="userSpaceOnUse" gradientTransform="translate(189.044 389.124) scale(212.675 233.143)">
<stop offset="0.35" stop-color="#3A8EE6"/>
<stop offset="0.67" stop-color="#9059FF"/>
<stop offset="1" stop-color="#C139E6"/>
</radialGradient>
<radialGradient id="paint5_radial_137_58" cx="0" cy="0" r="1" gradientUnits="userSpaceOnUse" gradientTransform="translate(239.086 218.028) rotate(5.84609) scale(107.51 124.872)">
<stop offset="0.21" stop-color="#9059FF" stop-opacity="0"/>
<stop offset="1" stop-color="#6E008B" stop-opacity="0.6"/>
</radialGradient>
<radialGradient id="paint6_radial_137_58" cx="0" cy="0" r="1" gradientUnits="userSpaceOnUse" gradientTransform="translate(243.998 35.251) scale(169.529 170.248)">
<stop offset="0.1" stop-color="#FFE226"/>
<stop offset="0.79" stop-color="#FF7139"/>
</radialGradient>
<radialGradient id="paint7_radial_137_58" cx="0" cy="0" r="1" gradientUnits="userSpaceOnUse" gradientTransform="translate(359.502 -82.2582) scale(808.652 678.852)">
<stop offset="0.11" stop-color="#FFF44F"/>
<stop offset="0.46" stop-color="#FF980E"/>
<stop offset="0.72" stop-color="#FF3647"/>
<stop offset="0.9" stop-color="#E31587"/>
</radialGradient>
<linearGradient id="paint8_linear_137_58" x1="309.506" y1="-57.5846" x2="409.346" y2="383.897" gradientUnits="userSpaceOnUse">
<stop stop-color="#FFF44F"/>
<stop offset="0.3" stop-color="#FF980E"/>
<stop offset="0.57" stop-color="#FF3647"/>
<stop offset="0.74" stop-color="#E31587"/>
</linearGradient>
<radialGradient id="paint9_radial_137_58" cx="0" cy="0" r="1" gradientUnits="userSpaceOnUse" gradientTransform="translate(206.284 89.5511) scale(465.455 457.371)">
<stop offset="0.14" stop-color="#FFF44F"/>
<stop offset="0.48" stop-color="#FF980E"/>
<stop offset="0.66" stop-color="#FF3647"/>
<stop offset="0.9" stop-color="#E31587"/>
</radialGradient>
<radialGradient id="paint10_radial_137_58" cx="0" cy="0" r="1" gradientUnits="userSpaceOnUse" gradientTransform="translate(355.263 118.926) scale(559.357 500.573)">
<stop offset="0.09" stop-color="#FFF44F"/>
<stop offset="0.63" stop-color="#FF980E"/>
</radialGradient>
<linearGradient id="paint11_linear_137_58" x1="413.694" y1="76.5137" x2="105.584" y2="414.685" gradientUnits="userSpaceOnUse">
<stop offset="0.17" stop-color="#FFF44F" stop-opacity="0.8"/>
<stop offset="0.677885" stop-color="#FFF44F" stop-opacity="0"/>
</linearGradient>
</defs>
</svg>
