<svg width="18" height="20" viewBox="0 0 18 20" fill="none" xmlns="http://www.w3.org/2000/svg">
<path fill-rule="evenodd" clip-rule="evenodd" d="M9 1.10744C8.3826 0.427141 7.49127 0 6.5 0C4.63575 0 3.125 1.51075 3.125 3.375C3.125 3.96415 3.27588 4.51799 3.54111 5H2.5C1.11975 5 0 6.11975 0 7.5V8.5C0 9.31755 0.392853 10.0437 1 10.4999V17.5C1 18.8802 2.11975 20 3.5 20H14.5C15.8802 20 16.9999 18.8802 17 17.5L17.0009 10.4992C17.6075 10.043 18 9.31713 18 8.5V7.5C18 6.11975 16.8802 5 15.5 5H14.4589C14.7241 4.51799 14.875 3.96415 14.875 3.375C14.875 1.51075 13.3642 0 11.5 0C10.5087 0 9.6174 0.427141 9 1.10744ZM6.5 1.75C5.60225 1.75 4.875 2.47725 4.875 3.375C4.875 4.27275 5.60225 5 6.5 5H8.125V3.375C8.125 2.47725 7.39775 1.75 6.5 1.75ZM9.875 6.75V9.25H15.5C15.9138 9.25 16.25 8.91375 16.25 8.5V7.5C16.25 7.08625 15.9138 6.75 15.5 6.75H9.875ZM11.5 5C12.3978 5 13.125 4.27275 13.125 3.375C13.125 2.47725 12.3978 1.75 11.5 1.75C10.6022 1.75 9.875 2.47725 9.875 3.375V5H11.5ZM2.5 6.75H8.125V9.25H2.5C2.08625 9.25 1.75 8.91375 1.75 8.5V7.5C1.75 7.08625 2.08625 6.75 2.5 6.75ZM9.875 11H15.2509L15.25 17.5C15.25 17.9137 14.9138 18.25 14.5 18.25H9.875V11ZM8.125 11V18.25H3.5C3.08625 18.25 2.75 17.9137 2.75 17.5V11H8.125Z" fill="black"/>
</svg>
