<svg width="160" height="160" viewBox="0 0 160 160" fill="none" xmlns="http://www.w3.org/2000/svg">
<path d="M0 40C0 17.9086 17.9086 0 40 0H120C142.091 0 160 17.9086 160 40V120C160 142.091 142.091 160 120 160H40C17.9086 160 0 142.091 0 120V40Z" fill="#3A0F6E"/>
<mask id="path-2-inside-1_113358_141854" fill="white">
<path d="M27 45C27 44.4477 27.4477 44 28 44H132C132.552 44 133 44.4477 133 45V108C133 112.418 129.418 116 125 116H35C30.5817 116 27 112.418 27 108V45Z"/>
</mask>
<path d="M27 45C27 44.4477 27.4477 44 28 44H132C132.552 44 133 44.4477 133 45V108C133 112.418 129.418 116 125 116H35C30.5817 116 27 112.418 27 108V45Z" stroke="#C7A8FF" stroke-width="4" mask="url(#path-2-inside-1_113358_141854)"/>
<path d="M41 73.5H75" stroke="#9468FF" stroke-width="2" stroke-linecap="round"/>
<path d="M41 82H91" stroke="#9468FF" stroke-width="2" stroke-linecap="round"/>
<path d="M85 73.5H119" stroke="#9468FF" stroke-width="2" stroke-linecap="round"/>
<path d="M40 94L46.9333 99.2C47.4667 99.6 47.4667 100.4 46.9333 100.8L40 106" stroke="white" stroke-width="2" stroke-linecap="round"/>
<path d="M51 106H62" stroke="white" stroke-width="2" stroke-linecap="round"/>
<path d="M101 82H115" stroke="#9468FF" stroke-width="2" stroke-linecap="round"/>
<mask id="path-9-inside-2_113358_141854" fill="white">
<path d="M27 45C27 44.4477 27.4477 44 28 44H132C132.552 44 133 44.4477 133 45V65H27V45Z"/>
</mask>
<path d="M27 45C27 44.4477 27.4477 44 28 44H132C132.552 44 133 44.4477 133 45V65H27V45Z" fill="#C7A8FF"/>
<path d="M27 45C27 44.4477 27.4477 44 28 44H132C132.552 44 133 44.4477 133 45V65H27V45Z" stroke="#C7A8FF" stroke-width="4" mask="url(#path-9-inside-2_113358_141854)"/>
<circle cx="53" cy="54" r="2" fill="#210340"/>
<circle cx="45" cy="54" r="2" fill="#210340"/>
<circle cx="37" cy="54" r="2" fill="#210340"/>
</svg>
