<svg width="160" height="160" viewBox="0 0 160 160" fill="none" xmlns="http://www.w3.org/2000/svg">
<path d="M0 40C0 17.9086 17.9086 0 40 0H120C142.091 0 160 17.9086 160 40V120C160 142.091 142.091 160 120 160H40C17.9086 160 0 142.091 0 120V40Z" fill="#F1E7F8"/>
<mask id="path-2-inside-1_113360_142277" fill="white">
<path d="M27 49C27 48.4477 27.4477 48 28 48H121C121.552 48 122 48.4477 122 49V100C122 104.418 118.418 108 114 108H35C30.5817 108 27 104.418 27 100V49Z"/>
</mask>
<path d="M27 49C27 48.4477 27.4477 48 28 48H121C121.552 48 122 48.4477 122 49V100C122 104.418 118.418 108 114 108H35C30.5817 108 27 104.418 27 100V49Z" stroke="#7543E3" stroke-width="4" mask="url(#path-2-inside-1_113360_142277)"/>
<path d="M41 77H75" stroke="#3A0F6E" stroke-width="2" stroke-linecap="round"/>
<path d="M41 85H58" stroke="#3A0F6E" stroke-width="2" stroke-linecap="round"/>
<path d="M41 93H69" stroke="#3A0F6E" stroke-width="2" stroke-linecap="round"/>
<mask id="path-6-inside-2_113360_142277" fill="white">
<path d="M27 49C27 48.4477 27.4477 48 28 48H121C121.552 48 122 48.4477 122 49V65.5H27V49Z"/>
</mask>
<path d="M27 49C27 48.4477 27.4477 48 28 48H121C121.552 48 122 48.4477 122 49V65.5H27V49Z" fill="#7543E3"/>
<path d="M27 49C27 48.4477 27.4477 48 28 48H121C121.552 48 122 48.4477 122 49V65.5H27V49Z" stroke="#7543E3" stroke-width="4" mask="url(#path-6-inside-2_113360_142277)"/>
<circle cx="53" cy="56" r="2" fill="white"/>
<circle cx="45" cy="56" r="2" fill="white"/>
<circle cx="37" cy="56" r="2" fill="white"/>
<path d="M105 71C90.0883 71 78 83.0883 78 98C78 103.126 79.4283 107.918 81.9086 112H128.091C130.572 107.918 132 103.126 132 98C132 83.0883 119.912 71 105 71Z" fill="#F1E7F8" stroke="#3A0F6E" stroke-width="2"/>
<circle cx="105" cy="98" r="7" stroke="#3A0F6E" stroke-width="2"/>
<path d="M105 80V86" stroke="#7543E3" stroke-width="2" stroke-linecap="round" stroke-linejoin="round"/>
<path d="M87 98L93 98" stroke="#7543E3" stroke-width="2" stroke-linecap="round" stroke-linejoin="round"/>
<path d="M91 85L95.2426 89.2426" stroke="#7543E3" stroke-width="2" stroke-linecap="round" stroke-linejoin="round"/>
<path d="M105 98L118 85" stroke="#7543E3" stroke-width="2" stroke-linecap="round" stroke-linejoin="round"/>
</svg>
