<svg width="160" height="160" viewBox="0 0 160 160" fill="none" xmlns="http://www.w3.org/2000/svg">
<path d="M0 40C0 17.9086 17.9086 0 40 0H120C142.091 0 160 17.9086 160 40V120C160 142.091 142.091 160 120 160H40C17.9086 160 0 142.091 0 120V40Z" fill="#3A0F6E"/>
<mask id="path-2-inside-1_113360_142137" fill="white">
<path d="M21 41C21 40.4477 21.4477 40 22 40H126C126.552 40 127 40.4477 127 41V104C127 108.418 123.418 112 119 112H29C24.5817 112 21 108.418 21 104V41Z"/>
</mask>
<path d="M21 41C21 40.4477 21.4477 40 22 40H126C126.552 40 127 40.4477 127 41V104C127 108.418 123.418 112 119 112H29C24.5817 112 21 108.418 21 104V41Z" stroke="#7543E3" stroke-width="4" mask="url(#path-2-inside-1_113360_142137)"/>
<path d="M35 69.5H69" stroke="#F1E7F8" stroke-width="2" stroke-linecap="round"/>
<path d="M35 78H85" stroke="#F1E7F8" stroke-width="2" stroke-linecap="round"/>
<path d="M35 86H98" stroke="#F1E7F8" stroke-width="2" stroke-linecap="round"/>
<path d="M79 69.5H113" stroke="#F1E7F8" stroke-width="2" stroke-linecap="round"/>
<path d="M95 78H109" stroke="#F1E7F8" stroke-width="2" stroke-linecap="round"/>
<mask id="path-8-inside-2_113360_142137" fill="white">
<path d="M21 41C21 40.4477 21.4477 40 22 40H126C126.552 40 127 40.4477 127 41V61H21V41Z"/>
</mask>
<path d="M21 41C21 40.4477 21.4477 40 22 40H126C126.552 40 127 40.4477 127 41V61H21V41Z" fill="#7543E3"/>
<path d="M21 41C21 40.4477 21.4477 40 22 40H126C126.552 40 127 40.4477 127 41V61H21V41Z" stroke="#7543E3" stroke-width="4" mask="url(#path-8-inside-2_113360_142137)"/>
<circle cx="47" cy="50" r="2" fill="white"/>
<circle cx="39" cy="50" r="2" fill="white"/>
<circle cx="31" cy="50" r="2" fill="white"/>
<path d="M102 53C102 51.8954 102.895 51 104 51H136C137.105 51 138 51.8954 138 53V102H102V53Z" fill="#9468FF"/>
<path d="M102 53C102 51.8954 102.895 51 104 51H136C137.105 51 138 51.8954 138 53V102H102V53Z" stroke="#6132BC" stroke-width="2"/>
<path d="M108 62H118" stroke="#F1E7F8" stroke-width="2" stroke-linecap="round" stroke-linejoin="round"/>
<path d="M108 72H125" stroke="#F1E7F8" stroke-width="2" stroke-linecap="round" stroke-linejoin="round"/>
<path d="M108 82H132" stroke="#F1E7F8" stroke-width="2" stroke-linecap="round" stroke-linejoin="round"/>
<path d="M124 62L132 62" stroke="#F1E7F8" stroke-width="2" stroke-linecap="round" stroke-linejoin="round"/>
<path d="M102 102H138V117C138 118.105 137.105 119 136 119H104C102.895 119 102 118.105 102 117V102Z" fill="#7543E3"/>
<path d="M102 102H138V117C138 118.105 137.105 119 136 119H104C102.895 119 102 118.105 102 117V102Z" stroke="#6132BC" stroke-width="2"/>
<circle cx="120" cy="110" r="4" fill="#6132BC" stroke="#3A0F6E" stroke-width="2"/>
</svg>
