<svg width="17" height="17" viewBox="0 0 17 17" fill="none" xmlns="http://www.w3.org/2000/svg">
<path d="M2.5 0C1.11975 0 0 1.11975 0 2.5V14.5C0 15.8802 1.11975 17 2.5 17H14.5C15.8802 17 17 15.8802 17 14.5V8H15.25V14.5C15.25 14.9138 14.9138 15.25 14.5 15.25H2.5C2.08625 15.25 1.75 14.9138 1.75 14.5V2.5C1.75 2.08625 2.08625 1.75 2.5 1.75H9V0H2.5Z" fill="black"/>
<path d="M11.788 0H16.25C16.664 0 17 0.336 17 0.75V5.291C17 5.962 16.186 6.296 15.715 5.817L14.0821 4.15524L9.23768 8.9997L8.00024 7.76226L12.8556 2.90695L11.253 1.276C10.787 0.801 11.123 0 11.788 0Z" fill="black"/>
</svg>
