<svg width="24" height="24" viewBox="0 0 24 24" fill="none" xmlns="http://www.w3.org/2000/svg">
<path d="M12.8743 15.6249H11.1243V17.3749H12.8743V15.6249Z" fill="black"/>
<path fill-rule="evenodd" clip-rule="evenodd" d="M11.1243 13.9999V8.99992H12.8743V13.9999H11.1243Z" fill="black"/>
<path d="M11.9553 4.91992C12.1203 4.91992 12.4243 4.96992 12.6103 5.30492L19.6503 17.9649C19.8313 18.2909 19.7223 18.5719 19.6413 18.7099C19.5603 18.8479 19.3683 19.0799 18.9953 19.0799H5.00333C4.63133 19.0799 4.43933 18.8489 4.35833 18.7119C4.27733 18.5749 4.16733 18.2949 4.34633 17.9689L11.2983 5.30892C11.4843 4.97092 11.7893 4.91992 11.9553 4.91992ZM11.9553 3.16992C11.0963 3.16992 10.2383 3.60292 9.76433 4.46692L2.81233 17.1269C1.89733 18.7929 3.10233 20.8299 5.00333 20.8299H18.9963C20.9033 20.8299 22.1083 18.7809 21.1813 17.1149L14.1413 4.45492C13.6633 3.59792 12.8093 3.16992 11.9553 3.16992Z" fill="black"/>
</svg>
