<svg width="16" height="16" viewBox="0 0 16 16" fill="none" xmlns="http://www.w3.org/2000/svg">
<path fill-rule="evenodd" clip-rule="evenodd" d="M13.876 3.90003C12.53 1.83003 9.707 0.793033 7.166 1.43603C6.18075 1.6778 5.28647 2.19944 4.591 2.93803L3.714 2.06103C4.56576 1.16108 5.65749 0.523956 6.86 0.225033C9.903 -0.542967 13.296 0.714033 14.924 3.22003C15.932 4.76903 16.989 7.89503 14.243 12.59L13.327 11.674C15.533 7.71703 14.699 5.16803 13.876 3.90003ZM0.627861 1.01106C0.791062 1.00895 0.948636 1.07065 1.067 1.18303L14.817 14.932C14.9338 15.0497 14.9994 15.2087 14.9994 15.3745C14.9994 15.5403 14.9338 15.6994 14.817 15.817C14.6988 15.9331 14.5398 15.9982 14.3742 15.9984C14.2086 15.9986 14.0494 15.9338 13.931 15.818L12.817 14.704C12.7952 14.7332 12.7738 14.7621 12.7525 14.7909L12.7524 14.791C12.6984 14.864 12.6448 14.9365 12.586 15.011C12.4803 15.1318 12.3323 15.2074 12.1725 15.2222C12.0127 15.237 11.8534 15.1899 11.7273 15.0905C11.6013 14.9912 11.5182 14.8472 11.4953 14.6884C11.4723 14.5296 11.5112 14.368 11.604 14.237C11.6917 14.1265 11.7706 14.0189 11.8497 13.9111L11.8497 13.911C11.8744 13.8774 11.8991 13.8438 11.924 13.81L10.83 12.716C9.784 14.085 8.232 15.339 5.899 15.978C5.74154 16.0147 5.57601 15.9889 5.43716 15.9061C5.29831 15.8233 5.19695 15.6899 5.15437 15.5339C5.11179 15.378 5.13129 15.2116 5.2088 15.0697C5.2863 14.9278 5.41576 14.8215 5.57 14.773C7.66 14.2 9.031 13.06 9.94 11.825L8.711 10.596C7.591 12.05 5.848 13 3.875 13H0.625C0.466592 12.9891 0.318249 12.9184 0.20992 12.8023C0.101591 12.6862 0.0413445 12.5333 0.0413445 12.3745C0.0413445 12.2157 0.101591 12.0629 0.20992 11.9468C0.318249 11.8307 0.466592 11.76 0.625 11.749H3.875C5.506 11.749 6.935 10.935 7.816 9.70003L6.227 8.11103C5.94325 8.74725 5.48144 9.28776 4.89729 9.66731C4.31314 10.0469 3.63163 10.2492 2.935 10.25H0.625C0.45924 10.25 0.300269 10.1842 0.183058 10.067C0.065848 9.94976 0 9.79079 0 9.62503C0 9.45927 0.065848 9.3003 0.183058 9.18309C0.300269 9.06588 0.45924 9.00003 0.625 9.00003H2.935C3.47565 8.99967 3.99988 8.81423 4.4205 8.47457C4.84113 8.1349 5.1328 7.66148 5.247 7.13303L3.304 5.19003C3.13754 5.72415 3.03154 6.27527 2.988 6.83303C2.961 7.17703 2.624 7.41803 2.315 7.40603C2.15006 7.39251 1.99718 7.31422 1.88981 7.18829C1.78243 7.06236 1.72929 6.89904 1.742 6.73403C1.81063 5.87304 2.01376 5.02812 2.344 4.23003L0.182 2.06803C0.0696214 1.94967 0.00791455 1.79209 0.0100309 1.62889C0.0121472 1.46569 0.0779193 1.30977 0.193329 1.19436C0.308739 1.07895 0.46466 1.01318 0.627861 1.01106ZM11.166 9.51303L12.124 10.471C12.894 8.62403 12.963 7.05903 12.96 7.05903C13.108 6.13603 12.849 5.20903 12.231 4.44803C11.6094 3.69721 10.7336 3.20108 9.77 3.05403C8.80877 2.88943 7.82063 3.08641 6.996 3.60703C6.636 3.83803 6.343 4.12703 6.101 4.44703L6.995 5.34103C7.166 5.06628 7.39629 4.83326 7.669 4.65903C8.214 4.30803 8.889 4.17903 9.571 4.28803C10.2314 4.38492 10.8328 4.72213 11.26 5.23503C11.651 5.71603 11.816 6.29403 11.717 6.94303C11.717 6.97003 11.67 8.10003 11.166 9.51303ZM8.75 6.87503V6.62503C8.75 6.45927 8.81584 6.3003 8.93305 6.18309C9.05026 6.06588 9.20924 6.00003 9.375 6.00003C9.54076 6.00003 9.69973 6.06588 9.81694 6.18309C9.93415 6.3003 10 6.45927 10 6.62503V6.87503C10 7.33003 9.946 7.77203 9.852 8.19903L8.73 7.07703C8.73094 7.04448 8.73544 7.01304 8.73994 6.98166C8.74497 6.94653 8.75 6.91148 8.75 6.87503Z" fill="black"/>
</svg>
