<svg width="16" height="16" viewBox="0 0 16 16" fill="none" xmlns="http://www.w3.org/2000/svg">
<path fill-rule="evenodd" clip-rule="evenodd" d="M5.548 8.75537L5.805 7.08437C5.854 6.76837 5.973 6.48137 6.172 6.19137C6.539 5.66137 6.738 4.65337 6.692 4.01037C6.277 -1.79163 0.751996 -1.08663 1.009 4.76037C1.036 5.38337 1.32 6.12137 1.499 6.53037C1.60386 6.7718 1.68329 7.02349 1.736 7.28137L2.045 8.75537H5.548ZM5.99999 11.0004V10.5004C5.99999 10.3678 5.94731 10.2406 5.85355 10.1468C5.75978 10.0531 5.6326 10.0004 5.49999 10.0004H2.49999C2.36738 10.0004 2.24021 10.0531 2.14644 10.1468C2.05267 10.2406 1.99999 10.3678 1.99999 10.5004V11.0004C1.99999 12.1004 2.89999 13.0004 3.99999 13.0004C5.09999 13.0004 5.99999 12.1004 5.99999 11.0004ZM13.07 12.5004V13.0004C13.07 14.1004 12.17 15.0004 11.07 15.0004C9.96999 15.0004 9.06999 14.1004 9.06999 13.0004V12.5004C9.06999 12.3678 9.12267 12.2406 9.21644 12.1468C9.31021 12.0531 9.43738 12.0004 9.56999 12.0004H12.57C12.7026 12.0004 12.8298 12.0531 12.9235 12.1468C13.0173 12.2406 13.07 12.3678 13.07 12.5004ZM9.64199 10.7504L9.67899 8.66938C9.68599 8.35038 9.61899 8.04738 9.47199 7.72738C9.20299 7.14038 9.18199 6.11338 9.33899 5.48838C10.755 -0.152623 16.074 1.50038 14.806 7.21438C14.671 7.82238 14.263 8.50138 14.016 8.87238C13.87 9.09238 13.751 9.32538 13.653 9.57038L13.163 10.7504H9.64199Z" fill="black"/>
</svg>
