<svg width="16" height="16" viewBox="0 0 16 16" fill="none" xmlns="http://www.w3.org/2000/svg">
<path fill-rule="evenodd" clip-rule="evenodd" d="M1 11H2C2.26522 11 2.51957 10.8946 2.70711 10.7071C2.89464 10.5196 3 10.2652 3 10V3C3 2.73478 2.89464 2.48043 2.70711 2.29289C2.51957 2.10536 2.26522 2 2 2H1C0.734784 2 0.48043 2.10536 0.292893 2.29289C0.105357 2.48043 0 2.73478 0 3V10C0 10.2652 0.105357 10.5196 0.292893 10.7071C0.48043 10.8946 0.734784 11 1 11ZM13.9091 11.7802C13.6271 11.9246 13.3148 11.9999 12.998 12H9.3L9 12.3V14.5C9 14.8978 8.84196 15.2794 8.56066 15.5607C8.27936 15.842 7.89782 16 7.5 16H7.497C7.35226 15.9999 7.21122 15.9542 7.09386 15.8695C6.97649 15.7848 6.88873 15.6653 6.843 15.528L6 13L4.25 10.331V3H11.332C11.7517 2.99986 12.1608 3.13196 12.5011 3.37753C12.8415 3.6231 13.0958 3.96967 13.228 4.368L14.895 9.368C14.9951 9.66859 15.0224 9.98866 14.9746 10.3018C14.9268 10.615 14.8052 10.9124 14.62 11.1694C14.4347 11.4264 14.1911 11.6358 13.9091 11.7802Z" fill="black"/>
</svg>
