<svg xmlns="http://www.w3.org/2000/svg" width="207" height="229" fill="none"><path fill="url(#a)" d="M205.523 74.83c-.285-3.579-8.243-4.476-11.697-9.736-1.08-1.652-1.366-4.364-1.376-7.33 0-2.59.214-5.364.306-7.78.224-5.689-.01-8.808.04-18.433.051-7.636-.896-16.098-4.411-18.086-3.261-1.845-8.519 1.744-15.987 8.615-4.168 3.834-6.899 7.147-9.752 9.512-.173.143-.346.296-.519.428-.173.133-4.443-.978-6.949-1.478-.54-.112-.866-.734-1.142-1.855-.611-2.498-.927-7.494-2.669-14.794-2.17-9.084-5.115-13.518-9.374-13.885-3.587-.306-9.813 8.737-14.612 16.312-3.974 6.27-4.269 6.912-5.818 9.165-1.131 1.642-2.425 3.6-3.831 5.546-2.904 4.028-6.236 8.044-9.445 9.319-6.043 2.396-10.71-.836-12.961 1.957-2.16 2.682.183 3.171.672 3.63 12.941 3.272 16.048 20.523 22.03 19.024 5.104-1.274 8.467 4.15 18.972 5.465 10.454 1.305 11.646 6.942 19.492 5.485 16.497-3.07 30.293-3.824 46.31 2.008-.815-1.254 2.894-.785 2.711-3.09z"/><path fill="url(#b)" d="M179.063 42.511c5.421 6.29 11.015 12.652 13.399 15.252 0-2.59.214-5.363.306-7.779.224-5.689-.011-8.809.04-18.433.051-7.636-.896-16.098-4.412-18.086-3.26-1.845-8.518 1.743-15.987 8.615-4.167 3.833-6.898 7.147-9.751 9.512 3.403 1.223 10.801 4.435 16.405 10.93z"/><path fill="url(#c)" d="M154.046 28.687c-.611-2.498-.927-7.494-2.669-14.794C149.206 4.81 146.261.375 142.002.008c-3.586-.306-9.812 8.737-14.611 16.312-3.974 6.27-4.269 6.912-5.818 9.165-1.131 1.642-2.425 3.6-3.831 5.546 4.106-.683 11.452-1.988 18.636-3.333 7.081-1.316 13.674-.123 17.668.978z"/><path fill="url(#d)" d="M202.814 77.929c-15.579-5.669-29.213-5.108-45.332-2.182-1.62.296-2.945.561-4.728.326 3.607 3.844-6.888 13.784-19.38 11.399-4.259-.816-7.703-2.12-10.454-3.721-9.221-5.373-10.271-13.886-6.919-18.23.143-.193.306-.387.469-.59-5.074-1.459-8.702-16.007-20.48-18.984.102.102.122.194 0 .306-1.162 1.1-6.073-1.03-7.286 2.15-.998 2.6 4.28 3.08 3.893 4.293-.53 1.652-4.32 1.234-4.82 2.895-.846 2.784.958 2.61 5.563 6.78 2.324 2.1 5.35 5.302 9.11 10.542 5.991 8.34 6.398 27.445 5.655 40.567-.367 6.565-3.709 21.175-4.096 28.872-.398 7.932.428 15.069.631 21.349.051 3.089 0 7.381-.723 10.43-1.793 9.043-7.133 10.49-9.079 22.378-2.924 17.882 16.527 24.601 16.313 24.662-.04.01-.112.031-.183.041.998.122 1.966.234 2.904.346 4.249.52 7.937 1.01 11.116 1.458 1.223.174 2.527.337 3.618.5-.327 1.957-.846 4.221-1.345 5.689-.704 2.049-1.427 5.781-.408 7.493 2.038 3.446 14.683 2.926 15.274-1.142.285-1.988.479-4.414.591-7.167v.031c1.436-.061 1.528-.041 2.465 0 .011.408.163 4.19.591 7.126.591 4.068 13.236 4.588 15.274 1.142 1.009-1.702.296-5.434-.407-7.493-.326-.959-.673-2.325-.979-3.722 1.59-.326 19.951-4.078 21.49-4.322q.03-.108.305-.214c8.417-2.906 17.964-15.803 13.552-27.843-2.527-6.892-7.204-10.165-9.822-14.773-5.431-9.533-1.284-11.765-3.679-37.213-1.039-11.082-3.943-24.142-5.125-30.901-2.344-13.417.693-13.335 8.59-15.537 10.199-2.845 13.674-1.05 15.049-4.242.652-1.509-1.783-2.569-1.243-4.108.836-2.427 7.652-.408 8.151-2.926.642-3.232-3.352-4.262-4.147-5.475z"/><path fill="url(#e)" d="M202.814 77.929c-15.579-5.669-29.213-5.108-45.332-2.182-1.62.296-2.945.561-4.728.326 3.607 3.844-6.888 13.784-19.38 11.399-4.259-.816-7.703-2.12-10.454-3.721-9.221-5.373-10.271-13.886-6.919-18.23.143-.193.306-.387.469-.59-5.074-1.459-8.702-16.007-20.48-18.984.102.102.122.194 0 .306-1.162 1.1-6.073-1.03-7.286 2.15-.998 2.6 4.28 3.08 3.893 4.293-.53 1.652-4.32 1.234-4.82 2.895-.846 2.784.958 2.61 5.563 6.78 2.324 2.1 5.35 5.302 9.11 10.542 5.991 8.34 6.398 27.445 5.655 40.567-.367 6.565-3.709 21.175-4.096 28.872-.398 7.932.428 15.069.631 21.349.051 3.089 0 7.381-.723 10.43-1.793 9.043-7.133 10.49-9.079 22.378-2.924 17.882 16.527 24.601 16.313 24.662-.04.01-.112.031-.183.041.998.122 1.966.234 2.904.346 4.249.52 7.937 1.01 11.116 1.458 1.223.174 2.527.337 3.618.5-.327 1.957-.846 4.221-1.345 5.689-.704 2.049-1.427 5.781-.408 7.493 2.038 3.446 14.683 2.926 15.274-1.142.285-1.988.479-4.414.591-7.167v.031c1.436-.061 1.528-.041 2.465 0 .011.408.163 4.19.591 7.126.591 4.068 13.236 4.588 15.274 1.142 1.009-1.702.296-5.434-.407-7.493-.326-.959-.673-2.325-.979-3.722 1.59-.326 19.951-4.078 21.49-4.322q.03-.108.305-.214c8.417-2.906 17.964-15.803 13.552-27.843-2.527-6.892-7.204-10.165-9.822-14.773-5.431-9.533-1.284-11.765-3.679-37.213-1.039-11.082-3.943-24.142-5.125-30.901-2.344-13.417.693-13.335 8.59-15.537 10.199-2.845 13.674-1.05 15.049-4.242.652-1.509-1.783-2.569-1.243-4.108.836-2.427 7.652-.408 8.151-2.926.642-3.232-3.352-4.262-4.147-5.475z" opacity=".6"/><path fill="url(#f)" d="M111.161 221.202c.081-.021.143-.031.183-.041.214-.061-19.247-6.78-16.313-24.662 1.294-7.911 4.168-11.296 6.766-15.904.153-.266.285-.551.397-.836.265-.673.653-1.774.938-2.58-2.007-.408-4.473-1.04-7.978-2.436-31.75-12.693-32.993-44.971-30.904-76.24 1.62-24.152-25.137-34.47-25.137-34.47s7.468 12.693-5.605 24.438c-15.12 13.59-29.68 33.012-29.06 62.211.031 1.366.286 4.863.286 4.863s-1.009-.489-2.333-1.866c-1.702-1.763-2.374-2.885-2.374-2.885s-.55 8.329 3.362 21.022c5.828 18.902 17.933 35.49 36.57 46.908 18.157 11.123 32.89 11.786 59.596 11.827 0-1.02.449-2.253 1.733-3.834 3.647-4.465 8.65-5.27 9.873-5.525z"/><path fill="url(#g)" d="M31.636 136.46c-.979-8.564-.673-18.525-.673-18.525s-3.097 7.555-4.89 17.199c-1.336 7.168-2.029 14.844-1.937 16.567-.438-.621-1.701-2.599-2.771-5.801a193 193 0 0 1-2.293-7.371c.051-.03-3.311 13.652 2.853 38.783 7.825 19.687 21.112 26.772 27.246 19.442s-1.64-14.314-6.51-21.206c-6.043-8.554-9.385-24.795-11.026-39.078z"/><path fill="url(#h)" d="M125.184 223.016a585 585 0 0 0-11.116-1.457c-.938-.113-1.906-.235-2.904-.347-1.213.255-6.226 1.06-9.874 5.526-1.294 1.58-1.722 2.814-1.732 3.833 0 .683.173 1.264.438 1.784 1.203 2.335 7.041 2.111 10.414 1.213 1.915-.509 4.381-1.08 7.132-1.631a170 170 0 0 1 9.568-1.631c.102-.367.214-.734.336-1.111.479-1.407 1.009-3.66 1.345-5.659-1.121-.163-2.333-.346-3.617-.53z"/><path fill="url(#i)" d="M189.722 227.237c-.764-.938-2.089-1.998-4.228-3.242-2.721-1.58-5.146-2.273-4.82-2.763-.438.072-.866.143-1.314.235-9.222 1.866-15.417 2.946-19.594 3.548.315 1.56.703 3.109 1.07 4.17.122.356.234.724.326 1.08.04.153.071.296.112.449 8.049 1.223 11.595 2.753 18.055 3.079 7.245.367 9.496-.357 10.719-2.529.662-1.182.989-2.426-.326-4.037z"/><path fill="url(#j)" d="M128.513 198.467c-3.087-11.725-12.584-20.87-24.546-23.51a21 21 0 0 1-.632 2.171c0 .021-.02.051-.02.071-.357 1.04-.774 2.05-1.304 3.018-2.65 4.802-5.645 8.156-6.97 16.282-2.924 17.882 16.527 24.601 16.313 24.662-.04.01-.112.031-.183.041.998.122 1.966.234 2.904.346 4.249.52 7.937 1.01 11.116 1.458a32.2 32.2 0 0 0 4.066-11.643c-.112-3.935-.367-8.329-.724-12.907z" opacity=".38"/><path fill="url(#k)" d="M141.463 186.569c-.631.764-1.008 5.719-1.823 6.137-.653.327-.979-3.894-1.651-7.707-.183-1.03-.876-4.374-1.06-5.353-.856-4.771-.856-4.394-1.569-8.288-.143 3.109-.428 3.935-.998 8.706-.276 2.315-.673 5.098-.999 6.637-.285 1.346-.723-3.66-.999-4.975-1.324-6.382-2.241-8.085-4.035-14.436-1.008-3.589-4.177-6.902-4.483-9.196 1.447 9.797 3.526 26.018 4.646 40.383.357 4.577.622 8.972.724 12.907.102 3.782.071 7.147-.143 9.859a27 27 0 0 1-.305 2.314c-.337 1.998-.866 4.251-1.345 5.658-.123.367-.235.744-.337 1.111-.743 2.723-.743 5.251-.071 6.393 2.038 3.446 14.683 2.926 15.274-1.142.285-1.988.479-4.425.591-7.188.428-10.399-.296-25.671-1.447-41.8z"/><path fill="url(#l)" d="M161.159 230.275a24 24 0 0 0-.326-1.08c-.366-1.071-.754-2.62-1.07-4.17-.275-1.376-.499-2.753-.58-3.803-1.142-14.355 2.883-47.214 5.237-63.139-.306 2.294-3.475 5.608-4.483 9.197-1.783 6.351-2.711 8.054-4.035 14.436-.275 1.315-.714 6.321-.999 4.975-.326-1.539-.723-4.312-.998-6.637-.571-4.771-.856-5.597-.999-8.707-.713 3.895-.713 3.528-1.569 8.289-.173.989-.876 4.323-1.06 5.353-.672 3.813-.988 8.033-1.65 7.707-.826-.418-1.193-5.373-1.824-6.137-1.152 16.128-1.875 31.401-1.447 41.79.112 2.762.306 5.199.591 7.187.591 4.068 13.236 4.588 15.274 1.142.631-1.07.662-3.415.03-5.964-.041-.153-.071-.296-.112-.449z"/><path fill="url(#m)" d="M142.88 110.666s-13.378 9.899-9.782 33.012c2.884 18.504 5.258 22.786 7.072 34.531 1.824 11.745 3.77 25.304 3.77 25.304s1.64-13.111 3.851-25.61c1.58-8.931 4.749-20.951 6.44-35.398 2.731-23.265-11.361-31.849-11.361-31.849z" opacity=".6"/><path fill="#ffc635" d="M129.766 58.752c7.673 1.03 13.134 12.887 21.673 16.435 6.817 2.834-4.442 14.885-18.055 12.285-18.331-3.497-21.846-16.16-17.363-21.95 2.405-3.11 7.306-7.636 13.756-6.77z"/><path fill="#00073a" d="M129.347 60.679c-2.791-.877-4.676-.163-5.461.815-.968 1.203-.662 4.435 2.771 5.516 3.261 1.03 5.961-1.06 6.002-2.712.031-1.172-.846-2.844-3.312-3.62"/><path fill="url(#n)" d="M158.926 53.42c3.353.907 4.616 3.69 1.916 9.838-2.12 4.833-4.208 4.629-7.377 3.742-1.651-.47-3.729-2.947-2.12-6.637 2.181-5.037 4.066-7.891 7.581-6.943"/><path fill="#fff" d="M156.644 57.937c-.336.815-1.274 1.274-2.089 1.03-.815-.245-1.202-1.112-.866-1.928s1.274-1.274 2.089-1.03c.815.245 1.202 1.112.866 1.928"/><path fill="url(#o)" d="M130.947 42.246c4.412.98 4.107 4.802 1.386 10.491-1.702 3.558-3.74 3.497-6.888 2.61-1.64-.459-3.882-2.222-1.579-7.106 1.864-3.966 4.3-6.617 7.081-6.005z"/><path fill="#fff" d="M129.438 46.967c-.346.836-1.304 1.315-2.14 1.06-.835-.255-1.233-1.142-.886-1.978.346-.836 1.304-1.315 2.14-1.06.835.255 1.232 1.142.886 1.978"/><defs><linearGradient id="a" x1="169.86" x2="132.09" y1="-1.461" y2="114.456" gradientUnits="userSpaceOnUse"><stop offset=".17" stop-color="#f60"/><stop offset=".54" stop-color="#ff9c00"/><stop offset=".9" stop-color="#ff6700"/><stop offset=".91" stop-color="#f60"/></linearGradient><linearGradient id="b" x1="180.055" x2="200.236" y1="40.88" y2="8.934" gradientUnits="userSpaceOnUse"><stop stop-color="#f60" stop-opacity="0"/><stop offset=".11" stop-color="#f60" stop-opacity=".3"/><stop offset=".23" stop-color="#f60" stop-opacity=".6"/><stop offset=".32" stop-color="#f60" stop-opacity=".82"/><stop offset=".4" stop-color="#f60" stop-opacity=".95"/><stop offset=".43" stop-color="#f60"/><stop offset=".72" stop-color="#fd4737"/><stop offset="1" stop-color="#fb2872"/></linearGradient><linearGradient id="c" x1="136.053" x2="140.539" y1="27.144" y2="-10.456" gradientUnits="userSpaceOnUse"><stop stop-color="#f60" stop-opacity="0"/><stop offset=".03" stop-color="#f60" stop-opacity=".17"/><stop offset=".07" stop-color="#f60" stop-opacity=".36"/><stop offset=".11" stop-color="#f60" stop-opacity=".53"/><stop offset=".15" stop-color="#f60" stop-opacity=".68"/><stop offset=".2" stop-color="#f60" stop-opacity=".8"/><stop offset=".24" stop-color="#f60" stop-opacity=".89"/><stop offset=".29" stop-color="#f60" stop-opacity=".95"/><stop offset=".35" stop-color="#f60" stop-opacity=".99"/><stop offset=".42" stop-color="#f60"/><stop offset=".7" stop-color="#fd4737"/><stop offset=".97" stop-color="#fb2872"/></linearGradient><linearGradient id="d" x1="147.313" x2="147.313" y1="42.409" y2="250.808" gradientUnits="userSpaceOnUse"><stop stop-color="#f60"/><stop offset=".01" stop-color="#ff7408"/><stop offset=".04" stop-color="#ff8a14"/><stop offset=".07" stop-color="#ff9b1d"/><stop offset=".11" stop-color="#ffa724"/><stop offset=".17" stop-color="#ffae27"/><stop offset=".33" stop-color="#ffb029"/><stop offset=".46" stop-color="#ff9218"/><stop offset=".63" stop-color="#f60"/><stop offset=".64" stop-color="#fe5d0f"/><stop offset=".69" stop-color="#fd4a32"/><stop offset=".74" stop-color="#fc3b4e"/><stop offset=".79" stop-color="#fb3062"/><stop offset=".84" stop-color="#fb2a6e"/><stop offset=".89" stop-color="#fb2872"/></linearGradient><linearGradient id="e" x1="147.313" x2="147.313" y1="42.409" y2="250.808" gradientUnits="userSpaceOnUse"><stop stop-color="#ffeb49" stop-opacity=".8"/><stop offset=".23" stop-color="#ffc836" stop-opacity=".59"/><stop offset=".6" stop-color="#ff9319" stop-opacity=".28"/><stop offset=".87" stop-color="#ff7207" stop-opacity=".08"/><stop offset="1" stop-color="#f60" stop-opacity="0"/></linearGradient><linearGradient id="f" x1="5.773" x2="86.343" y1="76.237" y2="236.06" gradientUnits="userSpaceOnUse"><stop stop-color="#ffeb49"/><stop offset=".45" stop-color="#f60"/><stop offset=".53" stop-color="#fe6009"/><stop offset=".68" stop-color="#fd5322"/><stop offset=".86" stop-color="#fc3c4c"/><stop offset="1" stop-color="#fb2872"/></linearGradient><linearGradient id="g" x1="27.916" x2="36.036" y1="117.334" y2="182.673" gradientUnits="userSpaceOnUse"><stop stop-color="#ffeb49"/><stop offset=".09" stop-color="#ffe545" stop-opacity=".96"/><stop offset=".24" stop-color="#ffd63d" stop-opacity=".84"/><stop offset=".44" stop-color="#ffbd2f" stop-opacity=".66"/><stop offset=".67" stop-color="#ff9a1c" stop-opacity=".4"/><stop offset=".94" stop-color="#ff6f05" stop-opacity=".07"/><stop offset="1" stop-color="#f60" stop-opacity="0"/></linearGradient><linearGradient id="h" x1="194.828" x2="67.819" y1="195.367" y2="245.946" gradientUnits="userSpaceOnUse"><stop offset=".02" stop-color="#be0449" stop-opacity="0"/><stop offset=".51" stop-color="#fb2872"/><stop offset=".67" stop-color="#a31c5e"/><stop offset=".83" stop-color="#4c104a"/><stop offset=".94" stop-color="#15093e"/><stop offset="1" stop-color="#00073a"/></linearGradient><linearGradient id="i" x1="123.685" x2="210.358" y1="207.479" y2="241.354" gradientUnits="userSpaceOnUse"><stop stop-color="#be0449" stop-opacity="0"/><stop offset=".41" stop-color="#fb2872"/><stop offset="1" stop-color="#00073a"/></linearGradient><linearGradient id="k" x1="132.313" x2="136.006" y1="159.368" y2="257.588" gradientUnits="userSpaceOnUse"><stop offset=".01" stop-color="#be0449" stop-opacity="0"/><stop offset=".06" stop-color="#bf054a" stop-opacity=".04"/><stop offset=".14" stop-color="#c2084c" stop-opacity=".16"/><stop offset=".23" stop-color="#c70d51" stop-opacity=".36"/><stop offset=".35" stop-color="#ce1457" stop-opacity=".63"/><stop offset=".48" stop-color="#d71e5f" stop-opacity=".97"/><stop offset=".49" stop-color="#d81f60"/><stop offset=".56" stop-color="#d31e5f"/><stop offset=".63" stop-color="#c71d5d"/><stop offset=".7" stop-color="#b31a59"/><stop offset=".77" stop-color="#971754"/><stop offset=".84" stop-color="#73134e"/><stop offset=".91" stop-color="#460e46"/><stop offset=".98" stop-color="#13093d"/><stop offset="1" stop-color="#00073a"/></linearGradient><linearGradient id="l" x1="156.442" x2="152.361" y1="141.363" y2="258.322" gradientUnits="userSpaceOnUse"><stop stop-color="#d81f60" stop-opacity="0"/><stop offset=".11" stop-color="#d81f60" stop-opacity=".01"/><stop offset=".19" stop-color="#d81f60" stop-opacity=".06"/><stop offset=".27" stop-color="#d81f60" stop-opacity=".14"/><stop offset=".35" stop-color="#d81f60" stop-opacity=".25"/><stop offset=".42" stop-color="#d81f60" stop-opacity=".39"/><stop offset=".49" stop-color="#d81f60" stop-opacity=".57"/><stop offset=".55" stop-color="#d81f60" stop-opacity=".77"/><stop offset=".62" stop-color="#d81f60"/><stop offset=".66" stop-color="#d21e5f"/><stop offset=".71" stop-color="#c21c5c"/><stop offset=".77" stop-color="#a81957"/><stop offset=".83" stop-color="#841551"/><stop offset=".9" stop-color="#551049"/><stop offset=".97" stop-color="#1d0a3f"/><stop offset="1" stop-color="#00073a"/></linearGradient><linearGradient id="m" x1="143.267" x2="147.256" y1="130.414" y2="218.133" gradientUnits="userSpaceOnUse"><stop stop-color="#ffeb49"/><stop offset=".09" stop-color="#ffe847" stop-opacity=".96"/><stop offset=".24" stop-color="#ffe143" stop-opacity=".84"/><stop offset=".44" stop-color="#ffd63d" stop-opacity=".66"/><stop offset=".67" stop-color="#ffc735" stop-opacity=".4"/><stop offset=".94" stop-color="#ffb42b" stop-opacity=".07"/><stop offset="1" stop-color="#ffb029" stop-opacity="0"/></linearGradient><linearGradient id="n" x1="158.998" x2="155.111" y1="48.7" y2="67.233" gradientUnits="userSpaceOnUse"><stop offset=".16" stop-color="#a030b9"/><stop offset=".88" stop-color="#00073a"/></linearGradient><linearGradient id="o" x1="131.243" x2="127.377" y1="38.617" y2="54.072" gradientUnits="userSpaceOnUse"><stop offset=".16" stop-color="#a030b9"/><stop offset=".88" stop-color="#00073a"/></linearGradient><radialGradient id="j" cx="0" cy="0" r="1" gradientTransform="matrix(53.7892 0 0 53.8203 97.049 211.17)" gradientUnits="userSpaceOnUse"><stop stop-color="#ffeb49"/><stop offset=".05" stop-color="#ffe546" stop-opacity=".96"/><stop offset=".14" stop-color="#ffd73e" stop-opacity=".85"/><stop offset=".25" stop-color="#ffc031" stop-opacity=".68"/><stop offset=".38" stop-color="#ffa01f" stop-opacity=".44"/><stop offset=".53" stop-color="#ff7709" stop-opacity=".13"/><stop offset=".59" stop-color="#f60" stop-opacity="0"/></radialGradient></defs></svg>