<svg width="15" height="20" viewBox="0 0 15 20" fill="none" xmlns="http://www.w3.org/2000/svg">
<path fill-rule="evenodd" clip-rule="evenodd" d="M2.5 9V5C2.5 2.23875 4.73875 0 7.5 0C10.2612 0 12.5 2.23875 12.5 5V9C13.8802 9 15 10.1198 15 11.5V17.5C15 18.8802 13.8802 20 12.5 20H2.5C1.11975 20 0 18.8802 0 17.5V11.5C0 10.1198 1.11975 9 2.5 9ZM4.25 5C4.25 3.20525 5.70525 1.75 7.5 1.75C9.29475 1.75 10.75 3.20525 10.75 5V9H4.25V5ZM1.75 11.5C1.75 11.0862 2.08625 10.75 2.5 10.75H12.5C12.9138 10.75 13.25 11.0862 13.25 11.5V17.5C13.25 17.9137 12.9138 18.25 12.5 18.25H2.5C2.08625 18.25 1.75 17.9137 1.75 17.5V11.5Z" fill="black"/>
</svg>
