<svg width="24" height="24" viewBox="0 0 24 24" fill="none" xmlns="http://www.w3.org/2000/svg">
<path d="M18 13V16.166L12.834 11H14.5V8C14.5 6.621 13.378 5.5 12 5.5C10.725 5.5 9.68203 6.462 9.53003 7.696L8.30603 6.472C8.90803 5.023 10.336 4 12 4C14.206 4 16 5.794 16 8V11C17.103 11 18 11.897 18 13Z" fill="black"/>
<path d="M9.5 11H11.065L18 17.935V18C18 19.103 17.103 20 16 20H8C6.897 20 6 19.103 6 18V13C6 11.897 6.897 11 8 11V7.99998C8 7.98998 8.0015 7.98023 8.003 7.97048C8.0045 7.96073 8.006 7.95098 8.006 7.94098L9.5 9.43498V11Z" fill="black"/>
<path fill-rule="evenodd" clip-rule="evenodd" d="M5.27941 5.21973L19.7794 19.7197L18.7188 20.7804L4.21875 6.28039L5.27941 5.21973Z" fill="black"/>
</svg>
