<svg width="24" height="24" viewBox="0 0 24 24" fill="none" xmlns="http://www.w3.org/2000/svg">
<path fill-rule="evenodd" clip-rule="evenodd" d="M16.2004 13.7549C16.7755 12.7481 18.224 12.748 18.8 13.7549L22.7991 20.749C23.3721 21.751 22.6503 23 21.4993 23H13.5002C12.3485 22.9997 11.6275 21.7509 12.2014 20.749L16.2004 13.7549ZM16.7502 20V21.5H18.2502V20H16.7502ZM16.7502 16V18.75H18.2502V16H16.7502Z" fill="black"/>
<path d="M10.899 20.004L11.33 19.25H5C4.587 19.25 4.25 18.913 4.25 18.5V12.5C4.25 12.087 4.587 11.75 5 11.75H15C15.289 11.75 15.533 11.92 15.658 12.16C16.125 11.79 16.686 11.566 17.302 11.526C16.922 10.63 16.033 10 15 10V6C15 3.243 12.757 1 10 1C7.243 1 5 3.243 5 6V10C3.621 10 2.5 11.121 2.5 12.5V18.5C2.5 19.879 3.621 21 5 21H10.563C10.622 20.658 10.718 20.32 10.899 20.004ZM6.75 6C6.75 4.208 8.208 2.75 10 2.75C11.792 2.75 13.25 4.208 13.25 6V10H6.75V6Z" fill="black"/>
</svg>
