<svg width="16" height="16" viewBox="0 0 16 16" fill="none" xmlns="http://www.w3.org/2000/svg">
<path d="M8.6084 4.07595C8.89631 4.05456 9.17082 4.20051 9.31445 4.45095L11.0625 7.49978H14V8.99978H10.6279C10.3592 8.99975 10.1112 8.85598 9.97754 8.62283L8.79199 6.55544L6.88281 11.45C6.7779 11.7186 6.52776 11.9028 6.24023 11.9246C5.95275 11.9462 5.67821 11.8013 5.53418 11.5515L4.0625 8.99978H2V7.49978H4.49609L4.5957 7.50662C4.82441 7.53726 5.02837 7.67265 5.14551 7.87576L6.05273 9.449L7.96582 4.55154L8.01172 4.45486C8.13386 4.23894 8.3564 4.09468 8.6084 4.07595Z" fill="black"/>
</svg>
