<svg width="24" height="24" viewBox="0 0 24 24" fill="none" xmlns="http://www.w3.org/2000/svg">
<path d="M18 15.5H6C5.724 15.5 5.5 15.276 5.5 15V8C5.5 7.724 5.724 7.5 6 7.5H18C18.276 7.5 18.5 7.724 18.5 8V15C18.5 15.276 18.276 15.5 18 15.5Z" fill="black"/>
<path fill-rule="evenodd" clip-rule="evenodd" d="M4.5 19C3.121 19 2 17.879 2 16.5V6.5C2 5.121 3.121 4 4.5 4H19.5C20.879 4 22 5.121 22 6.5V16.5C22 17.879 20.879 19 19.5 19H23V20.75H1V19H4.5ZM5.25 17H18.75C19.439 17 20 16.439 20 15.75V7.25C20 6.561 19.439 6 18.75 6H5.25C4.561 6 4 6.561 4 7.25V15.75C4 16.439 4.561 17 5.25 17Z" fill="black"/>
</svg>
