<svg width="18" height="18" viewBox="0 0 18 18" fill="none" xmlns="http://www.w3.org/2000/svg">
<path d="M2.5 0C1.11975 0 0 1.11975 0 2.5V6H1.75V2.5C1.75 2.08625 2.08625 1.75 2.5 1.75H6V0H2.5Z" fill="black"/>
<path d="M8 7.25C8 7.664 7.664 8 7.25 8H4.75C4.336 8 4 7.664 4 7.25V4.75C4 4.336 4.336 4 4.75 4H7.25C7.664 4 8 4.336 8 4.75V7.25Z" fill="black"/>
<path d="M14 12H12V10H14V8H12V6H14V4H12V6H10V8H12V10H10V12H8V10H6V12H4V14H6V12H8V14H10V12H12V14H14V12Z" fill="black"/>
<path d="M0 15.5V12H1.75V15.5C1.75 15.9138 2.08625 16.25 2.5 16.25H6V18H2.5C1.11975 18 0 16.8802 0 15.5Z" fill="black"/>
<path d="M12 0H15.5C16.8802 0 18 1.11975 18 2.5V6H16.25V2.5C16.25 2.08625 15.9138 1.75 15.5 1.75H12V0Z" fill="black"/>
<path d="M18 15.5V12H16.25V15.5C16.25 15.9138 15.9138 16.25 15.5 16.25H12V18H15.5C16.8802 18 18 16.8802 18 15.5Z" fill="black"/>
</svg>
