<svg width="24" height="24" viewBox="0 0 24 24" fill="none" xmlns="http://www.w3.org/2000/svg">
<g clip-path="url(#clip0_112220_166722)">
<path d="M16.085 14.7383H13.9844L15.0342 12.2627L16.085 14.7383Z" fill="black"/>
<path fill-rule="evenodd" clip-rule="evenodd" d="M18 0C21.314 0 24 2.686 24 6V18C24 21.314 21.314 24 18 24H6C2.686 24 0 21.314 0 18V6C0 2.686 2.686 0 6 0H18ZM8.57129 7.19238H5.14258V8.46777H11.1797L10.9434 9.13672C10.5924 10.1247 10.0229 11.0832 9.29785 11.9102C8.75185 11.1942 8.32716 10.4175 8.03516 9.60352L8.02539 9.57617H6.66895L6.82617 10.0166C7.18517 11.0246 7.70693 11.9683 8.37793 12.8193C7.68108 13.4022 6.93615 13.9631 6.06738 14.2031C6.05172 14.2051 6.00205 14.2116 6 14.2119V15.5557C6.00317 15.5551 6.07295 15.543 6.09668 15.5361C7.26662 15.2161 8.29655 14.5437 9.22852 13.7588C10.0945 14.6038 11.0839 15.2721 12.1699 15.7451L11.2383 17.9424L11.2119 18H12.5986L13.4424 16.0137H16.627L17.459 17.9736L17.4697 18H18.8574L15.9512 11.1553C15.8512 10.9194 15.6201 10.7657 15.3643 10.7656H14.7051C14.4491 10.7656 14.2182 10.9193 14.1182 11.1553L12.668 14.5684C11.742 14.1644 10.8945 13.5931 10.1475 12.8721C11.0313 11.8982 11.7215 10.7553 12.1455 9.56445L12.5352 8.46777H13.2852V7.19238H9.85742V6H8.57129V7.19238Z" fill="black"/>
</g>
<defs>
<clipPath id="clip0_112220_166722">
<rect width="24" height="24" fill="white"/>
</clipPath>
</defs>
</svg>
