<svg width="16" height="16" viewBox="0 0 16 16" fill="none" xmlns="http://www.w3.org/2000/svg">
<path d="M1.5 3C1.5 2.72421 1.72421 2.5 2 2.5H11V1H2C0.895786 1 0 1.89579 0 3V11H1.5V3Z" fill="black"/>
<path fill-rule="evenodd" clip-rule="evenodd" d="M3 6C3 4.89579 3.89579 4 5 4H14C15.1042 4 16 4.89579 16 6V12.5C16 13.6042 15.1042 14.5 14 14.5H5C3.89579 14.5 3 13.6042 3 12.5V6ZM5 5.5C4.72421 5.5 4.5 5.72421 4.5 6V12.5C4.5 12.7758 4.72421 13 5 13H14C14.2758 13 14.5 12.7758 14.5 12.5V8H10C9.724 8 9.5 7.776 9.5 7.5V5.5H5Z" fill="black"/>
</svg>
