<svg width="24" height="24" viewBox="0 0 24 24" fill="none" xmlns="http://www.w3.org/2000/svg">
<path d="M20.4464 12.751H18.6954C18.3184 16.397 15.2294 19.25 11.4844 19.25C7.48637 19.25 4.23438 15.998 4.23438 12C4.23438 8.002 7.48637 4.75 11.4844 4.75C14.2524 4.75 16.6384 6.323 17.8574 8.609L16.4054 10.061C16.0594 10.408 16.3044 11 16.7944 11H20.9654C21.2694 11 21.5154 10.754 21.5154 10.45V6.279C21.5154 5.789 20.9234 5.544 20.5764 5.89L19.1544 7.312C17.5714 4.73 14.7294 3 11.4844 3C6.52138 3 2.48438 7.037 2.48438 12C2.48438 16.963 6.52138 21 11.4844 21C16.1934 21 20.0624 17.363 20.4464 12.751Z" fill="black"/>
</svg>
