<svg width="24" height="24" viewBox="0 0 24 24" fill="none" xmlns="http://www.w3.org/2000/svg">
<path d="M11 9.24593V6.69828C11.326 6.64997 11.6599 6.62494 12 6.62494C15.7278 6.62494 18.75 9.64719 18.75 13.3749C18.75 17.1027 15.7278 20.1249 12 20.1249C8.27225 20.1249 5.25 17.1027 5.25 13.3749H3.5C3.5 18.0692 7.30575 21.8749 12 21.8749C16.6942 21.8749 20.5 18.0692 20.5 13.3749C20.5 8.68069 16.6942 4.87494 12 4.87494C11.6619 4.87494 11.3282 4.89468 11 4.93315V2.50493C11 1.94493 10.323 1.66393 9.92704 2.06093L6.55704 5.43093C6.31204 5.67693 6.31204 6.07493 6.55704 6.31993L9.92704 9.68993C10.323 10.0859 11 9.80593 11 9.24593Z" fill="black"/>
</svg>
