<svg width="18" height="18" viewBox="0 0 18 18" fill="none" xmlns="http://www.w3.org/2000/svg">
<path d="M1.75 15.5C1.75 15.9138 2.08625 16.25 2.5 16.25H7.75V18H2.5C1.11975 18 0 16.8802 0 15.5V10.25H1.75V15.5Z" fill="black"/>
<path d="M18 15.5C18 16.8802 16.8802 18 15.5 18H10.25V16.25H15.5C15.9138 16.25 16.25 15.9138 16.25 15.5V10.25H18V15.5Z" fill="black"/>
<path d="M6.82422 7.69531C7.21422 7.30331 7.84726 7.30241 8.23926 7.69141L11 10.4395L11.792 9.69238C12.187 9.32038 12.8065 9.32984 13.1885 9.71484L13.9609 10.4941C14.1469 10.6811 14.251 10.9343 14.251 11.1982V13.5C14.25 13.914 13.914 14.25 13.5 14.25H4.5C4.086 14.25 3.75 13.914 3.75 13.5V11.1992C3.75 10.9352 3.85505 10.6811 4.04102 10.4941L6.82422 7.69531Z" fill="black"/>
<path d="M7.75 1.75H2.5C2.08625 1.75 1.75 2.08625 1.75 2.5V7.75H0V2.5C0 1.11975 1.11975 0 2.5 0H7.75V1.75Z" fill="black"/>
<path d="M15.5 0C16.8802 0 18 1.11975 18 2.5V7.75H16.25V2.5C16.25 2.08625 15.9138 1.75 15.5 1.75H10.25V0H15.5Z" fill="black"/>
</svg>
