<svg width="15" height="19" viewBox="0 0 15 19" fill="none" xmlns="http://www.w3.org/2000/svg">
<path fill-rule="evenodd" clip-rule="evenodd" d="M2.5 0C1.11975 0 0 1.11975 0 2.5V16.5C0 17.8802 1.11975 19 2.5 19H12.5C13.8802 19 15 17.8802 15 16.5V5.5C15 5.26794 14.9078 5.04538 14.7437 4.88128L10.1187 0.256282C9.95462 0.0921872 9.73206 0 9.5 0H2.5ZM1.75 2.5C1.75 2.08625 2.08625 1.75 2.5 1.75H8.5V5.5C8.5 6.052 8.948 6.5 9.5 6.5H13.25V16.5C13.25 16.9138 12.9137 17.25 12.5 17.25H2.5C2.08625 17.25 1.75 16.9138 1.75 16.5V2.5Z" fill="black"/>
</svg>
