<svg width="20" height="21" viewBox="0 0 20 21" fill="none" xmlns="http://www.w3.org/2000/svg">
<path fill-rule="evenodd" clip-rule="evenodd" d="M5 2.5C5 1.11975 6.11975 0 7.5 0H12.5C13.8802 0 15 1.11975 15 2.5V6H17.5C18.881 6 20 7.119 20 8.5V14.5C20 15.881 18.881 17 17.5 17H15V18.5C15 19.8802 13.8802 21 12.5 21H7.5C6.11975 21 5 19.8802 5 18.5V17H2.5C1.119 17 0 15.881 0 14.5V8.5C0 7.119 1.119 6 2.5 6H5V2.5ZM6.75 6H13.25V2.5C13.25 2.08625 12.9138 1.75 12.5 1.75H7.5C7.08625 1.75 6.75 2.08625 6.75 2.5V6ZM6.75 13V18.5C6.75 18.9137 7.08625 19.25 7.5 19.25H12.5C12.9138 19.25 13.25 18.9137 13.25 18.5V13H6.75ZM17 9H15V11H17V9Z" fill="black"/>
</svg>
