<svg width="16" height="16" viewBox="0 0 16 16" fill="none" xmlns="http://www.w3.org/2000/svg">
<path d="M12.88 5.08001C12.61 4.64001 11.88 4.64001 11.6 5.08001C11.35 5.49001 11.04 5.87001 10.7 6.21001C10.33 3.40001 8.35 0.990008 5.55 0.0400078C5.28 -0.0499922 4.99 0.0200078 4.79 0.210008C4.59 0.410008 4.51 0.700008 4.6 0.970008C5.21 2.93001 4.76 5.09001 3.42 6.66001C3.4 6.68001 3.37 6.71001 3.35 6.73001C3.33 6.75001 3.31 6.78001 3.29 6.80001L3.24 6.86001C3.24 6.86001 3.21 6.90001 3.2 6.92001C1.46 9.14001 1.66 12.35 3.7 14.35C4.82 15.44 6.29 15.99 7.76 15.99C9.23 15.99 10.71 15.44 11.83 14.34C13.23 12.93 14 11.04 14 9.00001C14 7.61001 13.61 6.25001 12.88 5.07001V5.08001ZM10.77 13.28C10.52 13.53 10.23 13.72 9.94 13.9C9.98 13.69 10 13.48 10 13.26C10 11.84 9.3 10.56 8.21 10.05C8.08 9.99001 7.92 9.99001 7.79 10.05C6.7 10.56 6 11.84 6 13.26C6 13.58 6.04 13.88 6.11 14.18C5.61 13.98 5.15 13.68 4.75 13.29C3.22 11.8 3.08 9.48001 4.4 7.84001C5.85 6.26001 6.54 4.15001 6.35 2.06001C8.15 3.16001 9.29 5.10001 9.29 7.23001C9.29 7.38001 9.29 7.53001 9.27 7.67001C9.25 7.95001 9.39 8.22001 9.63 8.37001C9.87 8.52001 10.17 8.51001 10.42 8.37001C11.06 7.97001 11.64 7.48001 12.13 6.92001C12.38 7.59001 12.51 8.30001 12.51 9.02001C12.51 10.66 11.89 12.18 10.78 13.29L10.77 13.28Z" fill="black"/>
</svg>
