<svg width="16" height="16" viewBox="0 0 16 16" fill="none" xmlns="http://www.w3.org/2000/svg">
<path d="M15.931 5.47906C15.971 4.68706 15.435 3.98006 14.662 3.80506C12.746 3.37006 10.739 3.91006 9.30099 5.24806L9.05499 5.47706C8.76799 5.74406 8.38999 5.89206 7.99799 5.89206C7.60599 5.89206 7.22799 5.74306 6.94099 5.47606L6.69999 5.25206C5.26099 3.91106 3.25199 3.37006 1.33499 3.80606H1.33399C0.561989 3.98106 0.0269889 4.68506 0.0639889 5.47506V5.47906C-0.133011 6.25906 0.171989 9.13906 0.343989 9.59206C0.690989 11.4221 2.18599 12.7981 3.97899 12.7981C4.87399 12.7981 5.68499 12.4411 6.32599 11.8691L6.71699 11.5351C7.43799 10.9181 8.49799 10.9101 9.22899 11.5151L9.81399 12.0001V11.9971C10.431 12.4941 11.189 12.7981 12.017 12.7981C13.809 12.7981 15.305 11.4221 15.652 9.59206C15.824 9.13906 16.14 6.27106 15.931 5.47906ZM6.23199 8.55206C5.80499 9.03506 5.14399 9.34506 4.39999 9.34506C3.65599 9.34506 2.99499 9.03506 2.56799 8.55306C2.34399 8.30006 2.34399 7.90206 2.56799 7.64806C2.99499 7.16506 3.65599 6.85506 4.39999 6.85506C5.14399 6.85506 5.80499 7.16506 6.23199 7.64706C6.45599 7.90106 6.45599 8.29906 6.23199 8.55206ZM13.432 8.55206C13.005 9.03406 12.344 9.34406 11.6 9.34406C10.856 9.34406 10.195 9.03406 9.76799 8.55206C9.54399 8.29906 9.54399 7.90106 9.76799 7.64706C10.195 7.16506 10.856 6.85506 11.6 6.85506C12.344 6.85506 13.005 7.16506 13.432 7.64706C13.656 7.90106 13.656 8.29906 13.432 8.55206Z" fill="black"/>
</svg>
