<svg width="11" height="12" viewBox="0 0 11 12" fill="none" xmlns="http://www.w3.org/2000/svg">
<path fill-rule="evenodd" clip-rule="evenodd" d="M4.52097 11.743C4.82497 11.914 5.16597 12 5.50597 12C5.84696 12 6.18897 11.913 6.49297 11.741C7.70497 11.056 8.82096 9.999 9.63496 8.764C10.057 8.123 10.356 7.347 10.521 6.457L10.986 3.954C11.105 3.313 10.796 2.668 10.222 2.359L6.17097 0.179001C5.72597 -0.0599992 5.19097 -0.0599992 4.74597 0.181001L0.785965 2.324C0.214965 2.633 -0.0930347 3.275 0.0249653 3.915L0.491965 6.45C0.656965 7.344 0.954965 8.124 1.37997 8.769C2.19397 10.002 3.30897 11.057 4.52097 11.743ZM4.89095 7.854C4.98495 7.947 5.11195 8 5.24495 8C5.37795 8 5.50495 7.947 5.59795 7.854L8.25595 5.196L7.54895 4.489L5.24495 6.793L3.96295 5.511L3.25595 6.218L4.89095 7.854Z" fill="black"/>
</svg>
