<svg width="16" height="16" viewBox="0 0 16 16" fill="none" xmlns="http://www.w3.org/2000/svg">
<path fill-rule="evenodd" clip-rule="evenodd" d="M3 1C1.89579 1 1 1.89579 1 3V13C1 14.1042 1.89579 15 3 15H13C14.1042 15 15 14.1042 15 13V3C15 1.89579 14.1042 1 13 1H3ZM2.5 3C2.5 2.72421 2.72421 2.5 3 2.5H5V7.5C5 7.76574 5.14062 8.01164 5.36965 8.1464C5.59869 8.28117 5.88193 8.28467 6.11423 8.15562L8 7.10797L9.88577 8.15562C10.1181 8.28467 10.4013 8.28117 10.6303 8.1464C10.8594 8.01164 11 7.76574 11 7.5V2.5H13C13.2758 2.5 13.5 2.72421 13.5 3V13C13.5 13.2758 13.2758 13.5 13 13.5H3C2.72421 13.5 2.5 13.2758 2.5 13V3ZM9.5 2.5H6.5V6.22536L7.63577 5.59438C7.86228 5.46854 8.13772 5.46854 8.36423 5.59438L9.5 6.22536V2.5Z" fill="black"/>
</svg>
