<svg width="16" height="16" viewBox="0 0 16 16" fill="none" xmlns="http://www.w3.org/2000/svg">
<g clip-path="url(#clip0_3098_941)">
<path d="M8.03543 9.71314L10.9996 6.7477L9.93877 5.68726L7.50488 8.12215L6.05999 6.67726L4.99933 7.73792L6.97466 9.71325C7.11533 9.85392 7.30613 9.93294 7.50507 9.93292C7.70401 9.9329 7.89479 9.85384 8.03543 9.71314Z" fill="black"/>
<path fill-rule="evenodd" clip-rule="evenodd" d="M10.5865 1.72297L9.41433 0.551639C8.63342 -0.229064 7.3665 -0.229191 6.58567 0.551639L5.41434 1.72297H3.757C2.65279 1.72297 1.757 2.61876 1.757 3.72297V5.37947L0.585479 6.55183C-0.195223 7.33274 -0.19516 8.59947 0.58567 9.3803L1.757 10.5516V12.209C1.757 13.3132 2.65279 14.209 3.757 14.209H5.41434L6.58567 15.3803C7.36656 16.1612 8.63344 16.1612 9.41433 15.3803L10.5857 14.209H12.243C13.3472 14.209 14.243 13.3132 14.243 12.209V10.5516L15.4149 9.37976C16.1947 8.59835 16.1953 7.33285 15.4143 6.55164L14.243 5.37947V3.72297C14.243 2.61876 13.3472 1.72297 12.243 1.72297H10.5865ZM7.64633 1.6123C7.84144 1.41719 8.15856 1.41719 8.35367 1.6123L9.74586 3.00349C9.8865 3.14403 10.0772 3.22297 10.276 3.22297H12.243C12.5188 3.22297 12.743 3.44718 12.743 3.72297V5.68997C12.743 5.88879 12.8219 6.07947 12.9625 6.22011L14.3537 7.6123C14.5484 7.80704 14.5491 8.12364 14.3531 8.32018L12.9627 9.71064C12.822 9.85129 12.743 10.0421 12.743 10.241V12.209C12.743 12.4848 12.5188 12.709 12.243 12.709H10.275C10.0761 12.709 9.88532 12.788 9.74467 12.9286L8.35367 14.3196C8.15856 14.5147 7.84144 14.5147 7.64633 14.3196L6.25533 12.9286C6.11468 12.788 5.92391 12.709 5.725 12.709H3.757C3.48121 12.709 3.257 12.4848 3.257 12.209V10.241C3.257 10.0421 3.17798 9.85129 3.03733 9.71064L1.64633 8.31964C1.45122 8.12453 1.45141 7.80722 1.64652 7.61211L3.03752 6.22011C3.17806 6.07947 3.257 5.88879 3.257 5.68997V3.72297C3.257 3.44718 3.48121 3.22297 3.757 3.22297H5.725C5.92391 3.22297 6.11468 3.14395 6.25533 3.0033L7.64633 1.6123Z" fill="black"/>
</g>
<defs>
<clipPath id="clip0_3098_941">
<rect width="16" height="16" fill="white"/>
</clipPath>
</defs>
</svg>
