<svg width="19" height="19" viewBox="0 0 19 19" fill="none" xmlns="http://www.w3.org/2000/svg">
<path d="M8.625 13.9999V10.3749H5V8.62488H8.625V4.99988H10.375V8.62488H14V10.3749H10.375V13.9999H8.625Z" fill="black"/>
<path fill-rule="evenodd" clip-rule="evenodd" d="M0.00394343 9.22389C0.144943 4.27189 4.27394 0.143893 9.22594 0.00389282C14.5889 -0.148107 18.9999 4.17089 18.9999 9.49989V16.4999C18.9999 17.8809 17.8809 18.9999 16.4999 18.9999H9.49994C4.16994 18.9999 -0.149057 14.5869 0.00394343 9.22389ZM1.74994 9.49989C1.74994 13.7729 5.22694 17.2499 9.49994 17.2499C13.7729 17.2499 17.2499 13.7729 17.2499 9.49989C17.2499 5.22689 13.7729 1.74989 9.49994 1.74989C5.22694 1.74989 1.74994 5.22689 1.74994 9.49989Z" fill="black"/>
</svg>
