<svg width="16" height="16" viewBox="0 0 16 16" fill="none" xmlns="http://www.w3.org/2000/svg">
<g clip-path="url(#clip0_6691_1795)">
<path d="M5.25 7H3.75V5.5H5.25V7Z" fill="black"/>
<path d="M8.5 7H7V5.5H8.5V7Z" fill="black"/>
<path d="M11.75 7H10.25V5.5H11.75V7Z" fill="black"/>
<path fill-rule="evenodd" clip-rule="evenodd" d="M14 0C15.1042 0 16 0.895786 16 2V10.5C16 11.6042 15.1042 12.5 14 12.5H13V15.25C13 15.5405 12.8322 15.805 12.5693 15.9287C12.3063 16.0523 11.9953 16.0126 11.7715 15.8271L7.72949 12.4775L2.00586 12.4961C0.89927 12.4991 5.05997e-05 11.6033 0 10.4961V2C0 0.895786 0.895786 0 2 0H14ZM2 1.5C1.72421 1.5 1.5 1.72421 1.5 2V10.4961C1.50005 10.7727 1.72475 10.9969 2.00195 10.9961L7.99805 10.9775L8.12793 10.9893C8.25611 11.0115 8.37719 11.0664 8.47852 11.1504L11.5 13.6543V11.75C11.5 11.3358 11.8358 11 12.25 11H14C14.2758 11 14.5 10.7758 14.5 10.5V2C14.5 1.72421 14.2758 1.5 14 1.5H2Z" fill="black"/>
</g>
<defs>
<clipPath id="clip0_6691_1795">
<rect width="16" height="16" fill="white"/>
</clipPath>
</defs>
</svg>
