<svg width="24" height="24" viewBox="0 0 24 24" fill="none" xmlns="http://www.w3.org/2000/svg">
<path d="M5.37878 4.48695L7.49978 6.60895V5.49995H9.99978V7.99995H8.89078L19.4708 18.5799C21.0388 16.8129 21.9998 14.4969 21.9998 11.9559C21.9998 11.8506 21.9927 11.7471 21.9856 11.6435C21.982 11.5917 21.9785 11.5399 21.9758 11.4879C21.3458 11.6809 20.6798 11.7819 19.9998 11.8279V12.9999H17.4998V11.6529C13.5948 10.7759 10.6668 7.28695 10.6668 3.12095C10.6668 2.75595 10.6968 2.39695 10.7398 2.04395C8.69578 2.30295 6.84778 3.18595 5.37878 4.48695Z" fill="black"/>
<path fill-rule="evenodd" clip-rule="evenodd" d="M3.3033 7.04098C2.47524 8.49199 1.99976 10.1679 1.99976 11.956C1.99976 17.47 6.48576 21.956 11.9998 21.956C13.7872 21.956 15.4662 21.4832 16.9197 20.6573L19.262 22.9997L20.4994 21.7622L18.3825 19.6453C18.3886 19.6402 18.3947 19.6351 18.4008 19.63L4.33276 5.56201C4.32766 5.5681 4.32257 5.57419 4.31749 5.58029L1.73744 3.00024L0.5 4.23768L3.3033 7.04098ZM6.49976 13H3.99976V10.5H6.49976V13ZM9.99976 18.5H7.49976V16H9.99976V18.5Z" fill="black"/>
</svg>
