<svg width="16" height="16" viewBox="0 0 16 16" fill="none" xmlns="http://www.w3.org/2000/svg">
<path d="M13.25 6.051V1C13.25 0.734784 13.1446 0.48043 12.9571 0.292893C12.7696 0.105357 12.5152 0 12.25 0L3.75 0C3.48478 0 3.23043 0.105357 3.04289 0.292893C2.85536 0.48043 2.75 0.734784 2.75 1V6.051C2.53726 6.10326 2.34801 6.22495 2.21217 6.39682C2.07634 6.56869 2.00168 6.78094 2 7V9C2 9.53043 2.21071 10.0391 2.58579 10.4142C2.96086 10.7893 3.46957 11 4 11H6.5V14.5C6.5 14.8978 6.65804 15.2794 6.93934 15.5607C7.22064 15.842 7.60218 16 8 16C8.39782 16 8.77936 15.842 9.06066 15.5607C9.34196 15.2794 9.5 14.8978 9.5 14.5V11H12C12.5304 11 13.0391 10.7893 13.4142 10.4142C13.7893 10.0391 14 9.53043 14 9V7C13.9983 6.78094 13.9237 6.56869 13.7878 6.39682C13.652 6.22495 13.4627 6.10326 13.25 6.051ZM4 6V2.1L4.6 1.5H5.368L6.139 2.356C6.28834 2.52247 6.4964 2.62454 6.71945 2.64077C6.9425 2.65699 7.16314 2.5861 7.335 2.443L7.867 2H8.532L9.256 2.724C9.43947 2.90736 9.687 3.01225 9.94635 3.01654C10.2057 3.02084 10.4566 2.92419 10.646 2.747L11.444 2H12V6H4Z" fill="black"/>
</svg>
