<svg width="24" height="24" viewBox="0 0 24 24" fill="none" xmlns="http://www.w3.org/2000/svg">
<path fill-rule="evenodd" clip-rule="evenodd" d="M8.22452 5.98916L4.48561 2.25024L3.24817 3.48768L6.57108 6.81059C4.61277 8.00622 3.04315 9.83354 2.19688 12.0651C2.12187 12.2651 2.12187 12.4861 2.19688 12.6861C3.73787 16.7501 7.67688 19.4811 11.9979 19.4811C14.0161 19.4811 15.9483 18.8829 17.5931 17.8327L20.5102 20.7497L21.7476 19.5122L18.998 16.7626L19.0019 16.7591L17.7809 15.5381L17.7769 15.5416L15.3016 13.0662L15.3029 13.0599L11.3129 9.06995L11.3066 9.07126L9.59707 7.36171L9.60287 7.36006L8.22988 5.98706L8.22452 5.98916ZM13.2131 13.4527L10.9202 11.1597C10.5847 11.4576 10.3729 11.892 10.3729 12.3749C10.3729 13.2709 11.1019 13.9999 11.9979 13.9999C12.4808 13.9999 12.9152 13.7882 13.2131 13.4527ZM8.62292 12.3749C8.62292 11.4092 9.03021 10.5372 9.68208 9.92159L7.83731 8.07682C6.13153 8.99967 4.75253 10.4887 3.95788 12.3751C5.33388 15.6401 8.45388 17.7311 11.9979 17.7311C13.567 17.7311 15.0519 17.32 16.3395 16.579L14.4511 14.6906C13.8355 15.3426 12.9638 15.7499 11.9979 15.7499C10.1369 15.7499 8.62292 14.2359 8.62292 12.3749Z" fill="black"/>
<path d="M11.4249 7.06104C11.4927 7.05643 11.5602 7.04979 11.6276 7.04315C11.7502 7.0311 11.8728 7.01904 11.9979 7.01904C15.5419 7.01904 18.6619 9.11004 20.0379 12.375C19.7179 13.133 19.2959 13.821 18.8049 14.441L20.0409 15.677C20.7759 14.796 21.3779 13.792 21.7979 12.685C21.8729 12.485 21.8729 12.264 21.7979 12.064C20.2579 8.00004 16.3189 5.26904 11.9979 5.26904C11.2719 5.26904 10.5589 5.35204 9.86389 5.50004L11.4249 7.06104Z" fill="black"/>
<path d="M14.5239 10.16C14.4269 10.049 14.3229 9.946 14.2129 9.849L14.5239 10.16Z" fill="black"/>
</svg>
