<svg width="100" height="36" viewBox="0 0 100 36" fill="none" xmlns="http://www.w3.org/2000/svg">
<rect x="0.5" y="0.5" width="99" height="35" rx="4.5" stroke="#7B61FF" stroke-dasharray="10 5"/>
<path d="M25.5 22.25H23.25V20H25.5V22.25Z" fill="black"/>
<path d="M30.25 22.25H28V20H30.25V22.25Z" fill="black"/>
<path fill-rule="evenodd" clip-rule="evenodd" d="M35 16.5H35.5C36.8802 16.5 38 17.6198 38 19V24C38 25.3802 36.8802 26.5 35.5 26.5H21.5C20.1198 26.5 19 25.3802 19 24V19C19 17.6198 20.1198 16.5 21.5 16.5H33.25V11H35V16.5ZM21.5 18.25C21.0862 18.25 20.75 18.5862 20.75 19V24C20.75 24.4138 21.0862 24.75 21.5 24.75H35.5C35.9138 24.75 36.25 24.4138 36.25 24V19C36.25 18.5862 35.9138 18.25 35.5 18.25H21.5Z" fill="black"/>
<path d="M25.1162 12.5C26.0631 12.5 26.9401 12.796 27.665 13.2949L26.4297 14.5303C26.2888 14.671 26.0991 14.7499 25.9004 14.75H24.332C24.133 14.75 23.9428 14.6713 23.8018 14.5303L22.5674 13.2959C23.2923 12.796 24.1693 12.5 25.1162 12.5Z" fill="black"/>
<path d="M25.1162 9C27.0381 9.00005 28.8075 9.64856 30.2324 10.7285L28.9844 11.9766C27.8874 11.2056 26.5551 10.75 25.1162 10.75C23.6773 10.75 22.345 11.2057 21.248 11.9756L20 10.7275C21.425 9.64864 23.1943 9 25.1162 9Z" fill="black"/>
<path d="M69.5 22.25H67.25V20H69.5V22.25Z" fill="black"/>
<path fill-rule="evenodd" clip-rule="evenodd" d="M70.7373 16.5H70.7451L72.4951 18.25H72.4873L74.2373 20H74.25V20.0117L78.9873 24.75H78.9951L80.5215 26.2773L80.5166 26.2783L82 27.7627L81.3809 28.3809L80.7627 29L78.2627 26.5H65.5C64.121 26.5 63 25.379 63 24V19C63 17.621 64.121 16.5 65.5 16.5H68.2627L62 10.2383L63.2383 9L70.7373 16.5ZM65.5 18.25C65.087 18.25 64.75 18.587 64.75 19V24C64.75 24.413 65.087 24.75 65.5 24.75H76.5127L74.0127 22.25H72V20.2373L70.0127 18.25H65.5Z" fill="black"/>
<path d="M79 16.5H79.5C80.879 16.5 82 17.621 82 19V24C82 24.467 81.8627 24.8994 81.6387 25.2744L80.25 23.8838V19C80.25 18.587 79.913 18.25 79.5 18.25H74.6162L72.8662 16.5H77.25V11H79V16.5Z" fill="black"/>
<path d="M69.1162 12.5C70.0631 12.5 70.9401 12.7959 71.6641 13.2959L70.6631 14.2969L68.8838 12.5176C68.9618 12.5136 69.0372 12.5 69.1162 12.5Z" fill="black"/>
<path d="M69.1162 9C71.0381 9.00005 72.8075 9.64855 74.2324 10.7285L72.9844 11.9766C71.8874 11.2056 70.5551 10.75 69.1162 10.75C68.5083 10.75 67.9262 10.848 67.3662 11L65.9795 9.61328C66.9504 9.22236 68.0063 9 69.1162 9Z" fill="black"/>
</svg>
