<svg width="100" height="36" viewBox="0 0 100 36" fill="none" xmlns="http://www.w3.org/2000/svg">
<rect x="0.5" y="0.5" width="99" height="35" rx="4.5" stroke="#7B61FF" stroke-dasharray="10 5"/>
<path fill-rule="evenodd" clip-rule="evenodd" d="M78.2372 23L81.9994 26.7622L80.762 27.9997L77.9998 25.2374V27.125C77.9998 27.479 77.7868 27.798 77.4598 27.934C77.3518 27.979 77.2378 28 77.1248 28C76.8968 28 76.6738 27.911 76.5058 27.744L71.7628 23H64.4998C63.1208 23 61.9998 21.879 61.9998 20.5V10.5C61.9998 10.1301 62.0809 9.7793 62.2263 9.46394L61 8.23768L62.2374 7.00024L63.467 8.22981L63.4688 8.229L64.9898 9.75H64.9872L71.4872 16.25H71.4898L72.9998 17.76V17.7626L76.6476 21.4104L76.6498 21.409L78.2398 23H78.2372ZM69.0123 16.25H65.9998V18H70.7623L76.2498 23.4874V25.013L72.7438 21.506C72.5798 21.342 72.3568 21.25 72.1248 21.25H64.4998C64.0868 21.25 63.7498 20.913 63.7498 20.5V10.9874L69.0123 16.25Z" fill="black"/>
<path d="M67.1107 9.75H79.4997C79.9127 9.75 80.2497 10.087 80.2497 10.5V20.5C80.2497 20.913 79.9127 21.25 79.4997 21.25H78.6107L80.2367 22.876C81.2547 22.559 81.9997 21.62 81.9997 20.5V10.5C81.9997 9.121 80.8787 8 79.4997 8H65.3607L67.1107 9.75Z" fill="black"/>
<path d="M71.3607 14H77.9997V12.25H69.6107L71.3607 14Z" fill="black"/>
<path d="M34 14H22V12.25H34V14Z" fill="black"/>
<path d="M22 18H29V16.25H22V18Z" fill="black"/>
<path fill-rule="evenodd" clip-rule="evenodd" d="M18 10.5C18 9.11975 19.1198 8 20.5 8H35.5C36.8802 8 38 9.11975 38 10.5V20.5C38 21.8802 36.8802 23 35.5 23H34V27.125C34 27.4789 33.7868 27.798 33.4598 27.9334C33.1329 28.0688 32.7565 27.994 32.5063 27.7437L27.7626 23H20.5C19.1198 23 18 21.8802 18 20.5V10.5ZM20.5 9.75C20.0862 9.75 19.75 10.0862 19.75 10.5V20.5C19.75 20.9138 20.0862 21.25 20.5 21.25H28.125C28.3571 21.25 28.5796 21.3422 28.7437 21.5063L32.25 25.0126V22.125C32.25 21.6418 32.6418 21.25 33.125 21.25H35.5C35.9138 21.25 36.25 20.9138 36.25 20.5V10.5C36.25 10.0862 35.9138 9.75 35.5 9.75H20.5Z" fill="black"/>
</svg>
