<svg width="20" height="18" viewBox="0 0 20 18" fill="none" xmlns="http://www.w3.org/2000/svg">
<path fill-rule="evenodd" clip-rule="evenodd" d="M8.25 3V1C8.25 0.448 7.802 0 7.25 0H4.25C3.698 0 3.25 0.448 3.25 1V3H2.5C1.11975 3 0 4.11975 0 5.5V15.5C0 16.8802 1.11975 18 2.5 18H17.5C18.8802 18 20 16.8802 20 15.5V5.5C20 4.11975 18.8802 3 17.5 3H16.75V1C16.75 0.448 16.302 0 15.75 0H12.75C12.198 0 11.75 0.448 11.75 1V3H8.25ZM1.75 5.5C1.75 5.08625 2.08625 4.75 2.5 4.75H17.5C17.9138 4.75 18.25 5.08625 18.25 5.5V15.5C18.25 15.9138 17.9138 16.25 17.5 16.25H2.5C2.08625 16.25 1.75 15.9138 1.75 15.5V5.5Z" fill="black"/>
</svg>
