<svg width="18" height="18" viewBox="0 0 18 18" fill="none" xmlns="http://www.w3.org/2000/svg">
<path d="M3.55289 9.93617C3.94889 9.54017 4.62613 9.82051 4.62613 10.3805V12.8756H12.6261V14.6256H4.62613V17.1207C4.62613 17.6797 3.94889 17.9611 3.55289 17.5651L0.18375 14.195C-0.06125 13.949 -0.06125 13.5513 0.18375 13.3063L3.55289 9.93617Z" fill="black"/>
<path d="M12.6261 0.629531C12.6261 0.0705308 13.3034 -0.210805 13.6994 0.185195L17.0695 3.55531C17.3142 3.80126 17.3142 4.19903 17.0695 4.44398L13.6994 7.8141C13.3034 8.2101 12.6261 7.92977 12.6261 7.36977V4.87562H4.62613V3.12562H12.6261V0.629531Z" fill="black"/>
</svg>
