<svg width="24" height="24" viewBox="0 0 24 24" fill="none" xmlns="http://www.w3.org/2000/svg">
<path d="M12.875 2V5.25H11.125V2H12.875Z" fill="black"/>
<path d="M12.875 18.75V22H11.125V18.75H12.875Z" fill="black"/>
<path d="M2 12.875H5.25V11.125H2V12.875Z" fill="black"/>
<path d="M22 12.875H18.75V11.125H22V12.875Z" fill="black"/>
<path d="M7.84574 6.6083L5.54774 4.3103L4.3103 5.54774L6.6083 7.84574L7.84574 6.6083Z" fill="black"/>
<path d="M17.3917 16.1543L19.6897 18.4523L18.4523 19.6897L16.1543 17.3917L17.3917 16.1543Z" fill="black"/>
<path d="M5.54774 19.6897L7.84574 17.3917L6.6083 16.1543L4.3103 18.4523L5.54774 19.6897Z" fill="black"/>
<path d="M19.6897 5.54774L17.3917 7.84574L16.1543 6.6083L18.4523 4.3103L19.6897 5.54774Z" fill="black"/>
<path d="M12 7C9.239 7 7 9.239 7 12C7 14.761 9.239 17 12 17C14.761 17 17 14.761 17 12C17 9.239 14.761 7 12 7Z" fill="black"/>
</svg>
