<svg width="16" height="16" viewBox="0 0 16 16" fill="none" xmlns="http://www.w3.org/2000/svg">
<path fill-rule="evenodd" clip-rule="evenodd" d="M11.25 8C13.042 8 14.5 9.458 14.5 11.25C14.5 11.874 14.3138 12.4522 14.0078 12.9482L16 14.9395L14.9395 16L12.9473 14.0088C12.4523 14.3148 11.874 14.5 11.25 14.5C9.458 14.5 8 13.042 8 11.25C8 9.458 9.458 8 11.25 8ZM11.25 9.5C10.285 9.5 9.5 10.285 9.5 11.25C9.5 12.215 10.285 13 11.25 13C12.215 13 13 12.215 13 11.25C13 10.285 12.215 9.5 11.25 9.5Z" fill="black"/>
<path d="M7.25 0C7.449 0 7.64027 0.0787272 7.78027 0.219727L11.7803 4.21973C11.9213 4.35973 12 4.551 12 4.75V6.82617C11.755 6.78417 11.507 6.75 11.25 6.75C10.993 6.75 10.745 6.78417 10.5 6.82617V5.06055L10.4395 5H7.5C7.224 5 7 4.776 7 4.5V1.56055L6.93945 1.5H3C2.725 1.5 2.5 1.725 2.5 2V12C2.5 12.275 2.725 12.5 3 12.5H6.94922C7.11021 13.052 7.3689 13.557 7.71387 14H3C1.895 14 1 13.105 1 12V2C1 0.895 1.895 0 3 0H7.25Z" fill="black"/>
</svg>
