<svg width="16" height="16" viewBox="0 0 16 16" fill="none" xmlns="http://www.w3.org/2000/svg">
<path d="M3.721 4.77401L5.517 1.71601C6.205 0.544009 8 1.03201 8 2.39101V13.609C8 14.968 6.205 15.456 5.517 14.284L3.721 11.226C3.68517 11.1654 3.66171 11.0998 3.63821 11.034C3.63416 11.0227 3.63011 11.0113 3.626 11H1.5C0.672 11 0 10.328 0 9.50001V6.50001C0 5.67201 0.672 5.00001 1.5 5.00001H3.626C3.62932 4.99087 3.63262 4.98171 3.63592 4.97256C3.66038 4.90459 3.68487 4.83658 3.721 4.77401Z" fill="black"/>
<path d="M14.939 4.75024L12.7498 6.93946L10.5606 4.75031L9.5 5.81096L11.6891 8.00011L9.5 10.1893L10.5606 11.2499L12.7498 9.06076L14.939 11.25L15.9997 10.1893L13.8104 8.00011L15.9997 5.81089L14.939 4.75024Z" fill="black"/>
</svg>
