<svg width="16" height="16" viewBox="0 0 16 16" fill="none" xmlns="http://www.w3.org/2000/svg">
<path d="M2.992 13.4981V2.50206C2.99181 2.23916 3.06073 1.98082 3.19184 1.75293C3.32295 1.52505 3.51165 1.33563 3.73904 1.20366C3.96642 1.07168 4.2245 1.00179 4.48741 1.00098C4.75031 1.00018 5.00882 1.06849 5.237 1.19906L14.858 6.69706C15.0877 6.82824 15.2786 7.01781 15.4113 7.24656C15.5441 7.4753 15.614 7.73508 15.614 7.99956C15.614 8.26405 15.5441 8.52383 15.4113 8.75257C15.2786 8.98132 15.0877 9.17089 14.858 9.30206L5.237 14.8001C5.00889 14.9306 4.75048 14.9989 4.48766 14.9981C4.22483 14.9974 3.96683 14.9276 3.73947 14.7957C3.51212 14.6639 3.3234 14.4746 3.19221 14.2468C3.06103 14.0191 2.99199 13.7609 2.992 13.4981Z" fill="black"/>
</svg>
