<svg width="16" height="16" viewBox="0 0 16 16" fill="none" xmlns="http://www.w3.org/2000/svg">
<g clip-path="url(#clip0_1202_2704)">
<path d="M3.19603 13.0969C2.49763 12.4018 1.94396 11.5751 1.56702 10.6647C1.19009 9.75434 0.997378 8.77824 1.00003 7.79289C1.00003 7.62713 1.06588 7.46816 1.18309 7.35095C1.3003 7.23374 1.45927 7.16789 1.62503 7.16789C1.79079 7.16789 1.94976 7.23374 2.06697 7.35095C2.18418 7.46816 2.25003 7.62713 2.25003 7.79289C2.25003 9.46189 2.90003 11.0319 4.08103 12.2119C4.65986 12.7942 5.34849 13.2559 6.10703 13.5702C6.86558 13.8845 7.67895 14.0452 8.50003 14.0429C11.946 14.0429 14.75 11.2389 14.75 7.79289C14.75 4.34689 11.946 1.54289 8.50003 1.54289C7.44903 1.54289 6.43403 1.81789 5.52203 2.31489L6.64703 3.43989C6.71679 3.50988 6.76425 3.59896 6.78342 3.6959C6.80259 3.79284 6.79261 3.89328 6.75473 3.98455C6.71685 4.07582 6.65278 4.15381 6.57061 4.20869C6.48844 4.26357 6.39184 4.29287 6.29303 4.29289L2.77303 4.29289L2.50003 4.01989L2.50003 0.499894C2.50005 0.400959 2.52942 0.304253 2.58442 0.222017C2.63943 0.139782 2.71759 0.0757127 2.80903 0.0379193C2.90046 0.000125787 3.00105 -0.00969309 3.09806 0.00970539C3.19508 0.0291039 3.28416 0.0768476 3.35403 0.146894L4.60503 1.39789C5.77648 0.677116 7.12459 0.294663 8.50003 0.292894C12.636 0.292893 16 3.65689 16 7.79289C16 11.9289 12.636 15.2929 8.50003 15.2929C6.49703 15.2929 4.61303 14.5129 3.19603 13.0969Z" fill="black"/>
<path d="M8.51847 11.0795C9.81392 11.0795 10.6946 10.2358 10.6918 9.05966C10.6946 7.94602 9.91619 7.14489 8.8679 7.14489C8.35653 7.14489 7.91619 7.35795 7.71165 7.64489H7.67756L7.82812 6.1875H10.3707V5.18182H6.81392L6.53835 8.25L7.6321 8.44602C7.81108 8.20455 8.15767 8.05398 8.50142 8.05398C9.08665 8.05682 9.5071 8.48011 9.5071 9.09091C9.5071 9.69602 9.09517 10.1136 8.51847 10.1136C8.02983 10.1136 7.63494 9.80682 7.60653 9.35511H6.41335C6.43608 10.3608 7.31392 11.0795 8.51847 11.0795Z" fill="black"/>
</g>
<defs>
<clipPath id="clip0_1202_2704">
<rect width="16" height="16" fill="white"/>
</clipPath>
</defs>
</svg>
