<svg width="16" height="16" viewBox="0 0 16 16" fill="none" xmlns="http://www.w3.org/2000/svg">
<path fill-rule="evenodd" clip-rule="evenodd" d="M10.5 0C11.6042 0 12.5 0.895786 12.5 2V4H14C15.105 4 16 4.895 16 6V11C16 12.105 15.105 13 14 13H12.5V14C12.5 15.1042 11.6042 16 10.5 16H5.5C4.39579 16 3.5 15.1042 3.5 14V13H2C0.895 13 0 12.105 0 11V6C0 4.895 0.895 4 2 4H3.5V2C3.5 0.895786 4.39579 0 5.5 0H10.5ZM5 14C5 14.2758 5.22421 14.5 5.5 14.5H10.5C10.7758 14.5 11 14.2758 11 14V10H5V14ZM12 8H14V6H12V8ZM5.5 1.5C5.22421 1.5 5 1.72421 5 2V4H11V2C11 1.72421 10.7758 1.5 10.5 1.5H5.5Z" fill="black"/>
</svg>
