<svg width="18" height="23" viewBox="0 0 18 23" fill="none" xmlns="http://www.w3.org/2000/svg">
<path d="M1.75 11.53C1.75 7.53196 5.002 4.27996 9 4.27996C9.028 4.27996 9.055 4.28596 9.083 4.28596V6.44896C9.083 6.93896 9.675 7.18396 10.022 6.83796L12.971 3.88896C13.186 3.67396 13.186 3.32596 12.971 3.11096L10.022 0.161958C9.676 -0.184042 9.083 0.0609584 9.083 0.550958V2.53596C9.055 2.53596 9.028 2.52996 9 2.52996C4.037 2.52996 0 6.56696 0 11.53C0 14.301 1.26 16.781 3.236 18.434L4.48 17.19C2.819 15.86 1.75 13.819 1.75 11.53Z" fill="black"/>
<path d="M14.727 4.59296L13.479 5.84096C15.163 7.16996 16.25 9.22396 16.25 11.531C16.25 15.529 12.998 18.781 9 18.781C8.972 18.781 8.945 18.775 8.917 18.774V16.551C8.917 16.061 8.325 15.816 7.978 16.162L5.029 19.111C4.814 19.326 4.814 19.674 5.029 19.889L7.978 22.838C8.324 23.184 8.917 22.939 8.917 22.449V20.527C8.945 20.527 8.972 20.53 9 20.53C13.963 20.53 18 16.493 18 11.53C18 8.74096 16.725 6.24496 14.727 4.59296Z" fill="black"/>
</svg>
