<svg width="20" height="12" viewBox="0 0 20 12" fill="none" xmlns="http://www.w3.org/2000/svg">
<path d="M19.9144 2.27761C19.9644 1.28761 19.2944 0.40461 18.3274 0.18461C15.9324 -0.35939 13.4244 0.31561 11.6254 1.98861L11.3174 2.27461C10.9584 2.60861 10.4864 2.79361 9.99642 2.79361C9.50541 2.79361 9.03341 2.60761 8.67441 2.27361L8.37341 1.99361C6.57442 0.317609 4.06341 -0.35839 1.66641 0.18561H1.66441C0.702415 0.40561 0.0344148 1.28461 0.0804148 2.27261V2.27861C-0.166585 3.25361 0.214415 6.85361 0.430415 7.41961C0.864415 9.70661 2.73341 11.4266 4.97341 11.4266C6.09241 11.4266 7.10541 10.9796 7.90641 10.2656L8.39441 9.84761C9.29541 9.07661 10.6204 9.06561 11.5334 9.82261L12.2674 10.4286V10.4256C13.0394 11.0466 13.9854 11.4266 15.0214 11.4266C17.2614 11.4266 19.1304 9.70661 19.5644 7.41961C19.7804 6.85261 20.1754 3.26761 19.9144 2.27761ZM7.79041 6.11861C7.25741 6.72161 6.43041 7.10961 5.50041 7.10961C4.57042 7.10961 3.74341 6.72161 3.21041 6.11861C2.93041 5.80261 2.93041 5.30461 3.21041 4.98761C3.74341 4.38461 4.57042 3.99661 5.50041 3.99661C6.43041 3.99661 7.25741 4.38461 7.79041 4.98761C8.07041 5.30461 8.07041 5.80261 7.79041 6.11861ZM16.7904 6.11861C16.2574 6.72161 15.4304 7.10961 14.5004 7.10961C13.5704 7.10961 12.7434 6.72161 12.2104 6.11861C11.9304 5.80261 11.9304 5.30461 12.2104 4.98761C12.7434 4.38461 13.5704 3.99661 14.5004 3.99661C15.4304 3.99661 16.2574 4.38461 16.7904 4.98761C17.0704 5.30461 17.0704 5.80261 16.7904 6.11861Z" fill="black"/>
</svg>
