<svg fill="none" xmlns="http://www.w3.org/2000/svg" viewBox="0 0 288 42">
  <ellipse cx="20.633" cy="21.288" rx="10.081" ry="10.02" fill="url(#a)"/>
  <path d="m29.472 16.478.127.093a11 11 0 0 0-1.9-2.465C21.333 7.781 26.028.392 26.82.016l.009-.011c-5.144 2.994-6.888 8.532-7.049 11.303.239-.017.477-.037.72-.037 3.838 0 7.18 2.098 8.97 5.207" fill="url(#b)"/>
  <path d="M27.698 14.106a11 11 0 0 1 1.9 2.465q.173.127.308.25c4.642 4.25 2.21 10.263 2.029 10.691 3.77-3.087 6.183-7.653 5.457-12.366-2.316-5.735-6.242-8.048-9.447-13.084-.162-.254-.324-.51-.483-.779a6 6 0 0 1-.225-.42 3.7 3.7 0 0 1-.306-.806.053.053 0 0 0-.047-.054.1.1 0 0 0-.038 0q-.005.002-.01.005l-.015.009c-.792.375-5.488 7.764.877 14.089" fill="url(#c)"/>
  <path d="M29.906 16.821a4 4 0 0 0-.307-.25q-.062-.047-.128-.093c-1.093-.763-3.05-1.517-4.936-1.191 7.364 3.66 5.387 16.26-4.818 15.784a9.1 9.1 0 0 1-2.664-.51 12 12 0 0 1-.602-.245 8 8 0 0 1-.345-.163l.014.008c1.424.965 8.455 3.324 15.803-2.622l.011-.027c.182-.428 2.614-6.44-2.028-10.69" fill="url(#d)"/>
  <path d="M39.422 14.086c-.89-2.127-2.693-4.424-4.108-5.15 1.152 2.244 1.819 4.496 2.073 6.176l.004.034c-2.315-5.735-6.24-8.048-9.446-13.084-.162-.254-.325-.51-.483-.779a6 6 0 0 1-.225-.42 3.7 3.7 0 0 1-.306-.806.053.053 0 0 0-.047-.054.1.1 0 0 0-.038 0q-.005.002-.01.005l-.015.009.008-.012C21.686 3 19.941 8.537 19.781 11.308c.238-.016.476-.036.719-.036 3.838 0 7.181 2.097 8.971 5.206-1.093-.763-3.05-1.517-4.937-1.191 7.365 3.66 5.388 16.26-4.817 15.785a9.1 9.1 0 0 1-2.665-.511 12 12 0 0 1-.6-.244 8 8 0 0 1-.346-.164l.014.008q-.15-.072-.298-.148c.096.046.186.096.284.14-2.5-1.285-4.565-3.712-4.823-6.66 0 0 .945-3.5 6.767-3.5.63 0 2.429-1.746 2.462-2.252-.007-.165-3.571-1.574-4.96-2.934-.742-.727-1.095-1.078-1.407-1.34a6 6 0 0 0-.53-.399 9.37 9.37 0 0 1-.058-4.973c-2.103.952-3.74 2.456-4.929 3.785H8.62c-.812-1.022-.754-4.392-.708-5.096-.01-.044-.606.307-.684.36a15 15 0 0 0-2 1.704c-.7.705-1.34 1.468-1.912 2.279v.003-.003a17.1 17.1 0 0 0-2.747 6.165l-.028.134c-.038.18-.212 1.089-.236 1.284.002-.015-.002.015 0 0q-.237 1.41-.302 2.839L0 21.653C0 32.89 9.167 42 20.475 42c10.127 0 18.535-7.307 20.181-16.904.035-.26.063-.523.093-.785.407-3.49-.045-7.158-1.328-10.225m-2.032 1.045.004.022v-.002z" fill="url(#e)"/>
  <path d="M11.284 23.493s.945-3.5 6.767-3.5c.63 0 2.429-1.746 2.462-2.252s-3.723 1.554-7.687-.3c-4.28-2.001-7.528.3-7.528.3s1.233 3.032 4.85 3.032c-.379 3.327 1.39 7.206 5.675 9.24.095.046.185.096.284.14-2.5-1.285-4.565-3.712-4.823-6.66" fill="url(#f)"/>
  <path fill-rule="evenodd" clip-rule="evenodd" d="M7.228 7.144c.078-.053.674-.404.684-.36-.047.703-.104 4.074.708 5.096h.01c.099-.003 3.068-.056 4.56.909q.215.137.425.28.276.184.53.397c.313.263.665.614 1.408 1.34 1.389 1.36 4.952 2.77 4.96 2.935-.016.007-3.732 1.55-7.688-.3-4.28-2.001-7.527.3-7.527.3s1.233 3.032 4.85 3.032c-.38 3.327 1.39 7.206 5.674 9.24q.149.076.299.148c1.423.966 8.454 3.325 15.802-2.622l.011-.026c3.771-3.088 6.184-7.654 5.457-12.367l-.004-.034c-.254-1.68-.921-3.931-2.073-6.176 1.415.726 3.218 3.023 4.108 5.15 1.283 3.067 1.735 6.735 1.328 10.225q-.043.393-.093.785C39.01 34.693 30.602 42 20.475 42 9.167 42 0 32.89 0 21.653l.002-.104c.059-1.082.109-1.562.187-2.03.138-1.18.373-2.202.379-2.227a17.1 17.1 0 0 1 2.747-6.165 18 18 0 0 1 1.912-2.28 15 15 0 0 1 2.001-1.703m30.165 8.007v.002l-.003-.022z" fill="url(#g)"/>
  <path fill-rule="evenodd" clip-rule="evenodd" d="M7.228 7.144c.078-.053.674-.404.684-.36-.047.703-.104 4.074.708 5.096h.01c.099-.003 3.068-.056 4.56.909q.215.137.425.28.276.184.53.397c.313.263.665.614 1.408 1.34 1.389 1.36 4.952 2.77 4.96 2.935-.016.007-3.732 1.55-7.688-.3-4.28-2.001-7.527.3-7.527.3s1.233 3.032 4.85 3.032c-.38 3.327 1.39 7.206 5.674 9.24q.149.076.299.148c1.423.966 8.454 3.325 15.802-2.622l.011-.026c3.771-3.088 6.184-7.654 5.457-12.367l-.004-.034c-.254-1.68-.921-3.931-2.073-6.176 1.415.726 3.218 3.023 4.108 5.15 1.283 3.067 1.735 6.735 1.328 10.225q-.043.393-.093.785C39.01 34.693 30.602 42 20.475 42 9.167 42 0 32.89 0 21.653l.002-.104c.059-1.082.109-1.562.187-2.03.138-1.18.373-2.202.379-2.227a17.1 17.1 0 0 1 2.747-6.165 18 18 0 0 1 1.912-2.28 15 15 0 0 1 2.001-1.703m30.165 8.007v.002l-.003-.022z" fill="url(#h)"/>
  <path fill-rule="evenodd" clip-rule="evenodd" d="M7.228 7.144c.078-.053.674-.404.684-.36-.047.703-.104 4.074.708 5.096h.01c.099-.003 3.068-.056 4.56.909q.215.137.425.28.276.184.53.397c.313.263.665.614 1.408 1.34 1.389 1.36 4.952 2.77 4.96 2.935-.016.007-3.732 1.55-7.688-.3-4.28-2.001-7.527.3-7.527.3s1.233 3.032 4.85 3.032c-.38 3.327 1.39 7.206 5.674 9.24q.149.076.299.148c1.423.966 8.454 3.325 15.802-2.622l.011-.026c3.771-3.088 6.184-7.654 5.457-12.367l-.004-.034c-.254-1.68-.921-3.931-2.073-6.176 1.415.726 3.218 3.023 4.108 5.15 1.283 3.067 1.735 6.735 1.328 10.225q-.043.393-.093.785C39.01 34.693 30.602 42 20.475 42 9.167 42 0 32.89 0 21.653l.002-.104c.059-1.082.109-1.562.187-2.03.138-1.18.373-2.202.379-2.227a17.1 17.1 0 0 1 2.747-6.165 18 18 0 0 1 1.912-2.28 15 15 0 0 1 2.001-1.703m30.165 8.007v.002l-.003-.022z" fill="#fff" fill-opacity=".1" style="mix-blend-mode:overlay"/>
  <path d="M13.191 12.79q.214.136.425.279a9.37 9.37 0 0 1-.058-4.974c-2.103.952-3.74 2.457-4.929 3.785.099-.002 3.069-.055 4.562.91" fill="url(#i)"/>
  <path d="M232.056 16.173c3.572 0 5.793 2.841 5.793 7.79 0 4.95-2.194 7.79-5.793 7.791-2.109 0-3.487-.958-4.219-2.926h-.787c.197 1.771.282 2.671.282 3.488v2.87h-2.87v-18.73h2.447v2.81h.758c.788-2.082 2.221-3.093 4.389-3.093m-28.41 0c4.359 0 6.64 2.532 6.64 7.23v1.04h-10.464v.337c0 3.205 1.18 4.642 3.824 4.642s3.461-1.463 3.461-2.503v-.14h2.926c-.676 3.263-2.897 4.978-6.384 4.978-4.359 0-6.862-2.755-6.862-7.79l-.003-.003c0-5.035 2.503-7.791 6.862-7.791m76.786 0c4.359 0 6.639 2.532 6.639 7.23v1.04h-10.464v.337c0 3.205 1.181 4.642 3.825 4.642s3.46-1.463 3.46-2.503v-.14h2.926c-.676 3.262-2.896 4.978-6.383 4.978-4.359 0-6.862-2.755-6.862-7.79l-.003-.003c0-5.035 2.503-7.791 6.862-7.791m-156.761-.008q3.547 0 5.514 2.054 1.998 2.025 1.997 5.74.001 3.713-1.997 5.769-1.971 2.025-5.514 2.026-3.545 0-5.543-2.026-1.998-2.055-1.998-5.77 0-3.713 1.998-5.74 1.998-2.053 5.543-2.053m-28.08 0c2.346 0 4.062.628 5.318 1.886q1.886 1.885 1.885 5.347v1.35h-10.41v.309q0 2.056.761 3.038.787.957 2.446.957 1.35 0 2.028-.534.702-.563.702-1.182v-.111h4.106q-.645 2.193-2.42 3.375-1.744 1.152-4.417 1.153-3.516 0-5.485-2.025-1.942-2.055-1.942-5.77 0-3.713 1.942-5.74c1.314-1.369 3.14-2.053 5.486-2.053m169.709.003c3.91 0 5.737 1.49 6.301 4.95h-2.869v-.141c0-1.293-.817-2.559-3.432-2.559-2.053 0-3.234.732-3.234 2.083 0 1.04.62 1.518 2.307 1.912l3.066.676c2.896.676 4.191 1.856 4.191 4.05 0 2.927-2.25 4.613-6.245 4.613s-5.792-1.49-6.356-4.948l2.896-.028v.166c0 1.293.817 2.533 3.46 2.533 2.109 0 3.347-.731 3.347-2.082 0-1.014-.647-1.49-2.362-1.913l-3.094-.675c-2.87-.647-4.107-1.858-4.107-4.052.001-2.925 2.222-4.585 6.131-4.585m-96.558-1.654h-9.873v5.878h7.734v2.335h-7.734v6.301h9.984v2.448h-12.936v-19.41h12.825zm53.523 4.11h-3.461c-2.22 0-3.205 1.153-3.205 3.738v9.114h-2.869v-15.02h2.449v2.729h.758c.702-1.998 1.912-2.897 4.021-2.897h2.307zm27.396 0h-3.46c-2.221 0-3.205 1.153-3.205 3.738v9.114h-2.871v-15.02h2.45v2.729h.758c.703-1.998 1.913-2.897 4.022-2.897h2.306zm6.891 12.852h-2.87V18.62h-2.136v-2.165h5.006zM73 31.475h-4.025V16.45H73zm14.293-12.156h-3.995q-1.35 0-1.998.761-.645.76-.646 2.532v8.863H76.66V16.45h3.683v2.702h.423q.534-1.463 1.548-2.168 1.04-.73 2.644-.731h2.335zm52.108 2.477h.308l3.406-5.346h4.051l-4.839 7.287 5.093 7.738h-4.109l-3.686-5.795h-.309l-3.687 5.795h-4.05l5.093-7.738h-.003l-4.837-7.287h4.165zm39.519-5.623c3.123 0 4.753 1.884 4.753 5.515v9.787h-2.869V22.25c0-2.614-.984-3.768-3.179-3.768s-3.205 1.154-3.205 3.768v9.224h-2.87v-15.02H174V19.1h.758c.702-1.997 2.024-2.926 4.162-2.926m-63.688-2.93h-4.53v3.207h4.53v2.644h-4.53v12.379h-4.024v-12.38h-2.561V16.45h2.561v-3.434q0-1.154.619-1.772.647-.645 1.857-.645h6.078zm75.927 3.212h3.966v2.165h-3.966v10.688h3.966v2.165h-4.951c-1.236 0-1.882-.677-1.882-1.913h-.003V18.62h-2.897v-2.165h2.897V13.11h2.87zM66.02 13.775h-9.932v6.189h7.626v3.178h-7.626v8.328h-4.135V10.596H66.02zm165.052 4.705c-2.586 0-3.74 1.433-3.74 4.641v1.686c0 3.178 1.181 4.612 3.74 4.612 2.558 0 3.739-1.434 3.739-4.612V23.12c0-3.205-1.154-4.641-3.739-4.641m-107.401.39q-1.688 0-2.503.985-.817.956-.816 3.01v2.195q0 2.055.816 3.037.817.957 2.503.958 1.687 0 2.477-.958.817-.986.816-3.037v-2.195q0-2.054-.816-3.01-.788-.985-2.477-.985m79.975-.446c-2.476 0-3.683 1.266-3.824 4.106h7.623c-.141-2.84-1.323-4.106-3.799-4.106m76.786 0c-2.476 0-3.684 1.266-3.825 4.106h7.623c-.141-2.84-1.322-4.106-3.798-4.106m-184.838.361c-1.029 0-1.81.282-2.335.843q-.759.817-.873 2.588H98.8c-.074-1.18-.374-2.046-.898-2.588-.505-.564-1.277-.843-2.307-.843m161.102-4.046h-3.264v-2.673h3.264zm-183.527-.965h-4.362v-3.178h4.362z" fill="#fff"/>
  <defs>
    <radialGradient id="a" cx="0" cy="0" r="1" gradientTransform="matrix(15.0249 -4.33548 4.36208 14.9333 16.28 22.64)" gradientUnits="userSpaceOnUse">
      <stop offset=".188" stop-color="#1f3059"/>
      <stop offset=".577" stop-color="#094573"/>
      <stop offset="1" stop-color="#1d89e3"/>
    </radialGradient>
    <radialGradient id="b" cx="0" cy="0" r="1" gradientUnits="userSpaceOnUse" gradientTransform="matrix(13.7448 0 0 23.193 24.494 -1.983)">
      <stop offset=".13" stop-color="#fff44f"/>
      <stop offset=".53" stop-color="#ff980e"/>
    </radialGradient>
    <radialGradient id="c" cx="0" cy="0" r="1" gradientTransform="matrix(4.77976 21.2436 -96.0234 4.71453 6.668 12.681)" gradientUnits="userSpaceOnUse">
      <stop stop-color="#fff44f"/>
      <stop offset=".3" stop-color="#ff980e"/>
      <stop offset=".57" stop-color="#ff3647"/>
      <stop offset=".74" stop-color="#e31587"/>
    </radialGradient>
    <radialGradient id="d" cx="0" cy="0" r="1" gradientUnits="userSpaceOnUse" gradientTransform="matrix(39.6351 0 0 38.7014 19.249 8.31)">
      <stop offset=".14" stop-color="#fff44f"/>
      <stop offset=".313" stop-color="#ff980e"/>
      <stop offset=".66" stop-color="#ff3647"/>
      <stop offset=".9" stop-color="#e31587"/>
    </radialGradient>
    <radialGradient id="g" cx="0" cy="0" r="1" gradientTransform="matrix(3.65047 25.7934 -29.9491 4.16679 16.797 16.207)" gradientUnits="userSpaceOnUse">
      <stop offset=".152" stop-color="#228cff"/>
      <stop offset=".856" stop-color="#004572"/>
      <stop offset="1" stop-color="#106ccd"/>
    </radialGradient>
    <radialGradient id="i" cx="0" cy="0" r="1" gradientTransform="matrix(-5.53512 24.4322 -24.6694 -5.52092 19.1 3.122)" gradientUnits="userSpaceOnUse">
      <stop offset=".1" stop-color="#2598ff"/>
      <stop offset=".952" stop-color="#004c7f"/>
    </radialGradient>
    <linearGradient id="e" x1="32.716" y1="5.88" x2="6.601" y2="34.588" gradientUnits="userSpaceOnUse">
      <stop offset=".115" stop-color="#fff44f" stop-opacity=".8"/>
      <stop offset=".377" stop-color="#fff44f" stop-opacity=".27"/>
      <stop offset=".65" stop-color="#fff44f" stop-opacity=".52"/>
    </linearGradient>
    <linearGradient id="f" x1="22.289" y1="38.056" x2="18.841" y2="15.312" gradientUnits="userSpaceOnUse">
      <stop offset=".013" stop-color="#004c7f"/>
      <stop offset=".91" stop-color="#61b4ff"/>
    </linearGradient>
    <linearGradient id="h" x1="18.622" y1="33.285" x2="44.735" y2="5.352" gradientUnits="userSpaceOnUse">
      <stop offset=".309" stop-color="#1c7ee1" stop-opacity="0"/>
      <stop offset="1" stop-color="#1a7ce0"/>
    </linearGradient>
  </defs>
</svg>
