<svg fill="none" xmlns="http://www.w3.org/2000/svg" viewBox="0 0 586 87">
  <g clip-path="url(#a)">
    <path d="M81.29 29.193c-1.837-4.406-5.549-9.162-8.47-10.666a43.8 43.8 0 0 1 4.276 12.79l.01.07c-4.775-11.88-12.867-16.67-19.479-27.095-.34-.53-.674-1.067-.992-1.614a17 17 0 0 1-.466-.87 7.6 7.6 0 0 1-.63-1.67.12.12 0 0 0-.094-.114.2.2 0 0 0-.082 0c-.005 0-.017.01-.022.01s-.022.012-.028.017l.017-.022C44.727 6.23 41.13 17.7 40.796 23.436a21.14 21.14 0 0 0-11.618 4.47 13 13 0 0 0-1.096-.826 19.54 19.54 0 0 1-.121-10.3 31.3 31.3 0 0 0-10.16 7.838h-.021c-1.672-2.118-1.557-9.096-1.459-10.552a7.7 7.7 0 0 0-1.409.745 31 31 0 0 0-4.128 3.53 37 37 0 0 0-3.942 4.717 35.6 35.6 0 0 0-5.663 12.767 5 5 0 0 0-.055.28 88 88 0 0 0-.417 2.632c0 .033-.005.06-.01.093a41 41 0 0 0-.686 5.812v.219c0 23.27 18.904 42.133 42.215 42.133 20.56 0 38.126-14.781 41.602-35.008.072-.542.132-1.083.192-1.625a43.3 43.3 0 0 0-2.736-21.174zM32.637 62.176c.198.093.384.197.587.29l.028.017c-.209-.099-.412-.203-.62-.307z" fill="url(#b)"/>
    <path d="M81.29 29.193c-1.836-4.405-5.548-9.16-8.47-10.666a43.8 43.8 0 0 1 4.276 12.79c0-.011 0 .005.006.038v.044c3.99 10.78 1.82 21.743-1.305 28.435C70.96 70.2 59.25 80.816 40.917 80.303 21.107 79.744 3.663 65.072.406 45.857c-.592-3.031 0-4.564.296-7.032a31.4 31.4 0 0 0-.685 5.812v.22c0 23.268 18.898 42.138 42.215 42.138 20.56 0 38.126-14.782 41.608-35.008.071-.542.131-1.084.191-1.626a43.3 43.3 0 0 0-2.735-21.173z" fill="url(#c)"/>
    <path d="M81.29 29.193c-1.836-4.405-5.548-9.16-8.47-10.666a43.8 43.8 0 0 1 4.276 12.79c0-.011 0 .005.006.038v.044c3.99 10.78 1.82 21.743-1.305 28.435C70.96 70.2 59.25 80.816 40.917 80.303 21.107 79.744 3.663 65.072.406 45.857c-.592-3.031 0-4.564.296-7.032a31.4 31.4 0 0 0-.685 5.812v.22c0 23.268 18.898 42.138 42.215 42.138 20.56 0 38.126-14.782 41.608-35.008.071-.542.131-1.084.191-1.626a43.3 43.3 0 0 0-2.735-21.173z" fill="url(#d)"/>
    <path d="M60.774 34.146c.094.066.176.131.264.191a23 23 0 0 0-3.92-5.105C43.998 16.136 53.68.834 55.314.057l.016-.022c-10.603 6.2-14.2 17.671-14.534 23.407.493-.034.981-.072 1.48-.072A21.32 21.32 0 0 1 60.77 34.152z" fill="url(#e)"/>
    <path d="M42.304 36.762c-.072 1.05-3.778 4.663-5.078 4.663-12.006 0-13.953 7.245-13.953 7.245.532 6.102 4.787 11.131 9.946 13.791.236.12.471.23.713.34.405.18.822.35 1.239.508a18.8 18.8 0 0 0 5.493 1.056c21.037.986 25.116-25.108 9.935-32.687 3.887-.674 7.922.886 10.18 2.462a21.32 21.32 0 0 0-18.498-10.78c-.498 0-.992.043-1.48.07a21.14 21.14 0 0 0-11.618 4.472c.642.541 1.371 1.27 2.906 2.774 2.862 2.819 10.209 5.741 10.226 6.08z" fill="url(#f)"/>
    <path d="M42.304 36.762c-.072 1.05-3.778 4.663-5.078 4.663-12.006 0-13.953 7.245-13.953 7.245.532 6.102 4.787 11.131 9.946 13.791.236.12.471.23.713.34.405.18.822.35 1.239.508a18.8 18.8 0 0 0 5.493 1.056c21.037.986 25.116-25.108 9.935-32.687 3.887-.674 7.922.886 10.18 2.462a21.32 21.32 0 0 0-18.498-10.78c-.498 0-.992.043-1.48.07a21.14 21.14 0 0 0-11.618 4.472c.642.541 1.371 1.27 2.906 2.774 2.862 2.819 10.209 5.741 10.226 6.08z" fill="url(#g)"/>
    <path d="M27.21 26.507c.296.185.587.383.872.58a19.54 19.54 0 0 1-.121-10.3 31.3 31.3 0 0 0-10.16 7.837c.204 0 6.328-.115 9.409 1.883" fill="url(#h)"/>
    <path d="M.405 45.863c3.256 19.214 20.702 33.886 40.51 34.445 18.329.52 30.045-10.103 34.88-20.468 3.126-6.699 5.302-17.66 1.317-28.436v-.043c0-.033-.006-.05-.006-.039l.01.071c1.498 9.764-3.475 19.215-11.255 25.612l-.022.055c-15.148 12.313-29.644 7.432-32.577 5.429a21 21 0 0 1-.614-.307c-8.833-4.214-12.479-12.247-11.7-19.132a10.85 10.85 0 0 1-10-6.277s6.694-4.767 15.52-.624c5.001 2.266 10.686 2.49 15.851.624-.016-.345-7.363-3.262-10.225-6.08-1.53-1.505-2.259-2.233-2.906-2.775-.345-.295-.712-.569-1.09-.826-.253-.17-.532-.356-.872-.58-3.082-1.997-9.2-1.883-9.403-1.883H17.8c-1.672-2.118-1.557-9.095-1.458-10.55a7.7 7.7 0 0 0-1.41.743 31 31 0 0 0-4.128 3.53 37 37 0 0 0-3.942 4.718A35.6 35.6 0 0 0 1.2 35.837c-.022.093-1.524 6.639-.784 10.037z" fill="url(#i)"/>
    <path d="M57.117 29.231a23 23 0 0 1 3.92 5.106c.22.164.434.334.637.52 9.567 8.8 4.556 21.256 4.183 22.142 7.774-6.392 12.747-15.848 11.255-25.611-4.78-11.876-12.873-16.664-19.485-27.09-.34-.53-.674-1.067-.992-1.614a16 16 0 0 1-.466-.87 7.6 7.6 0 0 1-.63-1.67.12.12 0 0 0-.094-.115.2.2 0 0 0-.082 0c-.005 0-.016.011-.022.011s-.022.011-.027.017C53.68.834 43.998 16.135 57.117 29.23" fill="url(#j)" fill-opacity=".8"/>
    <path d="M61.674 34.857a10 10 0 0 0-.636-.52c-.088-.066-.17-.132-.263-.192-2.254-1.582-6.289-3.141-10.181-2.462 15.18 7.579 11.107 33.673-9.935 32.688a18.8 18.8 0 0 1-5.493-1.057 25 25 0 0 1-1.24-.509c-.235-.11-.477-.219-.712-.34l.027.017c2.933 1.998 17.43 6.885 32.578-5.428l.022-.055c.372-.887 5.389-13.337-4.184-22.142z" fill="url(#k)"/>
    <path d="M23.279 48.67s1.946-7.246 13.953-7.246c1.3 0 5.011-3.617 5.077-4.663a21.06 21.06 0 0 1-15.85-.623c-8.822-4.143-15.521.624-15.521.624a10.84 10.84 0 0 0 10 6.277c-.784 6.89 2.867 14.923 11.7 19.132.197.093.383.197.586.29-5.154-2.66-9.413-7.69-9.945-13.791" fill="url(#l)"/>
    <path d="M81.29 29.193c-1.837-4.406-5.548-9.161-8.47-10.666a43.8 43.8 0 0 1 4.276 12.79l.011.07c-4.776-11.88-12.868-16.67-19.48-27.095-.34-.53-.674-1.067-.992-1.614a16 16 0 0 1-.466-.87 7.6 7.6 0 0 1-.63-1.67.12.12 0 0 0-.094-.114.2.2 0 0 0-.082 0c-.005 0-.016.01-.022.01s-.022.012-.027.017l.016-.022C44.727 6.23 41.13 17.7 40.796 23.436c.493-.033.981-.072 1.48-.072A21.31 21.31 0 0 1 60.77 34.145c-2.254-1.581-6.289-3.141-10.181-2.462 15.18 7.58 11.107 33.673-9.935 32.688a18.8 18.8 0 0 1-5.493-1.057 25 25 0 0 1-1.24-.509c-.235-.109-.476-.218-.712-.339l.027.017a22 22 0 0 1-.614-.307c.198.093.384.197.587.29-5.154-2.66-9.414-7.689-9.945-13.79 0 0 1.946-7.247 13.953-7.247 1.299 0 5.01-3.617 5.077-4.662-.017-.345-7.364-3.262-10.226-6.08-1.53-1.505-2.258-2.233-2.905-2.775a12 12 0 0 0-1.091-.826 19.54 19.54 0 0 1-.12-10.3 31.3 31.3 0 0 0-10.16 7.837h-.022c-1.672-2.118-1.557-9.096-1.458-10.551a7.7 7.7 0 0 0-1.41.744 31 31 0 0 0-4.128 3.53 37 37 0 0 0-3.942 4.717 35.6 35.6 0 0 0-5.663 12.768 5 5 0 0 0-.055.28c-.077.371-.433 2.254-.488 2.659A50 50 0 0 0 0 44.647v.22C0 68.135 18.904 87 42.216 87c20.56 0 38.126-14.782 41.602-35.008q.103-.813.191-1.626a43.3 43.3 0 0 0-2.735-21.173zm-4.189 2.161v.044h.006v-.044z" fill="url(#m)"/>
    <path d="M473.919 34.342c7.277 0 11.802 5.776 11.802 15.839s-4.47 15.839-11.802 15.84c-4.296 0-7.104-1.947-8.595-5.949h-1.603c.401 3.601.574 5.431.574 7.093V73h-5.847V34.917h4.985v5.713h1.545c1.605-4.233 4.524-6.288 8.941-6.288m-57.879 0c8.881 0 13.528 5.148 13.528 14.7v2.115H408.25v.685c0 6.517 2.404 9.438 7.79 9.438s7.051-2.974 7.051-5.089v-.285h5.961c-1.377 6.635-5.902 10.122-13.006 10.122-8.88 0-13.979-5.602-13.979-15.84l-.006-.005c0-10.238 5.099-15.841 13.979-15.841m156.435 0c8.88 0 13.525 5.148 13.525 14.7v2.115h-21.318v.685c0 6.517 2.406 9.438 7.793 9.438 5.386 0 7.048-2.974 7.048-5.089v-.285h5.962c-1.378 6.633-5.9 10.122-13.004 10.122-8.881 0-13.98-5.602-13.98-15.84l-.006-.005c0-10.238 5.099-15.841 13.98-15.841m-319.366-.017q7.226 0 11.234 4.177 4.07 4.117 4.068 11.67.002 7.551-4.068 11.73-4.016 4.117-11.234 4.12-7.222 0-11.292-4.12-4.071-4.178-4.071-11.732 0-7.549 4.071-11.67 4.07-4.175 11.292-4.175m-57.206 0c4.779 0 8.275 1.277 10.834 3.835q3.842 3.833 3.84 10.872v2.745h-21.208v.628q0 4.18 1.55 6.177 1.603 1.946 4.984 1.946 2.75 0 4.131-1.086 1.43-1.144 1.43-2.403v-.226h8.365q-1.314 4.46-4.93 6.862-3.552 2.343-8.998 2.345-7.164 0-11.175-4.118-3.956-4.178-3.956-11.732 0-7.549 3.956-11.67c2.677-2.784 6.397-4.175 11.177-4.175m345.743.006c7.966 0 11.688 3.03 12.837 10.065h-5.845v-.287c0-2.629-1.664-5.203-6.992-5.203-4.182 0-6.588 1.489-6.588 4.236 0 2.114 1.263 3.086 4.7 3.887l6.246 1.375c5.9 1.374 8.538 3.773 8.538 8.234 0 5.952-4.583 9.38-12.722 9.38s-11.8-3.03-12.949-10.06l5.9-.058v.338c0 2.629 1.664 5.15 7.049 5.15 4.296 0 6.818-1.486 6.818-4.233 0-2.062-1.318-3.03-4.812-3.89l-6.303-1.372c-5.847-1.316-8.367-3.778-8.367-8.24.002-5.946 4.527-9.322 12.49-9.322m-196.715-3.363h-20.114V42.92h15.757v4.748h-15.757v12.811h20.34v4.978h-26.354V25.99h26.128zm109.041 8.357h-7.051c-4.522 0-6.529 2.344-6.529 7.6v18.532h-5.845v-30.54h4.989v5.549h1.544c1.431-4.063 3.896-5.89 8.192-5.89h4.7zm55.814 0h-7.049c-4.525 0-6.53 2.344-6.53 7.6v18.532h-5.849v-30.54h4.991v5.549h1.545c1.432-4.063 3.897-5.89 8.194-5.89h4.698zm14.038 26.132h-5.847v-26.14h-4.351v-4.402h10.198zm-373.945-.002h-8.201v-30.55h8.201zm29.118-24.717h-8.139q-2.75 0-4.07 1.547-1.314 1.546-1.316 5.149v18.02h-8.137v-30.55h7.503V40.4h.862q1.088-2.975 3.154-4.409 2.119-1.483 5.386-1.486h4.757zm106.159 5.037h.627l6.939-10.87h8.253l-9.858 14.816 10.376 15.734h-8.372l-7.509-11.783h-.63l-7.511 11.783h-8.251l10.376-15.734h-.006l-9.855-14.816h8.486zm80.511-11.433c6.362 0 9.683 3.83 9.683 11.213v19.9h-5.845V46.698c0-5.315-2.005-7.662-6.477-7.662-4.471 0-6.529 2.347-6.529 7.662v18.755h-5.847v-30.54h4.991v5.38h1.545c1.43-4.06 4.123-5.951 8.479-5.951m-129.75-5.956h-9.229v6.52h9.229v5.377h-9.229v25.17h-8.198V40.28h-5.218v-5.376h5.218v-6.983q0-2.346 1.261-3.602 1.319-1.312 3.783-1.312h12.383zm154.684 6.531h8.08v4.402h-8.08V61.05h8.08v4.403h-10.087c-2.518 0-3.834-1.377-3.834-3.89h-.006V39.317h-5.902v-4.402h5.902v-6.801h5.847zm-254.943-5.451h-20.234V42.05h15.536v6.461h-15.536v16.933H107V23.002h28.658zm336.257 9.566c-5.269 0-7.62 2.914-7.62 9.437v3.428c0 6.462 2.406 9.377 7.62 9.377 5.211 0 7.617-2.916 7.617-9.377v-3.43c0-6.517-2.351-9.435-7.617-9.435m-218.806.791q-3.438 0-5.099 2.003-1.665 1.944-1.662 6.12v4.463q0 4.179 1.662 6.175 1.665 1.946 5.099 1.948 3.438 0 5.047-1.948 1.663-2.005 1.662-6.175v-4.463q0-4.176-1.662-6.12-1.606-2.003-5.047-2.003m162.931-.907c-5.044 0-7.503 2.575-7.79 8.349h15.53c-.287-5.775-2.695-8.349-7.74-8.349m156.435 0c-5.045 0-7.506 2.575-7.793 8.349h15.53c-.287-5.775-2.693-8.349-7.737-8.349m-376.566.734c-2.097 0-3.688.574-4.757 1.714q-1.547 1.662-1.779 5.263h13.067c-.151-2.4-.762-4.16-1.829-5.263-1.029-1.146-2.604-1.714-4.702-1.714m328.211-8.226h-6.65v-5.435h6.65zm-373.895-1.962h-8.887V23h8.887z" fill="#000"/>
  </g>
  <defs>
    <radialGradient id="c" cx="0" cy="0" r="1" gradientUnits="userSpaceOnUse" gradientTransform="matrix(86.5955 0 0 87.8896 72.208 18.262)">
      <stop offset=".13" stop-color="#ffbd4f"/>
      <stop offset=".28" stop-color="#ff980e"/>
      <stop offset=".47" stop-color="#ff3750"/>
      <stop offset=".78" stop-color="#eb0878"/>
      <stop offset=".86" stop-color="#e50080"/>
    </radialGradient>
    <radialGradient id="d" cx="0" cy="0" r="1" gradientUnits="userSpaceOnUse" gradientTransform="matrix(88.758 0 0 87.8896 41.75 45.712)">
      <stop offset=".3" stop-color="#960e18"/>
      <stop offset=".35" stop-color="#b11927" stop-opacity=".74"/>
      <stop offset=".43" stop-color="#db293d" stop-opacity=".34"/>
      <stop offset=".5" stop-color="#f5334b" stop-opacity=".09"/>
      <stop offset=".53" stop-color="#ff3750" stop-opacity="0"/>
    </radialGradient>
    <radialGradient id="e" cx="0" cy="0" r="1" gradientUnits="userSpaceOnUse" gradientTransform="matrix(28.2678 0 0 47.9184 52.691 -3.196)">
      <stop offset=".13" stop-color="#fff44f"/>
      <stop offset=".53" stop-color="#ff980e"/>
    </radialGradient>
    <radialGradient id="f" cx="0" cy="0" r="1" gradientUnits="userSpaceOnUse" gradientTransform="matrix(37.3718 0 0 40.894 33.22 68.254)">
      <stop offset=".35" stop-color="#3a8ee6"/>
      <stop offset=".67" stop-color="#9059ff"/>
      <stop offset="1" stop-color="#c139e6"/>
    </radialGradient>
    <radialGradient id="g" cx="0" cy="0" r="1" gradientTransform="matrix(18.7937 1.92077 -2.23502 21.789 42.013 38.243)" gradientUnits="userSpaceOnUse">
      <stop offset=".21" stop-color="#9059ff" stop-opacity="0"/>
      <stop offset="1" stop-color="#6e008b" stop-opacity=".6"/>
    </radialGradient>
    <radialGradient id="h" cx="0" cy="0" r="1" gradientUnits="userSpaceOnUse" gradientTransform="matrix(29.7901 0 0 29.862 42.876 6.184)">
      <stop offset=".1" stop-color="#ffe226"/>
      <stop offset=".79" stop-color="#ff7139"/>
    </radialGradient>
    <radialGradient id="i" cx="0" cy="0" r="1" gradientUnits="userSpaceOnUse" gradientTransform="matrix(142.098 0 0 119.073 63.172 -14.428)">
      <stop offset=".11" stop-color="#fff44f"/>
      <stop offset=".46" stop-color="#ff980e"/>
      <stop offset=".72" stop-color="#ff3647"/>
      <stop offset=".9" stop-color="#e31587"/>
    </radialGradient>
    <radialGradient id="k" cx="0" cy="0" r="1" gradientUnits="userSpaceOnUse" gradientTransform="matrix(81.7909 0 0 80.2243 36.249 15.707)">
      <stop offset=".14" stop-color="#fff44f"/>
      <stop offset=".48" stop-color="#ff980e"/>
      <stop offset=".66" stop-color="#ff3647"/>
      <stop offset=".9" stop-color="#e31587"/>
    </radialGradient>
    <radialGradient id="l" cx="0" cy="0" r="1" gradientUnits="userSpaceOnUse" gradientTransform="matrix(98.2916 0 0 87.8021 62.428 20.86)">
      <stop offset=".09" stop-color="#fff44f"/>
      <stop offset=".63" stop-color="#ff980e"/>
    </radialGradient>
    <linearGradient id="b" x1="77.157" y1="13.437" x2="9.569" y2="78.329" gradientUnits="userSpaceOnUse">
      <stop offset=".05" stop-color="#fff44f"/>
      <stop offset=".37" stop-color="#ff980e"/>
      <stop offset=".53" stop-color="#ff3647"/>
      <stop offset=".7" stop-color="#e31587"/>
    </linearGradient>
    <linearGradient id="j" x1="54.387" y1="-10.1" x2="71.871" y2="67.351" gradientUnits="userSpaceOnUse">
      <stop stop-color="#fff44f"/>
      <stop offset=".3" stop-color="#ff980e"/>
      <stop offset=".57" stop-color="#ff3647"/>
      <stop offset=".74" stop-color="#e31587"/>
    </linearGradient>
    <linearGradient id="m" x1="72.695" y1="13.421" x2="18.661" y2="72.835" gradientUnits="userSpaceOnUse">
      <stop offset=".17" stop-color="#fff44f" stop-opacity=".8"/>
      <stop offset=".678" stop-color="#fff44f" stop-opacity="0"/>
    </linearGradient>
    <clipPath id="a">
      <path fill="#fff" d="M0 0h586v87H0z"/>
    </clipPath>
  </defs>
</svg>
