<svg width="24" height="24" viewBox="0 0 24 24" fill="none" xmlns="http://www.w3.org/2000/svg">
<path d="M20.85 14.6787C20.47 14.2587 19.87 14.1187 19.34 14.3187C18.2 14.7387 17 14.8387 15.77 14.6187C13.1 14.1387 10.95 12.0487 10.41 9.41867C10.04 7.62867 10.37 5.81867 11.35 4.32867C11.66 3.85867 11.65 3.24867 11.34 2.77867C11.03 2.31867 10.47 2.10867 9.93999 2.21867C5.10999 3.22867 1.77999 7.54867 2.01999 12.4687C2.25999 17.3687 6.09999 21.4287 10.97 21.9287C11.31 21.9587 11.65 21.9787 11.98 21.9787C15.86 21.9787 19.44 19.7287 21.08 16.1687C21.31 15.6687 21.22 15.0787 20.84 14.6787H20.85Z" fill="black"/>
</svg>
