<svg width="20" height="15" viewBox="0 0 20 15" fill="none" xmlns="http://www.w3.org/2000/svg">
<path d="M7 9.125H4V10.875H7V9.125Z" fill="black"/>
<path fill-rule="evenodd" clip-rule="evenodd" d="M0 2.5C0 1.11975 1.11975 0 2.5 0H17.5C18.8802 0 20 1.11975 20 2.5V12.5C20 13.8802 18.8802 15 17.5 15H2.5C1.11975 15 0 13.8802 0 12.5V2.5ZM2.5 1.75C2.08625 1.75 1.75 2.08625 1.75 2.5V4.25H18.25V2.5C18.25 2.08625 17.9138 1.75 17.5 1.75H2.5ZM1.75 12.5V6H18.25V12.5C18.25 12.9138 17.9138 13.25 17.5 13.25H2.5C2.08625 13.25 1.75 12.9138 1.75 12.5Z" fill="black"/>
</svg>
