<svg width="16" height="16" viewBox="0 0 16 16" fill="none" xmlns="http://www.w3.org/2000/svg">
<path d="M13 2H3C2.46957 2 1.96086 2.21071 1.58579 2.58579C1.21071 2.96086 1 3.46957 1 4V7.524C1 8.466 1.204 9.382 1.56 10.248C1.942 11.113 2.425 11.852 3.062 12.488C3.70871 13.1171 4.46878 13.6179 5.302 13.964C6.167 14.346 7.058 14.524 8.026 14.524C8.9619 14.5174 9.8874 14.3272 10.75 13.964C11.5855 13.6241 12.3401 13.1124 12.965 12.462C13.5941 11.8153 14.0949 11.0552 14.441 10.222C14.818 9.36379 15.0085 8.43533 15 7.498V4C15 3.46957 14.7893 2.96086 14.4142 2.58579C14.0391 2.21071 13.5304 2 13 2ZM11.817 6.523L8.34 10H7.66L4.182 6.523C4.06962 6.40464 4.00791 6.24706 4.01003 6.08386C4.01215 5.92066 4.07792 5.76474 4.19333 5.64933C4.30874 5.53392 4.46466 5.46815 4.62786 5.46603C4.79106 5.46391 4.94864 5.52562 5.067 5.638L8 8.572L10.933 5.638C11.0504 5.52069 11.2095 5.4548 11.3755 5.4548C11.5415 5.4548 11.7006 5.52069 11.818 5.638C11.9342 5.75603 11.9993 5.91507 11.9991 6.08071C11.9989 6.24634 11.9335 6.40523 11.817 6.523Z" fill="black"/>
</svg>
