<svg width="16" height="20" viewBox="0 0 16 20" fill="none" xmlns="http://www.w3.org/2000/svg">
<path fill-rule="evenodd" clip-rule="evenodd" d="M4.62303 1.75C4.46151 1.75 4.31787 1.85047 4.26248 2.00142L1.7826 8.76809C1.66309 9.09391 1.90414 9.44 2.25203 9.44H5.63203C5.88569 9.44 6.12687 9.55008 6.29307 9.74171C6.45926 9.93335 6.53412 10.1877 6.49823 10.4388L5.51068 17.3493L14.158 8.46769C14.158 8.46772 14.158 8.46766 14.158 8.46769C14.3125 8.30886 14.1996 8.043 13.979 8.043H8.77903C8.48868 8.043 8.21724 7.89897 8.05446 7.65854C7.89169 7.4181 7.85878 7.11258 7.96663 6.843L9.72943 2.4365C9.72939 2.4366 9.72947 2.4364 9.72943 2.4365C9.86084 2.10684 9.61865 1.75 9.26503 1.75H4.62303ZM2.61959 1.39858C2.9282 0.557535 3.72856 0 4.62303 0H9.26503C10.8573 0 11.945 1.60724 11.3546 3.0855L10.0715 6.293H13.979C15.7484 6.293 16.6455 8.42113 15.412 9.68831L5.62996 19.7354C5.46525 19.9046 5.23915 20 5.00303 20H4.37303C4.11937 20 3.87819 19.8899 3.712 19.6983C3.5458 19.5067 3.47095 19.2523 3.50683 19.0012L4.6231 11.19H2.25203C0.687999 11.19 -0.398846 9.63402 0.139467 8.16591C0.139441 8.16598 0.139493 8.16584 0.139467 8.16591L2.61959 1.39858Z" fill="black"/>
</svg>
