<svg width="15" height="19" viewBox="0 0 15 19" fill="none" xmlns="http://www.w3.org/2000/svg">
<path fill-rule="evenodd" clip-rule="evenodd" d="M13.5 7V0.5C13.5 0.22 13.28 0 13 0H2C1.72 0 1.5 0.22 1.5 0.5V7H0.5C0.22 7 0 7.22 0 7.5V10.5C0 11.88 1.12 13 2.5 13H5.5V17.5C5.5 18.33 6.17 19 7 19H8C8.83 19 9.5 18.33 9.5 17.5V13H12.5C13.88 13 15 11.88 15 10.5V7.5C15 7.22 14.78 7 14.5 7H13.5ZM3.25 7H11.76V2.37H11.19L9.97 3.51C9.6 3.86 9.03 3.85 8.67 3.49L7.55 2.37H6.72L5.95 3.01C5.56 3.34 4.99 3.29 4.65 2.92L3.59 1.75H3.25V7Z" fill="black"/>
</svg>
