<svg width="92" height="75" fill="none" xmlns="http://www.w3.org/2000/svg"><mask id="a" maskUnits="userSpaceOnUse" x="-1" y="-.998047" width="93" height="76" fill="#000"><path fill="#fff" d="M-1-.998047H92V75.001953H-1z"/><path d="M63.3506 8.39258C63.7521 6.71613 65.4304 5.6881 67.0947 6.08887L82.668 9.83887C84.3333 10.2401 85.3635 11.922 84.9619 13.5996L76.6318 48.4023C76.2304 50.0788 74.5529 51.1057 72.8887 50.7051L70.002 50.0098L70.5889 53.6357L72.6543 53.3008H72.6553C74.113 53.0655 75.4959 54.0564 75.7324 55.5303C75.9683 57.001 74.9731 58.386 73.5107 58.6221L73.5098 58.6211L9.99707 68.9424L9.72461 68.9717C8.37059 69.0513 7.14164 68.0938 6.91992 66.7119C6.68414 65.2411 7.67924 63.8572 9.1416 63.6211L11.2041 63.2852L6.04199 31.29L6.01953 31.1309C5.83473 29.4846 6.97381 27.9763 8.60742 27.7129L60.7529 19.2432L63.3506 8.39258Z"/></mask><path d="M63.3506 8.39258C63.7521 6.71613 65.4304 5.6881 67.0947 6.08887L82.668 9.83887C84.3333 10.2401 85.3635 11.922 84.9619 13.5996L76.6318 48.4023C76.2304 50.0788 74.5529 51.1057 72.8887 50.7051L70.002 50.0098L70.5889 53.6357L72.6543 53.3008H72.6553C74.113 53.0655 75.4959 54.0564 75.7324 55.5303C75.9683 57.001 74.9731 58.386 73.5107 58.6221L73.5098 58.6211L9.99707 68.9424L9.72461 68.9717C8.37059 69.0513 7.14164 68.0938 6.91992 66.7119C6.68414 65.2411 7.67924 63.8572 9.1416 63.6211L11.2041 63.2852L6.04199 31.29L6.01953 31.1309C5.83473 29.4846 6.97381 27.9763 8.60742 27.7129L60.7529 19.2432L63.3506 8.39258Z" fill="#F8F6F4"/><path d="M63.3506 8.39258L57.5156 6.9951L57.5155 6.99564L63.3506 8.39258ZM67.0947 6.08887L65.6901 11.9221L65.6901 11.9221L67.0947 6.08887ZM82.668 9.83887L84.0734 4.0058L84.0726 4.0056L82.668 9.83887ZM84.9619 13.5996L79.1267 12.2029L79.1267 12.203L84.9619 13.5996ZM76.6318 48.4023L82.4669 49.7994L82.467 49.799L76.6318 48.4023ZM72.8887 50.7051L71.4837 56.5383L71.4846 56.5385L72.8887 50.7051ZM70.002 50.0098L71.407 44.1766L62.6378 42.0644L64.079 50.9685L70.002 50.0098ZM70.5889 53.6357L64.666 54.5944L65.625 60.5192L71.5494 59.5584L70.5889 53.6357ZM72.6543 53.3008V47.3008H72.1709L71.6938 47.3782L72.6543 53.3008ZM72.6553 53.3008V59.3008H73.1364L73.6115 59.2241L72.6553 53.3008ZM75.7324 55.5303L81.6567 54.5802L81.6566 54.5794L75.7324 55.5303ZM73.5107 58.6221L69.2681 62.8647L71.4377 65.0344L74.4669 64.5454L73.5107 58.6221ZM73.5098 58.6211L77.7524 54.3785L75.5799 52.206L72.5473 52.6988L73.5098 58.6211ZM9.99707 68.9424L10.6385 74.908L10.7996 74.8907L10.9595 74.8647L9.99707 68.9424ZM9.72461 68.9717L10.077 74.9613L10.2218 74.9528L10.3661 74.9373L9.72461 68.9717ZM6.91992 66.7119L0.995557 67.6616L0.995688 67.6624L6.91992 66.7119ZM9.1416 63.6211L10.0981 69.5444L10.1062 69.5431L9.1416 63.6211ZM11.2041 63.2852L12.1687 69.2071L18.0818 68.244L17.1275 62.3295L11.2041 63.2852ZM6.04199 31.29L0.100846 32.1284L0.109138 32.1871L0.118592 32.2457L6.04199 31.29ZM6.01953 31.1309L0.0569787 31.8002L0.0664821 31.8848L0.0783849 31.9692L6.01953 31.1309ZM8.60742 27.7129L9.56243 33.6364L9.56936 33.6353L8.60742 27.7129ZM60.7529 19.2432L61.7149 25.1656L65.658 24.5251L66.588 20.6401L60.7529 19.2432ZM63.3506 8.39258L69.1856 9.79006C68.8179 11.3252 67.264 12.3011 65.6901 11.9221L67.0947 6.08887L68.4994 0.255603C63.5969 -0.924918 58.6863 2.10708 57.5156 6.9951L63.3506 8.39258ZM67.0947 6.08887L65.6901 11.9221L81.2633 15.6721L82.668 9.83887L84.0726 4.0056L68.4994 0.255601L67.0947 6.08887ZM82.668 9.83887L81.2625 15.6719C79.6942 15.2941 78.7615 13.729 79.1267 12.2029L84.9619 13.5996L90.7971 14.9963C91.9655 10.1149 88.9724 5.18618 84.0734 4.0058L82.668 9.83887ZM84.9619 13.5996L79.1267 12.203L70.7967 47.0057L76.6318 48.4023L82.467 49.799L90.7971 14.9963L84.9619 13.5996ZM76.6318 48.4023L70.7967 47.0053C71.1649 45.4676 72.7213 44.4934 74.2928 44.8717L72.8887 50.7051L71.4846 56.5385C76.3844 57.7179 81.296 54.69 82.4669 49.7994L76.6318 48.4023ZM72.8887 50.7051L74.2937 44.8719L71.407 44.1766L70.002 50.0098L68.5969 55.8429L71.4837 56.5383L72.8887 50.7051ZM70.002 50.0098L64.079 50.9685L64.666 54.5944L70.5889 53.6357L76.5118 52.677L75.9249 49.0511L70.002 50.0098ZM70.5889 53.6357L71.5494 59.5584L73.6148 59.2234L72.6543 53.3008L71.6938 47.3782L69.6284 47.7131L70.5889 53.6357ZM72.6543 53.3008V59.3008H72.6553V53.3008V47.3008H72.6543V53.3008ZM72.6553 53.3008L73.6115 59.2241C71.8004 59.5165 70.0979 58.2859 69.8082 56.4811L75.7324 55.5303L81.6566 54.5794C80.8938 49.827 76.4256 46.6145 71.6991 47.3775L72.6553 53.3008ZM75.7324 55.5303L69.8081 56.4804C69.5247 54.7129 70.7168 52.9954 72.5546 52.6987L73.5107 58.6221L74.4669 64.5454C79.2295 63.7766 82.4119 59.2892 81.6567 54.5802L75.7324 55.5303ZM73.5107 58.6221L77.7534 54.3794L77.7524 54.3785L73.5098 58.6211L69.2671 62.8637L69.2681 62.8647L73.5107 58.6221ZM73.5098 58.6211L72.5473 52.6988L9.03465 63.0201L9.99707 68.9424L10.9595 74.8647L74.4722 64.5434L73.5098 58.6211ZM9.99707 68.9424L9.35561 62.9768L9.08315 63.0061L9.72461 68.9717L10.3661 74.9373L10.6385 74.908L9.99707 68.9424ZM9.72461 68.9717L9.37227 62.982C11.0595 62.8828 12.5723 64.0673 12.8442 65.7614L6.91992 66.7119L0.995688 67.6624C1.71092 72.1203 5.68167 75.2199 10.077 74.9613L9.72461 68.9717ZM6.91992 66.7119L12.8443 65.7622C13.128 67.5318 11.9332 69.248 10.0981 69.5444L9.1416 63.6211L8.18509 57.6978C3.4253 58.4665 0.240333 62.9503 0.995557 67.6616L6.91992 66.7119ZM9.1416 63.6211L10.1062 69.5431L12.1687 69.2071L11.2041 63.2852L10.2395 57.3632L8.17704 57.6991L9.1416 63.6211ZM11.2041 63.2852L17.1275 62.3295L11.9654 30.3344L6.04199 31.29L0.118592 32.2457L5.2807 64.2408L11.2041 63.2852ZM6.04199 31.29L11.9831 30.4517L11.9607 30.2925L6.01953 31.1309L0.0783849 31.9692L0.100846 32.1284L6.04199 31.29ZM6.01953 31.1309L11.9821 30.4616C12.1521 31.976 11.1104 33.3868 9.56243 33.6364L8.60742 27.7129L7.65242 21.7894C2.83725 22.5657 -0.482619 26.9931 0.0569787 31.8002L6.01953 31.1309ZM8.60742 27.7129L9.56936 33.6353L61.7149 25.1656L60.7529 19.2432L59.791 13.3208L7.64548 21.7905L8.60742 27.7129ZM60.7529 19.2432L66.588 20.6401L69.1857 9.78952L63.3506 8.39258L57.5155 6.99564L54.9178 17.8462L60.7529 19.2432Z" fill="#F8F6F4" mask="url(#a)"/><path d="M6.49001 31.0152C6.28171 29.7438 7.14467 28.55 8.40638 28.347L61.66 19.6976C62.9277 19.4947 64.1179 20.3543 64.3203 21.6257L69.635 54.522L11.7987 63.9176L6.49001 31.0152Z" fill="#FFEA80" stroke="#333336" stroke-width="2"/><path d="M9.54645 68.016L73.0605 57.6952C74.096 57.5282 74.7983 56.5491 74.6316 55.5105C74.465 54.4719 73.4889 53.7675 72.4534 53.9347L8.9394 64.2554C7.90384 64.4226 7.20157 65.4015 7.36821 66.4402C7.53485 67.4788 8.5109 68.1832 9.54645 68.016Z" fill="#FFD567" stroke="#333336" stroke-width="2"/><path d="M63.7877 8.43155L55.4572 43.2341C55.158 44.4843 55.9259 45.741 57.1724 46.0413L72.7452 49.7911C73.9917 50.0912 75.2448 49.3211 75.544 48.0709L83.8745 13.2683C84.1737 12.0182 83.4059 10.7614 82.1594 10.4612L66.5866 6.71134C65.3401 6.41119 64.087 7.18136 63.7877 8.43155Z" fill="#FFEA80" stroke="#333336" stroke-width="2"/><path d="M50.794 39.5113C51.8176 45.791 47.5682 51.7065 41.3073 52.7332C35.0463 53.7599 29.1484 49.4978 28.1248 43.2182C27.1012 36.9386 31.3505 31.0231 37.6115 29.9964C43.8723 28.9697 49.7702 33.2317 50.794 39.5113Z" fill="#FFD567" stroke="#333336" stroke-width="2"/><path d="M45.2026 40.0801C45.7561 43.4766 43.6077 46.6521 40.4118 47.1775 37.2158 47.7028 34.1746 45.3688 33.6211 41.9782M36.957 38.1895 37.207 39.7414M40.8262 37.5488 41.0762 39.1008" stroke="#333336" stroke-width="2" stroke-linecap="round"/><path d="M76.4619 30.3327C75.3371 33.8784 71.552 35.8423 68.0168 34.7082C64.4816 33.574 62.5236 29.7836 63.6544 26.2378C64.7852 22.6921 68.5643 20.7283 72.0996 21.8624C75.6347 22.9906 77.5927 26.7871 76.4619 30.3327Z" fill="#FFD567" stroke="#333336" stroke-width="1.5"/><path d="M73.3958 29.138C72.7887 31.0601 70.8248 32.1465 69.0215 31.5675 67.2181 30.9885 66.2421 28.9649 66.8551 27.0488M69.5961 25.9531 69.3164 26.8306M71.7797 26.6621 71.5 27.5396" stroke="#333336" stroke-width="1.5" stroke-linecap="round"/></svg>