<svg width="20" height="20" viewBox="0 0 20 20" fill="none" xmlns="http://www.w3.org/2000/svg">
<path d="M10.875 0V3.25H9.125V0H10.875Z" fill="black"/>
<path fill-rule="evenodd" clip-rule="evenodd" d="M10 5C7.239 5 5 7.239 5 10C5 12.761 7.239 15 10 15C12.761 15 15 12.761 15 10C15 7.239 12.761 5 10 5ZM10 6.75C11.792 6.75 13.25 8.208 13.25 10C13.25 11.792 11.792 13.25 10 13.25C8.208 13.25 6.75 11.792 6.75 10C6.75 8.208 8.208 6.75 10 6.75Z" fill="black"/>
<path d="M10.875 20V16.75H9.125V20H10.875Z" fill="black"/>
<path d="M3.25 10.875H0V9.125H3.25V10.875Z" fill="black"/>
<path d="M16.75 10.875H20V9.125H16.75V10.875Z" fill="black"/>
<path d="M3.54774 2.3103L5.84574 4.6083L4.6083 5.84574L2.3103 3.54774L3.54774 2.3103Z" fill="black"/>
<path d="M17.6897 16.4523L15.3917 14.1543L14.1543 15.3917L16.4523 17.6897L17.6897 16.4523Z" fill="black"/>
<path d="M5.84574 15.3917L3.54774 17.6897L2.3103 16.4523L4.6083 14.1543L5.84574 15.3917Z" fill="black"/>
<path d="M15.3917 5.84574L17.6897 3.54774L16.4523 2.3103L14.1543 4.6083L15.3917 5.84574Z" fill="black"/>
</svg>
