<svg width="16" height="16" viewBox="0 0 16 16" fill="none" xmlns="http://www.w3.org/2000/svg">
<path d="M3 3C3 1.89579 3.89579 1 5 1H14C15.1042 1 16 1.89579 16 3V10C16 11.1042 15.1042 12 14 12H5C3.89579 12 3 11.1042 3 10V8.75H4.5V10C4.5 10.2758 4.72421 10.5 5 10.5H14C14.2758 10.5 14.5 10.2758 14.5 10V3C14.5 2.72421 14.2758 2.5 14 2.5H5C4.72421 2.5 4.5 2.72421 4.5 3V4.25H3V3Z" fill="black"/>
<path d="M0 13V5.75H1.5V13C1.5 13.2758 1.72421 13.5 2 13.5H12V15H2C0.895786 15 0 14.1042 0 13Z" fill="black"/>
<path d="M3 7.25V5.75H7V4.39403C7 4.04403 7.423 3.86803 7.67 4.11603L9.776 6.22303C9.929 6.37603 9.929 6.62503 9.776 6.77803L7.67 8.88403C7.423 9.13103 7 8.95603 7 8.60603V7.25H3Z" fill="black"/>
</svg>
