<svg width="24" height="24" viewBox="0 0 24 24" fill="none" xmlns="http://www.w3.org/2000/svg">
<path d="M12.1714 3.23768L10.7799 4.62918L14.6028 8.45201L18.4668 8.53801C19.2298 8.55601 19.8808 9.00601 20.1648 9.71401C20.4498 10.423 20.2908 11.198 19.7508 11.738L16.363 15.1258L21.9994 20.7622L20.762 21.9997L15.1255 16.3632L11.7368 19.752C11.3748 20.114 10.9048 20.305 10.4218 20.305C10.1858 20.305 9.94577 20.26 9.71277 20.166C9.01477 19.887 8.55277 19.22 8.53577 18.468L8.45077 14.604L4.62837 10.7808L3.23744 12.1717L2 10.9342L10.934 2.00024L12.1714 3.23768Z" fill="black"/>
</svg>
