<svg width="24" height="24" viewBox="0 0 24 24" fill="none" xmlns="http://www.w3.org/2000/svg">
<path d="M2 10.9333L10.9335 1.99976L12.1716 3.23789L10.7807 4.62878L13.5742 7.42307L12.3372 8.66107L9.54283 5.86669L5.86698 9.54254L8.66227 12.337L7.42427 13.575L4.62898 10.7805L3.23813 12.1714L2 10.9333Z" fill="black"/>
<path fill-rule="evenodd" clip-rule="evenodd" d="M12.1632 19.328L15.1262 16.365L20.7611 21.9999L21.9992 20.7618L16.3644 15.1269L19.3302 12.161C19.9432 11.547 20.1232 10.666 19.8002 9.86003C19.4772 9.05403 18.7362 8.54403 17.8692 8.52403L17.0955 8.50688L21.6149 3.98774L20.3775 2.75027L14.6743 8.45321L14.6662 8.45303L13.3982 9.72103L13.4023 9.7251L9.72619 13.401L9.72222 13.397L8.45422 14.665L8.45439 14.6727L2.1145 21.0123L3.3519 22.2497L8.50806 17.0939L8.52522 17.868C8.54522 18.735 9.05622 19.474 9.86222 19.798C10.1272 19.904 10.3992 19.956 10.6682 19.956C11.2182 19.956 11.7512 19.739 12.1632 19.328ZM10.2209 15.3811L10.2752 17.829C10.2802 18.048 10.4262 18.14 10.5132 18.174C10.6022 18.21 10.7702 18.244 10.9242 18.09L18.0912 10.923C18.2462 10.769 18.2102 10.6 18.1752 10.512C18.1412 10.425 18.0492 10.279 17.8302 10.274L15.3826 10.2197L10.2209 15.3811Z" fill="black"/>
</svg>
