<svg width="24" height="24" viewBox="0 0 24 24" fill="none" xmlns="http://www.w3.org/2000/svg">
<path d="M12.34 8.66L13.57 7.42L10.78 4.63L12.17 3.24L10.93 2L2 10.93L3.24 12.17L4.63 10.78L7.42 13.58L12.34 8.66Z" fill="black"/>
<path d="M22 20.76L16.36 15.12L19.32 12.16C19.93 11.55 20.11 10.66 19.79 9.85999C19.47 9.05999 18.73 8.53999 17.86 8.51999L17.09 8.49999L21.61 3.97999L20.37 2.73999L9.71999 13.39L8.44999 14.65L2.10999 21L3.34999 22.24L8.49999 17.09L8.51999 17.86C8.53999 18.73 9.04998 19.47 9.85999 19.79C10.12 19.9 10.4 19.95 10.67 19.95C11.22 19.95 11.75 19.73 12.17 19.32L15.13 16.36L20.77 22L22.01 20.76H22Z" fill="black"/>
</svg>
