<svg width="17" height="17" viewBox="0 0 17 17" fill="none" xmlns="http://www.w3.org/2000/svg">
<path fill-rule="evenodd" clip-rule="evenodd" d="M14.8 8.60001C14.8 5.20001 12 2.40001 8.60001 2.40001C5.20001 2.40001 2.40001 5.20001 2.40001 8.60001C2.40001 12 5.20001 14.8 8.60001 14.8C12 14.8 14.8 12 14.8 8.60001ZM1.10001 8.60001C1.10001 4.50001 4.50001 1.10001 8.60001 1.10001C12.8 1.10001 16.1 4.50001 16.1 8.60001C16.1 12.7 12.7 16.1 8.60001 16.1C4.50001 16.1 1.10001 12.7 1.10001 8.60001ZM12.6 8.60001C12.6 8.30001 12.3 8.00001 12 8.00001H5.20001C4.90001 8.00001 4.60001 8.30001 4.60001 8.60001C4.60001 8.90001 4.90001 9.20001 5.20001 9.20001H12C12.3 9.20001 12.6 8.90001 12.6 8.60001Z" fill="black"/>
</svg>
