<svg width="16" height="16" viewBox="0 0 16 16" fill="none" xmlns="http://www.w3.org/2000/svg">
<path d="M15 6.578V12C15 12.5304 14.7893 13.0391 14.4142 13.4142C14.0391 13.7893 13.5304 14 13 14H3C2.46957 14 1.96086 13.7893 1.58579 13.4142C1.21071 13.0391 1 12.5304 1 12V4C1 3.46957 1.21071 2.96086 1.58579 2.58579C1.96086 2.21071 2.46957 2 3 2H10.422C10.9524 2.00011 11.461 2.2109 11.836 2.586L14.414 5.164C14.7891 5.53899 14.9999 6.04761 15 6.578ZM10 3.25H2.85L2.25 3.85V12.15L2.85 12.75H13.15L13.75 12.15V7H10.6L10 6.4V3.25Z" fill="black"/>
</svg>
