<svg width="20" height="20" viewBox="0 0 20 20" fill="none" xmlns="http://www.w3.org/2000/svg">
<path fill-rule="evenodd" clip-rule="evenodd" d="M3.27753 0.732531C4.25381 -0.243745 5.83684 -0.244609 6.81297 0.732531L19.744 13.6635C19.9081 13.8276 20.0002 14.0502 20.0002 14.2822V19.1252C20.0002 19.6085 19.6085 20.0002 19.1252 20.0002H14.2822C14.0502 20.0002 13.8276 19.9081 13.6635 19.744L0.732532 6.81297C-0.244177 5.83626 -0.244177 4.25424 0.732532 3.27753L3.27753 0.732531ZM4.51497 1.96997C4.80853 1.67641 5.28313 1.67711 5.57504 1.96948L7.34331 3.73775L3.73775 7.34331L1.96997 5.57553C1.67668 5.28224 1.67668 4.80826 1.96997 4.51497L4.51497 1.96997ZM4.97519 8.58075L14.6447 18.2502H18.2502V14.6447L8.58075 4.97519L4.97519 8.58075Z" fill="black"/>
</svg>
