<svg width="24" height="24" viewBox="0 0 24 24" fill="none" xmlns="http://www.w3.org/2000/svg">
<path d="M8 18.0003H4V16.2503H8V18.0003Z" fill="black"/>
<path d="M14 18.0003H10V16.2503H14V18.0003Z" fill="black"/>
<path d="M20 18.0003H16V16.2503H20V18.0003Z" fill="black"/>
<path d="M7.74707 6.98471C8.48038 5.45912 10.7406 5.78537 11.0977 7.38803L11.127 7.55306L11.3086 8.81088C11.4773 9.88962 11.6493 10.735 11.8203 11.3568C12.5558 9.45812 15.1413 9.08808 16.3516 10.7777L16.8584 11.4837C17.1203 11.8496 17.5501 12.0725 18.0137 12.0726H20V13.8226H18.0137C17.0553 13.8225 16.1496 13.3924 15.5508 12.6546L15.4355 12.5033L14.9297 11.7972C14.5396 11.2521 13.6741 11.3661 13.4424 12.013C13.2972 12.4188 13.1401 12.8162 12.9814 13.1224C12.9044 13.2711 12.8058 13.4387 12.6855 13.5814C12.6251 13.653 12.5358 13.7465 12.415 13.8265C12.2947 13.9062 12.0939 14.0037 11.833 13.9974C11.2072 13.9823 10.8465 13.5017 10.6807 13.2279C10.4835 12.9023 10.3221 12.4752 10.1816 11.9945C9.89706 11.0202 9.63605 9.60735 9.39258 7.78549L9.38867 7.76693C9.38806 7.7651 9.38701 7.76368 9.38672 7.76303C9.38279 7.7602 9.37099 7.75283 9.35059 7.75033C9.33612 7.74858 9.32628 7.75005 9.32129 7.75131C9.31964 7.75432 9.31701 7.75927 9.31445 7.76596L7.7832 11.7962C7.31786 13.0214 6.13508 13.8225 4.8252 13.8226H4V12.0726H4.8252C5.42089 12.0725 5.94368 11.7085 6.14648 11.1742L7.67871 7.14389L7.74707 6.98471Z" fill="black"/>
</svg>
