<svg width="24" height="24" viewBox="0 0 24 24" fill="none" xmlns="http://www.w3.org/2000/svg">
<path d="M17 8.405V7.5C17 7.268 16.908 7.045 16.744 6.881L12.119 2.256C11.955 2.092 11.732 2 11.5 2H4.5C3.121 2 2 3.121 2 4.5V18.5C2 19.879 3.121 21 4.5 21H14.5C15.879 21 17 19.879 17 18.5V17.531L16.561 17.969C16.219 18.311 15.765 18.499 15.281 18.499H15.25C15.25 18.912 14.913 19.249 14.5 19.249H4.5C4.087 19.249 3.75 18.912 3.75 18.499V4.499C3.75 4.086 4.087 3.749 4.5 3.749H10.5V7.5C10.5 8.052 10.948 8.5 11.5 8.5H15.25V10.155L17 8.405Z" fill="black"/>
<path d="M19.282 8.244C19.439 8.086 19.647 8 19.869 8C20.091 8 20.3 8.086 20.456 8.24L21.726 9.512C21.882 9.668 21.968 9.876 21.968 10.098C21.968 10.321 21.882 10.53 21.724 10.686L20.6744 11.7353L18.2326 9.29346L19.282 8.244Z" fill="black"/>
<path d="M17.5255 10.0006L13.08 14.446C13.022 14.504 12.989 14.583 12.989 14.665V16.689C12.989 16.86 13.128 16.999 13.299 16.999H15.281C15.363 16.999 15.442 16.966 15.5 16.908L19.9672 12.4423L17.5255 10.0006Z" fill="black"/>
<path d="M11.521 14.336C11.501 14.444 11.489 14.553 11.489 14.665V16.437C11.392 16.346 11.297 16.251 11.219 16.14L10.935 15.737C10.874 15.65 10.795 15.645 10.735 15.649C10.685 15.656 10.594 15.685 10.554 15.799L10.5529 15.8021C10.3481 16.3815 10.0938 17.101 9.423 17.101H9.398C8.632 17.083 8.247 16.392 7.908 14.246L7.37 15.681C7.073 16.471 6.308 17.001 5.464 17.001H5V15.501H5.464C5.687 15.501 5.888 15.361 5.966 15.153L6.827 12.855C7.033 12.304 7.563 11.978 8.149 12.045C8.739 12.113 9.187 12.554 9.264 13.142C9.352 13.812 9.436 14.314 9.51 14.69C9.776 14.408 10.132 14.219 10.53 14.164C10.878 14.117 11.219 14.185 11.521 14.336Z" fill="black"/>
</svg>
