<svg width="19" height="18" viewBox="0 0 19 18" fill="none" xmlns="http://www.w3.org/2000/svg">
<path d="M1.837 14.376L2.069 13.296C2.179 12.784 2.909 12.784 3.019 13.296L3.251 14.376C3.291 14.563 3.437 14.709 3.624 14.749L4.704 14.981C5.216 15.091 5.216 15.821 4.704 15.931L3.624 16.163C3.437 16.203 3.291 16.349 3.251 16.536L3.019 17.616C2.909 18.128 2.179 18.128 2.069 17.616L1.837 16.536C1.797 16.349 1.651 16.203 1.464 16.163L0.384 15.931C-0.128 15.821 -0.128 15.091 0.384 14.981L1.464 14.749C1.651 14.709 1.797 14.563 1.837 14.376Z" fill="black"/>
<path d="M1.837 1.464L2.069 0.384C2.179 -0.128 2.909 -0.128 3.019 0.384L3.251 1.464C3.291 1.651 3.437 1.797 3.624 1.837L4.704 2.069C5.216 2.179 5.216 2.909 4.704 3.019L3.624 3.251C3.437 3.291 3.291 3.437 3.251 3.624L3.019 4.704C2.909 5.216 2.179 5.216 2.069 4.704L1.837 3.624C1.797 3.437 1.651 3.291 1.464 3.251L0.384 3.019C-0.128 2.909 -0.128 2.179 0.384 2.069L1.464 1.837C1.651 1.797 1.797 1.651 1.837 1.464Z" fill="black"/>
<path fill-rule="evenodd" clip-rule="evenodd" d="M11.16 3.98108L10.126 6.6039C9.85104 7.30026 9.30075 7.85036 8.60588 8.12625L5.98108 9.16096C5.67288 9.2827 5.6727 9.71823 5.9809 9.83997L8.6039 10.874C9.30011 11.1489 9.8509 11.6994 10.1258 12.3956L11.16 15.0189C11.2817 15.3271 11.7172 15.3273 11.839 15.0191L12.873 12.3961C13.1479 11.6999 13.6984 11.1491 14.3946 10.8742L17.0169 9.84004C17.3253 9.71834 17.3253 9.28169 17.017 9.15999L14.395 8.12599C13.6988 7.85105 13.1481 7.30061 12.8732 6.60439L11.839 3.98108C11.7173 3.67288 11.2817 3.67287 11.16 3.98108ZM9.53204 3.33892C10.2364 1.55336 12.7626 1.55336 13.467 3.33892L14.5008 5.96161C14.598 6.20716 14.7918 6.40117 15.0374 6.49816L17.659 7.53201C19.4446 8.23634 19.4446 10.7636 17.6591 11.468L15.0374 12.5018C14.7917 12.5989 14.598 12.7925 14.5009 13.0382L13.467 15.6609C12.7627 17.4465 10.2364 17.4466 9.53204 15.6611L8.49816 13.0384C8.40117 12.7928 8.20765 12.5992 7.9621 12.502L5.3391 11.468C3.55354 10.7637 3.55336 8.23737 5.33892 7.53304L7.96012 6.49975C8.20678 6.40155 8.40118 6.20706 8.49809 5.96178L9.53204 3.33892Z" fill="black"/>
</svg>
