<?xml version="1.0" encoding="UTF-8"?><svg id="Layer_2" xmlns="http://www.w3.org/2000/svg" width="479.797" height="284.699" xmlns:xlink="http://www.w3.org/1999/xlink" viewBox="0 0 479.797 284.699"><defs><clipPath id="clippath"><rect width="479.797" height="284.699" fill="none"/></clipPath><linearGradient id="linear-gradient" x1="232.8425" y1="-433.6425" x2="232.8425" y2="-469.6295" gradientTransform="translate(0 -226.7339) scale(1 -1)" gradientUnits="userSpaceOnUse"><stop offset="0" stop-color="#fff"/><stop offset="1" stop-color="#fff" stop-opacity="0"/></linearGradient><linearGradient id="linear-gradient-2" x1="246.2535" y1="-445.409" x2="246.2535" y2="-504.9331" xlink:href="#linear-gradient"/></defs><g id="Layer_1-2"><g opacity=".4"><path d="M239.914,45.3715c.328,5.2497,12.714,6.5621,18.866,6.5621h114.427c20.917,0,24.608-14.3546,11.073-15.9952-13.534-1.6406-24.608-17.2255-50.446-17.6356-25.838-.4102-48.806,17.6357-67.672,19.2762-18.866,1.6405-26.658,1.2304-26.248,7.7925Z" fill="#fff"/><path d="M399.576,101.5596c0,5.25,6.289,6.015,9.433,5.742,10.8-.41,35.435-1.231,47.575-1.231,15.175,0,15.585-.761,18.867-1.64,3.281-.879,5.331-11.4838-10.254-11.4838s-18.456-10.6634-29.939-10.6634-18.456,7.7925-22.968,11.8938c-4.511,4.1014-12.714.8203-12.714,7.3824Z" fill="#fff"/><path d="M85.0325,45.3716h47.5755c5.058,0,15.913-1.0663,18.866-5.3317,3.691-5.3317-5.742-9.8432-15.995-9.8432s-8.613-8.6128-23.378-8.6128-19.6861,7.7925-23.7874,11.4837c-4.1013,3.6912-13.1243.8203-13.1243,6.9723,0,4.9216,6.5622,5.6051,9.8432,5.3317Z" fill="#fff"/></g><g clip-path="url(#clippath)"><path d="M25.537,206.3526c-18.3336,7.785-46.3017,10.349-57.994,10.658v73.053H498.142v-79.772c-17.96.37-49.576-11.121-63.139-16.913-67.114-23.632-113.182-6.951-136.333,4.633-23.15,11.585-82.548,25.254-148.492,4.402-65.9453-20.851-101.7239-5.792-124.641,3.939Z" fill="url(#linear-gradient)" fill-opacity=".64" isolation="isolate" opacity=".6"/><path d="M51.4754,226.3446c-22.2336-2.86-57.219,9.134-71.9324,15.488v45.989h533.421v-69.102c-2.335,4.686-20.412,15.869-74.034,23.113-67.028,9.055-88.514-24.543-138.961-23.113-50.446,1.429-94.119,55.044-141.295,55.044-36.834,0-63.5253-41.803-107.1986-47.419Z" fill="url(#linear-gradient-2)" isolation="isolate" opacity=".6"/></g></g></svg>
