<svg xmlns="http://www.w3.org/2000/svg" xmlns:xlink="http://www.w3.org/1999/xlink" viewBox="0 0 166.664 193.981">
  <defs>
    <linearGradient id="e" x1="79.803" y1="201.324" x2="85.559" y2="28.639" gradientTransform="matrix(1 0 0 -1 0 196.91)" gradientUnits="userSpaceOnUse">
      <stop offset=".008" stop-color="#f60"/>
      <stop offset=".115" stop-color="#ff6a02"/>
      <stop offset=".229" stop-color="#ff770a"/>
      <stop offset=".348" stop-color="#ff8d15"/>
      <stop offset=".468" stop-color="#ffab26"/>
      <stop offset=".487" stop-color="#ffb029"/>
      <stop offset=".555" stop-color="#ffac27"/>
      <stop offset=".616" stop-color="#ffa121"/>
      <stop offset=".675" stop-color="#ff8f17"/>
      <stop offset=".732" stop-color="#ff7509"/>
      <stop offset=".76" stop-color="#f60"/>
      <stop offset=".909" stop-color="#fb2872"/>
    </linearGradient>
    <linearGradient id="a" x1="7713.32" y1="420.912" x2="7700.827" y2="471.779" gradientTransform="rotate(172.218 3923.845 -27.158)" gradientUnits="userSpaceOnUse">
      <stop offset="0" stop-color="#f60" stop-opacity="0"/>
      <stop offset=".044" stop-color="#f60" stop-opacity=".102"/>
      <stop offset=".435" stop-color="#f60"/>
      <stop offset=".718" stop-color="#fd4838"/>
      <stop offset=".995" stop-color="#fb2872"/>
    </linearGradient>
    <linearGradient id="f" x1="8165.355" y1="433.043" x2="8152.862" y2="483.911" gradientTransform="rotate(-5.674 8915.819 81726.484)scale(1 -1)" xlink:href="#a"/>
    <linearGradient id="b" x1="81.271" y1="171.289" x2="89.191" y2="-66.323" gradientTransform="matrix(1 0 0 -1 0 196.91)" gradientUnits="userSpaceOnUse">
      <stop offset="0" stop-color="#f60"/>
      <stop offset=".326" stop-color="#ffb029"/>
      <stop offset=".455" stop-color="#ff9319"/>
      <stop offset=".625" stop-color="#f60"/>
      <stop offset=".998" stop-color="#fb2872"/>
    </linearGradient>
    <linearGradient id="c" x1="83.461" y1="113.862" x2="77.684" y2="-81.74" gradientTransform="matrix(1 0 0 -1 0 196.91)" gradientUnits="userSpaceOnUse">
      <stop offset="0" stop-color="#ffeb49"/>
      <stop offset=".426" stop-color="#ffac27" stop-opacity=".574"/>
      <stop offset=".811" stop-color="#ff7a0b" stop-opacity=".189"/>
      <stop offset="1" stop-color="#f60" stop-opacity="0"/>
    </linearGradient>
    <linearGradient id="g" x1="83.169" y1="171.351" x2="91.09" y2="-66.259" xlink:href="#b"/>
    <linearGradient id="h" x1="91.699" y1="113.62" x2="85.922" y2="-81.983" xlink:href="#c"/>
    <linearGradient id="i" x1="88.265" y1="15.791" x2="93.652" y2="-102.728" gradientTransform="matrix(1 0 0 -1 0 196.91)" gradientUnits="userSpaceOnUse">
      <stop offset="0" stop-color="#ffc635"/>
      <stop offset=".184" stop-color="#ffbb2f" stop-opacity=".816"/>
      <stop offset=".507" stop-color="#ff9e1f" stop-opacity=".493"/>
      <stop offset=".927" stop-color="#ff6f05" stop-opacity=".073"/>
      <stop offset="1" stop-color="#f60" stop-opacity="0"/>
    </linearGradient>
    <linearGradient id="d" x1="183.832" y1="338.978" x2="188.618" y2="313.857" gradientTransform="rotate(-6.735 3501.336 614.26)scale(1 -1)" gradientUnits="userSpaceOnUse">
      <stop offset=".157" stop-color="#a030b9"/>
      <stop offset=".875" stop-color="#00073a"/>
    </linearGradient>
    <linearGradient id="j" x1="140.303" y1="337.847" x2="143.605" y2="315.935" xlink:href="#d"/>
  </defs>
  <path d="M160.168 67.08c-2.3-4.316-12.718-1.092-19.896-5.781-2.388-1.56-4.544-5.648-6.324-9.632-1.36-3.04-2.498-6.02-3.352-7.768-3.804-7.796-5.35-13.841-10.956-25.293C113.95 6.982 109.49.279 104.002.006c-4.73-.236-9.9 7.092-14.42 20.15-3.516 10.158-4.35 12.495-6.85 17.1l-.018.031c-.142.263-7.07 1.533-10.204 2.052-.613.102-1.208-.393-1.925-1.38-1.903-2.625-4.691-8.837-11.158-17.413-7.652-10.149-13.11-14.659-18.62-12.795-4.65 1.572-8.13 16.828-9.997 28.881-1.545 9.983-1.563 10.94-2.27 14.606-.644 3.333-1.362 7.41-2.314 11.405-1.382 5.803-3.265 11.435-6.17 14.362-6.234 6.278-13.821 4.792-15.11 9.503-1.493 5.456 3.497 3.345 2.986 4.547-.084.198-.245.372-.44.538 10.565-3.622 21.474-2.606 30.37.976 9.873 3.975 16.364 10.467 19.52 9.395.072-.073.132-.154.208-.225 2.403-2.262 4.214-4.524 5.846-6.635 3.194-4.554 5.388-8.447 11.198-10.103 2.68-.764 5.284-.735 7.852-.179 3.403.633 6.664 2.295 9.978 4.34 3.742 2.228 7.513 4.884 11.436 7.151.4.232.763.495 1.105.772 3.143-.2 12.62-9.81 22.003-15.43 9.726-5.825 19.924-8.51 31.44-9.26-1.644-1.114 3.193-2.55 1.72-5.316" fill="url(#e)"/>
  <path d="M109.013 41.043c9.909 4.317 20.062 8.645 24.935 10.623-1.36-3.04-2.498-6.02-3.352-7.767-3.804-7.797-5.35-13.842-10.956-25.293C113.95 6.98 109.49.278 104.002.005c-4.73-.236-9.9 7.092-14.42 20.15-3.516 10.158-4.35 12.495-6.85 17.1 5.073-.506 15.76-.798 26.28 3.786" fill="url(#a)"/>
  <path d="M70.585 37.959c-1.903-2.625-4.691-8.837-11.158-17.412-7.652-10.15-13.11-14.66-18.62-12.795-4.65 1.572-8.13 16.828-9.997 28.88-1.545 9.984-1.563 10.94-2.27 14.607-.644 3.333-1.362 7.409-2.314 11.405 4.662-3.376 12.497-9.192 20.15-14.958 8.89-6.697 19-8.968 24.209-9.727" fill="url(#f)"/>
  <path d="M105.005 97.085c7.095 5.735 1.707 20.687-15.851 24.665-3.175.719-6.165 1.032-8.957 1.027-18.95.1-28.715-14.688-22.814-20.811-3.157 1.07-9.648-5.421-19.52-9.395-8.897-3.583-19.806-4.6-30.372-.977C5.7 93.108-.187 93.54.005 97.708c.174 3.79 7.016 1.515 7.187 3.236.234 2.353-4.714 3.89-4.437 6.24.696 5.907 15.31 3.643 25.958 13.352 7.876 7.18 8.678 20.034 6.855 37.826-1.317 12.86-4.672 35.619-4.672 35.619h42.988c-2.785-28.16 11.873-39.451 11.873-39.451s19.893 10.027 17.746 39.45h35.946s-4.374-31.85-5.98-41.05c-3.183-18.255 2.953-41.255 11.895-49.93 10.347-10.036 16.492-8.757 16.475-13.48-.01-2.231-3.617-2.23-3.792-4.453-.274-3.488 9.327-4.673 8.575-8.09-.893-4.055-5.86-3.665-7.567-4.28a2.7 2.7 0 0 1-.606-.3c-11.517.749-21.715 3.434-31.44 9.26-9.383 5.618-18.861 15.23-22.004 15.429" fill="url(#b)"/>
  <path d="M105.005 97.085c7.095 5.735 1.707 20.687-15.851 24.665-3.175.719-6.165 1.032-8.957 1.027-18.95.1-28.715-14.688-22.814-20.811-3.157 1.07-9.648-5.421-19.52-9.395-8.897-3.583-19.806-4.6-30.372-.977C5.7 93.108-.187 93.54.005 97.708c.174 3.79 7.016 1.515 7.187 3.236.234 2.353-4.714 3.89-4.437 6.24.696 5.907 15.31 3.643 25.958 13.352 7.876 7.18 8.678 20.034 6.855 37.826-1.317 12.86-4.672 35.619-4.672 35.619h42.988c-2.785-28.16 11.873-39.451 11.873-39.451s19.893 10.027 17.746 39.45h35.946s-4.374-31.85-5.98-41.05c-3.183-18.255 2.953-41.255 11.895-49.93 10.347-10.036 16.492-8.757 16.475-13.48-.01-2.231-3.617-2.23-3.792-4.453-.274-3.488 9.327-4.673 8.575-8.09-.893-4.055-5.86-3.665-7.567-4.28a2.7 2.7 0 0 1-.606-.3c-11.517.749-21.715 3.434-31.44 9.26-9.383 5.618-18.861 15.23-22.004 15.429" fill="url(#c)" opacity=".6"/>
  <path d="M85.757 154.53s-14.658 11.29-11.873 39.45h29.619c2.147-29.422-17.746-39.45-17.746-39.45" fill="url(#g)"/>
  <path d="M85.757 154.53s-14.658 11.29-11.873 39.45h29.619c2.147-29.422-17.746-39.45-17.746-39.45" fill="url(#h)" opacity=".6"/>
  <path d="M85.757 154.53s-14.658 11.29-11.873 39.45h29.619c2.147-29.422-17.746-39.45-17.746-39.45" fill="url(#i)" opacity=".6"/>
  <path d="M82.487 84.824c3.36.727 6.657 2.362 9.977 4.34-3.313-2.046-6.575-3.708-9.978-4.34" fill="#ffcf34"/>
  <path d="M105.005 97.085a8.6 8.6 0 0 0-1.105-.77c-3.923-2.267-7.694-4.923-11.436-7.152-3.32-1.977-6.618-3.612-9.978-4.34-2.567-.556-5.172-.585-7.852.18-5.81 1.655-8.004 5.548-11.198 10.102-1.632 2.112-3.442 4.373-5.846 6.635-.075.072-.135.152-.207.226-5.9 6.124 3.865 20.912 22.814 20.81 2.792.007 5.783-.307 8.957-1.026 17.558-3.978 22.946-18.93 15.85-24.664M77.15 99.055c-4.866.518-7.008-3.344-6.454-5.37.449-1.64 2.419-3.56 6.377-3.986 3.5-.377 5.5 1.233 6.097 2.709.842 2.078-1.396 6.155-6.02 6.647" fill="#ffc635"/>
  <path d="M83.17 92.407c-.597-1.477-2.597-3.087-6.097-2.71-3.958.427-5.928 2.346-6.377 3.987-.554 2.025 1.588 5.887 6.454 5.37 4.624-.493 6.862-4.57 6.02-6.648" fill="#00073a"/>
  <path d="M100.394 81.462c4.473-.618 7.17-1.496 6.519-8.45-.83-8.854-4.243-11.541-8.961-10.84-4.942.735-5.333 5.18-4.624 12.42.52 5.305 4.728 7.193 7.066 6.87m1.27-14.873a2.21 2.21 0 1 1 .519 4.387 2.209 2.209 0 0 1-.518-4.386" fill="url(#d)"/>
  <path d="M102.183 70.977a2.209 2.209 0 1 0-.442-4.396 2.209 2.209 0 0 0 .442 4.396" fill="#fff"/>
  <path d="M56.074 86.75c4.615-.637 7.253-1.682 6.933-7.08-.51-8.627-2.795-13.586-9.086-12.36-3.965.772-5.21 5.44-4.813 11.433.487 7.382 4.553 8.34 6.966 8.008m1.504-14.989a2.15 2.15 0 1 1 .566 4.263 2.15 2.15 0 0 1-.566-4.263" fill="url(#j)"/>
  <path d="M58.08 76.034a2.15 2.15 0 1 0-.502-4.273 2.15 2.15 0 1 0 .503 4.273" fill="#fff"/>
</svg>
