<svg xmlns="http://www.w3.org/2000/svg" width="1899" height="861" fill="none" viewBox="-50 -65 1899 861"><path fill="url(#a)" d="M1578.37 441.443c-5.24-27.538-55.58-41.464-80.97-72.289-14.89-18.08-13.08-73.941-13.86-94.864-.02-.318-.03-.625-.04-.941-1.22-31.771-3.86-57.05-10.39-115.488-6.2-55.395-21.83-100.274-45.34-110.407-21.82-9.408-52.49 16.856-94.9 65.268-25.09 28.644-31.36 37.136-46.26 56.622-1.64 2.142-2.65 4.166-4.1 5.813-2.32 2.638-5.78 4.305-14.88 3.906-2.01-.087-3.68-.393-5.09-.939-11.08-4.288-5.61-24.264-13.6-84.826-7.75-58.695-22.56-93.461-49.65-93.297-23.53.142-68.05 48.289-103.26 92.874-29.16 36.925-31.43 40.762-42.71 54.003-13.16 15.446-35.42 44.807-57.756 71.466-20.346 24.275-40.76 46.309-54.433 53.531-36.437 19.244-57.302 8.128-69.559 27.29-10.974 17.156 15.97 17.661 12.028 22.295-.525.616-1.263 1.088-2.09 1.504 61.395 12.421 88.611 77.429 114.102 63.81 6.998-14.362 15.388-23.955 25.608-29.726 14.6-8.239 32.91-8.797 56.23-4.557 34.64 6.299 75.93 37.912 107.8 75.565 3.51 4.159 6.95 8.372 10.22 12.652 1.46 1.918 2.54 3.882 3.39 5.868 9.72 11.457 14.46 14.08 22.84 11.697 110.59-31.482 199.23-37.586 340.18-.659.57-4.283 18.9-3.561 16.49-16.171m-304.12-89.931c-8.22 31.74-25.78 38.262-39.36 33.736-10.08-3.358-26.2-15.426-18.43-46.739 4.3-17.306 6.8-25.68 11.11-27.328 2.58-.988 8.88 3.315 14.56 5.976 17.55 8.214 29.13 13.069 33.98 18.297 2.44 2.624-.65 11.352-1.86 16.058"/><path fill="url(#b)" d="M1311.96 351.883s-69.16-36.79-92.61-47.052c-23.9-10.456-40.99-22.514-52.28-29.127-27.64-16.182-2.37-72.992-58.51-90.143-53.77-16.43-189.196 63.784-103.56 155.866 85.64 92.083 258.98 106.431 290.29 76.964s17.59-62.825 16.67-66.508" opacity=".7"/><path fill="url(#c)" d="M1032.82 213.716c24.69-24.691 60.27-43.362 92.38-23.944 32.12 19.418 32.16 62.916 26.19 83.082-5.98 20.165-18.67 55.131-26.89 63.347-8.22 8.215-61.49-18.921-90.62-39.832s-45.126-38.589-1.06-82.653" opacity=".7"/><path fill="url(#d)" d="M882.836 795.712c-1.148-16.482-3.223-33.494-6.345-51.372-22.837-130.771-89.758-236.581-183.962-312.354-63.273-50.893-111.799-66.728-111.799-66.728s4.853 6.333 11.06 19.932c4.829 10.579 5.312 17.35 5.312 17.35s-19.309-9.43-26.983-12.692c-164.419-69.904-307.472-32.201-418.724 21.95C55.223 458.61 0 387.728 0 387.728s.31 170.88 139.078 222.482c123.906 46.075 248.47 93.401 314.686 185.502z"/><path fill="url(#e)" d="M1077.84 184.741c15.52-4.788 31.84-4.353 47.36 5.031 1.72 1.037 3.29 2.174 4.83 3.34 49.62-8.982 111.71-13.611 132.51-14.988-11.08-4.288-5.61-24.264-13.61-84.826-7.74-58.695-22.55-93.461-49.64-93.297-23.53.142-68.05 48.289-103.26 92.874-29.17 36.925-31.43 40.762-42.71 54.003-13.16 15.446-35.42 44.807-57.759 71.466l14.349-.559c19.79-17.37 45.47-29.235 67.93-33.044"/><path fill="url(#f)" d="M1483.5 273.351c-1.22-31.771-3.86-57.05-10.39-115.487-6.2-55.396-21.84-100.274-45.34-110.408-21.82-9.408-52.49 16.856-94.9 65.269-25.09 28.643-31.37 37.135-46.27 56.621-1.63 2.143-2.64 4.166-4.09 5.813 15.14 5.794 48.64 18.708 82.12 32.215 53.08 21.42 97.54 50.761 118.87 65.977"/><path fill="url(#g)" d="M1462.07 561.624c28-17.682 78.91 5.547 91.98-17.167 6.84-11.88-13.75-19.118-10.67-29.041 3.59-11.545 46.71 7.166 47.45-16.933.59-19.334-19.04-31.548-25.77-36.657-2.46-1.87-3.33-3.184-3.19-4.216-140.94-36.926-229.59-30.823-340.18.659-8.37 2.383-13.12-.24-22.83-11.697 15.74 36.568-67.97 82.978-120.1 71.58-93.982-20.544-103.598-86.985-84.365-128.947.391-.854.811-1.611 1.212-2.434-25.491 13.618-52.707-51.389-114.102-63.81-9.54 4.793-37.357-2.14-42.399 17.046-4.493 17.095 29.086 16.491 27.454 24.379-2.232 10.786-26.365 10.747-28.399 21.573-5.115 27.23 6.925 4.157 88.508 95.086 43.462 48.439 91.111 143.67 102.261 212.825 4.33 26.858 11.91 65.4 15.42 101.841h75.74c4.25-78.422 52.94-118.598 52.94-118.598s58.09 33.233 80.17 118.598h254.04c-9.97-41.168-25.93-73.744-40.33-104.464-24.63-52.54-53.91-98.645-4.84-129.623"/><path fill="url(#h)" d="M1462.07 561.624c28-17.682 78.91 5.547 91.98-17.167 6.84-11.88-13.75-19.118-10.67-29.041 3.59-11.545 46.71 7.166 47.45-16.933.59-19.334-19.04-31.548-25.77-36.657-2.46-1.87-3.33-3.184-3.19-4.216-140.94-36.926-229.59-30.823-340.18.659-8.37 2.383-13.12-.24-22.83-11.697 15.74 36.568-67.97 82.978-120.1 71.58-93.982-20.544-103.598-86.985-84.365-128.947.391-.854.811-1.611 1.212-2.434-25.491 13.618-52.707-51.389-114.102-63.81-9.54 4.793-37.357-2.14-42.399 17.046-4.493 17.095 29.086 16.491 27.454 24.379-2.232 10.786-26.365 10.747-28.399 21.573-5.115 27.23 6.925 4.157 88.508 95.086 43.462 48.439 91.111 143.67 102.261 212.825 4.33 26.858 11.91 65.4 15.42 101.841h75.74c4.25-78.422 52.94-118.598 52.94-118.598s58.09 33.233 80.17 118.598h254.04c-9.97-41.168-25.93-73.744-40.33-104.464-24.63-52.54-53.91-98.645-4.84-129.623" opacity=".6"/><path fill="#ffc635" d="M1185.24 428.055c-31.86-37.653-73.15-69.266-107.79-75.565-23.33-4.24-41.64-3.682-56.24 4.557-10.22 5.77-18.61 15.364-25.602 29.726-.401.823-.82 1.58-1.212 2.434-19.233 41.962-9.616 108.403 84.364 128.947 52.13 11.398 135.84-35.012 120.1-71.58-.86-1.985-1.93-3.95-3.39-5.867-3.27-4.281-6.71-8.493-10.23-12.652m-123.96-70.564c16.34 1.339 24.08 10.456 25.52 17.73 2.03 10.245-11.78 26.936-33.37 25.137-22.71-1.893-29.13-21.438-24.82-30.214 3.49-7.117 14.18-14.167 32.67-12.653"/><path fill="#00073a" d="M1053.42 400.358c21.59 1.8 35.4-14.892 33.37-25.137-1.44-7.274-9.18-16.391-25.52-17.729-18.49-1.514-29.18 5.536-32.67 12.652-4.31 8.776 2.11 28.322 24.82 30.214"/><path fill="url(#i)" d="M1234.88 385.248c13.58 4.526 31.14-1.995 39.35-33.736 1.22-4.706 4.31-13.434 1.87-16.059-4.85-5.227-16.43-10.082-33.98-18.296-5.69-2.661-11.98-6.964-14.56-5.976-4.32 1.649-6.81 10.022-11.11 27.328-7.77 31.313 8.35 43.381 18.43 46.739m-16.56-35.406a10.27 10.27 0 0 1 11.99-8.194c5.57 1.046 9.24 6.413 8.19 11.986a10.267 10.267 0 0 1-11.99 8.194c-5.57-1.046-9.24-6.413-8.19-11.986"/><path fill="url(#j)" d="M1234.88 385.248c13.58 4.526 31.14-1.995 39.35-33.736 1.22-4.706 4.31-13.434 1.87-16.059-4.85-5.227-16.43-10.082-33.98-18.296-5.69-2.661-11.98-6.964-14.56-5.976-4.32 1.649-6.81 10.022-11.11 27.328-7.77 31.313 8.35 43.381 18.43 46.739m-16.56-35.406a10.27 10.27 0 0 1 11.99-8.194c5.57 1.046 9.24 6.413 8.19 11.986a10.267 10.267 0 0 1-11.99 8.194c-5.57-1.046-9.24-6.413-8.19-11.986" opacity=".7"/><path fill="url(#k)" d="M1234.88 385.248c13.58 4.526 31.14-1.995 39.35-33.736 1.22-4.706 4.31-13.434 1.87-16.059-4.85-5.227-16.43-10.082-33.98-18.296-5.69-2.661-11.98-6.964-14.56-5.976-4.32 1.649-6.81 10.022-11.11 27.328-7.77 31.313 8.35 43.381 18.43 46.739m-16.56-35.406a10.27 10.27 0 0 1 11.99-8.194c5.57 1.046 9.24 6.413 8.19 11.986a10.267 10.267 0 0 1-11.99 8.194c-5.57-1.046-9.24-6.413-8.19-11.986"/><path fill="#fff" d="M1238.5 353.633c1.05-5.573-2.62-10.94-8.19-11.986s-10.94 2.622-11.99 8.194 2.62 10.94 8.2 11.987c5.57 1.047 10.94-2.621 11.98-8.195"/><path fill="url(#l)" d="M679.226 500.567C551.875 409.345 467.394 397.45 467.669 397.199c0 0 16.616 12.87 36.28 29.525 15.413 13.054 23.739 24.671 26.36 28.636-9.398-4.382-54.164-17.753-97.482-26.401-58.253-11.629-107.672-11.227-107.672-11.227s56.691 20.676 102.635 45.486c76.573 41.352 160.33 96.708 194.798 149.974 27.78 42.931 49.548 102.355 104.539 84.374 54.99-17.98 45.116-108.643-47.901-196.999"/><path fill="#ffb029" d="M1173.03 677.117s-48.69 40.176-52.94 118.598h133.11c-22.08-85.365-80.17-118.598-80.17-118.598"/><path fill="#fff" d="M1047.17 281.707c-5.25-1.445-10.68 1.637-12.13 6.889-1.45 5.251 1.64 10.679 6.89 12.125 5.25 1.447 10.68-1.637 12.12-6.887 1.45-5.251-1.63-10.681-6.88-12.127"/><path fill="url(#m)" d="M1068.86 233.454c-16.26-.554-29.19 17.571-38.08 43.842-1.85 5.46-2.86 10.22-3.23 14.392-1.63 18.527 9.5 25.239 17.5 27.886 4.81 1.591 13.94 3.432 23.21-1.891 7.09-4.075 14.26-12.339 19.64-28.163 11.78-34.692 8.12-55.142-19.04-56.066m-33.82 55.14c1.44-5.251 6.87-8.334 12.12-6.888s8.34 6.875 6.89 12.126c-1.44 5.25-6.87 8.334-12.12 6.888-5.25-1.447-8.34-6.874-6.89-12.126"/><defs><linearGradient id="a" x1="1221.47" x2="1228.79" y1="98.671" y2="983.806" gradientUnits="userSpaceOnUse"><stop stop-color="#fe5b15"/><stop offset=".075" stop-color="#fe6f0e"/><stop offset=".213" stop-color="#ff9004"/><stop offset=".289" stop-color="#ff9c00"/><stop offset=".519" stop-color="#f60"/><stop offset=".856" stop-color="#fb2872"/></linearGradient><linearGradient id="d" x1="305.291" x2="633.806" y1="246.14" y2="1058.3" gradientUnits="userSpaceOnUse"><stop stop-color="#ffeb49"/><stop offset=".323" stop-color="#ff9c1e"/><stop offset=".559" stop-color="#f60"/><stop offset=".742" stop-color="#fd4935"/><stop offset=".913" stop-color="#fc3161"/><stop offset="1" stop-color="#fb2872"/></linearGradient><linearGradient id="e" x1="1138.23" x2="1199.97" y1="165.058" y2="-58.001" gradientUnits="userSpaceOnUse"><stop stop-color="#f60" stop-opacity="0"/><stop offset=".022" stop-color="#f60" stop-opacity=".102"/><stop offset=".217" stop-color="#f60"/><stop offset=".611" stop-color="#fd4838"/><stop offset=".995" stop-color="#fb2872"/></linearGradient><linearGradient id="f" x1="1390" x2="1465.68" y1="206.581" y2="15.387" gradientUnits="userSpaceOnUse"><stop stop-color="#f60" stop-opacity="0"/><stop offset=".042" stop-color="#f60" stop-opacity=".102"/><stop offset=".405" stop-color="#f60"/><stop offset=".706" stop-color="#fd4838"/><stop offset="1" stop-color="#fb2872"/></linearGradient><linearGradient id="g" x1="1211.21" x2="1221.59" y1="108.998" y2="1364.84" gradientUnits="userSpaceOnUse"><stop stop-color="#f60"/><stop offset=".207" stop-color="#ff9c00"/><stop offset=".519" stop-color="#f60"/><stop offset=".856" stop-color="#fb2872"/></linearGradient><linearGradient id="h" x1="1224.99" x2="1114.81" y1="350.638" y2="1106.14" gradientUnits="userSpaceOnUse"><stop offset=".151" stop-color="#ffeb49"/><stop offset=".292" stop-color="#ffd03a" stop-opacity=".834"/><stop offset=".623" stop-color="#ff971b" stop-opacity=".444"/><stop offset=".869" stop-color="#ff7407" stop-opacity=".154"/><stop offset="1" stop-color="#f60" stop-opacity="0"/></linearGradient><linearGradient id="i" x1="1243.74" x2="1254.12" y1="108.732" y2="1364.57" gradientUnits="userSpaceOnUse"><stop stop-color="#fe5b15"/><stop offset=".207" stop-color="#ff9c00"/><stop offset=".519" stop-color="#f60"/><stop offset=".856" stop-color="#fb2872"/></linearGradient><linearGradient id="k" x1="1245.63" x2="1245.88" y1="286.813" y2="385.603" gradientUnits="userSpaceOnUse"><stop offset=".157" stop-color="#a030b9"/><stop offset=".875" stop-color="#00073a"/></linearGradient><linearGradient id="l" x1="328.483" x2="838.431" y1="399.055" y2="680.68" gradientUnits="userSpaceOnUse"><stop stop-color="#ffeb49"/><stop offset=".549" stop-color="#ff9419" stop-opacity=".368"/><stop offset=".869" stop-color="#f60" stop-opacity="0"/></linearGradient><linearGradient id="m" x1="1051.13" x2="1066.46" y1="212.316" y2="314.027" gradientUnits="userSpaceOnUse"><stop offset=".157" stop-color="#a030b9"/><stop offset=".875" stop-color="#00073a"/></linearGradient><radialGradient id="b" cx="0" cy="0" r="1" gradientTransform="matrix(131.091 0 0 164.886 1264.8 220.245)" gradientUnits="userSpaceOnUse"><stop stop-color="#d81f60" stop-opacity=".5"/><stop offset=".817" stop-color="#d81f60" stop-opacity=".051"/><stop offset=".91" stop-color="#d81f60" stop-opacity="0"/></radialGradient><radialGradient id="c" cx="0" cy="0" r="1" gradientTransform="translate(1077.33 309.68)scale(130.409)" gradientUnits="userSpaceOnUse"><stop offset=".628" stop-color="#d81f60" stop-opacity="0"/><stop offset=".986" stop-color="#d81f60" stop-opacity=".481"/><stop offset="1" stop-color="#d81f60" stop-opacity=".5"/></radialGradient><radialGradient id="j" cx="0" cy="0" r="1" gradientTransform="matrix(131.091 0 0 164.886 1264.79 220.246)" gradientUnits="userSpaceOnUse"><stop stop-color="#d81f60" stop-opacity=".5"/><stop offset=".817" stop-color="#d81f60" stop-opacity=".051"/><stop offset=".91" stop-color="#d81f60" stop-opacity="0"/></radialGradient></defs></svg>
