<svg width="416" height="210" viewBox="0 0 416 210" fill="none" xmlns="http://www.w3.org/2000/svg">
<path d="M414.965 188.999C413.955 188.542 412.29 189.335 408.228 189.227C402.524 189.071 391.195 186.246 388.407 182.676C388.118 182.303 388.569 182.117 390.522 180.813C395.643 177.399 400.769 175.969 405.132 175.32C408.029 174.893 410.295 175.025 412.867 173.655C414.364 172.862 415.145 171.906 415.319 171.335C415.47 170.83 415.596 170.271 415.043 169.851C414.37 169.334 412.236 168.865 410.385 167.765C408.408 166.593 407.272 165.193 405.114 163.282C401.941 160.463 397.331 160.637 395.673 159.123C393.623 157.254 386.94 151.905 384.548 153.281C384.416 153.359 384.314 153.485 384.242 153.66C383.388 155.601 385.624 161.274 385.215 162.422C385.137 162.639 384.999 162.807 384.795 162.945C383.172 164.057 379.031 166.834 376.543 168.108C375.479 168.655 373.466 169.027 370.966 169.268C365.49 169.785 357.659 169.622 352.419 169.045C352.419 169.045 352.419 169.045 352.413 169.045C344.125 168.108 340.026 166.395 333.89 166.317C320.049 166.137 320.506 165.77 310.204 163.138C309.525 162.927 308.822 162.723 308.083 162.518C304.387 161.503 300.018 160.523 294.681 159.784C284.049 158.143 274.199 158.125 265.55 158.684C264.366 158.762 263.272 158.834 262.245 158.906C259.781 159.063 257.335 159.261 254.913 159.495C253.717 159.61 252.635 159.718 251.613 159.838C215.781 163.757 185.485 174.226 181.975 160.631C176.458 139.254 229.196 131.573 241.709 78.2643C243.866 69.081 241.666 60.655 240.176 56.466C239.876 55.6186 238.649 55.7028 238.463 56.5802C238.127 58.1368 237.688 59.9759 237.255 61.2079C236.45 63.5158 234.376 67.0376 234.082 65.6073C223.612 14.6425 174.21 -4.16282 132.212 5.42914C105.949 11.4271 91.8673 25.1119 69.1555 37.1619C61.4927 41.2307 53.6557 43.9472 50.1098 45.0831C49.3345 45.3295 49.2684 46.4113 50.0076 46.7419C51.5161 47.427 53.9923 48.2263 57.6103 48.4667C61.8353 48.7492 68.2239 47.5592 66.3849 48.623C54.9839 55.228 44.8691 61.4543 33.3119 64.7959C17.6318 69.3274 7.67321 68.5822 2.90127 67.6386C2.00578 67.4644 1.44685 68.5702 2.12598 69.1832C9.36202 75.686 31.3827 92.5801 62.5806 89.9057C83.4052 88.1207 92.9311 85.7528 112.578 78.0119C130.337 71.0163 145.212 76.2269 138.072 89.9117C132.062 101.433 119.519 104.919 106.009 124.175C105.72 124.583 106.85 120.124 107.71 116.855C107.944 115.947 106.814 115.334 106.183 116.025C100.029 122.798 84.5531 142.758 89.866 167.272C99.6082 212.251 180.665 225.449 265.214 185.915C278.003 181.174 285.834 177.97 295.18 176.528C304.104 175.146 309.483 174.827 312.753 174.923C313.859 174.989 317.687 175.23 318.108 176.257C318.342 176.822 317.735 177.117 313.324 179.593C309.099 181.961 305.931 180.843 302.866 182.315C301.183 183.121 300.078 184.407 297.331 185.675C290.822 188.68 290.167 187.304 288.418 188.253C287.451 188.776 287.234 189.672 287.974 190.327C290.047 192.172 297.98 190.423 300.787 189.648C305.745 188.277 309.387 189.041 314.411 189.101C317.837 189.143 321.059 188.794 324.809 187.803C329.076 186.673 334.665 186.661 339.077 187.081C346.174 187.76 355.652 190.693 367.786 191.282C369.83 191.378 381.904 191.018 386.183 192.028C393.317 194.023 396.153 193.037 402.224 193.344C404.64 193.47 410.235 193.734 412.555 193.121C415.746 192.28 416.696 189.78 414.965 188.987V188.999Z" fill="url(#paint0_linear_7_359)"/>
<path d="M132.212 5.42922C105.949 11.4272 91.8673 25.112 69.1555 37.162C61.4927 41.2308 53.6557 43.9473 50.1098 45.0832C49.3345 45.3296 49.2684 46.4114 50.0076 46.742C51.5161 47.4271 53.9923 48.2264 57.6103 48.4668C61.8353 48.7493 68.2239 47.5593 66.3849 48.6231C54.9839 55.2281 44.8691 61.4544 33.3119 64.796C17.6318 69.3275 7.67321 68.5823 2.90127 67.6387C2.00578 67.4644 1.44685 68.5703 2.12598 69.1833C9.36202 75.6861 31.3827 92.5802 62.5806 89.9057C83.4052 88.1208 92.9311 85.7528 112.578 78.012C121.461 74.5142 129.616 74.0694 134.664 76.203C139.713 78.3425 132.212 5.41721 132.212 5.41721V5.42922Z" fill="url(#paint1_radial_7_359)"/>
<path d="M395.679 159.117C396.021 159.429 396.604 159.874 398.041 160.204C398.93 160.409 399.772 160.643 400.571 160.902C400.463 160.787 400.361 160.667 400.252 160.547C398.413 158.401 396.274 156.214 394.897 155.054C393.359 153.762 391.225 152.5 390.258 153.089C389.909 153.299 389.885 153.996 389.963 154.789C391.748 155.853 393.744 157.35 395.685 159.117H395.679Z" fill="url(#paint2_linear_7_359)"/>
<path d="M324.809 187.796C318.775 189.389 314.574 189.155 310.727 188.95C309.639 189.605 308.263 189.69 307.073 190.375C302.5 192.995 302.163 196.301 298.311 197.779C293.905 199.468 296.994 202.196 299.939 201.247C304.471 199.78 307.74 196.06 311.256 194.618C313.312 193.776 319.129 191.727 324.628 190.08C329.196 188.71 334.539 187.448 336.865 186.919C331.42 186.606 327.237 187.165 324.815 187.802L324.809 187.796Z" fill="url(#paint3_linear_7_359)"/>
<path d="M364.559 182.514C364.559 182.514 372.156 179.046 384.458 187.478C386.423 188.824 398.696 194.023 401.779 195.429C408.51 198.699 410.355 197.16 411.581 198.458C413.384 199.973 410.265 202.653 404.303 200.916C402.392 200.357 393.509 197.953 389.915 196.553C382.276 193.572 376.843 191.054 374.319 189.99C372.961 189.419 364.547 182.514 364.547 182.514H364.559Z" fill="url(#paint4_linear_7_359)"/>
<path d="M265.196 185.921C277.985 181.179 285.816 177.976 295.161 176.534C304.086 175.151 309.465 174.833 312.735 174.929C313.859 174.995 317.933 175.266 318.126 176.371C318.15 176.528 318.102 176.678 317.963 176.792C316.948 177.622 314.724 178.83 313.756 179.352C308.377 182.237 306.202 180.705 302.86 182.309C301.177 183.115 300.072 184.401 297.325 185.669C290.816 188.674 290.161 187.298 288.412 188.247C287.445 188.77 287.228 189.666 287.967 190.321C289.386 191.583 292.83 191.06 294.735 190.874C300.372 190.327 301.021 188.854 306.989 188.824C312.086 188.8 316.791 189.912 324.797 187.796C334.443 185.248 345.982 188.259 352.539 189.407C357.677 190.303 363.273 191.06 367.774 191.282C371.615 191.469 370.899 191.156 377.39 191.336C391.832 191.727 383.929 193.386 399.128 193.284C400.078 193.278 401.094 193.284 402.211 193.344C404.621 193.464 410.229 193.734 412.543 193.121C413.456 192.881 414.478 192.352 415.133 191.685C416.299 190.495 415.944 188.716 413.823 188.854C411.96 188.974 408.961 189.81 402.121 188.512C398.485 187.82 390.528 185.392 388.4 182.664C388.112 182.291 388.563 182.105 390.516 180.801C395.637 177.387 400.763 175.957 405.126 175.308C407.969 174.887 409.051 175.025 411.124 174.37C412.561 173.913 414.899 172.741 415.319 171.323C415.47 170.818 415.596 170.259 415.043 169.839C414.484 169.412 412.543 168.859 411.287 168.246C410.962 168.09 410.668 167.921 410.385 167.759C405.89 165.097 406.298 162.104 398.035 160.205C396.598 159.874 396.015 159.429 395.673 159.117C393.611 157.236 386.934 151.899 384.548 153.275C384.416 153.353 384.314 153.479 384.242 153.654C383.388 155.601 385.624 161.268 385.215 162.416C385.137 162.633 384.999 162.801 384.794 162.939C376.693 168.498 375.84 168.799 370.965 169.262C365.508 169.778 357.677 169.622 352.419 169.039H352.413C344.125 168.096 340.026 166.389 333.89 166.311C318.654 166.112 320.421 165.914 308.083 162.518C304.387 161.503 300.017 160.523 294.681 159.784C280.431 157.584 266.235 158.185 251.607 159.838L265.202 185.921H265.196Z" fill="url(#paint5_linear_7_359)"/>
<path d="M251.607 159.838C266.235 158.185 280.425 157.59 294.68 159.784C300.017 160.517 304.387 161.497 308.083 162.518C320.421 165.92 318.654 166.118 333.89 166.311C340.026 166.389 344.119 168.102 352.413 169.039H352.419C357.677 169.616 365.508 169.779 370.965 169.262C375.833 168.799 376.693 168.498 384.794 162.939C384.999 162.801 385.137 162.633 385.215 162.416C385.624 161.268 383.388 155.601 384.242 153.654C384.32 153.479 384.416 153.353 384.548 153.275C386.928 151.899 393.605 157.236 395.673 159.117C396.015 159.429 396.598 159.874 398.034 160.205C406.298 162.104 405.89 165.091 410.385 167.759C410.667 167.927 410.968 168.09 411.286 168.246C412.537 168.865 414.484 169.412 415.043 169.839C415.59 170.259 415.469 170.812 415.319 171.323C414.899 172.741 412.567 173.913 411.124 174.37C409.057 175.031 407.975 174.887 405.126 175.308C400.763 175.957 395.636 177.387 390.516 180.801C388.563 182.105 388.112 182.291 388.4 182.664C390.528 185.393 398.485 187.821 402.121 188.512C408.961 189.81 411.96 188.974 413.823 188.854C415.944 188.716 416.299 190.495 415.133 191.685C414.484 192.352 413.456 192.881 412.543 193.121C410.229 193.734 404.621 193.464 402.211 193.344C401.088 193.284 400.078 193.278 399.128 193.284C383.929 193.386 391.838 191.727 377.39 191.336C370.899 191.162 371.614 191.469 367.774 191.282C363.267 191.066 357.671 190.309 352.539 189.407C345.982 188.265 334.443 185.248 324.797 187.797C316.785 189.912 312.079 188.8 306.989 188.824C301.027 188.854 300.372 190.327 294.735 190.874C292.823 191.06 289.38 191.577 287.967 190.321C287.228 189.666 287.438 188.77 288.412 188.247C290.161 187.298 290.816 188.674 297.325 185.669C300.071 184.401 301.183 183.121 302.86 182.309C306.202 180.705 308.377 182.237 313.756 179.352C314.724 178.83 316.948 177.622 317.963 176.792C318.101 176.678 318.156 176.528 318.126 176.372C317.939 175.26 313.858 174.995 312.735 174.929C309.465 174.833 304.086 175.151 295.161 176.534C285.816 177.976 277.985 181.18 265.195 185.921L251.601 159.838H251.607Z" fill="url(#paint6_radial_7_359)"/>
<path opacity="0.8" d="M333.884 166.311C340.02 166.389 344.113 168.102 352.407 169.039H352.413C357.671 169.616 365.502 169.778 370.959 169.262C375.828 168.799 376.687 168.498 384.788 162.939C384.993 162.801 385.131 162.633 385.209 162.416C385.618 161.268 383.382 155.601 384.236 153.654C384.314 153.479 384.41 153.353 384.542 153.275C386.922 151.899 393.599 157.236 395.667 159.117C396.009 159.429 396.592 159.874 398.028 160.205C406.292 162.104 405.884 165.091 410.379 167.759C410.661 167.927 410.962 168.09 411.281 168.246C412.531 168.865 414.478 169.412 415.037 169.839C415.584 170.259 415.463 170.812 415.313 171.323C414.893 172.741 412.561 173.913 411.118 174.37C409.051 175.031 407.969 174.887 405.12 175.308C400.757 175.957 395.63 177.387 390.51 180.801C388.557 182.105 388.106 182.291 388.394 182.664C390.522 185.392 398.479 187.82 402.115 188.512C408.955 189.81 411.954 188.974 413.817 188.854C415.938 188.716 416.293 190.495 415.127 191.685C414.478 192.352 413.45 192.881 412.537 193.121C410.223 193.734 404.615 193.464 402.205 193.344C401.082 193.284 400.072 193.278 399.122 193.284C383.923 193.386 391.832 191.727 377.384 191.336C370.893 191.162 371.609 191.469 367.768 191.282C363.261 191.066 357.665 190.309 352.533 189.407C345.976 188.265 334.437 185.248 324.791 187.796C316.779 189.912 312.073 188.8 306.983 188.824C301.021 188.854 300.366 190.327 294.729 190.874C292.817 191.06 289.374 191.577 287.961 190.321C287.222 189.666 287.432 188.77 288.406 188.247C290.155 187.298 290.81 188.674 297.319 185.669C300.065 184.401 301.177 183.121 302.854 182.309C306.196 180.705 308.371 182.237 313.75 179.352C314.718 178.83 316.942 177.622 317.957 176.792C318.095 176.678 318.15 176.528 318.12 176.371C317.933 175.26 313.852 174.995 312.729 174.929" fill="url(#paint7_linear_7_359)"/>
<path d="M317.825 188.986C320.217 187.796 321.527 186.21 321.527 186.21C321.527 186.21 318.751 186.078 316.106 186.078C315.271 186.078 312.104 185.951 312.104 185.951C312.104 185.951 315.307 184.172 316.106 183.565C316.749 183.079 319.412 181.185 319.412 181.185C319.412 181.185 315.024 182.081 314.123 182.243C313.083 182.43 310.126 182.976 310.126 182.976C310.126 182.976 311.322 181.288 312.146 180.176C309.026 181.534 306.418 181.185 304.206 181.81C301.544 182.562 300.781 184.082 297.343 185.669C294.699 186.889 292.884 187.652 290.083 187.82C286.459 188.043 286.369 191.553 292.096 191.102C296.454 190.759 296.964 190.699 300.799 189.641C306.887 187.959 311.178 189.485 317.819 188.992C317.819 188.992 317.831 188.992 317.831 188.986H317.825Z" fill="url(#paint8_linear_7_359)"/>
<path d="M402.746 167.585C402.897 168.991 403.642 168.871 404.171 168.883C405.144 168.907 405.541 168.552 405.427 167.639C405.217 165.998 404.201 165.475 403.57 165.758C403.119 165.962 402.62 166.341 402.746 167.585Z" fill="url(#paint9_linear_7_359)"/>
<path d="M404.804 167.672C404.997 167.642 405.119 167.387 405.075 167.102C405.031 166.816 404.839 166.609 404.645 166.638C404.452 166.668 404.33 166.923 404.374 167.209C404.418 167.494 404.61 167.702 404.804 167.672Z" fill="white"/>
<path d="M402.127 188.512C398.239 187.773 395.011 186.601 392.643 185.453C390.462 185.116 388.581 184.804 387.589 184.527C387.691 184.587 391.7 187.436 393.443 187.73C391.814 188.145 388.725 186.919 385.576 187.442C389.452 189.107 390.45 189.359 394.158 190.207C390.51 190.748 388.184 190.249 385.828 190.399L391.88 193.164C395.474 193.548 398.107 193.133 402.229 193.344C406.809 193.578 410.716 193.608 412.561 193.121C414.388 192.641 416.659 191.006 415.499 189.431C414.231 187.761 412.062 190.399 402.133 188.518L402.127 188.512Z" fill="url(#paint10_linear_7_359)"/>
<path opacity="0.6" d="M407.362 172.11C407.41 172.11 407.452 172.104 407.5 172.098C405.799 172.074 403.516 171.63 400.817 170.175C398.798 169.087 396.881 168.18 394.741 167.717C388.19 166.317 384.981 167.326 385.444 168.42C385.744 169.129 387.487 169.033 387.09 169.514C386.814 169.851 384.115 169.43 384.524 170.566C384.939 171.702 387.066 171.467 386.952 171.912C386.844 172.333 385.041 171.828 385.305 172.796C385.534 173.637 388.016 173.324 389.927 174.226C394.651 176.468 388.01 179.256 387.775 181.101C387.655 182.081 387.787 182.742 387.92 183.133C387.962 182.616 388.605 182.069 390.528 180.789C396.826 176.588 403.143 175.386 408.029 174.959C408.624 174.905 409.165 174.821 409.682 174.719C408.131 173.384 407.164 172.122 407.368 172.104L407.362 172.11Z" fill="url(#paint11_linear_7_359)"/>
<path d="M409.676 174.743C409.676 174.743 409.682 174.749 409.688 174.755C413.312 174.04 415.055 172.237 415.325 171.341C415.476 170.836 415.602 170.277 415.055 169.857C414.676 169.568 413.655 169.22 412.645 168.829C412.639 169.232 412.555 169.628 412.278 170.001C410.824 171.93 408.961 172.002 407.506 172.116C407.458 172.116 407.41 172.122 407.368 172.128C407.164 172.146 408.137 173.415 409.682 174.743H409.676Z" fill="#FFC635"/>
<path d="M415.289 171.413C415.289 171.413 415.313 171.359 415.319 171.335C415.47 170.83 415.596 170.271 415.049 169.851C414.893 169.73 414.61 169.598 414.28 169.454C414.165 169.712 414.117 170.049 414.171 170.506C414.243 171.119 414.832 171.341 415.289 171.407V171.413Z" fill="#00073A"/>
<path d="M384.8 162.933C384.284 163.288 383.508 163.817 382.613 164.406C384.157 163.558 387.295 162.08 391.003 161.635C394.26 161.244 397.584 160.83 399.483 160.571C399.014 160.439 398.539 160.313 398.04 160.205C396.604 159.874 396.021 159.429 395.679 159.117C391.141 154.976 386.261 152.289 384.554 153.275C383.502 153.882 384.362 157.837 385.125 160.83C385.419 161.996 385.347 162.566 384.8 162.939V162.933Z" fill="url(#paint12_linear_7_359)"/>
<path opacity="0.6" d="M364.559 187.538C361.38 186.558 353.789 185.218 347.641 185.218C343.896 185.218 339.653 186.078 336.883 186.913C339.653 187.069 342.743 187.454 346.108 188.163C353.975 189.828 365.46 191.631 371.873 191.294C372.047 191.282 376.338 191.294 376.513 191.306C373.376 189.744 366.386 188.103 364.559 187.538Z" fill="url(#paint13_linear_7_359)"/>
<path d="M225.89 58.7257C227.267 67.1037 227.098 78.9794 224.286 87.7781C219.075 104.077 212.224 113.278 203.527 117.936C207.842 112.876 209.435 103.777 207.313 97.7787C203.749 115.821 194.795 117.359 183.069 128.49C178.297 132.955 175.514 138.376 172.9 144.38C168.008 155.643 173.531 161.557 182.101 162.843L182.083 160.956C182.053 160.848 182.011 160.739 181.981 160.631C181.639 159.303 181.518 158.023 181.603 156.785C179.006 155.499 180.905 153.365 183.081 151.779C191.315 135.948 231.065 123.616 241.715 78.2642C243.872 69.0809 241.672 60.6549 240.182 56.466C239.882 55.6186 238.655 55.7027 238.469 56.5802C238.133 58.1367 237.694 59.9758 237.261 61.2078C236.456 63.5157 234.382 67.0376 234.088 65.6072C231.281 51.9464 225.674 40.5996 218.167 31.4824C217.518 31.4283 216.863 31.3802 216.208 31.3502C220.956 41.5191 224.075 47.6253 225.896 58.7197L225.89 58.7257Z" fill="url(#paint14_radial_7_359)"/>
<path opacity="0.85" d="M210.126 78.1383C213.161 78.8595 215.493 78.6131 216.575 76.9062C221.046 69.8625 220.12 61.4966 219.712 56.4422C219.279 51.0993 213.666 38.8269 205.588 31.4165C198.226 24.6673 194.656 24.5411 194.656 24.5411L199.65 32.0296C199.65 32.0296 192.144 27.9668 183.73 25.5027C175.31 23.0386 169.919 26.4162 169.919 26.4162C168.699 26.5424 167.797 27.0713 167.154 27.8887C179.252 31.3024 192.09 37.4806 199.837 44.6686C207.013 51.3337 212.512 63.2455 210.132 78.1383H210.126Z" fill="url(#paint15_radial_7_359)"/>
<path d="M156.661 61.2322C153.187 58.6899 148.746 56.6946 143.277 55.4325C112.337 48.2926 81.6622 60.7213 81.6622 60.7213C81.6622 60.7213 95.4131 45.486 112.542 40.5157C124.838 36.9458 138.192 35.6837 137.327 35.3591C130.109 32.6486 122.891 31.5428 119.826 31.1641C105.233 33.5922 88.2011 43.6469 76.5357 52.2232C54.8456 68.1737 34.4417 72.6031 34.4417 72.6031C34.4417 72.6031 58.1811 77.4171 85.4064 66.3226C105.997 57.9327 126.839 61.4305 131.197 75.2415C138.685 76.5216 142.375 81.6842 138.078 89.9239C137.729 90.591 137.357 91.2341 136.966 91.8531C149.635 80.7827 155.651 70.3553 156.667 61.2322H156.661Z" fill="url(#paint16_linear_7_359)"/>
<path opacity="0.8" d="M149.419 25.0518C154.543 25.0518 160.743 26.0849 167.141 27.8926C167.143 27.8893 167.146 27.8861 167.148 27.8828C179.253 31.2965 192.09 37.4742 199.831 44.6621C207.007 51.3272 212.506 63.2451 210.126 78.1318C200.648 75.8841 184.313 64.1769 177.66 57.9746C172.077 52.771 166.805 41.8205 166.028 34.2852L166.029 34.2969C166.807 41.8322 172.081 52.7826 177.66 57.9863C184.313 64.1886 200.648 75.8957 210.126 78.1436C207.902 92.0627 198.785 108.584 177.702 125.833C173.645 129.157 166.03 131.519 157.845 132.997C160.766 127.077 164.949 125.941 173.356 112.401C181.907 98.6322 176.676 80.9799 176.645 80.873C176.615 80.9581 171.394 96.057 163.687 103.614C161.271 105.982 158.26 108.05 155.495 109.679C159.678 104.354 163.285 97.5685 165.49 88.7578C166.891 83.1566 164.018 69.6641 163.122 68.1914C161.547 65.5891 159.402 63.2456 156.661 61.2383C157.318 55.322 155.867 49.9575 152.76 45.3291L152.756 45.3232C155.863 49.9516 157.312 55.3161 156.655 61.2324C153.181 58.6902 148.74 56.6947 143.271 55.4326C112.331 48.2928 81.6562 60.7217 81.6562 60.7217C81.6562 60.7217 95.4069 45.486 112.535 40.5156L112.529 40.5098C124.826 36.9398 138.18 35.6781 137.314 35.3535C130.13 32.6615 122.945 31.5467 119.856 31.1631C119.844 31.1651 119.832 31.1679 119.819 31.1699C118.844 31.0503 118.286 31.0024 118.281 31.002C118.281 31.002 126.016 25.0518 149.419 25.0518Z" fill="url(#paint17_radial_7_359)"/>
<path d="M157.839 132.985C160.76 127.066 164.943 125.93 173.351 112.389C181.927 98.5843 176.638 80.8608 176.638 80.8608C176.638 80.8608 171.409 96.024 163.681 103.603C161.259 105.977 158.248 108.038 155.489 109.667C151.246 112.173 147.598 113.657 147.598 113.657C147.598 113.657 151.162 111.133 153.632 104.131C155.219 99.636 155.219 94.3472 155.219 94.3472C155.219 94.3472 147.55 104.66 138.907 110.773C130.956 116.392 119.952 120.671 114.495 137.715C108.268 157.164 127.272 173.427 139.851 177.381C152.43 181.336 171.836 167.958 166.884 165.097C161.932 162.236 152.003 155.866 155.225 141.153C156.03 137.469 156.865 134.957 157.845 132.979L157.839 132.985Z" fill="url(#paint18_linear_7_359)"/>
<path opacity="0.9" d="M95.6175 152.999C95.6175 152.999 94.3374 160.06 101.555 169.784C108.773 179.515 116.046 184.587 116.046 184.587L104.969 180.741C104.969 180.741 107.067 185.008 118.492 192.202C128.835 198.711 139.593 197.863 145.729 197.581C151.865 197.304 156.631 194.99 162.22 187.165C167.81 179.334 144.431 162.296 130.566 153.942C116.695 145.588 91.9094 141.369 95.6296 152.999H95.6175Z" fill="url(#paint19_linear_7_359)"/>
<defs>
<linearGradient id="paint0_linear_7_359" x1="281.453" y1="233.563" x2="116.466" y2="-24.729" gradientUnits="userSpaceOnUse">
<stop offset="0.11" stop-color="#FB2970"/>
<stop offset="0.23" stop-color="#FB3755"/>
<stop offset="0.43" stop-color="#FF6600"/>
<stop offset="0.71" stop-color="#FFC635"/>
<stop offset="0.99" stop-color="#FFEB49"/>
</linearGradient>
<radialGradient id="paint1_radial_7_359" cx="0" cy="0" r="1" gradientUnits="userSpaceOnUse" gradientTransform="translate(62.3822 134.181) scale(94.7596 94.7596)">
<stop offset="0.07" stop-color="#FF6600" stop-opacity="0.6"/>
<stop offset="0.89" stop-color="#FF6600" stop-opacity="0"/>
</radialGradient>
<linearGradient id="paint2_linear_7_359" x1="398.515" y1="161.04" x2="389.933" y2="152.283" gradientUnits="userSpaceOnUse">
<stop offset="0.43" stop-color="#FF6600"/>
<stop offset="0.55" stop-color="#FE6403"/>
<stop offset="0.65" stop-color="#FE5E0E"/>
<stop offset="0.75" stop-color="#FD5420"/>
<stop offset="0.85" stop-color="#FC463A"/>
<stop offset="0.94" stop-color="#FB345B"/>
<stop offset="1" stop-color="#FB2872"/>
</linearGradient>
<linearGradient id="paint3_linear_7_359" x1="332.526" y1="182.634" x2="285.66" y2="209.288" gradientUnits="userSpaceOnUse">
<stop offset="0.24" stop-color="#BE0449"/>
<stop offset="0.45" stop-color="#D20F56"/>
<stop offset="0.8" stop-color="#EF216A"/>
<stop offset="1" stop-color="#FB2872"/>
</linearGradient>
<linearGradient id="paint4_linear_7_359" x1="387.042" y1="191.258" x2="428.012" y2="211.386" gradientUnits="userSpaceOnUse">
<stop offset="0.01" stop-color="#BE0449"/>
<stop offset="0.28" stop-color="#D20F56"/>
<stop offset="0.74" stop-color="#EF216A"/>
<stop offset="1" stop-color="#FB2872"/>
</linearGradient>
<linearGradient id="paint5_linear_7_359" x1="257.725" y1="172.958" x2="399.699" y2="173.294" gradientUnits="userSpaceOnUse">
<stop stop-color="#FF6600" stop-opacity="0"/>
<stop offset="0.1" stop-color="#FB2970" stop-opacity="0.1"/>
<stop offset="0.35" stop-color="#FF6600"/>
<stop offset="0.48" stop-color="#FF6600"/>
<stop offset="1" stop-color="#FF6600"/>
</linearGradient>
<radialGradient id="paint6_radial_7_359" cx="0" cy="0" r="1" gradientUnits="userSpaceOnUse" gradientTransform="translate(358.06 140.594) scale(60.7567 50.4687)">
<stop offset="0.28" stop-color="#FFEB49" stop-opacity="0.5"/>
<stop offset="0.58" stop-color="#FFEB49" stop-opacity="0.29"/>
<stop offset="0.73" stop-color="#FFEB49" stop-opacity="0.2"/>
<stop offset="0.83" stop-color="#FFEB49" stop-opacity="0.12"/>
<stop offset="0.94" stop-color="#FFEB49" stop-opacity="0"/>
</radialGradient>
<linearGradient id="paint7_linear_7_359" x1="351.439" y1="210.779" x2="352.551" y2="102.959" gradientUnits="userSpaceOnUse">
<stop offset="0.2" stop-color="#FB2872"/>
<stop offset="0.24" stop-color="#FC3D4B" stop-opacity="0.66"/>
<stop offset="0.29" stop-color="#FD5223" stop-opacity="0.31"/>
<stop offset="0.32" stop-color="#FE6009" stop-opacity="0.09"/>
<stop offset="0.33" stop-color="#FF6600" stop-opacity="0"/>
</linearGradient>
<linearGradient id="paint8_linear_7_359" x1="329.184" y1="181.197" x2="280.317" y2="192.478" gradientUnits="userSpaceOnUse">
<stop stop-color="#FA2771" stop-opacity="0.02"/>
<stop offset="0.1" stop-color="#F2256D" stop-opacity="0.25"/>
<stop offset="0.19" stop-color="#EB2369" stop-opacity="0.45"/>
<stop offset="0.28" stop-color="#E52266" stop-opacity="0.62"/>
<stop offset="0.38" stop-color="#E02164" stop-opacity="0.76"/>
<stop offset="0.48" stop-color="#DC2062" stop-opacity="0.87"/>
<stop offset="0.6" stop-color="#DA1F61" stop-opacity="0.94"/>
<stop offset="0.72" stop-color="#D81F60" stop-opacity="0.99"/>
<stop offset="0.88" stop-color="#D81F60"/>
</linearGradient>
<linearGradient id="paint9_linear_7_359" x1="405.532" y1="165.376" x2="403.368" y2="168.517" gradientUnits="userSpaceOnUse">
<stop offset="0.16" stop-color="#A030B9"/>
<stop offset="0.88" stop-color="#00073A"/>
</linearGradient>
<linearGradient id="paint10_linear_7_359" x1="380.209" y1="181.696" x2="417.026" y2="196.571" gradientUnits="userSpaceOnUse">
<stop stop-color="#FB2872" stop-opacity="0"/>
<stop offset="0.19" stop-color="#EF256C" stop-opacity="0.32"/>
<stop offset="0.41" stop-color="#E32165" stop-opacity="0.68"/>
<stop offset="0.57" stop-color="#DB1F61" stop-opacity="0.91"/>
<stop offset="0.65" stop-color="#D81F60"/>
</linearGradient>
<linearGradient id="paint11_linear_7_359" x1="397.349" y1="170.896" x2="392.247" y2="201.355" gradientUnits="userSpaceOnUse">
<stop stop-color="#FFEB49"/>
<stop offset="0.06" stop-color="#FED84C" stop-opacity="0.9"/>
<stop offset="0.21" stop-color="#FDAA56" stop-opacity="0.67"/>
<stop offset="0.35" stop-color="#FC825E" stop-opacity="0.46"/>
<stop offset="0.5" stop-color="#FC6265" stop-opacity="0.3"/>
<stop offset="0.64" stop-color="#FB486B" stop-opacity="0.17"/>
<stop offset="0.77" stop-color="#FB366E" stop-opacity="0.08"/>
<stop offset="0.89" stop-color="#FB2B71" stop-opacity="0.02"/>
<stop offset="1" stop-color="#FB2872" stop-opacity="0"/>
</linearGradient>
<linearGradient id="paint12_linear_7_359" x1="390.798" y1="161.869" x2="386.129" y2="150.144" gradientUnits="userSpaceOnUse">
<stop stop-color="#FF6600" stop-opacity="0"/>
<stop offset="0.19" stop-color="#FF6600" stop-opacity="0.31"/>
<stop offset="0.58" stop-color="#FF6600"/>
<stop offset="0.62" stop-color="#FE5B12"/>
<stop offset="0.74" stop-color="#FC453B"/>
<stop offset="0.85" stop-color="#FB3559"/>
<stop offset="0.94" stop-color="#FB2B6B"/>
<stop offset="1" stop-color="#FB2872"/>
</linearGradient>
<linearGradient id="paint13_linear_7_359" x1="357.251" y1="184.894" x2="352.1" y2="224.133" gradientUnits="userSpaceOnUse">
<stop stop-color="#FFEB49"/>
<stop offset="0.37" stop-color="#FFEB49" stop-opacity="0.59"/>
<stop offset="0.68" stop-color="#FFEB49" stop-opacity="0.27"/>
<stop offset="0.89" stop-color="#FFEB49" stop-opacity="0.08"/>
<stop offset="1" stop-color="#FFEB49" stop-opacity="0"/>
</linearGradient>
<radialGradient id="paint14_radial_7_359" cx="0" cy="0" r="1" gradientUnits="userSpaceOnUse" gradientTransform="translate(253.626 173.078) scale(115.999 115.999)">
<stop stop-color="#FB2872"/>
<stop offset="1" stop-color="#FB2872" stop-opacity="0.07"/>
</radialGradient>
<radialGradient id="paint15_radial_7_359" cx="0" cy="0" r="1" gradientTransform="matrix(-9.29438 21.7544 34.2392 16.8645 212.327 29.8055)" gradientUnits="userSpaceOnUse">
<stop stop-color="#FFEB49"/>
<stop offset="0.9996" stop-color="#FFEB49" stop-opacity="0"/>
</radialGradient>
<linearGradient id="paint16_linear_7_359" x1="34.4356" y1="61.5086" x2="156.817" y2="61.5086" gradientUnits="userSpaceOnUse">
<stop stop-color="#FFEB49" stop-opacity="0.8"/>
<stop offset="0.7" stop-color="#FFEB49" stop-opacity="0"/>
</linearGradient>
<radialGradient id="paint17_radial_7_359" cx="0" cy="0" r="1" gradientUnits="userSpaceOnUse" gradientTransform="translate(64.6059 -190.719) scale(299.749)">
<stop offset="0.07" stop-color="#FB2872"/>
<stop offset="0.17" stop-color="#FB2872" stop-opacity="0.83"/>
<stop offset="0.34" stop-color="#FB2872" stop-opacity="0.58"/>
<stop offset="0.51" stop-color="#FB2872" stop-opacity="0.37"/>
<stop offset="0.66" stop-color="#FB2872" stop-opacity="0.21"/>
<stop offset="0.8" stop-color="#FB2872" stop-opacity="0.1"/>
<stop offset="0.91" stop-color="#FB2872" stop-opacity="0.03"/>
<stop offset="1" stop-color="#FB2872" stop-opacity="0"/>
</radialGradient>
<linearGradient id="paint18_linear_7_359" x1="129.73" y1="-5.31658" x2="149.365" y2="146.418" gradientUnits="userSpaceOnUse">
<stop stop-color="#FFEB49" stop-opacity="0.8"/>
<stop offset="0.91" stop-color="#FFEB49" stop-opacity="0"/>
</linearGradient>
<linearGradient id="paint19_linear_7_359" x1="101.161" y1="209.885" x2="132.631" y2="174.414" gradientUnits="userSpaceOnUse">
<stop offset="0.36" stop-color="#FFBA00"/>
<stop offset="0.44" stop-color="#FFAE0A" stop-opacity="0.86"/>
<stop offset="0.62" stop-color="#FF8F25" stop-opacity="0.49"/>
<stop offset="0.85" stop-color="#FF6749" stop-opacity="0"/>
</linearGradient>
</defs>
</svg>
