<svg xmlns="http://www.w3.org/2000/svg" xmlns:xlink="http://www.w3.org/1999/xlink" viewBox="0 0 598 583.491">
  <defs>
    <linearGradient id="b" x1="418.562" y1="29.628" x2="598" y2="29.628" gradientTransform="matrix(1 0 0 -1 0 579.022)" gradientUnits="userSpaceOnUse">
      <stop offset="0" stop-color="#b167aa"/>
      <stop offset=".11" stop-color="#a864a8"/>
      <stop offset=".28" stop-color="#945ca5"/>
      <stop offset=".51" stop-color="#7959a5"/>
      <stop offset=".77" stop-color="#5956a5"/>
      <stop offset="1" stop-color="#4254a5"/>
    </linearGradient>
    <linearGradient id="c" x1="595.097" y1="297.726" x2="528.741" y2="295.418" gradientTransform="matrix(1 0 0 -1 0 579.022)" gradientUnits="userSpaceOnUse">
      <stop offset="0" stop-color="#f26722"/>
      <stop offset=".26" stop-color="#fbaf2b"/>
      <stop offset=".34" stop-color="#faa527"/>
      <stop offset=".47" stop-color="#f78d21"/>
      <stop offset=".63" stop-color="#f26722"/>
      <stop offset="1" stop-color="#ee3073"/>
    </linearGradient>
    <linearGradient id="d" x1="583.797" y1="295.784" x2="527.831" y2="297.863" gradientTransform="matrix(1 0 0 -1 0 579.022)" gradientUnits="userSpaceOnUse">
      <stop offset="0" stop-color="#f26722"/>
      <stop offset="1" stop-color="#ee3073"/>
    </linearGradient>
    <linearGradient id="e" x1="496.055" y1="263.736" x2="495.059" y2="171.03" gradientTransform="matrix(1 0 0 -1 0 579.022)" gradientUnits="userSpaceOnUse">
      <stop offset=".01" stop-color="#be1f4c"/>
      <stop offset=".28" stop-color="#d11d58"/>
      <stop offset=".74" stop-color="#ee246b"/>
      <stop offset="1" stop-color="#ee3073"/>
    </linearGradient>
    <linearGradient id="f" x1="263.711" y1="191.969" x2="471.909" y2="183.769" gradientTransform="matrix(1 0 0 -1 0 579.022)" gradientUnits="userSpaceOnUse">
      <stop offset="0" stop-color="#0b1239" stop-opacity=".5"/>
      <stop offset=".76" stop-color="#be1f4c"/>
      <stop offset=".83" stop-color="#d11d58"/>
      <stop offset=".94" stop-color="#ee246b"/>
      <stop offset="1" stop-color="#ee3073"/>
    </linearGradient>
    <linearGradient id="g" x1="141.845" y1="649.344" x2="332.676" y2="185.286" gradientTransform="matrix(1 0 0 -1 0 579.022)" gradientUnits="userSpaceOnUse">
      <stop offset="0" stop-color="#feea49"/>
      <stop offset=".32" stop-color="#f89a23"/>
      <stop offset=".56" stop-color="#f26722"/>
      <stop offset=".74" stop-color="#f04c39"/>
      <stop offset=".91" stop-color="#ee3763"/>
      <stop offset="1" stop-color="#ee3073"/>
    </linearGradient>
    <linearGradient id="h" x1="502.676" y1="403.569" x2="421.494" y2="148.045" gradientTransform="matrix(1 0 0 -1 0 579.022)" gradientUnits="userSpaceOnUse">
      <stop offset="0" stop-color="#feea49"/>
      <stop offset=".06" stop-color="#fee144"/>
      <stop offset=".17" stop-color="#ffc935"/>
      <stop offset=".3" stop-color="#f99d24"/>
      <stop offset=".46" stop-color="#f26722"/>
      <stop offset="1" stop-color="#ee3073"/>
    </linearGradient>
    <linearGradient id="i" x1="553.644" y1="277.026" x2="482.654" y2="283.236" gradientTransform="matrix(1 0 0 -1 0 579.022)" gradientUnits="userSpaceOnUse">
      <stop offset="0" stop-color="#feea49"/>
      <stop offset=".08" stop-color="#fee646" stop-opacity=".97"/>
      <stop offset=".2" stop-color="#feda40" stop-opacity=".88"/>
      <stop offset=".36" stop-color="#ffc735" stop-opacity=".73"/>
      <stop offset=".54" stop-color="#fbaa29" stop-opacity=".52"/>
      <stop offset=".74" stop-color="#f68821" stop-opacity=".26"/>
      <stop offset=".93" stop-color="#f26722" stop-opacity="0"/>
    </linearGradient>
    <linearGradient id="j" x1="561.905" y1="303.222" x2="602.16" y2="308.025" gradientTransform="matrix(1 0 0 -1 0 579.022)" gradientUnits="userSpaceOnUse">
      <stop offset="0" stop-color="#f26722" stop-opacity="0"/>
      <stop offset=".19" stop-color="#f26722" stop-opacity=".31"/>
      <stop offset=".58" stop-color="#f26722"/>
      <stop offset=".62" stop-color="#f15d22"/>
      <stop offset=".74" stop-color="#f04840"/>
      <stop offset=".84" stop-color="#ef3b5b"/>
      <stop offset=".93" stop-color="#ee326c"/>
      <stop offset="1" stop-color="#ee3073"/>
    </linearGradient>
    <linearGradient id="l" x1="469.856" y1="281.47" x2="493.183" y2="213.686" gradientTransform="matrix(1 0 0 -1 0 579.022)" gradientUnits="userSpaceOnUse">
      <stop offset="0" stop-color="#ee3073" stop-opacity="0"/>
      <stop offset=".27" stop-color="#ee286d" stop-opacity=".3"/>
      <stop offset=".62" stop-color="#e22166" stop-opacity=".67"/>
      <stop offset=".88" stop-color="#db1e62" stop-opacity=".91"/>
      <stop offset="1" stop-color="#d72061"/>
    </linearGradient>
    <linearGradient id="m" x1="388.841" y1="228.036" x2="375.691" y2="134.422" gradientTransform="matrix(1 0 0 -1 0 579.022)" gradientUnits="userSpaceOnUse">
      <stop offset=".03" stop-color="#ee3073" stop-opacity="0"/>
      <stop offset=".18" stop-color="#ee286d" stop-opacity=".3"/>
      <stop offset=".37" stop-color="#e22166" stop-opacity=".67"/>
      <stop offset=".51" stop-color="#db1e62" stop-opacity=".91"/>
      <stop offset=".58" stop-color="#d72061"/>
    </linearGradient>
    <linearGradient id="n" x1="553.508" y1="260.216" x2="544.958" y2="267.416" gradientTransform="matrix(1 0 0 -1 0 579.022)" gradientUnits="userSpaceOnUse">
      <stop offset=".16" stop-color="#91469a"/>
      <stop offset=".88" stop-color="#0b1239"/>
    </linearGradient>
    <linearGradient id="p" x1="89.046" y1="320.072" x2="244.868" y2="298.165" gradientTransform="matrix(1 0 0 -1 0 579.022)" gradientUnits="userSpaceOnUse">
      <stop offset="0" stop-color="#feea49" stop-opacity=".8"/>
      <stop offset=".07" stop-color="#feea49" stop-opacity=".72"/>
      <stop offset=".25" stop-color="#feea49" stop-opacity=".5"/>
      <stop offset=".42" stop-color="#feea49" stop-opacity=".32"/>
      <stop offset=".59" stop-color="#feea49" stop-opacity=".18"/>
      <stop offset=".75" stop-color="#feea49" stop-opacity=".08"/>
      <stop offset=".89" stop-color="#feea49" stop-opacity=".02"/>
      <stop offset="1" stop-color="#feea49" stop-opacity="0"/>
    </linearGradient>
    <linearGradient id="q" x1="235.539" y1="487.736" x2="228.831" y2="408.063" gradientTransform="matrix(1 0 0 -1 0 579.022)" gradientUnits="userSpaceOnUse">
      <stop offset=".51" stop-color="#feea49"/>
      <stop offset=".56" stop-color="#feea49" stop-opacity=".96"/>
      <stop offset=".63" stop-color="#feea49" stop-opacity=".84"/>
      <stop offset=".73" stop-color="#feea49" stop-opacity=".66"/>
      <stop offset=".84" stop-color="#feea49" stop-opacity=".4"/>
      <stop offset=".97" stop-color="#feea49" stop-opacity=".07"/>
      <stop offset="1" stop-color="#feea49" stop-opacity="0"/>
    </linearGradient>
    <radialGradient id="k" cx="-3.866" cy="684.51" fx="-3.866" fy="684.51" r="1" gradientTransform="rotate(66.25 -18454.66 -11378.67)scale(42.1579 -34.991)" gradientUnits="userSpaceOnUse">
      <stop offset=".68" stop-color="#d72061" stop-opacity="0"/>
      <stop offset=".7" stop-color="#d72061" stop-opacity=".05"/>
      <stop offset=".74" stop-color="#d72061" stop-opacity=".22"/>
      <stop offset=".78" stop-color="#d72061" stop-opacity=".36"/>
      <stop offset=".83" stop-color="#d72061" stop-opacity=".47"/>
      <stop offset=".87" stop-color="#d72061" stop-opacity=".54"/>
      <stop offset=".93" stop-color="#d72061" stop-opacity=".59"/>
      <stop offset="1" stop-color="#d72061" stop-opacity=".6"/>
    </radialGradient>
    <radialGradient id="o" cx="-6.036" cy="685.179" fx="-6.036" fy="685.179" r="1" gradientTransform="matrix(296.511 0 0 -296.511 1856.677 203142.079)" gradientUnits="userSpaceOnUse">
      <stop offset=".28" stop-color="#feea49" stop-opacity=".8"/>
      <stop offset="1" stop-color="#feea49" stop-opacity="0"/>
    </radialGradient>
    <radialGradient id="a" cx="-5.792" cy="686.002" fx="-5.792" fy="686.002" r="1" gradientTransform="rotate(157.63 -13151.88 -64876.369)scale(125.764 -189.322)" gradientUnits="userSpaceOnUse">
      <stop offset="0" stop-color="#feea49" stop-opacity=".8"/>
      <stop offset="1" stop-color="#feea49" stop-opacity="0"/>
    </radialGradient>
    <radialGradient id="r" cx="-6.412" cy="685.434" fx="-6.412" fy="685.434" r="1" gradientTransform="rotate(100.62 86399.253 102252.54)scale(-267.27 300.304)" xlink:href="#a"/>
    <radialGradient id="s" cx="-6.033" cy="685.116" fx="-6.033" fy="685.116" r="1" gradientTransform="matrix(249.389 0 0 -249.389 1551.748 170992.455)" gradientUnits="userSpaceOnUse">
      <stop offset=".07" stop-color="#ee3073"/>
      <stop offset=".09" stop-color="#ee3073" stop-opacity=".95"/>
      <stop offset=".15" stop-color="#ee3073" stop-opacity=".75"/>
      <stop offset=".22" stop-color="#ee3073" stop-opacity=".57"/>
      <stop offset=".3" stop-color="#ee3073" stop-opacity=".42"/>
      <stop offset=".38" stop-color="#ee3073" stop-opacity=".29"/>
      <stop offset=".46" stop-color="#ee3073" stop-opacity=".18"/>
      <stop offset=".56" stop-color="#ee3073" stop-opacity=".1"/>
      <stop offset=".66" stop-color="#ee3073" stop-opacity=".04"/>
      <stop offset=".79" stop-color="#ee3073" stop-opacity=".01"/>
      <stop offset="1" stop-color="#ee3073" stop-opacity="0"/>
    </radialGradient>
    <radialGradient id="t" cx="-5.989" cy="684.604" fx="-5.989" fy="684.604" r="1" gradientTransform="rotate(179.47 376.905 37337.885)scale(-64.2399 108.565)" gradientUnits="userSpaceOnUse">
      <stop offset="0" stop-color="#feea49" stop-opacity=".6"/>
      <stop offset=".13" stop-color="#feea49" stop-opacity=".56"/>
      <stop offset=".35" stop-color="#feea49" stop-opacity=".44"/>
      <stop offset=".65" stop-color="#feea49" stop-opacity=".26"/>
      <stop offset="1" stop-color="#feea49" stop-opacity="0"/>
    </radialGradient>
  </defs>
  <path d="M508.281 546.34c41.821 0 76.95 7.879 86.893 18.554 1.845-1.977 2.826-4.056 2.826-6.194 0-13.706-40.167-24.805-89.719-24.805s-89.719 11.099-89.719 24.805c0 2.138.981 4.217 2.826 6.194 9.957-10.66 45.086-18.553 86.893-18.553" fill="url(#b)"/>
  <path d="M508.28 583.49c41.821 0 76.95-7.906 86.893-18.61-9.958-10.661-45.087-18.553-86.893-18.553s-76.951 7.878-86.893 18.553c9.957 10.704 45.086 18.61 86.893 18.61" fill="#0b1239"/>
  <path d="m553.822 270.96 3.764 22.287s29.506 2.65 29.828-3.294c.366-6.692-10.045-10.163-18.172-13.516-8.713-3.588-15.42-5.477-15.42-5.477" fill="url(#c)"/>
  <path d="m553.822 270.96 3.764 22.287s29.506 2.65 29.828-3.294c.366-6.692-10.045-10.163-18.172-13.516-8.713-3.588-15.42-5.477-15.42-5.477" fill="url(#d)"/>
  <path d="M512.425 320.206c-6.765-5.755-19.197-8.244-22.755-8.933-3.588-1.89 2.445-7.57 8.229-12.798-19.461 6.604-22.199 18.07-22.199 18.07 7.029 3.177 24.879 1.772 30.487 13.076 2.256 4.554-3.25 12.476-4.92 18.129-.073.263-.146.483-.234.732.513 1.083 1.333 1.859 2.592 2.21 5.154 1.407 6.296-4.51 9.694-12.3 3.119-7.145 4.993-13.208-.894-18.201z" fill="url(#e)"/>
  <path d="M422.546 340.486c-.205.19-1.948 20.237-4.056 23.62-9.153 23.648-25.465 28.627-31.952 39.126-.425 12.462 5.096 18.949 5.272 35.92-.205 3.427-1.04 6.165-2.197 8.274 1.552 3.587 6.648 3.426 9.782-.454 2.02-2.49 3.499-9.021 3.456-20.15 0-2.884-1.128-12.183-1.392-14.452-1.391-12.271-4.744-13.223-.951-16.298 19.534-15.771 28.232-25.435 29.198-49.51.176-4.377.015-10.806.015-10.806-2.182 1.348-6.37 3.925-7.19 4.715z" fill="url(#f)"/>
  <path d="M571.438 261.179c-9.181-5.2-18.494-8.45-25.889-11.378-131.672-47.825-195.912 86.805-221.714 117.907-22.931 27.647-65.455 44.106-106.676 18.568-37.75-23.385-23.897-63.303-10.411-94.727 7.322-17.06 18.685-35.598 28.642-58.09 26.387-59.57 28.76-95.034 21.672-121.612-14.453-54.18-55.981-81.27-55.981-81.27s5.052 10.939 7.82 21.672c2.035 7.893 1.786 17.528.571 15.507-9.006-14.907-21.848-32.566-43.52-46.214C120.514-7.07 81.27 1.07 81.27 1.07s35.539 24.088 34.338 73.45c-1.361 55.674-81.27 125.273-94.214 213.059-.293 1.992-4.203-5.461-9.504-9.723C6.018 273.142 0 271.985 0 271.985s6.165 15.039 6.472 34.134c.542 34.104 9.372 65.41 38.249 101.053 23.75 29.316 66.377 44.676 66.377 44.676s-5.33 1.216-10.953.762c-9.269.19-13.208-.835-13.208-.835s27.295 20.867 83.027 25.304c23.532 1.274 64.079 5.052 109.429-20.926 63.903-36.578 75.237-78.648 86.088-100.071 2.357-4.672 3.807-7.161 5.506-6.487 3.88 1.522 2.533 16.795 2.753 24.703.131 4.686-3.076 10.47-6.692 18.626-.996 2.255-1.172 4.774-.586 7.16 2.065 8.318 6.721 16.957 8.229 22.566 1.611 6.018 3.822 12.52 3.368 16.97-.556 5.463-.468 9.9.527 11.774 2.168 4.057 12.403 1.172 13.223-12.241-.175-16.972-5.696-23.46-5.271-35.92 6.487-10.514 22.785-15.478 31.951-39.127 2.109-3.397 3.866-23.43 4.057-23.62 1.757-1.508 6.413-4.1 12.051-7.848 9.401-6.268 13.252-9.914 13.252-9.914s2.504 7.234 6.253 12.125a7.4 7.4 0 0 0 3.499 2.533c7.512 2.519 30.751-2.3 32.172.469 1.171 2.562-1.948 3.587-1.582 10.089-.454 5.023 2.929 8.039 5.052 8.844 3.295 1.245 5.506-.63 7.995-8.99 1.684-5.653 7.19-13.575 4.92-18.13-5.608-11.318-23.458-9.912-30.487-13.075 0 0 3.324-13.911 28.613-19.915 9.679-1.567 14.307-2.138 16.049 9.547 1.816 12.125 3.514 18.275 4.774 22.14 1.274 3.955 4.32 10.632 9.972 17.22 2.475 2.886 6.97 4.248 9.987 2.959 3.69-1.567 3.016-14 5.93-20.076 4.539-9.46 11.275-8.01 15.844-25.274 2.519-9.518 1.787-16.386 1.259-18.201-1.025-3.515 19.271 1.054 19.74-3.837s-5.565-13.823-16.43-19.973z" fill="url(#g)"/>
  <path d="M365.496 356.082c2.358-4.671 3.807-7.161 5.506-6.487 3.88 1.523 2.533 16.796 2.753 24.703.132 4.686-3.075 10.47-6.692 18.626-.996 2.255-1.172 4.774-.586 7.16 2.065 8.318 6.721 16.958 8.23 22.566 1.61 6.018 3.822 12.52 3.368 16.972-.557 5.46-.469 9.898.527 11.773 2.167 4.056 12.403 1.17 13.223-12.242-.176-16.972-5.697-23.46-5.272-35.92 6.487-10.514 22.785-15.478 31.952-39.127 2.108-3.397 3.865-23.43 4.056-23.62 1.757-1.507 6.414-4.1 12.051-7.848 9.401-6.267 13.252-9.913 13.252-9.913s2.504 7.233 6.253 12.124a7.4 7.4 0 0 0 3.5 2.533c7.512 2.519 30.751-2.3 32.171.469 1.171 2.563-1.948 3.588-1.582 10.089-.453 5.023 2.929 8.039 5.052 8.845 3.295 1.244 5.506-.63 7.996-8.991 1.684-5.652 7.189-13.574 4.92-18.13-5.609-11.318-23.459-9.912-30.488-13.075 0 0 3.324-13.911 28.613-19.915 9.68-1.567 14.307-2.138 16.049 9.548 1.816 12.124 3.515 18.274 4.774 22.14 1.274 3.954 4.32 10.63 9.972 17.22 2.475 2.885 6.97 4.247 9.987 2.959 3.69-1.567 3.016-14 5.93-20.076 4.54-9.46 11.276-8.01 15.844-25.275 2.519-9.518 1.787-16.385 1.26-18.201-1.025-3.514 19.27 1.054 19.739-3.837.468-4.89-5.565-13.823-16.43-19.973-9.181-5.198-18.494-8.45-25.889-11.378-131.672-47.825-195.912 86.805-221.714 117.908-.527.629-1.083 1.259-1.625 1.889l-.864 55.615c28.159-27.251 36.301-53.595 44.149-69.116z" fill="url(#h)"/>
  <path d="M544.361 287.434c-1.772-19.168-10.661-23.678-12.769-21.335-1.377 1.523 2.518 5.609.922 5.213-1.127-.278-4.861-7.248-7.131-4.95-2.255 2.285 2.065 6.15.864 6.37-1.142.22-3.426-3.821-5.345-1.947-2.753 2.68 2.973 6.868 1.86 12.754-2.401 12.52-21.233.323-37.706 21.365 4.275-3.09 10.411-6.15 19.255-8.244 9.68-1.567 14.307-2.138 16.05 9.547 1.332 8.932 3.148 20.354 7.292 28.188 2.284-6.75 7.029-9.064 7.482-9.65-.117-4.861.996-11.32 4.306-18.186 2.65-5.506 5.549-12.257 4.92-19.11z" fill="url(#i)"/>
  <path d="M540.247 336.768c-2.548-2.372-3.676-4.583-4.262-6.736-.483-1.786-.6-3.53-.834-5.301-.117-.85-5.213 2.9-7.483 9.65a55 55 0 0 0 6.384 9.87c.352.439.689.878 1.069 1.318 2.475 2.884 6.971 4.246 9.987 2.958 1.64-.69 2.416-3.53 3.031-7-2.899-1.523-6.179-3.192-7.878-4.76z" fill="#ffc735"/>
  <path d="M545.094 348.526c.805-.337 1.405-1.201 1.874-2.401-.791-.732-2.079-1.157-4.276-.732-1.889.366-2.855 1.859-3.265 3.03 1.962.689 4.027.79 5.681.103z" fill="#0b1239"/>
  <path d="m566.136 298.49 1.699.293c1.303-7.204.717-12.286.278-13.794-1.025-3.514 19.271 1.054 19.739-3.836.469-4.891-5.564-13.824-16.429-19.974-5.975-3.382-11.993-5.93-17.528-8.112 2.635 5.49 6.545 14.848 8.478 25.318a3616 3616 0 0 0 3.749 20.105z" fill="url(#j)"/>
  <path d="M446.397 306.91s-9.108 3.822-17.645 9.693c-8.537 5.872-5.74 9.035-6.209 23.884 1.758-1.51 6.414-4.1 12.052-7.85 9.401-6.266 13.252-9.913 13.252-9.913l-.82-10.294z" fill="url(#k)"/>
  <path d="M506.172 329.636c-5.579-11.276-23.297-9.928-30.385-13.047-2.504-.044-5.227-.557-8.083-2.168 0 0 1.157 5.287 7.19 10.03.147.118-5.52 1.919-15.844-8.712-1.537-1.318.337 6.063 7.644 14.702.512.6-9.24-1.772-12.125-6.78.527 8.259 3.925 12.359 6.678 14.35 9.532.747 27.295-2.577 28.539-.175 1.172 2.562-1.947 3.588-1.581 10.089-.454 5.023 2.928 8.039 5.052 8.845 3.295 1.244 5.506-.63 7.995-8.991 1.684-5.653 7.19-13.575 4.92-18.13z" fill="url(#l)"/>
  <path d="M392.569 389.175c-2.856 3.207-8.376 7.337-8.288 6.766 1.508-8.728 3.265-14.717 2.474-16.166 0 0-3.397 4.554-5.081 7.54-2.197 3.867-5.315 7.176-5.315 7.176s.849-4.774 1.039-8.435c.308-6.018 1.186-11.363 1.186-11.363l-8.346 11.232c-.967 2.138-2.05 4.45-3.178 7.014-.996 2.255-1.171 4.774-.586 7.16 2.065 8.318 6.722 16.957 8.23 22.566 1.611 6.018 3.822 12.52 3.368 16.97-.557 5.463-.469 9.9.527 11.774 2.167 4.056 12.403 1.172 13.223-12.241-.176-16.972-5.696-23.46-5.272-35.92 2.856-4.642 7.629-8.201 12.857-12.755.732-3.821 1.376-8.493 1.376-8.493s-5.813 4.48-8.214 7.19z" fill="url(#m)"/>
  <path d="M547.802 310.335c-4.305.059-4.173 2.138-4.378 3.588-.396 2.68.571 3.85 3.382 3.749 5.037-.176 6.941-2.841 6.282-4.642-.469-1.29-1.464-2.753-5.271-2.71z" fill="url(#n)"/>
  <path d="M548.719 316.704c.913-.055 1.624-.558 1.59-1.123s-.801-.978-1.713-.923-1.624.557-1.59 1.122.801.979 1.713.924" fill="#fff"/>
  <path d="M206.748 291.549c7.322-17.06 18.685-35.598 28.642-58.09 26.387-59.57 28.76-95.034 21.672-121.612-14.453-54.18-55.981-81.27-55.981-81.27s5.052 10.939 7.82 21.672c2.035 7.893 1.786 17.528.571 15.507-9.006-14.907-21.848-32.566-43.52-46.214C120.514-7.07 81.27 1.07 81.27 1.07s35.539 24.088 34.338 73.45c-1.361 55.674-81.27 125.273-94.214 213.059-.293 1.992-4.203-5.461-9.504-9.723C6.018 273.142 0 271.985 0 271.985s6.165 15.039 6.472 34.134c.147 9.459.952 18.699 2.621 27.88l190.465 35.305c-14.248-23.048-3.426-53.023 7.19-77.755" fill="url(#o)"/>
  <path d="M133.605 29.933c10.485 11.539 17.923 18.714 28.071 49.07 11.832 35.378 2.036 72.938-19.08 93.394 25.069-13.37 41.148-44.59 37.721-78.502-1.977-19.534-6.37-28.1-16.137-44.106 7.058 5.623 10.002 8.654 16.445 18.07 6.662 9.723 14.496 22.96 18.845 34.397-5.505-18.568-3.836-38.394-14.555-53.36-10.997-15.36-19.563-22.228-39.01-29.755C125.068 6.65 96.939 3.883 96.939 3.883S118.8 15.64 133.62 29.933z" fill="url(#a)" opacity=".7"/>
  <path d="M217.159 386.276c-37.75-23.385-23.897-63.302-10.411-94.727 7.322-17.06 18.685-35.598 28.642-58.09 17.792-40.166 24.659-69.365 25.069-92.281-4.466 13.735-12.388 31.058-19.05 44.632-21.672 44.15-36.77 61.019-49.875 82.456-8.83 14.453-23.957 36.755-26.168 59.833-1.816 19.036-.512 35.539-.512 35.539s-5.404-2.006-13.428-9.225c-5.579-5.008-10.924-15.903-10.924-15.903s-1.435 53.887 50.929 74.358c26.036 10.177 61.868 8.303 87.699-10.03 5.183-3.646 9.298-7.088 12.681-10.324-21.834 9.548-48.675 9.884-74.666-6.223z" fill="url(#p)" opacity=".5"/>
  <path d="M242.098 158.793s2.826-8.86 2.504-21.232c-.322-12.374-4.525-26.49-4.525-26.49l-3.441 16.518s-1.479-11.495-5.477-27.076c-1.552-6.033-5.242-14.702-5.242-14.702s2.211 20.106 1.084 34.822c-1.128 14.717-2.124 27.06-5.33 36.11-3.207 9.035-10.602 17.148-3.72 26.124s19.651-2.416 24.161-24.074z" fill="url(#q)" opacity=".3"/>
  <path d="M61.473 212.065c11.056-19.094 13.003-19.446 23.459-36.022 3.411-6.853 9.474-13.062 16.473-26.885 5.374-10.645 9.84-19.666 14.263-31.512 3.426-9.181 10.396-37.384 10.396-37.384s4.174 18.026-1.479 41.835c-6.281 26.446-16.766 51.486-16.766 51.486s11.334-13.721 16.43-21.115c6.428-9.343 11.334-17.382 11.334-17.382s-2.212 24.674-19.564 55.586c-18.934 33.738-28.422 43.915-39.712 66.64-4.276 8.348-8.2 15.333-11.803 23.796-1.962-.483-2.826-6.926-3.177-8.332-2.929-9.46-4.628-8.668-7.834-18.07-5.58-12.593-1.07-27.148 7.995-42.611z" fill="url(#r)"/>
  <path d="M206.748 291.548c7.322-17.06 18.685-35.597 28.643-58.09 26.387-59.568 28.759-95.034 21.672-121.611-14.453-54.18-55.982-81.27-55.982-81.27s5.052 10.924 7.82 21.672c2.035 7.892 1.786 17.528.571 15.507-5.857-9.71-13.369-20.574-23.868-30.751 8.244 12.652 14.233 26.08 15.77 33.606 3.31 16.254 3.969 26.124 1.831 41.06-2.812 19.622-10.25 32.698-10.25 32.698s3.133-18.963-4.686-40.342c-3.749-10.25-11.598-20.852-11.598-20.852s4.247 20.427.029 49.333c-4.832 33.109-12.798 53.038-21.276 69.204-11.48 21.892-24.337 43.168-24.337 43.168s7.673-21.657 8.581-46.345c-1.494.483-9.636 18.055-27.09 40.342-16.181 20.647-21.072 31.307-28.203 48.366-13.487 32.259-16.21 43.315-13.94 64.21 2.591 23.825 11.084 31.323 16.854 42.744 11.158 22.082 61.37 17.294 72.923 7.249 12.637-10.631 23.942-25.92 34.28-43.857-5.682-20.925 3.368-45.32 12.256-66.041" fill="url(#s)" opacity=".48"/>
  <path d="M98.607 311.01c7.615 30.399 29.507 112.4 12.755 115.974s-37.926-15.17-46.156-22.99-24.967-25.567-30.297-48.63c-5.901-25.48-3.763-40.767-3.763-40.767l11.363 20.28s-3.148-11.45-.542-34.864c2.607-23.43 10.397-41.587 10.397-41.587 9.43-21.423 38.629 22.184 46.243 52.584" fill="url(#t)" opacity=".5"/>
</svg>
