<svg fill="none" xmlns="http://www.w3.org/2000/svg" viewBox="0 0 211 31">
  <g clip-path="url(#a)">
    <path d="M28.074 6.081c-.27.189-.662.08-.837-.192-.171-.289-.265-.663-.38-.978-.073-.197-.122-.396-.261-.566a.86.86 0 0 0-.36-.254c-.305-.121-.627-.206-.932-.33-.076-.032-.207-.085-.275-.125-.156-.083-.286-.195-.339-.369a.6.6 0 0 1 .036-.45c.274-.515 1.483-.508 1.866-.955.122-.144.182-.337.246-.512.017-.049.031-.108.055-.153.066-.218.263-.818.396-.972a.6.6 0 0 1 .303-.195.63.63 0 0 1 .464.066c.199.116.332.404.387.618.028.062.063.176.085.239q.073.21.142.424c.045.135.093.283.17.406a.7.7 0 0 0 .209.212c.178.117.37.157.568.233.326.125.807.216 1.063.465.167.164.191.476.076.671a.8.8 0 0 1-.167.195c-.186.16-.771.352-1.016.43-.602.193-.724.288-.923.879l-.18.527c-.085.247-.162.535-.394.685z" fill="#15141a"/>
    <g clip-path="url(#b)" data-figma-skip-parse="true">
      <g transform="matrix(.00535 -.00436 .03967 .01084 25.056 5.425)" fill="url(#c)" shape-rendering="crispEdges">
        <path d="M0 0h6035.81v1062.23H0z"/>
        <path d="M0 0h6035.81v-1062.23H0z"/>
        <path d="M0 0h-6035.81v1062.23H0z"/>
        <path d="M0 0h-6035.81v-1062.23H0z"/>
      </g>
    </g>
    <path d="M28.074 6.081c-.27.189-.662.08-.837-.192-.171-.289-.265-.663-.38-.978-.073-.197-.122-.396-.261-.566a.86.86 0 0 0-.36-.254c-.305-.121-.627-.206-.932-.33-.076-.032-.207-.085-.275-.125-.156-.083-.286-.195-.339-.369a.6.6 0 0 1 .036-.45c.274-.515 1.483-.508 1.866-.955.122-.144.182-.337.246-.512.017-.049.031-.108.055-.153.066-.218.263-.818.396-.972a.6.6 0 0 1 .303-.195.63.63 0 0 1 .464.066c.199.116.332.404.387.618.028.062.063.176.085.239q.073.21.142.424c.045.135.093.283.17.406a.7.7 0 0 0 .209.212c.178.117.37.157.568.233.326.125.807.216 1.063.465.167.164.191.476.076.671a.8.8 0 0 1-.167.195c-.186.16-.771.352-1.016.43-.602.193-.724.288-.923.879l-.18.527c-.085.247-.162.535-.394.685z" data-figma-gradient-fill="{&quot;type&quot;:&quot;GRADIENT_DIAMOND&quot;,&quot;stops&quot;:[{&quot;color&quot;:{&quot;r&quot;:0.60000002384185791,&quot;g&quot;:0.34901961684226990,&quot;b&quot;:1.0,&quot;a&quot;:1.0},&quot;position&quot;:0.0},{&quot;color&quot;:{&quot;r&quot;:0.92941176891326904,&quot;g&quot;:0.28627452254295349,&quot;b&quot;:0.68235296010971069,&quot;a&quot;:1.0},&quot;position&quot;:0.49519228935241699},{&quot;color&quot;:{&quot;r&quot;:1.0,&quot;g&quot;:0.59258687496185303,&quot;b&quot;:0.15707632899284363,&quot;a&quot;:1.0},&quot;position&quot;:1.0}],&quot;stopsVar&quot;:[{&quot;color&quot;:{&quot;r&quot;:0.60000002384185791,&quot;g&quot;:0.34901961684226990,&quot;b&quot;:1.0,&quot;a&quot;:1.0},&quot;position&quot;:0.0},{&quot;color&quot;:{&quot;r&quot;:0.92941176891326904,&quot;g&quot;:0.28627452254295349,&quot;b&quot;:0.68235296010971069,&quot;a&quot;:1.0},&quot;position&quot;:0.49519228935241699},{&quot;color&quot;:{&quot;r&quot;:1.0,&quot;g&quot;:0.59258687496185303,&quot;b&quot;:0.15707632899284363,&quot;a&quot;:1.0},&quot;position&quot;:1.0}],&quot;transform&quot;:{&quot;m00&quot;:10.709212303161621,&quot;m01&quot;:79.344131469726562,&quot;m02&quot;:-19.970266342163086,&quot;m10&quot;:-8.7100906372070312,&quot;m11&quot;:21.687337875366211,&quot;m12&quot;:-1.0637218952178955},&quot;opacity&quot;:1.0,&quot;blendMode&quot;:&quot;NORMAL&quot;,&quot;visible&quot;:true}"/>
    <g clip-path="url(#d)" data-figma-skip-parse="true">
      <g transform="matrix(-.0162 -.01904 -.14471 .01505 18.348 33.94)" fill="url(#e)" shape-rendering="crispEdges">
        <path d="M0 0h2573.7v418.998H0z"/>
        <path d="M0 0h2573.7v-418.998H0z"/>
        <path d="M0 0h-2573.7v418.998H0z"/>
        <path d="M0 0h-2573.7v-418.998H0z"/>
      </g>
    </g>
    <path d="M1.463 13.112c-.287 1.132 1.111 1.715 1.928 2.042a74 74 0 0 0 4.47 1.623c1.146.376 2.313.791 3.265 1.558 1.723 1.415 2.376 3.456 3.04 5.49.097.297.19.606.288.916.177.552.376 1.105.655 1.597q.108.189.234.363l.07.088-.034.045c-1.524 1.945-2.98 1.643-2.96 1.66.068.154-.344-.79-.538-1.4q-.187-.587-.379-1.184l.009-.01c-.422-1.34-.876-2.668-1.62-3.874a3.7 3.7 0 0 0-1.109-1.139 5 5 0 0 0-.316-.189c-.518-.283-1.068-.51-1.613-.732-.684-.278-1.374-.54-2.063-.804-.682-.26-1.364-.522-2.037-.802a21 21 0 0 1-.862-.38c-.23-.108-.475-.204-.691-.341-.763-.483-1.203-1.457-1.203-2.347 0-1.482 1.51-2.29 1.51-2.29a.5.5 0 0 0-.044.11" data-figma-gradient-fill="{&quot;type&quot;:&quot;GRADIENT_DIAMOND&quot;,&quot;stops&quot;:[{&quot;color&quot;:{&quot;r&quot;:1.0,&quot;g&quot;:0.59258687496185303,&quot;b&quot;:0.15707632899284363,&quot;a&quot;:1.0},&quot;position&quot;:0.0},{&quot;color&quot;:{&quot;r&quot;:0.93092811107635498,&quot;g&quot;:0.28477951884269714,&quot;b&quot;:0.68062096834182739,&quot;a&quot;:1.0},&quot;position&quot;:0.70593249797821045},{&quot;color&quot;:{&quot;r&quot;:0.60000002384185791,&quot;g&quot;:0.34901961684226990,&quot;b&quot;:1.0,&quot;a&quot;:1.0},&quot;position&quot;:1.0}],&quot;stopsVar&quot;:[{&quot;color&quot;:{&quot;r&quot;:1.0,&quot;g&quot;:0.59258687496185303,&quot;b&quot;:0.15707632899284363,&quot;a&quot;:1.0},&quot;position&quot;:0.0},{&quot;color&quot;:{&quot;r&quot;:0.93092811107635498,&quot;g&quot;:0.28477951884269714,&quot;b&quot;:0.68062096834182739,&quot;a&quot;:1.0},&quot;position&quot;:0.70593249797821045},{&quot;color&quot;:{&quot;r&quot;:0.60000002384185791,&quot;g&quot;:0.34901961684226990,&quot;b&quot;:1.0,&quot;a&quot;:1.0},&quot;position&quot;:1.0}],&quot;transform&quot;:{&quot;m00&quot;:-32.401973724365234,&quot;m01&quot;:-289.42892456054688,&quot;m02&quot;:179.26301574707031,&quot;m10&quot;:-38.079216003417969,&quot;m11&quot;:30.107324600219727,&quot;m12&quot;:37.926105499267578},&quot;opacity&quot;:1.0,&quot;blendMode&quot;:&quot;NORMAL&quot;,&quot;visible&quot;:true}"/>
    <g clip-path="url(#f)" data-figma-skip-parse="true">
      <g transform="matrix(.01326 -.01674 -.03257 -.12434 15.329 30.839)" fill="url(#g)" shape-rendering="crispEdges">
        <path d="M0 0h3118.57v507.666H0z"/>
        <path d="M0 0h3118.57v-507.666H0z"/>
        <path d="M0 0h-3118.57v507.666H0z"/>
        <path d="M0 0h-3118.57v-507.666H0z"/>
      </g>
    </g>
    <path d="M29.562 13.135c-.059-.037-.239-.135-.239-.135s.024.07.035.114c.28 1.13-1.115 1.714-1.932 2.042a74 74 0 0 1-4.47 1.623c-1.145.376-2.312.791-3.265 1.558-1.722 1.415-2.376 3.455-3.04 5.49-.097.296-.19.606-.288.916-.177.551-.375 1.105-.655 1.597q-.107.188-.234.362l-.1.138c-1.524 1.945-2.976 1.637-2.956 1.654.743 1.711 2.229 2.752 3.848 2.194 1.53-.528 2.215-2.168 2.67-3.592q.187-.589.378-1.185l-.008-.01c.422-1.339.875-2.667 1.62-3.874.28-.454.664-.847 1.108-1.138q.156-.1.316-.189c.518-.283 1.068-.51 1.614-.732.684-.279 1.374-.54 2.062-.804.683-.261 1.365-.522 2.038-.803q.435-.18.861-.378c.232-.11.475-.206.692-.343.766-.482 1.203-1.455 1.205-2.345.003-.896-.51-1.698-1.259-2.16" data-figma-gradient-fill="{&quot;type&quot;:&quot;GRADIENT_DIAMOND&quot;,&quot;stops&quot;:[{&quot;color&quot;:{&quot;r&quot;:0.60000002384185791,&quot;g&quot;:0.34901961684226990,&quot;b&quot;:1.0,&quot;a&quot;:1.0},&quot;position&quot;:0.0},{&quot;color&quot;:{&quot;r&quot;:0.93092811107635498,&quot;g&quot;:0.28477951884269714,&quot;b&quot;:0.68062096834182739,&quot;a&quot;:1.0},&quot;position&quot;:0.37417414784431458},{&quot;color&quot;:{&quot;r&quot;:1.0,&quot;g&quot;:0.59258687496185303,&quot;b&quot;:0.15707632899284363,&quot;a&quot;:1.0},&quot;position&quot;:0.83350205421447754}],&quot;stopsVar&quot;:[{&quot;color&quot;:{&quot;r&quot;:0.60000002384185791,&quot;g&quot;:0.34901961684226990,&quot;b&quot;:1.0,&quot;a&quot;:1.0},&quot;position&quot;:0.0},{&quot;color&quot;:{&quot;r&quot;:0.93092811107635498,&quot;g&quot;:0.28477951884269714,&quot;b&quot;:0.68062096834182739,&quot;a&quot;:1.0},&quot;position&quot;:0.37417414784431458},{&quot;color&quot;:{&quot;r&quot;:1.0,&quot;g&quot;:0.59258687496185303,&quot;b&quot;:0.15707632899284363,&quot;a&quot;:1.0},&quot;position&quot;:0.83350205421447754}],&quot;transform&quot;:{&quot;m00&quot;:26.518562316894531,&quot;m01&quot;:-65.133552551269531,&quot;m02&quot;:34.636177062988281,&quot;m10&quot;:-33.470260620117188,&quot;m11&quot;:-248.68571472167969,&quot;m12&quot;:171.91702270507812},&quot;opacity&quot;:1.0,&quot;blendMode&quot;:&quot;NORMAL&quot;,&quot;visible&quot;:true}"/>
    <g clip-path="url(#h)" data-figma-skip-parse="true">
      <g transform="matrix(.01926 -.0187 -.01702 -.16355 1.425 16.626)" fill="url(#i)" shape-rendering="crispEdges">
        <path d="M0 0h2167.83v381.626H0z"/>
        <path d="M0 0h2167.83v-381.626H0z"/>
        <path d="M0 0h-2167.83v381.626H0z"/>
        <path d="M0 0h-2167.83v-381.626H0z"/>
      </g>
    </g>
    <path d="M1.462 13.113c.013-.057.033-.086.04-.107 1.708-.927 5.97-2.197 7.279-3.068A3.7 3.7 0 0 0 9.889 8.8c.962-1.549 1.443-3.334 1.992-5.057.195-.61.539-1.4.539-1.4s.215-.01.235-.009c.223.004.446.042.659.106.84.25 1.53.865 2.062 1.542.013.017.022.039.034.057-.325.432-.55.933-.736 1.447-.092.254-.176.51-.261.76-.244.724-.468 1.452-.725 2.17-.254.708-.54 1.406-.91 2.062-.37.658-.83 1.269-1.387 1.78q-.13.121-.268.233c-.953.767-2.12 1.183-3.265 1.558a76 76 0 0 0-3.797 1.37l-.671-.264c-.816-.327-2.21-.904-1.928-2.042" data-figma-gradient-fill="{&quot;type&quot;:&quot;GRADIENT_DIAMOND&quot;,&quot;stops&quot;:[{&quot;color&quot;:{&quot;r&quot;:1.0,&quot;g&quot;:0.59258687496185303,&quot;b&quot;:0.15707632899284363,&quot;a&quot;:1.0},&quot;position&quot;:0.0},{&quot;color&quot;:{&quot;r&quot;:0.93092811107635498,&quot;g&quot;:0.28477951884269714,&quot;b&quot;:0.68062096834182739,&quot;a&quot;:1.0},&quot;position&quot;:0.66035610437393188},{&quot;color&quot;:{&quot;r&quot;:0.60000002384185791,&quot;g&quot;:0.34901961684226990,&quot;b&quot;:1.0,&quot;a&quot;:1.0},&quot;position&quot;:0.93814927339553833}],&quot;stopsVar&quot;:[{&quot;color&quot;:{&quot;r&quot;:1.0,&quot;g&quot;:0.59258687496185303,&quot;b&quot;:0.15707632899284363,&quot;a&quot;:1.0},&quot;position&quot;:0.0},{&quot;color&quot;:{&quot;r&quot;:0.93092811107635498,&quot;g&quot;:0.28477951884269714,&quot;b&quot;:0.68062096834182739,&quot;a&quot;:1.0},&quot;position&quot;:0.66035610437393188},{&quot;color&quot;:{&quot;r&quot;:0.60000002384185791,&quot;g&quot;:0.34901961684226990,&quot;b&quot;:1.0,&quot;a&quot;:1.0},&quot;position&quot;:0.93814927339553833}],&quot;transform&quot;:{&quot;m00&quot;:38.517070770263672,&quot;m01&quot;:-34.031570434570312,&quot;m02&quot;:-0.81767529249191284,&quot;m10&quot;:-37.384037017822266,&quot;m11&quot;:-327.10659790039062,&quot;m12&quot;:198.87168884277344},&quot;opacity&quot;:1.0,&quot;blendMode&quot;:&quot;NORMAL&quot;,&quot;visible&quot;:true}"/>
    <g clip-path="url(#j)" data-figma-skip-parse="true">
      <g transform="matrix(-.01893 -.02118 -.16134 .02425 33.968 21.189)" fill="url(#k)" shape-rendering="crispEdges">
        <path d="M0 0h2339v375.36H0z"/>
        <path d="M0 0h2339v-375.36H0z"/>
        <path d="M0 0h-2339v375.36H0z"/>
        <path d="M0 0h-2339v-375.36H0z"/>
      </g>
    </g>
    <path d="M16.27.151c1.546.47 2.214 2.168 2.669 3.592.549 1.723 1.03 3.508 1.992 5.057.28.454.664.847 1.108 1.138 1.31.871 5.577 2.135 7.284 3.062.007.02.025.075.035.113.28 1.129-1.112 1.715-1.929 2.042q-.335.134-.671.265a76 76 0 0 0-3.797-1.37c-1.146-.377-2.312-.792-3.265-1.56a6 6 0 0 1-.268-.231 7.2 7.2 0 0 1-1.387-1.781c-.37-.656-.656-1.354-.91-2.062-.257-.718-.481-1.446-.725-2.17-.085-.25-.169-.506-.261-.76-.194-.535-.423-1.06-.772-1.504-.533-.678-1.22-1.291-2.062-1.542a2.4 2.4 0 0 0-.659-.106l-.233.01S13.592-.661 16.27.15" data-figma-gradient-fill="{&quot;type&quot;:&quot;GRADIENT_DIAMOND&quot;,&quot;stops&quot;:[{&quot;color&quot;:{&quot;r&quot;:1.0,&quot;g&quot;:0.59258687496185303,&quot;b&quot;:0.15707632899284363,&quot;a&quot;:1.0},&quot;position&quot;:0.058322504162788391},{&quot;color&quot;:{&quot;r&quot;:0.93092811107635498,&quot;g&quot;:0.28477951884269714,&quot;b&quot;:0.68062096834182739,&quot;a&quot;:1.0},&quot;position&quot;:0.58618324995040894},{&quot;color&quot;:{&quot;r&quot;:0.60000002384185791,&quot;g&quot;:0.34901961684226990,&quot;b&quot;:1.0,&quot;a&quot;:1.0},&quot;position&quot;:1.0}],&quot;stopsVar&quot;:[{&quot;color&quot;:{&quot;r&quot;:1.0,&quot;g&quot;:0.59258687496185303,&quot;b&quot;:0.15707632899284363,&quot;a&quot;:1.0},&quot;position&quot;:0.058322504162788391},{&quot;color&quot;:{&quot;r&quot;:0.93092811107635498,&quot;g&quot;:0.28477951884269714,&quot;b&quot;:0.68062096834182739,&quot;a&quot;:1.0},&quot;position&quot;:0.58618324995040894},{&quot;color&quot;:{&quot;r&quot;:0.60000002384185791,&quot;g&quot;:0.34901961684226990,&quot;b&quot;:1.0,&quot;a&quot;:1.0},&quot;position&quot;:1.0}],&quot;transform&quot;:{&quot;m00&quot;:-37.850658416748047,&quot;m01&quot;:-322.6809082031250,&quot;m02&quot;:214.23428344726562,&quot;m10&quot;:-42.354568481445312,&quot;m11&quot;:48.500545501708984,&quot;m12&quot;:18.116016387939453},&quot;opacity&quot;:1.0,&quot;blendMode&quot;:&quot;NORMAL&quot;,&quot;visible&quot;:true}"/>
  </g>
  <path d="M42.644 23.12q-2.487 0-3.864-1.049-1.356-1.068-1.747-3.37h2.261v.165q0 1.11.822 1.808.843.678 2.528.678 1.603 0 2.486-.575.885-.576.884-1.603v-.206q0-.76-.534-1.192-.534-.43-1.767-.698l-2.98-.596q-1.911-.411-2.795-1.295-.885-.904-.884-2.446 0-2.014 1.439-3.103 1.438-1.11 4.09-1.11 2.465 0 3.801 1.07 1.336 1.047 1.726 3.349l-2.22-.02v-.144q0-1.11-.821-1.788-.822-.7-2.487-.7-1.582 0-2.445.576-.864.555-.864 1.603v.185q0 .78.514 1.233.535.453 1.747.678l2.98.596q1.931.411 2.816 1.316.904.883.904 2.425 0 2.014-1.46 3.123-1.459 1.09-4.13 1.09m14.621-6.988q0-1.356-.555-2.014-.534-.678-1.665-.678-1.13 0-1.685.678-.534.658-.534 2.014v6.782h-2.137V11.94h1.952v1.767h.329q.843-1.973 3.062-1.973 2.24 0 3 1.973h.432q.432-.985 1.192-1.48.78-.492 1.952-.493 1.644 0 2.507 1.049t.864 3.082v7.05H63.82v-6.783q0-1.356-.535-2.014-.533-.678-1.664-.678t-1.685.678q-.535.658-.535 2.014v6.782h-2.137zm14.479 6.988q-1.686 0-2.651-.823-.945-.821-.946-2.26 0-1.46 1.007-2.302 1.028-.842 2.98-1.027l3.165-.309v-.431q0-1.315-.555-1.911-.555-.617-1.767-.617-.78 0-1.295.247-.514.225-.76.555-.247.329-.247.657v.041h-2.199q.78-3.206 4.542-3.206 2.178 0 3.288 1.069 1.11 1.048 1.11 3.083v7.028h-1.932v-1.726h-.329q-.452.966-1.295 1.459-.822.473-2.116.473m-1.398-3.268q0 .78.576 1.192.596.411 1.705.411 1.316 0 1.994-.575.678-.576.678-1.706v-1.357l-2.548.247q-1.254.144-1.83.534-.575.39-.575 1.151zm10.015-7.912h1.953v1.829h.329q.472-.986 1.233-1.46.76-.492 1.931-.492h1.912v1.829h-2.775q-1.275 0-1.87.657-.575.658-.575 2.117v6.494H80.36zm11.937 10.974q-.699 0-1.048-.35-.35-.369-.35-1.047v-7.995h-2.363V11.94h2.364V8.816h2.137v3.124h3.309v1.582h-3.309v7.81h3.309v1.582zm9.377-14.18h2.178l2.898 11.488h.328l3.083-11.488h1.973l3.083 11.488h.308l2.898-11.488h2.096l-3.843 14.18h-2.487l-2.918-10.769h-.329l-2.939 10.77h-2.486zm21.368 4.788h-1.644V11.94h3.802v10.974h-2.158zm-.205-5.322h2.466v1.973h-2.466zm5.384 3.74h1.953v1.767h.329q.945-1.973 3.288-1.973 1.767 0 2.671 1.049.925 1.048.925 3.082v7.05h-2.158v-6.639q0-1.48-.575-2.158-.576-.678-1.85-.678t-1.87.678q-.575.678-.575 2.158v6.638h-2.138zm15.859 11.18q-2.056 0-3.247-1.5-1.192-1.522-1.192-4.193 0-2.672 1.171-4.172 1.192-1.52 3.268-1.52 2.363 0 3.349 1.972h.329a33 33 0 0 1-.082-2.404V8.076h2.137v14.838h-1.952v-1.911h-.329q-1.048 2.117-3.452 2.117m.698-1.706q1.48 0 2.179-.843.719-.863.719-2.65v-.987q0-1.788-.719-2.63-.699-.864-2.179-.864t-2.178.863q-.678.843-.678 2.63v.987q0 1.788.678 2.651.699.843 2.178.843m12.682 1.706q-2.486 0-3.884-1.48-1.397-1.5-1.397-4.213t1.397-4.192q1.397-1.5 3.884-1.5t3.864 1.5q1.397 1.479 1.397 4.192t-1.397 4.213q-1.377 1.48-3.864 1.48m0-1.706q1.541 0 2.261-.843.74-.863.74-2.671v-.946q0-1.808-.74-2.65-.72-.864-2.261-.864t-2.281.863q-.74.843-.74 2.651v.946q0 1.808.74 2.671.74.843 2.281.843m6.242-9.474h2.137l2.425 8.364h.309l2.671-8.364h1.788l2.651 8.364h.308l2.425-8.364h2.055l-3.349 10.974h-2.384l-2.487-7.85h-.308l-2.487 7.85h-2.404z" fill="#fff"/>
  <path d="M207.326 9.017a2.503 2.503 0 0 1 2.503 2.503v7.787a2.503 2.503 0 0 1-2.503 2.503h-19a2.503 2.503 0 0 1-2.503-2.503V11.52a2.503 2.503 0 0 1 2.503-2.503z" stroke="#fff" stroke-width=".556"/>
  <path d="M188.912 12.925h2.227q.702 0 1.092.354.398.348.398.976 0 .463-.225.73-.224.26-.65.319v.13q.454.058.687.34.238.275.238.759 0 .658-.405 1.02-.398.36-1.121.361h-2.241zm2.176 4.295q.34 0 .499-.16.167-.166.167-.505v-.181q0-.34-.167-.506-.159-.167-.499-.167h-1.272v1.519zm-.014-2.184q.629 0 .629-.636v-.152q0-.325-.159-.477-.152-.152-.47-.152h-1.258v1.417zm2.758-2.111h3.514v.723h-2.61v1.374h2.024v.694h-2.024v1.475h2.639v.723h-3.543zm5.729.723h-1.518v-.723h3.933v.723h-1.518v4.266h-.897zm4.041-.723h1.106l1.743 4.99h-.918l-.376-1.15h-2.032l-.376 1.15h-.882zm1.331 3.145-.731-2.227h-.13l-.723 2.227z" fill="#fff"/>
  <defs>
    <clipPath id="b">
      <path d="M28.074 6.081c-.27.189-.662.08-.837-.192-.171-.289-.265-.663-.38-.978-.073-.197-.122-.396-.261-.566a.86.86 0 0 0-.36-.254c-.305-.121-.627-.206-.932-.33-.076-.032-.207-.085-.275-.125-.156-.083-.286-.195-.339-.369a.6.6 0 0 1 .036-.45c.274-.515 1.483-.508 1.866-.955.122-.144.182-.337.246-.512.017-.049.031-.108.055-.153.066-.218.263-.818.396-.972a.6.6 0 0 1 .303-.195.63.63 0 0 1 .464.066c.199.116.332.404.387.618.028.062.063.176.085.239q.073.21.142.424c.045.135.093.283.17.406a.7.7 0 0 0 .209.212c.178.117.37.157.568.233.326.125.807.216 1.063.465.167.164.191.476.076.671a.8.8 0 0 1-.167.195c-.186.16-.771.352-1.016.43-.602.193-.724.288-.923.879l-.18.527c-.085.247-.162.535-.394.685z"/>
    </clipPath>
    <clipPath id="d">
      <path d="M1.463 13.112c-.287 1.132 1.111 1.715 1.928 2.042a74 74 0 0 0 4.47 1.623c1.146.376 2.313.791 3.265 1.558 1.723 1.415 2.376 3.456 3.04 5.49.097.297.19.606.288.916.177.552.376 1.105.655 1.597q.108.189.234.363l.07.088-.034.045c-1.524 1.945-2.98 1.643-2.96 1.66.068.154-.344-.79-.538-1.4q-.187-.587-.379-1.184l.009-.01c-.422-1.34-.876-2.668-1.62-3.874a3.7 3.7 0 0 0-1.109-1.139 5 5 0 0 0-.316-.189c-.518-.283-1.068-.51-1.613-.732-.684-.278-1.374-.54-2.063-.804-.682-.26-1.364-.522-2.037-.802a21 21 0 0 1-.862-.38c-.23-.108-.475-.204-.691-.341-.763-.483-1.203-1.457-1.203-2.347 0-1.482 1.51-2.29 1.51-2.29a.5.5 0 0 0-.044.11"/>
    </clipPath>
    <clipPath id="f">
      <path d="M29.562 13.135c-.059-.037-.239-.135-.239-.135s.024.07.035.114c.28 1.13-1.115 1.714-1.932 2.042a74 74 0 0 1-4.47 1.623c-1.145.376-2.312.791-3.265 1.558-1.722 1.415-2.376 3.455-3.04 5.49-.097.296-.19.606-.288.916-.177.551-.375 1.105-.655 1.597q-.107.188-.234.362l-.1.138c-1.524 1.945-2.976 1.637-2.956 1.654.743 1.711 2.229 2.752 3.848 2.194 1.53-.528 2.215-2.168 2.67-3.592q.187-.589.378-1.185l-.008-.01c.422-1.339.875-2.667 1.62-3.874.28-.454.664-.847 1.108-1.138q.156-.1.316-.189c.518-.283 1.068-.51 1.614-.732.684-.279 1.374-.54 2.062-.804.683-.261 1.365-.522 2.038-.803q.435-.18.861-.378c.232-.11.475-.206.692-.343.766-.482 1.203-1.455 1.205-2.345.003-.896-.51-1.698-1.259-2.16"/>
    </clipPath>
    <clipPath id="h">
      <path d="M1.462 13.113c.013-.057.033-.086.04-.107 1.708-.927 5.97-2.197 7.279-3.068A3.7 3.7 0 0 0 9.889 8.8c.962-1.549 1.443-3.334 1.992-5.057.195-.61.539-1.4.539-1.4s.215-.01.235-.009c.223.004.446.042.659.106.84.25 1.53.865 2.062 1.542.013.017.022.039.034.057-.325.432-.55.933-.736 1.447-.092.254-.176.51-.261.76-.244.724-.468 1.452-.725 2.17-.254.708-.54 1.406-.91 2.062-.37.658-.83 1.269-1.387 1.78q-.13.121-.268.233c-.953.767-2.12 1.183-3.265 1.558a76 76 0 0 0-3.797 1.37l-.671-.264c-.816-.327-2.21-.904-1.928-2.042"/>
    </clipPath>
    <clipPath id="j">
      <path d="M16.27.151c1.546.47 2.214 2.168 2.669 3.592.549 1.723 1.03 3.508 1.992 5.057.28.454.664.847 1.108 1.138 1.31.871 5.577 2.135 7.284 3.062.007.02.025.075.035.113.28 1.129-1.112 1.715-1.929 2.042q-.335.134-.671.265a76 76 0 0 0-3.797-1.37c-1.146-.377-2.312-.792-3.265-1.56a6 6 0 0 1-.268-.231 7.2 7.2 0 0 1-1.387-1.781c-.37-.656-.656-1.354-.91-2.062-.257-.718-.481-1.446-.725-2.17-.085-.25-.169-.506-.261-.76-.194-.535-.423-1.06-.772-1.504-.533-.678-1.22-1.291-2.062-1.542a2.4 2.4 0 0 0-.659-.106l-.233.01S13.592-.661 16.27.15"/>
    </clipPath>
    <clipPath id="a">
      <path fill="#fff" d="M0 0h30.826v30.826H0z"/>
    </clipPath>
    <linearGradient id="c" x1="0" y1="0" x2="500" y2="500" gradientUnits="userSpaceOnUse">
      <stop stop-color="#9959ff"/>
      <stop offset=".495" stop-color="#ed49ae"/>
      <stop offset="1" stop-color="#ff9728"/>
    </linearGradient>
    <linearGradient id="e" x1="0" y1="0" x2="500" y2="500" gradientUnits="userSpaceOnUse">
      <stop stop-color="#ff9728"/>
      <stop offset=".706" stop-color="#ed49ae"/>
      <stop offset="1" stop-color="#9959ff"/>
    </linearGradient>
    <linearGradient id="g" x1="0" y1="0" x2="500" y2="500" gradientUnits="userSpaceOnUse">
      <stop stop-color="#9959ff"/>
      <stop offset=".374" stop-color="#ed49ae"/>
      <stop offset=".834" stop-color="#ff9728"/>
    </linearGradient>
    <linearGradient id="i" x1="0" y1="0" x2="500" y2="500" gradientUnits="userSpaceOnUse">
      <stop stop-color="#ff9728"/>
      <stop offset=".66" stop-color="#ed49ae"/>
      <stop offset=".938" stop-color="#9959ff"/>
    </linearGradient>
    <linearGradient id="k" x1="0" y1="0" x2="500" y2="500" gradientUnits="userSpaceOnUse">
      <stop offset=".058" stop-color="#ff9728"/>
      <stop offset=".586" stop-color="#ed49ae"/>
      <stop offset="1" stop-color="#9959ff"/>
    </linearGradient>
  </defs>
</svg>
