<svg width="20" height="20" viewBox="0 0 20 20" fill="none" xmlns="http://www.w3.org/2000/svg">
<g clip-path="url(#clip0_114540_111654)">
<g clip-path="url(#paint0_diamond_114540_111654_clip_path)" data-figma-skip-parse="true"><g transform="matrix(-0.0105112 -0.0123528 -0.0938903 0.00976677 11.9035 22.0202)"><rect x="0" y="0" width="1184.5" height="112.579" fill="url(#paint0_diamond_114540_111654)" opacity="1" shape-rendering="crispEdges"/><rect x="0" y="0" width="1184.5" height="112.579" transform="scale(1 -1)" fill="url(#paint0_diamond_114540_111654)" opacity="1" shape-rendering="crispEdges"/><rect x="0" y="0" width="1184.5" height="112.579" transform="scale(-1 1)" fill="url(#paint0_diamond_114540_111654)" opacity="1" shape-rendering="crispEdges"/><rect x="0" y="0" width="1184.5" height="112.579" transform="scale(-1)" fill="url(#paint0_diamond_114540_111654)" opacity="1" shape-rendering="crispEdges"/></g></g><path d="M0.948592 8.50689C0.762601 9.24157 1.6699 9.61988 2.19995 9.83185C3.15627 10.2158 4.12073 10.5628 5.10018 10.8848C5.84337 11.1287 6.60031 11.3982 7.21848 11.8959C8.33607 12.8138 8.75986 14.1375 9.19114 15.4575C9.25365 15.6501 9.31365 15.8508 9.37741 16.0521C9.49242 16.4098 9.62118 16.7687 9.80244 17.0882C9.84932 17.1695 9.89932 17.2483 9.95433 17.3233C9.96933 17.3433 9.98402 17.3602 9.99902 17.3808C9.99215 17.3902 9.98465 17.4002 9.97777 17.4096C8.98894 18.6714 8.04417 18.4757 8.0573 18.4863C8.10105 18.5864 7.83416 17.9736 7.7079 17.5784C7.62664 17.3245 7.54538 17.0676 7.46225 16.8099C7.46413 16.8081 7.466 16.8062 7.46788 16.8037C7.1941 15.9346 6.8997 15.0729 6.41654 14.2901C6.23465 13.9956 5.98588 13.7405 5.69773 13.5516C5.63085 13.5079 5.56272 13.4672 5.49272 13.4291C5.15644 13.2452 4.79953 13.0983 4.44575 12.9539C4.00197 12.7732 3.55443 12.6037 3.10752 12.4324C2.66498 12.2629 2.22245 12.0935 1.78554 11.9115C1.59802 11.8334 1.41113 11.7527 1.22674 11.6658C1.07673 11.5951 0.91859 11.5326 0.777953 11.4438C0.282913 11.1305 -0.00211048 10.499 -0.00211048 9.92126C-0.00211048 8.95959 0.977462 8.43555 0.977462 8.43555C0.958984 8.47363 0.952765 8.48943 0.948592 8.50689Z" data-figma-gradient-fill="{&#34;type&#34;:&#34;GRADIENT_DIAMOND&#34;,&#34;stops&#34;:[{&#34;color&#34;:{&#34;r&#34;:1.0,&#34;g&#34;:0.59258687496185303,&#34;b&#34;:0.15707632899284363,&#34;a&#34;:1.0},&#34;position&#34;:0.0},{&#34;color&#34;:{&#34;r&#34;:0.93092811107635498,&#34;g&#34;:0.28477951884269714,&#34;b&#34;:0.68062096834182739,&#34;a&#34;:1.0},&#34;position&#34;:0.70593249797821045},{&#34;color&#34;:{&#34;r&#34;:0.60000002384185791,&#34;g&#34;:0.34901961684226990,&#34;b&#34;:1.0,&#34;a&#34;:1.0},&#34;position&#34;:1.0}],&#34;stopsVar&#34;:[{&#34;color&#34;:{&#34;r&#34;:1.0,&#34;g&#34;:0.59258687496185303,&#34;b&#34;:0.15707632899284363,&#34;a&#34;:1.0},&#34;position&#34;:0.0},{&#34;color&#34;:{&#34;r&#34;:0.93092811107635498,&#34;g&#34;:0.28477951884269714,&#34;b&#34;:0.68062096834182739,&#34;a&#34;:1.0},&#34;position&#34;:0.70593249797821045},{&#34;color&#34;:{&#34;r&#34;:0.60000002384185791,&#34;g&#34;:0.34901961684226990,&#34;b&#34;:1.0,&#34;a&#34;:1.0},&#34;position&#34;:1.0}],&#34;transform&#34;:{&#34;m00&#34;:-21.022310256958008,&#34;m01&#34;:-187.78068542480469,&#34;m02&#34;:116.30503082275391,&#34;m10&#34;:-24.705690383911133,&#34;m11&#34;:19.533550262451172,&#34;m12&#34;:24.606269836425781},&#34;opacity&#34;:1.0,&#34;blendMode&#34;:&#34;NORMAL&#34;,&#34;visible&#34;:true}"/>
<g clip-path="url(#paint1_diamond_114540_111654_clip_path)" data-figma-skip-parse="true"><g transform="matrix(0.00860258 -0.0108577 -0.0211292 -0.0806733 9.94488 20.0075)"><rect x="0" y="0" width="1253.28" height="151.102" fill="url(#paint1_diamond_114540_111654)" opacity="1" shape-rendering="crispEdges"/><rect x="0" y="0" width="1253.28" height="151.102" transform="scale(1 -1)" fill="url(#paint1_diamond_114540_111654)" opacity="1" shape-rendering="crispEdges"/><rect x="0" y="0" width="1253.28" height="151.102" transform="scale(-1 1)" fill="url(#paint1_diamond_114540_111654)" opacity="1" shape-rendering="crispEdges"/><rect x="0" y="0" width="1253.28" height="151.102" transform="scale(-1)" fill="url(#paint1_diamond_114540_111654)" opacity="1" shape-rendering="crispEdges"/></g></g><path d="M19.1795 8.52105C19.1414 8.49729 19.0244 8.43359 19.0244 8.43359C19.0244 8.43359 19.04 8.47905 19.0469 8.50781C19.2288 9.24064 18.3238 9.61967 17.7938 9.83226C16.8374 10.2162 15.873 10.5632 14.8935 10.8852C14.1503 11.1291 13.3934 11.3986 12.7752 11.8963C11.6576 12.8142 11.2338 14.1379 10.8026 15.4579C10.7401 15.6505 10.68 15.8512 10.6163 16.0525C10.5013 16.4102 10.3725 16.7691 10.1913 17.0886C10.1444 17.1699 10.0944 17.2487 10.0394 17.3237C10.0175 17.3531 9.99562 17.3844 9.97436 17.4131C8.98553 18.6749 8.04351 18.4753 8.05664 18.4859C8.53855 19.5964 9.50245 20.2713 10.5532 19.9092C11.5451 19.5672 11.9902 18.503 12.2852 17.5788C12.3664 17.325 12.4477 17.068 12.5308 16.8104C12.5289 16.8085 12.5271 16.8066 12.5252 16.8041C12.799 15.935 13.0934 15.0733 13.5765 14.2905C13.7584 13.996 14.0072 13.7409 14.2953 13.552C14.3622 13.5083 14.431 13.4676 14.5004 13.4295C14.8366 13.2456 15.1929 13.0987 15.5473 12.9543C15.9911 12.7736 16.4386 12.6041 16.8856 12.4328C17.3281 12.2633 17.7706 12.0939 18.2075 11.9119C18.3951 11.8338 18.5819 11.7531 18.7663 11.6662C18.9163 11.5955 19.0745 11.533 19.2151 11.4442C19.712 11.1316 19.9958 10.5001 19.9971 9.9223C19.9989 9.34142 19.6664 8.82119 19.1801 8.52105H19.1795Z" data-figma-gradient-fill="{&#34;type&#34;:&#34;GRADIENT_DIAMOND&#34;,&#34;stops&#34;:[{&#34;color&#34;:{&#34;r&#34;:0.60000002384185791,&#34;g&#34;:0.34901961684226990,&#34;b&#34;:1.0,&#34;a&#34;:1.0},&#34;position&#34;:0.0},{&#34;color&#34;:{&#34;r&#34;:0.93092811107635498,&#34;g&#34;:0.28477951884269714,&#34;b&#34;:0.68062096834182739,&#34;a&#34;:1.0},&#34;position&#34;:0.37417414784431458},{&#34;color&#34;:{&#34;r&#34;:1.0,&#34;g&#34;:0.59258687496185303,&#34;b&#34;:0.15707632899284363,&#34;a&#34;:1.0},&#34;position&#34;:0.83350205421447754}],&#34;stopsVar&#34;:[{&#34;color&#34;:{&#34;r&#34;:0.60000002384185791,&#34;g&#34;:0.34901961684226990,&#34;b&#34;:1.0,&#34;a&#34;:1.0},&#34;position&#34;:0.0},{&#34;color&#34;:{&#34;r&#34;:0.93092811107635498,&#34;g&#34;:0.28477951884269714,&#34;b&#34;:0.68062096834182739,&#34;a&#34;:1.0},&#34;position&#34;:0.37417414784431458},{&#34;color&#34;:{&#34;r&#34;:1.0,&#34;g&#34;:0.59258687496185303,&#34;b&#34;:0.15707632899284363,&#34;a&#34;:1.0},&#34;position&#34;:0.83350205421447754}],&#34;transform&#34;:{&#34;m00&#34;:17.205169677734375,&#34;m01&#34;:-42.258468627929688,&#34;m02&#34;:22.471525192260742,&#34;m10&#34;:-21.715414047241211,&#34;m11&#34;:-161.34661865234375,&#34;m12&#34;:111.53852844238281},&#34;opacity&#34;:1.0,&#34;blendMode&#34;:&#34;NORMAL&#34;,&#34;visible&#34;:true}"/>
<g clip-path="url(#paint2_diamond_114540_111654_clip_path)" data-figma-skip-parse="true"><g transform="matrix(0.0124949 -0.0121273 -0.0110398 -0.106113 0.924565 10.787)"><rect x="0" y="0" width="809.957" height="96.2393" fill="url(#paint2_diamond_114540_111654)" opacity="1" shape-rendering="crispEdges"/><rect x="0" y="0" width="809.957" height="96.2393" transform="scale(1 -1)" fill="url(#paint2_diamond_114540_111654)" opacity="1" shape-rendering="crispEdges"/><rect x="0" y="0" width="809.957" height="96.2393" transform="scale(-1 1)" fill="url(#paint2_diamond_114540_111654)" opacity="1" shape-rendering="crispEdges"/><rect x="0" y="0" width="809.957" height="96.2393" transform="scale(-1)" fill="url(#paint2_diamond_114540_111654)" opacity="1" shape-rendering="crispEdges"/></g></g><path d="M0.948556 8.5073C0.957267 8.47037 0.969847 8.45188 0.974847 8.43813C2.08244 7.83661 4.84763 7.01289 5.69707 6.44764C5.98459 6.2588 6.23399 6.00369 6.41588 5.70918C7.0403 4.70436 7.35221 3.54635 7.70849 2.42836C7.83475 2.03256 8.05789 1.52045 8.05789 1.52045C8.05789 1.52045 8.19727 1.51358 8.2104 1.5142C8.35541 1.5167 8.4998 1.54171 8.63794 1.58298C9.18361 1.74555 9.63052 2.14385 9.97554 2.58342C9.9843 2.59468 9.98992 2.60844 9.99805 2.62032C9.78678 2.90044 9.64114 3.22558 9.52051 3.55886C9.4605 3.72393 9.40612 3.89025 9.35112 4.05283C9.19298 4.52178 9.04734 4.99449 8.88046 5.46032C8.71607 5.91928 8.53043 6.3726 8.29041 6.79779C8.04976 7.22485 7.75224 7.62128 7.39033 7.9533C7.33408 8.0052 7.27657 8.05585 7.21657 8.10399C6.59839 8.60172 5.84083 8.87121 5.09827 9.11507C4.26883 9.38769 3.44751 9.68845 2.63494 10.0042C2.48868 9.94731 2.34492 9.89041 2.19928 9.83226C1.66986 9.62029 0.765846 9.2461 0.948556 8.5073Z" data-figma-gradient-fill="{&#34;type&#34;:&#34;GRADIENT_DIAMOND&#34;,&#34;stops&#34;:[{&#34;color&#34;:{&#34;r&#34;:1.0,&#34;g&#34;:0.59258687496185303,&#34;b&#34;:0.15707632899284363,&#34;a&#34;:1.0},&#34;position&#34;:0.0},{&#34;color&#34;:{&#34;r&#34;:0.93092811107635498,&#34;g&#34;:0.28477951884269714,&#34;b&#34;:0.68062096834182739,&#34;a&#34;:1.0},&#34;position&#34;:0.66035610437393188},{&#34;color&#34;:{&#34;r&#34;:0.60000002384185791,&#34;g&#34;:0.34901961684226990,&#34;b&#34;:1.0,&#34;a&#34;:1.0},&#34;position&#34;:0.93814927339553833}],&#34;stopsVar&#34;:[{&#34;color&#34;:{&#34;r&#34;:1.0,&#34;g&#34;:0.59258687496185303,&#34;b&#34;:0.15707632899284363,&#34;a&#34;:1.0},&#34;position&#34;:0.0},{&#34;color&#34;:{&#34;r&#34;:0.93092811107635498,&#34;g&#34;:0.28477951884269714,&#34;b&#34;:0.68062096834182739,&#34;a&#34;:1.0},&#34;position&#34;:0.66035610437393188},{&#34;color&#34;:{&#34;r&#34;:0.60000002384185791,&#34;g&#34;:0.34901961684226990,&#34;b&#34;:1.0,&#34;a&#34;:1.0},&#34;position&#34;:0.93814927339553833}],&#34;transform&#34;:{&#34;m00&#34;:24.989768981933594,&#34;m01&#34;:-22.079587936401367,&#34;m02&#34;:-0.53052520751953125,&#34;m10&#34;:-24.254659652709961,&#34;m11&#34;:-212.22586059570312,&#34;m12&#34;:129.02728271484375},&#34;opacity&#34;:1.0,&#34;blendMode&#34;:&#34;NORMAL&#34;,&#34;visible&#34;:true}"/>
<g clip-path="url(#paint3_diamond_114540_111654_clip_path)" data-figma-skip-parse="true"><g transform="matrix(-0.0122787 -0.0137398 -0.104677 0.0157335 22.0389 13.7471)"><rect x="0" y="0" width="1090.23" height="105.525" fill="url(#paint3_diamond_114540_111654)" opacity="1" shape-rendering="crispEdges"/><rect x="0" y="0" width="1090.23" height="105.525" transform="scale(1 -1)" fill="url(#paint3_diamond_114540_111654)" opacity="1" shape-rendering="crispEdges"/><rect x="0" y="0" width="1090.23" height="105.525" transform="scale(-1 1)" fill="url(#paint3_diamond_114540_111654)" opacity="1" shape-rendering="crispEdges"/><rect x="0" y="0" width="1090.23" height="105.525" transform="scale(-1)" fill="url(#paint3_diamond_114540_111654)" opacity="1" shape-rendering="crispEdges"/></g></g><path d="M10.5555 0.0977424C11.5594 0.402251 11.9925 1.50398 12.2876 2.42814C12.6438 3.54613 12.9564 4.70414 13.5802 5.70896C13.762 6.00346 14.0108 6.25857 14.299 6.44741C15.1484 7.01265 17.9174 7.83239 19.025 8.4339C19.0294 8.44766 19.0412 8.48267 19.0475 8.50706C19.2294 9.23988 18.3262 9.62005 17.7961 9.83202C17.6505 9.89079 17.5067 9.94707 17.3605 10.004C16.5479 9.6882 15.7266 9.38745 14.8971 9.11483C14.154 8.87097 13.397 8.60148 12.7788 8.10376C12.7195 8.05561 12.662 8.00496 12.6051 7.95307C12.2432 7.62042 11.9463 7.22462 11.705 6.79756C11.465 6.37237 11.2793 5.91905 11.115 5.4601C10.9481 4.99427 10.8024 4.52156 10.6443 4.0526C10.5893 3.89003 10.5349 3.72371 10.4749 3.55864C10.3493 3.21161 10.2005 2.87083 9.97424 2.58321C9.62859 2.14364 9.1823 1.74534 8.63663 1.58277C8.49787 1.5415 8.35348 1.51586 8.20909 1.51399C8.19597 1.51399 8.05769 1.52024 8.05769 1.52024C8.05769 1.52024 8.81852 -0.429364 10.5555 0.0977424Z" data-figma-gradient-fill="{&#34;type&#34;:&#34;GRADIENT_DIAMOND&#34;,&#34;stops&#34;:[{&#34;color&#34;:{&#34;r&#34;:1.0,&#34;g&#34;:0.59258687496185303,&#34;b&#34;:0.15707632899284363,&#34;a&#34;:1.0},&#34;position&#34;:0.058322504162788391},{&#34;color&#34;:{&#34;r&#34;:0.93092811107635498,&#34;g&#34;:0.28477951884269714,&#34;b&#34;:0.68062096834182739,&#34;a&#34;:1.0},&#34;position&#34;:0.58618324995040894},{&#34;color&#34;:{&#34;r&#34;:0.60000002384185791,&#34;g&#34;:0.34901961684226990,&#34;b&#34;:1.0,&#34;a&#34;:1.0},&#34;position&#34;:1.0}],&#34;stopsVar&#34;:[{&#34;color&#34;:{&#34;r&#34;:1.0,&#34;g&#34;:0.59258687496185303,&#34;b&#34;:0.15707632899284363,&#34;a&#34;:1.0},&#34;position&#34;:0.058322504162788391},{&#34;color&#34;:{&#34;r&#34;:0.93092811107635498,&#34;g&#34;:0.28477951884269714,&#34;b&#34;:0.68062096834182739,&#34;a&#34;:1.0},&#34;position&#34;:0.58618324995040894},{&#34;color&#34;:{&#34;r&#34;:0.60000002384185791,&#34;g&#34;:0.34901961684226990,&#34;b&#34;:1.0,&#34;a&#34;:1.0},&#34;position&#34;:1.0}],&#34;transform&#34;:{&#34;m00&#34;:-24.557399749755859,&#34;m01&#34;:-209.35447692871094,&#34;m02&#34;:138.99481201171875,&#34;m10&#34;:-27.479528427124023,&#34;m11&#34;:31.467020034790039,&#34;m12&#34;:11.753343582153320},&#34;opacity&#34;:1.0,&#34;blendMode&#34;:&#34;NORMAL&#34;,&#34;visible&#34;:true}"/>
</g>
<defs>
<clipPath id="paint0_diamond_114540_111654_clip_path"><path d="M0.948592 8.50689C0.762601 9.24157 1.6699 9.61988 2.19995 9.83185C3.15627 10.2158 4.12073 10.5628 5.10018 10.8848C5.84337 11.1287 6.60031 11.3982 7.21848 11.8959C8.33607 12.8138 8.75986 14.1375 9.19114 15.4575C9.25365 15.6501 9.31365 15.8508 9.37741 16.0521C9.49242 16.4098 9.62118 16.7687 9.80244 17.0882C9.84932 17.1695 9.89932 17.2483 9.95433 17.3233C9.96933 17.3433 9.98402 17.3602 9.99902 17.3808C9.99215 17.3902 9.98465 17.4002 9.97777 17.4096C8.98894 18.6714 8.04417 18.4757 8.0573 18.4863C8.10105 18.5864 7.83416 17.9736 7.7079 17.5784C7.62664 17.3245 7.54538 17.0676 7.46225 16.8099C7.46413 16.8081 7.466 16.8062 7.46788 16.8037C7.1941 15.9346 6.8997 15.0729 6.41654 14.2901C6.23465 13.9956 5.98588 13.7405 5.69773 13.5516C5.63085 13.5079 5.56272 13.4672 5.49272 13.4291C5.15644 13.2452 4.79953 13.0983 4.44575 12.9539C4.00197 12.7732 3.55443 12.6037 3.10752 12.4324C2.66498 12.2629 2.22245 12.0935 1.78554 11.9115C1.59802 11.8334 1.41113 11.7527 1.22674 11.6658C1.07673 11.5951 0.91859 11.5326 0.777953 11.4438C0.282913 11.1305 -0.00211048 10.499 -0.00211048 9.92126C-0.00211048 8.95959 0.977462 8.43555 0.977462 8.43555C0.958984 8.47363 0.952765 8.48943 0.948592 8.50689Z"/></clipPath><clipPath id="paint1_diamond_114540_111654_clip_path"><path d="M19.1795 8.52105C19.1414 8.49729 19.0244 8.43359 19.0244 8.43359C19.0244 8.43359 19.04 8.47905 19.0469 8.50781C19.2288 9.24064 18.3238 9.61967 17.7938 9.83226C16.8374 10.2162 15.873 10.5632 14.8935 10.8852C14.1503 11.1291 13.3934 11.3986 12.7752 11.8963C11.6576 12.8142 11.2338 14.1379 10.8026 15.4579C10.7401 15.6505 10.68 15.8512 10.6163 16.0525C10.5013 16.4102 10.3725 16.7691 10.1913 17.0886C10.1444 17.1699 10.0944 17.2487 10.0394 17.3237C10.0175 17.3531 9.99562 17.3844 9.97436 17.4131C8.98553 18.6749 8.04351 18.4753 8.05664 18.4859C8.53855 19.5964 9.50245 20.2713 10.5532 19.9092C11.5451 19.5672 11.9902 18.503 12.2852 17.5788C12.3664 17.325 12.4477 17.068 12.5308 16.8104C12.5289 16.8085 12.5271 16.8066 12.5252 16.8041C12.799 15.935 13.0934 15.0733 13.5765 14.2905C13.7584 13.996 14.0072 13.7409 14.2953 13.552C14.3622 13.5083 14.431 13.4676 14.5004 13.4295C14.8366 13.2456 15.1929 13.0987 15.5473 12.9543C15.9911 12.7736 16.4386 12.6041 16.8856 12.4328C17.3281 12.2633 17.7706 12.0939 18.2075 11.9119C18.3951 11.8338 18.5819 11.7531 18.7663 11.6662C18.9163 11.5955 19.0745 11.533 19.2151 11.4442C19.712 11.1316 19.9958 10.5001 19.9971 9.9223C19.9989 9.34142 19.6664 8.82119 19.1801 8.52105H19.1795Z"/></clipPath><clipPath id="paint2_diamond_114540_111654_clip_path"><path d="M0.948556 8.5073C0.957267 8.47037 0.969847 8.45188 0.974847 8.43813C2.08244 7.83661 4.84763 7.01289 5.69707 6.44764C5.98459 6.2588 6.23399 6.00369 6.41588 5.70918C7.0403 4.70436 7.35221 3.54635 7.70849 2.42836C7.83475 2.03256 8.05789 1.52045 8.05789 1.52045C8.05789 1.52045 8.19727 1.51358 8.2104 1.5142C8.35541 1.5167 8.4998 1.54171 8.63794 1.58298C9.18361 1.74555 9.63052 2.14385 9.97554 2.58342C9.9843 2.59468 9.98992 2.60844 9.99805 2.62032C9.78678 2.90044 9.64114 3.22558 9.52051 3.55886C9.4605 3.72393 9.40612 3.89025 9.35112 4.05283C9.19298 4.52178 9.04734 4.99449 8.88046 5.46032C8.71607 5.91928 8.53043 6.3726 8.29041 6.79779C8.04976 7.22485 7.75224 7.62128 7.39033 7.9533C7.33408 8.0052 7.27657 8.05585 7.21657 8.10399C6.59839 8.60172 5.84083 8.87121 5.09827 9.11507C4.26883 9.38769 3.44751 9.68845 2.63494 10.0042C2.48868 9.94731 2.34492 9.89041 2.19928 9.83226C1.66986 9.62029 0.765846 9.2461 0.948556 8.5073Z"/></clipPath><clipPath id="paint3_diamond_114540_111654_clip_path"><path d="M10.5555 0.0977424C11.5594 0.402251 11.9925 1.50398 12.2876 2.42814C12.6438 3.54613 12.9564 4.70414 13.5802 5.70896C13.762 6.00346 14.0108 6.25857 14.299 6.44741C15.1484 7.01265 17.9174 7.83239 19.025 8.4339C19.0294 8.44766 19.0412 8.48267 19.0475 8.50706C19.2294 9.23988 18.3262 9.62005 17.7961 9.83202C17.6505 9.89079 17.5067 9.94707 17.3605 10.004C16.5479 9.6882 15.7266 9.38745 14.8971 9.11483C14.154 8.87097 13.397 8.60148 12.7788 8.10376C12.7195 8.05561 12.662 8.00496 12.6051 7.95307C12.2432 7.62042 11.9463 7.22462 11.705 6.79756C11.465 6.37237 11.2793 5.91905 11.115 5.4601C10.9481 4.99427 10.8024 4.52156 10.6443 4.0526C10.5893 3.89003 10.5349 3.72371 10.4749 3.55864C10.3493 3.21161 10.2005 2.87083 9.97424 2.58321C9.62859 2.14364 9.1823 1.74534 8.63663 1.58277C8.49787 1.5415 8.35348 1.51586 8.20909 1.51399C8.19597 1.51399 8.05769 1.52024 8.05769 1.52024C8.05769 1.52024 8.81852 -0.429364 10.5555 0.0977424Z"/></clipPath><linearGradient id="paint0_diamond_114540_111654" x1="0" y1="0" x2="500" y2="500" gradientUnits="userSpaceOnUse">
<stop stop-color="#FF9728"/>
<stop offset="0.705932" stop-color="#ED49AE"/>
<stop offset="1" stop-color="#9959FF"/>
</linearGradient>
<linearGradient id="paint1_diamond_114540_111654" x1="0" y1="0" x2="500" y2="500" gradientUnits="userSpaceOnUse">
<stop stop-color="#9959FF"/>
<stop offset="0.374174" stop-color="#ED49AE"/>
<stop offset="0.833502" stop-color="#FF9728"/>
</linearGradient>
<linearGradient id="paint2_diamond_114540_111654" x1="0" y1="0" x2="500" y2="500" gradientUnits="userSpaceOnUse">
<stop stop-color="#FF9728"/>
<stop offset="0.660356" stop-color="#ED49AE"/>
<stop offset="0.938149" stop-color="#9959FF"/>
</linearGradient>
<linearGradient id="paint3_diamond_114540_111654" x1="0" y1="0" x2="500" y2="500" gradientUnits="userSpaceOnUse">
<stop offset="0.0583225" stop-color="#FF9728"/>
<stop offset="0.586183" stop-color="#ED49AE"/>
<stop offset="1" stop-color="#9959FF"/>
</linearGradient>
<clipPath id="clip0_114540_111654">
<rect width="20" height="20" fill="white"/>
</clipPath>
</defs>
</svg>
