<svg width="24" height="24" viewBox="0 0 24 24" fill="none" xmlns="http://www.w3.org/2000/svg">
<path d="M8.99995 13.267C9.65095 13.267 10.2299 12.976 10.6029 12.524C10.799 12.287 10.799 11.914 10.6029 11.676C10.2299 11.224 9.65095 10.933 8.99995 10.933C8.34895 10.933 7.76995 11.224 7.39695 11.676C7.20095 11.913 7.20095 12.287 7.39695 12.524C7.76995 12.976 8.34895 13.267 8.99995 13.267Z" fill="black"/>
<path d="M15 13.267C15.651 13.267 16.2299 12.976 16.603 12.524C16.799 12.287 16.799 11.914 16.603 11.676C16.2299 11.224 15.651 10.933 15 10.933C14.349 10.933 13.7699 11.224 13.3969 11.676C13.201 11.913 13.201 12.287 13.3969 12.524C13.7699 12.976 14.349 13.267 15 13.267Z" fill="black"/>
<path fill-rule="evenodd" clip-rule="evenodd" d="M2 12C2 17.514 6.486 22 12 22C17.514 22 22 17.514 22 12C22 6.486 17.514 2 12 2C6.486 2 2 6.486 2 12ZM17.204 8.74501C17.809 8.88201 18.2269 9.43401 18.1959 10.053C18.3589 10.672 18.1119 12.912 17.978 13.266C17.706 14.696 16.5379 15.771 15.1379 15.771C14.4909 15.771 13.8989 15.533 13.417 15.145V15.147L12.959 14.768C12.3879 14.296 11.5599 14.302 10.997 14.784L10.6919 15.045C10.191 15.492 9.55795 15.771 8.85895 15.771C7.45795 15.771 6.28995 14.695 6.01895 13.266C5.88395 12.912 5.64595 10.662 5.79995 10.053V10.049C5.77095 9.43201 6.18995 8.88201 6.79195 8.74501C8.28995 8.40501 9.85995 8.82801 10.9839 9.87501L11.1719 10.05C11.396 10.259 11.691 10.375 11.9979 10.375C12.304 10.375 12.5989 10.26 12.823 10.051L13.0149 9.87201C14.139 8.82701 15.707 8.40501 17.204 8.74501Z" fill="black"/>
</svg>
