<svg xmlns="http://www.w3.org/2000/svg" width="265" height="140" fill="none" viewBox="0 0 265 140"><path fill="#fff" stroke="#333336" d="M71.5 11.533h150.953v85.804a4.43 4.43 0 0 1-4.431 4.431H75.932a4.43 4.43 0 0 1-4.432-4.431z"/><path fill="#0290ff" stroke="#333336" d="M71.5 4.931A4.43 4.43 0 0 1 75.931.5h142.091a4.43 4.43 0 0 1 4.431 4.431v7.465H71.5z"/><path stroke="#333336" stroke-linecap="round" stroke-linejoin="round" d="M78.75 7.935a1.49 1.49 0 0 0 1.492-1.487 1.49 1.49 0 0 0-1.493-1.487 1.49 1.49 0 0 0-1.492 1.487 1.49 1.49 0 0 0 1.492 1.487m5.799 0a1.49 1.49 0 0 0 1.492-1.487 1.49 1.49 0 0 0-1.492-1.487 1.49 1.49 0 0 0-1.493 1.487 1.49 1.49 0 0 0 1.493 1.487m5.832 0a1.49 1.49 0 0 0 1.493-1.487 1.49 1.49 0 0 0-1.492-1.487 1.49 1.49 0 0 0-1.493 1.487 1.49 1.49 0 0 0 1.493 1.487"/><path fill="#fff" stroke="#333336" d="M34.5 29.533h150.953v85.804a4.43 4.43 0 0 1-4.431 4.431H38.932a4.43 4.43 0 0 1-4.432-4.431z"/><path fill="#0290ff" stroke="#333336" d="M34.5 22.931a4.43 4.43 0 0 1 4.431-4.431h142.091a4.43 4.43 0 0 1 4.431 4.431v7.464H34.5z"/><path stroke="#333336" stroke-linecap="round" stroke-linejoin="round" d="M41.75 25.935a1.49 1.49 0 0 0 1.492-1.487 1.49 1.49 0 0 0-1.493-1.487 1.49 1.49 0 0 0-1.492 1.487 1.49 1.49 0 0 0 1.492 1.487m5.799 0a1.49 1.49 0 0 0 1.492-1.487 1.49 1.49 0 0 0-1.492-1.487 1.49 1.49 0 0 0-1.493 1.487 1.49 1.49 0 0 0 1.493 1.487m5.832 0a1.49 1.49 0 0 0 1.493-1.487 1.49 1.49 0 0 0-1.492-1.487 1.49 1.49 0 0 0-1.493 1.487 1.49 1.49 0 0 0 1.493 1.487"/><path fill="#fff" stroke="#333336" d="M.5 48.533h150.953v85.804a4.43 4.43 0 0 1-4.431 4.431H4.932A4.43 4.43 0 0 1 .5 134.337z"/><path fill="#0290ff" stroke="#333336" d="M.5 41.931A4.43 4.43 0 0 1 4.931 37.5h142.091a4.43 4.43 0 0 1 4.431 4.431v7.465H.5z"/><path stroke="#333336" stroke-linecap="round" stroke-linejoin="round" d="M7.75 44.935a1.49 1.49 0 0 0 1.492-1.487 1.49 1.49 0 0 0-1.493-1.487 1.49 1.49 0 0 0-1.492 1.487 1.49 1.49 0 0 0 1.492 1.487m5.799 0a1.49 1.49 0 0 0 1.492-1.487 1.49 1.49 0 0 0-1.492-1.487 1.49 1.49 0 0 0-1.493 1.487 1.49 1.49 0 0 0 1.493 1.487m5.832 0a1.49 1.49 0 0 0 1.493-1.487 1.49 1.49 0 0 0-1.492-1.487 1.49 1.49 0 0 0-1.493 1.487 1.49 1.49 0 0 0 1.493 1.487"/><rect width="90" height="17" x="32" y="80" stroke="#333336" rx="8.5"/><path stroke="#333336" d="M43.611 90.722a3.111 3.111 0 1 0 0-6.222 3.111 3.111 0 0 0 0 6.222Z" clip-rule="evenodd"/><path stroke="#333336" stroke-linecap="round" d="M45.834 89.833 48.5 92.5"/><path fill="url(#a)" stroke="#333336" stroke-linejoin="round" d="M255.534 56.72a8.83 8.83 0 0 0-5.335 1.789V45.982a7.17 7.17 0 0 0-2.107-5.071 7.15 7.15 0 0 0-5.078-2.084h-12.528a8.94 8.94 0 0 0 .863-9.373 8.94 8.94 0 0 0-8-4.954 8.94 8.94 0 0 0-8 4.954 8.94 8.94 0 0 0 .863 9.373h-12.534a7.15 7.15 0 0 0-7.178 7.155v10.915a9 9 0 0 1 1.788-.177c2.37 0 4.644.942 6.32 2.62a8.947 8.947 0 0 1 0 12.647 8.94 8.94 0 0 1-6.32 2.62 9 9 0 0 1-1.788-.177v10.88a7.164 7.164 0 0 0 7.178 7.19h10.876a9 9 0 0 1-.177-1.79c0-2.371.942-4.646 2.618-6.323a8.936 8.936 0 0 1 12.641 0 8.95 8.95 0 0 1 2.618 6.324c0 .6-.059 1.2-.177 1.788h10.876a7.155 7.155 0 0 0 6.692-4.4 7.2 7.2 0 0 0 .554-2.76V72.817a8.93 8.93 0 0 0 11.623-.771 8.94 8.94 0 0 0 2.576-7.732 8.95 8.95 0 0 0-4.763-6.612 8.94 8.94 0 0 0-4.073-.983z"/><defs><linearGradient id="a" x1="230.047" x2="230.047" y1="24.5" y2="79.119" gradientUnits="userSpaceOnUse"><stop stop-color="#ffea80"/><stop offset="1" stop-color="#ff7139"/></linearGradient></defs></svg>
