<svg xmlns="http://www.w3.org/2000/svg" width="36" height="42" fill="none" viewBox="0 0 36 42"><path fill="#333336" d="M32.303 20.472 29.39 31.437a.744.744 0 0 1-1.169.401.74.74 0 0 1-.266-.781L30.87 20.09a12.35 12.35 0 0 0-1.625-9.932.75.75 0 0 1 .815-1.129c.177.049.33.16.431.314a13.87 13.87 0 0 1 1.813 11.128M28.355 7.81a.74.74 0 0 1-.735.22.8.8 0 0 1-.315-.175 12.27 12.27 0 0 0-15.13-1.245.77.77 0 0 1-.602.093.748.748 0 0 1-.213-1.34A13.77 13.77 0 0 1 28.315 6.77a.733.733 0 0 1 .04 1.04M9.273 9.242A12.2 12.2 0 0 0 7 13.75l-2.24 8.435a.742.742 0 1 1-1.434-.38l2.24-8.436A13.7 13.7 0 0 1 8.11 8.32a.745.745 0 0 1 1.231.1.74.74 0 0 1-.067.823m12.909 8.54-3.137 11.81a.742.742 0 0 1-1.434-.381l3.137-11.81a1.878 1.878 0 0 0-3.367-1.535 1.9 1.9 0 0 0-.26.572l-2.913 10.966a8.21 8.21 0 0 1-6.634 6.176.76.76 0 0 1-.652-.25.74.74 0 0 1-.179-.396.754.754 0 0 1 .645-.83 6.72 6.72 0 0 0 5.386-5.081l2.912-10.966c.096-.369.256-.717.473-1.03a3.38 3.38 0 0 1 3.123-1.449 3.355 3.355 0 0 1 2.9 4.204"/><path fill="#333336" d="m19.656 17.11-2.464 9.278a.742.742 0 1 1-1.434-.38l2.464-9.28a.742.742 0 1 1 1.434.381M16.517 28.92c-1.432 5.39-6.529 6.934-6.743 6.995a.747.747 0 0 1-.922-.507.75.75 0 0 1 .506-.922 8.83 8.83 0 0 0 5.725-5.948.742.742 0 1 1 1.434.381m1.636 3.297a14.2 14.2 0 0 1-5.064 5.365.737.737 0 0 1-1.012-.269.743.743 0 0 1 .268-1.012 12.9 12.9 0 0 0 4.475-4.744.75.75 0 0 1 .853-.388l.139.055a.7.7 0 0 1 .374.424.75.75 0 0 1-.033.57"/><path fill="#333336" d="m24.714 18.455-3.36 12.653c-1.407 5.298-4.754 7.29-4.892 7.37a.738.738 0 0 1-1.087-.83.74.74 0 0 1 .343-.451c.024-.02 2.967-1.822 4.202-6.47l3.36-12.652a4.494 4.494 0 1 0-8.689-2.308l-2.464 9.279c-1.696 6.385-6.725 6.179-6.77 6.176L5.21 31.2a.746.746 0 0 1-.3-1.274.73.73 0 0 1 .541-.18c.153.005 3.865.106 5.242-5.082l2.465-9.279a5.977 5.977 0 1 1 11.556 3.07"/><path fill="#333336" d="M13.655 12.158a7 7 0 0 0-1.592 2.937l-2.465 9.279c-.452 1.703-2.162 4.708-5.401 3.848a.742.742 0 1 1 .38-1.434c2.624.696 3.55-2.652 3.588-2.795l2.464-9.28a8.5 8.5 0 0 1 1.936-3.548.73.73 0 0 1 1.042-.049.74.74 0 0 1 .202.795.7.7 0 0 1-.154.247m13.588 6.97-3.584 13.496a13.5 13.5 0 0 1-2.349 5.138.742.742 0 0 1-1.112-.981 12.4 12.4 0 0 0 2.027-4.537l3.584-13.497a7.108 7.108 0 0 0-9.18-8.551.7.7 0 0 1-.43.021.742.742 0 0 1-.046-1.421 8.5 8.5 0 0 1 4.988-.183 8.61 8.61 0 0 1 6.102 10.515"/><path fill="#333336" d="M20.64 6.563a.747.747 0 0 1-.81.67 9.82 9.82 0 0 0-10.298 7.19l-2.24 8.434a3.266 3.266 0 0 1-4.11 2.385.742.742 0 0 1 .38-1.434 1.764 1.764 0 0 0 2.296-1.331l2.24-8.436a11.184 11.184 0 0 1 11.873-8.288l.111.02a.75.75 0 0 1 .558.79m9.137 13.236-.672 2.53a.742.742 0 1 1-1.434-.38l.672-2.531A9.816 9.816 0 0 0 22.97 8.067a.743.743 0 0 1 .505-1.392l.107.037A11.184 11.184 0 0 1 29.777 19.8m-1.571 5.905-2.465 9.279a.742.742 0 1 1-1.434-.38l2.465-9.28a.742.742 0 1 1 1.434.381"/></svg>
