<svg xmlns="http://www.w3.org/2000/svg" width="41" height="42" fill="none" viewBox="0 0 41 42"><path stroke="#333336" stroke-width="1.046" d="M.523 7.433h35.984V35.07a1.87 1.87 0 0 1-1.87 1.869H2.393a1.87 1.87 0 0 1-1.87-1.869zm0-5.041A1.87 1.87 0 0 1 2.392.523h32.246a1.87 1.87 0 0 1 1.869 1.87v5.04H.523z"/><path stroke="#333336" stroke-width="1.046" d="M4.954 5.213c.615 0 1.114-.492 1.114-1.1 0-.607-.499-1.1-1.114-1.1s-1.115.493-1.115 1.1.5 1.1 1.115 1.1Zm4.236 0c.615 0 1.114-.492 1.114-1.1 0-.607-.499-1.1-1.114-1.1s-1.115.493-1.115 1.1.5 1.1 1.115 1.1Zm4.238 0c.615 0 1.114-.492 1.114-1.1 0-.607-.498-1.1-1.114-1.1s-1.115.493-1.115 1.1.5 1.1 1.115 1.1Z"/><path stroke="#333336" stroke-linecap="round" stroke-linejoin="round" stroke-width="1.046" d="M26.413 14.067a2.12 2.12 0 0 1-1.902 1.188 2.11 2.11 0 0 1-1.733-.901 2.118 2.118 0 0 1-3.848-1.1 2.115 2.115 0 0 1-2.87-2.426c-4.5 1.131-7.835 5.208-7.835 10.062 0 5.73 4.644 10.374 10.374 10.374S28.97 26.619 28.97 20.89c0-2.615-.966-5-2.56-6.823z"/><path fill="#333336" stroke="#333336" stroke-linecap="round" stroke-linejoin="round" stroke-width=".523" d="M13.63 17.514a1.11 1.11 0 0 0 1.108-1.108 1.107 1.107 0 1 0-2.214 0c0 .612.496 1.108 1.106 1.108m3.74 4.56a.79.79 0 1 0-.001-1.58.79.79 0 0 0 0 1.58m-5.415 1.074a.987.987 0 1 0-.001-1.974.987.987 0 0 0 0 1.974m11.011-3.178a1.34 1.34 0 0 0 0-1.891 1.34 1.34 0 0 0-1.892 0 1.34 1.34 0 0 0 0 1.891 1.34 1.34 0 0 0 1.892 0m1.709 3.77a.856.856 0 0 0 .856-.854.856.856 0 0 0-1.711 0c0 .473.383.855.855.855m-7.151 4.846a1.096 1.096 0 1 0 0-2.193c-.607 0-1.095.49-1.095 1.097 0 .608.49 1.096 1.095 1.096"/><path fill="#f8f6f4" stroke="#333336" stroke-width="1.046" d="M40.455 31.264c0 5.114-4.15 9.26-9.268 9.26s-9.268-4.146-9.268-9.26 4.15-9.26 9.268-9.26 9.268 4.147 9.268 9.26Z"/><path stroke="#333336" stroke-width="1.046" d="M37.58 31.722a6.406 6.406 0 1 0-12.78-.91 6.406 6.406 0 0 0 12.78.91Zm-1.707-4.697-8.929 8.927"/></svg>
