<svg xmlns="http://www.w3.org/2000/svg" width="42" height="42" fill="none" viewBox="0 0 42 42"><path stroke="#333336" stroke-linecap="round" stroke-linejoin="round" stroke-width="1.121" d="M20.56 40.56c11.046 0 20-8.954 20-20s-8.954-20-20-20-20 8.955-20 20 8.955 20 20 20"/><path stroke="#333336" stroke-width="1.121" d="M16.914 14.339c1.478.405 2.713 1.218 3.65 1.218.939 0 2.188-.817 3.651-1.218 1.09-.298 9.737-2.433 9.737 4.26 0 8.519-4.26 9.737-6.695 9.737s-4.869-3.042-6.696-3.042-4.26 3.041-6.695 3.041S7.17 27.118 7.17 18.6c0-6.696 8.654-4.558 9.737-4.26z" clip-rule="evenodd"/><path fill="#333336" fill-rule="evenodd" stroke="#333336" stroke-linecap="round" stroke-linejoin="round" stroke-width="1.121" d="M23.61 20.423s.608-.61 1.826-.61 2.433.61 2.433.61-1.218.609-2.433.609-1.827-.61-1.827-.61m-10.353.059s1.218-.668 2.433-.668 1.827.668 1.827.668-.61.55-1.827.55-2.433-.55-2.433-.55" clip-rule="evenodd"/></svg>
