<svg width="16" height="16" viewBox="0 0 16 16" fill="none" xmlns="http://www.w3.org/2000/svg">
<path d="M6.44098 16H4.83198L5.83098 9.25H3.62398C3.36541 9.24948 3.11067 9.18746 2.8808 9.06905C2.65093 8.95063 2.45253 8.77923 2.30198 8.569C2.1516 8.35787 2.05374 8.11392 2.01652 7.85739C1.97931 7.60087 2.0038 7.33916 2.08798 7.094L4.10298 1.262C4.2309 0.893595 4.47033 0.574149 4.78805 0.348003C5.10577 0.121857 5.486 0.000228542 5.87598 2.59699e-07H8.91298C9.17186 -0.000146126 9.42701 0.0615948 9.65718 0.180076C9.88734 0.298556 10.0859 0.470343 10.2362 0.681115C10.3865 0.891886 10.4842 1.13553 10.5212 1.39174C10.5582 1.64795 10.5335 1.9093 10.449 2.154L9.47198 5H12.374C13.016 5 13.582 5.363 13.85 5.947C13.9818 6.22956 14.0287 6.5443 13.985 6.853C13.9413 7.1617 13.809 7.45108 13.604 7.686L6.44098 16ZM12.52 6.25H8.42198C8.34241 6.25 8.26399 6.231 8.19324 6.19459C8.12249 6.15819 8.06145 6.10542 8.01519 6.04068C7.96893 5.97593 7.93879 5.90109 7.92728 5.82235C7.91576 5.74362 7.9232 5.66328 7.94898 5.588L9.26798 1.748L8.91398 1.25H5.87498L5.28498 1.671L3.26898 7.502L3.62398 8H6.69998C6.77185 7.99995 6.84287 8.01539 6.90823 8.04527C6.97358 8.07514 7.03173 8.11876 7.07871 8.17314C7.12569 8.22752 7.16039 8.29139 7.18046 8.36039C7.20052 8.42939 7.20548 8.50191 7.19498 8.573L6.36498 14.174L12.803 6.7L12.52 6.25Z" fill="black"/>
</svg>
