<svg width="16" height="16" viewBox="0 0 16 16" fill="none" xmlns="http://www.w3.org/2000/svg">
<g clip-path="url(#clip0_7809_1506)">
<path d="M15.358 11H14.002V8H12.502V11H11.145C10.795 11 10.62 11.423 10.867 11.67L12.974 13.777C13.127 13.93 13.376 13.93 13.529 13.777L15.636 11.67C15.883 11.423 15.708 11 15.358 11Z" fill="black"/>
<path d="M9.807 12.731C9.585 12.508 9.444 12.236 9.355 11.949C8.64 12.293 7.846 12.5 7.001 12.5C3.969 12.5 1.501 10.032 1.501 7C1.501 5.754 1.923 4.607 2.624 3.684L9.476 10.536C9.72 10.061 10.141 9.723 10.645 9.584L3.684 2.623C4.607 1.922 5.754 1.5 7 1.5C9.863 1.5 12.221 3.701 12.475 6.5H13.975C13.717 2.874 10.691 0 7 0C3.141 0 0 3.141 0 7C0 10.859 3.141 14 7 14C8.178 14 9.288 13.704 10.263 13.188L9.806 12.731H9.807Z" fill="black"/>
<path d="M16 14.5H10V16H16V14.5Z" fill="black"/>
</g>
<defs>
<clipPath id="clip0_7809_1506">
<rect width="16" height="16" fill="white"/>
</clipPath>
</defs>
</svg>
