<svg width="24" height="24" viewBox="0 0 24 24" fill="none" xmlns="http://www.w3.org/2000/svg">
<path d="M11.9999 3.75C10.7489 3.75 9.67294 4.46899 9.12994 5.50806L7.84595 4.224C8.74396 2.88403 10.27 2 11.9999 2C14.757 2 16.9999 4.24304 16.9999 7V11C18.3789 11 19.4999 12.121 19.4999 13.5V15.877L17.7499 14.127V13.5C17.7499 13.087 17.4139 12.75 16.9999 12.75H16.3719L14.6219 11H15.2499V7C15.2499 5.20801 13.792 3.75 11.9999 3.75Z" fill="black"/>
<path d="M17.75 19.5V16.2479L19.5 17.9979V19.5C19.5 20.879 18.379 22 17 22H7C5.62201 22 4.5 20.879 4.5 19.5V13.5C4.5 12.121 5.62201 11 7 11V7C7 6.54492 7.08099 6.11292 7.19501 5.69397L8.75 7.24902V11H12.501L14.251 12.75H7C6.586 12.75 6.25 13.0869 6.25 13.5V19.5C6.25 19.913 6.586 20.25 7 20.25H17C17.414 20.25 17.75 19.913 17.75 19.5Z" fill="black"/>
<path fill-rule="evenodd" clip-rule="evenodd" d="M3.98744 2.50024L22.2494 20.7622L21.012 21.9997L2.75 3.73768L3.98744 2.50024Z" fill="black"/>
</svg>
