<svg width="24" height="24" viewBox="0 0 24 24" fill="none" xmlns="http://www.w3.org/2000/svg">
<path fill-rule="evenodd" clip-rule="evenodd" d="M15.4661 13.4925C15.9201 12.7022 17.0803 12.7022 17.5344 13.4925L20.8459 19.266C21.2909 20.041 20.7188 21.0003 19.8118 21.0003H13.1887C12.2809 21.0002 11.7087 20.0409 12.1545 19.266L15.4661 13.4925ZM15.8752 18.7503V20.0003H17.1252V18.7503H15.8752ZM15.8752 15.5003V17.5003H17.1252V15.5003H15.8752Z" fill="black"/>
<path d="M11.07 18.644L14.381 12.871C14.639 12.421 15.027 12.095 15.477 11.889C15.63 11.819 15.788 11.758 15.955 11.72C16.127 11.677 16.305 11.652 16.489 11.651C16.492 11.651 16.496 11.65 16.499 11.65C16.661 11.65 16.815 11.681 16.97 11.711C16.829 10.746 16.004 10 15 10V7C15 4.794 13.206 3 11 3C8.794 3 7 4.794 7 7V10C5.897 10 5 10.897 5 12V17C5 18.103 5.897 19 7 19H10.923C10.968 18.88 11.004 18.758 11.07 18.644ZM8.5 7C8.5 5.621 9.621 4.5 11 4.5C12.379 4.5 13.5 5.621 13.5 7V10H8.5V7Z" fill="black"/>
</svg>
