<svg width="16" height="16" viewBox="0 0 16 16" fill="none" xmlns="http://www.w3.org/2000/svg">
<path fill-rule="evenodd" clip-rule="evenodd" d="M13.875 8C13.875 11.446 11.071 14.25 7.625 14.25C4.179 14.25 1.375 11.446 1.375 8C1.375 4.554 4.179 1.75 7.625 1.75C11.071 1.75 13.875 4.554 13.875 8ZM4.75487 14.9291C5.66482 15.306 6.64009 15.5 7.625 15.5C9.61412 15.5 11.5218 14.7098 12.9283 13.3033C14.3348 11.8968 15.125 9.98912 15.125 8C15.125 6.01088 14.3348 4.10322 12.9283 2.6967C11.5218 1.29018 9.61412 0.5 7.625 0.5C6.64009 0.5 5.66482 0.693993 4.75487 1.0709C3.84493 1.44781 3.01814 2.00026 2.3217 2.6967C1.62526 3.39314 1.07281 4.21993 0.695904 5.12987C0.318993 6.03982 0.125 7.01509 0.125 8C0.125 8.98491 0.318993 9.96018 0.695904 10.8701C1.07281 11.7801 1.62526 12.6069 2.3217 13.3033C3.01814 13.9997 3.84493 14.5522 4.75487 14.9291ZM8.25 9.062C8.25 9.22776 8.18415 9.38673 8.06694 9.50394C7.94973 9.62115 7.79076 9.687 7.625 9.687C7.45924 9.687 7.30027 9.62115 7.18306 9.50394C7.06585 9.38673 7 9.22776 7 9.062V4.625C7 4.45924 7.06585 4.30027 7.18306 4.18306C7.30027 4.06585 7.45924 4 7.625 4C7.79076 4 7.94973 4.06585 8.06694 4.18306C8.18415 4.30027 8.25 4.45924 8.25 4.625V9.062ZM7.25 12L7 11.75V11L7.25 10.75H8L8.25 11V11.75L8 12H7.25Z" fill="black"/>
</svg>
