<svg width="16" height="16" viewBox="0 0 16 16" fill="none" xmlns="http://www.w3.org/2000/svg">
<path d="M7.625 15.5C6.64009 15.5 5.66482 15.306 4.75487 14.9291C3.84493 14.5522 3.01814 13.9997 2.3217 13.3033C1.62526 12.6069 1.07281 11.7801 0.695904 10.8701C0.318993 9.96018 0.125 8.98491 0.125 8C0.125 7.01509 0.318993 6.03982 0.695904 5.12987C1.07281 4.21993 1.62526 3.39314 2.3217 2.6967C3.01814 2.00026 3.84493 1.44781 4.75487 1.0709C5.66482 0.693993 6.64009 0.5 7.625 0.5C9.61412 0.5 11.5218 1.29018 12.9283 2.6967C14.3348 4.10322 15.125 6.01088 15.125 8C15.125 9.98912 14.3348 11.8968 12.9283 13.3033C11.5218 14.7098 9.61412 15.5 7.625 15.5ZM8.25 4.625C8.25 4.45924 8.18415 4.30027 8.06694 4.18306C7.94973 4.06585 7.79076 4 7.625 4C7.45924 4 7.30027 4.06585 7.18306 4.18306C7.06585 4.30027 7 4.45924 7 4.625V9.063C7 9.22876 7.06585 9.38773 7.18306 9.50494C7.30027 9.62215 7.45924 9.688 7.625 9.688C7.79076 9.688 7.94973 9.62215 8.06694 9.50494C8.18415 9.38773 8.25 9.22876 8.25 9.063V4.625ZM8.25 11L8 10.75H7.25L7 11V11.75L7.25 12H8L8.25 11.75V11Z" fill="black"/>
</svg>
