<svg width="16" height="16" viewBox="0 0 16 16" fill="none" xmlns="http://www.w3.org/2000/svg">
<g clip-path="url(#clip0_5101_1212)">
<path fill-rule="evenodd" clip-rule="evenodd" d="M13.0069 1.06125L14.9393 2.99366C15.6851 3.7411 15.6865 4.95311 14.9393 5.70032L13.0542 7.58548L13.8404 8.37167L12.7797 9.43233L11.9935 8.64614L5.35933 15.2803C5.21868 15.421 5.02791 15.5 4.829 15.5H1.25C0.835786 15.5 0.5 15.1642 0.5 14.75V11.171C0.5 10.9721 0.579018 10.7813 0.71967 10.6407L7.35385 4.00648L6.56769 3.22033L7.62835 2.15966L8.41451 2.94582L10.2997 1.06066C11.0472 0.313122 12.2596 0.312338 13.0069 1.06125ZM2 11.4817L8.41451 5.06714L10.9329 7.58548L4.51834 14H2V11.4817Z" fill="black"/>
</g>
<defs>
<clipPath id="clip0_5101_1212">
<rect width="16" height="16" fill="white"/>
</clipPath>
</defs>
</svg>
