<svg width="16" height="16" viewBox="0 0 16 16" fill="none" xmlns="http://www.w3.org/2000/svg">
<path fill-rule="evenodd" clip-rule="evenodd" d="M5.287 10.502C5.291 10.329 5.321 10.162 5.362 10H1.604C1.547 10 1.5 9.957 1.5 9.903V5.10126L5.53 8.33505C5.668 8.44505 5.834 8.50005 6 8.50005C6.166 8.50005 6.332 8.44505 6.47 8.33505L10.5 5.10126V8.923C10.764 9.081 11.016 9.261 11.249 9.47C11.482 9.26 11.735 9.08 12 8.922V4.097C12 3.216 11.28 2.5 10.396 2.5H1.604C0.72 2.5 0 3.216 0 4.097V9.904C0 10.784 0.72 11.5 1.604 11.5H5.263C5.248 11.127 5.252 10.771 5.287 10.502ZM6 6.78805L2.52484 4H9.47515L6 6.78805Z" fill="black"/>
<path fill-rule="evenodd" clip-rule="evenodd" d="M15.205 9.58905C15.665 9.69405 15.983 10.1191 15.959 10.5961C16.083 11.0731 15.895 12.7981 15.793 13.0711C15.587 14.1721 14.699 15.0001 13.635 15.0001C13.143 15.0001 12.693 14.8171 12.327 14.5181V14.5201L11.979 14.2281C11.545 13.8641 10.916 13.8691 10.488 14.2401L10.256 14.4411C9.87599 14.7851 9.39499 15.0001 8.86299 15.0001C7.79799 15.0001 6.91099 14.1721 6.70299 13.0721C6.60099 12.7991 6.41999 11.0661 6.53699 10.5971V10.5941C6.51499 10.1191 6.83399 9.69605 7.29199 9.59005C8.43099 9.32805 9.62399 9.65306 10.478 10.4601L10.621 10.5951C10.792 10.7561 11.016 10.8451 11.249 10.8451C11.481 10.8451 11.706 10.7561 11.876 10.5951L12.022 10.4571C12.876 9.65205 14.068 9.32705 15.205 9.58905ZM9.97027 11.6935C10.0511 11.7531 10.1245 11.8208 10.189 11.895C10.324 12.05 10.324 12.294 10.189 12.449C10.0962 12.556 9.9848 12.6492 9.85928 12.7245C9.63864 12.8568 9.37427 12.934 9.09 12.934C8.644 12.934 8.247 12.744 7.991 12.449C7.857 12.294 7.857 12.05 7.991 11.895C8.247 11.6 8.644 11.41 9.09 11.41C9.4237 11.41 9.72997 11.5164 9.97027 11.6935ZM14.475 12.445C14.222 12.735 13.829 12.922 13.387 12.922C12.945 12.922 12.553 12.735 12.299 12.445C12.166 12.2929 12.166 12.053 12.299 11.901C12.552 11.611 12.945 11.424 13.387 11.424C13.829 11.424 14.221 11.611 14.475 11.901C14.608 12.053 14.608 12.2929 14.475 12.445Z" fill="black"/>
</svg>
