<svg width="16" height="16" viewBox="0 0 16 16" fill="none" xmlns="http://www.w3.org/2000/svg">
<path fill-rule="evenodd" clip-rule="evenodd" d="M7.042 9.197C7.03331 9.15291 7.02999 9.10926 7.02664 9.06546C7.02499 9.0437 7.02332 9.02191 7.021 9H1.604C1.547 9 1.5 8.957 1.5 8.903V4.10126L5.53 7.33505C5.668 7.44505 5.834 7.50005 6 7.50005C6.166 7.50005 6.332 7.44505 6.47 7.33505L10.5 4.10126V5.449L10.838 5.268C11.188 5.08 11.583 4.98 11.979 4.98C11.9826 4.98 11.9863 4.98081 11.9898 4.98159C11.993 4.98231 11.9961 4.983 11.999 4.983V3.097C12 2.216 11.28 1.5 10.396 1.5H1.604C0.72 1.5 0 2.216 0 3.097V8.904C0 9.784 0.72 10.5 1.604 10.5H7.284L7.042 9.197ZM6 5.78805L2.52484 3H9.47515L6 5.78805Z" fill="black"/>
<path fill-rule="evenodd" clip-rule="evenodd" d="M12.006 14.52C11.8 14.52 11.602 14.477 11.416 14.393C10.485 13.968 9.63001 13.236 9.00801 12.329C8.67501 11.846 8.44601 11.277 8.32701 10.641L8.02401 9.012C7.91101 8.412 8.20001 7.813 8.74201 7.523L11.311 6.148C11.732 5.922 12.235 5.923 12.654 6.152L15.267 7.543C15.836 7.851 16.096 8.45 15.965 9.147L15.684 10.645C15.567 11.277 15.337 11.842 15.004 12.327C14.385 13.23 13.531 13.964 12.601 14.39C12.409 14.478 12.211 14.52 12.006 14.52ZM11.978 7.23C11.953 7.23 11.926 7.237 11.903 7.25L9.33301 8.625C9.27101 8.658 9.24101 8.718 9.25301 8.782L9.55601 10.411C9.64301 10.874 9.80501 11.281 10.037 11.621C10.534 12.343 11.207 12.923 11.933 13.255L12.0039 13.2698L11.9841 7.23011L11.978 7.23Z" fill="black"/>
</svg>
