<svg width="16" height="16" viewBox="0 0 16 16" fill="none" xmlns="http://www.w3.org/2000/svg">
<path fill-rule="evenodd" clip-rule="evenodd" d="M6.466 13.0002H9.534C9.91707 13.0008 10.288 12.8657 10.581 12.619C10.874 12.3723 11.0703 12.0298 11.135 11.6522L11.429 9.77925C12.0712 9.26863 12.5906 8.62036 12.9489 7.88226C13.3072 7.14415 13.4953 6.33504 13.4992 5.51458C13.5031 4.69412 13.3228 3.88324 12.9716 3.14173C12.6204 2.40022 12.1073 1.74701 11.47 1.23025C10.18 0.181248 8.488 -0.223752 6.828 0.119248C4.685 0.566248 2.983 2.32225 2.592 4.48825C2.226 6.51525 2.966 8.49325 4.525 9.69625L4.865 11.6522C4.92952 12.0299 5.12572 12.3725 5.4188 12.6193C5.71187 12.866 6.08288 13.001 6.466 13.0002ZM10.244 9.48125L9.903 11.4392L9.533 11.7502H6.466L6.096 11.4382L5.756 9.48225C5.71 9.21725 5.567 8.97625 5.352 8.80425C4.7472 8.32704 4.28479 7.69317 4.01504 6.97155C3.74529 6.24993 3.67853 5.46816 3.822 4.71125C4.123 3.04025 5.433 1.68725 7.081 1.34525C7.384 1.28125 7.688 1.25125 7.988 1.25125C8.96807 1.24781 9.91916 1.58345 10.68 2.20125C11.677 3.01225 12.249 4.21525 12.249 5.49925C12.249 6.78325 11.665 7.98725 10.646 8.80525C10.432 8.97725 10.29 9.21725 10.244 9.48125ZM5.18306 15.8172C5.30027 15.9344 5.45924 16.0002 5.625 16.0002H10.375C10.5408 16.0002 10.6997 15.9344 10.8169 15.8172C10.9342 15.7 11 15.541 11 15.3752C11 15.2095 10.9342 15.0505 10.8169 14.9333C10.6997 14.8161 10.5408 14.7502 10.375 14.7502H5.625C5.45924 14.7502 5.30027 14.8161 5.18306 14.9333C5.06585 15.0505 5 15.2095 5 15.3752C5 15.541 5.06585 15.7 5.18306 15.8172Z" fill="black"/>
</svg>
