<svg width="24" height="24" viewBox="0 0 24 24" fill="none" xmlns="http://www.w3.org/2000/svg">
<path d="M6.84282 21.5C6.52082 21.5 6.20082 21.399 5.92682 21.2C5.40682 20.822 5.17382 20.176 5.33282 19.553L6.59582 14.594L2.65782 11.324C2.16382 10.913 1.97282 10.254 2.17082 9.643C2.36982 9.032 2.91182 8.61 3.55282 8.568L8.66082 8.237L10.5538 3.482C10.7908 2.886 11.3598 2.5 12.0028 2.5C12.6458 2.5 13.2138 2.886 13.4518 3.483L15.3448 8.238L20.4518 8.569C21.0938 8.611 21.6368 9.033 21.8348 9.645C22.0338 10.256 21.8408 10.916 21.3458 11.326L17.4098 14.595L18.6728 19.555C18.8308 20.178 18.5988 20.824 18.0778 21.202C17.5588 21.579 16.8728 21.602 16.3278 21.259L12.0028 18.522L7.67682 21.257C7.41882 21.419 7.13082 21.5 6.84282 21.5Z" fill="black"/>
</svg>
