<svg width="18" height="18" viewBox="0 0 18 18" fill="none" xmlns="http://www.w3.org/2000/svg">
<path fill-rule="evenodd" clip-rule="evenodd" d="M7 0C3.13401 0 0 3.13401 0 7C0 10.866 3.13401 14 7 14C8.61762 14 10.1071 13.4513 11.2924 12.5299L16.7633 17.9998L18.0006 16.7623L12.5299 11.2924C13.4513 10.1071 14 8.61762 14 7C14 3.13401 10.866 0 7 0ZM1.75 7C1.75 4.1005 4.1005 1.75 7 1.75C9.8995 1.75 12.25 4.1005 12.25 7C12.25 9.8995 9.8995 12.25 7 12.25C4.1005 12.25 1.75 9.8995 1.75 7Z" fill="black"/>
</svg>
