<svg width="24" height="24" viewBox="0 0 24 24" fill="none" xmlns="http://www.w3.org/2000/svg">
<path d="M11 1C16.523 1 21 5.477 21 11C21 11.388 20.9727 11.7705 20.9297 12.1465L20.8516 12.0098C20.3105 11.065 19.3379 10.5 18.25 10.5C17.1621 10.5 16.1895 11.064 15.6484 12.0098L14.5098 14H7.25C6.137 14 5.20386 14.7333 4.88086 15.7383C6.29986 17.5672 8.51205 18.75 11 18.75C11.1398 18.75 11.2779 18.7441 11.415 18.7344L11.6484 19.0039C11.2964 19.6209 11.1985 20.3144 11.3115 20.9844C11.2077 20.9874 11.1048 21 11 21C5.477 21 1 16.523 1 11C1 5.477 5.477 1 11 1ZM11 6C9.08308 6 7.58574 7.79793 8.10254 9.79883C8.36354 10.8088 9.19017 11.6365 10.2012 11.8975C12.202 12.4142 14 10.9169 14 9C14 7.34302 12.657 6.00003 11 6Z" fill="black"/>
<path fill-rule="evenodd" clip-rule="evenodd" d="M16.9504 12.7549C17.5255 11.7481 18.974 11.748 19.55 12.7549L23.5491 19.749C24.1221 20.751 23.4003 22 22.2493 22H14.2502C13.0985 21.9997 12.3775 20.7509 12.9514 19.749L16.9504 12.7549ZM17.5002 19V20.5H19.0002V19H17.5002ZM17.5002 15V17.75H19.0002V15H17.5002Z" fill="black"/>
</svg>
