<svg width="20" height="20" viewBox="0 0 20 20" fill="none" xmlns="http://www.w3.org/2000/svg">
<path d="M10 4C8.083 4 6.586 5.798 7.103 7.799C7.364 8.809 8.19 9.636 9.201 9.897C11.202 10.414 13 8.917 13 7C13 5.343 11.657 4 10 4Z" fill="black"/>
<path d="M10 1.75C14.549 1.75 18.25 5.451 18.25 10C18.25 14.549 14.549 18.25 10 18.25C5.451 18.25 1.75 14.549 1.75 10C1.75 5.451 5.451 1.75 10 1.75ZM10 0C4.477 0 0 4.477 0 10C0 15.523 4.477 20 10 20C15.523 20 20 15.523 20 10C20 4.477 15.523 0 10 0Z" fill="black"/>
<path d="M10 16.75C12.541 16.75 14.756 15.338 15.908 13.258C15.476 12.51 14.676 12 13.75 12H6.25C5.324 12 4.524 12.51 4.092 13.258C5.244 15.338 7.459 16.75 10 16.75Z" fill="black"/>
</svg>
