<svg width="20" height="20" viewBox="0 0 20 20" fill="none" xmlns="http://www.w3.org/2000/svg">
<path d="M9.97218 19.808C9.63218 19.808 9.30218 19.788 8.96218 19.758C4.09218 19.268 0.242181 15.198 0.0121814 10.298C-0.227819 5.36798 3.10218 1.05798 7.91218 0.0279814C8.45218 -0.0820186 9.00218 0.137981 9.31218 0.587981C9.63218 1.05798 9.64218 1.66798 9.32218 2.13798C8.35218 3.63798 8.01218 5.43798 8.38218 7.22798C8.92218 9.86798 11.0822 11.958 13.7422 12.428C14.9722 12.648 16.1722 12.548 17.3122 12.128C17.8522 11.928 18.4422 12.068 18.8222 12.488C19.2022 12.898 19.2922 13.478 19.0622 13.978C17.4122 17.548 13.8422 19.788 9.96218 19.788L9.97218 19.808ZM7.41218 1.97798C3.91218 3.11798 1.57218 6.44798 1.75218 10.218C1.94218 14.258 5.12218 17.608 9.13218 18.018C12.3522 18.328 15.4322 16.768 17.0622 14.058C15.8922 14.348 14.6622 14.398 13.4422 14.178C10.0822 13.578 7.36218 10.938 6.67218 7.60798C6.27218 5.66798 6.53218 3.70798 7.40218 1.98798L7.41218 1.97798Z" fill="black"/>
</svg>
