<svg width="63" height="73" viewBox="0 0 63 73" fill="none" xmlns="http://www.w3.org/2000/svg">
<g clip-path="url(#clip0_309_2172)">
<path d="M31.9028 68.511C31.5709 68.515 31.2333 68.425 30.8495 68.2233C22.5907 63.901 16.4631 59.5885 11.5661 54.6507C8.10905 51.1668 6.10606 48.0778 5.07667 44.6269C4.6978 43.3663 4.49945 42.1933 4.47754 41.1393C4.36009 34.4963 4.2817 27.7451 4.206 21.2137L4.13689 15.5841C4.13518 15.445 4.14699 15.3103 4.15513 15.2429L4.15001 14.8257L4.5651 14.6501C5.02482 14.4561 5.48471 14.2754 5.94017 14.0994C6.9002 13.7287 7.80215 13.3766 8.6264 12.9089C11.2818 11.3957 13.0877 9.03167 14.1503 5.68518C14.4051 4.87898 14.8809 4.53217 15.7377 4.52165C23.2828 4.42902 28.1678 4.36905 32.1781 4.31982L39.7322 4.22708C41.7597 4.20219 43.8905 4.17603 46.4294 4.14486C46.8601 4.13957 47.6496 4.12988 48.0259 5.18407C49.7176 9.95484 52.7665 12.7304 57.3542 13.6701C57.4622 13.6912 57.5703 13.7257 57.6965 13.7735L57.8362 13.8212L58.2956 13.9726L58.3128 15.3721C58.3409 17.6599 58.36 19.9477 58.3791 22.2356C58.4274 27.6322 58.4735 33.2083 58.635 38.6888C58.7581 42.8687 57.5531 46.679 54.9556 50.3449C52.1288 54.3367 48.4933 57.8718 43.8407 61.1547C41.4611 62.8349 38.9499 64.3956 36.5234 65.9104C35.3213 66.6609 34.1191 67.407 32.9306 68.1708C32.5878 68.3904 32.2527 68.5067 31.9028 68.511Z" fill="white" stroke="white" stroke-width="7"/>
<path d="M31.7959 67.8574C31.6192 67.8436 31.4144 67.7854 31.1521 67.6476L31.1512 67.6471C22.9327 63.3459 16.865 59.0701 12.0279 54.1927C8.6199 50.7581 6.68954 47.7583 5.69994 44.4408L5.69955 44.4395C5.33428 43.2242 5.14838 42.1105 5.12781 41.1265C5.01041 34.4861 4.93205 27.7373 4.85635 21.2059L4.78723 15.5758C4.78597 15.4728 4.79512 15.3678 4.80083 15.3206L4.806 15.2778L4.80571 15.254L4.81829 15.2487C5.26849 15.0586 5.72121 14.8807 6.17494 14.7053C7.12809 14.3373 8.07487 13.9691 8.94759 13.4739L8.9486 13.4733C11.7673 11.8671 13.6661 9.35864 14.7701 5.8816C14.8711 5.56206 14.9911 5.41082 15.1025 5.32923C15.2154 5.24659 15.4005 5.17555 15.746 5.17131L15.7902 5.17077L15.8343 5.17023L15.8783 5.16968L15.9223 5.16914L15.9663 5.1686L16.0101 5.16807L16.054 5.16753L16.0977 5.16699L16.1414 5.16645L16.185 5.16592L16.2286 5.16538L16.2721 5.16485L16.3156 5.16432L16.359 5.16378L16.4023 5.16325L16.4456 5.16272L16.4888 5.16219L16.532 5.16166L16.5751 5.16113L16.6181 5.1606L16.6611 5.16007L16.704 5.15955L16.7469 5.15902L16.7897 5.1585L16.8324 5.15797L16.8751 5.15745L16.9177 5.15692L16.9603 5.1564L17.0028 5.15588L17.0452 5.15536L17.0876 5.15484L17.1299 5.15432L17.1722 5.1538L17.2144 5.15328L17.2566 5.15276L17.2987 5.15225L17.3407 5.15173L17.3827 5.15122L17.4246 5.1507L17.4665 5.15019L17.5083 5.14967L17.5501 5.14916L17.5918 5.14865L17.6334 5.14814L17.675 5.14763L17.7165 5.14712L17.758 5.14661L17.7994 5.1461L17.8407 5.14559L17.882 5.14509L17.9232 5.14458L17.9644 5.14407L18.0056 5.14357L18.0466 5.14307L18.0876 5.14256L18.1286 5.14206L18.1695 5.14156L18.2103 5.14106L18.2511 5.14055L18.2918 5.14005L18.3325 5.13956L18.3731 5.13906L18.4137 5.13856L18.4542 5.13806L18.4946 5.13757L18.535 5.13707L18.5754 5.13657L18.6156 5.13608L18.6559 5.13559L18.696 5.13509L18.7362 5.1346L18.7762 5.13411L18.8162 5.13362L18.8562 5.13313L18.8961 5.13264L18.9359 5.13215L18.9757 5.13166L19.0154 5.13117L19.0551 5.13068L19.0947 5.1302L19.1343 5.12971L19.1738 5.12923L19.2133 5.12874L19.2527 5.12826L19.292 5.12778L19.3313 5.12729L19.3705 5.12681L19.4097 5.12633L19.4489 5.12585L19.488 5.12537L19.527 5.12489L19.5659 5.12441L19.6049 5.12394L19.6437 5.12346L19.6825 5.12298L19.7213 5.12251L19.76 5.12203L19.7987 5.12156L19.8373 5.12108L19.8758 5.12061L19.9143 5.12014L19.9527 5.11966L19.9911 5.11919L20.0295 5.11872L20.0678 5.11825L20.106 5.11778L20.1442 5.11731L20.1823 5.11685L20.2204 5.11638L20.2584 5.11591L20.2963 5.11545L20.3343 5.11498L20.3721 5.11452L20.4099 5.11405L20.4477 5.11359L20.4854 5.11313L20.5231 5.11266L20.5607 5.1122L20.5982 5.11174L20.6357 5.11128L20.6732 5.11082L20.7106 5.11036L20.7479 5.1099L20.7852 5.10944L20.8225 5.10899L20.8597 5.10853L20.8968 5.10807L20.9339 5.10762L20.971 5.10716L21.008 5.10671L21.0449 5.10626L21.0818 5.1058L21.1186 5.10535L21.1554 5.1049L21.1922 5.10445L21.2289 5.104L21.2655 5.10355L21.3021 5.1031L21.3387 5.10265L21.3751 5.1022L21.4116 5.10176L21.448 5.10131L21.4843 5.10086L21.5206 5.10042L21.5569 5.09997L21.5931 5.09953L21.6292 5.09908L21.6653 5.09864L21.7014 5.0982L21.7374 5.09776L21.7733 5.09731L21.8092 5.09687L21.8451 5.09643L21.8809 5.09599L21.9166 5.09556L21.9523 5.09512L21.988 5.09468L22.0236 5.09424L22.0592 5.09381L22.0947 5.09337L22.1301 5.09293L22.1656 5.0925L22.2009 5.09206L22.2362 5.09163L22.2715 5.0912L22.3067 5.09077L22.3419 5.09033L22.377 5.0899L22.4121 5.08947L22.4472 5.08904L22.4822 5.08861L22.5171 5.08818L22.552 5.08775L22.5868 5.08733L22.6216 5.0869L22.6564 5.08647L22.6911 5.08605L22.7258 5.08562L22.7604 5.0852L22.7949 5.08477L22.8295 5.08435L22.8639 5.08393L22.8984 5.0835L22.9327 5.08308L22.9671 5.08266L23.0014 5.08224L23.0356 5.08182L23.0698 5.0814L23.104 5.08098L23.1381 5.08056L23.1721 5.08014L23.2061 5.07972L23.2401 5.07931L23.274 5.07889L23.3079 5.07848L23.3417 5.07806L23.3755 5.07764L23.4093 5.07723L23.443 5.07682L23.4766 5.0764L23.5102 5.07599L23.5438 5.07558L23.5773 5.07517L23.6108 5.07476L23.6442 5.07435L23.6776 5.07394L23.7109 5.07353L23.7442 5.07312L23.7775 5.07271L23.8107 5.0723L23.8438 5.0719L23.8769 5.07149L23.91 5.07108L23.943 5.07068L23.976 5.07027L24.009 5.06987L24.0419 5.06946L24.0747 5.06906L24.1075 5.06866L24.1403 5.06826L24.173 5.06785L24.2057 5.06745L24.2384 5.06705L24.2709 5.06665L24.3035 5.06625L24.336 5.06585L24.3685 5.06545L24.4009 5.06506L24.4333 5.06466L24.4656 5.06426L24.4979 5.06387L24.5302 5.06347L24.5624 5.06307L24.5946 5.06268L24.6267 5.06229L24.6588 5.06189L24.6908 5.0615L24.7228 5.0611L24.7548 5.06071L24.7867 5.06032L24.8186 5.05993L24.8504 5.05954L24.8822 5.05915L24.9139 5.05876L24.9456 5.05837L24.9773 5.05798L25.0089 5.05759L25.0405 5.0572L25.0721 5.05682L25.1036 5.05643L25.135 5.05604L25.1664 5.05566L25.1978 5.05527L25.2292 5.05489L25.2605 5.0545L25.2917 5.05412L25.3229 5.05374L25.3541 5.05335L25.3853 5.05297L25.4164 5.05259L25.4474 5.05221L25.4784 5.05183L25.5094 5.05145L25.5403 5.05107L25.5712 5.05069L25.6021 5.05031L25.6329 5.04993L25.6637 5.04955L25.6944 5.04918L25.7251 5.0488L25.7558 5.04842L25.7864 5.04805L25.817 5.04767L25.8475 5.0473L25.878 5.04692L25.9085 5.04655L25.9389 5.04618L25.9693 5.0458L25.9997 5.04543L26.03 5.04506L26.0603 5.04469L26.0905 5.04431L26.1207 5.04394L26.1508 5.04357L26.181 5.0432L26.211 5.04283L26.2411 5.04247L26.2711 5.0421L26.301 5.04173L26.331 5.04136L26.3609 5.041L26.3907 5.04063L26.4205 5.04026L26.4503 5.0399L26.48 5.03953L26.5098 5.03917L26.5394 5.0388L26.569 5.03844L26.5986 5.03808L26.6282 5.03771L26.6577 5.03735L26.6872 5.03699L26.7166 5.03663L26.746 5.03627L26.7754 5.03591L26.8047 5.03555L26.834 5.03519L26.8633 5.03483L26.8925 5.03447L26.9217 5.03411L26.9509 5.03375L26.98 5.03339L27.0091 5.03304L27.0381 5.03268L27.0671 5.03232L27.0961 5.03197L27.125 5.03161L27.1539 5.03126L27.1828 5.0309L27.2116 5.03055L27.2404 5.0302L27.2692 5.02984L27.2979 5.02949L27.3266 5.02914L27.3552 5.02879L27.3839 5.02844L27.4125 5.02809L27.441 5.02773L27.4695 5.02738L27.498 5.02704L27.5264 5.02669L27.5549 5.02634L27.5832 5.02599L27.6116 5.02564L27.6399 5.02529L27.6682 5.02495L27.6964 5.0246L27.7246 5.02425L27.7528 5.02391L27.7809 5.02356L27.809 5.02322L27.8371 5.02287L27.8651 5.02253L27.8931 5.02218L27.9211 5.02184L27.949 5.0215L27.977 5.02116L28.0048 5.02081L28.0327 5.02047L28.0605 5.02013L28.0882 5.01979L28.116 5.01945L28.1437 5.01911L28.1714 5.01877L28.199 5.01843L28.2266 5.01809L28.2542 5.01775L28.2817 5.01741L28.3092 5.01708L28.3367 5.01674L28.3642 5.0164L28.3916 5.01607L28.419 5.01573L28.4463 5.01539L28.4736 5.01506L28.5009 5.01472L28.5282 5.01439L28.5554 5.01405L28.5826 5.01372L28.6097 5.01339L28.6369 5.01305L28.664 5.01272L28.691 5.01239L28.7181 5.01206L28.7451 5.01173L28.7721 5.01139L28.799 5.01106L28.8259 5.01073L28.8528 5.0104L28.8796 5.01007L28.9065 5.00974L28.9333 5.00942L28.96 5.00909L28.9868 5.00876L29.0134 5.00843L29.0401 5.0081L29.0668 5.00778L29.0934 5.00745L29.1199 5.00712L29.1465 5.0068L29.173 5.00647L29.1995 5.00615L29.226 5.00582L29.2524 5.0055L29.2788 5.00517L29.3052 5.00485L29.3315 5.00453L29.3578 5.0042L29.3841 5.00388L29.4104 5.00356L29.4366 5.00324L29.4628 5.00291L29.489 5.00259L29.5151 5.00227L29.5412 5.00195L29.5673 5.00163L29.5933 5.00131L29.6194 5.00099L29.6454 5.00067L29.6713 5.00035L29.6973 5.00004L29.7232 4.99972L29.7491 4.9994L29.7749 4.99908L29.8008 4.99877L29.8266 4.99845L29.8523 4.99813L29.8781 4.99782L29.9038 4.9975L29.9295 4.99719L29.9552 4.99687L29.9808 4.99656L30.0064 4.99624L30.032 4.99593L30.0575 4.99561L30.0831 4.9953L30.1086 4.99499L30.134 4.99467L30.1595 4.99436L30.1849 4.99405L30.2103 4.99374L30.2357 4.99343L30.261 4.99312L30.2863 4.9928L30.3116 4.99249L30.3369 4.99218L30.3621 4.99187L30.3873 4.99156L30.4125 4.99126L30.4377 4.99095L30.4628 4.99064L30.4879 4.99033L30.513 4.99002L30.5381 4.98971L30.5631 4.98941L30.5881 4.9891L30.6131 4.98879L30.638 4.98849L30.663 4.98818L30.6879 4.98787L30.7127 4.98757L30.7376 4.98726L30.7624 4.98696L30.7872 4.98665L30.812 4.98635L30.8368 4.98605L30.8615 4.98574L30.8862 4.98544L30.9109 4.98514L30.9356 4.98483L30.9602 4.98453L30.9848 4.98423L31.0094 4.98393L31.0339 4.98363L31.0585 4.98332L31.083 4.98302L31.1075 4.98272L31.132 4.98242L31.1564 4.98212L31.1808 4.98182L31.2052 4.98152L31.2296 4.98122L31.2539 4.98093L31.2783 4.98063L31.3026 4.98033L31.3269 4.98003L31.3511 4.97973L31.3754 4.97943L31.3996 4.97914L31.4238 4.97884L31.4479 4.97854L31.4721 4.97825L31.4962 4.97795L31.5203 4.97766L31.5444 4.97736L31.5684 4.97706L31.5925 4.97677L31.6165 4.97647L31.6405 4.97618L31.6644 4.97589L31.6884 4.97559L31.7123 4.9753L31.7362 4.975L31.7601 4.97471L31.784 4.97442L31.8078 4.97413L31.8316 4.97383L31.8554 4.97354L31.8792 4.97325L31.9029 4.97296L31.9267 4.97267L31.9504 4.97238L31.9741 4.97208L31.9977 4.97179L32.0214 4.9715L32.045 4.97121L32.0686 4.97092L32.0922 4.97063L32.1158 4.97034L32.1393 4.97006L32.1629 4.96977L32.1864 4.96948L39.7404 4.87674L39.7523 4.87659L39.7642 4.87645L39.7761 4.8763L39.788 4.87616L39.7999 4.87601L39.8118 4.87587L39.8237 4.87572L39.8356 4.87557L39.8475 4.87543L39.8594 4.87528L39.8713 4.87513L39.8832 4.87499L39.8951 4.87484L39.907 4.8747L39.9189 4.87455L39.9308 4.8744L39.9428 4.87426L39.9547 4.87411L39.9666 4.87396L39.9785 4.87382L39.9905 4.87367L40.0024 4.87352L40.0143 4.87338L40.0263 4.87323L40.0382 4.87309L40.0502 4.87294L40.0621 4.87279L40.0741 4.87265L40.086 4.8725L40.098 4.87235L40.1099 4.8722L40.1219 4.87206L40.1339 4.87191L40.1458 4.87176L40.1578 4.87162L40.1698 4.87147L40.1817 4.87132L40.1937 4.87118L40.2057 4.87103L40.2177 4.87088L40.2297 4.87073L40.2417 4.87059L40.2537 4.87044L40.2657 4.87029L40.2777 4.87015L40.2897 4.87L40.3017 4.86985L40.3137 4.8697L40.3257 4.86956L40.3377 4.86941L40.3497 4.86926L40.3617 4.86911L40.3737 4.86897L40.3858 4.86882L40.3978 4.86867L40.4098 4.86852L40.4219 4.86838L40.4339 4.86823L40.446 4.86808L40.458 4.86793L40.47 4.86778L40.4821 4.86764L40.4942 4.86749L40.5062 4.86734L40.5183 4.86719L40.5303 4.86704L40.5424 4.8669L40.5545 4.86675L40.5665 4.8666L40.5786 4.86645L40.5907 4.8663L40.6028 4.86615L40.6149 4.86601L40.627 4.86586L40.6391 4.86571L40.6512 4.86556L40.6633 4.86541L40.6754 4.86526L40.6875 4.86511L40.6996 4.86497L40.7117 4.86482L40.7238 4.86467L40.7359 4.86452L40.7481 4.86437L40.7602 4.86422L40.7723 4.86407L40.7845 4.86392L40.7966 4.86377L40.8087 4.86363L40.8209 4.86348L40.833 4.86333L40.8452 4.86318L40.8573 4.86303L40.8695 4.86288L40.8817 4.86273L40.8938 4.86258L40.906 4.86243L40.9182 4.86228L40.9304 4.86213L40.9425 4.86198L40.9547 4.86183L40.9669 4.86168L40.9791 4.86153L40.9913 4.86138L41.0035 4.86123L41.0157 4.86108L41.0279 4.86093L41.0401 4.86078L41.0524 4.86063L41.0646 4.86048L41.0768 4.86033L41.089 4.86018L41.1013 4.86003L41.1135 4.85988L41.1257 4.85973L41.138 4.85958L41.1502 4.85943L41.1625 4.85928L41.1747 4.85913L41.187 4.85898L41.1993 4.85883L41.2115 4.85868L41.2238 4.85853L41.2361 4.85838L41.2484 4.85823L41.2606 4.85808L41.2729 4.85793L41.2852 4.85778L41.2975 4.85763L41.3098 4.85747L41.3221 4.85732L41.3344 4.85717L41.3468 4.85702L41.3591 4.85687L41.3714 4.85672L41.3837 4.85657L41.396 4.85642L41.4084 4.85626L41.4207 4.85611L41.4331 4.85596L41.4454 4.85581L41.4578 4.85566L41.4701 4.85551L41.4825 4.85535L41.4948 4.8552L41.5072 4.85505L41.5196 4.8549L41.532 4.85475L41.5443 4.8546L41.5567 4.85444L41.5691 4.85429L41.5815 4.85414L41.5939 4.85399L41.6063 4.85383L41.6187 4.85368L41.6311 4.85353L41.6435 4.85338L41.656 4.85322L41.6684 4.85307L41.6808 4.85292L41.6933 4.85277L41.7057 4.85261L41.7181 4.85246L41.7306 4.85231L41.743 4.85216L41.7555 4.852L41.768 4.85185L41.7804 4.8517L41.7929 4.85154L41.8054 4.85139L41.8179 4.85124L41.8303 4.85108L41.8428 4.85093L41.8553 4.85078L41.8678 4.85062L41.8803 4.85047L41.8928 4.85032L41.9054 4.85016L41.9179 4.85001L41.9304 4.84986L41.9429 4.8497L41.9555 4.84955L41.968 4.84939L41.9805 4.84924L41.9931 4.84909L42.0056 4.84893L42.0182 4.84878L42.0308 4.84862L42.0433 4.84847L42.0559 4.84831L42.0685 4.84816L42.0811 4.84801L42.0937 4.84785L42.1062 4.8477L42.1188 4.84754L42.1315 4.84739L42.1441 4.84723L42.1567 4.84708L42.1693 4.84692L42.1819 4.84677L42.1945 4.84661L42.2072 4.84646L42.2198 4.8463L42.2325 4.84615L42.2451 4.84599L42.2578 4.84584L42.2704 4.84568L42.2831 4.84553L42.2957 4.84537L42.3084 4.84521L42.3211 4.84506L42.3338 4.8449L42.3465 4.84475L42.3592 4.84459L42.3719 4.84444L42.3846 4.84428L42.3973 4.84412L42.41 4.84397L42.4227 4.84381L42.4355 4.84366L42.4482 4.8435L42.4609 4.84334L42.4737 4.84319L42.4864 4.84303L42.4992 4.84287L42.5119 4.84272L42.5247 4.84256L42.5375 4.8424L42.5502 4.84225L42.563 4.84209L42.5758 4.84193L42.5886 4.84178L42.6014 4.84162L42.6142 4.84146L42.627 4.8413L42.6398 4.84115L42.6526 4.84099L42.6655 4.84083L42.6783 4.84067L42.6911 4.84052L42.704 4.84036L42.7168 4.8402L42.7297 4.84004L42.7425 4.83989L42.7554 4.83973L42.7683 4.83957L42.7812 4.83941L42.794 4.83925L42.8069 4.8391L42.8198 4.83894L42.8327 4.83878L42.8456 4.83862L42.8585 4.83846L42.8715 4.8383L42.8844 4.83814L42.8973 4.83799L42.9102 4.83783L42.9232 4.83767L42.9361 4.83751L42.9491 4.83735L42.962 4.83719L42.975 4.83703L42.988 4.83687L43.0009 4.83671L43.0139 4.83655L43.0269 4.83639L43.0399 4.83623L43.0529 4.83608L43.0659 4.83592L43.0789 4.83576L43.0919 4.8356L43.105 4.83544L43.118 4.83528L43.131 4.83512L43.1441 4.83496L43.1571 4.8348L43.1702 4.83464L43.1832 4.83448L43.1963 4.83431L43.2094 4.83415L43.2225 4.83399L43.2355 4.83383L43.2486 4.83367L43.2617 4.83351L43.2748 4.83335L43.2879 4.83319L43.3011 4.83303L43.3142 4.83287L43.3273 4.83271L43.3405 4.83255L43.3536 4.83238L43.3667 4.83222L43.3799 4.83206L43.3931 4.8319L43.4062 4.83174L43.4194 4.83158L43.4326 4.83141L43.4458 4.83125L43.459 4.83109L43.4722 4.83093L43.4854 4.83077L43.4986 4.8306L43.5118 4.83044L43.525 4.83028L43.5383 4.83012L43.5515 4.82995L43.5647 4.82979L43.578 4.82963L43.5912 4.82947L43.6045 4.8293L43.6178 4.82914L43.6311 4.82898L43.6443 4.82881L43.6576 4.82865L43.6709 4.82849L43.6842 4.82832L43.6975 4.82816L43.7109 4.828L43.7242 4.82783L43.7375 4.82767L43.7509 4.82751L43.7642 4.82734L43.7775 4.82718L43.7909 4.82702L43.8043 4.82685L43.8176 4.82669L43.831 4.82652L43.8444 4.82636L43.8578 4.82619L43.8712 4.82603L43.8846 4.82586L43.898 4.8257L43.9114 4.82554L43.9249 4.82537L43.9383 4.82521L43.9517 4.82504L43.9652 4.82488L43.9786 4.82471L43.9921 4.82455L44.0056 4.82438L44.019 4.82421L44.0325 4.82405L44.046 4.82388L44.0595 4.82372L44.073 4.82355L44.0865 4.82339L44.1 4.82322L44.1136 4.82305L44.1271 4.82289L44.1406 4.82272L44.1542 4.82256L44.1677 4.82239L44.1813 4.82222L44.1949 4.82206L44.2084 4.82189L44.222 4.82172L44.2356 4.82156L44.2492 4.82139L44.2628 4.82122L44.2764 4.82105L44.29 4.82089L44.3036 4.82072L44.3173 4.82055L44.3309 4.82039L44.3446 4.82022L44.3582 4.82005L44.3719 4.81988L44.3855 4.81972L44.3992 4.81955L44.4129 4.81938L44.4266 4.81921L44.4403 4.81904L44.454 4.81887L44.4677 4.81871L44.4814 4.81854L44.4952 4.81837L44.5089 4.8182L44.5227 4.81803L44.5364 4.81786L44.5502 4.81769L44.5639 4.81753L44.5777 4.81736L44.5915 4.81719L44.6053 4.81702L44.6191 4.81685L44.6329 4.81668L44.6467 4.81651L44.6605 4.81634L44.6743 4.81617L44.6882 4.816L44.702 4.81583L44.7159 4.81566L44.7297 4.81549L44.7436 4.81532L44.7574 4.81515L44.7713 4.81498L44.7852 4.81481L44.7991 4.81464L44.813 4.81447L44.8269 4.8143L44.8408 4.81413L44.8548 4.81395L44.8687 4.81378L44.8827 4.81361L44.8966 4.81344L44.9106 4.81327L44.9245 4.8131L44.9385 4.81293L44.9525 4.81275L44.9665 4.81258L44.9805 4.81241L44.9945 4.81224L45.0085 4.81207L45.0225 4.8119L45.0366 4.81172L45.0506 4.81155L45.0646 4.81138L45.0787 4.81121L45.0928 4.81103L45.1068 4.81086L45.1209 4.81069L45.135 4.81051L45.1491 4.81034L45.1632 4.81017L45.1773 4.81L45.1914 4.80982L45.2055 4.80965L45.2197 4.80947L45.2338 4.8093L45.248 4.80913L45.2621 4.80895L45.2763 4.80878L45.2905 4.80861L45.3047 4.80843L45.3189 4.80826L45.3331 4.80808L45.3473 4.80791L45.3615 4.80773L45.3757 4.80756L45.39 4.80738L45.4042 4.80721L45.4185 4.80703L45.4327 4.80686L45.447 4.80668L45.4613 4.80651L45.4755 4.80633L45.4898 4.80616L45.5041 4.80598L45.5185 4.80581L45.5328 4.80563L45.5471 4.80546L45.5614 4.80528L45.5758 4.8051L45.5901 4.80493L45.6045 4.80475L45.6189 4.80457L45.6332 4.8044L45.6476 4.80422L45.662 4.80404L45.6764 4.80387L45.6908 4.80369L45.7053 4.80351L45.7197 4.80334L45.7341 4.80316L45.7486 4.80298L45.763 4.8028L45.7775 4.80263L45.792 4.80245L45.8065 4.80227L45.821 4.80209L45.8355 4.80192L45.85 4.80174L45.8645 4.80156L45.879 4.80138L45.8936 4.8012L45.9081 4.80102L45.9227 4.80084L45.9372 4.80067L45.9518 4.80049L45.9664 4.80031L45.981 4.80013L45.9956 4.79995L46.0102 4.79977L46.0248 4.79959L46.0394 4.79941L46.054 4.79923L46.0687 4.79905L46.0833 4.79887L46.098 4.79869L46.1127 4.79851L46.1273 4.79833L46.142 4.79815L46.1567 4.79797L46.1714 4.79779L46.1861 4.79761L46.2009 4.79743L46.2156 4.79725L46.2303 4.79707L46.2451 4.79689L46.2599 4.79671L46.2746 4.79652L46.2894 4.79634L46.3042 4.79616L46.319 4.79598L46.3338 4.7958L46.3486 4.79562L46.3634 4.79543L46.3783 4.79525L46.3931 4.79507L46.408 4.79489L46.4228 4.7947L46.4377 4.79452C46.6613 4.79178 46.8351 4.79651 46.9908 4.86368C47.1098 4.91501 47.2812 5.03042 47.414 5.40215C48.2878 7.86604 49.5252 9.85051 51.1669 11.3442C52.8111 12.8402 54.8306 13.8163 57.2241 14.3066L57.2298 14.3077C57.2868 14.3188 57.3566 14.3394 57.4666 14.3811L57.4767 14.3849L57.487 14.3884L57.6266 14.4361L57.6331 14.4382L57.6517 14.4444L57.6632 15.3798C57.6912 17.6661 57.7103 19.9527 57.7295 22.2407L57.7342 22.7677C57.7809 27.9989 57.8291 33.3976 57.9855 38.7076C58.1041 42.7353 56.9481 46.4087 54.4255 49.9688C51.6478 53.8912 48.0682 57.3761 43.4663 60.6233C41.1814 62.2366 38.7719 63.7406 36.4167 65.2106L36.1795 65.3587C36.0038 65.4685 35.8278 65.5782 35.6519 65.688C34.6266 66.3275 33.5983 66.9689 32.5803 67.6232L31.7959 67.8574ZM31.7959 67.8574L31.8951 67.8562C32.1008 67.8537 32.3193 67.7903 32.5803 67.6232L31.7959 67.8574Z" fill="#9059FF"/>
<path d="M31.7959 67.8574C31.6192 67.8436 31.4144 67.7854 31.1521 67.6476L31.1512 67.6471C22.9327 63.3459 16.865 59.0701 12.0279 54.1927C8.6199 50.7581 6.68954 47.7583 5.69994 44.4408L5.69955 44.4395C5.33428 43.2242 5.14838 42.1105 5.12781 41.1265C5.01041 34.4861 4.93205 27.7373 4.85635 21.2059L4.78723 15.5758C4.78597 15.4728 4.79512 15.3678 4.80083 15.3206L4.806 15.2778L4.80571 15.254L4.81829 15.2487M31.7959 67.8574L32.5803 67.6232M31.7959 67.8574L31.8951 67.8562C32.1008 67.8537 32.3193 67.7903 32.5803 67.6232M4.81829 15.2487C4.81841 15.2486 4.81816 15.2488 4.81829 15.2487ZM4.81829 15.2487C5.26849 15.0586 5.72121 14.8807 6.17494 14.7053C7.12809 14.3373 8.07487 13.9691 8.94759 13.4739L8.9486 13.4733C11.7673 11.8671 13.6661 9.35864 14.7701 5.8816C14.8711 5.56206 14.9911 5.41082 15.1025 5.32923C15.2154 5.24659 15.4005 5.17555 15.746 5.17131L15.7902 5.17077L15.8343 5.17023L15.8783 5.16968L15.9223 5.16914L15.9663 5.1686L16.0101 5.16807L16.054 5.16753L16.0977 5.16699L16.1414 5.16645L16.185 5.16592L16.2286 5.16538L16.2721 5.16485L16.3156 5.16432L16.359 5.16378L16.4023 5.16325L16.4456 5.16272L16.4888 5.16219L16.532 5.16166L16.5751 5.16113L16.6181 5.1606L16.6611 5.16007L16.704 5.15955L16.7469 5.15902L16.7897 5.1585L16.8324 5.15797L16.8751 5.15745L16.9177 5.15692L16.9603 5.1564L17.0028 5.15588L17.0452 5.15536L17.0876 5.15484L17.1299 5.15432L17.1722 5.1538L17.2144 5.15328L17.2566 5.15276L17.2987 5.15225L17.3407 5.15173L17.3827 5.15122L17.4246 5.1507L17.4665 5.15019L17.5083 5.14967L17.5501 5.14916L17.5918 5.14865L17.6334 5.14814L17.675 5.14763L17.7165 5.14712L17.758 5.14661L17.7994 5.1461L17.8407 5.14559L17.882 5.14509L17.9232 5.14458L17.9644 5.14407L18.0056 5.14357L18.0466 5.14307L18.0876 5.14256L18.1286 5.14206L18.1695 5.14156L18.2103 5.14106L18.2511 5.14055L18.2918 5.14005L18.3325 5.13956L18.3731 5.13906L18.4137 5.13856L18.4542 5.13806L18.4946 5.13757L18.535 5.13707L18.5754 5.13657L18.6156 5.13608L18.6559 5.13559L18.696 5.13509L18.7362 5.1346L18.7762 5.13411L18.8162 5.13362L18.8562 5.13313L18.8961 5.13264L18.9359 5.13215L18.9757 5.13166L19.0154 5.13117L19.0551 5.13068L19.0947 5.1302L19.1343 5.12971L19.1738 5.12923L19.2133 5.12874L19.2527 5.12826L19.292 5.12778L19.3313 5.12729L19.3705 5.12681L19.4097 5.12633L19.4489 5.12585L19.488 5.12537L19.527 5.12489L19.5659 5.12441L19.6049 5.12394L19.6437 5.12346L19.6825 5.12298L19.7213 5.12251L19.76 5.12203L19.7987 5.12156L19.8373 5.12108L19.8758 5.12061L19.9143 5.12014L19.9527 5.11966L19.9911 5.11919L20.0295 5.11872L20.0678 5.11825L20.106 5.11778L20.1442 5.11731L20.1823 5.11685L20.2204 5.11638L20.2584 5.11591L20.2963 5.11545L20.3343 5.11498L20.3721 5.11452L20.4099 5.11405L20.4477 5.11359L20.4854 5.11313L20.5231 5.11266L20.5607 5.1122L20.5982 5.11174L20.6357 5.11128L20.6732 5.11082L20.7106 5.11036L20.7479 5.1099L20.7852 5.10944L20.8225 5.10899L20.8597 5.10853L20.8968 5.10807L20.9339 5.10762L20.971 5.10716L21.008 5.10671L21.0449 5.10626L21.0818 5.1058L21.1186 5.10535L21.1554 5.1049L21.1922 5.10445L21.2289 5.104L21.2655 5.10355L21.3021 5.1031L21.3387 5.10265L21.3751 5.1022L21.4116 5.10176L21.448 5.10131L21.4843 5.10086L21.5206 5.10042L21.5569 5.09997L21.5931 5.09953L21.6292 5.09908L21.6653 5.09864L21.7014 5.0982L21.7374 5.09776L21.7733 5.09731L21.8092 5.09687L21.8451 5.09643L21.8809 5.09599L21.9166 5.09556L21.9523 5.09512L21.988 5.09468L22.0236 5.09424L22.0592 5.09381L22.0947 5.09337L22.1301 5.09293L22.1656 5.0925L22.2009 5.09206L22.2362 5.09163L22.2715 5.0912L22.3067 5.09077L22.3419 5.09033L22.377 5.0899L22.4121 5.08947L22.4472 5.08904L22.4822 5.08861L22.5171 5.08818L22.552 5.08775L22.5868 5.08733L22.6216 5.0869L22.6564 5.08647L22.6911 5.08605L22.7258 5.08562L22.7604 5.0852L22.7949 5.08477L22.8295 5.08435L22.8639 5.08393L22.8984 5.0835L22.9327 5.08308L22.9671 5.08266L23.0014 5.08224L23.0356 5.08182L23.0698 5.0814L23.104 5.08098L23.1381 5.08056L23.1721 5.08014L23.2061 5.07972L23.2401 5.07931L23.274 5.07889L23.3079 5.07848L23.3417 5.07806L23.3755 5.07764L23.4093 5.07723L23.443 5.07682L23.4766 5.0764L23.5102 5.07599L23.5438 5.07558L23.5773 5.07517L23.6108 5.07476L23.6442 5.07435L23.6776 5.07394L23.7109 5.07353L23.7442 5.07312L23.7775 5.07271L23.8107 5.0723L23.8438 5.0719L23.8769 5.07149L23.91 5.07108L23.943 5.07068L23.976 5.07027L24.009 5.06987L24.0419 5.06946L24.0747 5.06906L24.1075 5.06866L24.1403 5.06826L24.173 5.06785L24.2057 5.06745L24.2384 5.06705L24.2709 5.06665L24.3035 5.06625L24.336 5.06585L24.3685 5.06545L24.4009 5.06506L24.4333 5.06466L24.4656 5.06426L24.4979 5.06387L24.5302 5.06347L24.5624 5.06307L24.5946 5.06268L24.6267 5.06229L24.6588 5.06189L24.6908 5.0615L24.7228 5.0611L24.7548 5.06071L24.7867 5.06032L24.8186 5.05993L24.8504 5.05954L24.8822 5.05915L24.9139 5.05876L24.9456 5.05837L24.9773 5.05798L25.0089 5.05759L25.0405 5.0572L25.0721 5.05682L25.1036 5.05643L25.135 5.05604L25.1664 5.05566L25.1978 5.05527L25.2292 5.05489L25.2605 5.0545L25.2917 5.05412L25.3229 5.05374L25.3541 5.05335L25.3853 5.05297L25.4164 5.05259L25.4474 5.05221L25.4784 5.05183L25.5094 5.05145L25.5403 5.05107L25.5712 5.05069L25.6021 5.05031L25.6329 5.04993L25.6637 5.04955L25.6944 5.04918L25.7251 5.0488L25.7558 5.04842L25.7864 5.04805L25.817 5.04767L25.8475 5.0473L25.878 5.04692L25.9085 5.04655L25.9389 5.04618L25.9693 5.0458L25.9997 5.04543L26.03 5.04506L26.0603 5.04469L26.0905 5.04431L26.1207 5.04394L26.1508 5.04357L26.181 5.0432L26.211 5.04283L26.2411 5.04247L26.2711 5.0421L26.301 5.04173L26.331 5.04136L26.3609 5.041L26.3907 5.04063L26.4205 5.04026L26.4503 5.0399L26.48 5.03953L26.5098 5.03917L26.5394 5.0388L26.569 5.03844L26.5986 5.03808L26.6282 5.03771L26.6577 5.03735L26.6872 5.03699L26.7166 5.03663L26.746 5.03627L26.7754 5.03591L26.8047 5.03555L26.834 5.03519L26.8633 5.03483L26.8925 5.03447L26.9217 5.03411L26.9509 5.03375L26.98 5.03339L27.0091 5.03304L27.0381 5.03268L27.0671 5.03232L27.0961 5.03197L27.125 5.03161L27.1539 5.03126L27.1828 5.0309L27.2116 5.03055L27.2404 5.0302L27.2692 5.02984L27.2979 5.02949L27.3266 5.02914L27.3552 5.02879L27.3839 5.02844L27.4125 5.02809L27.441 5.02773L27.4695 5.02738L27.498 5.02704L27.5264 5.02669L27.5549 5.02634L27.5832 5.02599L27.6116 5.02564L27.6399 5.02529L27.6682 5.02495L27.6964 5.0246L27.7246 5.02425L27.7528 5.02391L27.7809 5.02356L27.809 5.02322L27.8371 5.02287L27.8651 5.02253L27.8931 5.02218L27.9211 5.02184L27.949 5.0215L27.977 5.02116L28.0048 5.02081L28.0327 5.02047L28.0605 5.02013L28.0882 5.01979L28.116 5.01945L28.1437 5.01911L28.1714 5.01877L28.199 5.01843L28.2266 5.01809L28.2542 5.01775L28.2817 5.01741L28.3092 5.01708L28.3367 5.01674L28.3642 5.0164L28.3916 5.01607L28.419 5.01573L28.4463 5.01539L28.4736 5.01506L28.5009 5.01472L28.5282 5.01439L28.5554 5.01405L28.5826 5.01372L28.6097 5.01339L28.6369 5.01305L28.664 5.01272L28.691 5.01239L28.7181 5.01206L28.7451 5.01173L28.7721 5.01139L28.799 5.01106L28.8259 5.01073L28.8528 5.0104L28.8796 5.01007L28.9065 5.00974L28.9333 5.00942L28.96 5.00909L28.9868 5.00876L29.0134 5.00843L29.0401 5.0081L29.0668 5.00778L29.0934 5.00745L29.1199 5.00712L29.1465 5.0068L29.173 5.00647L29.1995 5.00615L29.226 5.00582L29.2524 5.0055L29.2788 5.00517L29.3052 5.00485L29.3315 5.00453L29.3578 5.0042L29.3841 5.00388L29.4104 5.00356L29.4366 5.00324L29.4628 5.00291L29.489 5.00259L29.5151 5.00227L29.5412 5.00195L29.5673 5.00163L29.5933 5.00131L29.6194 5.00099L29.6454 5.00067L29.6713 5.00035L29.6973 5.00004L29.7232 4.99972L29.7491 4.9994L29.7749 4.99908L29.8008 4.99877L29.8266 4.99845L29.8523 4.99813L29.8781 4.99782L29.9038 4.9975L29.9295 4.99719L29.9552 4.99687L29.9808 4.99656L30.0064 4.99624L30.032 4.99593L30.0575 4.99561L30.0831 4.9953L30.1086 4.99499L30.134 4.99467L30.1595 4.99436L30.1849 4.99405L30.2103 4.99374L30.2357 4.99343L30.261 4.99312L30.2863 4.9928L30.3116 4.99249L30.3369 4.99218L30.3621 4.99187L30.3873 4.99156L30.4125 4.99126L30.4377 4.99095L30.4628 4.99064L30.4879 4.99033L30.513 4.99002L30.5381 4.98971L30.5631 4.98941L30.5881 4.9891L30.6131 4.98879L30.638 4.98849L30.663 4.98818L30.6879 4.98787L30.7127 4.98757L30.7376 4.98726L30.7624 4.98696L30.7872 4.98665L30.812 4.98635L30.8368 4.98605L30.8615 4.98574L30.8862 4.98544L30.9109 4.98514L30.9356 4.98483L30.9602 4.98453L30.9848 4.98423L31.0094 4.98393L31.0339 4.98363L31.0585 4.98332L31.083 4.98302L31.1075 4.98272L31.132 4.98242L31.1564 4.98212L31.1808 4.98182L31.2052 4.98152L31.2296 4.98122L31.2539 4.98093L31.2783 4.98063L31.3026 4.98033L31.3269 4.98003L31.3511 4.97973L31.3754 4.97943L31.3996 4.97914L31.4238 4.97884L31.4479 4.97854L31.4721 4.97825L31.4962 4.97795L31.5203 4.97766L31.5444 4.97736L31.5684 4.97706L31.5925 4.97677L31.6165 4.97647L31.6405 4.97618L31.6644 4.97589L31.6884 4.97559L31.7123 4.9753L31.7362 4.975L31.7601 4.97471L31.784 4.97442L31.8078 4.97413L31.8316 4.97383L31.8554 4.97354L31.8792 4.97325L31.9029 4.97296L31.9267 4.97267L31.9504 4.97238L31.9741 4.97208L31.9977 4.97179L32.0214 4.9715L32.045 4.97121L32.0686 4.97092L32.0922 4.97063L32.1158 4.97034L32.1393 4.97006L32.1629 4.96977L32.1864 4.96948L39.7404 4.87674L39.7523 4.87659L39.7642 4.87645L39.7761 4.8763L39.788 4.87616L39.7999 4.87601L39.8118 4.87587L39.8237 4.87572L39.8356 4.87557L39.8475 4.87543L39.8594 4.87528L39.8713 4.87513L39.8832 4.87499L39.8951 4.87484L39.907 4.8747L39.9189 4.87455L39.9308 4.8744L39.9428 4.87426L39.9547 4.87411L39.9666 4.87396L39.9785 4.87382L39.9905 4.87367L40.0024 4.87352L40.0143 4.87338L40.0263 4.87323L40.0382 4.87309L40.0502 4.87294L40.0621 4.87279L40.0741 4.87265L40.086 4.8725L40.098 4.87235L40.1099 4.8722L40.1219 4.87206L40.1339 4.87191L40.1458 4.87176L40.1578 4.87162L40.1698 4.87147L40.1817 4.87132L40.1937 4.87118L40.2057 4.87103L40.2177 4.87088L40.2297 4.87073L40.2417 4.87059L40.2537 4.87044L40.2657 4.87029L40.2777 4.87015L40.2897 4.87L40.3017 4.86985L40.3137 4.8697L40.3257 4.86956L40.3377 4.86941L40.3497 4.86926L40.3617 4.86911L40.3737 4.86897L40.3858 4.86882L40.3978 4.86867L40.4098 4.86852L40.4219 4.86838L40.4339 4.86823L40.446 4.86808L40.458 4.86793L40.47 4.86778L40.4821 4.86764L40.4942 4.86749L40.5062 4.86734L40.5183 4.86719L40.5303 4.86704L40.5424 4.8669L40.5545 4.86675L40.5665 4.8666L40.5786 4.86645L40.5907 4.8663L40.6028 4.86615L40.6149 4.86601L40.627 4.86586L40.6391 4.86571L40.6512 4.86556L40.6633 4.86541L40.6754 4.86526L40.6875 4.86511L40.6996 4.86497L40.7117 4.86482L40.7238 4.86467L40.7359 4.86452L40.7481 4.86437L40.7602 4.86422L40.7723 4.86407L40.7845 4.86392L40.7966 4.86377L40.8087 4.86363L40.8209 4.86348L40.833 4.86333L40.8452 4.86318L40.8573 4.86303L40.8695 4.86288L40.8817 4.86273L40.8938 4.86258L40.906 4.86243L40.9182 4.86228L40.9304 4.86213L40.9425 4.86198L40.9547 4.86183L40.9669 4.86168L40.9791 4.86153L40.9913 4.86138L41.0035 4.86123L41.0157 4.86108L41.0279 4.86093L41.0401 4.86078L41.0524 4.86063L41.0646 4.86048L41.0768 4.86033L41.089 4.86018L41.1013 4.86003L41.1135 4.85988L41.1257 4.85973L41.138 4.85958L41.1502 4.85943L41.1625 4.85928L41.1747 4.85913L41.187 4.85898L41.1993 4.85883L41.2115 4.85868L41.2238 4.85853L41.2361 4.85838L41.2484 4.85823L41.2606 4.85808L41.2729 4.85793L41.2852 4.85778L41.2975 4.85763L41.3098 4.85747L41.3221 4.85732L41.3344 4.85717L41.3468 4.85702L41.3591 4.85687L41.3714 4.85672L41.3837 4.85657L41.396 4.85642L41.4084 4.85626L41.4207 4.85611L41.4331 4.85596L41.4454 4.85581L41.4578 4.85566L41.4701 4.85551L41.4825 4.85535L41.4948 4.8552L41.5072 4.85505L41.5196 4.8549L41.532 4.85475L41.5443 4.8546L41.5567 4.85444L41.5691 4.85429L41.5815 4.85414L41.5939 4.85399L41.6063 4.85383L41.6187 4.85368L41.6311 4.85353L41.6435 4.85338L41.656 4.85322L41.6684 4.85307L41.6808 4.85292L41.6933 4.85277L41.7057 4.85261L41.7181 4.85246L41.7306 4.85231L41.743 4.85216L41.7555 4.852L41.768 4.85185L41.7804 4.8517L41.7929 4.85154L41.8054 4.85139L41.8179 4.85124L41.8303 4.85108L41.8428 4.85093L41.8553 4.85078L41.8678 4.85062L41.8803 4.85047L41.8928 4.85032L41.9054 4.85016L41.9179 4.85001L41.9304 4.84986L41.9429 4.8497L41.9555 4.84955L41.968 4.84939L41.9805 4.84924L41.9931 4.84909L42.0056 4.84893L42.0182 4.84878L42.0308 4.84862L42.0433 4.84847L42.0559 4.84831L42.0685 4.84816L42.0811 4.84801L42.0937 4.84785L42.1062 4.8477L42.1188 4.84754L42.1315 4.84739L42.1441 4.84723L42.1567 4.84708L42.1693 4.84692L42.1819 4.84677L42.1945 4.84661L42.2072 4.84646L42.2198 4.8463L42.2325 4.84615L42.2451 4.84599L42.2578 4.84584L42.2704 4.84568L42.2831 4.84553L42.2957 4.84537L42.3084 4.84521L42.3211 4.84506L42.3338 4.8449L42.3465 4.84475L42.3592 4.84459L42.3719 4.84444L42.3846 4.84428L42.3973 4.84412L42.41 4.84397L42.4227 4.84381L42.4355 4.84366L42.4482 4.8435L42.4609 4.84334L42.4737 4.84319L42.4864 4.84303L42.4992 4.84287L42.5119 4.84272L42.5247 4.84256L42.5375 4.8424L42.5502 4.84225L42.563 4.84209L42.5758 4.84193L42.5886 4.84178L42.6014 4.84162L42.6142 4.84146L42.627 4.8413L42.6398 4.84115L42.6526 4.84099L42.6655 4.84083L42.6783 4.84067L42.6911 4.84052L42.704 4.84036L42.7168 4.8402L42.7297 4.84004L42.7425 4.83989L42.7554 4.83973L42.7683 4.83957L42.7812 4.83941L42.794 4.83925L42.8069 4.8391L42.8198 4.83894L42.8327 4.83878L42.8456 4.83862L42.8585 4.83846L42.8715 4.8383L42.8844 4.83814L42.8973 4.83799L42.9102 4.83783L42.9232 4.83767L42.9361 4.83751L42.9491 4.83735L42.962 4.83719L42.975 4.83703L42.988 4.83687L43.0009 4.83671L43.0139 4.83655L43.0269 4.83639L43.0399 4.83623L43.0529 4.83608L43.0659 4.83592L43.0789 4.83576L43.0919 4.8356L43.105 4.83544L43.118 4.83528L43.131 4.83512L43.1441 4.83496L43.1571 4.8348L43.1702 4.83464L43.1832 4.83448L43.1963 4.83431L43.2094 4.83415L43.2225 4.83399L43.2355 4.83383L43.2486 4.83367L43.2617 4.83351L43.2748 4.83335L43.2879 4.83319L43.3011 4.83303L43.3142 4.83287L43.3273 4.83271L43.3405 4.83255L43.3536 4.83238L43.3667 4.83222L43.3799 4.83206L43.3931 4.8319L43.4062 4.83174L43.4194 4.83158L43.4326 4.83141L43.4458 4.83125L43.459 4.83109L43.4722 4.83093L43.4854 4.83077L43.4986 4.8306L43.5118 4.83044L43.525 4.83028L43.5383 4.83012L43.5515 4.82995L43.5647 4.82979L43.578 4.82963L43.5912 4.82947L43.6045 4.8293L43.6178 4.82914L43.6311 4.82898L43.6443 4.82881L43.6576 4.82865L43.6709 4.82849L43.6842 4.82832L43.6975 4.82816L43.7109 4.828L43.7242 4.82783L43.7375 4.82767L43.7509 4.82751L43.7642 4.82734L43.7775 4.82718L43.7909 4.82702L43.8043 4.82685L43.8176 4.82669L43.831 4.82652L43.8444 4.82636L43.8578 4.82619L43.8712 4.82603L43.8846 4.82586L43.898 4.8257L43.9114 4.82554L43.9249 4.82537L43.9383 4.82521L43.9517 4.82504L43.9652 4.82488L43.9786 4.82471L43.9921 4.82455L44.0056 4.82438L44.019 4.82421L44.0325 4.82405L44.046 4.82388L44.0595 4.82372L44.073 4.82355L44.0865 4.82339L44.1 4.82322L44.1136 4.82305L44.1271 4.82289L44.1406 4.82272L44.1542 4.82256L44.1677 4.82239L44.1813 4.82222L44.1949 4.82206L44.2084 4.82189L44.222 4.82172L44.2356 4.82156L44.2492 4.82139L44.2628 4.82122L44.2764 4.82105L44.29 4.82089L44.3036 4.82072L44.3173 4.82055L44.3309 4.82039L44.3446 4.82022L44.3582 4.82005L44.3719 4.81988L44.3855 4.81972L44.3992 4.81955L44.4129 4.81938L44.4266 4.81921L44.4403 4.81904L44.454 4.81887L44.4677 4.81871L44.4814 4.81854L44.4952 4.81837L44.5089 4.8182L44.5227 4.81803L44.5364 4.81786L44.5502 4.81769L44.5639 4.81753L44.5777 4.81736L44.5915 4.81719L44.6053 4.81702L44.6191 4.81685L44.6329 4.81668L44.6467 4.81651L44.6605 4.81634L44.6743 4.81617L44.6882 4.816L44.702 4.81583L44.7159 4.81566L44.7297 4.81549L44.7436 4.81532L44.7574 4.81515L44.7713 4.81498L44.7852 4.81481L44.7991 4.81464L44.813 4.81447L44.8269 4.8143L44.8408 4.81413L44.8548 4.81395L44.8687 4.81378L44.8827 4.81361L44.8966 4.81344L44.9106 4.81327L44.9245 4.8131L44.9385 4.81293L44.9525 4.81275L44.9665 4.81258L44.9805 4.81241L44.9945 4.81224L45.0085 4.81207L45.0225 4.8119L45.0366 4.81172L45.0506 4.81155L45.0646 4.81138L45.0787 4.81121L45.0928 4.81103L45.1068 4.81086L45.1209 4.81069L45.135 4.81051L45.1491 4.81034L45.1632 4.81017L45.1773 4.81L45.1914 4.80982L45.2055 4.80965L45.2197 4.80947L45.2338 4.8093L45.248 4.80913L45.2621 4.80895L45.2763 4.80878L45.2905 4.80861L45.3047 4.80843L45.3189 4.80826L45.3331 4.80808L45.3473 4.80791L45.3615 4.80773L45.3757 4.80756L45.39 4.80738L45.4042 4.80721L45.4185 4.80703L45.4327 4.80686L45.447 4.80668L45.4613 4.80651L45.4755 4.80633L45.4898 4.80616L45.5041 4.80598L45.5185 4.80581L45.5328 4.80563L45.5471 4.80546L45.5614 4.80528L45.5758 4.8051L45.5901 4.80493L45.6045 4.80475L45.6189 4.80457L45.6332 4.8044L45.6476 4.80422L45.662 4.80404L45.6764 4.80387L45.6908 4.80369L45.7053 4.80351L45.7197 4.80334L45.7341 4.80316L45.7486 4.80298L45.763 4.8028L45.7775 4.80263L45.792 4.80245L45.8065 4.80227L45.821 4.80209L45.8355 4.80192L45.85 4.80174L45.8645 4.80156L45.879 4.80138L45.8936 4.8012L45.9081 4.80102L45.9227 4.80084L45.9372 4.80067L45.9518 4.80049L45.9664 4.80031L45.981 4.80013L45.9956 4.79995L46.0102 4.79977L46.0248 4.79959L46.0394 4.79941L46.054 4.79923L46.0687 4.79905L46.0833 4.79887L46.098 4.79869L46.1127 4.79851L46.1273 4.79833L46.142 4.79815L46.1567 4.79797L46.1714 4.79779L46.1861 4.79761L46.2009 4.79743L46.2156 4.79725L46.2303 4.79707L46.2451 4.79689L46.2599 4.79671L46.2746 4.79652L46.2894 4.79634L46.3042 4.79616L46.319 4.79598L46.3338 4.7958L46.3486 4.79562L46.3634 4.79543L46.3783 4.79525L46.3931 4.79507L46.408 4.79489L46.4228 4.7947L46.4377 4.79452C46.6613 4.79178 46.8351 4.79651 46.9908 4.86368C47.1098 4.91501 47.2812 5.03042 47.414 5.40215C48.2878 7.86604 49.5252 9.85051 51.1669 11.3442C52.8111 12.8402 54.8306 13.8163 57.2241 14.3066L57.2298 14.3077C57.2868 14.3188 57.3566 14.3394 57.4666 14.3811L57.4767 14.3849L57.487 14.3884L57.6266 14.4361L57.6331 14.4382L57.6517 14.4444L57.6632 15.3798C57.6912 17.6661 57.7103 19.9527 57.7295 22.2407L57.7342 22.7677C57.7809 27.9989 57.8291 33.3976 57.9855 38.7076C58.1041 42.7353 56.9481 46.4087 54.4255 49.9688C51.6478 53.8912 48.0682 57.3761 43.4663 60.6233C41.1814 62.2366 38.7719 63.7406 36.4167 65.2106L36.1795 65.3587C36.0038 65.4685 35.8278 65.5782 35.6519 65.688C34.6266 66.3275 33.5983 66.9689 32.5803 67.6232" stroke="black" stroke-width="1.3"/>
<path d="M32 67.5V5.5" stroke="black" stroke-width="1.3" stroke-linecap="round"/>
</g>
<defs>
<clipPath id="clip0_309_2172">
<rect width="63" height="73" fill="white"/>
</clipPath>
</defs>
</svg>
