<svg width="16" height="16" viewBox="0 0 16 16" fill="none" xmlns="http://www.w3.org/2000/svg">
<path d="M7.5 1C5.51088 1 3.60322 1.79018 2.1967 3.1967C0.790176 4.60322 0 6.51088 0 8.5C0 10.4891 0.790176 12.3968 2.1967 13.8033C3.60322 15.2098 5.51088 16 7.5 16C9.48912 16 11.3968 15.2098 12.8033 13.8033C14.2098 12.3968 15 10.4891 15 8.5C15 6.51088 14.2098 4.60322 12.8033 3.1967C11.3968 1.79018 9.48912 1 7.5 1ZM7.5 4.5C8.16304 4.5 8.79893 4.76339 9.26777 5.23223C9.73661 5.70107 10 6.33696 10 7C10 7.66304 9.73661 8.29893 9.26777 8.76777C8.79893 9.23661 8.16304 9.5 7.5 9.5C6.83696 9.5 6.20107 9.23661 5.73223 8.76777C5.26339 8.29893 5 7.66304 5 7C5 6.33696 5.26339 5.70107 5.73223 5.23223C6.20107 4.76339 6.83696 4.5 7.5 4.5ZM7.5 14.25C5.588 14.25 3.929 13.212 3.011 11.681C3.19737 11.4679 3.42701 11.2969 3.68461 11.1795C3.94222 11.0621 4.22189 11.0009 4.505 11H10.495C11.091 11 11.621 11.267 11.989 11.681C11.071 13.212 9.412 14.25 7.5 14.25Z" fill="black"/>
</svg>
