<svg width="20" height="20" viewBox="0 0 20 20" fill="none" xmlns="http://www.w3.org/2000/svg">
<path fill-rule="evenodd" clip-rule="evenodd" d="M10 0C15.5228 0 20 4.47715 20 10C20 15.5228 15.5228 20 10 20C4.47715 20 0 15.5228 0 10C0 4.47715 4.47715 0 10 0ZM14.9355 10.9062C14.7492 13.5395 13.7839 15.9571 12.2695 17.9307C15.4413 17.0247 17.8315 14.271 18.1992 10.9062H14.9355ZM1.80078 10.9062C2.16614 14.2495 4.52836 16.9895 7.66992 17.9131C6.17841 15.9389 5.23389 13.5282 5.06055 10.9062H1.80078ZM6.81445 10.9062C7.0218 13.6214 8.18623 16.0656 9.9707 17.9102C11.775 16.0725 12.9593 13.6269 13.1816 10.9062H6.81445ZM10.0273 2.08594C8.2088 3.9382 7.02265 6.41056 6.81348 9.15625H13.1904C12.9965 6.41527 11.8272 3.94587 10.0273 2.08594ZM12.3281 2.08496C13.8324 4.07569 14.7821 6.50954 14.9443 9.15625H18.207C17.8644 5.78382 15.4904 3.01363 12.3281 2.08496ZM7.73047 2.06836C4.53895 2.97985 2.13768 5.76305 1.79297 9.15625H5.05957C5.23495 6.4986 6.20369 4.05765 7.73047 2.06836Z" fill="black"/>
</svg>
