<svg width="20" height="15" viewBox="0 0 20 15" fill="none" xmlns="http://www.w3.org/2000/svg">
<path fill-rule="evenodd" clip-rule="evenodd" d="M6.5485 9.2645C6.54925 9.25975 6.55 9.255 6.55 9.25H1.913C1.823 9.25 1.75 9.174 1.75 9.081V2.80895L6.70005 6.80595C6.86005 6.93495 7.05605 6.99995 7.25005 6.99995C7.44405 6.99995 7.64005 6.93495 7.80005 6.80595L12.75 2.80903V7.215C13.194 7.453 13.62 7.727 13.999 8.077C14.1104 7.97348 14.2324 7.88576 14.3543 7.7982C14.4031 7.76311 14.4519 7.72805 14.5 7.692V1.919C14.5 0.861 13.642 0 12.587 0H1.913C0.858 0 0 0.861 0 1.919V9.08C0 10.139 0.858 11 1.913 11H6.541C6.497 10.366 6.487 9.725 6.547 9.279C6.547 9.27401 6.54775 9.26924 6.5485 9.2645ZM7.25005 4.99995L3.22436 1.75H11.2757L7.25005 4.99995Z" fill="black"/>
<path fill-rule="evenodd" clip-rule="evenodd" d="M18.996 8.11304C19.576 8.24704 19.978 8.78804 19.948 9.39504C20.105 10.002 19.868 12.198 19.738 12.545C19.478 13.946 18.356 15 17.012 15C16.391 15 15.823 14.767 15.36 14.387V14.389L14.921 14.017C14.373 13.553 13.578 13.56 13.037 14.032L12.744 14.288C12.263 14.726 11.655 15 10.984 15C9.64 15 8.519 13.946 8.257 12.544C8.128 12.197 7.899 9.99104 8.047 9.39404V9.39104C8.019 8.78604 8.41999 8.24704 8.99899 8.11304H9C10.438 7.77904 11.945 8.19404 13.024 9.22004L13.205 9.39204C13.42 9.59704 13.704 9.71104 13.998 9.71104C14.292 9.71104 14.575 9.59704 14.79 9.39304L14.975 9.21804C16.054 8.19304 17.559 7.78004 18.996 8.11304ZM12.2458 12.1023C12.4092 12.0064 12.554 11.8864 12.674 11.748C12.842 11.555 12.842 11.25 12.674 11.055C12.354 10.685 11.858 10.448 11.3 10.448C10.8815 10.448 10.4979 10.5819 10.1972 10.8045C10.1373 10.8489 10.0807 10.8967 10.0278 10.9478C9.99217 10.9821 9.95822 11.0179 9.92605 11.055C9.75805 11.249 9.75805 11.554 9.92605 11.748C10.246 12.117 10.742 12.355 11.3 12.355C11.6488 12.355 11.9733 12.2621 12.2458 12.1023ZM18.0739 11.748C17.754 12.117 17.258 12.355 16.7 12.355C16.142 12.355 15.646 12.117 15.326 11.748C15.158 11.554 15.158 11.249 15.326 11.055C15.646 10.686 16.142 10.448 16.7 10.448C17.258 10.448 17.754 10.685 18.0739 11.055C18.242 11.25 18.242 11.555 18.0739 11.748Z" fill="black"/>
</svg>
