<svg width="16" height="16" viewBox="0 0 16 16" fill="none" xmlns="http://www.w3.org/2000/svg">
<path d="M8.35203 5.001L13.818 10.466C13.8763 10.524 13.9224 10.5929 13.9539 10.6688C13.9854 10.7447 14.0016 10.826 14.0015 10.9082C14.0014 10.9904 13.985 11.0717 13.9534 11.1475C13.9217 11.2234 13.8754 11.2922 13.817 11.35C13.6994 11.4668 13.5403 11.5324 13.3745 11.5324C13.2087 11.5324 13.0497 11.4668 12.932 11.35L7.99903 6.416L3.06703 11.349C2.94867 11.4614 2.79109 11.5231 2.62789 11.521C2.46469 11.5189 2.30877 11.4531 2.19336 11.3377C2.07795 11.2223 2.01218 11.0663 2.01006 10.9031C2.00795 10.7399 2.06965 10.5824 2.18203 10.464L7.64803 5L8.35203 5.001Z" fill="black"/>
</svg>
