<svg width="16" height="16" viewBox="0 0 16 16" fill="none" xmlns="http://www.w3.org/2000/svg">
  <path
    d="M12.1977 11.9036
       C12.1977 12.4359 11.7846 12.8675 11.2751 12.8675
       H10.4909
       V15.0361
       C10.4909 15.5685 10.0779 16 9.56833 16
       C9.05881 16 8.64576 15.5685 8.64576 15.0361
       V12.8675
       H7.35415
       V15.0361
       C7.35415 15.5685 6.9411 16 6.43157 16
       C5.92205 16 5.509 15.5685 5.509 15.0361
       V12.8675
       H4.72481
       C4.21528 12.8675 3.80223 12.4359 3.80223 11.9036
       V5.44579
       H12.1977
       V11.9036
       Z"
    fill="#333336"
  />
  <path
    d="M1.92258 5.30121
       C2.4321 5.30121 2.84515 5.73274 2.84515 6.26506
       V10.3614
       C2.84515 10.8938 2.4321 11.3253 1.92258 11.3253
       C1.41305 11.3253 1 10.8938 1 10.3614
       V6.26506
       C1 5.73274 1.41305 5.30121 1.92258 5.30121
       Z"
    fill="#333336"
  />
  <path
    d="M14.0774 5.28184
       C14.5869 5.28184 15 5.71337 15 6.24569
       V10.3421
       C15 10.8744 14.5869 11.3059 14.0774 11.3059
       C13.5679 11.3059 13.1548 10.8744 13.1548 10.3421
       V6.24569
       C13.1549 5.71337 13.5679 5.28184 14.0774 5.28184
       Z"
    fill="#333336"
  />
  <path
    d="M10.5323 0.0727636
       C10.5702 0.00348929 10.6548 -0.0205326 10.7211 0.0191115
       C10.7874 0.058782 10.8104 0.147111 10.7725 0.216401
       L10.0717 1.49506
       C11.333 2.16272 12.1977 3.53007 12.1977 5.10844
       H3.80223
       C3.80223 3.52262 4.67504 2.14981 5.94614 1.48565
       L5.25052 0.216401
       C5.21256 0.147111 5.23555 0.058782 5.30187 0.0191115
       C5.36819 -0.0205326 5.45274 0.00348929 5.49071 0.0727636
       L6.19904 1.36521
       C6.65451 1.1687 7.15365 1.06024 7.67705 1.06024
       H8.32285
       C8.85339 1.06024 9.359 1.17169 9.81947 1.37331
       L10.5323 0.0727636
       Z"
    fill="#333336"
  />
</svg>
