<svg width="16" height="16" viewBox="0 0 16 16" fill="none" xmlns="http://www.w3.org/2000/svg">
  <path d="M13.5864 5.4544
       C13.4937 5.5264 11.8584 6.4496 11.8584 8.5024
       C11.8584 10.8768 13.9393 11.7168 14.0016 11.7376
       C13.992 11.7888 13.671 12.888 12.9044 14.008
       C12.2209 14.9936 11.507 15.9776 10.421 15.9776
       C9.33501 15.9776 9.05553 15.3456 7.80184 15.3456
       C6.5801 15.3456 6.1457 15.9984 5.15233 15.9984
       C4.15897 15.9984 3.46585 15.0864 2.66892 13.9664
       C1.74582 12.6512 1 10.608 1 8.6688
       C1 5.5584 3.01867 3.9088 5.00541 3.9088
       C6.06106 3.9088 6.94103 4.6032 7.60381 4.6032
       C8.23464 4.6032 9.21843 3.8672 10.4194 3.8672
       C10.8746 3.8672 12.5099 3.9088 13.5864 5.4544
       Z
       M9.84926 2.5504
       C10.3459 1.96 10.6973 1.1408 10.6973 0.3216
       C10.6973 0.208 10.6877 0.0928 10.667 0
       C9.85884 0.0304 8.89742 0.5392 8.31769 1.2128
       C7.86253 1.7312 7.43771 2.5504 7.43771 3.3808
       C7.43771 3.5056 7.45848 3.6304 7.46806 3.6704
       C7.51916 3.68 7.60221 3.6912 7.68526 3.6912
       C8.41032 3.6912 9.32224 3.2048 9.84926 2.5504
       Z" fill="#333336" />
</svg>
