<svg width="16" height="16" viewBox="0 0 16 16" fill="none" xmlns="http://www.w3.org/2000/svg">
<path fill-rule="evenodd" clip-rule="evenodd" d="M10.2832 1L8.7832 2.5H4C3.725 2.5 3.5 2.725 3.5 3V11H10.25C10.664 11 11 11.336 11 11.75V13.75C11 14.163 11.337 14.5 11.75 14.5C12.163 14.5 12.5 14.163 12.5 13.75V6.49512H12.5049C13.0388 6.49512 13.541 6.28711 13.9189 5.90918L14 5.82812V13.75C14 14.99 12.99 16 11.75 16H2.25C1.01 16 0 14.99 0 13.75V11.75C0 11.336 0.336 11 0.75 11H2V3C2 1.897 2.897 1 4 1H10.2832ZM1.5 12.5V13.75C1.5 14.163 1.837 14.5 2.25 14.5H9.62891C9.54491 14.266 9.5 14.013 9.5 13.75V12.5H1.5Z" fill="black"/>
<path d="M10.5 9H5.5V7.5H10.5V9Z" fill="black"/>
<path d="M10.5 6H5.5V4.5H10.5V6Z" fill="black"/>
<path d="M16 2.06055L13.0352 5.02637C12.8952 5.1663 12.7038 5.24512 12.5049 5.24512C12.3059 5.24509 12.1146 5.16636 11.9746 5.02539L10 3.0498L11.0605 1.98926L12.5049 3.43359L14.9395 1L16 2.06055Z" fill="black"/>
</svg>
