<svg width="16" height="16" viewBox="0 0 16 16" fill="none" xmlns="http://www.w3.org/2000/svg">
<g clip-path="url(#clip0_1784_3295)">
<path fill-rule="evenodd" clip-rule="evenodd" d="M3.41049 4.83612L4.76999 6.19601C5.06699 6.49201 4.85699 7.00001 4.43699 7.00001H0.861991C0.601991 7.00001 0.390991 6.78901 0.390991 6.52901V2.95401C0.390991 2.53401 0.898991 2.32401 1.19599 2.62101L2.32795 3.75328C3.67957 1.78973 5.94008 0.5 8.49998 0.5C12.636 0.5 16 3.864 16 8C16 12.136 12.636 15.5 8.49998 15.5C4.70398 15.5 1.56598 12.663 1.07498 9H2.58998C3.06798 11.833 5.53198 14 8.49998 14C11.809 14 14.5 11.309 14.5 8C14.5 4.691 11.809 2 8.49998 2C6.3526 2 4.46891 3.13503 3.41049 4.83612Z" fill="black"/>
</g>
<defs>
<clipPath id="clip0_1784_3295">
<rect width="16" height="16" fill="white"/>
</clipPath>
</defs>
</svg>
