<svg width="16" height="16" viewBox="0 0 16 16" fill="none" xmlns="http://www.w3.org/2000/svg">
<path fill-rule="evenodd" clip-rule="evenodd" d="M13.75 8.5C13.75 5.054 10.946 2.25 7.5 2.25C4.054 2.25 1.25 5.054 1.25 8.5C1.25 11.946 4.054 14.75 7.5 14.75C10.946 14.75 13.75 11.946 13.75 8.5ZM2.1967 3.1967C3.60322 1.79018 5.51088 1 7.5 1C9.48912 1 11.3968 1.79018 12.8033 3.1967C14.2098 4.60322 15 6.51088 15 8.5C15 10.4891 14.2098 12.3968 12.8033 13.8033C11.3968 15.2098 9.48912 16 7.5 16C5.51088 16 3.60322 15.2098 2.1967 13.8033C0.790176 12.3968 0 10.4891 0 8.5C0 6.51088 0.790176 4.60322 2.1967 3.1967ZM7.5 4C6.83696 4 6.20107 4.26339 5.73223 4.73223C5.26339 5.20107 5 5.83696 5 6.5C5 7.16304 5.26339 7.79893 5.73223 8.26777C6.20107 8.73661 6.83696 9 7.5 9C8.16304 9 8.79893 8.73661 9.26777 8.26777C9.73661 7.79893 10 7.16304 10 6.5C10 5.83696 9.73661 5.20107 9.26777 4.73223C8.79893 4.26339 8.16304 4 7.5 4ZM7.49999 13.25C9.41199 13.25 11.071 12.212 11.989 10.681C11.8026 10.4679 11.573 10.2969 11.3154 10.1795C11.0578 10.0621 10.7781 10.0009 10.495 10H4.50499C3.90899 10 3.37899 10.267 3.01099 10.681C3.92899 12.212 5.58799 13.25 7.49999 13.25Z" fill="black"/>
</svg>
