<svg width="16" height="16" viewBox="0 0 16 16" fill="none" xmlns="http://www.w3.org/2000/svg">
<path d="M2.5 13.0004C2.50008 13.2762 2.72426 13.5004 3 13.5004H13C13.2757 13.5004 13.4999 13.2762 13.5 13.0004V11.0004H15V13.0004C14.9999 14.1046 14.1042 15.0004 13 15.0004H3C1.89583 15.0004 1.00008 14.1046 1 13.0004V11.0004H2.5V13.0004Z" fill="black"/>
<path fill-rule="evenodd" clip-rule="evenodd" d="M6.6582 0.830517C7.21929 -0.315596 8.9091 -0.273891 9.39453 0.945752L10.1797 2.92036L12.3027 3.05806L12.4277 3.07173C13.6877 3.25235 14.1764 4.86918 13.1641 5.70942L13.1631 5.70845L11.5283 7.06587L12.0537 9.12642C12.3871 10.4387 10.9473 11.4908 9.79883 10.7651L7.99902 9.62837L6.20312 10.7651L6.20215 10.7641C5.05559 11.4894 3.61268 10.4413 3.94824 9.12642L4.47363 7.06685L2.83887 5.70942L2.74512 5.62544C1.83036 4.7389 2.38609 3.14262 3.69824 3.05708L5.82031 2.91938L6.60742 0.944775L6.6582 0.830517ZM7.03906 3.91548C6.93196 4.18428 6.67936 4.36738 6.39062 4.38618L3.7959 4.55415L3.79688 4.55513L5.79688 6.21626C6.01913 6.40114 6.11513 6.69778 6.04395 6.97798L5.40234 9.49556L7.59961 8.10786L7.69434 8.05708C7.92108 7.95588 8.18647 7.97285 8.40039 8.10786L10.5996 9.49653L9.95801 6.97798C9.8868 6.69767 9.98361 6.40112 10.2061 6.21626L12.2061 4.55513L9.61035 4.38716C9.32174 4.3683 9.07 4.18512 8.96289 3.91645L8 1.50044L7.03906 3.91548Z" fill="black"/>
</svg>
