<svg width="16" height="16" viewBox="0 0 16 16" fill="none" xmlns="http://www.w3.org/2000/svg">
<path d="M10.25 5.5H4.75V4H10.25V5.5Z" fill="black"/>
<path d="M4.75 8.5H10.25V7H4.75V8.5Z" fill="black"/>
<path fill-rule="evenodd" clip-rule="evenodd" d="M1 3V13.75C1 14.9922 2.00779 16 3.25 16H14.25V14.5H13.5V12.3226C13.8112 11.97 14 11.507 14 11V3C14 1.89579 13.1042 1 12 1H3C1.89579 1 1 1.89579 1 3ZM2.5 3C2.5 2.72421 2.72421 2.5 3 2.5H12C12.2758 2.5 12.5 2.72421 12.5 3V11C12.5 11.2758 12.2758 11.5 12 11.5H3.25C2.98705 11.5 2.73461 11.5452 2.5 11.6281V3ZM12 13H3.25C2.83621 13 2.5 13.3362 2.5 13.75C2.5 14.1638 2.83621 14.5 3.25 14.5H12V13Z" fill="black"/>
</svg>
