<svg width="16" height="16" viewBox="0 0 16 16" fill="none" xmlns="http://www.w3.org/2000/svg">
<path fill-rule="evenodd" clip-rule="evenodd" d="M15.817 14.933L1.06703 0.183008C0.948668 0.0706295 0.791094 0.0089227 0.627893 0.011039C0.464692 0.0131553 0.308771 0.0789275 0.193361 0.194338C0.0779509 0.309748 0.0121788 0.465669 0.0100625 0.628869C0.00794614 0.79207 0.069653 0.949644 0.182032 1.06801L1.22803 2.11401C1.08267 2.38701 1.0045 2.69075 1.00003 3.00001V13C1.00003 13.5304 1.21075 14.0391 1.58582 14.4142C1.96089 14.7893 2.4696 15 3.00003 15H13C13.323 15 13.618 14.908 13.886 14.771L14.932 15.817C15.0495 15.9341 15.2087 15.9998 15.3745 15.9998C15.5404 15.9998 15.6995 15.9341 15.817 15.817C15.8751 15.759 15.9211 15.6901 15.9526 15.6142C15.984 15.5384 16.0001 15.4571 16.0001 15.375C16.0001 15.2929 15.984 15.2116 15.9526 15.1358C15.9211 15.06 15.8751 14.991 15.817 14.933ZM2.85003 13.75L2.25003 13.15V3.13501L6.23603 7.12001L4.21803 9.15001C4.07822 9.29055 3.99983 9.48077 4.00003 9.67901V11C4.00003 11.2652 4.10539 11.5196 4.29292 11.7071C4.48046 11.8947 4.73482 12 5.00003 12H11.115L12.865 13.75H2.85003ZM13.15 2.25002L13.75 2.85002V11.095L15 12.345V3.00002C15 2.46958 14.7893 1.96087 14.4142 1.5858C14.0392 1.21073 13.5305 1.00002 13 1.00002H3.65503L4.90503 2.25002H13.15ZM10.4 5.00002H11.6L12 5.40002V6.60002L11.6 7.00002H10.4L10 6.60002V5.40002L10.4 5.00002Z" fill="black"/>
</svg>
