<svg width="16" height="16" viewBox="0 0 16 16" fill="none" xmlns="http://www.w3.org/2000/svg">
<path d="M6.02301 13L1.18301 8.161C1.07063 8.04264 1.00892 7.88506 1.01104 7.72186C1.01316 7.55866 1.07893 7.40274 1.19434 7.28733C1.30975 7.17192 1.46567 7.10615 1.62887 7.10403C1.79207 7.10191 1.94964 7.16362 2.06801 7.276L6.37501 11.584L13.934 4.023C14.0517 3.90618 14.2107 3.84062 14.3765 3.84062C14.5423 3.84062 14.7014 3.90618 14.819 4.023C14.9358 4.14064 15.0014 4.29971 15.0014 4.4655C15.0014 4.63129 14.9358 4.79036 14.819 4.908L6.72901 12.998L6.02301 13Z" fill="black"/>
</svg>
