<svg width="20" height="20" viewBox="0 0 20 20" fill="none" xmlns="http://www.w3.org/2000/svg">
<path d="M12.5 15V13.5H3C2.725 13.5 2.5 13.275 2.5 13V5C2.5 4.725 2.725 4.5 3 4.5H7.5V6.5C7.5 6.776 7.724 7 8 7H15.5V10.5H17V5C17 3.895 16.105 3 15 3H3C1.895 3 1 3.895 1 5V13C1 14.105 1.895 15 3 15H12.5Z" fill="black"/>
<path d="M19.0003 13.0604L17.5607 14.5001L19.0003 15.9398L17.9397 17.0004L16.5 15.5607L15.0603 17.0004L13.9997 15.9398L15.4393 14.5001L13.9997 13.0604L15.0603 11.9998L16.5 13.4394L17.9397 11.9998L19.0003 13.0604Z" fill="black"/>
</svg>
