<svg width="16" height="16" viewBox="0 0 16 16" fill="none" xmlns="http://www.w3.org/2000/svg">
<path fill-rule="evenodd" clip-rule="evenodd" d="M13.15 2.25L13.75 2.85V10.15L13.15 10.75H11.25C10.97 10.75 10.75 10.97 10.75 11.25V13.4L7.71 10.97C7.53 10.83 7.31 10.75 7.09 10.75H2.85L2.25 10.15V2.85L2.85 2.25H13.15ZM13 1H3C1.9 1 1 1.9 1 3V10C1 11.1 1.9 12 3 12H7L10.75 15H12V12H13C14.1 12 15 11.1 15 10V3C15 1.9 14.1 1 13 1ZM6.26999 7.73H4.85999C4.51757 7.73 4.23999 8.00758 4.23999 8.35V8.36C4.23999 8.70241 4.51757 8.98 4.85999 8.98H6.26999C6.61241 8.98 6.88999 8.70241 6.88999 8.36V8.35C6.88999 8.00758 6.61241 7.73 6.26999 7.73ZM8.51001 7.73H11.14C11.4824 7.73 11.76 8.00758 11.76 8.35V8.36C11.76 8.70241 11.4824 8.98 11.14 8.98H8.51001C8.1676 8.98 7.89001 8.70241 7.89001 8.36V8.35C7.89001 8.00758 8.1676 7.73 8.51001 7.73ZM11.14 4.98H9.72999C9.38757 4.98 9.10999 5.25758 9.10999 5.6V5.61C9.10999 5.95241 9.38757 6.23 9.72999 6.23H11.14C11.4824 6.23 11.76 5.95241 11.76 5.61V5.6C11.76 5.25758 11.4824 4.98 11.14 4.98ZM4.85999 4.98H7.48999C7.83241 4.98 8.10999 5.25758 8.10999 5.6V5.61C8.10999 5.95241 7.83241 6.23 7.48999 6.23H4.85999C4.51757 6.23 4.23999 5.95241 4.23999 5.61V5.6C4.23999 5.25758 4.51757 4.98 4.85999 4.98Z" fill="black"/>
</svg>
