<svg preserveAspectRatio="none" width="100%" height="100%" overflow="visible" style="display: block;" viewBox="0 0 16 12" fill="none" xmlns="http://www.w3.org/2000/svg">
<path id="Vector" d="M13.34 3.95C12.97 1.71 11.03 0 8.69 0C7.21 0 5.83 0.7 4.95 1.85C2.22 1.85 0 4.07 0 6.8C0 9.53 2.22 11.74 4.94 11.74H11.98C14.19 11.74 15.99 9.94 15.99 7.73C15.99 5.99 14.88 4.51 13.33 3.95H13.34ZM11.99 10.24H4.95C3.05 10.24 1.51 8.7 1.51 6.8C1.51 4.9 3.05 3.36 4.96 3.36H5.7L6.15 2.77C6.76 1.98 7.71 1.5 8.7 1.5C10.26 1.5 11.62 2.66 11.87 4.19L12.01 5.06L12.84 5.36C13.84 5.72 14.51 6.67 14.51 7.73C14.51 9.12 13.38 10.24 12 10.24H11.99Z" fill="var(--fill-0, #333336)"/>
</svg>
