<svg width="16" height="16" viewBox="0 0 16 16" fill="none" xmlns="http://www.w3.org/2000/svg">
<g clip-path="url(#clip0_5563_570)">
<path d="M6 7C5.448 7 5 6.552 5 6C5 5.448 5.448 5 6 5C6.552 5 7 5.448 7 6C7 6.552 6.552 7 6 7Z" fill="black"/>
<path d="M9 6C9 6.552 9.448 7 10 7C10.552 7 11 6.552 11 6C11 5.448 10.552 5 10 5C9.448 5 9 5.448 9 6Z" fill="black"/>
<path d="M6 11C5.448 11 5 10.552 5 10C5 9.448 5.448 9 6 9C6.552 9 7 9.448 7 10C7 10.552 6.552 11 6 11Z" fill="black"/>
<path d="M9 10C9 10.552 9.448 11 10 11C10.552 11 11 10.552 11 10C11 9.448 10.552 9 10 9C9.448 9 9 9.448 9 10Z" fill="black"/>
<path fill-rule="evenodd" clip-rule="evenodd" d="M0 8C0 3.58172 3.58172 0 8 0C12.4183 0 16 3.58172 16 8C16 12.4183 12.4183 16 8 16C3.58172 16 0 12.4183 0 8ZM8 1.5C4.41015 1.5 1.5 4.41015 1.5 8C1.5 11.5899 4.41015 14.5 8 14.5C11.5899 14.5 14.5 11.5899 14.5 8C14.5 4.41015 11.5899 1.5 8 1.5Z" fill="black"/>
</g>
<defs>
<clipPath id="clip0_5563_570">
<rect width="16" height="16" fill="white"/>
</clipPath>
</defs>
</svg>
