<svg width="16" height="16" viewBox="0 0 16 16" fill="none" xmlns="http://www.w3.org/2000/svg">
<path fill-rule="evenodd" clip-rule="evenodd" d="M11.7071 5.70711C11.5196 5.89464 11.2652 6 11 6H8.67401L4.67401 2H7.00001V1.125C7.00001 0.95924 7.06586 0.800269 7.18307 0.683058C7.30028 0.565848 7.45925 0.5 7.62501 0.5C7.79077 0.5 7.94974 0.565848 8.06695 0.683058C8.18416 0.800269 8.25001 0.95924 8.25001 1.125V2H11C11.2652 2 11.5196 2.10536 11.7071 2.29289C11.8947 2.48043 12 2.73478 12 3V5C12 5.26522 11.8947 5.51957 11.7071 5.70711ZM13.933 14.817L8.25001 9.134V14.875C8.25001 15.0408 8.18416 15.1997 8.06695 15.3169C7.94974 15.4341 7.79077 15.5 7.62501 15.5C7.45925 15.5 7.30028 15.4341 7.18307 15.3169C7.06586 15.1997 7.00001 15.0408 7.00001 14.875V7.884L5.11601 6H3.00001C2.73479 6 2.48044 5.89464 2.2929 5.7071C2.10537 5.51957 2.00001 5.26521 2.00001 5V4.414C2.00007 4.1488 2.10546 3.89449 2.29301 3.707L2.55801 3.443L1.18301 2.068C1.1249 2.00995 1.07879 1.94103 1.04732 1.86517C1.01584 1.7893 0.999619 1.70798 0.999573 1.62585C0.999527 1.54372 1.01566 1.46238 1.04705 1.38648C1.07843 1.31058 1.12446 1.24161 1.18251 1.1835C1.24055 1.12539 1.30947 1.07928 1.38534 1.0478C1.4612 1.01633 1.54252 1.00011 1.62466 1.00006C1.70679 1.00001 1.78813 1.01615 1.86403 1.04753C1.93993 1.07892 2.0089 1.12495 2.06701 1.183L6.88401 6L14.817 13.932C14.9343 14.0494 15.0002 14.2085 15.0002 14.3745C15.0002 14.5405 14.9343 14.6996 14.817 14.817C14.7591 14.8753 14.6902 14.9216 14.6144 14.9531C14.5385 14.9847 14.4572 15.0009 14.375 15.0009C14.2928 15.0009 14.2115 14.9847 14.1356 14.9531C14.0598 14.9216 13.9909 14.8753 13.933 14.817Z" fill="black"/>
</svg>
