<svg xmlns="http://www.w3.org/2000/svg" width="16" height="16" viewBox="0 0 16 16" fill="none">
  <g clip-path="url(#clip0_3_1307)">
    <path d="M7.5 0.5C3.63 0.5 0.5 3.63 0.5 7.5C0.5 11.37 3.63 14.5 7.5 14.5C9.16 14.5 10.69 13.92 11.89 12.95L14.97 16.03L16.03 14.97L12.95 11.89C13.92 10.69 14.5 9.16 14.5 7.5C14.5 3.63 11.37 0.5 7.5 0.5ZM2 7.5C2 4.47 4.47 2 7.5 2C10.53 2 13 4.47 13 7.5C13 10.53 10.53 13 7.5 13C4.47 13 2 10.53 2 7.5Z" fill="#333336"/>
    <path d="M5.25 7.5H3.75L3.75 9.5H5.25V7.5Z" fill="#333336"/>
    <path d="M8.25 4.5H6.75L6.75 9.5H8.25V4.5Z" fill="#333336"/>
    <path d="M11.25 5.5H9.75V9.5H11.25V5.5Z" fill="#333336"/>
  </g>
  <defs>
    <clipPath id="clip0_3_1307">
      <rect width="16" height="16" fill="white"/>
    </clipPath>
  </defs>
</svg>
