<svg viewBox="0 0 16 16" fill="none" xmlns="http://www.w3.org/2000/svg">
<path id="Vector" d="M8 0C3.58 0 0 3.58 0 8C0 12.42 3.58 16 8 16C12.42 16 16 12.42 16 8C16 3.58 12.42 0 8 0ZM1.5 8C1.5 6.73 1.87 5.54 2.51 4.53L3.73 5.75V9.54L2.91 12.03C2.03 10.92 1.5 9.52 1.5 8ZM4.11 13.19L5.19 9.89L5.23 5.12L3.46 3.35C4.63 2.2 6.24 1.49 8 1.49C9.62 1.49 11.1 2.09 12.23 3.07L10.49 4.45H7.24V9.59L9.44 11.92V14.33C8.97 14.44 8.49 14.5 7.99 14.5C6.53 14.5 5.18 14.01 4.1 13.19H4.11ZM10.95 13.79V11.33L8.75 9V5.96H11.02L13.25 4.19C14.03 5.26 14.5 6.58 14.5 8C14.5 10.52 13.05 12.71 10.95 13.79Z" fill="var(--fill-0, #333336)"/>
</svg>
