<svg width="16" height="16" viewBox="0 0 16 16" fill="none" xmlns="http://www.w3.org/2000/svg">
<path d="M14.9815 13.6645L14.3875 10.4635C14.3125 10.0545 14.1155 9.6805 13.8195 9.3825L5.0185 0.5805C4.2445 -0.1925 2.9855 -0.1945 2.2085 0.5805L0.5805 2.2085C-0.1935 2.9835 -0.1935 4.2435 0.5805 5.0185L9.3845 13.8215C9.6805 14.1165 10.0545 14.3125 10.4625 14.3875L13.6645 14.9815C13.7345 14.9935 13.8025 15.0005 13.8705 15.0005C14.1675 15.0005 14.4555 14.8835 14.6695 14.6695C14.9325 14.4055 15.0495 14.0305 14.9815 13.6645ZM2.5285 5.1965L1.3685 4.0365L1.3695 3.1885L3.1895 1.3675L4.0375 1.3685L5.1975 2.5285L2.5285 5.1965ZM10.6895 13.1585C10.5295 13.1285 10.3825 13.0515 10.2665 12.9345L3.4135 6.0815L6.0815 3.4135L12.9345 10.2655C13.0515 10.3835 13.1285 10.5305 13.1595 10.6915L13.6335 13.2485L13.2485 13.6335L10.6895 13.1585Z" fill="black"/>
</svg>
