<svg width="16" height="16" viewBox="0 0 16 16" fill="none" xmlns="http://www.w3.org/2000/svg">
<path fill-rule="evenodd" clip-rule="evenodd" d="M9.41421 13.4142C9.78929 13.0391 10 12.5304 10 12V10.938C10 10.7722 9.93415 10.6133 9.81694 10.4961C9.69973 10.3788 9.54076 10.313 9.375 10.313C9.20924 10.313 9.05027 10.3788 8.93306 10.4961C8.81585 10.6133 8.75 10.7722 8.75 10.938V12.15L8.15 12.75H1.85L1.25 12.15V3.85L1.85 3.25H8.15L8.75 3.85V5.375C8.75 5.54076 8.81585 5.69973 8.93306 5.81694C9.05027 5.93415 9.20924 6 9.375 6C9.54076 6 9.69973 5.93415 9.81694 5.81694C9.93415 5.69973 10 5.54076 10 5.375V4C10 3.46957 9.78929 2.96086 9.41421 2.58579C9.03914 2.21071 8.53043 2 8 2H2C1.46957 2 0.960859 2.21071 0.585786 2.58579C0.210714 2.96086 0 3.46957 0 4V12C0 12.5304 0.210714 13.0391 0.585786 13.4142C0.960859 13.7893 1.46957 14 2 14H8C8.53043 14 9.03914 13.7893 9.41421 13.4142ZM4.83306 8.61694C4.95027 8.73415 5.10924 8.8 5.275 8.8L12 8.797V10.853C12.0002 10.9519 12.0297 11.0484 12.0848 11.1305C12.1399 11.2126 12.2181 11.2765 12.3095 11.3142C12.4009 11.3518 12.5014 11.3616 12.5983 11.3421C12.6952 11.3227 12.7842 11.275 12.854 11.205L15.677 8.382V7.958L12.854 5.135C12.7841 5.06489 12.6949 5.01713 12.5978 4.99776C12.5007 4.9784 12.4 4.9883 12.3085 5.02622C12.2171 5.06413 12.1389 5.12836 12.084 5.21075C12.0291 5.29314 11.9998 5.38998 12 5.489V7.545L5.275 7.55C5.10924 7.55 4.95027 7.61585 4.83306 7.73306C4.71585 7.85027 4.65 8.00924 4.65 8.175C4.65 8.34076 4.71585 8.49973 4.83306 8.61694Z" fill="black"/>
</svg>
