<svg xmlns="http://www.w3.org/2000/svg" width="16" height="16" viewBox="0 0 16 16" fill="none">
  <path d="M8 2.50586C4.23566 2.50586 1.0528 4.81842 0 7.99969C1.0528 11.181 4.23566 13.4936 8 13.4936C11.7643 13.4936 14.9472 11.181 16 7.99969C14.9472 4.81842 11.7643 2.50586 8 2.50586ZM8 11.9936C5.18109 11.9936 2.62457 10.3743 1.60309 7.99969C2.62457 5.62518 5.18103 4.00586 8 4.00586C10.819 4.00586 13.3754 5.62518 14.3969 7.99969C13.3754 10.3743 10.8189 11.9936 8 11.9936Z" fill="#333336"/>
  <path fill-rule="evenodd" clip-rule="evenodd" d="M7.9989 6.5C7.17003 6.5 6.49805 7.17194 6.49805 8.00091C6.49805 8.82981 7.17001 9.50177 7.9989 9.50177C8.8278 9.50177 9.49976 8.82981 9.49976 8.00091C9.49976 7.17194 8.82778 6.5 7.9989 6.5ZM4.99805 8.00091C4.99805 6.34353 6.34158 5 7.9989 5C9.65623 5 10.9998 6.34353 10.9998 8.00091C10.9998 9.65824 9.65623 11.0018 7.9989 11.0018C6.34158 11.0018 4.99805 9.65824 4.99805 8.00091Z" fill="#333336"/>
</svg>
