<svg xmlns="http://www.w3.org/2000/svg" width="16" height="16" viewBox="0 0 16 16" fill="none">
  <path d="M13.4495 6.02977C11.9895 7.48977 10.0495 8.29977 7.97953 8.29977C5.90953 8.29977 3.96953 7.49977 2.50953 6.02977L1.98953 5.50977L0.0195312 7.38977L1.05953 8.47976L1.98953 7.58977C2.54953 8.06977 3.15953 8.46977 3.80953 8.79977L3.13953 10.3698L4.51953 10.9598L5.19953 9.35977C5.93953 9.58977 6.71953 9.72977 7.50953 9.76977V11.4298H9.00953V9.72976C9.67953 9.65976 10.3295 9.50977 10.9495 9.29977L11.6595 10.9498L13.0395 10.3598L12.3295 8.69977C12.9195 8.38977 13.4695 8.01977 13.9895 7.57977L14.9595 8.47976L15.9795 7.37977L13.9695 5.50977L13.4595 6.01977L13.4495 6.02977Z" fill="#333336"/>
</svg>
