<svg width="16" height="16" viewBox="0 0 16 16" fill="none" xmlns="http://www.w3.org/2000/svg">
<g clip-path="url(#clip0_3940_1200)">
<path d="M15.63 11.32L13.43 9.11997C13.17 8.85997 12.73 9.03997 12.73 9.40997V10.42C10.15 10.6 8.04 12.46 7.51 14.93C7.42 15.36 7.97 15.63 8.23 15.28C9.27999 13.9 10.89 12.99 12.72 12.87V13.82C12.72 14.19 13.16 14.37 13.42 14.11L15.62 11.91C15.78 11.75 15.78 11.49 15.62 11.33L15.63 11.32Z" fill="black"/>
<path fill-rule="evenodd" clip-rule="evenodd" d="M0 7C0 3.13 3.13 0 7 0C10.87 0 14 3.13 14 7C14 7.42 13.96 7.82 13.89 8.22C13.4 7.9 12.8 7.94 12.36 8.23C12.4 8.07 12.43 7.91 12.45 7.75H10.52C10.45 8.6 10.27 9.41 9.98 10.18C8.46 10.98 7.28 12.34 6.73 14C2.99 13.86 0 10.78 0 7.01V7ZM1.55 6.25C1.82 4.24 3.18 2.57 5.02 1.87C4.16 3.14 3.61 4.64 3.48 6.25H1.55ZM1.55 7.75H3.48C3.61 9.37 4.16 10.86 5.02 12.13C3.18 11.42 1.82 9.76 1.55 7.75ZM4.98 7.75C5.15 9.47 5.88 11.02 7 12.22C8.11 11.03 8.85 9.47 9.02 7.75H4.98ZM7 1.78C5.89 2.97 5.15 4.53 4.98 6.25H9.01C8.84 4.53 8.11 2.98 6.99 1.78H7ZM8.98 1.86C9.84 3.13 10.39 4.63 10.52 6.24H12.45C12.18 4.23 10.82 2.56 8.98 1.86Z" fill="black"/>
</g>
<defs>
<clipPath id="clip0_3940_1200">
<rect width="16" height="16" fill="white"/>
</clipPath>
</defs>
</svg>
