<svg xmlns="http://www.w3.org/2000/svg" width="16" height="16" viewBox="0 0 16 16" fill="none">
  <g clip-path="url(#clip0_3_1295)">
    <path d="M1.02086 5.85031H0.400859L0.280859 6.45031C0.180859 6.96031 0.130859 7.48031 0.130859 7.99031C0.130859 8.50031 0.180859 9.00031 0.280859 9.51031L0.400859 10.1203H1.02086C1.70086 10.1203 2.32086 10.4803 2.66086 11.0603C3.00086 11.6403 2.99086 12.3703 2.66086 12.9603L2.35086 13.4903L2.81086 13.9003C3.59086 14.5903 4.48086 15.1103 5.45086 15.4403L6.04086 15.6403L6.35086 15.1003C6.69086 14.5103 7.31086 14.1503 7.99086 14.1503C8.67086 14.1503 9.30086 14.5203 9.64086 15.1203L9.94086 15.6603L10.5309 15.4603C11.5109 15.1303 12.4009 14.6203 13.1809 13.9403L13.6509 13.5303L13.3309 12.9903C12.9809 12.4003 12.9809 11.6703 13.3209 11.0803C13.6609 10.4903 14.3509 10.1303 14.9909 10.1403H15.6209L15.7409 9.54031C15.8409 9.03031 15.8909 8.51031 15.8909 7.99031C15.8909 7.47031 15.8409 6.98031 15.7409 6.48031L15.6209 5.86031H14.9909C14.9909 5.86031 14.9709 5.86031 14.9609 5.86031C14.2909 5.86031 13.6609 5.50031 13.3209 4.92031C12.9809 4.33031 12.9809 3.59031 13.3409 3.00031L13.6609 2.46031L13.1909 2.05031C12.4109 1.37031 11.5209 0.850312 10.5409 0.520312L9.95086 0.320313L9.64086 0.860313C9.30086 1.45031 8.67086 1.82031 8.00086 1.82031C7.33086 1.82031 6.69086 1.45031 6.36086 0.860313L6.05086 0.320313L5.46086 0.520312C4.48086 0.850312 3.59086 1.37031 2.81086 2.05031L2.35086 2.46031L2.66086 2.99031C3.00086 3.57031 3.00086 4.30031 2.66086 4.88031C2.32086 5.46031 1.70086 5.81031 1.01086 5.82031L1.02086 5.85031ZM3.96086 5.66031C4.45086 4.80031 4.54086 3.78031 4.23086 2.86031C4.61086 2.58031 5.01086 2.35031 5.43086 2.16031C6.07086 2.90031 7.00086 3.34031 8.00086 3.34031C9.00086 3.34031 9.93086 2.90031 10.5709 2.16031C10.9909 2.35031 11.3909 2.58031 11.7709 2.85031C11.4409 3.78031 11.5209 4.81031 12.0309 5.68031C12.5309 6.55031 13.3809 7.14031 14.3509 7.32031C14.3709 7.55031 14.3909 7.77031 14.3909 7.99031C14.3909 8.23031 14.3809 8.46031 14.3509 8.69031C13.3809 8.86031 12.5209 9.46031 12.0209 10.3303C11.5209 11.1903 11.4409 12.2203 11.7609 13.1503C11.3909 13.4203 10.9809 13.6503 10.5609 13.8403C9.92086 13.0903 8.98086 12.6503 7.98086 12.6503C6.98086 12.6503 6.06086 13.0903 5.42086 13.8203C5.00086 13.6303 4.59086 13.4003 4.22086 13.1203C4.54086 12.2003 4.45086 11.1703 3.96086 10.3103C3.47086 9.46031 2.63086 8.87031 1.68086 8.68031C1.66086 8.45031 1.64086 8.22031 1.64086 7.99031C1.64086 7.76031 1.65086 7.52031 1.68086 7.28031C2.64086 7.10031 3.48086 6.51031 3.98086 5.65031L3.96086 5.66031Z" fill="#333336"/>
    <path d="M9.02047 6.98047H6.98047V9.02047H9.02047V6.98047Z" fill="#333336"/>
  </g>
  <defs>
    <clipPath id="clip0_3_1295">
      <rect width="16" height="16" fill="white"/>
    </clipPath>
  </defs>
</svg>
