<svg preserveAspectRatio="none" width="100%" height="100%" overflow="visible" style="display: block;" viewBox="0 0 16 16" fill="none" xmlns="http://www.w3.org/2000/svg">
<path id="Vector" d="M8 0C3.58 0 0 3.58 0 8C0 12.42 3.58 16 8 16C12.42 16 16 12.42 16 8C16 3.58 12.42 0 8 0ZM14.45 7.25H11.98C11.88 5.21 11.4 3.39 10.69 2.09C12.72 3.02 14.19 4.95 14.45 7.25ZM8 14.5C7.07 14.5 5.7 12.24 5.52 8.75H10.48C10.3 12.24 8.93 14.5 8 14.5ZM5.52 7.25C5.7 3.76 7.07 1.5 8 1.5C8.93 1.5 10.3 3.76 10.48 7.25H5.52ZM5.31 2.09C4.59 3.4 4.11 5.21 4.02 7.25H1.55C1.82 4.95 3.29 3.02 5.31 2.09ZM1.55 8.75H4.02C4.12 10.79 4.6 12.61 5.31 13.91C3.28 12.98 1.81 11.05 1.55 8.75ZM10.69 13.91C11.41 12.6 11.89 10.79 11.98 8.75H14.45C14.18 11.05 12.71 12.98 10.69 13.91Z" fill="var(--fill-0, #333336)"/>
</svg>
