<svg width="16" height="16" viewBox="0 0 16 16" fill="none" xmlns="http://www.w3.org/2000/svg">
<g clip-path="url(#clip0_5563_567)">
<path fill-rule="evenodd" clip-rule="evenodd" d="M10.6466 8.2341L11.3964 8.98384L10.8167 9.56355L11.8773 10.6242L16.0003 6.50121L14.9397 5.44055L14.3479 6.03227L13.5847 5.302L13.3487 4.22527C13.318 4.08523 13.2478 3.95692 13.1464 3.85555L11.2432 1.95236C9.54845 0.258823 6.80172 0.258551 5.10773 1.95255L4.79073 2.26955C4.61474 2.44554 4.53751 2.69737 4.5846 2.94177C4.63169 3.18616 4.79695 3.39128 5.02573 3.48929L6.88322 4.285L7.01924 4.96337L0.547682 11.4895L0.54647 11.4908C-0.183211 12.2217 -0.182808 13.4057 0.547682 14.1362L1.18168 14.7702C1.91239 15.5009 3.0974 15.5006 3.82834 14.7702L10.4423 8.18302L10.6466 8.2341ZM6.71947 2.58301L7.83638 3.06147C8.06332 3.15869 8.22788 3.36137 8.27642 3.60344L8.54982 4.96698L10.1455 6.56266L11.212 6.82927C11.3438 6.86224 11.4643 6.93043 11.5604 7.02655L12.457 7.92318L13.287 7.09319L12.3826 6.22778C12.2749 6.12477 12.2004 5.99203 12.1685 5.84649L11.9305 4.76096L10.1829 3.0134C9.2431 2.07442 7.80933 1.93104 6.71947 2.58301ZM8.98195 7.52044L7.78398 6.32246L1.60835 12.5502C1.46324 12.6953 1.46324 12.9304 1.60834 13.0755L2.24234 13.7095C2.38745 13.8547 2.62257 13.8547 2.76768 13.7095L8.98195 7.52044Z" fill="black"/>
</g>
<defs>
<clipPath id="clip0_5563_567">
<rect width="16" height="16" fill="white"/>
</clipPath>
</defs>
</svg>
