<svg width="16" height="16" viewBox="0 0 16 16" fill="none" xmlns="http://www.w3.org/2000/svg">
<path fill-rule="evenodd" clip-rule="evenodd" d="M7.75075 2.125C7.75075 1.78021 8.03096 1.5 8.37575 1.5C8.72053 1.5 9.00075 1.78021 9.00075 2.125V3.125V8H10.5007V3.125C10.5007 2.78021 10.781 2.5 11.1257 2.5C11.4705 2.5 11.7507 2.78021 11.7507 3.125V4.625V8H13.2507V4.625C13.2507 4.28021 13.531 4 13.8757 4C14.2205 4 14.5007 4.28021 14.5007 4.625V12.0188L13.3809 13.6628C13.2961 13.7872 13.2507 13.9344 13.2507 14.085V16H14.7507V14.3162L15.8706 12.6722C15.9554 12.5478 16.0007 12.4006 16.0007 12.25V4.625C16.0007 3.45179 15.049 2.5 13.8757 2.5C13.6354 2.5 13.4043 2.53996 13.1888 2.6136C12.9597 1.68724 12.1227 1 11.1257 1C10.8243 1 10.5374 1.06286 10.2775 1.17618C9.92885 0.478968 9.20801 0 8.37575 0C7.54348 0 6.82265 0.478968 6.47397 1.17618C6.21412 1.06286 5.92725 1 5.62575 1C4.45254 1 3.50075 1.95179 3.50075 3.125V7.25317C2.66579 6.54282 1.4111 6.58199 0.62242 7.37067C-0.207473 8.20056 -0.207473 9.54644 0.62242 10.3763L0.622628 10.3765L5.49975 15.2498V16H6.99975V14.939C6.99975 14.74 6.92065 14.5491 6.77987 14.4085L1.68308 9.31567C1.43897 9.07156 1.43897 8.67544 1.68308 8.43133C1.92719 8.18722 2.32331 8.18722 2.56742 8.43133L3.72042 9.58433C3.93492 9.79883 4.25751 9.863 4.53776 9.74691C4.81802 9.63082 5.00075 9.35735 5.00075 9.054V3.125C5.00075 2.78021 5.28096 2.5 5.62575 2.5C5.96996 2.5 6.24981 2.77927 6.25075 3.12326V8H7.75075L7.75075 3.125L7.75075 3.12178V2.125Z" fill="black"/>
</svg>
