<svg width="16" height="16" viewBox="0 0 16 16" fill="none" xmlns="http://www.w3.org/2000/svg">
<g clip-path="url(#clip0_3460_915)">
<path fill-rule="evenodd" clip-rule="evenodd" d="M6.7 11.66C6.84 11.8 7.03 11.88 7.23 11.88C7.43 11.88 7.62 11.8 7.76 11.66L14.51 4.91C14.86 4.57 15.05 4.11 15.05 3.62C15.05 3.13 14.86 2.67 14.51 2.33L12.72 0.54C12.38 0.19 11.92 0 11.43 0C10.94 0 10.48 0.2 10.14 0.54L3.39 7.29C3.1 7.58 3.1 8.06 3.39 8.35L3.9807 8.9407L1 11.93H5.24L6.10501 11.065L6.7 11.66ZM7.23 10.07L4.98 7.82V7.81L7.45562 5.33438L9.71062 7.58938L7.23 10.07ZM10.7713 6.52872L13.45 3.85C13.58 3.72 13.58 3.52 13.45 3.39L11.66 1.6C11.58 1.52 11.48 1.5 11.43 1.5C11.43 1.5 11.28 1.51 11.2 1.59L8.51628 4.27372L10.7713 6.52872Z" fill="black"/>
<path d="M0 14H15V16H0V14Z" fill="black"/>
</g>
<defs>
<clipPath id="clip0_3460_915">
<rect width="16" height="16" fill="white"/>
</clipPath>
</defs>
</svg>
