<svg width="16" height="16" viewBox="0 0 16 16" fill="none" xmlns="http://www.w3.org/2000/svg">
<path fill-rule="evenodd" clip-rule="evenodd" d="M6.69043 0.485681C7.43731 -0.161894 8.56269 -0.161893 9.30957 0.485681L16 6.28939L15.0176 7.4222L14.375 6.86459V12.9994C14.375 13.4862 14.2252 14.0092 13.9424 14.4281C13.6575 14.8498 13.1712 15.2494 12.5 15.2494H3.5C2.82876 15.2494 2.34252 14.8498 2.05762 14.4281C1.77479 14.0092 1.625 13.4862 1.625 12.9994V6.86459L0.983398 7.4222L0 6.28939L6.69043 0.485681ZM8.32812 1.61849C8.14117 1.45666 7.85881 1.45665 7.67285 1.61849L3.125 5.56381V12.9994C3.125 13.2021 3.19301 13.4297 3.2998 13.5882C3.40492 13.7439 3.48133 13.7494 3.5 13.7494H5.5V10.2503C5.5 9.28412 6.28379 8.50033 7.25 8.50033H8.75C9.71621 8.50033 10.5 9.28412 10.5 10.2503V13.7494H12.5C12.5187 13.7494 12.5951 13.7439 12.7002 13.5882C12.807 13.4297 12.875 13.2021 12.875 12.9994V5.56283L8.32812 1.61849ZM7.25 10.0003C7.11221 10.0003 7 10.1125 7 10.2503V13.7494H9V10.2503C9 10.1125 8.88779 10.0003 8.75 10.0003H7.25Z" fill="black"/>
</svg>
