<svg width="16" height="16" viewBox="0 0 16 16" fill="none" xmlns="http://www.w3.org/2000/svg">
<path fill-rule="evenodd" clip-rule="evenodd" d="M11.6289 12.8189C11.7461 12.7017 11.812 12.5428 11.812 12.377V12.376L11.807 5.668H13.863C13.9618 5.66826 14.0585 5.63917 14.1407 5.58442C14.223 5.52967 14.2872 5.45172 14.3251 5.36046C14.363 5.2692 14.373 5.16874 14.3537 5.07181C14.3345 4.97488 14.2869 4.88585 14.217 4.816L11.394 2H10.97L8.14698 4.816C8.07756 4.88603 8.0304 4.97503 8.01142 5.0718C7.99245 5.16857 8.00251 5.26878 8.04035 5.35985C8.07818 5.45091 8.1421 5.52875 8.22406 5.58358C8.30603 5.63841 8.40237 5.66778 8.50098 5.668H10.557L10.562 12.377C10.562 12.5428 10.6278 12.7017 10.745 12.8189C10.8622 12.9362 11.0212 13.002 11.187 13.002C11.3527 13.002 11.5117 12.9362 11.6289 12.8189ZM4.38817 3.198C4.27194 3.30966 4.20343 3.46196 4.19698 3.623L4.20198 10.332H2.15098C2.05246 10.3324 1.95625 10.3619 1.87444 10.4168C1.79263 10.4717 1.72887 10.5496 1.69115 10.6406C1.65344 10.7316 1.64346 10.8318 1.66247 10.9284C1.68147 11.0251 1.72862 11.114 1.79798 11.184L4.61398 14H5.03698L7.85298 11.184C7.92234 11.114 7.96949 11.0251 7.98849 10.9284C8.0075 10.8318 7.99752 10.7316 7.95981 10.6406C7.9221 10.5496 7.85833 10.4717 7.77652 10.4168C7.69471 10.3619 7.59851 10.3324 7.49998 10.332H5.44898L5.44398 3.623C5.43753 3.46196 5.36902 3.30966 5.2528 3.198C5.13657 3.08634 4.98165 3.02398 4.82048 3.02398C4.65931 3.02398 4.50439 3.08634 4.38817 3.198Z" fill="black"/>
</svg>
