<svg width="16" height="16" viewBox="0 0 16 16" fill="none" xmlns="http://www.w3.org/2000/svg">
<path fill-rule="evenodd" clip-rule="evenodd" d="M16 14.9395L14.9395 16L13.8018 14.8623C13.479 15.5342 12.794 16 12 16H4C2.897 16 2 15.103 2 14V9C2.00002 7.89702 2.89701 7 4 7V5.06055L0 1.06055L1.06055 0L16 14.9395ZM4 8.5C3.72401 8.5 3.50002 8.72502 3.5 9V14C3.5 14.275 3.724 14.5 4 14.5H12C12.276 14.5 12.5 14.275 12.5 14V13.5605L7.43945 8.5H4Z" fill="black"/>
<path d="M8 0C10.206 1.80968e-06 12 1.794 12 4V7C13.103 7 14 7.897 14 9V11.1768L12.5 9.67676V9C12.5 8.725 12.276 8.5 12 8.5H11.3232L9.82324 7H10.5V4C10.5 2.621 9.378 1.5 8 1.5C7.004 1.5 6.1597 2.09343 5.7627 2.94043L4.65918 1.83594C5.37019 0.736008 6.59505 0 8 0Z" fill="black"/>
</svg>
