<svg width="16" height="16" viewBox="0 0 16 16" fill="none" xmlns="http://www.w3.org/2000/svg">
<path d="M15.987 3C15.987 2.46957 15.7763 1.96086 15.4012 1.58579C15.0261 1.21071 14.5174 1 13.987 1H6.98699C6.45655 1 5.94785 1.21071 5.57277 1.58579C5.1977 1.96086 4.98699 2.46957 4.98699 3V8.911C4.389 8.71227 3.74548 8.69557 3.13799 8.863C2.61812 9.00654 2.1447 9.28322 1.76448 9.66572C1.38427 10.0482 1.11042 10.5233 0.969987 11.044C0.843329 11.5116 0.826343 12.0022 0.920354 12.4774C1.01437 12.9527 1.21683 13.3998 1.51199 13.784C1.8031 14.1635 2.1779 14.4707 2.60719 14.6816C3.03649 14.8925 3.50868 15.0015 3.98699 15C4.52899 15 5.06499 14.858 5.53699 14.59C5.96899 14.342 6.23699 13.88 6.23699 13.385V6H14.75V8.911C14.152 8.71227 13.5085 8.69557 12.901 8.863C12.3812 9.00651 11.9079 9.2832 11.5278 9.66571C11.1478 10.0482 10.8741 10.5233 10.734 11.044C10.607 11.5116 10.5899 12.0022 10.6839 12.4775C10.7779 12.9528 10.9806 13.4 11.276 13.784C11.5667 14.1637 11.9413 14.471 12.3705 14.6819C12.7997 14.8929 13.2718 15.0017 13.75 15C14.293 15 14.828 14.858 15.299 14.59C15.731 14.342 16 13.88 16 13.385L15.987 3ZM4.98699 13.385C4.98667 13.4095 4.97995 13.4334 4.96749 13.4545C4.95503 13.4755 4.93727 13.4929 4.91599 13.505C4.12799 13.954 3.06099 13.742 2.50099 13.02C2.32142 12.7879 2.19875 12.5169 2.14283 12.2288C2.08692 11.9407 2.0993 11.6435 2.17899 11.361C2.28536 10.9653 2.52103 10.6166 2.84848 10.3703C3.17593 10.1241 3.57634 9.99442 3.98599 10.002C4.34299 10.002 4.68699 10.1 4.98599 10.289V13.385H4.98699ZM14.75 13.385C14.7496 13.4096 14.7427 13.4336 14.7301 13.4546C14.7174 13.4757 14.6995 13.4931 14.678 13.505C13.892 13.954 12.823 13.742 12.264 13.02C12.0843 12.7877 11.9616 12.5165 11.9057 12.2283C11.8498 11.94 11.8622 11.6426 11.942 11.36C12.025 11.0525 12.1867 10.7719 12.4112 10.5459C12.6356 10.3199 12.9151 10.1562 13.222 10.071C13.398 10.024 13.575 10.002 13.748 10.002C14.105 10.002 14.449 10.1 14.748 10.289V13.385H14.75ZM14.737 4.75H6.23699V2.85L6.83699 2.25H14.137L14.737 2.85V4.75Z" fill="black"/>
</svg>
