<svg width="16" height="16" viewBox="0 0 16 16" fill="none" xmlns="http://www.w3.org/2000/svg">
<g clip-path="url(#clip0_5563_569)">
<path fill-rule="evenodd" clip-rule="evenodd" d="M6 0.5C4.89579 0.5 4 1.39579 4 2.5V9H3C1.34279 9 0 10.3428 0 12C0 13.6572 1.34279 15 3 15C3.94279 15 4.78491 14.5643 5.33341 13.8853L5.5 13.6791V5.5H14.5005L14.5012 9H13.5C11.8428 9 10.5 10.3428 10.5 12C10.5 13.6572 11.8428 15 13.5 15C14.4446 15 15.2864 14.5626 15.8353 13.8834L16.002 13.6771L16 2.49986C15.9999 1.39571 15.1042 0.5 14 0.5H6ZM14.5003 4L14.5 2.50014C14.5 2.22435 14.2758 2 14 2H6C5.72421 2 5.5 2.22421 5.5 2.5V4H14.5003ZM3 10.5H4V13.1181C3.73446 13.3561 3.3843 13.5 3 13.5C2.17121 13.5 1.5 12.8288 1.5 12C1.5 11.1712 2.17121 10.5 3 10.5ZM13.5 10.5H14.5015L14.5019 13.1163C14.2354 13.3557 13.8847 13.5 13.5 13.5C12.6712 13.5 12 12.8288 12 12C12 11.1712 12.6712 10.5 13.5 10.5Z" fill="black"/>
</g>
<defs>
<clipPath id="clip0_5563_569">
<rect width="16" height="16" fill="white"/>
</clipPath>
</defs>
</svg>
