<svg width="16" height="16" viewBox="0 0 16 16" fill="none" xmlns="http://www.w3.org/2000/svg">
<path fill-rule="evenodd" clip-rule="evenodd" d="M1.06703 0.183008C0.948668 0.0706295 0.791094 0.0089227 0.627893 0.011039C0.464692 0.0131553 0.308771 0.0789275 0.193361 0.194338C0.0779509 0.309748 0.0121788 0.465669 0.0100625 0.628869C0.00794614 0.79207 0.069653 0.949644 0.182032 1.06801L1.22803 2.11401C1.08267 2.38701 1.0045 2.69075 1.00003 3.00001V10C1.00003 10.5304 1.21075 11.0391 1.58582 11.4142C1.96089 11.7893 2.4696 12 3.00003 12H7.00003L10.75 15H12V12.885L13.932 14.817C14.0494 14.9344 14.2086 15.0003 14.3745 15.0003C14.5405 15.0003 14.6997 14.9344 14.817 14.817C14.9344 14.6997 15.0003 14.5405 15.0003 14.3745C15.0003 14.2085 14.9344 14.0494 14.817 13.932L1.06703 0.183008ZM10.75 13.399L7.71203 10.969C7.53462 10.8271 7.31419 10.7499 7.08703 10.75H2.85003L2.25003 10.15V3.13501L6.11503 7.00001H4.87503C4.70927 7.00001 4.5503 7.06586 4.43309 7.18307C4.31588 7.30028 4.25003 7.45925 4.25003 7.62501C4.25003 7.79077 4.31588 7.94974 4.43309 8.06695C4.5503 8.18416 4.70927 8.25001 4.87503 8.25001H7.36503L10.75 11.635V13.399ZM13 1.00001H3.65402L4.90402 2.25001H13.151L13.751 2.85001V10.15L13.278 10.623L14.226 11.571C14.693 11.205 15 10.641 15 10V3.00001C15 2.46958 14.7893 1.96087 14.4142 1.5858C14.0392 1.21072 13.5305 1.00001 13 1.00001ZM11.125 5.25001H7.90402L6.65402 4.00001H11.125C11.2908 4.00001 11.4498 4.06586 11.567 4.18307C11.6842 4.30028 11.75 4.45925 11.75 4.62501C11.75 4.79077 11.6842 4.94974 11.567 5.06695C11.4498 5.18416 11.2908 5.25001 11.125 5.25001Z" fill="black"/>
</svg>
