<svg width="16" height="16" viewBox="0 0 16 16" fill="none" xmlns="http://www.w3.org/2000/svg">
<g clip-path="url(#clip0_5563_561)">
<path d="M5 6.00006C5.55228 6.00006 6 6.44778 6 7.00006C6 7.55235 5.55228 8.00006 5 8.00006C4.44772 8.00006 4 7.55235 4 7.00006C4 6.44778 4.44772 6.00006 5 6.00006Z" fill="black"/>
<path d="M9 5.00006C9 4.44778 8.55228 4.00006 8 4.00006C7.44772 4.00006 7 4.44778 7 5.00006C7 5.55235 7.44772 6.00006 8 6.00006C8.55228 6.00006 9 5.55235 9 5.00006Z" fill="black"/>
<path d="M11 6.00006C11.5523 6.00006 12 6.44778 12 7.00006C12 7.55235 11.5523 8.00006 11 8.00006C10.4477 8.00006 10 7.55235 10 7.00006C10 6.44778 10.4477 6.00006 11 6.00006Z" fill="black"/>
<path fill-rule="evenodd" clip-rule="evenodd" d="M7.99989 15.5001H8.52989C9.24989 15.5001 9.90989 15.1301 10.2699 14.5001C10.6299 13.8701 10.6299 13.1201 10.2699 12.4901C10.1399 12.2601 10.2299 12.0601 10.2699 11.9801C10.3099 11.9001 10.4399 11.7201 10.7099 11.7201H11.7399C12.7499 11.7201 13.6999 11.3201 14.4099 10.6001C15.1299 9.87007 15.5099 8.91007 15.4999 7.89007C15.4699 5.69007 14.4799 3.62007 12.7799 2.21007C11.0699 0.810072 8.82989 0.230072 6.62989 0.620072C3.44989 1.19007 0.949891 3.84007 0.549891 7.06007C0.289891 9.21007 0.959891 11.3601 2.37989 12.9701C3.80989 14.5801 5.84989 15.5001 7.99989 15.5001ZM6.88989 2.10007C7.26989 2.03007 7.63989 2.00007 8.00989 2.00007L7.98989 2.01007C9.38989 2.01007 10.7099 2.48007 11.7999 3.38007C13.1599 4.50007 13.9599 6.16007 13.9799 7.92007C13.9799 8.53007 13.7499 9.11007 13.3199 9.55007C12.8899 9.98007 12.3299 10.2201 11.7199 10.2201H10.6899C9.96989 10.2201 9.30989 10.5901 8.94989 11.2201C8.58989 11.8501 8.58989 12.6001 8.94989 13.2301C9.07989 13.4601 8.98989 13.6601 8.94989 13.7401C8.90989 13.8201 8.77989 14.0001 8.50989 14.0001H7.98989C6.27989 14.0001 4.63989 13.2701 3.49989 11.9801C2.34989 10.6801 1.82989 9.00007 2.03989 7.25007C2.35989 4.67007 4.34989 2.55007 6.88989 2.10007Z" fill="black"/>
</g>
<defs>
<clipPath id="clip0_5563_561">
<rect width="16" height="16" fill="white"/>
</clipPath>
</defs>
</svg>
