<svg width="16" height="16" viewBox="0 0 16 16" fill="none" xmlns="http://www.w3.org/2000/svg">
<g clip-path="url(#clip0_3547_876)">
<path d="M4.50029 7.24956C5.05229 7.24971 5.50004 7.69758 5.50029 8.24956C5.50029 8.80175 5.05244 9.2494 4.50029 9.24956C3.948 9.24956 3.50029 8.80184 3.50029 8.24956C3.50054 7.69748 3.94816 7.24956 4.50029 7.24956Z" fill="black"/>
<path fill-rule="evenodd" clip-rule="evenodd" d="M3.70146 3.81889C5.68739 3.47432 7.49148 4.44376 8.39189 5.99956H13.3977C13.6215 5.99972 13.8337 6.07505 14.0052 6.20561L14.0765 6.26518L14.0833 6.27104L15.6858 7.7769L15.6868 7.77788C16.095 8.16259 16.1093 8.81205 15.7083 9.21342L13.5208 11.4009C13.1299 11.7918 12.4967 11.7917 12.1058 11.4009L11.637 10.9322L11.1683 11.4009C10.7774 11.7916 10.145 11.7917 9.75419 11.4009L8.85283 10.4996H8.38994C7.61341 11.8407 6.16683 12.7494 4.50029 12.7496C1.66819 12.7495 -0.549928 10.1325 0.120405 7.1978L0.202437 6.89213C0.666713 5.38468 1.94314 4.20013 3.49052 3.85991L3.70146 3.81889ZM7.24638 7.05034C6.69913 5.79883 5.33077 4.9917 3.81181 5.32475L3.81279 5.32573C2.72559 5.56477 1.82942 6.44966 1.58232 7.53178C1.13072 9.509 2.61252 11.2495 4.50029 11.2496C5.72688 11.2494 6.78188 10.5102 7.24638 9.44878L7.29814 9.35112C7.43393 9.13488 7.67343 8.99956 7.93388 8.99956H9.16337C9.36209 8.99966 9.5531 9.0788 9.69365 9.21928L10.4612 9.98686L11.1067 9.34135C11.2473 9.20099 11.4384 9.12173 11.637 9.12163C11.8356 9.12173 12.0267 9.20096 12.1673 9.34135L12.8128 9.98686L14.2825 8.51714L13.1995 7.49956H7.93388C7.6359 7.49956 7.36581 7.32333 7.24638 7.05034Z" fill="black"/>
</g>
<defs>
<clipPath id="clip0_3547_876">
<rect width="16" height="16" fill="white"/>
</clipPath>
</defs>
</svg>
