<svg width="16" height="16" viewBox="0 0 16 16" fill="none" xmlns="http://www.w3.org/2000/svg">
<path d="M4.5 14H5.5C5.89782 14 6.27936 13.842 6.56066 13.5607C6.84196 13.2794 7 12.8978 7 12.5V3.5C7 3.10218 6.84196 2.72064 6.56066 2.43934C6.27936 2.15804 5.89782 2 5.5 2H4.5C4.10218 2 3.72064 2.15804 3.43934 2.43934C3.15804 2.72064 3 3.10218 3 3.5V12.5C3 12.8978 3.15804 13.2794 3.43934 13.5607C3.72064 13.842 4.10218 14 4.5 14Z" fill="black"/>
<path d="M10.5 14H11.5C11.8978 14 12.2794 13.842 12.5607 13.5607C12.842 13.2794 13 12.8978 13 12.5V3.5C13 3.10218 12.842 2.72064 12.5607 2.43934C12.2794 2.15804 11.8978 2 11.5 2H10.5C10.1022 2 9.72064 2.15804 9.43934 2.43934C9.15804 2.72064 9 3.10218 9 3.5V12.5C9 12.8978 9.15804 13.2794 9.43934 13.5607C9.72064 13.842 10.1022 14 10.5 14Z" fill="black"/>
</svg>
