<svg width="16" height="16" viewBox="0 0 16 16" fill="none" xmlns="http://www.w3.org/2000/svg">
<path d="M12 2.5C12 3.60457 11.3284 4.5 10.5 4.5C9.67157 4.5 9 3.60457 9 2.5C9 1.39543 9.67157 0.5 10.5 0.5C11.3284 0.5 12 1.39543 12 2.5Z" fill="black"/>
<path fill-rule="evenodd" clip-rule="evenodd" d="M4.67999 15C3.19999 15 1.98999 13.76 1.98999 12.25C1.98999 11.52 2.26999 10.83 2.76999 10.31L3.36999 9.69C4.19999 8.83 4.86999 7.84 5.35999 6.73C5.82999 5.68 6.85999 5 7.98999 5C9.11999 5 10.15 5.68 10.62 6.73C11.11 7.83 11.78 8.83 12.61 9.69L13.21 10.31C13.71 10.83 13.99 11.52 13.99 12.25C13.99 13.77 12.78 15 11.3 15H4.67999ZM7.99999 6.5C7.45999 6.5 6.96999 6.83 6.73999 7.34C6.17999 8.6 5.40999 9.74 4.45999 10.73L3.85999 11.35C3.62999 11.58 3.49999 11.91 3.49999 12.24C3.49999 12.93 4.02999 13.49 4.68999 13.49H11.32C11.97 13.49 12.51 12.93 12.51 12.24C12.51 11.91 12.38 11.58 12.15 11.35L11.55 10.73C10.6 9.75 9.82999 8.61 9.26999 7.34C9.03999 6.83 8.54999 6.5 8.00999 6.5H7.99999Z" fill="black"/>
<path d="M14.5 9C15.3284 9 16 8.10457 16 7C16 5.89543 15.3284 5 14.5 5C13.6716 5 13 5.89543 13 7C13 8.10457 13.6716 9 14.5 9Z" fill="black"/>
<path d="M5.5 4.5C6.32843 4.5 7 3.60457 7 2.5C7 1.39543 6.32843 0.5 5.5 0.5C4.67157 0.5 4 1.39543 4 2.5C4 3.60457 4.67157 4.5 5.5 4.5Z" fill="black"/>
<path d="M3 7C3 8.10457 2.32843 9 1.5 9C0.671573 9 0 8.10457 0 7C0 5.89543 0.671573 5 1.5 5C2.32843 5 3 5.89543 3 7Z" fill="black"/>
</svg>
