<svg width="16" height="16" viewBox="0 0 16 16" fill="none" xmlns="http://www.w3.org/2000/svg">
<path fill-rule="evenodd" clip-rule="evenodd" d="M8.125 15C8.29076 15 8.44973 14.9342 8.56694 14.8169C8.68415 14.6997 8.75 14.5408 8.75 14.375C8.75 14.2092 8.68415 14.0503 8.56694 13.9331C8.44973 13.8158 8.29076 13.75 8.125 13.75H1.85L1.25 13.15V3.85L1.85 3.25H12.15L12.75 3.85V8.125C12.75 8.29076 12.8158 8.44973 12.9331 8.56694C13.0503 8.68415 13.2092 8.75 13.375 8.75C13.5408 8.75 13.6997 8.68415 13.8169 8.56694C13.9342 8.44973 14 8.29076 14 8.125V4C14 3.46957 13.7893 2.96086 13.4142 2.58579C13.0391 2.21071 12.5304 2 12 2H2C1.46957 2 0.960859 2.21071 0.585786 2.58579C0.210714 2.96086 0 3.46957 0 4V13C0 13.5304 0.210714 14.0391 0.585786 14.4142C0.960859 14.7893 1.46957 15 2 15H8.125ZM15 10H11C10.7348 10 10.4804 10.1054 10.2929 10.2929C10.1054 10.4804 10 10.7348 10 11V14C10 14.2652 10.1054 14.5196 10.2929 14.7071C10.4804 14.8946 10.7348 15 11 15H15C15.2652 15 15.5196 14.8946 15.7071 14.7071C15.8946 14.5196 16 14.2652 16 14V11C16 10.7348 15.8946 10.4804 15.7071 10.2929C15.5196 10.1054 15.2652 10 15 10ZM7.464 7.08L6.714 7.83L4.062 5.178C3.96926 5.08621 3.84985 5.02614 3.72087 5.00638C3.59189 4.98662 3.45997 5.00819 3.344 5.068C3.28172 5.09295 3.22515 5.13027 3.17771 5.17771C3.13027 5.22515 3.09295 5.28172 3.068 5.344C3.00819 5.45997 2.98662 5.59189 3.00638 5.72087C3.02614 5.84984 3.08622 5.96926 3.178 6.062L5.83 8.714L5.08 9.464C5.0361 9.50791 5.00621 9.56386 4.99409 9.62476C4.98198 9.68566 4.9882 9.74879 5.01196 9.80615C5.03572 9.86352 5.07596 9.91256 5.12759 9.94706C5.17921 9.98156 5.23991 9.99999 5.302 10H7.811L8 9.812V7.303C8.00019 7.24082 7.98191 7.17999 7.94748 7.12821C7.91305 7.07643 7.86403 7.03604 7.80662 7.01215C7.74921 6.98827 7.686 6.98196 7.62501 6.99404C7.56401 7.00612 7.50798 7.03604 7.464 7.08Z" fill="black"/>
</svg>
