<svg width="16" height="16" viewBox="0 0 16 16" fill="none" xmlns="http://www.w3.org/2000/svg">
<path d="M15.817 13.9341L11.725 9.84208L13.782 7.78508C14.0096 7.558 14.1645 7.26842 14.2272 6.95309C14.2899 6.63777 14.2574 6.31093 14.134 6.01408C14.0116 5.71683 13.8034 5.46274 13.5361 5.28413C13.2689 5.10551 12.9545 5.01047 12.633 5.01108H10.782L7.60699 1.83408C7.58599 1.81308 7.55799 1.80408 7.53499 1.78608L8.25399 1.06708C8.31204 1.00904 8.35808 0.94013 8.38949 0.864291C8.42091 0.788453 8.43707 0.707169 8.43707 0.625082C8.43707 0.542995 8.42091 0.461712 8.38949 0.385874C8.35808 0.310035 8.31204 0.241127 8.25399 0.183082C8.19595 0.125038 8.12704 0.0789949 8.0512 0.0475816C7.97536 0.0161682 7.89408 0 7.81199 0C7.7299 0 7.64862 0.0161682 7.57278 0.0475816C7.49694 0.0789949 7.42804 0.125038 7.36999 0.183082L1.18299 6.37108C1.06577 6.48831 0.999908 6.6473 0.999908 6.81308C0.999908 6.97886 1.06577 7.13786 1.18299 7.25508C1.30022 7.37231 1.45921 7.43816 1.62499 7.43816C1.79077 7.43816 1.94977 7.37231 2.06699 7.25508L2.78599 6.53608C2.80299 6.55908 2.81199 6.58608 2.83299 6.60808L6.00999 9.78408V11.6341C6.00999 12.2941 6.40399 12.8831 7.01299 13.1351C7.30986 13.2584 7.63667 13.2908 7.95196 13.2281C8.26726 13.1654 8.55684 13.0105 8.78399 12.7831L10.841 10.7261L14.933 14.8181C15.0502 14.9353 15.2092 15.0012 15.375 15.0012C15.5408 15.0012 15.6998 14.9353 15.817 14.8181C15.9342 14.7009 16.0001 14.5419 16.0001 14.3761C16.0001 14.2103 15.9342 14.0513 15.817 13.9341ZM6.94399 2.94108L10.023 6.01908L10.646 6.26108H12.633C12.859 6.26108 12.95 6.42308 12.98 6.49208C13.0098 6.56029 13.0179 6.63602 13.0033 6.709C12.9886 6.78198 12.9518 6.84869 12.898 6.90008L7.89999 11.8981C7.84868 11.9521 7.78197 11.9889 7.70895 12.0036C7.63594 12.0182 7.56017 12.01 7.49199 11.9801C7.4225 11.953 7.36305 11.9051 7.32172 11.843C7.28038 11.781 7.25918 11.7076 7.26099 11.6331V9.64108L7.01099 9.01608L3.93999 5.94508V5.37808L6.44999 2.86908L6.94399 2.94108Z" fill="black"/>
</svg>
