<svg width="16" height="16" viewBox="0 0 16 16" fill="none" xmlns="http://www.w3.org/2000/svg">
<path fill-rule="evenodd" clip-rule="evenodd" d="M13.15 4.25H6.89699L3.70599 1.059C3.70881 1.05814 3.71162 1.05728 3.71444 1.05642C3.80663 1.02825 3.89908 1 3.99999 1H5.99999C6.26521 1 6.51956 1.10536 6.7071 1.29289C6.89464 1.48043 6.99999 1.73478 6.99999 2V3H8.99999V2C8.99999 1.73478 9.10535 1.48043 9.29289 1.29289C9.48042 1.10536 9.73478 1 9.99999 1H12C12.2652 1 12.5196 1.10536 12.7071 1.29289C12.8946 1.48043 13 1.73478 13 2V3C13.5304 3 14.0391 3.21071 14.4142 3.58579C14.7893 3.96086 15 4.46957 15 5V12C15 12.11 14.985 12.216 14.968 12.321L13.75 11.103V4.85L13.15 4.25ZM2.067 1.183L14.817 13.933C14.9263 14.0518 14.9854 14.2083 14.9821 14.3697C14.9787 14.531 14.9132 14.6849 14.7991 14.7991C14.685 14.9133 14.5312 14.9791 14.3698 14.9826C14.2085 14.9861 14.0519 14.9271 13.933 14.818L13.105 13.99C13.0901 13.9909 13.0754 13.9928 13.0606 13.9947C13.0407 13.9974 13.0207 14 13 14H3C2.46957 14 1.96086 13.7893 1.58579 13.4142C1.21071 13.0391 1 12.5304 1 12V5C1.00034 4.60023 1.1206 4.20976 1.34522 3.87907C1.56984 3.54837 1.8885 3.29266 2.26 3.145L1.182 2.068C1.06962 1.94964 1.00791 1.79206 1.01003 1.62886C1.01215 1.46566 1.07792 1.30974 1.19333 1.19433C1.30874 1.07892 1.46466 1.01315 1.62786 1.01103C1.79106 1.00892 1.94864 1.07062 2.067 1.183ZM2.25 12.15L2.85 12.75H11.865L3.365 4.25H2.85L2.25 4.85V12.15Z" fill="black"/>
</svg>
