<svg width="16" height="16" viewBox="0 0 16 16" fill="none" xmlns="http://www.w3.org/2000/svg">
<g clip-path="url(#clip0_6986_1389)">
<path fill-rule="evenodd" clip-rule="evenodd" d="M8.21094 2C8.18394 2.23396 8.18938 2.47484 8.23535 2.7168L8.37988 3.5H4C3.724 3.5 3.5 3.724 3.5 4V11.5H9.25C9.664 11.5 10 11.836 10 12.25V13.75C10 14.164 10.337 14.5 10.75 14.5C11.163 14.5 11.5 14.164 11.5 13.75V7.91016C11.5759 7.94911 11.6467 7.99822 11.7236 8.0332C12.0435 8.17814 12.3797 8.24994 12.7266 8.25C12.8186 8.25 12.909 8.2307 13 8.2207V13.75C13 14.993 11.993 16 10.75 16H2.25C1.007 16 0 14.993 0 13.75V12.25C0 11.836 0.336 11.5 0.75 11.5H2V4C2 2.895 2.895 2 4 2H8.21094ZM1.5 13.75C1.5 14.164 1.837 14.5 2.25 14.5H8.62891C8.54491 14.265 8.5 14.013 8.5 13.75V13H1.5V13.75Z" fill="black"/>
<path d="M9.5 10H5.5V8.5H9.5V10Z" fill="black"/>
<path d="M9.01758 5.5C9.09258 5.637 9.15223 5.78509 9.24023 5.91309C9.31921 6.02902 9.41304 6.13322 9.5 6.24316V7H5.5V5.5H9.01758Z" fill="black"/>
<path fill-rule="evenodd" clip-rule="evenodd" d="M12.7051 0C12.8959 1.27408e-05 13.0859 0.046736 13.2588 0.141602L15.4014 1.28223C15.867 1.53425 16.0795 2.02494 15.9727 2.59668L15.7422 3.8252C15.6462 4.34213 15.4575 4.80616 15.1846 5.20312C14.6776 5.94298 13.9777 6.5436 13.2148 6.89355C13.0578 6.96555 12.8946 7 12.7266 7C12.5578 6.99994 12.3949 6.96533 12.2432 6.89648C11.4802 6.54848 10.7786 5.9481 10.2686 5.2041C9.99566 4.80821 9.80794 4.34213 9.71094 3.82031L9.46289 2.48535C9.36989 1.99436 9.6068 1.50265 10.0508 1.26465L12.1572 0.137695C12.3291 0.0458033 12.5172 0 12.7051 0ZM10.7061 2.33301L10.9404 3.5918C11.0044 3.9398 11.1249 4.24412 11.2979 4.49512C11.6729 5.04269 12.1773 5.48294 12.7227 5.74121L12.709 1.26465L12.7051 1.2627L10.7061 2.33301Z" fill="black"/>
</g>
<defs>
<clipPath id="clip0_6986_1389">
<rect width="16" height="16" fill="white"/>
</clipPath>
</defs>
</svg>
