<svg width="16" height="16" viewBox="0 0 16 16" fill="none" xmlns="http://www.w3.org/2000/svg">
<path d="M13.061 11.237L10.115 14.182C9.99818 14.2996 9.93262 14.4587 9.93262 14.6245C9.93262 14.7902 9.99818 14.9493 10.115 15.067C10.1729 15.1252 10.2418 15.1715 10.3176 15.2031C10.3935 15.2346 10.4748 15.2509 10.557 15.2509C10.6392 15.2509 10.7205 15.2346 10.7964 15.2031C10.8722 15.1715 10.9411 15.1252 10.999 15.067L14.999 11.067V10.182L10.999 6.18195C10.8806 6.06957 10.7231 6.00787 10.5599 6.00998C10.3967 6.0121 10.2407 6.07787 10.1253 6.19328C10.0099 6.30869 9.94415 6.46461 9.94203 6.62781C9.93991 6.79101 10.0016 6.94859 10.114 7.06695L13.06 10.012H3.992C3.78848 10.0114 3.59344 9.93034 3.44953 9.78643C3.30561 9.64251 3.22453 9.44748 3.224 9.24395V1.62395C3.22393 1.54358 3.20804 1.46401 3.17722 1.38979C3.14641 1.31556 3.10127 1.24813 3.0444 1.19135C2.98752 1.13457 2.92002 1.08954 2.84574 1.05885C2.77146 1.02815 2.69187 1.01239 2.6115 1.01245C2.53113 1.01252 2.45156 1.02841 2.37734 1.05923C2.30311 1.09004 2.23568 1.13518 2.1789 1.19206C2.12211 1.24893 2.07709 1.31643 2.04639 1.39071C2.0157 1.46499 1.99993 1.54458 2 1.62495V9.24495C2 10.344 2.894 11.237 3.992 11.237H13.061Z" fill="black"/>
</svg>
