<svg xmlns="http://www.w3.org/2000/svg" width="16" height="16" viewBox="0 0 16 16">
<path d="M8,0C3.589,0,0,3.5891,0,8s3.589,8,8,8,8-3.589,8-8S12.411,0,8,0ZM12.783,9.0798c-.217,1.144-1.152,2.004-2.272,2.004-.518,0-.991-.1899-1.377-.5v.002l-.366-.303c-.457-.379-1.119-.373-1.57.012l-.244.209c-.401.358-.907.581-1.467.581-1.12,0-2.055-.86-2.272-2.004-.108-.284-.298-2.083-.175-2.571v-.0031c-.023-.494.311-.933.793-1.043h.001c1.199-.272,2.454.066,3.354.904l.15.14c.18.167.416.26.661.26s.481-.093.66-.26l.154-.142c.899-.836,2.154-1.174,3.351-.902.483.109.818.551.793,1.046.13.495-.067,2.287-.174,2.5699Z"/><path d="M5.5,7.1479c-.558,0-1.054.249-1.374.636-.168.204-.168.524,0,.727.32.388.816.637,1.374.637s1.054-.249,1.374-.637c.168-.203.168-.523,0-.726-.32-.388-.816-.637-1.374-.637Z"/><path d="M10.5,7.1469c-.558,0-1.054.25-1.374.637-.168.204-.168.524,0,.727.32.388.816.637,1.374.637s1.054-.25,1.374-.637c.168-.203.168-.523,0-.727-.32-.388-.816-.637-1.374-.637Z"/>
</svg>
