<svg width="16" height="16" viewBox="0 0 16 16" fill="none" xmlns="http://www.w3.org/2000/svg">
<path d="M8 16C3.589 16 0 12.411 0 8C0 3.589 3.589 0 8 0C12.411 0 16 3.589 16 8C16 12.411 12.411 16 8 16Z" fill="black"/>
<path d="M12.957 6.50983C12.982 6.01483 12.647 5.57283 12.164 5.46383C10.967 5.19183 9.712 5.52983 8.813 6.36583L8.659 6.50783C8.48 6.67483 8.244 6.76783 7.999 6.76783C7.754 6.76783 7.518 6.67483 7.338 6.50783L7.188 6.36783C6.288 5.52983 5.033 5.19183 3.834 5.46383H3.833C3.351 5.57383 3.017 6.01283 3.04 6.50683V6.50983C2.917 6.99783 3.107 8.79683 3.215 9.08083C3.432 10.2248 4.367 11.0848 5.487 11.0848C6.047 11.0848 6.553 10.8618 6.954 10.5038L7.198 10.2948C7.649 9.90983 8.311 9.90383 8.768 10.2828L9.134 10.5858V10.5838C9.52 10.8938 9.993 11.0838 10.511 11.0838C11.631 11.0838 12.566 10.2238 12.783 9.07983C12.89 8.79683 13.087 7.00483 12.957 6.50983ZM6.874 8.51083C6.554 8.89883 6.058 9.14783 5.5 9.14783C4.942 9.14783 4.446 8.89883 4.126 8.51083C3.958 8.30783 3.958 7.98783 4.126 7.78383C4.446 7.39683 4.942 7.14783 5.5 7.14783C6.058 7.14783 6.554 7.39683 6.874 7.78483C7.042 7.98783 7.042 8.30783 6.874 8.51083ZM11.874 8.51083C11.554 8.89783 11.058 9.14783 10.5 9.14783C9.942 9.14783 9.446 8.89883 9.126 8.51083C8.958 8.30783 8.958 7.98783 9.126 7.78383C9.446 7.39683 9.942 7.14683 10.5 7.14683C11.058 7.14683 11.554 7.39583 11.874 7.78383C12.042 7.98783 12.042 8.30783 11.874 8.51083Z" fill="white"/>
</svg>
