<svg width="16" height="16" viewBox="0 0 16 16" fill="none" xmlns="http://www.w3.org/2000/svg">
<path fill-rule="evenodd" clip-rule="evenodd" d="M0 8C0 3.582 3.582 0 8 0C12.418 0 16 3.582 16 8C16 12.418 12.418 16 8 16C3.582 16 0 12.418 0 8ZM11.375 12C11.535 12 11.696 11.939 11.818 11.817C12.061 11.573 12.061 11.177 11.818 10.933L10.541 9.656L10.544 9.222C10.833 8.713 11 8.127 11 7.5C11 5.567 9.433 4 7.5 4C5.567 4 4 5.567 4 7.5C4 9.433 5.567 11 7.5 11C8.13 11 8.72 10.831 9.23 10.538L9.646 10.53L10.933 11.817C11.055 11.939 11.215 12 11.375 12ZM9.75 7.5C9.75 8.74264 8.74264 9.75 7.5 9.75C6.25736 9.75 5.25 8.74264 5.25 7.5C5.25 6.25736 6.25736 5.25 7.5 5.25C8.74264 5.25 9.75 6.25736 9.75 7.5Z" fill="black"/>
</svg>
