<svg width="16" height="16" viewBox="0 0 16 16" fill="none" xmlns="http://www.w3.org/2000/svg">
<path fill-rule="evenodd" clip-rule="evenodd" d="M0 8C0 3.582 3.582 0 8 0C12.418 0 16 3.582 16 8C16 12.418 12.418 16 8 16C3.582 16 0 12.418 0 8ZM6.77 10.539C7.28 10.831 7.87 11 8.5 11C10.433 11 12 9.433 12 7.5C12 5.567 10.433 4 8.5 4C6.567 4 5 5.567 5 7.5C5 8.127 5.167 8.713 5.457 9.221L5.46 9.655L4.183 10.932C3.94 11.176 3.94 11.573 4.183 11.817C4.305 11.939 4.465 12 4.625 12C4.785 12 4.945 11.939 5.067 11.817L6.354 10.53L6.77 10.539ZM10.75 7.5C10.75 8.74264 9.74264 9.75 8.5 9.75C7.25736 9.75 6.25 8.74264 6.25 7.5C6.25 6.25736 7.25736 5.25 8.5 5.25C9.74264 5.25 10.75 6.25736 10.75 7.5Z" fill="black"/>
</svg>
