<svg width="16" height="16" viewBox="0 0 16 16" fill="none" xmlns="http://www.w3.org/2000/svg">
<path fill-rule="evenodd" clip-rule="evenodd" d="M10.4998 14C10.9559 14.6072 11.6821 15 12.5 15C13.3179 15 14.0441 14.6072 14.5002 14H14.75C15.4402 14 16 13.4402 16 12.75V8.777C16 8.6452 15.9653 8.51573 15.8993 8.40162L14.1493 5.37462C14.0153 5.14278 13.7678 5 13.5 5H11C11 3.89579 10.1042 3 9 3H2C0.895786 3 0 3.89579 0 5V12C0 12.9113 0.608658 13.6805 1.44308 13.9213C1.89429 14.5731 2.64729 15 3.5 15C4.31791 15 5.04408 14.6072 5.50018 14H10.4998ZM2 4.5C1.72421 4.5 1.5 4.72421 1.5 5V10.9998C1.95611 10.3927 2.6822 10 3.5 10C4.88071 10 6 11.1193 6 12.5H9.5V5C9.5 4.72421 9.27579 4.5 9 4.5H2ZM14.5 9V8.9782L13.0673 6.5H11V9H14.5ZM2.5 12.5C2.5 11.9477 2.94772 11.5 3.5 11.5C4.05228 11.5 4.5 11.9477 4.5 12.5C4.5 13.0523 4.05228 13.5 3.5 13.5C2.94772 13.5 2.5 13.0523 2.5 12.5ZM11.5 12.5C11.5 11.9477 11.9477 11.5 12.5 11.5C13.0523 11.5 13.5 11.9477 13.5 12.5C13.5 13.0523 13.0523 13.5 12.5 13.5C11.9477 13.5 11.5 13.0523 11.5 12.5Z" fill="black"/>
</svg>
