<svg width="16" height="16" viewBox="0 0 16 16" fill="none" xmlns="http://www.w3.org/2000/svg">
<g clip-path="url(#clip0_3113_954)">
<path d="M9.87901 0H4.00002V1.5H9.56741L14.9376 6.89319L16.0005 5.83481L10.4105 0.220807C10.2697 0.0794594 10.0785 0 9.87901 0Z" fill="black"/>
<path d="M6.34627 8.11644L7.40692 7.05579L6.34627 5.99514L5.28562 7.05579L6.34627 8.11644Z" fill="black"/>
<path fill-rule="evenodd" clip-rule="evenodd" d="M2.11902 3.75C2.11902 3.33579 2.4548 3 2.86902 3H8.87902C9.07791 3 9.26865 3.079 9.4093 3.21962L14.4663 8.27562C15.2472 9.05651 15.2472 10.3234 14.4663 11.1043L10.2233 15.3473C9.44246 16.1282 8.17558 16.1282 7.39469 15.3473L2.33869 10.2913C2.19804 10.1507 2.11902 9.95991 2.11902 9.761V3.75ZM3.61902 4.5V9.45034L8.45535 14.2867C8.65046 14.4818 8.96758 14.4818 9.16269 14.2867L13.4057 10.0437C13.6008 9.84858 13.6008 9.53148 13.4057 9.33636L8.5684 4.5H3.61902Z" fill="black"/>
</g>
<defs>
<clipPath id="clip0_3113_954">
<rect width="16" height="16" fill="white"/>
</clipPath>
</defs>
</svg>
