<svg width="16" height="16" viewBox="0 0 16 16" fill="none" xmlns="http://www.w3.org/2000/svg">
<path fill-rule="evenodd" clip-rule="evenodd" d="M8 2C11.493 2 14.675 4.244 16 7.595V8.405C14.675 11.756 11.493 14 8 14C4.507 14 1.325 11.756 0 8.404V7.595C1.325 4.244 4.507 2 8 2ZM1.17 8C2.331 10.894 4.987 12.75 8 12.75C11.013 12.75 13.669 10.894 14.83 8C13.669 5.106 11.013 3.25 8 3.25C4.987 3.25 2.331 5.106 1.17 8ZM5 8C5 9.654 6.346 11 8 11C9.654 11 11 9.654 11 8C11 6.346 9.654 5 8 5C6.346 5 5 6.346 5 8ZM6.25 8C6.25 7.035 7.035 6.25 8 6.25C8.965 6.25 9.75 7.035 9.75 8C9.75 8.965 8.965 9.75 8 9.75C7.035 9.75 6.25 8.965 6.25 8Z" fill="black"/>
</svg>
