<svg width="16" height="16" viewBox="0 0 16 16" fill="none" xmlns="http://www.w3.org/2000/svg">
<path d="M4.75 12.5005H1.5V11.0005H4.75V12.5005Z" fill="black"/>
<path d="M9.625 12.5005H6.375V11.0005H9.625V12.5005Z" fill="black"/>
<path d="M14.5 12.5005H11.25V11.0005H14.5V12.5005Z" fill="black"/>
<path d="M4.49609 3.58839C5.05106 2.12945 7.15076 2.43833 7.35059 3.92628C7.52032 5.19402 7.69312 6.15483 7.86621 6.82472C8.53557 5.38747 10.5596 5.14108 11.5225 6.48487L11.9268 7.0503L12.0078 7.14991C12.2098 7.36981 12.5001 7.4994 12.8096 7.49952H14.5V8.99952H12.8096C11.9776 8.99938 11.1924 8.60118 10.707 7.92335L10.3027 7.35792C10.0137 6.95661 9.37313 7.04 9.20117 7.51905C9.08492 7.84456 8.95771 8.16466 8.8291 8.41261C8.7668 8.53268 8.68629 8.67057 8.58691 8.78858C8.5369 8.84789 8.4611 8.92711 8.35938 8.99464C8.25806 9.06178 8.08702 9.14573 7.86426 9.14015C7.33707 9.12633 7.03551 8.72108 6.90137 8.49952C6.74041 8.23355 6.60992 7.88662 6.49707 7.5005C6.27151 6.72852 6.06491 5.61616 5.87207 4.188L4.67285 7.34327C4.29338 8.34525 3.32764 8.99952 2.25977 8.99952H1.5V7.49952H2.25977C2.71589 7.49952 3.11598 7.22004 3.27051 6.81202L4.49609 3.58839Z" fill="black"/>
</svg>
