<svg width="16" height="16" viewBox="0 0 16 16" fill="none" xmlns="http://www.w3.org/2000/svg">
<path fill-rule="evenodd" clip-rule="evenodd" d="M11 8.75C12.657 8.75 14 10.093 14 11.75V14C14 14.552 13.552 15 13 15H3C2.448 15 2 14.552 2 14V11.75C2 10.093 3.343 8.75 5 8.75H11ZM5 10.25C4.173 10.25 3.5 10.923 3.5 11.75V13.5H12.5V11.75C12.5 10.923 11.827 10.25 11 10.25H5Z" fill="black"/>
<path fill-rule="evenodd" clip-rule="evenodd" d="M8 1.25C9.726 1.25 11.125 2.649 11.125 4.375C11.125 6.101 9.726 7.5 8 7.5C6.274 7.5 4.875 6.101 4.875 4.375C4.875 2.649 6.274 1.25 8 1.25ZM8 2.75C7.104 2.75 6.375 3.479 6.375 4.375C6.375 5.271 7.104 6 8 6C8.896 6 9.625 5.271 9.625 4.375C9.625 3.479 8.896 2.75 8 2.75Z" fill="black"/>
</svg>
