<svg xmlns="http://www.w3.org/2000/svg" width="16" height="16" viewBox="0 0 16 16" fill="none">
  <g clip-path="url(#clip0_3_1313)">
    <path d="M14.9203 5.16992L13.1503 6.93992L11.3803 5.16992L10.3203 6.22992L12.0903 7.99992L10.3203 9.76992L11.3803 10.8299L13.1503 9.05992L14.9203 10.8299L15.9803 9.76992L14.2103 7.99992L15.9803 6.22992L14.9203 5.16992Z" fill="#333336"/>
    <path d="M0 4.01L0 11.97H3.96L8 16L8 0L3.96 4.01L0 4.01ZM5.01 5.07L6.5 3.6L6.5 12.39L5.02 10.91L4.58 10.47H1.5L1.5 5.51L4.57 5.51L5.01 5.08V5.07Z" fill="#333336"/>
  </g>
  <defs>
    <clipPath id="clip0_3_1313">
      <rect width="16" height="16" fill="white"/>
    </clipPath>
  </defs>
</svg>
