<svg width="16" height="16" viewBox="0 0 16 16" fill="none" xmlns="http://www.w3.org/2000/svg">
<path d="M1.44399 1.15099L1.62599 0.301988C1.71199 -0.100012 2.28599 -0.100012 2.37299 0.301988L2.55499 1.15099C2.58699 1.29799 2.70099 1.41299 2.84799 1.44399L3.69699 1.62599C4.09899 1.71199 4.09899 2.28599 3.69699 2.37299L2.84899 2.55599C2.70199 2.58699 2.58699 2.70199 2.55599 2.84899L2.37299 3.69799C2.28699 4.09999 1.71299 4.09999 1.62599 3.69799L1.44399 2.84899C1.41299 2.70199 1.29799 2.58699 1.15099 2.55599L0.301988 2.37299C-0.100012 2.28699 -0.100012 1.71299 0.301988 1.62599L1.15099 1.44399C1.29799 1.41299 1.41299 1.29799 1.44399 1.15099Z" fill="black"/>
<path d="M1.44399 13.151L1.62599 12.302C1.71199 11.9 2.28599 11.9 2.37299 12.302L2.55499 13.151C2.58699 13.298 2.70099 13.413 2.84799 13.444L3.69699 13.626C4.09899 13.712 4.09899 14.286 3.69699 14.373L2.84799 14.555C2.70099 14.587 2.58599 14.701 2.55499 14.848L2.37299 15.697C2.28699 16.099 1.71299 16.099 1.62599 15.697L1.44399 14.848C1.41199 14.701 1.29799 14.586 1.15099 14.555L0.301988 14.373C-0.100012 14.287 -0.100012 13.713 0.301988 13.626L1.15099 13.444C1.29799 13.413 1.41299 13.298 1.44399 13.151Z" fill="black"/>
<path fill-rule="evenodd" clip-rule="evenodd" d="M10.2636 1.85951C9.81071 0.712845 8.18931 0.712845 7.73644 1.85951L6.48043 5.04555C6.40166 5.24449 6.24417 5.40179 6.04523 5.48056L2.85951 6.73644C1.71284 7.18931 1.71327 8.81088 2.85994 9.26375L6.04568 10.5196C6.24456 10.5984 6.4018 10.7559 6.48055 10.9548L7.73644 14.1405C8.18931 15.2872 9.81088 15.2867 10.2637 14.1401L11.5196 10.9543C11.5984 10.7555 11.7559 10.5982 11.9548 10.5195L15.1405 9.26358C16.2872 8.81071 16.2867 7.18914 15.1401 6.73627L11.9545 5.48043C11.7556 5.40168 11.5982 5.24411 11.5195 5.04523L10.2636 1.85951ZM7.87575 5.59608L9.00001 2.74425L10.1246 5.59679C10.3558 6.18159 10.8191 6.64452 11.4039 6.87575L14.2558 8.00001L11.4032 9.12455C10.8184 9.35579 10.3555 9.81915 10.1243 10.4039L9.00001 13.2558L7.87547 10.4032C7.64423 9.81843 7.18087 9.35551 6.59607 9.12427L3.74425 8.00001L6.59679 6.87547C7.18159 6.64423 7.64451 6.18088 7.87575 5.59608Z" fill="black"/>
</svg>
