<svg width="16" height="16" viewBox="0 0 16 16" fill="none" xmlns="http://www.w3.org/2000/svg">
<path fill-rule="evenodd" clip-rule="evenodd" d="M8.75 15H7.25V14H2C0.895786 14 0 13.1042 0 12V4C0 2.89579 0.895786 2 2 2H7.25V1H8.75V15ZM2 3.5C1.72421 3.5 1.5 3.72421 1.5 4V12C1.5 12.2758 1.72421 12.5 2 12.5H7.25V3.5H2Z" fill="black"/>
<path d="M14 2C15.1042 2 16 2.89579 16 4V12C16 13.1042 15.1042 14 14 14H10.25V12.5H14C14.2758 12.5 14.5 12.2758 14.5 12V4C14.5 3.72421 14.2758 3.5 14 3.5H10.25V2H14Z" fill="black"/>
</svg>
