<svg width="16" height="16" viewBox="0 0 16 16" fill="none" xmlns="http://www.w3.org/2000/svg">
<path d="M9 5.52812C9 5.94812 9.508 6.15812 9.804 5.86112L12.332 3.33312C12.516 3.14912 12.516 2.85112 12.332 2.66712L9.805 0.139117C9.508 -0.157883 9 0.0521174 9 0.472117V2.33772C8.67541 2.2801 8.3413 2.25 8 2.25C4.829 2.25 2.25 4.829 2.25 8C2.25 8.942 2.482 9.83 2.885 10.615L4.028 9.472C3.857 9.012 3.75 8.52 3.75 8C3.75 5.656 5.656 3.75 8 3.75C8.34513 3.75 8.67984 3.79248 9 3.87206V5.52812Z" fill="black"/>
<path d="M7 10.4721V12.1278C7.32002 12.2074 7.65466 12.2501 8.00001 12.2501C10.344 12.2501 12.25 10.3441 12.25 8.00006C12.25 7.48006 12.143 6.98706 11.971 6.52606L13.114 5.38306C13.518 6.16906 13.75 7.05706 13.75 8.00006C13.75 11.1711 11.171 13.7501 8.00001 13.7501C7.65878 13.7501 7.32464 13.72 7 13.6625V15.5281C7 15.9481 6.492 16.1581 6.196 15.8611L3.668 13.3331C3.484 13.1491 3.484 12.8511 3.668 12.6671L6.196 10.1391C6.492 9.84212 7 10.0521 7 10.4721Z" fill="black"/>
</svg>
