<svg width="16" height="16" viewBox="0 0 16 16" fill="none" xmlns="http://www.w3.org/2000/svg">
<path d="M5.472 7.00003C5.052 7.00003 4.842 6.49203 5.139 6.19603L7.667 3.66803C7.851 3.48403 8.149 3.48403 8.333 3.66803L10.861 6.19603C11.158 6.49203 10.948 7.00003 10.528 7.00003H8.75V9.50002H7.25V7.00003H5.472Z" fill="black"/>
<path fill-rule="evenodd" clip-rule="evenodd" d="M0 3C0 1.89579 0.895786 1 2 1H14C15.1042 1 16 1.89579 16 3V13C16 14.1042 15.1042 15 14 15H2C0.895786 15 0 14.1042 0 13V3ZM2 2.5C1.72421 2.5 1.5 2.72421 1.5 3V10.5H14.5V3C14.5 2.72421 14.2758 2.5 14 2.5H2ZM1.5 13V12H14.5V13C14.5 13.2758 14.2758 13.5 14 13.5H2C1.72421 13.5 1.5 13.2758 1.5 13Z" fill="black"/>
</svg>
