<svg preserveAspectRatio="none" width="100%" height="100%" overflow="visible" style="display: block;" viewBox="0 0 14 16" fill="none" xmlns="http://www.w3.org/2000/svg">
<path id="Vector" d="M0.5 12.96L0.29 14.45L9.12 15.68L13.48 8.17L9.04 6.05C9.27 5.58 9.56 4.9 9.78 4.13C10 3.35 10.13 1.67 10.14 1.48L10.19 0.84L6.56 0L6.31 0.57C5.77 1.81 5.08 3.3 4.95 3.49C4.66 3.75 2.21 5.3 0 6.65L0.79 7.93C2.22 7.05 5.6 4.96 6 4.56C6.09 4.47 6.33 4.23 7.44 1.74L8.59 2.01C8.53 2.6 8.44 3.35 8.34 3.72C7.98 5.01 7.38 5.99 7.37 5.99L6.93 6.7L11.36 8.82L8.32 14.05L0.49 12.96H0.5Z" fill="var(--fill-0, #333336)"/>
</svg>
