<svg preserveAspectRatio="none" width="100%" height="100%" overflow="visible" style="display: block;" viewBox="0 0 16 10" fill="none" xmlns="http://www.w3.org/2000/svg">
<path id="Vector" d="M11 0H5C2.24 0 0 2.24 0 5C0 7.76 2.24 10 5 10H11C13.76 10 16 7.76 16 5C16 2.24 13.76 0 11 0ZM1.5 5C1.5 3.07 3.07 1.5 5 1.5H7.44C6.55 2.4 6 3.64 6 5C6 6.36 6.55 7.6 7.44 8.5H5C3.07 8.5 1.5 6.93 1.5 5ZM11 8.5C9.07 8.5 7.5 6.93 7.5 5C7.5 3.07 9.07 1.5 11 1.5C12.93 1.5 14.5 3.07 14.5 5C14.5 6.93 12.93 8.5 11 8.5Z" fill="var(--fill-0, #333336)"/>
</svg>
