<svg width="16" height="16" viewBox="0 0 16 16" fill="none" xmlns="http://www.w3.org/2000/svg">
<path d="M8.00001 14.375V3.048L3.69301 7.357C3.57464 7.46938 3.41707 7.53109 3.25387 7.52897C3.09067 7.52685 2.93475 7.46108 2.81934 7.34567C2.70393 7.23026 2.63816 7.07434 2.63604 6.91114C2.63392 6.74794 2.69563 6.59036 2.80801 6.472L8.28101 1H8.97001L14.443 6.472C14.5013 6.5299 14.5476 6.59877 14.5791 6.67462C14.6107 6.75048 14.627 6.83184 14.627 6.914C14.627 6.99616 14.6107 7.07752 14.5791 7.15338C14.5476 7.22923 14.5013 7.2981 14.443 7.356C14.3254 7.47282 14.1663 7.53838 14.0005 7.53838C13.8347 7.53838 13.6757 7.47282 13.558 7.356L9.25001 3.048V14.375C9.25001 14.5408 9.18416 14.6997 9.06695 14.8169C8.94974 14.9342 8.79077 15 8.62501 15C8.45925 15 8.30028 14.9342 8.18307 14.8169C8.06586 14.6997 8.00001 14.5408 8.00001 14.375Z" fill="black"/>
</svg>
