<svg xmlns="http://www.w3.org/2000/svg" width="16" height="16" viewBox="0 0 16 16" fill="none">
  <g clip-path="url(#clip0_3_1274)">
    <path d="M2.81 13.0498C4.16 14.3998 5.95 15.1398 7.86 15.1398C7.91 15.1398 7.96 15.1398 8.01 15.1398L7.98 13.6398C6.42 13.6798 4.97 13.0898 3.87 11.9898C1.82 9.93984 1.71 6.69984 3.48 4.48984V7.32984L4.98 7.32984L4.98 2.33984L0 2.33984L0 3.83984H2.06C0.0599999 6.62984 0.31 10.5498 2.81 13.0498Z" fill="#333336"/>
    <path d="M12.9191 2.94938C11.5691 1.59938 9.77914 0.859375 7.86914 0.859375V2.35937C9.37914 2.35937 10.7991 2.94938 11.8591 4.00938C13.8091 5.95938 14.0191 8.98938 12.5191 11.1894V8.67938H11.0191L11.0191 13.6594L15.9991 13.6594V12.1594L13.6691 12.1594C15.6691 9.36938 15.4191 5.45938 12.9191 2.94938Z" fill="#333336"/>
  </g>
  <defs>
    <clipPath id="clip0_3_1274">
      <rect width="16" height="16" fill="white"/>
    </clipPath>
  </defs>
</svg>
