<svg xmlns="http://www.w3.org/2000/svg" width="16" height="16" viewBox="0 0 16 16" fill="none">
  <path d="M11.18 10L4.82 10C2.16 10 0 12.16 0 14.82L0 16H16V14.82C16 12.16 13.84 10 11.18 10ZM1.52 14.5C1.68 12.82 3.1 11.5 4.83 11.5L11.19 11.5C12.91 11.5 14.33 12.82 14.5 14.5L1.52 14.5Z" fill="#333336"/>
  <path d="M10 9C12.21 9 14 7.21 14 5C14 2.79 12.21 1 10 1C7.79 1 6 2.79 6 5C6 7.21 7.79 9 10 9ZM10 2.5C11.38 2.5 12.5 3.62 12.5 5C12.5 6.38 11.38 7.5 10 7.5C8.62 7.5 7.5 6.38 7.5 5C7.5 3.62 8.62 2.5 10 2.5Z" fill="#333336"/>
</svg>
