<svg width="16" height="16" viewBox="0 0 16 16" fill="none" xmlns="http://www.w3.org/2000/svg">
<path fill-rule="evenodd" clip-rule="evenodd" d="M8.5 9C10.157 9 11.5 10.343 11.5 12V14C11.5 14.552 11.052 15 10.5 15H1C0.448 15 0 14.552 0 14V12C0 10.343 1.343 9 3 9H8.5ZM3 10.5C2.173 10.5 1.5 11.173 1.5 12V13.5H10V12C10 11.173 9.327 10.5 8.5 10.5H3Z" fill="black"/>
<path d="M13 9C14.657 9 16 10.343 16 12V14C16 14.552 15.552 15 15 15H12.7881C12.9231 14.693 13 14.356 13 14V13.5H14.5V12C14.5 11.173 13.827 10.5 13 10.5H12.7227C12.5227 9.94006 12.2201 9.43296 11.8291 9H13Z" fill="black"/>
<path fill-rule="evenodd" clip-rule="evenodd" d="M5.75 1.75C7.407 1.75 8.75 3.093 8.75 4.75C8.75 6.407 7.407 7.75 5.75 7.75C4.093 7.75 2.75 6.407 2.75 4.75C2.75 3.093 4.093 1.75 5.75 1.75ZM5.75 3.25C4.923 3.25 4.25 3.923 4.25 4.75C4.25 5.577 4.923 6.25 5.75 6.25C6.577 6.25 7.25 5.577 7.25 4.75C7.25 3.923 6.577 3.25 5.75 3.25Z" fill="black"/>
<path d="M10.25 1.75C11.907 1.75 13.25 3.093 13.25 4.75C13.25 6.407 11.907 7.75 10.25 7.75C9.89206 7.75 9.55331 7.67649 9.23535 7.56152C9.55717 7.16364 9.81049 6.71447 9.98242 6.22266C10.0693 6.23862 10.1581 6.25 10.25 6.25C11.077 6.25 11.75 5.577 11.75 4.75C11.75 3.923 11.077 3.25 10.25 3.25C10.1581 3.25 10.0693 3.26138 9.98242 3.27734C9.81049 2.78553 9.55717 2.33636 9.23535 1.93848C9.55331 1.82351 9.89206 1.75 10.25 1.75Z" fill="black"/>
</svg>
