<svg width="16" height="16" viewBox="0 0 16 16" fill="none" xmlns="http://www.w3.org/2000/svg">
<path fill-rule="evenodd" clip-rule="evenodd" d="M8.28201 2.639C8.08901 2.288 7.75801 2.25 7.62501 2.25C7.49037 2.24844 7.35789 2.2839 7.24203 2.3525C7.12617 2.4211 7.03138 2.5202 6.96801 2.639L1.47101 12.639C1.40691 12.7528 1.37424 12.8816 1.37635 13.0121C1.37846 13.1427 1.41527 13.2704 1.48301 13.382C1.54816 13.4951 1.64226 13.5888 1.75561 13.6534C1.86897 13.7181 1.9975 13.7515 2.12801 13.75H13.122C13.2525 13.7515 13.381 13.7181 13.4944 13.6534C13.6078 13.5888 13.7018 13.4951 13.767 13.382C13.8347 13.2704 13.8716 13.1427 13.8737 13.0121C13.8758 12.8816 13.8431 12.7528 13.779 12.639L8.28201 2.639ZM5.87301 2.037C6.25201 1.346 6.93901 1 7.62501 1C7.98359 0.997955 8.33601 1.09323 8.64472 1.27567C8.95343 1.45811 9.20686 1.72089 9.37801 2.036L14.875 12.036C15.608 13.369 14.644 15 13.123 15H2.12801C0.607006 15 -0.357994 13.37 0.376006 12.037L5.87301 2.037ZM8.25 9.062C8.25 9.22776 8.18415 9.38673 8.06694 9.50394C7.94973 9.62115 7.79076 9.687 7.625 9.687C7.45924 9.687 7.30027 9.62115 7.18306 9.50394C7.06585 9.38673 7 9.22776 7 9.062V5.625C7 5.45924 7.06585 5.30027 7.18306 5.18306C7.30027 5.06585 7.45924 5 7.625 5C7.79076 5 7.94973 5.06585 8.06694 5.18306C8.18415 5.30027 8.25 5.45924 8.25 5.625V9.062ZM7.25 12L7 11.75V11L7.25 10.75H8L8.25 11V11.75L8 12H7.25Z" fill="black"/>
</svg>
