<svg width="16" height="16" viewBox="0 0 16 16" fill="none" xmlns="http://www.w3.org/2000/svg">
<path d="M14.875 12.037L9.37801 2.037C8.99701 1.346 8.31101 1 7.62501 1C6.93901 1 6.25301 1.346 5.87301 2.037L0.376006 12.037C-0.357994 13.37 0.607006 15 2.12801 15H13.123C14.643 15 15.608 13.37 14.875 12.037ZM8.25001 11.75L8.00001 12H7.25001L7.00001 11.75V11L7.25001 10.75H8.00001L8.25001 11V11.75ZM8.25001 9.062C8.25001 9.22776 8.18416 9.38673 8.06695 9.50394C7.94974 9.62115 7.79077 9.687 7.62501 9.687C7.45925 9.687 7.30027 9.62115 7.18306 9.50394C7.06585 9.38673 7.00001 9.22776 7.00001 9.062V5.625C7.00001 5.45924 7.06585 5.30027 7.18306 5.18306C7.30027 5.06585 7.45925 5 7.62501 5C7.79077 5 7.94974 5.06585 8.06695 5.18306C8.18416 5.30027 8.25001 5.45924 8.25001 5.625V9.062Z" fill="black"/>
</svg>
