<svg width="16" height="16" viewBox="0 0 16 16" fill="none" xmlns="http://www.w3.org/2000/svg">
<g clip-path="url(#clip0_6986_1379)">
<path d="M13.2695 7.00391C13.3015 7.01191 13.3297 7.03348 13.3457 7.06348C13.4177 7.19758 13.5386 7.48523 13.7734 7.79004C13.8909 7.94245 14.4729 8.57252 14.7188 8.85938C14.9288 9.10544 15.3051 9.7332 15.3281 9.86719C15.2341 9.33119 15.0928 9.04608 15.0498 8.95508C15.0378 8.93016 15.023 8.89712 15.0596 8.86621C15.0866 8.84321 15.1294 8.858 15.1484 8.875C15.8712 9.53199 16.0421 10.4493 15.9941 11.4512C15.944 12.4573 14.9328 15 12.0859 15C9.38105 15 8.17497 12.7901 8.08691 11.6211C7.98291 10.2411 8.48629 8.92013 9.44629 8.32812C9.48326 8.30522 9.52844 8.30518 9.56738 8.32715C9.60605 8.34913 9.62878 8.38989 9.62793 8.43262C9.62293 8.81462 9.66416 9.09305 9.74316 9.20605C9.77218 9.18203 9.82509 9.12903 9.87305 9.08008C10.037 8.91608 10.2844 8.66769 10.5244 8.55469C10.5643 8.53595 10.6087 8.5406 10.6436 8.56445C10.6775 8.58744 10.6973 8.62599 10.6953 8.66797C10.6713 9.08297 10.6854 9.38503 10.7334 9.45703C10.8896 9.69303 11.4328 10.0545 11.7607 10.2305C11.9155 10.3134 12.0179 10.3218 12.0391 10.3428C12.058 10.3627 12.0589 10.3928 12.041 10.4316C11.99 10.5416 11.7818 10.8047 11.6328 10.8047H11.5254C11.2104 10.8171 10.3651 10.93 10.2871 11.4629C10.2541 11.6879 10.3784 12.0165 10.6074 12.2715C10.9874 12.6932 11.5434 12.9262 12.1152 12.9062C12.9121 12.8742 13.5134 12.337 13.6514 11.623C13.7913 10.9022 13.3563 10.2991 13.1562 10.127C13.1303 10.104 13.0962 10.0671 13.1172 9.99316C13.1462 9.89216 13.29 9.91643 13.376 9.94043C13.4731 9.96746 13.7401 10.06 13.7861 10.1279C13.1281 9.13793 12.2086 9.15004 11.9756 9.16504C11.9476 9.16691 11.9116 9.15664 11.8877 9.13574C11.8659 9.11676 11.8526 9.08943 11.8506 9.05957C11.8298 8.74551 12.0507 8.19356 12.3535 7.80176C12.6533 7.41403 13.0276 7.1286 13.1738 7.02441C13.2017 7.00451 13.2367 6.99707 13.2695 7.00391Z" fill="black"/>
<path fill-rule="evenodd" clip-rule="evenodd" d="M12 1C13.103 1 14 1.897 14.001 3V5.98535C13.866 5.89535 13.7176 5.82316 13.5566 5.78516L13.416 5.75195L13.251 5.74902H13.2451C13.1123 5.74902 12.9823 5.77168 12.8564 5.80859C12.7325 5.84757 12.6119 5.90462 12.501 5.97656C12.487 5.98556 12.472 5.98905 12.459 5.99805L12.4561 6H1.5V10C1.5 10.275 1.725 10.5 2 10.5H6.88281C6.82982 10.8939 6.80984 11.2999 6.84082 11.7148C6.84782 11.8068 6.86195 11.903 6.87695 12H2C0.897 12 0 11.103 0 10V3C0 1.897 0.897 1 2 1H12ZM2 2.5C1.725 2.5 1.5 2.725 1.5 3V4.5H12.5V3C12.5 2.725 12.275 2.5 12 2.5H2Z" fill="black"/>
</g>
<defs>
<clipPath id="clip0_6986_1379">
<rect width="16" height="16" fill="white"/>
</clipPath>
</defs>
</svg>
