<svg width="16" height="16" viewBox="0 0 16 16" fill="none" xmlns="http://www.w3.org/2000/svg">
<path fill-rule="evenodd" clip-rule="evenodd" d="M14.75 4.85L14.15 4.25H1.85L1.25 4.85V11L2 11.75H4.93C5.05347 11.75 5.17502 11.7195 5.28388 11.6612C5.39273 11.603 5.48552 11.5187 5.554 11.416L6.128 10.555C6.546 9.928 7.246 9.553 8 9.553C8.754 9.553 9.454 9.928 9.872 10.555L10.446 11.416C10.5144 11.5188 10.6072 11.6031 10.7161 11.6614C10.8249 11.7196 10.9465 11.7501 11.07 11.75H14.15L14.75 11.15V4.85ZM2 3H14C14.5304 3 15.0391 3.21071 15.4142 3.58579C15.7893 3.96086 16 4.46957 16 5V11C16 11.5304 15.7893 12.0391 15.4142 12.4142C15.0391 12.7893 14.5304 13 14 13H11.07C10.7407 12.9999 10.4166 12.9186 10.1263 12.7631C9.836 12.6077 9.58858 12.383 9.406 12.109L8.832 11.248C8.634 10.951 8.317 10.803 8 10.803C7.683 10.803 7.366 10.951 7.168 11.248L6.594 12.109C6.223 12.666 5.599 13 4.93 13H2C1.46957 13 0.960859 12.7893 0.585786 12.4142C0.210714 12.0391 0 11.5304 0 11V5C0 4.46957 0.210714 3.96086 0.585786 3.58579C0.960859 3.21071 1.46957 3 2 3ZM3.625 7H12.375C12.5408 7 12.6997 6.93415 12.8169 6.81694C12.9342 6.69973 13 6.54076 13 6.375C13 6.20924 12.9342 6.05027 12.8169 5.93306C12.6997 5.81585 12.5408 5.75 12.375 5.75H3.625C3.45924 5.75 3.30027 5.81585 3.18306 5.93306C3.06585 6.05027 3 6.20924 3 6.375C3 6.54076 3.06585 6.69973 3.18306 6.81694C3.30027 6.93415 3.45924 7 3.625 7Z" fill="black"/>
</svg>
