<svg width="40" height="35" viewBox="0 0 40 35" fill="none" xmlns="http://www.w3.org/2000/svg">
<g clip-path="url(#clip0_111122_105747)">
<path d="M8.3109 1.68158C8.3109 1.68158 16.3043 -2.63616 23.1422 2.5658L19.3157 15.6228C19.3157 15.6228 15.0329 12.6938 11.8528 13.0094C8.67279 13.3249 4.48481 14.8373 4.48481 14.8373L8.3109 1.68158ZM3.81025 17.1381C3.81025 17.1381 8.10034 15.1568 11.6625 15.4089C15.2242 15.6613 18.0681 17.565 18.6815 18.0023L14.8152 31.1955C14.8152 31.1955 10.5176 28.4185 7.46477 28.6712C4.4117 28.9245 1.76512 29.3862 0.00341797 30.292L3.81025 17.1381ZM20.6835 19.2795C20.6835 19.2795 24.764 21.9142 27.4352 21.851C30.067 21.7886 31.8876 21.5827 35.4581 20.193C35.4859 20.1821 35.5585 20.1305 35.5344 20.1458C35.4581 20.193 31.7085 33.2205 31.7085 33.2205C31.7085 33.2205 27.4991 35.1762 23.6823 34.9872C19.8664 34.7977 17.5747 32.6308 16.876 32.3561L20.6835 19.2795Z" fill="#210340"/>
<path d="M25.1657 3.94312L21.3296 16.9249C21.3296 16.9249 24.446 19.9562 28.8348 19.7034C33.2234 19.451 35.6084 18.0775 36.1887 17.8836L39.997 4.7874C39.997 4.7874 34.9407 6.88299 31.6332 6.50404C28.326 6.12558 26.266 4.72908 25.1657 3.94312Z" fill="#210340"/>
</g>
<defs>
<clipPath id="clip0_111122_105747">
<rect width="40" height="35" fill="white"/>
</clipPath>
</defs>
</svg>
