<svg width="20" height="20" viewBox="0 0 20 20" fill="none" xmlns="http://www.w3.org/2000/svg">
<path fill-rule="evenodd" clip-rule="evenodd" d="M10 1.75C5.44365 1.75 1.75 5.44365 1.75 10C1.75 14.5563 5.44365 18.25 10 18.25C14.5563 18.25 18.25 14.5563 18.25 10C18.25 5.44365 14.5563 1.75 10 1.75ZM0 10C0 4.47715 4.47715 0 10 0C15.5228 0 20 4.47715 20 10C20 15.5228 15.5228 20 10 20C4.47715 20 0 15.5228 0 10Z" fill="black"/>
<path fill-rule="evenodd" clip-rule="evenodd" d="M9.125 10V5H10.875V9.4948L14.6155 11.6542L13.7405 13.1698L9.56252 10.7578C9.29178 10.6015 9.125 10.3126 9.125 10Z" fill="black"/>
</svg>
