<svg width="16" height="16" viewBox="0 0 16 16" fill="none" xmlns="http://www.w3.org/2000/svg">
<g clip-path="url(#clip0_3828_975)">
<path d="M7 9V7H9V9H7Z" fill="black"/>
<path fill-rule="evenodd" clip-rule="evenodd" d="M8 0C6.13248 0 4.57857 1.27941 4.13713 3.00275C4.09189 3.00095 4.04618 3 4 3C1.79079 3 0 4.79079 0 7C0 8.26072 0.587449 9.37224 1.49134 10.1C1.18204 10.6608 1 11.3059 1 12C1 14.2092 2.79079 16 5 16C6.19656 16 7.26818 15.4747 8 14.644C8.73182 15.4747 9.80344 16 11 16C13.2092 16 15 14.2092 15 12C15 11.3059 14.818 10.6608 14.5087 10.1C15.4126 9.37224 16 8.26072 16 7C16 4.79079 14.2092 3 12 3C11.9538 3 11.9081 3.00095 11.8629 3.00276C11.4214 1.27941 9.86752 0 8 0ZM5.51419 3.88477C5.57591 2.55473 6.66297 1.5 8 1.5C9.33703 1.5 10.4241 2.55473 10.4858 3.88477C10.4962 4.10862 10.6061 4.31611 10.7855 4.45041C10.9649 4.5847 11.195 4.63174 11.4127 4.57864C11.6183 4.52851 11.8107 4.5 12 4.5C13.3808 4.5 14.5 5.61921 14.5 7C14.5 7.96906 13.9398 8.8072 13.1171 9.22245C12.9111 9.32642 12.7644 9.51941 12.7194 9.74572C12.6744 9.97203 12.7361 10.2065 12.8866 10.3813C13.2688 10.8252 13.5 11.3858 13.5 12C13.5 13.3808 12.3808 14.5 11 14.5C9.9609 14.5 9.06934 13.8655 8.69243 12.9598C8.57605 12.6802 8.30289 12.498 8 12.498C7.69711 12.498 7.42395 12.6802 7.30757 12.9598C6.93066 13.8655 6.0391 14.5 5 14.5C3.61921 14.5 2.5 13.3808 2.5 12C2.5 11.3858 2.73123 10.8252 3.11338 10.3813C3.26393 10.2065 3.3256 9.97203 3.2806 9.74572C3.23559 9.51941 3.08893 9.32642 2.88293 9.22245C2.0602 8.8072 1.5 7.96906 1.5 7C1.5 5.61921 2.61921 4.5 4 4.5C4.18928 4.5 4.38174 4.52851 4.58728 4.57864C4.805 4.63174 5.03506 4.5847 5.21446 4.45041C5.39386 4.31611 5.50381 4.10862 5.51419 3.88477Z" fill="black"/>
</g>
<defs>
<clipPath id="clip0_3828_975">
<rect width="16" height="16" fill="white"/>
</clipPath>
</defs>
</svg>
