<svg width="16" height="16" viewBox="0 0 16 16" fill="none" xmlns="http://www.w3.org/2000/svg">
<path fill-rule="evenodd" clip-rule="evenodd" d="M0 1H2.183C3.08852 1 3.88015 1.60795 4.11521 2.48102L4.52217 4H13.921C15.2366 4 16.1931 5.24825 15.8524 6.51833L14.7805 10.5177C14.5465 11.3922 13.7528 12 12.849 12H6.647C5.74184 12 4.94947 11.3923 4.71555 10.5181L2.66679 2.87098C2.60777 2.65218 2.4094 2.5 2.183 2.5H0V1ZM4.92404 5.5L6.16445 10.1299C6.22264 10.3475 6.42028 10.5 6.647 10.5H12.849C13.0751 10.5 13.2734 10.3475 13.3315 10.1303L14.4036 6.12985C14.4889 5.81193 14.2494 5.5 13.921 5.5H4.92404Z" fill="black"/>
<path d="M7.75 13.5H5.75V15.5H7.75V13.5Z" fill="black"/>
<path d="M11.75 13.5H13.75V15.5H11.75V13.5Z" fill="black"/>
</svg>
