<svg width="16" height="16" viewBox="0 0 16 16" fill="none" xmlns="http://www.w3.org/2000/svg">
<path fill-rule="evenodd" clip-rule="evenodd" d="M8 5.25C9.933 5.25 11.5 6.817 11.5 8.75C11.5 10.683 9.933 12.25 8 12.25C6.067 12.25 4.5 10.683 4.5 8.75C4.5 6.817 6.067 5.25 8 5.25ZM8 6.75C6.89543 6.75 6 7.64543 6 8.75C6 9.85457 6.89543 10.75 8 10.75C9.10457 10.75 10 9.85457 10 8.75C10 7.64543 9.10457 6.75 8 6.75Z" fill="black"/>
<path fill-rule="evenodd" clip-rule="evenodd" d="M10 1C10.1989 1 10.3896 1.07907 10.5303 1.21973L12.3105 3H14C15.1042 3 16 3.89579 16 5V13C16 14.1042 15.1042 15 14 15H2C0.895786 15 0 14.1042 0 13V5C0 3.89579 0.895786 3 2 3H3.68945L5.46973 1.21973L5.58398 1.12598C5.70628 1.04445 5.85085 1 6 1H10ZM4.53027 4.28027C4.38962 4.42093 4.19891 4.5 4 4.5H2C1.72421 4.5 1.5 4.72421 1.5 5V13C1.5 13.2758 1.72421 13.5 2 13.5H14C14.2758 13.5 14.5 13.2758 14.5 13V5C14.5 4.72421 14.2758 4.5 14 4.5H12C11.8011 4.5 11.6104 4.42093 11.4697 4.28027L9.68945 2.5H6.31055L4.53027 4.28027Z" fill="black"/>
</svg>
