<svg width="19" height="21" viewBox="0 0 19 21" fill="none" xmlns="http://www.w3.org/2000/svg">
<path fill-rule="evenodd" clip-rule="evenodd" d="M5.58472 10C5.58472 7.93 7.26472 6.25 9.33472 6.25C11.4047 6.25 13.0847 7.93 13.0847 10C13.0847 12.07 11.4047 13.75 9.33472 13.75C7.26472 13.75 5.58472 12.07 5.58472 10ZM11.3347 10C11.3347 8.9 10.4347 8 9.33472 8C8.23472 8 7.33472 8.9 7.33472 10C7.33472 11.1 8.23472 12 9.33472 12C10.4347 12 11.3347 11.1 11.3347 10Z" fill="black"/>
<path fill-rule="evenodd" clip-rule="evenodd" d="M6.52472 18.46C6.78472 19.37 7.62472 20 8.57472 20H10.0947L10.1447 20.02C11.0847 20.02 11.9247 19.39 12.1947 18.49L12.7047 16.77C12.9847 16.62 13.2747 16.45 13.5747 16.24L15.3047 16.67C16.2247 16.91 17.1947 16.49 17.6647 15.67L18.4247 14.36C18.8947 13.54 18.7747 12.5 18.1247 11.82L16.8747 10.5C16.8947 10.34 16.9047 10.18 16.9047 10.01C16.9047 9.83 16.8847 9.66 16.8647 9.49L18.0947 8.21C18.7447 7.53 18.8747 6.48 18.4047 5.66L17.6447 4.35C17.1747 3.54 16.2047 3.12 15.2947 3.34L13.5247 3.76C13.2347 3.56 12.9547 3.39 12.6747 3.25L12.1647 1.53C11.8947 0.63 11.0547 0 10.1147 0H8.60472C7.65472 0 6.81472 0.63 6.55472 1.54L6.06472 3.23C5.77472 3.37 5.48472 3.55 5.18472 3.75L3.41472 3.33C2.49472 3.11 1.53472 3.53 1.06472 4.34L0.304717 5.65C-0.175283 6.47 -0.0452836 7.52 0.614717 8.2L1.84472 9.48C1.81472 9.65 1.80472 9.82 1.80472 10C1.80472 10.17 1.81472 10.33 1.83472 10.49L0.584717 11.81C-0.0652835 12.49 -0.185283 13.54 0.284717 14.35L1.04472 15.66C1.51472 16.48 2.48472 16.89 3.40472 16.66L5.13472 16.23C5.43472 16.44 5.73472 16.62 6.03472 16.77L6.52472 18.46ZM5.85472 14.58C5.70472 14.46 5.51472 14.4 5.32472 14.4L5.33472 14.42C5.26472 14.42 5.19472 14.43 5.12472 14.45L2.99472 14.98C2.83472 15.02 2.65472 14.95 2.57472 14.8L1.81472 13.49C1.72472 13.34 1.74472 13.15 1.86472 13.03L3.40472 11.41C3.58472 11.22 3.66472 10.96 3.63472 10.7L3.60472 10.48C3.6036 10.4711 3.60249 10.4622 3.60138 10.4533C3.58255 10.3033 3.56472 10.1611 3.56472 10.01C3.56472 9.8825 3.58159 9.755 3.59847 9.6275C3.60409 9.585 3.60972 9.5425 3.61472 9.5L3.64472 9.3C3.67472 9.03 3.58472 8.77 3.40472 8.58L1.87472 7C1.75472 6.87 1.73472 6.69 1.81472 6.54L2.57472 5.23C2.65472 5.08 2.82472 5.01 2.99472 5.05L5.15472 5.57C5.40472 5.63 5.67472 5.58 5.88472 5.42C6.31472 5.09 6.71472 4.86 7.11472 4.69C7.35472 4.58 7.54472 4.38 7.61472 4.12L8.21472 2.04C8.26472 1.87 8.41472 1.76 8.58472 1.76H10.0947C10.2647 1.76 10.4147 1.87 10.4647 2.03L11.0847 4.13C11.1647 4.38 11.3447 4.59 11.5847 4.69C11.9747 4.85 12.3547 5.08 12.7947 5.41C13.0047 5.56 13.2747 5.62 13.5247 5.56L15.6847 5.04C15.8547 5 16.0247 5.07 16.1047 5.22L16.8647 6.53C16.9447 6.68 16.9247 6.87 16.8047 6.99L15.2747 8.57C15.0847 8.76 15.0047 9.03 15.0347 9.29L15.0647 9.49C15.0699 9.5338 15.0757 9.57694 15.0815 9.61993C15.0982 9.74378 15.1147 9.86638 15.1147 10C15.1147 10.16 15.0947 10.32 15.0747 10.47L15.0447 10.69C15.0047 10.95 15.0947 11.21 15.2747 11.4L16.8147 13.02C16.9247 13.15 16.9547 13.33 16.8647 13.48L16.1047 14.79C16.0247 14.94 15.8447 15.01 15.6847 14.97L13.5547 14.44C13.2947 14.37 13.0247 14.43 12.8147 14.59C12.3647 14.93 11.9747 15.17 11.5847 15.33C11.3447 15.43 11.1547 15.64 11.0847 15.89L10.4647 17.99C10.4147 18.15 10.2647 18.26 10.0947 18.26H8.57472C8.40472 18.26 8.25472 18.14 8.20472 17.98L7.60472 15.9C7.53472 15.64 7.35472 15.43 7.10472 15.33C6.70472 15.16 6.29472 14.91 5.85472 14.58Z" fill="black"/>
</svg>
