<svg width="24" height="24" viewBox="0 0 24 24" fill="none" xmlns="http://www.w3.org/2000/svg">
<path d="M13.1127 22H10.8927C9.4127 22 8.2127 20.8 8.2127 19.32V13.18C6.0827 11.67 5.0527 9.10999 5.5827 6.49999C5.9527 4.64999 7.13271 3.05999 8.81271 2.11999L9.2427 1.90999C9.5127 1.77999 9.8327 1.78999 10.0827 1.94999C10.3427 2.10999 10.4927 2.37999 10.5027 2.67999L10.5527 6.74999C10.5527 7.24999 10.9727 7.65999 11.4827 7.65999H12.5527C13.0627 7.65999 13.4827 7.23999 13.4827 6.72999V2.69999C13.4827 2.39999 13.6427 2.11999 13.8927 1.95999C14.1527 1.79999 14.4727 1.77999 14.7427 1.91999L15.1527 2.11999C17.2727 3.29999 18.5627 5.48999 18.5627 7.85999C18.5627 9.99999 17.5327 11.96 15.7927 13.19V19.33C15.7927 20.81 14.5927 22.01 13.1127 22.01V22ZM8.77271 4.28999C8.03271 4.95999 7.4927 5.86999 7.2927 6.84999C6.8827 8.88999 7.7627 10.89 9.5427 11.96C9.8027 12.12 9.9627 12.4 9.9627 12.71V19.32C9.9627 19.83 10.3827 20.25 10.8927 20.25H13.1127C13.6227 20.25 14.0427 19.83 14.0427 19.32V12.71C14.0427 12.4 14.2027 12.12 14.4627 11.96C15.9327 11.08 16.8127 9.53999 16.8127 7.84999C16.8127 6.48999 16.2327 5.19999 15.2327 4.29999V6.73999C15.2327 8.21999 14.0327 9.41999 12.5527 9.41999H11.4827C10.0227 9.41999 8.8227 8.23999 8.8027 6.77999L8.77271 4.28999Z" fill="black"/>
</svg>
